<?xml version="1.0" encoding="utf-8"?>
<!-- Generator: Adobe Illustrator 14.0.0, SVG Export Plug-In . SVG Version: 6.00 Build 43363)  -->
<!DOCTYPE svg PUBLIC "-//W3C//DTD SVG 1.1//EN" "http://www.w3.org/Graphics/SVG/1.1/DTD/svg11.dtd">
<svg version="1.1" id="Layer_2" xmlns="http://www.w3.org/2000/svg" xmlns:xlink="http://www.w3.org/1999/xlink" x="0px" y="0px"
	 width="60px" height="60px" viewBox="0 0 60 60" enable-background="new 0 0 60 60" xml:space="preserve">
<path opacity="0.51" fill="#58595B" d="M37.293,31.697c0,4.027-3.264,7.293-7.293,7.293c-4.028,0-7.294-3.266-7.294-7.293
	c0-4.03,3.267-7.295,7.294-7.295C34.029,24.402,37.293,27.667,37.293,31.697z M40.021,31.697c0,5.532-4.486,10.02-10.021,10.02
	c-5.535,0-10.021-4.487-10.021-10.02c0-5.537,4.487-10.023,10.021-10.023C35.535,21.674,40.021,26.161,40.021,31.697z M45.89,26.16
	h-4.608v-2.326h4.608V26.16z M45.447,19.266h-7.521c-0.155-0.912-0.896-4.526-2.818-4.526c-2.2,0-7.142,0-9.745,0
	c-2.272,0-3.004,3.614-3.153,4.526h-7.656c-1.438,0-2.602,1.166-2.602,2.602v19.657c0,1.435,1.164,2.603,2.602,2.603h30.895
	c1.438,0,2.603-1.168,2.603-2.603V21.868C48.05,20.432,46.885,19.266,45.447,19.266z"/>
<g opacity="0.51">
	<path fill="#58595B" d="M30.456,60.229c-0.579,0-1.052-0.464-1.061-1.045c-0.009-0.586,0.458-1.069,1.045-1.078
		c2.052-0.032,4.095-0.291,6.071-0.769c0.56-0.139,1.144,0.213,1.281,0.783c0.138,0.569-0.213,1.144-0.783,1.281
		c-2.129,0.514-4.327,0.792-6.536,0.827C30.467,60.229,30.461,60.229,30.456,60.229L30.456,60.229z M24.13,59.632
		c-0.072,0-0.145-0.007-0.217-0.022c-2.155-0.448-4.263-1.14-6.266-2.056c-0.533-0.244-0.768-0.874-0.523-1.407
		c0.245-0.533,0.874-0.768,1.407-0.524c1.858,0.851,3.815,1.492,5.815,1.909c0.574,0.119,0.942,0.682,0.823,1.255
		C25.064,59.288,24.623,59.632,24.13,59.632L24.13,59.632z M42.733,57.258c-0.391,0-0.767-0.216-0.952-0.589
		c-0.261-0.525-0.046-1.163,0.479-1.424c1.827-0.907,3.559-2.021,5.146-3.313c0.456-0.367,1.124-0.3,1.494,0.154
		c0.369,0.455,0.301,1.124-0.154,1.494c-1.709,1.389-3.573,2.589-5.54,3.566C43.053,57.223,42.892,57.258,42.733,57.258
		L42.733,57.258z M12.636,54.38c-0.224,0-0.451-0.07-0.643-0.217c-1.748-1.333-3.352-2.863-4.768-4.548
		c-0.377-0.449-0.319-1.119,0.13-1.496c0.45-0.379,1.12-0.318,1.496,0.129c1.315,1.566,2.806,2.987,4.43,4.226
		c0.466,0.356,0.556,1.022,0.2,1.488C13.272,54.236,12.956,54.38,12.636,54.38L12.636,54.38z M52.533,49.289
		c-0.229,0-0.461-0.074-0.655-0.228c-0.461-0.362-0.541-1.03-0.178-1.49c1.266-1.609,2.354-3.358,3.232-5.199
		c0.253-0.529,0.887-0.752,1.415-0.501c0.529,0.252,0.754,0.886,0.501,1.415c-0.946,1.982-2.117,3.866-3.48,5.598
		C53.159,49.15,52.848,49.289,52.533,49.289L52.533,49.289z M4.515,44.705c-0.385,0-0.755-0.209-0.944-0.574
		c-1.011-1.956-1.803-4.028-2.354-6.158c-0.147-0.567,0.194-1.146,0.762-1.294c0.57-0.142,1.147,0.195,1.294,0.763
		c0.511,1.977,1.247,3.899,2.185,5.715c0.269,0.521,0.065,1.161-0.456,1.431C4.846,44.667,4.679,44.705,4.515,44.705L4.515,44.705z
		 M57.97,37.883c-0.077,0-0.155-0.008-0.234-0.025c-0.571-0.129-0.931-0.697-0.803-1.27c0.446-1.983,0.673-4.03,0.673-6.083
		c0-0.588-0.02-1.172-0.055-1.751c-0.036-0.585,0.409-1.089,0.994-1.125c0.604-0.04,1.09,0.41,1.125,0.994
		c0.039,0.622,0.059,1.25,0.059,1.882c0,2.209-0.243,4.413-0.724,6.55C58.894,37.548,58.455,37.883,57.97,37.883L57.97,37.883z
		 M1.347,32.477c-0.571,0-1.043-0.454-1.061-1.029c-0.01-0.313-0.015-0.626-0.015-0.942c0-1.891,0.179-3.783,0.531-5.625
		c0.111-0.576,0.665-0.954,1.243-0.843c0.576,0.11,0.954,0.667,0.843,1.243c-0.328,1.71-0.494,3.469-0.494,5.226
		c0,0.294,0.005,0.587,0.014,0.878c0.018,0.586-0.442,1.075-1.028,1.094C1.369,32.477,1.357,32.477,1.347,32.477L1.347,32.477z
		 M57.514,23.491c-0.46,0-0.883-0.3-1.019-0.764c-0.574-1.959-1.37-3.858-2.366-5.643c-0.285-0.512-0.102-1.159,0.41-1.444
		c0.512-0.286,1.159-0.102,1.445,0.41c1.072,1.923,1.93,3.969,2.548,6.081c0.165,0.563-0.157,1.152-0.72,1.317
		C57.713,23.477,57.612,23.491,57.514,23.491L57.514,23.491z M3.731,20.07c-0.143,0-0.287-0.029-0.426-0.09
		c-0.537-0.235-0.782-0.861-0.546-1.398c0.882-2.012,1.992-3.932,3.301-5.706c0.348-0.473,1.013-0.574,1.484-0.225
		c0.472,0.348,0.573,1.013,0.225,1.484c-1.215,1.648-2.246,3.431-3.065,5.299C4.529,19.833,4.14,20.07,3.731,20.07L3.731,20.07z
		 M51.367,12.455c-0.291,0-0.581-0.119-0.791-0.354c-1.365-1.524-2.899-2.898-4.561-4.084c-0.478-0.34-0.589-1.003-0.248-1.481
		c0.34-0.478,1.004-0.587,1.48-0.248c1.789,1.276,3.44,2.755,4.91,4.396c0.392,0.437,0.354,1.108-0.083,1.499
		C51.873,12.366,51.62,12.455,51.367,12.455L51.367,12.455z M11.229,9.899c-0.297,0-0.593-0.124-0.803-0.366
		C10.042,9.09,10.09,8.42,10.533,8.036c1.665-1.443,3.49-2.702,5.425-3.741c0.518-0.278,1.161-0.083,1.438,0.434
		c0.277,0.517,0.083,1.16-0.434,1.438C15.166,7.13,13.47,8.299,11.924,9.64C11.723,9.814,11.476,9.899,11.229,9.899L11.229,9.899z
		 M41.08,5.119c-0.138,0-0.276-0.027-0.411-0.083c-1.883-0.79-3.859-1.369-5.872-1.722c-0.578-0.101-0.964-0.651-0.863-1.229
		c0.101-0.577,0.655-0.963,1.229-0.863c2.17,0.38,4.299,1.004,6.329,1.855c0.54,0.227,0.795,0.849,0.568,1.39
		C41.889,4.875,41.494,5.119,41.08,5.119L41.08,5.119z M22.359,3.929c-0.466,0-0.893-0.309-1.023-0.78
		C21.18,2.584,21.512,2,22.078,1.844c2.115-0.583,4.305-0.932,6.509-1.035c0.587-0.042,1.083,0.425,1.11,1.011
		c0.027,0.585-0.425,1.083-1.011,1.11c-2.046,0.096-4.08,0.419-6.043,0.96C22.548,3.917,22.453,3.929,22.359,3.929L22.359,3.929z"/>
</g>
</svg>
