<?xml version="1.0" encoding="utf-8"?>
<!-- Generator: Adobe Illustrator 20.1.0, SVG Export Plug-In . SVG Version: 6.00 Build 0)  -->
<svg version="1.1" id="Layer_1" xmlns="http://www.w3.org/2000/svg" xmlns:xlink="http://www.w3.org/1999/xlink" x="0px" y="0px"
	 viewBox="0 0 1296 864" style="enable-background:new 0 0 1296 864;" xml:space="preserve">
<style type="text/css">
	.st0{fill:#D1D3D4;}
	.st1{fill:#B1C2C1;}
	.st2{fill:#0E8E87;}
</style>
<rect id="photo_2_" x="57.2" y="81.8" class="st0" width="336.3" height="504.4"/>
<rect id="photo_1_" x="475.5" y="81.8" class="st0" width="336.3" height="504.4"/>
<rect id="photo" x="893.8" y="81.8" class="st0" width="336.3" height="504.4"/>
<g id="fill_1_">
	<circle class="st1" cx="434.5" cy="375.3" r="6.8"/>
	<circle class="st1" cx="434.5" cy="334" r="6.8"/>
	<circle class="st1" cx="434.5" cy="292.8" r="6.8"/>
	<circle class="st1" cx="852.8" cy="375.3" r="6.8"/>
	<circle class="st1" cx="852.8" cy="334" r="6.8"/>
	<circle class="st1" cx="852.8" cy="292.8" r="6.8"/>
	<g>
		<g>
			<path class="st1" d="M1253,760.6c0-3.9,3.1-7,7-7l0,0c3.9,0,7,3.1,7,7l0,0c0,3.9-3.1,7-7,7l0,0
				C1256.1,767.6,1253,764.4,1253,760.6z M1217,760.6c0-3.9,3.1-7,7-7l0,0c3.9,0,7,3.1,7,7l0,0c0,3.9-3.1,7-7,7l0,0
				C1220.1,767.6,1217,764.4,1217,760.6z M1181,760.6c0-3.9,3.1-7,7-7l0,0c3.9,0,7,3.1,7,7l0,0c0,3.9-3.1,7-7,7l0,0
				C1184.1,767.6,1181,764.4,1181,760.6z M1145,760.6c0-3.9,3.1-7,7-7l0,0c3.9,0,7,3.1,7,7l0,0c0,3.9-3.1,7-7,7l0,0
				C1148.1,767.6,1145,764.4,1145,760.6z M1109,760.6c0-3.9,3.1-7,7-7l0,0c3.9,0,7,3.1,7,7l0,0c0,3.9-3.1,7-7,7l0,0
				C1112.1,767.6,1109,764.4,1109,760.6z M1073,760.6c0-3.9,3.1-7,7-7l0,0c3.9,0,7,3.1,7,7l0,0c0,3.9-3.1,7-7,7l0,0
				C1076.1,767.6,1073,764.4,1073,760.6z M1037,760.6c0-3.9,3.1-7,7-7l0,0c3.9,0,7,3.1,7,7l0,0c0,3.9-3.1,7-7,7l0,0
				C1040.1,767.6,1037,764.4,1037,760.6z M1001,760.6c0-3.9,3.1-7,7-7l0,0c3.9,0,7,3.1,7,7l0,0c0,3.9-3.1,7-7,7l0,0
				C1004.1,767.6,1001,764.4,1001,760.6z M965,760.6c0-3.9,3.1-7,7-7l0,0c3.9,0,7,3.1,7,7l0,0c0,3.9-3.1,7-7,7l0,0
				C968.1,767.6,965,764.4,965,760.6z M929,760.6c0-3.9,3.1-7,7-7l0,0c3.9,0,7,3.1,7,7l0,0c0,3.9-3.1,7-7,7l0,0
				C932.1,767.6,929,764.4,929,760.6z M893,760.6c0-3.9,3.1-7,7-7l0,0c3.9,0,7,3.1,7,7l0,0c0,3.9-3.1,7-7,7l0,0
				C896.1,767.6,893,764.4,893,760.6z M857,760.6c0-3.9,3.1-7,7-7l0,0c3.9,0,7,3.1,7,7l0,0c0,3.9-3.1,7-7,7l0,0
				C860.1,767.6,857,764.4,857,760.6z M821,760.6c0-3.9,3.1-7,7-7l0,0c3.9,0,7,3.1,7,7l0,0c0,3.9-3.1,7-7,7l0,0
				C824.1,767.6,821,764.4,821,760.6z M785,760.6c0-3.9,3.1-7,7-7l0,0c3.9,0,7,3.1,7,7l0,0c0,3.9-3.1,7-7,7l0,0
				C788.1,767.6,785,764.4,785,760.6z M749,760.6c0-3.9,3.1-7,7-7l0,0c3.9,0,7,3.1,7,7l0,0c0,3.9-3.1,7-7,7l0,0
				C752.1,767.6,749,764.4,749,760.6z M713,760.6c0-3.9,3.1-7,7-7l0,0c3.9,0,7,3.1,7,7l0,0c0,3.9-3.1,7-7,7l0,0
				C716.1,767.6,713,764.4,713,760.6z M677,760.6c0-3.9,3.1-7,7-7l0,0c3.9,0,7,3.1,7,7l0,0c0,3.9-3.1,7-7,7l0,0
				C680.1,767.6,677,764.4,677,760.6z M641,760.6c0-3.9,3.1-7,7-7l0,0c3.9,0,7,3.1,7,7l0,0c0,3.9-3.1,7-7,7l0,0
				C644.1,767.6,641,764.4,641,760.6z M605,760.6c0-3.9,3.1-7,7-7l0,0c3.9,0,7,3.1,7,7l0,0c0,3.9-3.1,7-7,7l0,0
				C608.1,767.6,605,764.4,605,760.6z M569,760.6c0-3.9,3.1-7,7-7l0,0c3.9,0,7,3.1,7,7l0,0c0,3.9-3.1,7-7,7l0,0
				C572.1,767.6,569,764.4,569,760.6z M533,760.6c0-3.9,3.1-7,7-7l0,0c3.9,0,7,3.1,7,7l0,0c0,3.9-3.1,7-7,7l0,0
				C536.1,767.6,533,764.4,533,760.6z M497,760.6c0-3.9,3.1-7,7-7l0,0c3.9,0,7,3.1,7,7l0,0c0,3.9-3.1,7-7,7l0,0
				C500.1,767.6,497,764.4,497,760.6z M461,760.6c0-3.9,3.1-7,7-7l0,0c3.9,0,7,3.1,7,7l0,0c0,3.9-3.1,7-7,7l0,0
				C464.1,767.6,461,764.4,461,760.6z M425,760.6c0-3.9,3.1-7,7-7l0,0c3.9,0,7,3.1,7,7l0,0c0,3.9-3.1,7-7,7l0,0
				C428.1,767.6,425,764.4,425,760.6z M389,760.6c0-3.9,3.1-7,7-7l0,0c3.9,0,7,3.1,7,7l0,0c0,3.9-3.1,7-7,7l0,0
				C392.1,767.6,389,764.4,389,760.6z M353,760.6c0-3.9,3.1-7,7-7l0,0c3.9,0,7,3.1,7,7l0,0c0,3.9-3.1,7-7,7l0,0
				C356.1,767.6,353,764.4,353,760.6z M317,760.6c0-3.9,3.1-7,7-7l0,0c3.9,0,7,3.1,7,7l0,0c0,3.9-3.1,7-7,7l0,0
				C320.1,767.6,317,764.4,317,760.6z M281,760.6c0-3.9,3.1-7,7-7l0,0c3.9,0,7,3.1,7,7l0,0c0,3.9-3.1,7-7,7l0,0
				C284.1,767.6,281,764.4,281,760.6z M245,760.6c0-3.9,3.1-7,7-7l0,0c3.9,0,7,3.1,7,7l0,0c0,3.9-3.1,7-7,7l0,0
				C248.1,767.6,245,764.4,245,760.6z M209,760.6c0-3.9,3.1-7,7-7l0,0c3.9,0,7,3.1,7,7l0,0c0,3.9-3.1,7-7,7l0,0
				C212.1,767.6,209,764.4,209,760.6z M173,760.6c0-3.9,3.1-7,7-7l0,0c3.9,0,7,3.1,7,7l0,0c0,3.9-3.1,7-7,7l0,0
				C176.1,767.6,173,764.4,173,760.6z M137,760.6c0-3.9,3.1-7,7-7l0,0c3.9,0,7,3.1,7,7l0,0c0,3.9-3.1,7-7,7l0,0
				C140.1,767.6,137,764.4,137,760.6z M101,760.6c0-3.9,3.1-7,7-7l0,0c3.9,0,7,3.1,7,7l0,0c0,3.9-3.1,7-7,7l0,0
				C104.1,767.6,101,764.4,101,760.6z M65,760.6c0-3.9,3.1-7,7-7l0,0c3.9,0,7,3.1,7,7l0,0c0,3.9-3.1,7-7,7l0,0
				C68.1,767.6,65,764.4,65,760.6z M29,760.6c0-3.9,3.1-7,7-7l0,0c3.9,0,7,3.1,7,7l0,0c0,3.9-3.1,7-7,7l0,0
				C32.1,767.6,29,764.4,29,760.6z"/>
		</g>
		<path class="st1" d="M6.9,759.2c-0.1-0.5-0.2-0.9-0.4-1.3c-0.2-0.4-0.4-0.8-0.6-1.2c-0.2-0.4-0.5-0.7-0.9-1.1
			c-1.3-1.3-3.1-2-4.9-2v14c1.8,0,3.6-0.8,4.9-2.1c0.3-0.3,0.6-0.7,0.9-1.1s0.5-0.8,0.6-1.2c0.2-0.4,0.3-0.9,0.4-1.3
			c0.1-0.4,0.1-0.9,0.1-1.4C7,760.1,6.9,759.7,6.9,759.2z"/>
		<path class="st1" d="M1296,753.6c-0.5,0-0.9,0-1.4,0.1c-0.4,0.1-0.9,0.2-1.3,0.4c-0.4,0.2-0.8,0.4-1.2,0.6
			c-0.4,0.3-0.7,0.5-1.1,0.9c-0.3,0.3-0.6,0.7-0.9,1.1c-0.2,0.4-0.5,0.8-0.6,1.2c-0.2,0.4-0.3,0.9-0.4,1.3s-0.1,0.9-0.1,1.4
			c0,0.5,0,0.9,0.1,1.4c0.1,0.5,0.2,0.9,0.4,1.3c0.2,0.4,0.4,0.8,0.6,1.2s0.5,0.7,0.9,1.1c0.3,0.3,0.7,0.6,1.1,0.9
			c0.4,0.3,0.8,0.5,1.2,0.7c0.4,0.2,0.9,0.3,1.3,0.4c0.5,0.1,0.9,0.1,1.4,0.1V753.6z"/>
	</g>
</g>
<g id="fill">
	<path class="st2" d="M198,786.5c-11.2,16.7-29.2,37.1-49.8,33.4c-2.1-0.6-4.6-1.2-6.1-2.1c-19.1-9.4-10-27.7,6.1-46.5
		c15.2-17.6,46.8-38.6,66.6-51.7c14-28.6,31.6-67.8,36.2-81.8c-16.4,18.8-46.5,69.9-74.2,69.9c-27.1,0-24.3-27.4-15.5-44.4
		c6.7-13.4,14.9-23.4,24.6-31.9c13.4-12.8,24.6,1.5,20.7,4.6c-7,4-17.3,14-26.4,25.8c-4.9,6.4-16.7,31-8.5,36.8
		c5.5,4.3,16.1,0,24.9-8.5c22.8-21.6,39.2-45.9,59-69.9c2.7-7,21.6,1.2,20.1,4.6c-7.6,16.7-25.5,57.4-36.8,81.5
		c7.6-4,36.2-26.1,54.4-48.6c3.6-4.6,6.1,0.3,2.4,5.2c-12.2,16.4-46.2,47.7-62.9,56.8C219.6,746.4,207.4,771.7,198,786.5z
		 M155.1,776.2c-23.1,23.1-15.2,48.9,7.6,30.7c23.1-18.5,33.4-49.8,46.2-75.7C193.1,743.1,170.9,760.1,155.1,776.2z"/>
	<path class="st2" d="M343,680.8c-1.8-6.4,2.4-11.2,7.6-9.7c8.2-16.4,5.8-22.8,4.3-26.4c-3.3-8.5,10-11.6,12.5-3.3
		c4.3,12.5-6.4,31.3-13.1,40.7c0.3,5.8,3.6,8.2,7.6,8.2c9.7,0,19.8-11.2,25.8-17.6c3.6-4.3,7.6-8.8,10.6-13.1
		c1.5-2.1,5.2-0.3,3.6,2.4c-1.8,3.6-5.8,8.5-10.3,14c-6.7,8.2-18.8,21.3-30.7,21.3c-5.2,0-10.3-3-12.5-7.6c-4,4.3-7.9,8.2-11.9,11.9
		c-13.7,11.5-30.1,12.5-40.1,6.1c-10-6.1-13.7-20.4-8.2-39.2c3-11.5,13.1-27.7,26.7-39.8c11.2-10,24.9-14.9,34-11.6
		c5.5,1.8,10,7,8.8,14.6c-0.6,4.9-5.2,4.6-5.2,2.1c0.6-3.3,0-8.2-5.8-8.2c-13.4,0-42.6,31-47.4,58.7c-2.1,11.9,1.5,22.2,12.8,22.2
		c9.4,0,22.5-10,31.6-23.7C343.6,682,343,681.7,343,680.8z"/>
	<path class="st2" d="M497.7,703.6c-10,7.3-32.2,14.6-38.3-3.6c-2.7-8.2,0.9-28.6,5.2-39.2c-4.6,3-23.4,47.1-48.3,47.1
		c-6.1,0-17.3-4-21.3-10.3c-7-11.2-0.3-34,10.6-50.8c4.3-6.7,11.9-17.9,14.6-18.8c5.2-1.5,12.2-1.5,16.4,0c3.6,1.5,1.5,4.6-0.6,6.1
		c-6.7,6.1-22.2,22.2-29.8,42.6c-9.7,25.8,4,32.8,25.2,15.8c11.2-9.1,24.3-26.7,35.6-43.2c5.5-7.9,15.8-27.4,19.8-33.4
		c4,0,18.8,2.7,15.8,8.2c-3.6,6.1-14.9,24.9-18.8,32.8c-4.6,8.8-8.2,19.1-9.7,30.1c-1.8,13.1,4.3,20.1,14.3,14.9
		c9.7-5.5,32.5-24.6,45-42.2c1.5-2.1,5.5-0.3,4,2.4C531.4,672.6,512.9,692.6,497.7,703.6z"/>
	<path class="st2" d="M739,555.5c-7.6,7-14,17.3-9.1,24.9c1.2,1.8-1.5,4.3-4.6,0.9c-2.4-2.7-2.7-17.3,2.1-26.7l0.9-1.5
		c-7.6-8.2-24-17-38-13.7c-32.2,7.6-14.6,60.2-1.2,77.2c5.8,7.6,4.6,9.4-1.8,10.3c-18.5,2.1-38,9.7-48.3,15.2
		c-47.1,23.4-31.9,75.1,25.2,69.3c36.5-3.6,72-21.6,84.5-62.9c3.6-11.6,2.7-25.5,0.6-29.8c-11.9,7-25.2,13.7-36.2,20.4
		c-10.6,6.4-39.5,33.7-25.8,44.4c3.3,3,4.3,6.1-1.5,4.3c-8.5-2.7-10.6-22.8-4.3-35.6c4.6-8.2,13.1-14,24.6-20.7
		c31.6-18.8,78.7-33.4,71.4-50.8c-0.9-2.4,1.5-2.4,3,0c5.8,13.7-8.2,25.2-27.4,36.2c5.2,5.5,13.1,19.1,11.2,31.3
		c-8.8,47.1-63.8,66.3-103.3,69.3c-78.4,6.1-84.2-68.4-29.5-89.1c20.7-7.6,40.7-5.5,51.7-7c-18.8-15.8-44.1-51.4-27.4-75.1
		c8.2-11.6,38.6-17.3,51.7-13.7c7.3,1.8,18.8,8.2,24.3,15.2c3.6-4.3,7.6-8.2,11.9-8.5c4.9-1.2,10.9,2.4,6.1,7
		C748.1,548.6,743.3,551.3,739,555.5z"/>
	<path class="st2" d="M875.2,671.7c-3,3.3-3-3.6-0.3-7.6c12.5-16.4,14.9-20.4,20.1-30.4c0.9-5.2,2.1-15.8,15.8-12.2
		c4.9,1.2,4.6,4,2.1,8.8c-7.6,16.7-17.3,43.8-21,53.5c12.8-15.8,39.2-44.4,55.9-57.4c19.8-15.2,33.7-10,21,15.2
		c-3,5.8-8.8,19.1-11.5,24c10.6-9.7,28.3-24.3,41.9-29.5c3.3-1.2,24.6-8.5,16.4,4c-10.6,16.1-17.9,37.1-19.1,46.8
		c-1.8,13.1,4.3,20.1,14,14.9c10-5.5,32.8-24.6,45.3-42.2c1.5-2.1,5.5-0.3,4,2.4c-5.8,10.6-24.3,30.7-39.5,41.6
		c-10,7.3-32.5,14.6-38.6-3.6c-2.4-8.2,0.9-26.4,5.2-37.1c2.1-5.5,5.5-13.7,8.5-18.2c-18.5,7.3-36.8,28.6-45.9,38
		c-3.6,8.8-19.8,11.6-15.2,0c6.1-14.6,15.5-32.8,18.2-38c5.5-9.7,2.7-16.1-19.5,3c-17.3,15.8-42.9,55.9-48.6,59.3
		c-3,1.5-19.1,8.8-16.1,3c1.8-4,11.5-32.2,19.1-54.1C883.4,661.9,878.8,668,875.2,671.7z"/>
	<path class="st2" d="M1080.7,674.1c-4.6,0.3-6.7-4-2.1-4.3c9.7-0.9,26.7-10.6,38-19.8c5.2-4,14.3-13.1,13.7-19.8
		c-0.3-8.5-11.2-4-15.5-1.8c-17.9,8.2-44.1,33.4-50.8,55.6c-7.6,25.5,15.8,25.8,35.6,17.9c22.5-9.1,41.9-25.5,52.9-42.2
		c1.2-1.5,2.7-1.5,3.3-0.9c1.5,0.6,1.5,2.1,0.3,3.6c-12.2,20.1-31.3,36.8-52.6,45.6c-31,12.5-69.9,0-53.2-38.3
		c9.1-20.7,56.2-60.5,79-52.9c12.5,4.3,10.6,19.8,4.9,28.3C1123.2,661.3,1094.3,672.9,1080.7,674.1z"/>
</g>
</svg>
