<?xml version="1.0" encoding="utf-8"?>
<!-- Generator: Adobe Illustrator 20.1.0, SVG Export Plug-In . SVG Version: 6.00 Build 0)  -->
<svg version="1.1" id="Layer_2" xmlns="http://www.w3.org/2000/svg" xmlns:xlink="http://www.w3.org/1999/xlink" x="0px" y="0px"
	 viewBox="0 0 720 576" style="enable-background:new 0 0 720 576;" xml:space="preserve">
<style type="text/css">
	.st0{fill:#D1D3D4;}
	.st1{fill:#C7C8C9;}
	.st2{fill:#BCBEC0;}
	.st3{fill:#E3E4E6;}
	.st4{fill:#00B6BF;}
</style>
<polygon id="photo_3_" class="st0" points="205.7,119.8 51.9,119.8 52.4,122.9 54.2,124.3 51.9,125.6 53.1,128.9 57,133 58,139.4 
	55.7,141.7 53.9,138 51.2,135.2 44.6,135.2 35,132.2 30.2,130.7 30.8,138.4 33.5,142.2 35.5,152.5 36.1,155.1 37.8,153.6 
	39.1,155.9 38.1,160.4 37.6,166.6 39.8,167.7 38.8,172.7 36.6,207.2 34.1,214.2 33.5,217.8 32.3,222 33.5,225.3 33.3,229.4 
	35.5,234.9 35.1,237.7 38,242.9 34.6,256 34,260.5 40.5,269.3 40.6,273.6 41.4,277.6 41.6,281.4 48.4,289.2 49.2,293.7 51.2,294.6 
	55.4,298.3 57.2,306.4 60.5,309.6 62.5,310.1 63.5,312.9 61.7,315.6 62.4,319 68.8,327 73.1,331 74,333.1 76.6,336.1 77,342.9 
	78.8,345.3 85.3,345.9 89.4,345.8 93.2,348.6 97,351.1 101,351.2 102.7,354.7 106,355.2 115.3,364.5 115.4,369.6 117.6,371.8 
	144.6,369 144.5,372.6 187.6,387.9 205.7,387.9 "/>
<polygon id="photo_2_" class="st1" points="691.7,188.1 690.2,185 688,184.3 687,178.3 682.9,176 683.7,168.1 683,153.5 
	677.4,148.6 675.7,149.6 670.6,150.8 667.8,146 657.5,159.1 657,163.6 655,166.2 654.3,172.4 653,175.5 649.9,177.7 649.2,180.8 
	647.2,181.7 644.9,182.7 642.9,182 640.7,186.3 602.1,187.6 595.8,191.1 589,197.9 583.8,202.4 580.2,209 556.6,209.4 552,211.7 
	555.3,221.3 542.2,228.4 528.1,232.3 515.5,239.6 512.5,239.6 507.3,236.1 508.2,229.9 511.3,228.1 514.3,224.6 519.1,209.4 
	513.8,181.5 502.4,173.9 504,170.9 501.2,169.1 497.7,169.5 495.9,162.2 491.2,163.1 487.8,156.4 446.9,132.4 436.2,137.9 
	430.2,137.5 427.7,135.9 421.9,135.4 421.9,414.3 424.2,414.3 425.7,416.8 428.2,416.3 429.5,413.3 432.5,414.1 434.2,413.3 
	431,410.5 432.8,408.1 429.5,405.8 432.2,402.8 434.7,402.8 440.3,400.3 442.1,401 448.4,400.5 450.3,399 452.3,399 454.1,401.8 
	458.9,401 469.3,400.5 477.3,403.7 480.6,406.5 481.3,409.6 483.9,409.6 485.6,408 488.4,408.8 493.2,406.6 494.2,404.5 
	497.4,404.7 501.7,407.6 506.3,414.4 512.3,418.6 512.2,425.1 510.7,432.9 512.3,435.2 513.5,433.5 514.8,434.8 513,438.3 
	516,446.1 518.6,446.1 518.6,449 521.1,450.6 522.6,455.9 524.4,458.6 527.2,460.6 530.9,464.5 531.2,468 534.7,468 539.4,466 
	539.9,462.2 542,458.2 542.7,444.8 537.4,432.4 537.2,426.2 534.2,421.4 528.9,409.1 527.2,399.5 526.6,393.4 525.6,391.7 
	528.7,382.8 531.1,381.4 535.9,375.8 537.7,372.3 544.2,369.1 549.2,364.7 551.5,361.5 558.8,354.4 564.4,353.1 566.9,352.7 
	569.7,346.7 578.5,342.9 582.8,342.9 585.5,339.8 583.2,337.5 583.2,332.5 587.5,332.5 591.5,330 592.3,326.3 591.3,323.9 
	585.3,323.4 588.5,321.9 593.1,322 589.5,311.2 584.8,307.1 584.8,302.6 586,296.8 584.8,290 585.7,288 589.5,291 591.3,295.5 
	589,302.4 590.6,305.9 593.4,300.8 599.3,291.7 600.6,284.7 594.9,276.6 595.3,273.1 600.6,278.4 602.4,280.7 606.6,275.1 
	606.9,272.1 609,270.6 611.2,268.9 612,259 608.9,258 612.2,254 613.2,255.8 617.5,255.8 630.1,253 634.3,250 631.9,249 
	627.5,249.7 618.8,250.8 616.8,250.5 623.6,246.9 640.4,244.7 641.9,241.6 644.2,243.2 646.9,241.9 649,240.1 650.5,242.6 
	653,241.2 657.3,240.2 658.8,237.7 656.8,235.4 655.8,237.7 652.7,238.1 650.2,234.6 649.7,231.1 646.9,230.1 646.7,228.6 
	649.9,226 648.7,222.5 649.2,218.3 652,214.2 654.3,211.4 654.7,209.4 656,206.5 659.7,207.4 663.6,206.1 664,204.6 666.1,204.6 
	668.6,202.1 670.4,197.6 673.8,199.1 677.1,199.1 678.1,196.1 681.1,197.3 685,195.3 690.5,192.8 692.8,190 "/>
<polygon id="photo_1_" class="st2" points="420.7,265.1 420.7,135.3 420.1,135.2 418.7,133 412.6,136.4 409.9,136.4 405,131.4 
	401.3,132.4 399.7,129.7 397.3,129.4 393.5,126.7 389.5,126.2 387.2,128.6 384.6,128.6 383.4,126.7 375.4,124.8 372.9,113.8 
	368.5,113.8 368.5,119.8 206.9,119.8 206.9,265.1 "/>
<polygon id="photo" class="st3" points="206.9,266.3 206.9,387.9 219.3,387.9 219.5,381.9 238.7,381.8 243.4,386.7 248.5,390.2 
	251.5,393.9 254.8,395.5 257.1,398.3 259.8,403.5 260.6,407.8 264.6,412.6 275.1,418.8 277.9,418.9 280.9,415.9 282.9,409 
	285.2,408.8 286.8,407.1 289.8,408.5 296.8,408 299.4,412.1 304.4,415.4 309.7,424.7 310.1,427.7 315.5,434.4 318.5,437.2 
	320,443.5 324.5,452.4 335.1,457.1 339.8,457.1 342.9,459.6 346.2,456.7 343.2,452.9 343.2,449.6 345.1,449.4 344.2,442.3 
	347.6,432.9 354.7,428 362.2,422.2 369.6,418.1 370.5,411.3 373.1,409.3 376.4,411.8 381.1,410.1 393,408.5 400,411.5 407,411.5 
	407.3,409.1 410.3,411.3 413.3,410.3 416.1,414.6 420.6,415.6 420.7,415.4 420.7,266.3 "/>
<g id="fill">
	<path class="st4" d="M436.7,132.9c0,0.5-4.3,5.6-4.3,5.6l-7.8,3l-8.5,5.8l-9.6,9.5l-0.3,2.3l4.6-0.5l8.1-3.3l0.7,5l4.8,0.8
		l14.1-6.6l9-6.8l4.1-0.7l-0.2,1.5l-4.8,6.1l1.3,1.7l6.1,0.5l4.6,5.5l8.8,1.2l5.8-4l11.8-0.7l1,3l2.5,1.3l3.2-3.2l-0.5-2.7l1.7-0.2
		l-0.8-1.8l-3.3-0.8l1.2-5.5l-4.3-5.5l1.3-5.5h-9.3l-3.8-2.5l-3.3-9.1l-2.5-2.2l-4.3-0.5l-6.8-0.8l-6.8-2.7l-0.5,2.3l2.3,1.5l-4.6,3
		l-1.8-1.8l-3.7,4.6l-3.2-0.8L436.7,132.9z"/>
	<polygon class="st4" points="487.6,173.2 484.3,170.4 479,169.1 477.8,171.2 471.7,171.9 468.2,175.2 462.2,174.4 455.1,186.6 
		452.1,191.9 454.2,192.6 459.6,187.6 460.1,189.1 455.2,202.7 453.7,210.5 452.1,216.5 453.7,223.1 454.1,232.9 458.2,240.2 
		462.7,240.2 467.9,235.7 471.3,226.3 471.7,218.7 468.3,210.2 469.3,201.2 473,193.1 477,187.1 478.6,189.5 481.1,186.5 
		481.1,182.8 484.9,181.3 485.1,177.2 487.4,175.2 492.2,176.5 495.6,178.7 504.2,183 504,186.8 505.3,196.6 503,198.8 502.2,201.9 
		498.5,204.7 499.2,208.4 502.7,209 507.2,203.9 511.5,203.9 514,211.9 515,218 518.1,218.2 522.8,214 522.9,201.4 524.8,199.4 
		525.4,196.6 528.2,191 524.8,184.1 527.6,184.1 530.4,189 534.5,192.3 543,195.4 543.3,190.8 544.3,188.1 540.2,181.5 534.1,172.9 
		530.6,171.9 524.3,170.7 518.8,169.2 499.2,165.4 499.7,170.4 496.2,171.7 490.7,170.5 	"/>
	<polygon class="st4" points="505.8,235.1 503.2,238.6 509.2,242.4 511.7,243.2 521.1,242.9 523.3,242.4 529.1,238.2 542,232.3 
		556.5,222.5 553.8,220.8 541.2,222.3 538.2,225.1 529.1,224 524.9,227.1 521.6,230.8 518.5,230.8 514.5,234.3 	"/>
	<polygon class="st4" points="545.7,214.8 551.5,216.2 557.3,214.5 565.2,213.5 572,215.3 579.5,215.5 586.8,210 586.3,204.6 
		586.5,201.9 585.2,199.1 578.7,201.2 575.9,205.2 570.4,202.9 556,205.7 549.6,209.4 	"/>
</g>
</svg>
