<?xml version="1.0" encoding="utf-8"?>
<!-- Generator: Adobe Illustrator 20.1.0, SVG Export Plug-In . SVG Version: 6.00 Build 0)  -->
<svg version="1.1" id="Layer_1" xmlns="http://www.w3.org/2000/svg" xmlns:xlink="http://www.w3.org/1999/xlink" x="0px" y="0px"
	 viewBox="0 0 576 576" style="enable-background:new 0 0 576 576;" xml:space="preserve">
<style type="text/css">
	.st0{fill:#D1D3D4;}
	.st1{fill:#FEF3D5;}
	.st2{fill:#AC474D;}
	.st3{fill:#FF96A0;}
	.st4{fill:#FFD390;}
	.st5{fill:#FFFFFF;}
</style>
<circle id="photo" class="st0" cx="288" cy="288" r="72"/>
<circle id="fill_4_" class="st1" cx="288" cy="457.7" r="72"/>
<circle id="fill" class="st2" cx="288" cy="118.3" r="72"/>
<circle id="photo_1_" class="st0" cx="458.3" cy="288" r="72"/>
<circle id="fill_2_" class="st3" cx="458.3" cy="457.7" r="72"/>
<circle id="photo_2_" class="st0" cx="458.3" cy="118.3" r="72"/>
<circle id="fill_3_" class="st4" cx="117.7" cy="288" r="72"/>
<g id="fill_5_">
	<circle class="st5" cx="92.1" cy="262.2" r="16.9"/>
	<circle class="st5" cx="143.2" cy="262.2" r="16.9"/>
	<circle class="st5" cx="92.1" cy="313.8" r="16.9"/>
	<circle class="st5" cx="143.2" cy="313.8" r="16.9"/>
</g>
<circle id="photo_3_" class="st0" cx="117.7" cy="457.7" r="72"/>
<circle id="photo_4_" class="st0" cx="117.7" cy="118.3" r="72"/>
<g id="Layer_2_1_">
	<path id="fill_1_" class="st5" d="M458.9,506.7c0,0,31-29,39.8-39.8c9.4-11.6,5.7-27.9-3.1-34.3c-8.8-6.4-21.6-4.8-27.7-1
		c-6.2,3.9-9,12.3-9,12.3s-3.1-8.4-9-12.3c-6-3.9-19-5.4-27.7,1c-8.8,6.4-12.5,22.7-3.1,34.3C427.9,477.7,458.9,506.7,458.9,506.7z"
		/>
</g>
</svg>
