<?xml version="1.0" encoding="utf-8"?>
<!-- Generator: Adobe Illustrator 20.1.0, SVG Export Plug-In . SVG Version: 6.00 Build 0)  -->
<svg version="1.1" xmlns="http://www.w3.org/2000/svg" xmlns:xlink="http://www.w3.org/1999/xlink" x="0px" y="0px"
	 viewBox="0 0 720 576" style="enable-background:new 0 0 720 576;" xml:space="preserve">
<style type="text/css">
	.st0{fill:#D1D3D4;}
	.st1{opacity:0.6;fill:#FFFFFF;}
	.st2{fill:#6D6E71;}
	.st3{fill:#D5466F;}
	.st4{fill:#8B9C5A;}
</style>
<g id="Layer_1">
	<rect id="photo" class="st0" width="720" height="576"/>
</g>
<g id="Layer_3">
	<path id="fill-clouds_2_" class="st1" d="M720,576h-29.5h-11.7h-12.4h-7.8h-16.9H0V451v-59.3c3.4-1.2,7.1-1.9,10.9-1.9
		c9.2,0,17.4,3.9,23.2,10.1c3.6-9.3,12.7-15.9,23.3-15.9c13.8,0,25,11.2,25,25c0,3.2-0.6,6.2-1.7,9c0.5,0.2,1.1,0.3,1.6,0.5
		c2.3-2.4,5.5-3.9,9.1-3.9c5,0,9.3,3,11.3,7.2c3.9-3.1,8.8-5,14.2-5c12.6,0,22.8,10.2,22.8,22.8c0,1.6-0.2,3.2-0.5,4.7
		c0.2,0,0.3,0,0.5,0c2.9,0,5.7,0.5,8.4,1.4c0-0.5,0-0.9,0-1.4c0-14.3,11.6-25.8,25.8-25.8c8.7,0,16.4,4.3,21.1,10.9
		c5.4-3.7,11.9-5.9,18.9-5.9c8.2,0,15.7,2.9,21.5,7.8c2.9-12.8,14.3-22.3,28-22.3c11.2,0,20.9,6.5,25.6,15.9
		c4.4-2.5,9.5-3.9,14.9-3.9c16.8,0,30.4,13.4,30.8,30.1c2.9-2.8,6.8-4.6,11.1-4.6c8.7,0,15.8,7.1,15.8,15.8c0,1.4-0.2,2.8-0.5,4.1
		c0.9-0.1,1.8-0.1,2.8-0.1c15.1,0,27.9,9.9,32.2,23.6c3.2-1.3,6.6-1.9,10.3-1.9c7.6,0,14.4,3,19.4,7.8c0.1-17.5,14.4-31.7,31.9-31.7
		c15.7,0,28.8,11.4,31.5,26.4c3-1.6,6.4-2.5,10-2.5c6.8,0,12.9,3.2,16.8,8.2c4.3-3.4,9.7-5.4,15.6-5.4c7.9,0,14.9,3.6,19.5,9.3
		c1.1-11.3,10.6-20.1,22.1-20.1c9.3,0,17.2,5.7,20.6,13.8c3.3-8.1,11.3-13.8,20.6-13.8c12.3,0,22.2,9.9,22.2,22.2
		c0,2.3-0.4,4.5-1,6.6c4.2-2.8,9.2-4.4,14.6-4.4c11.7,0,21.6,7.6,25.1,18.2c3.9-4,9.4-6.5,15.5-6.5c10,0,18.5,6.8,20.9,16
		c1.1-0.1,2.1-0.2,3.2-0.2c1.7,0,3.4,0.2,5,0.4V576z"/>
</g>
<g id="Layer_2">
	<g id="fill3">
		<g>
			<path class="st2" d="M30.5,450.3h1.2l12,25.5h-1.3l-3.4-7.4H23.3l-3.5,7.4h-1.3L30.5,450.3z M38.3,467.3l-7.3-15.5l-7.3,15.5
				H38.3z"/>
		</g>
		<g>
			<path class="st2" d="M21.6,498.9h-2.8v-1h2.8v-2.3c0-2.1,0.5-3.7,1.6-4.7c0.9-0.9,2.1-1.3,3.6-1.3c1.1,0,1.9,0.2,2.6,0.5v1.1
				c-0.8-0.3-1.7-0.5-2.6-0.5c-2.5,0-4,1.6-4,5v2.2h6.5v1h-6.5v17.1h-1.2V498.9z"/>
			<path class="st2" d="M32.8,490.6h1.6v2.2h-1.6V490.6z M32.9,497.9h1.2v18.2h-1.2V497.9z"/>
			<path class="st2" d="M41.3,489.7h1.2v26.4h-1.2V489.7z"/>
			<path class="st2" d="M49.6,489.7h1.2v26.4h-1.2V489.7z"/>
			<path class="st2" d="M56,513.7l0.7-0.9c2,1.6,4.4,2.5,6.8,2.5c2.9,0,5.2-1.6,5.2-3.8v-0.1c0-2.6-2.7-3.4-5.5-4.1
				c-3.4-1-6.3-1.9-6.3-4.9v-0.1c0-2.7,2.5-4.8,6.2-4.8c2.1,0,4.5,0.7,6.4,2l-0.6,1c-1.7-1.2-3.9-1.9-5.8-1.9c-3,0-5,1.6-5,3.6v0.1
				c0,2.3,2.6,3.1,5.5,3.9c3.3,0.9,6.3,1.9,6.3,5.1v0.1c0,3-2.8,5-6.5,5C60.8,516.4,58,515.4,56,513.7z"/>
			<path class="st2" d="M84.4,510.9L84.4,510.9c0-3.9,3.4-5.9,8.1-5.9c2.5,0,4.7,0.4,6.5,1v-1.2c0-4.1-2.5-6.1-6.5-6.1
				c-2.2,0-4.1,0.6-5.9,1.5l-0.4-1c2-1,4-1.6,6.4-1.6c2.5,0,4.4,0.6,5.8,2c1.2,1.2,1.8,2.9,1.8,5.2v11.3H99v-3.8
				c-0.9,2-3.5,4.2-7.7,4.2C87.8,516.5,84.4,514.6,84.4,510.9z M99,509.3v-2.2c-1.8-0.6-3.9-1-6.6-1c-4,0-6.8,1.7-6.8,4.7v0.1
				c0,3,2.7,4.5,5.7,4.5C95.8,515.4,99,512.6,99,509.3z"/>
		</g>
		<g>
			<path class="st2" d="M257.8,490.6h1.6v2.2h-1.6V490.6z M258,497.9h1.2v18.2H258V497.9z"/>
			<path class="st2" d="M266.1,497.9h1.2v4.3c0.8-2.2,3.1-4.8,7-4.8c4.8,0,7.5,3.2,7.5,8v10.7h-1.2v-10.5c0-4.2-2.3-7.1-6.5-7.1
				c-3.8,0-6.9,3.1-6.9,7.3v10.3h-1.2V497.9z"/>
			<path class="st2" d="M296.9,521l0.5-1c0.9,0.5,1.9,0.8,3.1,0.8c2,0,3.2-1,4.9-4.8l-8.7-18.2h1.3l8,16.9l7.3-16.9h1.2l-8.2,18.7
				c-1.9,4.3-3.5,5.4-5.9,5.4C299.1,521.9,297.9,521.5,296.9,521z"/>
			<path class="st2" d="M317,507L317,507c0-5.2,3.9-9.6,9.5-9.6c5.6,0,9.4,4.4,9.4,9.5v0.1c0,5.1-3.8,9.5-9.4,9.5
				C320.9,516.5,317,512.1,317,507z M334.6,507L334.6,507c0-4.7-3.5-8.5-8.2-8.5c-4.8,0-8.1,3.8-8.1,8.4v0.1c0,4.6,3.5,8.4,8.2,8.4
				C331.3,515.4,334.6,511.6,334.6,507z"/>
			<path class="st2" d="M340.9,508.5v-10.6h1.2v10.5c0,4.2,2.3,7.1,6.5,7.1c3.8,0,6.9-3.1,6.9-7.3v-10.3h1.2v18.2h-1.2v-4.3
				c-0.8,2.2-3.1,4.8-7,4.8C343.6,516.5,340.9,513.2,340.9,508.5z"/>
			<path class="st2" d="M363.3,497.9h1.2v5.6c1.1-3.1,3.9-6,7.7-5.9v1.2c0,0-0.1,0-0.2,0c-4.4,0-7.5,4.3-7.5,8.7v8.6h-1.2V497.9z"/>
		</g>
		<g>
			<path class="st2" d="M21.4,549.7v-12.5h-2.8v-1h2.8V530h1.2v6.1h6.6v1h-6.6v12.4c0,2.7,1.4,4,3.8,4c0.9,0,1.8-0.2,2.7-0.6v1.1
				c-0.9,0.4-1.8,0.6-2.9,0.6C23.3,554.7,21.4,553,21.4,549.7z"/>
			<path class="st2" d="M34.3,528h1.2v12.5c0.8-2.2,3.1-4.8,7-4.8c4.8,0,7.5,3.2,7.5,8v10.7h-1.2v-10.5c0-4.2-2.3-7.1-6.5-7.1
				c-3.8,0-6.9,3.1-6.9,7.3v10.3h-1.2V528z"/>
			<path class="st2" d="M54.8,549.2L54.8,549.2c0-3.9,3.4-5.9,8.1-5.9c2.5,0,4.7,0.4,6.5,1v-1.2c0-4.1-2.5-6.1-6.5-6.1
				c-2.2,0-4.1,0.6-5.9,1.5l-0.4-1c2-1,4-1.6,6.4-1.6c2.5,0,4.4,0.6,5.8,2c1.2,1.2,1.8,2.9,1.8,5.2v11.3h-1.2v-3.8
				c-0.9,2-3.5,4.2-7.7,4.2C58.2,554.8,54.8,552.9,54.8,549.2z M69.4,547.6v-2.2c-1.8-0.6-3.9-1-6.6-1c-4,0-6.8,1.7-6.8,4.7v0.1
				c0,3,2.7,4.5,5.7,4.5C66.2,553.7,69.4,550.9,69.4,547.6z"/>
			<path class="st2" d="M77.7,549.7v-12.5h-2.8v-1h2.8V530h1.2v6.1h6.6v1h-6.6v12.4c0,2.7,1.4,4,3.8,4c0.9,0,1.8-0.2,2.7-0.6v1.1
				c-0.9,0.4-1.8,0.6-2.9,0.6C79.6,554.7,77.7,553,77.7,549.7z"/>
			<path class="st2" d="M99.3,559.3l0.5-1c0.9,0.5,1.9,0.8,3.1,0.8c2,0,3.2-1,4.9-4.8l-8.7-18.2h1.3l8,16.9l7.3-16.9h1.2l-8.2,18.7
				c-1.9,4.3-3.5,5.4-5.9,5.4C101.5,560.2,100.3,559.8,99.3,559.3z"/>
			<path class="st2" d="M119.4,545.3L119.4,545.3c0-5.2,3.9-9.6,9.5-9.6c5.6,0,9.4,4.4,9.4,9.5v0.1c0,5.1-3.8,9.5-9.4,9.5
				C123.3,554.8,119.4,550.4,119.4,545.3z M137,545.3L137,545.3c0-4.7-3.5-8.5-8.2-8.5c-4.8,0-8.1,3.8-8.1,8.4v0.1
				c0,4.6,3.5,8.4,8.2,8.4C133.7,553.7,137,549.9,137,545.3z"/>
			<path class="st2" d="M143.3,546.8v-10.7h1.2v10.5c0,4.2,2.3,7.1,6.5,7.1c3.8,0,6.9-3.1,6.9-7.3v-10.3h1.2v18.2h-1.2V550
				c-0.8,2.2-3.1,4.8-7,4.8C146,554.8,143.3,551.5,143.3,546.8z"/>
		</g>
		<g>
			<path class="st2" d="M427.8,536.1h1.3l5.7,16.7l5.7-16.8h0.9l5.7,16.8l5.7-16.7h1.2l-6.5,18.3h-1l-5.7-16.6l-5.7,16.6h-1
				L427.8,536.1z"/>
			<path class="st2" d="M457,549.2L457,549.2c0-3.9,3.4-5.9,8.1-5.9c2.5,0,4.7,0.4,6.5,1v-1.2c0-4.1-2.5-6.1-6.5-6.1
				c-2.2,0-4.1,0.6-5.9,1.5l-0.4-1c2-1,4-1.6,6.4-1.6c2.5,0,4.4,0.6,5.8,2c1.2,1.2,1.8,2.9,1.8,5.2v11.3h-1.2v-3.8
				c-0.9,2-3.5,4.2-7.7,4.2C460.4,554.8,457,552.9,457,549.2z M471.6,547.6v-2.2c-1.8-0.6-3.9-1-6.6-1c-4,0-6.8,1.7-6.8,4.7v0.1
				c0,3,2.7,4.5,5.7,4.5C468.4,553.7,471.6,550.9,471.6,547.6z"/>
			<path class="st2" d="M477.4,552l0.7-0.9c2,1.6,4.4,2.5,6.8,2.5c2.9,0,5.2-1.6,5.2-3.8v-0.1c0-2.6-2.7-3.4-5.5-4.1
				c-3.4-1-6.3-1.9-6.3-4.9v-0.1c0-2.7,2.5-4.8,6.2-4.8c2.1,0,4.5,0.7,6.4,2l-0.6,1c-1.7-1.2-3.9-1.9-5.8-1.9c-3,0-5,1.6-5,3.6v0.1
				c0,2.3,2.6,3.1,5.5,3.9c3.3,0.9,6.3,1.9,6.3,5.1v0.1c0,3-2.8,5-6.5,5C482.2,554.7,479.4,553.7,477.4,552z"/>
		</g>
	</g>
	<g id="fill1">
		<g>
			<g>
				<path class="st3" d="M78.1,477.7c0,2.2-1.2,3.9-3.7,5.2c-2.1,1.1-4.7,1.7-7.6,1.7c-2.1,0-4-0.4-5.5-1.3
					c-1.7-0.9-2.6-2.1-2.6-3.6c0-0.9,0.3-1.6,0.8-2.1c0.5-0.5,1.2-0.8,2-0.8c0.8,0,1.4,0.2,1.8,0.5c0.5,0.3,0.7,0.8,0.8,1.4
					c0,0.1,0,0.2,0,0.3c0,0.3-0.1,0.6-0.2,0.8c-0.1,0.1-0.1,0.1-0.2,0.1c-0.1,0-0.1,0-0.2-0.1c-0.2-0.4-0.4-0.7-0.7-0.9
					c-0.3-0.2-0.7-0.3-1.1-0.3c-0.4,0-0.7,0.2-1,0.5c-0.3,0.3-0.4,0.7-0.4,1.1c0,1.1,0.7,1.9,2.1,2.5c1.2,0.5,2.7,0.8,4.4,0.8
					c2.1,0,4-0.6,5.6-1.7c1.8-1.2,2.6-2.7,2.6-4.4c0-1.5-0.7-2.8-2.1-3.7c-1.3-0.9-2.8-1.3-4.5-1.3c-1.6,0-2.9,0.3-4,0.8
					c-0.6,0.3-1.1,0.7-1.6,1.2c-0.1,0.1-0.3,0.1-0.4,0c-0.3-0.2-0.5-0.3-0.7-0.5c-0.2-0.1-0.3-0.3-0.4-0.4c-0.1-0.1-0.1-0.2,0-0.4
					c0,0,0.4-0.2,1.1-0.7c0.2-0.1,0.5-0.4,0.9-0.7c0.7-0.5,1.3-1,1.7-1.5c0.3-0.3,0.6-0.7,0.8-1.1c-1.5-0.3-2.9-0.9-4.1-2
					c-1.6-1.3-2.4-2.9-2.4-4.6c0-2,0.9-3.6,2.6-4.8c1.6-1.2,3.5-1.7,5.7-1.7c1.2,0,2.2,0.1,3,0.3c0.8,0.2,1.7,0.5,2.6,1
					c0.3-0.3,0.5-0.6,0.6-0.9c0.2-0.4,0.3-0.9,0.3-1.4c0-0.4-0.1-0.7-0.3-0.9c-0.2-0.3-0.6-0.4-1-0.4c-0.2,0-0.4,0.1-0.6,0.2
					c-0.1,0-0.2,0.1-0.3,0.3c-0.1,0.1-0.1,0.1-0.2,0.1c0,0-0.1-0.1,0-0.2c0.1-0.5,0.2-0.9,0.4-1.2c0.3-0.5,0.8-0.8,1.4-0.8
					c0.8,0,1.4,0.3,1.8,0.8c0.3,0.5,0.5,1.1,0.5,1.9c0,0.6-0.2,1.3-0.5,1.9c-0.3,0.6-0.6,1-1,1.3c0.9,0.7,1.6,1.5,2.1,2.3
					c0.5,0.8,0.7,1.8,0.7,2.9c0,2-0.9,3.6-2.6,4.8c-1.6,1.1-3.6,1.7-5.9,1.7c-0.2,0-0.5,0-0.7,0c-0.3,0-0.5,0-0.6-0.1
					c-0.2,0.4-0.6,0.8-1.2,1.4c-0.5,0.5-1,0.9-1.4,1.2c0.7-0.2,1.4-0.4,2.1-0.5c0.7-0.1,1.5-0.1,2.3-0.1c2.3,0,4.3,0.5,5.9,1.4
					C77.1,473.9,78.1,475.5,78.1,477.7z M74.4,462.9c0-0.8-0.1-1.6-0.3-2.2c-0.2-0.6-0.6-1.2-1.1-1.8c-0.3,0.2-0.6,0.4-0.9,0.5
					c-0.3,0.1-0.7,0.2-1.1,0.2c-0.8,0-1.4-0.2-1.8-0.6c-0.3-0.3-0.5-0.7-0.5-1c0-0.1,0-0.2,0.1-0.2c0,0,0.1,0,0.2,0.1
					c0.2,0.2,0.4,0.4,0.5,0.5c0.3,0.2,0.7,0.3,1.2,0.3c0.3,0,0.6,0,0.9-0.1c0.3-0.1,0.5-0.2,0.7-0.3c-0.4-0.4-0.9-0.7-1.6-1
					c-0.7-0.3-1.5-0.4-2.2-0.4c-1.7,0-3.2,0.6-4.4,1.6c-1.3,1.1-1.9,2.5-1.9,4.1c0,1.4,0.4,2.7,1.1,3.7c0.8,1.1,1.8,1.8,3.2,2.1
					c0.1-0.3,0.1-0.5,0.1-0.7c0-0.4-0.1-0.8-0.4-1.3c-0.1-0.2,0-0.3,0.2-0.3s0.4-0.1,0.5-0.2c0.1,0,0.4-0.1,0.6-0.3
					c0.3-0.1,0.5-0.2,0.7-0.4c0.2-0.1,0.4-0.3,0.6-0.4c0.1-0.1,0.1-0.1,0.2,0c0.1,0,0.1,0.1,0.1,0.2c0,0.3-0.1,0.8-0.4,1.6
					c-0.3,0.7-0.5,1.4-0.8,1.9c0.2,0,0.5,0.1,0.7,0.1c1.4,0,2.8-0.5,4-1.6C73.7,465.7,74.4,464.4,74.4,462.9z"/>
				<path class="st3" d="M95.8,458.9c0,0.8-0.2,1.4-0.6,1.9c-0.4,0.5-1,0.7-1.7,0.7c-0.5,0-0.9-0.1-1.3-0.2
					c-0.4-0.1-0.6-0.3-0.7-0.6c0-0.1,0-0.1,0-0.2c0-0.1,0.1-0.1,0.2-0.1c0.2,0,0.5,0,0.7-0.1c0.2-0.1,0.4-0.2,0.6-0.4
					c0.2-0.3,0.3-0.6,0.3-0.9c0-0.4-0.2-0.8-0.5-1.1c-0.4-0.3-1-0.5-1.7-0.5c-0.9,0-1.9,0.4-2.8,1.3c-0.8,0.7-1.4,1.6-1.9,2.7v12.3
					c0,0.2,0.1,0.5,0.4,0.7c0.3,0.2,0.5,0.4,0.8,0.6c0.1,0.1,0.2,0.3,0.2,0.4c0,0.2-0.1,0.2-0.4,0.2c-0.2,0-0.4,0-0.6,0
					c-0.8-0.1-1.4-0.1-1.6-0.1c-0.5,0-0.9,0-1.2,0c-0.3,0-0.6,0.1-1,0.1c-0.3,0-0.4-0.1-0.4-0.2c0-0.1,0.1-0.3,0.2-0.4
					c0.2-0.2,0.4-0.4,0.5-0.4c0.4-0.3,0.6-0.6,0.6-0.9V462c0-0.9-0.2-1.7-0.7-2.3c-0.3-0.4-1-0.8-2.1-1.3c-0.1,0-0.1-0.1-0.1-0.1
					c0-0.1,0-0.1,0.1-0.2l0.9-0.9c0.2-0.2,0.3-0.3,0.5-0.5c0,0,0.1-0.2,0.3-0.3c0.1-0.1,0.2-0.1,0.3-0.1c0.1,0,0.1,0,0.2,0.1
					c0.7,0.5,1.3,1,1.7,1.3c0.8,0.8,1.3,1.6,1.4,2.5c0.5-1.1,1.2-2,2.2-2.8c1.1-0.9,2.4-1.3,3.8-1.3c1.2,0,2.1,0.3,2.8,0.9
					C95.4,457.4,95.8,458.1,95.8,458.9z"/>
				<path class="st3" d="M116,475.3c0.1,0.1,0.1,0.3,0.1,0.3c0,0.1-0.1,0.2-0.3,0.2c-0.1,0-0.3,0-0.7-0.1c-0.4,0-0.8-0.1-1.1-0.1
					c-0.2,0-0.5,0-0.8,0.1c-0.3,0-0.5,0.1-0.5,0.1c-0.3,0-0.5-0.1-0.5-0.2c0-0.1,0-0.1,0.1-0.2c0.1-0.2,0.2-0.4,0.3-0.6
					c0.1-0.2,0.1-0.4,0.1-0.7l-0.1-1.9c-0.5,1.1-1.4,2-2.6,2.9c-1.3,0.9-2.7,1.3-4.2,1.3c-2.1,0-3.8-0.6-5.2-1.8
					c-1.5-1.3-2.2-2.9-2.2-5c0-2.1,0.8-3.8,2.4-5.2c1.6-1.3,3.4-2,5.6-2c1.1,0,2.1,0.2,3,0.6c1,0.4,1.7,0.9,2.2,1.5
					c0-0.6-0.3-1.5-1-2.6c-0.8-1.4-1.7-2.5-2.8-3.4c-1.4-1.1-2.8-1.7-4.2-1.7c-0.9,0-1.7,0.2-2.3,0.6c-0.7,0.4-1.1,1-1.1,1.8
					c0,0.4,0.1,0.8,0.3,1.1s0.5,0.4,0.9,0.4c0.3,0,0.5-0.1,0.7-0.3c0.2-0.2,0.3-0.4,0.3-0.6c0-0.2,0-0.3-0.1-0.5
					c0-0.2-0.1-0.3-0.1-0.5c0-0.1,0-0.2,0-0.2c0,0,0.1,0,0.3,0c0.4,0,0.7,0.2,1,0.5c0.3,0.3,0.5,0.7,0.5,1c0,0.6-0.3,1.2-0.8,1.6
					c-0.5,0.4-1.1,0.6-1.7,0.6c-0.8,0-1.4-0.3-1.9-0.8c-0.5-0.5-0.8-1.2-0.8-2.1c0-1.1,0.6-2,1.8-2.7c1.1-0.6,2.4-0.8,3.9-0.8
					c1.5,0,2.9,0.5,4.4,1.4c1.4,0.9,2.6,2.2,3.5,3.8c0.6,1.1,1.1,2.5,1.5,4.2c0.2,1.1,0.5,2.5,0.7,4.4s0.4,3.1,0.5,3.8
					c0.1,0.3,0.2,0.7,0.4,1C115.8,475,115.9,475.2,116,475.3z M112.6,468.8c0-1.5-0.6-2.7-1.7-3.6c-1.1-0.9-2.6-1.4-4.4-1.4
					c-1.5,0-2.8,0.5-3.8,1.4c-1.1,1-1.6,2.1-1.6,3.6c0,1.5,0.6,2.8,1.7,3.8c1.1,1,2.4,1.6,4,1.6c1.8,0,3.2-0.5,4.3-1.5
					C112,471.7,112.6,470.4,112.6,468.8z"/>
				<path class="st3" d="M137.2,463.5c0,2-0.3,3.9-1,5.7c-0.7,1.8-1.7,3.5-3.1,5c0,0,0.1,0,0.2,0c0.1,0,0.2,0,0.4,0
					c0.4,0,0.8,0,1.2-0.1c0.4,0,0.7-0.2,1.1-0.4c0.3-0.3,0.6-0.5,0.7-0.5c0,0,0.1,0,0.1-0.1c0,0,0.1,0,0.1,0c0.1,0,0.2,0.1,0.1,0.4
					c0,0.2-0.1,0.4-0.1,0.7c0,0.3,0,0.5,0,0.6c0,0.2,0,0.4,0,0.6c0,0.2,0,0.4,0.1,0.7c0.1,0.3,0,0.4-0.2,0.4c-0.1,0-0.1,0-0.2-0.1
					c-0.4-0.2-0.7-0.4-0.8-0.4c-0.3-0.1-0.6-0.2-0.9-0.2c-0.3,0-0.7-0.1-1.3-0.1c-0.4,0-0.7,0-0.9,0c-0.2,0-0.5,0-0.9,0.1
					c-0.4,0.1-0.6-0.1-0.6-0.4c0-0.1,0-0.2,0.1-0.2c0.7-1.1,1.3-2,1.7-2.8c0.6-1.2,1.1-2.2,1.4-3.2c0.4-1.2,0.6-2.5,0.6-3.7
					c0-2.1-0.5-3.8-1.4-5.1c-1-1.4-2.3-2.1-4-2.1c-1.1,0-2.1,0.3-3,0.9c-0.8,0.6-1.5,1.3-2,2.3v12.3c0,0.2,0.1,0.5,0.4,0.7
					c0.3,0.2,0.5,0.4,0.8,0.6c0.1,0.1,0.2,0.3,0.2,0.4c0,0.1-0.1,0.2-0.3,0.2c-0.1,0-0.4,0-0.9-0.1c-0.5,0-1-0.1-1.5-0.1
					c-0.5,0-0.9,0-1.2,0c-0.3,0-0.6,0.1-1,0.1c-0.3,0-0.5-0.1-0.5-0.2c0-0.1,0.1-0.2,0.2-0.3c0.1-0.1,0.3-0.3,0.6-0.5
					c0.5-0.3,0.7-0.6,0.7-0.9v-11.8c0-1.1-0.3-2.1-1-2.8c-0.3-0.3-0.8-0.7-1.5-1c-0.1-0.1-0.2-0.1-0.2-0.2s0-0.2,0.1-0.3
					c0.2-0.2,0.3-0.3,0.4-0.4c0.1-0.1,0.3-0.2,0.5-0.4c0.2-0.2,0.3-0.3,0.4-0.5s0.2-0.2,0.3-0.4c0.1-0.1,0.1-0.1,0.2-0.1
					c0.1,0,0.1,0,0.2,0.1c0.5,0.4,1,0.9,1.5,1.6c0.7,0.9,1.2,1.8,1.3,2.5c0.6-1,1.3-1.8,2.1-2.5c1.3-1.1,2.5-1.6,3.8-1.6
					c2.4,0,4.3,0.9,5.5,2.7C136.7,460.1,137.2,461.7,137.2,463.5z"/>
				<path class="st3" d="M160.9,474.4c-0.1,0-0.2,0.1-0.3,0.2c-0.2,0.2-0.4,0.4-0.6,0.5c-0.2,0.1-0.3,0.3-0.5,0.5
					c-0.1,0.1-0.2,0.2-0.3,0.3c-0.1,0.1-0.2,0.2-0.3,0.2c-0.1,0-0.2,0-0.3-0.1c-0.3-0.2-0.7-0.7-1.1-1.4c-0.5-0.7-0.8-1.4-1-2
					c-0.6,1.2-1.5,2.1-2.5,2.8c-1,0.7-2.2,1.1-3.4,1.1c-2.5,0-4.5-0.9-6.1-2.8c-1.6-1.8-2.4-4.2-2.4-7c0-2.8,0.8-5.3,2.4-7.3
					c1.7-2.2,3.9-3.3,6.5-3.3c1.1,0,2.1,0.2,2.9,0.5c0.8,0.3,1.6,0.8,2.3,1.5v-5.7c0-0.4,0-0.7,0-0.9c0-0.2-0.2-0.3-0.5-0.3
					c-0.2,0-0.4,0.1-0.7,0.3c-0.4,0.3-0.6,0.4-0.7,0.4c-0.1,0-0.1,0.1-0.2,0.1c-0.2,0-0.3-0.1-0.3-0.2c0-0.1,0-0.2,0.1-0.3
					c0.1-0.1,0.4-0.4,0.8-0.8c0.8-0.8,1.3-1.3,1.6-1.5c0.5-0.5,0.9-1,1.5-1.6c0.4-0.4,0.6-0.7,0.7-0.8c0,0,0.1,0,0.1-0.1
					c0,0,0.1,0,0.1,0c0.1,0,0.2,0.1,0.2,0.3c-0.1,0.9-0.1,1.4-0.2,1.5c-0.1,0.7-0.1,1.4-0.1,2.1v20.1c0,0.8,0.1,1.4,0.4,2
					c0.3,0.5,0.8,0.9,1.4,1.3c0.1,0.1,0.2,0.2,0.2,0.3C161.1,474.3,161,474.3,160.9,474.4z M156.5,469v-6.8c0-1.6-0.6-2.9-1.7-3.8
					c-1-0.8-2.3-1.3-3.8-1.3c-1.8,0-3.3,0.8-4.6,2.5c-1.2,1.6-1.8,3.4-1.8,5.5c0,2.5,0.6,4.6,1.8,6.3c1.3,1.8,3,2.7,5.1,2.7
					c1.3,0,2.5-0.4,3.4-1.3C155.9,471.9,156.5,470.6,156.5,469z"/>
				<path class="st3" d="M182.3,470.9c0,0.2-0.1,0.4-0.2,0.7c-0.4,1.1-1.2,2.1-2.3,3c-1.5,1.2-3.3,1.8-5.2,1.8c-2.9,0-5.2-0.9-7-2.6
					c-1.8-1.8-2.6-4.3-2.6-7.4c0-2.8,1-5.2,3-7.2c2-2.1,4.4-3.1,7.2-3.1c1.6,0,3,0.4,4.2,1.3c1.3,0.9,2,2.1,2,3.6
					c0,1.2-0.4,2.2-1.2,3.1s-1.7,1.3-2.9,1.3c-1,0-1.8-0.3-2.5-0.8c-0.7-0.6-1.1-1.4-1.1-2.3c0-0.6,0.2-1.2,0.6-1.7
					c0.3-0.5,0.7-0.7,1.1-0.8c0.1-0.1,0.3,0,0.3,0c0.1,0.1,0.1,0.2,0.1,0.3c-0.1,0.2-0.1,0.3-0.1,0.5c-0.1,0.3-0.1,0.5-0.1,0.7
					c0,0.1,0,0.3,0,0.3c0.1,0.4,0.3,0.7,0.7,1c0.4,0.2,0.8,0.3,1.2,0.3c0.6,0,1.2-0.2,1.5-0.7c0.4-0.5,0.6-1,0.6-1.7
					c0-1-0.5-1.8-1.5-2.4c-0.9-0.5-1.9-0.8-3.1-0.8c-2.3,0-4.1,0.9-5.5,2.6c-1.4,1.7-2.1,3.9-2.1,6.4c0,2.2,0.7,4.2,2.1,5.7
					c1.5,1.6,3.3,2.5,5.5,2.5c1.4,0,2.5-0.2,3.4-0.6c0.9-0.4,1.9-1.2,2.8-2.3c0,0,0.1-0.1,0.2-0.3c0.1-0.1,0.2-0.2,0.3-0.3
					c0.1,0,0.2,0,0.3,0C182.3,470.7,182.3,470.8,182.3,470.9z"/>
				<path class="st3" d="M202.6,463.5c0,2-0.3,3.9-1,5.7c-0.7,1.8-1.7,3.5-3.1,5c0,0,0.1,0,0.2,0c0.1,0,0.2,0,0.4,0
					c0.4,0,0.8,0,1.2-0.1c0.4,0,0.7-0.2,1.1-0.4c0.3-0.3,0.6-0.5,0.7-0.5c0.1-0.1,0.2-0.1,0.2-0.1c0.1,0,0.2,0.1,0.2,0.3
					c0,0.3-0.1,0.5-0.1,0.8c0,0.3-0.1,0.5-0.1,0.6c0,0.3,0,0.5,0.1,0.9c0,0.3,0.1,0.5,0.1,0.6c0,0.2-0.1,0.3-0.2,0.3
					c-0.1,0-0.1,0-0.2-0.1c-0.3-0.2-0.6-0.4-0.9-0.5c-0.3-0.1-0.6-0.2-0.8-0.2c-0.3,0-0.7-0.1-1.3-0.1c-0.4,0-0.7,0-0.9,0
					c-0.2,0-0.5,0-0.9,0.1c-0.2,0-0.3,0-0.4,0c-0.1,0-0.2,0-0.3-0.1c-0.1-0.1-0.1-0.2,0-0.3c0-0.1,0.1-0.2,0.2-0.3
					c0.7-1.1,1.3-2,1.7-2.8c0.6-1.2,1.1-2.2,1.4-3.2c0.4-1.2,0.6-2.5,0.6-3.7c0-2.1-0.5-3.8-1.4-5.1c-1-1.4-2.3-2.1-4-2.1
					c-1.1,0-2.1,0.3-3,1c-0.8,0.6-1.4,1.3-2,2.3v12.3c0,0.2,0.1,0.4,0.4,0.7c0.2,0.2,0.5,0.4,0.7,0.6c0.2,0.2,0.2,0.3,0.2,0.4
					c0,0.2-0.1,0.2-0.4,0.2c-0.2,0-0.4,0-0.6,0c-0.8-0.1-1.4-0.1-1.6-0.1c-0.5,0-0.9,0-1.2,0c-0.3,0-0.6,0.1-1,0.1
					c-0.3,0-0.5-0.1-0.5-0.2c0-0.1,0.1-0.2,0.2-0.4c0.3-0.3,0.6-0.5,0.7-0.6c0.3-0.3,0.5-0.5,0.5-0.7v-21.4c0-0.4,0-0.7,0-0.9
					c0-0.2-0.2-0.3-0.5-0.3c-0.1,0-0.4,0.2-0.7,0.4c-0.3,0.2-0.6,0.4-0.7,0.4c-0.2,0.1-0.3,0-0.3-0.2c0-0.1,0-0.2,0.1-0.3
					c0.1-0.1,0.4-0.5,1.1-1.1c0.5-0.5,0.9-0.9,1.2-1.2c0.5-0.5,0.9-1,1.5-1.6c0.4-0.4,0.6-0.7,0.7-0.8c0,0,0.1,0,0.1-0.1
					c0,0,0.1,0,0.1,0c0.1,0,0.2,0.1,0.2,0.3c-0.1,0.4-0.1,1-0.2,1.6c0,0.6-0.1,1.3-0.1,2v9.2c0.6-1,1.2-1.7,2-2.4
					c1.1-1,2.4-1.4,3.7-1.4c2.4,0,4.3,0.9,5.5,2.7C202.1,460.1,202.6,461.7,202.6,463.5z"/>
				<path class="st3" d="M213.5,475.1c0.2,0.2,0.2,0.3,0.2,0.4c0,0.2-0.1,0.2-0.4,0.2c-0.2,0-0.4,0-0.6,0c-0.8-0.1-1.4-0.1-1.6-0.1
					c-0.5,0-0.9,0-1.2,0c-0.3,0-0.6,0.1-1,0.1c-0.3,0-0.5-0.1-0.5-0.2c0-0.1,0.1-0.2,0.2-0.4c0.3-0.3,0.6-0.5,0.7-0.6
					c0.3-0.3,0.5-0.5,0.5-0.7v-13.4c0-0.7-0.2-1.1-0.5-1.3c-0.4-0.1-0.7-0.2-0.9-0.3c-0.2-0.1-0.2-0.1-0.2-0.2
					c0-0.1,0.1-0.2,0.2-0.3s0.3-0.2,0.7-0.4c0.5-0.2,0.8-0.4,1.1-0.6c0.6-0.4,1.1-0.7,1.5-1c0.4-0.3,0.6-0.4,0.7-0.5
					c0.1-0.1,0.2-0.1,0.2-0.1c0.2,0,0.2,0.1,0.2,0.4c-0.1,0.3-0.1,0.8-0.2,1.5c-0.1,0.7-0.1,1.5-0.1,2.4v13.9c0,0.2,0.1,0.4,0.4,0.7
					C213,474.7,213.3,474.9,213.5,475.1z M213.1,450.9c0,0.5-0.2,0.9-0.5,1.2c-0.4,0.3-0.8,0.5-1.3,0.5c-0.5,0-0.9-0.2-1.2-0.5
					c-0.3-0.3-0.5-0.8-0.5-1.2s0.2-0.9,0.5-1.2c0.4-0.3,0.8-0.5,1.3-0.5c0.5,0,0.9,0.2,1.2,0.5C212.9,450,213.1,450.4,213.1,450.9z"
					/>
				<path class="st3" d="M224.7,475.1c0.2,0.2,0.2,0.3,0.2,0.4c0,0.2-0.1,0.2-0.4,0.2c-0.2,0-0.4,0-0.6,0c-0.8-0.1-1.4-0.1-1.6-0.1
					c-0.5,0-0.9,0-1.2,0c-0.3,0-0.6,0.1-1,0.1c-0.3,0-0.5-0.1-0.5-0.2c0-0.1,0.1-0.2,0.2-0.4c0.3-0.3,0.6-0.5,0.7-0.6
					c0.3-0.3,0.5-0.5,0.5-0.7v-21.4c0-0.4,0-0.7,0-0.9c0-0.2-0.2-0.3-0.5-0.3c-0.1,0-0.4,0.2-0.7,0.4c-0.3,0.2-0.6,0.4-0.7,0.4
					c-0.2,0.1-0.3,0-0.3-0.2c0-0.1,0-0.2,0.1-0.3c0.1-0.1,0.4-0.5,1.1-1.1c0.5-0.5,0.9-0.9,1.2-1.2c0.5-0.5,0.9-1,1.5-1.6
					c0.4-0.4,0.6-0.7,0.7-0.8c0,0,0.1,0,0.1-0.1c0,0,0.1,0,0.1,0c0.1,0,0.2,0.1,0.2,0.3c-0.1,0.4-0.1,1-0.2,1.6c0,0.6-0.1,1.3-0.1,2
					v23.3c0,0.2,0.1,0.4,0.4,0.7C224.2,474.7,224.5,474.9,224.7,475.1z"/>
				<path class="st3" d="M248.7,474.4c-0.1,0-0.2,0.1-0.3,0.2c-0.2,0.2-0.4,0.4-0.6,0.5c-0.2,0.1-0.3,0.3-0.5,0.5
					c-0.1,0.1-0.2,0.2-0.3,0.3c-0.1,0.1-0.2,0.2-0.3,0.2c-0.1,0-0.2,0-0.3-0.1c-0.3-0.2-0.7-0.7-1.1-1.4c-0.5-0.7-0.8-1.4-1-2
					c-0.6,1.2-1.5,2.1-2.5,2.8c-1,0.7-2.2,1.1-3.4,1.1c-2.5,0-4.5-0.9-6.1-2.8c-1.6-1.8-2.4-4.2-2.4-7c0-2.8,0.8-5.3,2.4-7.3
					c1.7-2.2,3.9-3.3,6.5-3.3c1.1,0,2.1,0.2,2.9,0.5c0.8,0.3,1.6,0.8,2.3,1.5v-5.7c0-0.4,0-0.7,0-0.9c0-0.2-0.2-0.3-0.5-0.3
					c-0.2,0-0.4,0.1-0.7,0.3c-0.4,0.3-0.6,0.4-0.7,0.4c-0.1,0-0.1,0.1-0.2,0.1c-0.2,0-0.3-0.1-0.3-0.2c0-0.1,0-0.2,0.1-0.3
					c0.1-0.1,0.4-0.4,0.8-0.8c0.8-0.8,1.3-1.3,1.6-1.5c0.5-0.5,0.9-1,1.5-1.6c0.4-0.4,0.6-0.7,0.7-0.8c0,0,0.1,0,0.1-0.1
					c0,0,0.1,0,0.1,0c0.1,0,0.2,0.1,0.2,0.3c-0.1,0.9-0.1,1.4-0.2,1.5c-0.1,0.7-0.1,1.4-0.1,2.1v20.1c0,0.8,0.1,1.4,0.4,2
					c0.3,0.5,0.8,0.9,1.4,1.3c0.1,0.1,0.2,0.2,0.2,0.3C248.9,474.3,248.8,474.3,248.7,474.4z M244.2,469v-6.8c0-1.6-0.6-2.9-1.7-3.8
					c-1-0.8-2.3-1.3-3.8-1.3c-1.8,0-3.3,0.8-4.6,2.5c-1.2,1.6-1.8,3.4-1.8,5.5c0,2.5,0.6,4.6,1.8,6.3c1.3,1.8,3,2.7,5.1,2.7
					c1.3,0,2.5-0.4,3.4-1.3C243.7,471.9,244.2,470.6,244.2,469z"/>
			</g>
		</g>
		<g>
			<g>
				<path class="st3" d="M317.2,554.3h-3.6l-9.7-12.2l-5.4,5.5v6.8h-2.9v-25.3h2.9v15.1l14.5-15.1h3.7l-10.8,11L317.2,554.3z"/>
				<path class="st3" d="M340.2,529.1h2.8v25.3h-2.3l-16.3-20.7v20.7h-2.8v-25.3h2.7l15.9,20.3V529.1z"/>
				<path class="st3" d="M368.4,531.7H353v8.6h13.8v2.6H353v8.8h15.6v2.6h-18.4v-25.3h18.3V531.7z"/>
				<path class="st3" d="M389.6,529h2.3l6.9,21.1l7.2-21h3l-9,25.5h-2.4l-6.9-20.5l-7,20.5h-2.4l-9-25.5h3.1l7.2,21L389.6,529z"/>
			</g>
		</g>
		<g>
			<path class="st3" d="M528.6,550.1c-0.3,1.1-1.2,2.2-2.5,3.2c-1.5,1.2-3.2,1.7-5.1,1.7c-1.2,0-2.2-0.1-3.1-0.4c-1-0.3-2-0.8-3-1.5
				c-0.4,0.5-0.7,1-1,1.5c-0.4,0.7-0.6,1.2-0.6,1.5c0,0.4,0.1,0.6,0.3,0.8c0.1,0.1,0.4,0.1,0.7,0.1c0.1,0,0.2,0,0.3,0
				c0.1,0,0.2-0.1,0.2-0.1c0.1,0,0.1,0,0.1,0c0.1,0.1,0.1,0.2,0.1,0.3c-0.1,0.3-0.2,0.6-0.5,0.9c-0.3,0.3-0.7,0.5-1.1,0.5
				c-0.5,0-0.8-0.2-1.1-0.5c-0.3-0.3-0.4-0.8-0.4-1.3c0-0.4,0.1-0.9,0.4-1.6c0.1-0.2,0.7-1.1,1.7-2.8c-1-1-1.7-2.1-2.3-3.3
				c-0.6-1.3-0.9-2.7-0.9-4.3c0-2.8,0.9-5.2,2.7-7.3c1.8-2,4.1-3.1,6.8-3.1c1.1,0,2.2,0.3,3.3,0.8c0.6,0.3,1.3,0.6,1.9,0.9
				c0.1,0.1,0.3,0.1,0.5,0.1c0.2,0,0.5,0,0.7,0l0.6,0c0.1,0,0.2,0.1,0.2,0.2c0,0.1,0,0.2-0.1,0.2c-0.2,0.1-0.4,0.3-0.7,0.5
				c-0.3,0.3-0.6,0.6-0.9,0.9c-1.3,1.4-2.8,3.3-4.5,5.7c-1.7,2.3-3.3,4.7-4.8,7c0.8,0.6,1.6,1,2.4,1.3c1,0.4,2,0.5,3,0.5
				c1.4,0,2.6-0.3,3.6-0.8c0.7-0.4,1.4-1.1,2.3-2.1c0.1-0.1,0.2-0.3,0.3-0.4c0.1-0.1,0.2-0.2,0.4-0.2c0.2,0,0.3,0.2,0.3,0.4
				C528.7,549.8,528.6,549.9,528.6,550.1z M523.1,538.3c0-0.8-0.4-1.4-1.3-1.8c-0.7-0.4-1.6-0.6-2.6-0.6c-1.9,0-3.5,0.8-4.7,2.4
				c-1.1,1.5-1.7,3.3-1.7,5.4c0,1.2,0.3,2.5,0.9,3.7c0.5,1.1,1.1,1.9,1.9,2.7c0.9-1.3,1.6-2.4,2.1-3.1c0.8-1.2,1.5-2.2,2.1-3
				c0.7-1,1.5-2.1,2.2-3.1C522.7,539.7,523.1,538.9,523.1,538.3z"/>
			<path class="st3" d="M556.5,542c0,1.8-0.4,3.6-1.3,5.6c-0.8,1.9-2,3.6-3.4,5.2c0,0,0.1,0,0.2,0c0.1,0,0.2,0,0.4,0
				c0.4,0,0.8,0,1.2-0.1c0.4,0,0.7-0.2,1.1-0.5c0.2-0.2,0.4-0.4,0.7-0.5c0.1-0.1,0.2-0.1,0.2,0c0.1,0.1,0.1,0.1,0.1,0.3
				c0,0.3-0.1,0.5-0.1,0.8c0,0.3,0,0.5,0,0.6c0,0.3,0,0.5,0,0.7s0.1,0.4,0.1,0.7c0,0.2,0,0.3-0.1,0.3c-0.1,0-0.2,0-0.3-0.1
				c-0.3-0.2-0.5-0.3-0.8-0.4c-0.3-0.1-0.6-0.2-0.9-0.2c-0.3,0-0.7-0.1-1.3-0.1c-0.4,0-0.7,0-0.9,0c-0.2,0-0.5,0-0.9,0.1
				c-0.1,0-0.1,0-0.1,0c-0.1,0-0.1,0-0.1,0c-0.3,0-0.4-0.1-0.4-0.3c0-0.1,0-0.2,0.1-0.4c0.7-1,1.2-2,1.7-2.9
				c0.7-1.2,1.2-2.4,1.5-3.4c0.4-1.3,0.6-2.4,0.6-3.5c0-2.2-0.3-3.9-0.9-5.1c-0.7-1.4-1.9-2.1-3.5-2.1c-0.7,0-1.3,0.1-1.9,0.4
				c-0.6,0.3-1.1,0.7-1.6,1.2c0.2,0.7,0.4,1.4,0.5,2.4c0.1,0.9,0.2,1.9,0.2,3c0,1.3-0.3,2.8-0.9,4.6c-0.5,1.4-1.1,2.7-1.8,4
				c-0.6,1.1-1,1.7-1.2,2c0,0.1-0.1,0.1-0.3,0.1c-0.2,0-0.3,0-0.4-0.1c0-0.1,0-0.1,0-0.2c0.1-0.2,0.1-0.3,0.1-0.3
				c1.2-2.4,1.8-5.7,1.8-9.7c0-1.9-0.4-3.6-1.1-5c-0.8-1.5-1.9-2.2-3.2-2.2c-0.9,0-1.7,0.4-2.5,1.1c-0.7,0.6-1.1,1.3-1.4,2.2v12.3
				c0,0.2,0.2,0.5,0.5,0.7c0.2,0.2,0.5,0.4,0.7,0.6c0.2,0.2,0.2,0.3,0.2,0.4c0,0.2-0.1,0.2-0.4,0.2c-0.1,0-0.5,0-1.2-0.1
				c-0.6,0-1-0.1-1.1-0.1c-0.5,0-0.9,0-1.2,0c-0.3,0-0.6,0.1-1,0.1c-0.3,0-0.5-0.1-0.5-0.2c0-0.1,0.1-0.2,0.2-0.4
				c0.3-0.3,0.6-0.5,0.7-0.6c0.3-0.3,0.4-0.5,0.4-0.7v-11.8c0-1.1-0.4-2.1-1.1-2.8c-0.3-0.3-0.8-0.6-1.5-1c-0.1-0.1-0.2-0.1-0.2-0.2
				c0-0.1,0-0.1,0.1-0.2c0.2-0.2,0.5-0.4,0.9-0.8c0.2-0.2,0.4-0.4,0.5-0.5c0.1-0.1,0.2-0.2,0.3-0.3c0.1-0.1,0.2-0.2,0.2-0.2
				c0.1,0,0.1,0,0.2,0.1c0.5,0.4,1,1,1.5,1.7c0.7,0.9,1.1,1.7,1.2,2.4c0.5-1,1-1.8,1.6-2.4c1.1-1.1,2.3-1.7,3.7-1.7
				c1.1,0,2.2,0.3,3.1,1c0.6,0.4,1.2,1.1,1.8,1.9c0.5-0.8,1.1-1.4,1.8-1.9c0.9-0.6,1.8-0.9,2.8-0.9c2.3,0,4,0.9,5.1,2.7
				C556.1,538.5,556.5,540.1,556.5,542z"/>
			<path class="st3" d="M580.6,542.6c0,3.5-1,6.5-2.9,8.9c-1.9,2.3-4.1,3.5-6.7,3.5c-0.9,0-1.8-0.2-2.5-0.5
				c-0.6-0.3-1.3-0.8-2.1-1.5v4.3c0,0.7,0.1,1.4,0.4,1.8c0.1,0.2,0.4,0.5,0.8,0.8c0.1,0.1,0.2,0.2,0.2,0.3c0,0.1-0.1,0.2-0.3,0.3
				c-0.2,0.1-0.4,0.2-0.7,0.3c-0.4,0.2-0.9,0.5-1.4,0.8c-0.4,0.2-0.7,0.5-1.1,0.7c-0.3,0.3-0.7,0.5-1,0.8c-0.1,0.1-0.2,0.1-0.3,0.1
				c-0.1,0-0.2-0.1-0.2-0.4c0.3-0.7,0.5-1.4,0.7-2.1c0.2-0.7,0.3-1.4,0.3-2.2v-17.9c0-1.1-0.4-2.1-1.1-2.8c-0.3-0.3-0.8-0.7-1.5-1
				c-0.1,0-0.1-0.1-0.1-0.2c0,0,0-0.1,0-0.1c0-0.1,0.1-0.1,0.1-0.1c0.1-0.1,0.2-0.2,0.3-0.3c0.2-0.2,0.4-0.3,0.5-0.5
				c0.2-0.2,0.4-0.4,0.5-0.5s0.2-0.2,0.3-0.4c0-0.1,0.1-0.1,0.2-0.1c0.1,0,0.1,0,0.2,0.1c0.5,0.4,1.1,0.9,1.6,1.6
				c0.8,1,1.2,1.9,1.4,2.8c0.5-1,1.2-1.9,2.1-2.7c1.3-1.1,2.8-1.7,4.5-1.7c1.7,0,3.1,0.5,4.4,1.5c1.1,0.8,1.9,1.9,2.5,3.3
				C580.4,540.5,580.6,541.6,580.6,542.6z M578,544.1c0-1.9-0.5-3.6-1.6-5.1c-1.1-1.5-2.5-2.3-4.2-2.3c-1.4,0-2.6,0.4-3.6,1.3
				c-0.9,0.7-1.6,1.7-2.1,2.9v11.7l0.8-0.8c0.2-0.2,0.4-0.4,0.6-0.6c0.1-0.2,0.3-0.4,0.5-0.7c0.1-0.1,0.1-0.1,0.2-0.1
				c0.2,0,0.2,0.1,0.2,0.3c0,0,0,0.2-0.1,0.4c0,0.2-0.1,0.4-0.1,0.6c0,0.3,0.1,0.6,0.2,0.9c0.2,0.3,0.5,0.6,1,0.9
				c0.5,0.2,1,0.4,1.6,0.4c2,0,3.7-0.9,4.9-2.7C577.3,549.3,578,547,578,544.1z"/>
			<path class="st3" d="M592.3,536.2c0,0.2-0.1,0.3-0.3,0.3c-0.1,0-0.4,0-1,0c-0.6,0-1.1,0-1.7,0v13.3c0,0.9,0.3,1.8,0.8,2.4
				c0.1,0.2,0.5,0.5,1.2,1.1c0.1,0.1,0.2,0.2,0.2,0.3c0,0.1-0.1,0.1-0.2,0.2c-0.1,0.1-0.2,0.1-0.4,0.2c-0.2,0.1-0.3,0.2-0.4,0.3
				c-0.4,0.3-0.6,0.6-0.7,0.7c-0.1,0.1-0.2,0.2-0.3,0.2c-0.1,0-0.2,0-0.3-0.1c-0.6-0.3-1.1-0.9-1.5-1.6c-0.6-1.1-0.9-2.4-0.9-3.9
				v-13.1c-0.4,0-0.8,0-1.2,0c-0.4,0-0.8,0-1.2,0.1c-0.2,0-0.3-0.1-0.3-0.3v-0.6c0-0.2,0.1-0.3,0.4-0.3c0.1,0,0.4,0,0.9,0
				c0.5,0,1,0,1.4,0v-1.5c0-0.8-0.2-1.2-0.5-1.3c-0.2,0-0.4,0-0.5-0.1c-0.2,0-0.3-0.1-0.3-0.3c0-0.1,0-0.2,0.1-0.2
				c0.3-0.3,0.6-0.5,0.9-0.8c0.3-0.3,0.6-0.6,1-1c0.4-0.4,0.8-0.8,1-1.1c0.2-0.3,0.5-0.6,0.7-0.9c0-0.1,0.1-0.1,0.2-0.1
				c0.1,0,0.2,0.1,0.2,0.3c0,0.3-0.1,0.7-0.1,1c-0.1,0.8-0.1,1.7-0.1,2.6v3.3c0.4,0,0.9,0,1.3,0c0.4,0,0.9,0,1.3-0.1
				c0.2,0,0.3,0.1,0.3,0.3V536.2z"/>
			<path class="st3" d="M614.1,535.8c-0.3,0.3-0.6,0.5-0.7,0.6c-0.3,0.3-0.5,0.5-0.5,0.8v16.1c0,3-0.8,5.4-2.5,7.2
				c-1.6,1.8-3.5,2.7-5.9,2.7c-1.1,0-1.9-0.1-2.5-0.4c-0.8-0.3-1.2-0.9-1.2-1.7c0-0.6,0.3-1,0.9-1.4c0.6-0.4,1.2-0.5,1.6-0.5
				c0.2,0,0.3,0.1,0.3,0.2c0,0.1,0,0.1-0.1,0.2s-0.1,0.2-0.2,0.3c-0.1,0.2-0.1,0.3-0.1,0.5c0,0.1,0,0.2,0.1,0.3
				c0.1,0.4,0.3,0.6,0.7,0.9c0.3,0.2,0.7,0.3,1.2,0.3c1.6,0,2.9-0.7,3.9-2.2c0.9-1.3,1.3-3,1.3-5.1V551c-0.4,0.9-1.1,1.8-2,2.5
				c-1.2,0.9-2.4,1.4-3.7,1.4c-2.4,0-4.3-0.8-5.6-2.4c-1.1-1.4-1.7-3.2-1.7-5.3c0-1.2,0.2-2.4,0.5-3.5c0.3-0.9,0.6-1.8,1.1-2.8
				c0-0.1,0.5-0.9,1.4-2.4c0.1-0.1,0-0.3-0.3-0.5c-0.2-0.1-0.5-0.3-0.9-0.4c-0.2-0.1-0.5-0.2-0.7-0.4c-0.1,0-0.2-0.1-0.2-0.2
				c0-0.1,0.1-0.2,0.4-0.2c0.2-0.1,0.5-0.1,0.7-0.2c0.4-0.1,0.9-0.2,1.4-0.4c0.5-0.2,0.9-0.4,1.4-0.6c0.4-0.2,0.8-0.4,1.2-0.7
				c0.1,0,0.2-0.1,0.2-0.1c0.2,0,0.2,0.1,0.2,0.2c0,0,0,0.1-0.1,0.2c-0.1,0.1-0.2,0.3-0.3,0.5c-0.1,0.1-0.2,0.3-0.4,0.5
				c-1,1.4-1.8,2.8-2.3,4.2c-0.6,1.6-0.9,3.3-0.9,5c0,2.1,0.5,3.9,1.5,5.3c1,1.4,2.3,2.1,3.9,2.1c1.1,0,2.2-0.3,3.2-1
				c1-0.7,1.7-1.5,2.2-2.5v-12.3c0-0.3-0.1-0.5-0.4-0.8c-0.3-0.2-0.5-0.4-0.8-0.7c-0.1-0.1-0.1-0.2-0.1-0.3c0-0.1,0.1-0.2,0.3-0.2
				c0.1,0,0.4,0,0.9,0.1c0.5,0,1,0.1,1.4,0.1c0.5,0,0.9,0,1.2,0c0.3,0,0.7-0.1,1.1-0.1c0.3,0,0.4,0.1,0.4,0.2
				C614.2,535.5,614.2,535.7,614.1,535.8z"/>
		</g>
	</g>
	<g id="fill2">
		<g>
			<g>
				<path class="st4" d="M130.1,502c5.6,1.2,8.2,3.3,8.2,7.2c0,4.4-3.6,7.2-8.6,7.2c-4,0-7.3-1.3-10.3-4l1.8-2.1
					c2.6,2.4,5.2,3.6,8.7,3.6c3.4,0,5.6-1.8,5.6-4.3c0-2.4-1.3-3.7-6.6-4.8c-5.8-1.3-8.5-3.1-8.5-7.3c0-4,3.5-6.9,8.3-6.9
					c3.7,0,6.3,1,8.9,3.1l-1.7,2.2c-2.3-1.9-4.7-2.7-7.3-2.7c-3.3,0-5.4,1.8-5.4,4.1C123.3,499.5,124.6,500.9,130.1,502z"/>
				<path class="st4" d="M153.2,507.1H147v8.9h-2.9v-25.3h9.5c5.7,0,9.5,3,9.5,8.1C163.1,504.3,158.5,507.1,153.2,507.1z
					 M153.4,493.4H147v11.1h6.2c4.2,0,6.9-2.2,6.9-5.6C160.2,495.3,157.5,493.4,153.4,493.4z"/>
				<path class="st4" d="M189.3,516.1h-3.1l-3-6.7h-13.8l-3,6.7h-2.9l11.5-25.5h2.7L189.3,516.1z M176.4,493.9l-5.8,12.9h11.5
					L176.4,493.9z"/>
				<path class="st4" d="M204.4,516.5c-7.3,0-12.7-5.7-12.7-13c0-7.2,5.3-13.1,12.8-13.1c4.6,0,7.3,1.6,9.9,4l-1.9,2.1
					c-2.1-2-4.5-3.5-7.9-3.5c-5.6,0-9.8,4.5-9.8,10.4c0,5.9,4.2,10.5,9.8,10.5c3.5,0,5.7-1.3,8.2-3.6l1.9,1.8
					C211.8,514.7,208.9,516.5,204.4,516.5z"/>
				<path class="st4" d="M237.7,493.4h-15.4v8.6h13.8v2.6h-13.8v8.8h15.6v2.6h-18.4v-25.3h18.3V493.4z"/>
			</g>
		</g>
		<g>
			<path class="st4" d="M197.1,542.1c0,2-0.3,3.9-1,5.7c-0.7,1.8-1.7,3.5-3.1,5c0,0,0.1,0,0.2,0c0.1,0,0.2,0,0.4,0
				c0.4,0,0.8,0,1.2-0.1c0.4,0,0.7-0.2,1.1-0.4c0.3-0.3,0.6-0.5,0.7-0.5c0,0,0.1,0,0.1-0.1c0,0,0.1,0,0.1,0c0.1,0,0.2,0.1,0.1,0.4
				c0,0.2-0.1,0.4-0.1,0.7c0,0.3,0,0.5,0,0.6c0,0.2,0,0.4,0,0.6c0,0.2,0,0.4,0.1,0.7c0.1,0.3,0,0.4-0.2,0.4c-0.1,0-0.1,0-0.2-0.1
				c-0.4-0.2-0.7-0.4-0.8-0.4c-0.3-0.1-0.6-0.2-0.9-0.2c-0.3,0-0.7-0.1-1.3-0.1c-0.4,0-0.7,0-0.9,0c-0.2,0-0.5,0-0.9,0.1
				c-0.4,0.1-0.6-0.1-0.6-0.4c0-0.1,0-0.2,0.1-0.2c0.7-1.1,1.3-2,1.7-2.8c0.6-1.2,1.1-2.2,1.4-3.2c0.4-1.2,0.6-2.5,0.6-3.7
				c0-2.1-0.5-3.8-1.4-5.1c-1-1.4-2.3-2.1-4-2.1c-1.1,0-2.1,0.3-3,0.9c-0.8,0.6-1.5,1.3-2,2.3v12.3c0,0.2,0.1,0.5,0.4,0.7
				c0.3,0.2,0.5,0.4,0.8,0.6c0.1,0.1,0.2,0.3,0.2,0.4c0,0.1-0.1,0.2-0.3,0.2c-0.1,0-0.4,0-0.9-0.1c-0.5,0-1-0.1-1.5-0.1
				c-0.5,0-0.9,0-1.2,0c-0.3,0-0.6,0.1-1,0.1c-0.3,0-0.5-0.1-0.5-0.2c0-0.1,0.1-0.2,0.2-0.3c0.1-0.1,0.3-0.3,0.6-0.5
				c0.5-0.3,0.7-0.6,0.7-0.9v-11.8c0-1.1-0.3-2.1-1-2.8c-0.3-0.3-0.8-0.7-1.5-1c-0.1-0.1-0.2-0.1-0.2-0.2c0-0.1,0-0.2,0.1-0.3
				c0.2-0.2,0.3-0.3,0.4-0.4c0.1-0.1,0.3-0.2,0.5-0.4c0.2-0.2,0.3-0.3,0.4-0.5c0.1-0.1,0.2-0.2,0.3-0.4c0.1-0.1,0.1-0.1,0.2-0.1
				c0.1,0,0.1,0,0.2,0.1c0.5,0.4,1,0.9,1.5,1.6c0.7,0.9,1.2,1.8,1.3,2.5c0.6-1,1.3-1.8,2.1-2.5c1.3-1.1,2.5-1.6,3.8-1.6
				c2.4,0,4.3,0.9,5.5,2.7C196.5,538.7,197.1,540.3,197.1,542.1z"/>
			<path class="st4" d="M219.9,550.1c-0.3,1.1-1.2,2.2-2.5,3.2c-1.5,1.2-3.2,1.7-5.1,1.7c-1.2,0-2.2-0.1-3.1-0.4c-1-0.3-2-0.8-3-1.5
				c-0.4,0.5-0.7,1-1,1.5c-0.4,0.7-0.6,1.2-0.6,1.5c0,0.4,0.1,0.6,0.3,0.8c0.1,0.1,0.4,0.1,0.7,0.1c0.1,0,0.2,0,0.3,0
				c0.1,0,0.2-0.1,0.2-0.1c0.1,0,0.1,0,0.1,0c0.1,0.1,0.1,0.2,0.1,0.3c-0.1,0.3-0.2,0.6-0.5,0.9c-0.3,0.3-0.7,0.5-1.1,0.5
				c-0.5,0-0.8-0.2-1.1-0.5c-0.3-0.3-0.4-0.8-0.4-1.3c0-0.4,0.1-0.9,0.4-1.6c0.1-0.2,0.7-1.1,1.7-2.8c-1-1-1.7-2.1-2.3-3.3
				c-0.6-1.3-0.9-2.7-0.9-4.3c0-2.8,0.9-5.2,2.7-7.3c1.8-2,4.1-3.1,6.8-3.1c1.1,0,2.2,0.3,3.3,0.8c0.6,0.3,1.3,0.6,1.9,0.9
				c0.1,0.1,0.3,0.1,0.5,0.1c0.2,0,0.5,0,0.7,0l0.6,0c0.1,0,0.2,0.1,0.2,0.2c0,0.1,0,0.2-0.1,0.2c-0.2,0.1-0.4,0.3-0.7,0.5
				c-0.3,0.3-0.6,0.6-0.9,0.9c-1.3,1.4-2.8,3.3-4.5,5.7c-1.7,2.3-3.3,4.7-4.8,7c0.8,0.6,1.6,1,2.4,1.3c1,0.4,2,0.5,3,0.5
				c1.4,0,2.6-0.3,3.6-0.8c0.7-0.4,1.4-1.1,2.3-2.1c0.1-0.1,0.2-0.3,0.3-0.4c0.1-0.1,0.2-0.2,0.4-0.2c0.2,0,0.3,0.2,0.3,0.4
				C220,549.8,220,549.9,219.9,550.1z M214.4,538.3c0-0.8-0.4-1.4-1.3-1.8c-0.7-0.4-1.6-0.6-2.6-0.6c-1.9,0-3.5,0.8-4.7,2.4
				c-1.1,1.5-1.7,3.3-1.7,5.4c0,1.2,0.3,2.5,0.9,3.7c0.5,1.1,1.1,1.9,1.9,2.7c0.9-1.3,1.6-2.4,2.1-3.1c0.8-1.2,1.5-2.2,2.1-3
				c0.7-1,1.5-2.1,2.2-3.1C214,539.7,214.4,538.9,214.4,538.3z"/>
			<path class="st4" d="M238,536.8c0,0.9-0.1,1.8-0.4,2.8c-0.2,0.8-0.5,1.7-1,2.8c-0.3,0.8-0.7,1.6-1.2,2.6c-0.5,1-1,2-1.6,3.1
				c-0.2,0.5-0.8,1.5-1.6,3c-0.5,1-1.1,1.9-1.6,2.9c-0.1,0.3-0.3,0.6-0.4,0.9c-0.1,0.1-0.2,0.2-0.3,0.2c-0.1,0-0.2-0.1-0.3-0.2
				c-0.2-0.2-0.3-0.5-0.5-0.8c-0.4-0.7-0.8-1.5-1.2-2.2c-0.5-0.9-0.9-1.5-1-1.9c-0.4-0.7-0.9-1.8-1.4-3.1c-0.5-1.2-1-2.5-1.4-3.9
				c-0.3-1-0.6-2.1-0.8-3.4c-0.2-0.9-0.3-1.7-0.4-2.3c0-0.3-0.2-0.5-0.6-0.8c-0.3-0.2-0.6-0.4-0.8-0.7c-0.1-0.1-0.1-0.2-0.1-0.3
				c0-0.1,0.1-0.2,0.3-0.2c0.1,0,0.5,0,1.1,0c0.6,0,1,0.1,1.4,0.1c0.4,0,0.9,0,1.4-0.1c0.6,0,0.9-0.1,1,0c0.2,0,0.3,0.1,0.3,0.2
				c0,0.1,0,0.2-0.1,0.3c-0.3,0.3-0.6,0.5-0.8,0.6c-0.3,0.3-0.5,0.6-0.4,0.9c0.1,1.3,0.3,2.6,0.5,3.7c0.3,1.4,0.7,2.8,1.3,4.2
				c0.6,1.6,1.1,2.8,1.6,3.7c0.4,0.7,0.9,1.6,1.7,2.8c0.5-1.1,1.1-2.3,1.7-3.5c0.7-1.5,1.3-2.8,1.8-3.9c0.6-1.4,1.1-2.6,1.4-3.7
				c0.4-1.4,0.7-2.6,0.7-3.6c0-0.5-0.1-1-0.4-1.4c-0.3-0.5-0.7-0.8-1.2-0.8c-0.1,0-0.2,0-0.2,0c-0.4,0-0.8,0.3-1,0.7
				c0,0.1-0.1,0.2-0.1,0.3c0,0.1,0,0.2,0,0.2c0,0.1,0,0.2,0,0.3c0,0.2,0,0.3-0.1,0.3c-0.1,0-0.1,0-0.2-0.1c-0.2-0.1-0.4-0.3-0.6-0.6
				c-0.2-0.3-0.3-0.7-0.3-1.1c0-0.6,0.2-1.1,0.7-1.6c0.5-0.4,1-0.6,1.6-0.6c1.2,0,2.1,0.4,2.7,1.3C237.7,534.7,238,535.7,238,536.8z
				"/>
			<path class="st4" d="M259.9,550.1c-0.3,1.1-1.2,2.2-2.5,3.2c-1.5,1.2-3.2,1.7-5.1,1.7c-1.2,0-2.2-0.1-3.1-0.4c-1-0.3-2-0.8-3-1.5
				c-0.4,0.5-0.7,1-1,1.5c-0.4,0.7-0.6,1.2-0.6,1.5c0,0.4,0.1,0.6,0.3,0.8c0.1,0.1,0.4,0.1,0.7,0.1c0.1,0,0.2,0,0.3,0
				c0.1,0,0.2-0.1,0.2-0.1c0.1,0,0.1,0,0.1,0c0.1,0.1,0.1,0.2,0.1,0.3c-0.1,0.3-0.2,0.6-0.5,0.9c-0.3,0.3-0.7,0.5-1.1,0.5
				c-0.5,0-0.8-0.2-1.1-0.5c-0.3-0.3-0.4-0.8-0.4-1.3c0-0.4,0.1-0.9,0.4-1.6c0.1-0.2,0.7-1.1,1.7-2.8c-1-1-1.7-2.1-2.3-3.3
				c-0.6-1.3-0.9-2.7-0.9-4.3c0-2.8,0.9-5.2,2.7-7.3c1.8-2,4.1-3.1,6.8-3.1c1.1,0,2.2,0.3,3.3,0.8c0.6,0.3,1.3,0.6,1.9,0.9
				c0.1,0.1,0.3,0.1,0.5,0.1c0.2,0,0.5,0,0.7,0l0.6,0c0.1,0,0.2,0.1,0.2,0.2c0,0.1,0,0.2-0.1,0.2c-0.2,0.1-0.4,0.3-0.7,0.5
				c-0.3,0.3-0.6,0.6-0.9,0.9c-1.3,1.4-2.8,3.3-4.5,5.7c-1.7,2.3-3.3,4.7-4.8,7c0.8,0.6,1.6,1,2.4,1.3c1,0.4,2,0.5,3,0.5
				c1.4,0,2.6-0.3,3.6-0.8c0.7-0.4,1.4-1.1,2.3-2.1c0.1-0.1,0.2-0.3,0.3-0.4c0.1-0.1,0.2-0.2,0.4-0.2c0.2,0,0.3,0.2,0.3,0.4
				C260,549.8,260,549.9,259.9,550.1z M254.4,538.3c0-0.8-0.4-1.4-1.3-1.8c-0.7-0.4-1.6-0.6-2.6-0.6c-1.9,0-3.5,0.8-4.7,2.4
				c-1.1,1.5-1.7,3.3-1.7,5.4c0,1.2,0.3,2.5,0.9,3.7c0.5,1.1,1.1,1.9,1.9,2.7c0.9-1.3,1.6-2.4,2.1-3.1c0.8-1.2,1.5-2.2,2.1-3
				c0.7-1,1.5-2.1,2.2-3.1C254.1,539.7,254.4,538.9,254.4,538.3z"/>
			<path class="st4" d="M276.4,537.5c0,0.8-0.2,1.4-0.6,1.9c-0.4,0.5-1,0.7-1.7,0.7c-0.5,0-0.9-0.1-1.3-0.2s-0.6-0.3-0.7-0.6
				c0-0.1,0-0.1,0-0.2c0-0.1,0.1-0.1,0.2-0.1c0.2,0,0.5,0,0.7-0.1c0.2-0.1,0.4-0.2,0.6-0.4c0.2-0.3,0.3-0.6,0.3-0.9
				c0-0.4-0.2-0.8-0.5-1.1c-0.4-0.3-1-0.5-1.7-0.5c-0.9,0-1.9,0.4-2.8,1.3c-0.8,0.7-1.4,1.6-1.9,2.7v12.3c0,0.2,0.1,0.5,0.4,0.7
				c0.3,0.2,0.5,0.4,0.8,0.6c0.1,0.1,0.2,0.3,0.2,0.4c0,0.2-0.1,0.2-0.4,0.2c-0.2,0-0.4,0-0.6,0c-0.8-0.1-1.4-0.1-1.6-0.1
				c-0.5,0-0.9,0-1.2,0c-0.3,0-0.6,0.1-1,0.1c-0.3,0-0.4-0.1-0.4-0.2c0-0.1,0.1-0.3,0.2-0.4c0.2-0.2,0.4-0.4,0.5-0.4
				c0.4-0.3,0.6-0.6,0.6-0.9v-11.8c0-0.9-0.2-1.7-0.7-2.3c-0.3-0.4-1-0.8-2.1-1.3c-0.1,0-0.1-0.1-0.1-0.1c0-0.1,0-0.1,0.1-0.2
				l0.9-0.9c0.2-0.2,0.3-0.3,0.5-0.5c0,0,0.1-0.2,0.3-0.3c0.1-0.1,0.2-0.1,0.3-0.1c0.1,0,0.1,0,0.2,0.1c0.7,0.5,1.3,1,1.7,1.3
				c0.8,0.8,1.3,1.6,1.4,2.5c0.5-1.1,1.2-2,2.2-2.8c1.1-0.9,2.4-1.3,3.8-1.3c1.2,0,2.1,0.3,2.8,0.9
				C276.1,536,276.4,536.7,276.4,537.5z"/>
		</g>
		<g>
			<g>
				<path class="st4" d="M406.6,503.8c0,2-0.3,3.9-1,5.7c-0.7,1.8-1.7,3.5-3.1,5c0,0,0.1,0,0.2,0c0.1,0,0.2,0,0.4,0
					c0.4,0,0.8,0,1.2-0.1c0.4,0,0.7-0.2,1.1-0.4c0.3-0.3,0.6-0.5,0.7-0.5c0.1-0.1,0.2-0.1,0.2-0.1c0.1,0,0.2,0.1,0.2,0.3
					c0,0.3-0.1,0.5-0.1,0.8c0,0.3,0,0.5,0,0.6c0,0.3,0,0.5,0.1,0.9c0,0.3,0.1,0.5,0.1,0.6c0,0.2-0.1,0.3-0.2,0.3
					c-0.1,0-0.1,0-0.2-0.1c-0.3-0.2-0.6-0.4-0.9-0.5c-0.3-0.1-0.6-0.2-0.8-0.2c-0.3,0-0.7-0.1-1.3-0.1c-0.4,0-0.7,0-0.9,0
					c-0.2,0-0.5,0-0.9,0.1c-0.2,0-0.3,0-0.4,0c-0.1,0-0.2,0-0.3-0.1c-0.1-0.1-0.1-0.2,0-0.3c0-0.1,0.1-0.2,0.2-0.3
					c0.7-1.1,1.3-2,1.7-2.8c0.6-1.2,1.1-2.2,1.4-3.2c0.4-1.2,0.6-2.5,0.6-3.7c0-2.1-0.5-3.8-1.4-5.1c-1-1.4-2.3-2.1-4-2.1
					c-1.1,0-2.1,0.3-3,1c-0.8,0.6-1.4,1.3-2,2.3v12.3c0,0.2,0.1,0.4,0.4,0.7c0.2,0.2,0.5,0.4,0.7,0.6c0.2,0.2,0.2,0.3,0.2,0.4
					c0,0.2-0.1,0.2-0.4,0.2c-0.2,0-0.4,0-0.6,0c-0.8-0.1-1.4-0.1-1.6-0.1c-0.5,0-0.9,0-1.2,0c-0.3,0-0.6,0.1-1,0.1
					c-0.3,0-0.5-0.1-0.5-0.2c0-0.1,0.1-0.2,0.2-0.4c0.3-0.3,0.6-0.5,0.7-0.6c0.3-0.3,0.5-0.5,0.5-0.7v-21.4c0-0.4,0-0.7,0-0.9
					s-0.2-0.3-0.5-0.3c-0.1,0-0.4,0.2-0.7,0.4c-0.3,0.2-0.6,0.4-0.7,0.4c-0.2,0.1-0.3,0-0.3-0.2c0-0.1,0-0.2,0.1-0.3
					c0.1-0.1,0.4-0.5,1.1-1.1c0.5-0.5,0.9-0.9,1.2-1.2c0.5-0.5,0.9-1,1.5-1.6c0.4-0.4,0.6-0.7,0.7-0.8c0,0,0.1,0,0.1-0.1
					c0,0,0.1,0,0.1,0c0.1,0,0.2,0.1,0.2,0.3c-0.1,0.4-0.1,1-0.2,1.6c0,0.6-0.1,1.3-0.1,2v9.2c0.6-1,1.2-1.7,2-2.4
					c1.1-1,2.4-1.4,3.7-1.4c2.4,0,4.3,0.9,5.5,2.7C406,500.4,406.6,502,406.6,503.8z"/>
				<path class="st4" d="M429.3,511.8c-0.3,1.1-1.2,2.2-2.5,3.2c-1.5,1.2-3.2,1.7-5.1,1.7c-1.2,0-2.2-0.1-3.1-0.4
					c-1-0.3-2-0.8-3-1.5c-0.4,0.5-0.7,1-1,1.5c-0.4,0.7-0.6,1.2-0.6,1.5c0,0.4,0.1,0.6,0.3,0.8c0.1,0.1,0.4,0.1,0.7,0.1
					c0.1,0,0.2,0,0.3,0c0.1,0,0.2-0.1,0.2-0.1c0.1,0,0.1,0,0.1,0c0.1,0.1,0.1,0.2,0.1,0.3c-0.1,0.3-0.2,0.6-0.5,0.9
					c-0.3,0.3-0.7,0.5-1.1,0.5c-0.5,0-0.8-0.2-1.1-0.5c-0.3-0.3-0.4-0.8-0.4-1.3c0-0.4,0.1-0.9,0.4-1.6c0.1-0.2,0.7-1.1,1.7-2.8
					c-1-1-1.7-2.1-2.3-3.3c-0.6-1.3-0.9-2.7-0.9-4.3c0-2.8,0.9-5.2,2.7-7.3c1.8-2,4.1-3.1,6.8-3.1c1.1,0,2.2,0.3,3.3,0.8
					c0.6,0.3,1.3,0.6,1.9,0.9c0.1,0.1,0.3,0.1,0.5,0.1c0.2,0,0.5,0,0.7,0l0.6,0c0.1,0,0.2,0.1,0.2,0.2c0,0.1,0,0.2-0.1,0.2
					c-0.2,0.1-0.4,0.3-0.7,0.5c-0.3,0.3-0.6,0.6-0.9,0.9c-1.3,1.4-2.8,3.3-4.5,5.7c-1.7,2.3-3.3,4.7-4.8,7c0.8,0.6,1.6,1,2.4,1.3
					c1,0.4,2,0.5,3,0.5c1.4,0,2.6-0.3,3.6-0.8c0.7-0.4,1.4-1.1,2.3-2.1c0.1-0.1,0.2-0.3,0.3-0.4c0.1-0.1,0.2-0.2,0.4-0.2
					c0.2,0,0.3,0.2,0.3,0.4C429.4,511.5,429.4,511.6,429.3,511.8z M423.9,500c0-0.8-0.4-1.4-1.3-1.8c-0.7-0.4-1.6-0.6-2.6-0.6
					c-1.9,0-3.5,0.8-4.7,2.4c-1.1,1.5-1.7,3.3-1.7,5.4c0,1.2,0.3,2.5,0.9,3.7c0.5,1.1,1.1,1.9,1.9,2.7c0.9-1.3,1.6-2.4,2.1-3.1
					c0.8-1.2,1.5-2.2,2.1-3c0.7-1,1.5-2.1,2.2-3.1C423.5,501.4,423.9,500.6,423.9,500z"/>
				<path class="st4" d="M449.6,515.5c0.1,0.1,0.1,0.3,0.1,0.3c0,0.1-0.1,0.2-0.3,0.2c-0.1,0-0.3,0-0.7-0.1c-0.4,0-0.8-0.1-1.1-0.1
					c-0.2,0-0.5,0-0.8,0.1c-0.3,0-0.5,0.1-0.5,0.1c-0.3,0-0.5-0.1-0.5-0.2c0-0.1,0-0.1,0.1-0.2c0.1-0.2,0.2-0.4,0.3-0.6
					c0.1-0.2,0.1-0.4,0.1-0.7l-0.1-1.9c-0.5,1.1-1.4,2-2.6,2.9c-1.3,0.9-2.7,1.3-4.2,1.3c-2.1,0-3.8-0.6-5.2-1.8
					c-1.5-1.3-2.2-2.9-2.2-5c0-2.1,0.8-3.8,2.4-5.2c1.6-1.3,3.4-2,5.6-2c1.1,0,2.1,0.2,3,0.6c1,0.4,1.7,0.9,2.2,1.5
					c0-0.6-0.3-1.5-1-2.6c-0.8-1.4-1.7-2.5-2.8-3.4c-1.4-1.1-2.8-1.7-4.2-1.7c-0.9,0-1.7,0.2-2.3,0.6c-0.7,0.4-1.1,1-1.1,1.8
					c0,0.4,0.1,0.8,0.3,1.1c0.2,0.3,0.5,0.4,0.9,0.4c0.3,0,0.5-0.1,0.7-0.3c0.2-0.2,0.3-0.4,0.3-0.6c0-0.2,0-0.3-0.1-0.5
					c0-0.2-0.1-0.3-0.1-0.5c0-0.1,0-0.2,0-0.2c0,0,0.1,0,0.3,0c0.4,0,0.7,0.2,1,0.5c0.3,0.3,0.5,0.7,0.5,1c0,0.6-0.3,1.2-0.8,1.6
					c-0.5,0.4-1.1,0.6-1.7,0.6c-0.8,0-1.4-0.3-1.9-0.8c-0.5-0.5-0.8-1.2-0.8-2.1c0-1.1,0.6-2,1.8-2.7c1.1-0.6,2.4-0.8,3.9-0.8
					c1.5,0,2.9,0.5,4.4,1.4c1.4,0.9,2.6,2.2,3.5,3.8c0.6,1.1,1.1,2.5,1.5,4.2c0.2,1.1,0.5,2.5,0.7,4.4c0.2,1.9,0.4,3.1,0.5,3.8
					c0.1,0.3,0.2,0.7,0.4,1C449.4,515.3,449.6,515.5,449.6,515.5z M446.2,509.1c0-1.5-0.6-2.7-1.7-3.6c-1.1-0.9-2.6-1.4-4.4-1.4
					c-1.5,0-2.8,0.5-3.8,1.4c-1.1,1-1.6,2.2-1.6,3.6c0,1.5,0.6,2.8,1.7,3.8c1.1,1,2.4,1.6,4,1.6c1.8,0,3.2-0.5,4.3-1.5
					C445.7,512,446.2,510.7,446.2,509.1z"/>
				<path class="st4" d="M467.6,499.2c0,0.8-0.2,1.4-0.6,1.9c-0.4,0.5-1,0.7-1.7,0.7c-0.5,0-0.9-0.1-1.3-0.2
					c-0.4-0.1-0.6-0.3-0.7-0.6c0-0.1,0-0.1,0-0.2s0.1-0.1,0.2-0.1c0.2,0,0.5,0,0.7-0.1c0.2-0.1,0.4-0.2,0.6-0.4
					c0.2-0.3,0.3-0.6,0.3-0.9c0-0.4-0.2-0.8-0.5-1.1c-0.4-0.3-1-0.5-1.7-0.5c-0.9,0-1.9,0.4-2.8,1.3c-0.8,0.7-1.4,1.6-1.9,2.7v12.3
					c0,0.2,0.1,0.5,0.4,0.7c0.3,0.2,0.5,0.4,0.8,0.6c0.1,0.1,0.2,0.3,0.2,0.4c0,0.2-0.1,0.2-0.4,0.2c-0.2,0-0.4,0-0.6,0
					c-0.8-0.1-1.4-0.1-1.6-0.1c-0.5,0-0.9,0-1.2,0c-0.3,0-0.6,0.1-1,0.1c-0.3,0-0.4-0.1-0.4-0.2c0-0.1,0.1-0.3,0.2-0.4
					c0.2-0.2,0.4-0.4,0.5-0.4c0.4-0.3,0.6-0.6,0.6-0.9v-11.8c0-0.9-0.2-1.7-0.7-2.3c-0.3-0.4-1-0.8-2.1-1.3c-0.1,0-0.1-0.1-0.1-0.1
					c0-0.1,0-0.1,0.1-0.2l0.9-0.9c0.2-0.2,0.3-0.3,0.5-0.5c0,0,0.1-0.2,0.3-0.3c0.1-0.1,0.2-0.1,0.3-0.1c0.1,0,0.1,0,0.2,0.1
					c0.7,0.5,1.3,1,1.7,1.3c0.8,0.8,1.3,1.6,1.4,2.5c0.5-1.1,1.2-2,2.2-2.8c1.1-0.9,2.4-1.3,3.8-1.3c1.2,0,2.1,0.3,2.8,0.9
					C467.3,497.7,467.6,498.4,467.6,499.2z"/>
				<path class="st4" d="M477.7,497.9c0,0.2-0.1,0.3-0.3,0.3c-0.1,0-0.4,0-1,0c-0.6,0-1.1,0-1.7,0v13.3c0,0.9,0.3,1.8,0.8,2.4
					c0.1,0.2,0.5,0.5,1.2,1.1c0.1,0.1,0.2,0.2,0.2,0.3c0,0.1-0.1,0.1-0.2,0.2c-0.1,0.1-0.2,0.2-0.4,0.2c-0.2,0.1-0.3,0.2-0.4,0.3
					c-0.4,0.3-0.6,0.6-0.7,0.7c-0.1,0.1-0.2,0.2-0.3,0.2c-0.1,0-0.2,0-0.3-0.1c-0.6-0.3-1.1-0.9-1.5-1.6c-0.6-1.1-0.9-2.4-0.9-3.9
					v-13.1c-0.4,0-0.8,0-1.2,0c-0.4,0-0.8,0-1.2,0.1c-0.2,0-0.3-0.1-0.3-0.3v-0.6c0-0.2,0.1-0.3,0.4-0.3c0.1,0,0.4,0,0.9,0
					c0.5,0,1,0,1.4,0v-1.5c0-0.8-0.2-1.2-0.5-1.3c-0.2,0-0.4,0-0.5-0.1c-0.2,0-0.3-0.1-0.3-0.3c0-0.1,0-0.2,0.1-0.2
					c0.3-0.3,0.6-0.5,0.9-0.8c0.3-0.3,0.6-0.6,1-1c0.4-0.4,0.8-0.8,1-1.1c0.2-0.3,0.5-0.6,0.7-0.9c0-0.1,0.1-0.1,0.2-0.1
					c0.1,0,0.2,0.1,0.2,0.3c0,0.3-0.1,0.7-0.1,1c-0.1,0.8-0.1,1.7-0.1,2.6v3.3c0.4,0,0.9,0,1.3,0c0.4,0,0.9,0,1.3-0.1
					c0.2,0,0.3,0.1,0.3,0.3V497.9z"/>
			</g>
		</g>
	</g>
</g>
</svg>
