<?xml version="1.0" encoding="utf-8"?>
<!-- Generator: Adobe Illustrator 20.1.0, SVG Export Plug-In . SVG Version: 6.00 Build 0)  -->
<svg version="1.1" xmlns="http://www.w3.org/2000/svg" xmlns:xlink="http://www.w3.org/1999/xlink" x="0px" y="0px"
	 viewBox="0 0 1296 864" style="enable-background:new 0 0 1296 864;" xml:space="preserve">
<style type="text/css">
	.st0{fill:#D1D3D4;}
	.st1{opacity:0.6;fill:#FFFFFF;}
	.st2{fill:#6D6E71;}
	.st3{fill:#D5466F;}
	.st4{fill:#8B9C5A;}
</style>
<g id="Layer_1">
	<rect id="photo" class="st0" width="1296" height="864"/>
</g>
<g id="Layer_3">
	<path id="fill-clouds" class="st1" d="M1296,864h-53h-21h-22.3h-14h-30.4H0V638.9V532.2c6.1-2.2,12.7-3.5,19.6-3.5
		c16.5,0,31.3,7,41.7,18.2c6.5-16.8,22.8-28.7,41.9-28.7c24.9,0,45,20.1,45,45c0,5.7-1.1,11.2-3,16.2c1,0.3,2,0.6,2.9,1
		c4.1-4.3,9.9-7.1,16.4-7.1c9,0,16.8,5.3,20.4,13c7-5.6,15.9-9,25.6-9c22.6,0,41,18.4,41,41c0,2.9-0.3,5.8-0.9,8.5
		c0.3,0,0.6,0,0.9,0c5.3,0,10.3,0.9,15.1,2.5c0-0.8-0.1-1.6-0.1-2.5c0-25.7,20.8-46.5,46.5-46.5c15.7,0,29.5,7.8,37.9,19.6
		c9.7-6.7,21.4-10.6,34.1-10.6c14.7,0,28.2,5.3,38.6,14.1c5.2-23,25.7-40.2,50.3-40.2c20.2,0,37.7,11.6,46.2,28.5
		c8-4.4,17.1-6.9,26.9-6.9c30.2,0,54.8,24.2,55.5,54.2c5.1-5.1,12.2-8.2,20-8.2c15.7,0,28.5,12.8,28.5,28.5c0,2.5-0.3,5-1,7.3
		c1.6-0.1,3.3-0.2,5-0.2c27.2,0,50.2,17.8,58,42.4c5.7-2.3,11.9-3.5,18.5-3.5c13.6,0,25.9,5.4,35,14.1c0.2-31.6,25.9-57.1,57.5-57.1
		c28.3,0,51.9,20.5,56.6,47.5c5.4-2.9,11.5-4.5,18-4.5c12.3,0,23.2,5.8,30.3,14.7c7.7-6.1,17.5-9.7,28.1-9.7
		c14.2,0,26.8,6.5,35.2,16.7c1.9-20.3,19-36.2,39.8-36.2c16.7,0,31,10.2,37,24.8c6-14.5,20.3-24.8,37-24.8c22.1,0,40,17.9,40,40
		c0,4.2-0.6,8.2-1.8,12c7.5-5,16.6-8,26.3-8c21.1,0,38.9,13.7,45.1,32.7c7.1-7.2,16.9-11.7,27.9-11.7c18,0,33.2,12.3,37.7,28.9
		c1.9-0.2,3.9-0.3,5.8-0.3c3.1,0,6.1,0.3,9,0.8V864z"/>
</g>
<g id="Layer_2">
	<g id="fill3">
		<g>
			<path class="st2" d="M54.9,637.8H57l21.6,45.8h-2.4L70,670.3H41.9l-6.2,13.3h-2.3L54.9,637.8z M69,668.3l-13.1-27.9l-13.1,27.9
				H69z"/>
		</g>
		<g>
			<path class="st2" d="M38.9,725.2h-5v-1.9h5v-4.1c0-3.8,1-6.6,2.8-8.4c1.6-1.6,3.7-2.4,6.4-2.4c2,0,3.4,0.3,4.7,0.8v2
				c-1.5-0.6-3.1-0.8-4.7-0.8c-4.5,0-7.1,2.8-7.1,9v3.9h11.8v1.9H41v30.9h-2.1V725.2z"/>
			<path class="st2" d="M59,710.3h2.8v4H59V710.3z M59.3,723.3h2.1v32.8h-2.1V723.3z"/>
			<path class="st2" d="M74.3,708.7h2.1v47.4h-2.1V708.7z"/>
			<path class="st2" d="M89.3,708.7h2.1v47.4h-2.1V708.7z"/>
			<path class="st2" d="M100.9,751.9l1.2-1.6c3.6,2.9,8,4.5,12.2,4.5c5.3,0,9.4-2.8,9.4-6.8v-0.1c0-4.6-4.9-6-9.9-7.4
				c-6.1-1.8-11.4-3.4-11.4-8.9v-0.1c0-4.9,4.5-8.6,11.2-8.6c3.8,0,8.1,1.3,11.5,3.6l-1.2,1.8c-3.1-2.2-7-3.4-10.4-3.4
				c-5.4,0-9,2.8-9,6.4v0.1c0,4.1,4.6,5.6,9.9,7.1c6,1.6,11.4,3.5,11.4,9.2v0.1c0,5.4-5.1,9-11.6,9
				C109.5,756.7,104.4,754.9,100.9,751.9z"/>
			<path class="st2" d="M151.9,746.9v-0.1c0-6.8,6.2-10.5,14.5-10.5c4.5,0,8.5,0.8,11.7,1.8v-2.2c0-7.4-4.4-11-11.7-11
				c-4,0-7.4,1.1-10.7,2.7l-0.8-1.8c3.6-1.8,7.2-2.9,11.6-2.9c4.5,0,8,1.2,10.4,3.6c2.1,2.1,3.2,5.3,3.2,9.3v20.4h-2.1v-6.8
				c-1.7,3.6-6.2,7.6-13.8,7.6C158,756.9,151.9,753.5,151.9,746.9z M178.2,744v-4c-3.2-1-7-1.8-11.8-1.8c-7.2,0-12.2,3.1-12.2,8.4
				v0.1c0,5.4,4.9,8.2,10.3,8.2C172.4,754.9,178.2,749.9,178.2,744z"/>
		</g>
		<g>
			<path class="st2" d="M464.1,710.3h2.8v4h-2.8V710.3z M464.4,723.3h2.1v32.8h-2.1V723.3z"/>
			<path class="st2" d="M479,723.3h2.1v7.8c1.5-3.9,5.6-8.6,12.6-8.6c8.6,0,13.5,5.8,13.5,14.4v19.2h-2.1v-18.8
				c0-7.6-4.1-12.7-11.7-12.7c-6.9,0-12.3,5.7-12.3,13.1v18.5H479V723.3z"/>
			<path class="st2" d="M534.5,765.1l0.8-1.8c1.6,0.8,3.4,1.4,5.5,1.4c3.6,0,5.8-1.8,8.9-8.7L534,723.3h2.3l14.4,30.5l13.2-30.5h2.2
				l-14.8,33.6c-3.4,7.8-6.2,9.7-10.7,9.7C538.4,766.7,536.2,766,534.5,765.1z"/>
			<path class="st2" d="M570.6,739.8v-0.1c0-9.2,7-17.2,17-17.2c10,0,16.9,7.9,16.9,17v0.1c0,9.2-6.9,17.2-17,17.2
				C577.5,756.9,570.6,749,570.6,739.8z M602.3,739.8v-0.1c0-8.3-6.3-15.1-14.8-15.1c-8.6,0-14.6,6.9-14.6,15.1v0.1
				c0,8.3,6.2,15.1,14.8,15.1C596.3,754.9,602.3,748,602.3,739.8z"/>
			<path class="st2" d="M613.6,742.5v-19.2h2.1v18.8c0,7.6,4.1,12.7,11.7,12.7c6.9,0,12.3-5.7,12.3-13.1v-18.5h2.1v32.8h-2.1v-7.8
				c-1.5,3.9-5.6,8.6-12.6,8.6C618.5,756.9,613.6,751,613.6,742.5z"/>
			<path class="st2" d="M653.9,723.3h2.1v10c2-5.6,7-10.9,13.9-10.7v2.1c-0.1,0-0.3,0-0.3,0c-7.9,0-13.6,7.7-13.6,15.7v15.5h-2.1
				V723.3z"/>
		</g>
		<g>
			<path class="st2" d="M38.5,816.6v-22.5h-5v-1.9h5v-11h2.1v11h11.9v1.9H40.6v22.3c0,4.8,2.5,7.2,6.8,7.2c1.6,0,3.2-0.4,4.9-1.2v2
				c-1.6,0.8-3.3,1.1-5.1,1.1C42,825.6,38.5,822.6,38.5,816.6z"/>
			<path class="st2" d="M61.7,777.6h2.1v22.5c1.5-3.9,5.6-8.6,12.6-8.6c8.6,0,13.5,5.8,13.5,14.4V825h-2.1v-18.8
				c0-7.6-4.1-12.7-11.7-12.7c-6.9,0-12.3,5.7-12.3,13.1V825h-2.1V777.6z"/>
			<path class="st2" d="M98.7,815.8v-0.1c0-6.8,6.2-10.5,14.5-10.5c4.5,0,8.5,0.8,11.7,1.8v-2.2c0-7.4-4.4-11-11.7-11
				c-4,0-7.4,1.1-10.7,2.7l-0.8-1.8c3.6-1.8,7.2-2.9,11.6-2.9c4.5,0,8,1.2,10.4,3.6c2.1,2.1,3.2,5.3,3.2,9.3V825h-2.1v-6.8
				c-1.7,3.6-6.2,7.6-13.8,7.6C104.8,825.8,98.7,822.4,98.7,815.8z M124.9,812.9v-4c-3.2-1-7-1.8-11.8-1.8c-7.2,0-12.2,3.1-12.2,8.4
				v0.1c0,5.4,4.9,8.2,10.3,8.2C119.1,823.9,124.9,818.8,124.9,812.9z"/>
			<path class="st2" d="M139.8,816.6v-22.5h-5v-1.9h5v-11h2.1v11h11.9v1.9h-11.9v22.3c0,4.8,2.5,7.2,6.8,7.2c1.6,0,3.2-0.4,4.9-1.2
				v2c-1.6,0.8-3.3,1.1-5.1,1.1C143.2,825.6,139.8,822.6,139.8,816.6z"/>
			<path class="st2" d="M178.8,834l0.8-1.8c1.6,0.8,3.4,1.4,5.5,1.4c3.6,0,5.8-1.8,8.9-8.7l-15.7-32.7h2.3l14.4,30.5l13.2-30.5h2.2
				l-14.8,33.6c-3.4,7.8-6.2,9.7-10.7,9.7C182.7,835.6,180.5,834.9,178.8,834z"/>
			<path class="st2" d="M214.9,808.8v-0.1c0-9.2,7-17.2,17-17.2c10,0,16.9,7.9,16.9,17v0.1c0,9.2-6.9,17.2-17,17.2
				C221.9,825.8,214.9,817.9,214.9,808.8z M246.6,808.7v-0.1c0-8.3-6.3-15.1-14.8-15.1c-8.6,0-14.6,6.9-14.6,15.1v0.1
				c0,8.3,6.2,15.1,14.8,15.1C240.6,823.9,246.6,817,246.6,808.7z"/>
			<path class="st2" d="M257.9,811.4v-19.2h2.1v18.8c0,7.6,4.1,12.7,11.7,12.7c6.9,0,12.3-5.7,12.3-13.1v-18.5h2.1V825h-2.1v-7.8
				c-1.5,3.9-5.6,8.6-12.6,8.6C262.8,825.8,257.9,820,257.9,811.4z"/>
		</g>
		<g>
			<path class="st2" d="M770,792.3h2.3l10.3,30l10.3-30.2h1.7l10.3,30.2l10.3-30h2.1l-11.6,33H804l-10.3-29.9l-10.3,29.9h-1.8
				L770,792.3z"/>
			<path class="st2" d="M822.6,815.8v-0.1c0-6.8,6.2-10.5,14.5-10.5c4.5,0,8.5,0.8,11.7,1.8v-2.2c0-7.4-4.4-11-11.7-11
				c-4,0-7.4,1.1-10.7,2.7l-0.8-1.8c3.6-1.8,7.2-2.9,11.6-2.9c4.5,0,8,1.2,10.4,3.6c2.1,2.1,3.2,5.3,3.2,9.3V825h-2.1v-6.8
				c-1.7,3.6-6.2,7.6-13.8,7.6C828.7,825.8,822.6,822.4,822.6,815.8z M848.9,812.9v-4c-3.2-1-7-1.8-11.8-1.8
				c-7.2,0-12.2,3.1-12.2,8.4v0.1c0,5.4,4.9,8.2,10.3,8.2C843.1,823.9,848.9,818.8,848.9,812.9z"/>
			<path class="st2" d="M859.3,820.8l1.2-1.6c3.6,2.9,8,4.5,12.2,4.5c5.3,0,9.4-2.8,9.4-6.8v-0.1c0-4.6-4.9-6-9.9-7.4
				c-6.1-1.8-11.4-3.4-11.4-8.9v-0.1c0-4.9,4.5-8.6,11.2-8.6c3.8,0,8.1,1.3,11.5,3.6l-1.2,1.8c-3.1-2.2-7-3.4-10.4-3.4
				c-5.4,0-9,2.8-9,6.4v0.1c0,4.1,4.6,5.6,9.9,7.1c6,1.6,11.4,3.5,11.4,9.2v0.1c0,5.4-5.1,9-11.6,9
				C867.9,825.6,862.8,823.8,859.3,820.8z"/>
		</g>
	</g>
	<g id="fill1">
		<g>
			<g>
				<path class="st3" d="M140.7,687c0,3.9-2.2,7.1-6.7,9.4c-3.9,2-8.4,3.1-13.7,3.1c-3.8,0-7.1-0.8-9.9-2.3
					c-3.1-1.7-4.7-3.8-4.7-6.5c0-1.6,0.5-2.9,1.4-3.8c0.9-0.9,2.1-1.4,3.6-1.4c1.4,0,2.5,0.3,3.3,0.9s1.3,1.4,1.5,2.5
					c0,0.2,0.1,0.4,0.1,0.5c0,0.5-0.1,1-0.4,1.4c-0.1,0.1-0.3,0.2-0.4,0.2c-0.1,0-0.2-0.1-0.3-0.2c-0.3-0.7-0.7-1.2-1.2-1.5
					c-0.5-0.3-1.2-0.5-1.9-0.5c-0.7,0-1.3,0.3-1.7,0.9c-0.5,0.6-0.7,1.2-0.7,1.9c0,1.9,1.2,3.4,3.7,4.5c2.2,1,4.8,1.4,7.9,1.4
					c3.8,0,7.1-1,10.1-3c3.2-2.1,4.8-4.8,4.8-7.9c0-2.7-1.2-5-3.7-6.7c-2.3-1.6-5-2.4-8.1-2.4c-2.9,0-5.3,0.5-7.2,1.4
					c-1,0.5-2,1.2-2.9,2.1c-0.2,0.2-0.5,0.2-0.7-0.1c-0.5-0.3-0.9-0.6-1.2-0.8c-0.3-0.2-0.6-0.5-0.8-0.7c-0.2-0.2-0.2-0.4,0.1-0.6
					c0,0,0.7-0.4,1.9-1.3c0.4-0.3,1-0.7,1.7-1.2c1.3-1,2.3-1.8,3.1-2.6c0.5-0.6,1-1.2,1.4-1.9c-2.7-0.5-5.2-1.7-7.4-3.6
					c-2.8-2.4-4.3-5.2-4.3-8.4c0-3.5,1.6-6.4,4.7-8.7c2.9-2.1,6.3-3.1,10.3-3.1c2.1,0,3.9,0.2,5.4,0.5c1.5,0.3,3,0.9,4.6,1.8
					c0.5-0.5,0.9-1.1,1.2-1.7c0.4-0.8,0.6-1.6,0.6-2.5c0-0.7-0.2-1.2-0.5-1.7c-0.4-0.5-1-0.7-1.8-0.6c-0.4,0-0.8,0.1-1.1,0.3
					c-0.1,0.1-0.3,0.2-0.6,0.5c-0.1,0.1-0.2,0.2-0.3,0.1c-0.1,0-0.1-0.2-0.1-0.4c0.1-0.8,0.4-1.6,0.8-2.2c0.6-1,1.4-1.4,2.5-1.4
					c1.4,0,2.5,0.5,3.2,1.4c0.6,0.8,0.9,2,0.9,3.4c0,1.1-0.3,2.3-1,3.5c-0.6,1.1-1.2,1.8-1.8,2.3c1.7,1.2,2.9,2.6,3.7,4.1
					c0.8,1.5,1.2,3.2,1.2,5.3c0,3.5-1.6,6.4-4.7,8.6c-2.9,2-6.4,3-10.6,3c-0.4,0-0.8,0-1.3-0.1s-0.8-0.1-1.1-0.1
					c-0.4,0.7-1.1,1.5-2.1,2.5c-1,1-1.8,1.7-2.5,2.1c1.2-0.4,2.5-0.7,3.9-0.8c1.3-0.2,2.7-0.2,4.1-0.2c4.1,0,7.7,0.9,10.7,2.6
					C138.8,680.2,140.7,683.2,140.7,687z M133.9,660.5c0-1.5-0.2-2.8-0.6-3.9c-0.4-1.1-1.1-2.2-2-3.3c-0.6,0.4-1.1,0.6-1.7,0.8
					c-0.6,0.2-1.2,0.3-1.9,0.3c-1.4,0-2.4-0.4-3.2-1.2c-0.6-0.6-0.9-1.2-0.9-1.9c0-0.3,0-0.4,0.1-0.4c0.1,0,0.2,0.1,0.3,0.2
					c0.4,0.4,0.6,0.7,0.9,0.9c0.6,0.4,1.3,0.6,2.1,0.6c0.6,0,1.1-0.1,1.6-0.2c0.5-0.1,0.9-0.3,1.3-0.6c-0.7-0.7-1.7-1.3-3-1.8
					c-1.3-0.5-2.6-0.8-4-0.8c-3.1,0-5.7,1-8,3c-2.3,2-3.4,4.4-3.4,7.4c0,2.6,0.7,4.8,2,6.7c1.4,1.9,3.3,3.2,5.7,3.9
					c0.1-0.5,0.2-0.9,0.2-1.3c0-0.7-0.2-1.5-0.7-2.3c-0.2-0.3-0.1-0.5,0.3-0.6s0.7-0.2,0.9-0.3s0.6-0.2,1.1-0.5
					c0.5-0.2,0.9-0.4,1.3-0.7c0.3-0.2,0.7-0.5,1.1-0.7c0.1-0.1,0.3-0.2,0.4-0.1c0.1,0.1,0.1,0.2,0.1,0.4c0,0.6-0.2,1.5-0.7,2.8
					c-0.5,1.3-1,2.5-1.4,3.4c0.4,0.1,0.9,0.1,1.3,0.1c2.6,0,5-1,7.2-3C132.7,665.5,133.9,663.2,133.9,660.5z"/>
				<path class="st3" d="M172.4,653.2c0,1.4-0.4,2.5-1.1,3.4c-0.7,0.9-1.7,1.3-3,1.3c-0.9,0-1.7-0.1-2.3-0.4c-0.6-0.2-1.1-0.6-1.2-1
					c-0.1-0.1-0.1-0.2,0-0.3c0-0.1,0.2-0.2,0.3-0.2c0.4,0,0.8-0.1,1.2-0.2c0.4-0.1,0.7-0.3,1-0.6c0.4-0.5,0.6-1,0.6-1.7
					c0-0.8-0.3-1.4-0.9-1.9c-0.7-0.6-1.8-0.8-3.1-0.8c-1.7,0-3.4,0.8-5,2.3c-1.5,1.3-2.6,3-3.4,4.9V680c0,0.4,0.3,0.9,0.8,1.3
					c0.5,0.4,0.9,0.8,1.4,1.1c0.2,0.2,0.4,0.5,0.4,0.7c0,0.3-0.3,0.4-0.8,0.4c-0.4,0-0.8,0-1.1,0c-1.5-0.1-2.5-0.2-3-0.2
					c-0.9,0-1.6,0-2.2,0.1c-0.5,0-1.2,0.1-1.9,0.1c-0.5,0-0.8-0.1-0.8-0.4c0-0.2,0.1-0.5,0.4-0.8c0.4-0.4,0.8-0.6,1-0.8
					c0.7-0.6,1.1-1.1,1.1-1.6v-21.3c0-1.7-0.4-3-1.3-4.1c-0.6-0.7-1.9-1.5-3.9-2.4c-0.1,0-0.1-0.1-0.1-0.2c0-0.1,0-0.3,0.1-0.4
					l1.7-1.6c0.3-0.3,0.6-0.6,0.8-0.9c0.1-0.1,0.2-0.3,0.5-0.6c0.1-0.2,0.3-0.3,0.5-0.3c0.1,0,0.2,0,0.3,0.1c1.3,0.9,2.3,1.7,3,2.4
					c1.4,1.5,2.3,3,2.5,4.5c0.9-2,2.2-3.7,4-5c2-1.6,4.3-2.3,6.8-2.3c2.1,0,3.8,0.5,5,1.5C171.8,650.5,172.4,651.8,172.4,653.2z"/>
				<path class="st3" d="M208.7,682.7c0.2,0.3,0.3,0.5,0.3,0.6c0,0.2-0.2,0.4-0.5,0.4c-0.1,0-0.5,0-1.2-0.1c-0.7-0.1-1.4-0.1-2-0.1
					c-0.4,0-0.9,0-1.4,0.1c-0.5,0.1-0.8,0.1-0.9,0.1c-0.6,0-0.8-0.1-0.8-0.4c0-0.1,0.1-0.2,0.2-0.4c0.2-0.3,0.4-0.6,0.5-1
					c0.1-0.3,0.2-0.7,0.2-1.2l-0.2-3.5c-0.9,2-2.5,3.7-4.7,5.2c-2.4,1.6-4.9,2.4-7.5,2.4c-3.7,0-6.8-1.1-9.4-3.3c-2.7-2.3-4-5.3-4-9
					c0-3.7,1.5-6.8,4.4-9.3c2.8-2.4,6.2-3.6,10.1-3.6c1.9,0,3.7,0.4,5.5,1.1c1.7,0.7,3.1,1.6,4,2.7c0-1.1-0.6-2.6-1.8-4.7
					c-1.4-2.5-3.1-4.5-5.1-6.1c-2.5-2-5-3-7.6-3c-1.6,0-3,0.3-4.1,1c-1.3,0.8-2,1.8-2,3.2c0,0.8,0.2,1.4,0.6,1.9s0.9,0.8,1.6,0.8
					c0.5,0,0.9-0.2,1.3-0.5c0.4-0.3,0.5-0.7,0.5-1.1c0-0.3,0-0.6-0.1-0.9c-0.1-0.3-0.2-0.6-0.2-0.8c-0.1-0.2-0.1-0.3,0-0.3
					c0,0,0.2,0,0.5,0c0.7,0.1,1.3,0.4,1.8,0.9c0.6,0.6,0.8,1.2,0.8,1.9c0,1.1-0.5,2.1-1.4,2.8c-0.9,0.8-1.9,1.1-3.1,1.1
					c-1.4,0-2.5-0.5-3.5-1.4c-0.9-0.9-1.4-2.2-1.4-3.8c0-2.1,1.1-3.7,3.3-4.8c1.9-1,4.2-1.5,7-1.5c2.7,0,5.3,0.8,7.9,2.5
					c2.6,1.7,4.7,4,6.3,6.9c1.1,2,2,4.6,2.7,7.6c0.4,1.9,0.8,4.6,1.2,7.9s0.7,5.7,1,6.9c0.1,0.6,0.3,1.2,0.7,1.8
					C208.4,682.2,208.6,682.5,208.7,682.7z M202.6,671.1c0-2.7-1-4.9-3-6.5c-2-1.6-4.6-2.4-7.9-2.4c-2.6,0-5,0.9-6.9,2.6
					c-2,1.7-3,3.9-3,6.4c0,2.7,1,5,3,6.9c2,1.9,4.4,2.8,7.2,2.8c3.2,0,5.8-0.9,7.7-2.7C201.6,676.3,202.6,674,202.6,671.1z"/>
				<path class="st3" d="M247,661.5c0,3.6-0.6,7-1.9,10.2c-1.2,3.3-3.1,6.3-5.6,9c0.1,0,0.2,0,0.4,0c0.2,0,0.4,0,0.7,0
					c0.7,0,1.4,0,2.1-0.1c0.6-0.1,1.3-0.3,1.9-0.7c0.6-0.5,1-0.8,1.2-1c0,0,0.1-0.1,0.2-0.1c0.1,0,0.1,0,0.1,0
					c0.3,0,0.3,0.2,0.2,0.6c0,0.4-0.1,0.8-0.1,1.3c0,0.5-0.1,0.8-0.1,1c0,0.4,0,0.7,0,1.1s0.1,0.8,0.1,1.2c0.1,0.5,0,0.7-0.3,0.7
					c-0.1,0-0.2,0-0.4-0.1c-0.7-0.4-1.2-0.7-1.5-0.8c-0.6-0.2-1.1-0.4-1.6-0.4c-0.5-0.1-1.3-0.1-2.3-0.1c-0.7,0-1.2,0-1.7,0
					c-0.4,0-0.9,0.1-1.6,0.2c-0.7,0.1-1-0.1-1-0.6c0-0.2,0-0.3,0.1-0.4c1.3-2,2.3-3.7,3-5c1.1-2.1,2-4,2.5-5.8c0.7-2.2,1-4.5,1-6.7
					c0-3.8-0.8-6.8-2.5-9.2c-1.8-2.5-4.1-3.7-7.1-3.7c-2,0-3.8,0.6-5.4,1.7c-1.4,1-2.6,2.4-3.6,4.2V680c0,0.4,0.3,0.9,0.8,1.3
					c0.5,0.4,0.9,0.8,1.4,1.1c0.3,0.3,0.4,0.5,0.4,0.7c0,0.2-0.2,0.4-0.6,0.4c-0.1,0-0.7,0-1.6-0.1s-1.8-0.1-2.6-0.1
					c-0.9,0-1.6,0-2.2,0.1c-0.5,0-1.2,0.1-1.9,0.1c-0.6,0-0.9-0.1-0.9-0.4c0-0.2,0.1-0.4,0.3-0.6c0.2-0.2,0.6-0.6,1-1
					c0.8-0.6,1.2-1.2,1.2-1.6v-21.3c0-2-0.6-3.7-1.8-5c-0.5-0.6-1.5-1.2-2.8-1.9c-0.2-0.1-0.3-0.2-0.3-0.4s0.1-0.3,0.2-0.5
					c0.3-0.3,0.6-0.5,0.8-0.7c0.2-0.2,0.5-0.4,0.8-0.8c0.3-0.3,0.6-0.6,0.8-0.8s0.4-0.4,0.5-0.6c0.1-0.1,0.2-0.2,0.4-0.2
					c0.1,0,0.3,0,0.3,0.1c0.9,0.7,1.8,1.7,2.7,2.9c1.3,1.7,2.1,3.2,2.3,4.4c1.1-1.7,2.3-3.2,3.9-4.5c2.3-1.9,4.6-2.8,6.9-2.8
					c4.3,0,7.7,1.6,10,4.9C246.1,655.4,247,658.3,247,661.5z"/>
				<path class="st3" d="M289.7,681.1c-0.1,0.1-0.3,0.2-0.6,0.4c-0.4,0.4-0.8,0.7-1.1,0.9s-0.6,0.5-0.9,0.9
					c-0.2,0.2-0.4,0.4-0.5,0.5c-0.2,0.2-0.4,0.3-0.6,0.3c-0.1,0-0.3-0.1-0.6-0.3c-0.6-0.4-1.2-1.2-1.9-2.5c-0.8-1.3-1.4-2.6-1.7-3.7
					c-1.1,2.1-2.6,3.8-4.5,5.1c-1.9,1.3-3.9,1.9-6,1.9c-4.4,0-8.1-1.7-10.9-5c-2.8-3.3-4.2-7.5-4.2-12.6c0-5.1,1.4-9.5,4.3-13.2
					c3.1-4,7-5.9,11.7-5.9c2,0,3.7,0.3,5.3,1c1.4,0.6,2.8,1.5,4.1,2.8v-10.2c0-0.7,0-1.2-0.1-1.7c0-0.4-0.3-0.6-0.9-0.5
					c-0.3,0-0.7,0.2-1.2,0.6c-0.7,0.5-1.1,0.7-1.2,0.8c-0.1,0.1-0.2,0.1-0.3,0.1c-0.3,0-0.5-0.1-0.5-0.4c0-0.1,0.1-0.3,0.2-0.5
					c0.2-0.2,0.6-0.7,1.4-1.5c1.4-1.4,2.4-2.3,2.8-2.7c0.8-0.8,1.7-1.8,2.7-2.9c0.7-0.8,1.1-1.3,1.3-1.4c0,0,0.1-0.1,0.2-0.1
					c0.1,0,0.1,0,0.2,0c0.2,0,0.3,0.2,0.3,0.6c-0.2,1.6-0.3,2.5-0.3,2.7c-0.1,1.3-0.1,2.6-0.1,3.8v36.1c0,1.4,0.3,2.6,0.8,3.5
					c0.5,0.9,1.4,1.7,2.6,2.3c0.3,0.1,0.4,0.3,0.4,0.5C289.9,680.9,289.9,681,289.7,681.1z M281.6,671.3v-12.2c0-2.9-1-5.2-3-6.9
					c-1.8-1.5-4.1-2.3-6.8-2.3c-3.2,0-6,1.5-8.3,4.5c-2.2,2.9-3.2,6.2-3.2,9.9c0,4.5,1.1,8.3,3.2,11.3c2.3,3.3,5.4,4.9,9.2,4.9
					c2.4,0,4.5-0.8,6.2-2.4C280.7,676.6,281.6,674.2,281.6,671.3z"/>
				<path class="st3" d="M328.2,674.9c0,0.3-0.1,0.7-0.3,1.2c-0.8,1.9-2.1,3.7-4.1,5.3c-2.7,2.2-5.9,3.3-9.4,3.3
					c-5.3,0-9.4-1.6-12.5-4.8c-3.2-3.2-4.8-7.7-4.8-13.4c0-5,1.8-9.3,5.4-13c3.6-3.7,7.9-5.6,12.9-5.6c2.9,0,5.4,0.8,7.6,2.3
					c2.4,1.7,3.5,3.8,3.5,6.4c0,2.2-0.7,4-2.1,5.5s-3.1,2.3-5.1,2.3c-1.7,0-3.2-0.5-4.5-1.5c-1.3-1.1-2-2.5-2-4.1
					c0-1.1,0.4-2.1,1.1-3c0.6-0.8,1.3-1.3,1.9-1.5c0.3-0.1,0.5-0.1,0.6,0.1c0.1,0.1,0.2,0.3,0.1,0.5c-0.1,0.3-0.2,0.6-0.3,0.8
					c-0.1,0.5-0.2,0.9-0.2,1.3c0,0.3,0,0.5,0,0.6c0.1,0.7,0.5,1.3,1.2,1.7c0.6,0.4,1.4,0.6,2.2,0.6c1.2,0,2.1-0.4,2.8-1.3
					c0.7-0.8,1-1.9,1-3.1c0-1.8-0.9-3.3-2.6-4.3c-1.6-1-3.4-1.4-5.6-1.4c-4.1,0-7.3,1.5-9.9,4.6c-2.5,3.1-3.8,7-3.8,11.6
					c0,4,1.3,7.5,3.9,10.3c2.7,3,6,4.4,9.9,4.4c2.5,0,4.5-0.4,6.2-1.1c1.6-0.7,3.3-2.1,5.1-4.1c0,0,0.2-0.3,0.4-0.6
					c0.2-0.3,0.4-0.4,0.5-0.5c0.1-0.1,0.3-0.1,0.5,0C328.1,674.5,328.2,674.6,328.2,674.9z"/>
				<path class="st3" d="M364.7,661.5c0,3.6-0.6,7-1.9,10.2c-1.2,3.3-3.1,6.3-5.6,9c0.1,0,0.2,0,0.4,0c0.2,0,0.4,0,0.7,0
					c0.7,0,1.4,0,2.1-0.1c0.6-0.1,1.3-0.3,1.9-0.7c0.6-0.5,1-0.8,1.2-0.9c0.2-0.1,0.3-0.2,0.4-0.2c0.2,0,0.3,0.2,0.3,0.5
					c-0.1,0.5-0.1,1-0.2,1.4c-0.1,0.5-0.1,0.8-0.1,1c0,0.5,0,1,0.1,1.5c0.1,0.6,0.1,0.9,0.1,1c0,0.4-0.1,0.5-0.3,0.5
					c-0.1,0-0.2-0.1-0.4-0.2c-0.5-0.4-1-0.7-1.6-0.8c-0.5-0.2-1-0.3-1.5-0.4c-0.5-0.1-1.3-0.1-2.3-0.1c-0.7,0-1.2,0-1.7,0
					s-0.9,0.1-1.6,0.1c-0.3,0-0.5,0-0.7,0c-0.2,0-0.4,0-0.5-0.1c-0.1-0.1-0.1-0.3-0.1-0.5c0.1-0.2,0.1-0.3,0.3-0.5
					c1.3-2,2.3-3.7,3-5c1.1-2.1,2-4,2.5-5.8c0.7-2.2,1-4.4,1-6.7c0-3.7-0.8-6.8-2.5-9.2c-1.8-2.5-4.1-3.7-7.1-3.7
					c-2,0-3.8,0.6-5.4,1.8c-1.4,1-2.6,2.4-3.6,4.1v22.2c0,0.4,0.3,0.8,0.8,1.3c0.4,0.4,0.9,0.7,1.3,1.1c0.3,0.3,0.4,0.5,0.4,0.7
					c0,0.3-0.3,0.4-0.8,0.4c-0.4,0-0.8,0-1.1,0c-1.5-0.1-2.5-0.2-3-0.2c-0.9,0-1.6,0-2.1,0.1c-0.5,0-1.2,0.1-1.9,0.1
					c-0.6,0-0.9-0.1-0.9-0.4c0-0.1,0.1-0.4,0.4-0.7c0.6-0.5,1-0.9,1.3-1.1c0.6-0.5,0.8-0.9,0.8-1.3v-38.5c0-0.7,0-1.2-0.1-1.7
					c0-0.4-0.3-0.6-0.9-0.5c-0.3,0-0.7,0.3-1.3,0.7c-0.6,0.4-1,0.7-1.3,0.7c-0.4,0.1-0.5,0-0.5-0.4c0-0.1,0.1-0.3,0.2-0.5
					c0.1-0.2,0.8-0.9,2-2c0.9-0.9,1.7-1.7,2.2-2.2c0.8-0.8,1.7-1.8,2.7-2.9c0.7-0.8,1.1-1.3,1.3-1.4c0,0,0.1-0.1,0.2-0.1
					c0.1,0,0.1,0,0.2,0c0.2,0,0.3,0.2,0.3,0.6c-0.1,0.8-0.2,1.7-0.3,2.9c-0.1,1.1-0.1,2.4-0.1,3.6v16.6c1.1-1.7,2.2-3.1,3.6-4.3
					c2.1-1.7,4.3-2.6,6.6-2.6c4.3,0,7.7,1.6,10,4.9C363.8,655.4,364.7,658.3,364.7,661.5z"/>
				<path class="st3" d="M384.4,682.5c0.3,0.3,0.4,0.5,0.4,0.7c0,0.3-0.3,0.4-0.8,0.4c-0.4,0-0.8,0-1.1,0c-1.5-0.1-2.5-0.2-3-0.2
					c-0.9,0-1.6,0-2.1,0.1c-0.5,0-1.2,0.1-1.9,0.1c-0.6,0-0.9-0.1-0.9-0.4c0-0.1,0.1-0.4,0.4-0.7c0.6-0.5,1-0.9,1.3-1.1
					c0.6-0.5,0.8-0.9,0.8-1.3v-24.2c0-1.2-0.3-2-0.9-2.4c-0.7-0.3-1.3-0.4-1.5-0.5c-0.3-0.1-0.4-0.2-0.4-0.4c0-0.1,0.1-0.3,0.3-0.5
					s0.6-0.4,1.2-0.7c0.8-0.4,1.5-0.8,1.9-1.1c1.1-0.7,2-1.3,2.6-1.7c0.6-0.5,1-0.8,1.2-0.9c0.2-0.1,0.3-0.2,0.4-0.2
					c0.3,0,0.4,0.2,0.3,0.6c-0.1,0.5-0.2,1.4-0.3,2.6c-0.1,1.2-0.2,2.7-0.2,4.4v25c0,0.4,0.3,0.8,0.8,1.3
					C383.4,681.7,383.9,682.1,384.4,682.5z M383.5,638.9c0,0.8-0.3,1.6-1,2.2c-0.6,0.6-1.4,0.9-2.3,0.9c-0.9,0-1.6-0.3-2.2-0.9
					c-0.6-0.6-0.9-1.4-0.9-2.2s0.3-1.6,1-2.2c0.6-0.6,1.4-0.9,2.3-0.9c0.9,0,1.6,0.3,2.2,1C383.2,637.2,383.5,638,383.5,638.9z"/>
				<path class="st3" d="M404.5,682.5c0.3,0.3,0.4,0.5,0.4,0.7c0,0.3-0.3,0.4-0.8,0.4c-0.4,0-0.8,0-1.1,0c-1.5-0.1-2.5-0.2-3-0.2
					c-0.9,0-1.6,0-2.1,0.1c-0.5,0.1-1.2,0.1-1.9,0.2c-0.6,0-0.9-0.1-0.9-0.4c0-0.1,0.1-0.4,0.4-0.7c0.6-0.5,1-0.9,1.3-1.1
					c0.6-0.5,0.8-0.9,0.8-1.3v-38.5c0-0.7,0-1.2-0.1-1.7c0-0.4-0.3-0.6-0.9-0.5c-0.3,0-0.7,0.3-1.3,0.7c-0.6,0.4-1,0.7-1.3,0.7
					c-0.4,0.1-0.5,0-0.5-0.4c0-0.1,0.1-0.3,0.2-0.5c0.1-0.2,0.8-0.9,2-2c0.9-0.9,1.7-1.7,2.2-2.2c0.8-0.8,1.7-1.8,2.7-2.9
					c0.7-0.8,1.1-1.3,1.3-1.4c0,0,0.1-0.1,0.2-0.1c0.1,0,0.1,0,0.2,0c0.2,0,0.3,0.2,0.3,0.6c-0.1,0.8-0.2,1.7-0.3,2.9
					c-0.1,1.1-0.1,2.4-0.1,3.6v41.9c0,0.4,0.3,0.8,0.8,1.3C403.6,681.7,404.1,682.1,404.5,682.5z"/>
				<path class="st3" d="M447.7,681.1c-0.1,0.1-0.3,0.2-0.6,0.4c-0.4,0.4-0.8,0.7-1.1,0.9s-0.6,0.5-0.9,0.9
					c-0.2,0.2-0.4,0.4-0.5,0.5c-0.2,0.2-0.4,0.3-0.6,0.3c-0.1,0-0.3-0.1-0.6-0.3c-0.6-0.4-1.2-1.2-1.9-2.5c-0.8-1.3-1.4-2.6-1.7-3.7
					c-1.1,2.1-2.6,3.8-4.5,5.1c-1.9,1.3-3.9,1.9-6,1.9c-4.4,0-8.1-1.7-10.9-5c-2.8-3.3-4.2-7.5-4.2-12.6c0-5.1,1.4-9.5,4.3-13.2
					c3.1-4,7-5.9,11.7-5.9c2,0,3.7,0.3,5.3,1c1.4,0.6,2.8,1.5,4.1,2.8v-10.2c0-0.7,0-1.2-0.1-1.7c0-0.4-0.3-0.6-0.9-0.5
					c-0.3,0-0.7,0.2-1.2,0.6c-0.7,0.5-1.1,0.7-1.2,0.8c-0.1,0.1-0.2,0.1-0.3,0.1c-0.3,0-0.5-0.1-0.5-0.4c0-0.1,0.1-0.3,0.2-0.5
					c0.2-0.2,0.6-0.7,1.4-1.5c1.4-1.4,2.4-2.3,2.8-2.7c0.8-0.8,1.7-1.8,2.7-2.9c0.7-0.8,1.1-1.3,1.3-1.4c0,0,0.1-0.1,0.2-0.1
					c0.1,0,0.1,0,0.2,0c0.2,0,0.3,0.2,0.3,0.6c-0.2,1.6-0.3,2.5-0.3,2.7c-0.1,1.3-0.1,2.6-0.1,3.8v36.1c0,1.4,0.3,2.6,0.8,3.5
					c0.5,0.9,1.4,1.7,2.6,2.3c0.3,0.1,0.4,0.3,0.4,0.5C448,680.9,447.9,681,447.7,681.1z M439.6,671.3v-12.2c0-2.9-1-5.2-3-6.9
					c-1.8-1.5-4.1-2.3-6.8-2.3c-3.2,0-6,1.5-8.3,4.5c-2.2,2.9-3.2,6.2-3.2,9.9c0,4.5,1.1,8.3,3.2,11.3c2.3,3.3,5.4,4.9,9.2,4.9
					c2.4,0,4.5-0.8,6.2-2.4C438.7,676.6,439.6,674.2,439.6,671.3z"/>
			</g>
		</g>
		<g>
			<g>
				<path class="st3" d="M570.9,825h-6.4L547,803l-9.7,9.8V825h-5.1v-45.5h5.1v27.2l26.1-27.2h6.6l-19.5,19.9L570.9,825z"/>
				<path class="st3" d="M612.4,779.5h5V825h-4.1l-29.4-37.3V825h-5v-45.5h4.8l28.7,36.5V779.5z"/>
				<path class="st3" d="M663.1,784.2h-27.8v15.5h24.8v4.7h-24.8v15.9h28.1v4.7h-33.2v-45.5h32.9V784.2z"/>
				<path class="st3" d="M701.3,779.4h4.2l12.5,38l13-37.9h5.4l-16.2,45.8h-4.4l-12.5-36.9l-12.5,36.9h-4.3l-16.2-45.8h5.6l13,37.9
					L701.3,779.4z"/>
			</g>
		</g>
		<g>
			<path class="st3" d="M951.4,817.4c-0.6,2-2.1,4-4.5,5.7c-2.8,2.1-5.8,3.1-9.1,3.1c-2.1,0-4-0.2-5.6-0.7c-1.9-0.5-3.7-1.4-5.3-2.7
				c-0.7,0.8-1.3,1.8-1.8,2.7c-0.7,1.2-1,2.1-1,2.7c0,0.7,0.2,1.1,0.5,1.4c0.2,0.2,0.6,0.3,1.2,0.3c0.2,0,0.3,0,0.5-0.1
				c0.1,0,0.3-0.1,0.4-0.1c0.1,0,0.2,0,0.3,0c0.2,0.1,0.2,0.3,0.1,0.6c-0.1,0.6-0.4,1.1-0.9,1.6c-0.6,0.6-1.2,0.9-2,0.9
				c-0.8,0-1.5-0.3-2-0.9c-0.5-0.6-0.8-1.4-0.8-2.3c0-0.8,0.3-1.7,0.8-2.8c0.1-0.3,1.2-2,3.1-5.1c-1.8-1.8-3.1-3.8-4.1-5.9
				c-1.1-2.4-1.6-4.9-1.6-7.7c0-5,1.6-9.4,4.9-13.1c3.3-3.7,7.4-5.5,12.2-5.5c1.9,0,3.9,0.5,6,1.4c1.1,0.6,2.3,1.1,3.4,1.6
				c0.2,0.1,0.5,0.2,0.9,0.2c0.4,0,0.8,0.1,1.2,0.1l1.1-0.1c0.3,0,0.4,0.1,0.4,0.3c0,0.2-0.1,0.3-0.3,0.4c-0.4,0.2-0.8,0.6-1.3,1
				c-0.6,0.5-1.2,1.1-1.6,1.6c-2.3,2.6-5,6-8.1,10.2c-3.1,4.2-6,8.4-8.7,12.7c1.4,1,2.9,1.8,4.3,2.3c1.7,0.6,3.5,1,5.4,1
				c2.6,0,4.7-0.5,6.4-1.5c1.2-0.7,2.6-2,4.1-3.9c0.1-0.2,0.3-0.5,0.5-0.7c0.2-0.3,0.4-0.4,0.6-0.3c0.3,0.1,0.5,0.3,0.5,0.7
				C951.6,816.8,951.5,817.1,951.4,817.4z M941.6,796.1c0-1.4-0.8-2.5-2.3-3.3c-1.3-0.7-2.9-1-4.7-1c-3.4,0-6.2,1.5-8.4,4.4
				c-2.1,2.7-3.1,6-3.1,9.8c0,2.2,0.5,4.5,1.6,6.7c0.9,1.9,2.1,3.5,3.4,4.8c1.6-2.4,2.9-4.3,3.8-5.7c1.5-2.2,2.7-4,3.7-5.4
				c1.3-1.9,2.6-3.7,4-5.6C940.9,798.7,941.6,797.2,941.6,796.1z"/>
			<path class="st3" d="M1001.8,802.8c0,3.2-0.8,6.5-2.4,10.1c-1.5,3.3-3.5,6.5-6.1,9.3c0.1,0,0.2,0,0.4,0c0.2,0,0.4,0,0.7,0
				c0.7,0,1.5,0,2.1-0.1s1.3-0.4,2-0.8c0.4-0.3,0.8-0.6,1.2-1c0.1-0.1,0.3-0.2,0.4-0.1c0.1,0.1,0.2,0.3,0.1,0.5
				c-0.1,0.5-0.1,1-0.2,1.4c-0.1,0.5-0.1,0.8-0.1,1c0,0.5,0,1,0.1,1.3s0.1,0.8,0.2,1.2c0,0.4,0,0.6-0.3,0.6c-0.2,0-0.3-0.1-0.5-0.3
				c-0.5-0.3-1-0.6-1.5-0.8c-0.6-0.2-1.1-0.3-1.5-0.4c-0.5-0.1-1.2-0.1-2.3-0.1c-0.7,0-1.2,0-1.7,0c-0.4,0-0.9,0.1-1.6,0.2
				c-0.1,0-0.2,0-0.3,0c-0.1,0-0.2,0-0.3,0c-0.5,0-0.7-0.2-0.7-0.5c0-0.1,0.1-0.4,0.3-0.6c1.2-1.8,2.2-3.6,3.1-5.3
				c1.2-2.2,2.1-4.2,2.7-6.1c0.8-2.3,1.2-4.4,1.2-6.2c0-3.9-0.6-7-1.7-9.2c-1.3-2.6-3.4-3.9-6.3-3.9c-1.2,0-2.3,0.2-3.4,0.7
				c-1.1,0.5-2,1.2-2.8,2.2c0.4,1.2,0.7,2.6,0.9,4.3c0.2,1.7,0.3,3.5,0.3,5.4c0,2.4-0.6,5.1-1.7,8.3c-0.9,2.5-1.9,4.9-3.2,7.3
				c-1.1,1.9-1.8,3.1-2.2,3.6c-0.1,0.1-0.2,0.1-0.5,0.1c-0.4,0-0.6-0.1-0.7-0.2c-0.1-0.1-0.1-0.2,0-0.4c0.1-0.3,0.2-0.5,0.3-0.6
				c2.1-4.4,3.2-10.2,3.2-17.4c0-3.5-0.7-6.5-2-8.9c-1.5-2.6-3.4-4-5.7-4c-1.6,0-3.1,0.7-4.5,2c-1.2,1.1-2,2.4-2.6,3.9v22.1
				c0,0.4,0.3,0.8,0.8,1.3c0.4,0.4,0.9,0.7,1.3,1.1c0.3,0.3,0.4,0.5,0.4,0.7c0,0.3-0.3,0.4-0.8,0.4c-0.3,0-1,0-2.1-0.1
				c-1.1-0.1-1.8-0.1-2-0.1c-0.9,0-1.6,0-2.1,0.1c-0.5,0-1.2,0.1-1.9,0.1c-0.6,0-0.8-0.1-0.8-0.4c0-0.2,0.1-0.4,0.4-0.7
				c0.6-0.5,1-0.9,1.3-1.1c0.5-0.5,0.8-0.9,0.8-1.3v-21.3c0-2-0.6-3.7-1.9-5c-0.5-0.5-1.4-1.1-2.8-1.9c-0.2-0.1-0.3-0.3-0.3-0.4
				c0-0.1,0.1-0.2,0.2-0.4c0.4-0.3,0.9-0.8,1.7-1.5c0.4-0.4,0.6-0.6,0.8-0.9c0.2-0.2,0.4-0.4,0.5-0.6c0.2-0.2,0.3-0.3,0.4-0.3
				s0.3,0.1,0.4,0.2c0.9,0.8,1.8,1.8,2.7,3c1.3,1.7,2,3.1,2.2,4.3c0.8-1.8,1.8-3.2,2.9-4.3c1.9-2,4.1-3,6.6-3c2.1,0,3.9,0.6,5.5,1.7
				c1.1,0.8,2.2,1.9,3.3,3.5c1-1.4,2.1-2.6,3.3-3.5c1.6-1.1,3.2-1.7,5-1.7c4.1,0,7.2,1.6,9.3,4.8
				C1001,796.6,1001.8,799.4,1001.8,802.8z"/>
			<path class="st3" d="M1045.2,803.9c0,6.4-1.8,11.7-5.3,16c-3.4,4.2-7.4,6.2-12,6.2c-1.7,0-3.2-0.3-4.5-0.9
				c-1.1-0.5-2.3-1.4-3.8-2.7v7.7c0,1.3,0.3,2.5,0.8,3.3c0.3,0.4,0.7,0.9,1.4,1.5c0.2,0.2,0.3,0.4,0.3,0.5c0,0.2-0.2,0.3-0.5,0.5
				c-0.3,0.1-0.7,0.3-1.2,0.5c-0.7,0.3-1.6,0.8-2.6,1.4c-0.7,0.4-1.3,0.9-1.9,1.3s-1.2,1-1.8,1.5c-0.2,0.1-0.4,0.1-0.5,0.1
				c-0.2,0-0.3-0.2-0.3-0.7c0.5-1.3,0.9-2.6,1.2-3.8s0.5-2.6,0.5-3.9v-32.3c0-2.1-0.6-3.7-1.9-5c-0.5-0.6-1.5-1.2-2.8-1.9
				c-0.1-0.1-0.2-0.2-0.2-0.3c0-0.1,0-0.2,0.1-0.3c0-0.1,0.1-0.2,0.1-0.3c0.1-0.1,0.3-0.3,0.6-0.6c0.4-0.3,0.7-0.6,1-0.9
				c0.4-0.4,0.6-0.6,0.8-0.9s0.4-0.4,0.5-0.6c0.1-0.1,0.2-0.2,0.4-0.2c0.1,0,0.3,0,0.3,0.1c1,0.7,1.9,1.7,2.9,2.9
				c1.4,1.8,2.2,3.5,2.5,5.1c0.9-1.8,2.2-3.5,3.9-4.9c2.4-2.1,5.1-3.1,8-3.1c3,0,5.6,0.9,7.9,2.6c1.9,1.5,3.4,3.4,4.6,5.9
				C1044.7,800.1,1045.2,802.1,1045.2,803.9z M1040.3,806.5c0-3.5-1-6.5-2.9-9.1c-2-2.8-4.5-4.1-7.5-4.1c-2.5,0-4.7,0.8-6.5,2.3
				c-1.5,1.3-2.8,3-3.9,5.2v21l1.4-1.4c0.4-0.4,0.7-0.7,1-1c0.3-0.3,0.5-0.7,0.9-1.2c0.1-0.1,0.2-0.2,0.4-0.2c0.3,0,0.4,0.2,0.3,0.6
				c0,0-0.1,0.3-0.1,0.7c-0.1,0.4-0.1,0.8-0.1,1c0,0.6,0.1,1.1,0.3,1.6c0.3,0.6,0.9,1.2,1.8,1.6s1.8,0.6,2.8,0.6
				c3.7,0,6.6-1.6,8.8-4.9C1039.2,816,1040.3,811.7,1040.3,806.5z"/>
			<path class="st3" d="M1066.1,792.3c0,0.4-0.2,0.6-0.5,0.6c-0.1,0-0.7,0-1.8-0.1c-1.1,0-2.1-0.1-3-0.1v23.9c0,1.7,0.5,3.2,1.4,4.4
				c0.3,0.3,1,1,2.1,1.9c0.2,0.1,0.3,0.3,0.3,0.5c0,0.1-0.1,0.2-0.3,0.4c-0.2,0.1-0.4,0.3-0.6,0.4c-0.3,0.2-0.6,0.4-0.7,0.6
				c-0.7,0.6-1.1,1-1.3,1.3c-0.2,0.2-0.4,0.3-0.6,0.3c-0.2,0-0.3,0-0.5-0.1c-1-0.6-1.9-1.6-2.7-3c-1.1-1.9-1.7-4.3-1.7-7v-23.5
				c-0.8,0-1.5,0-2.2,0.1c-0.7,0-1.4,0.1-2.1,0.1c-0.3,0-0.5-0.2-0.5-0.6v-1.2c0-0.4,0.2-0.6,0.6-0.6c0.1,0,0.6,0,1.6,0.1
				c0.9,0,1.8,0.1,2.6,0.1V788c0-1.4-0.3-2.2-0.9-2.3c-0.4,0-0.7-0.1-0.8-0.1c-0.3,0-0.5-0.2-0.5-0.5c0-0.1,0.1-0.3,0.2-0.4
				c0.5-0.5,1.1-0.9,1.6-1.5c0.6-0.5,1.2-1.1,1.8-1.8c0.8-0.8,1.4-1.5,1.8-2c0.4-0.5,0.8-1,1.2-1.5c0.1-0.1,0.2-0.2,0.3-0.2
				c0.2,0,0.3,0.2,0.3,0.5c-0.1,0.6-0.1,1.2-0.2,1.9c-0.1,1.5-0.2,3.1-0.2,4.7v6c0.8,0,1.6,0,2.3,0c0.8,0,1.6-0.1,2.4-0.1
				c0.3,0,0.5,0.2,0.5,0.5V792.3z"/>
			<path class="st3" d="M1105.4,791.6c-0.6,0.5-1,0.9-1.3,1.2c-0.6,0.5-0.9,1-0.9,1.4v29c0,5.3-1.5,9.7-4.5,13
				c-2.8,3.2-6.4,4.8-10.6,4.8c-1.9,0-3.4-0.2-4.5-0.7c-1.5-0.6-2.2-1.6-2.2-3c0-1,0.6-1.9,1.7-2.5c1.1-0.6,2.1-0.9,3-0.8
				c0.4,0,0.5,0.1,0.5,0.4c0,0.1-0.1,0.2-0.2,0.4s-0.2,0.3-0.3,0.5c-0.1,0.3-0.2,0.6-0.2,0.8c0,0.2,0,0.4,0.1,0.6
				c0.2,0.6,0.6,1.2,1.2,1.5c0.6,0.4,1.3,0.6,2.1,0.6c2.9,0,5.3-1.3,7-3.9c1.6-2.4,2.3-5.5,2.3-9.2V819c-0.8,1.7-2,3.2-3.6,4.5
				c-2.1,1.7-4.3,2.6-6.7,2.6c-4.4,0-7.8-1.5-10.2-4.4c-2.1-2.5-3.1-5.7-3.1-9.6c0-2.2,0.3-4.3,0.8-6.2c0.5-1.6,1.1-3.3,2.1-5
				c0.1-0.1,0.9-1.6,2.5-4.4c0.1-0.3,0-0.6-0.5-0.9c-0.3-0.2-0.8-0.5-1.7-0.8c-0.4-0.2-0.9-0.4-1.3-0.6c-0.2-0.1-0.3-0.2-0.3-0.4
				c0-0.2,0.2-0.3,0.6-0.4c0.4-0.1,0.8-0.2,1.3-0.3c0.7-0.2,1.6-0.4,2.5-0.8c0.9-0.3,1.7-0.7,2.4-1.1c0.7-0.4,1.5-0.8,2.2-1.2
				c0.1-0.1,0.3-0.1,0.4-0.1c0.3,0,0.4,0.1,0.4,0.4c0,0.1,0,0.2-0.1,0.4c-0.1,0.2-0.3,0.5-0.6,0.9c-0.2,0.3-0.4,0.6-0.7,1
				c-1.9,2.6-3.3,5.1-4.2,7.6c-1.1,2.9-1.7,5.9-1.7,9c0,3.8,0.9,7,2.6,9.5c1.8,2.5,4.1,3.7,7.1,3.7c2.1,0,4-0.6,5.8-1.8
				c1.8-1.2,3.1-2.7,3.9-4.5v-22.1c0-0.5-0.3-0.9-0.8-1.4c-0.5-0.4-1-0.8-1.4-1.2c-0.2-0.2-0.3-0.3-0.3-0.5c0-0.3,0.2-0.4,0.6-0.4
				c0.1,0,0.6,0,1.6,0.1c0.9,0.1,1.8,0.1,2.6,0.1c0.9,0,1.7,0,2.2-0.1c0.5,0,1.2-0.1,1.9-0.2c0.5,0,0.7,0.1,0.7,0.4
				C1105.6,791.2,1105.5,791.4,1105.4,791.6z"/>
		</g>
	</g>
	<g id="fill2">
		<g>
			<g>
				<path class="st4" d="M234.2,730.9c10.1,2.2,14.8,5.9,14.8,12.9c0,7.9-6.5,12.9-15.5,12.9c-7.2,0-13.1-2.4-18.6-7.3l3.2-3.8
					c4.7,4.3,9.3,6.4,15.6,6.4c6.1,0,10.1-3.2,10.1-7.8c0-4.3-2.3-6.7-11.8-8.7c-10.5-2.3-15.3-5.7-15.3-13.2
					c0-7.3,6.3-12.5,14.9-12.5c6.6,0,11.4,1.9,16,5.6l-3,4c-4.2-3.4-8.4-4.9-13.1-4.9c-5.9,0-9.7,3.2-9.7,7.4
					C221.9,726.3,224.2,728.7,234.2,730.9z"/>
				<path class="st4" d="M275.7,740h-11v16.1h-5.1v-45.5h17c10.3,0,17,5.5,17,14.5C293.6,735,285.4,740,275.7,740z M276.1,715.3
					h-11.5v20h11.2c7.5,0,12.5-4,12.5-10.1C288.4,718.7,283.5,715.3,276.1,715.3z"/>
				<path class="st4" d="M340.7,756.1h-5.5l-5.3-12h-24.8l-5.4,12h-5.3l20.7-45.8h4.8L340.7,756.1z M317.5,716.3l-10.4,23.2h20.7
					L317.5,716.3z"/>
				<path class="st4" d="M367.8,756.9c-13.1,0-22.8-10.3-22.8-23.5c0-13,9.6-23.6,23-23.6c8.3,0,13.2,2.9,17.7,7.2l-3.5,3.8
					c-3.8-3.6-8.1-6.2-14.3-6.2c-10.1,0-17.6,8.1-17.6,18.7s7.6,18.8,17.6,18.8c6.2,0,10.3-2.4,14.7-6.6l3.4,3.3
					C381.3,753.7,376.1,756.9,367.8,756.9z"/>
				<path class="st4" d="M427.9,715.3h-27.8v15.5H425v4.7h-24.8v15.9h28.1v4.7H395v-45.5h32.9V715.3z"/>
			</g>
		</g>
		<g>
			<path class="st4" d="M354.7,802.9c0,3.6-0.6,7-1.9,10.2c-1.2,3.3-3.1,6.3-5.6,9c0.1,0,0.2,0,0.4,0c0.2,0,0.4,0,0.7,0
				c0.7,0,1.4,0,2.1-0.1s1.3-0.3,1.9-0.7c0.6-0.5,1-0.8,1.2-1c0,0,0.1-0.1,0.2-0.1c0.1,0,0.1,0,0.1,0c0.3,0,0.3,0.2,0.2,0.6
				c0,0.4-0.1,0.8-0.1,1.3c0,0.5-0.1,0.8-0.1,1c0,0.4,0,0.7,0,1.1c0,0.4,0.1,0.8,0.1,1.2c0.1,0.5,0,0.7-0.3,0.7
				c-0.1,0-0.2,0-0.4-0.1c-0.7-0.4-1.2-0.7-1.5-0.8c-0.6-0.2-1.1-0.4-1.6-0.4c-0.5-0.1-1.3-0.1-2.3-0.1c-0.7,0-1.2,0-1.7,0
				c-0.4,0-0.9,0.1-1.6,0.2c-0.7,0.1-1-0.1-1-0.6c0-0.2,0-0.3,0.1-0.4c1.3-2,2.3-3.7,3-5c1.1-2.1,2-4,2.5-5.8c0.7-2.2,1-4.5,1-6.7
				c0-3.8-0.8-6.8-2.5-9.2c-1.8-2.5-4.1-3.7-7.1-3.7c-2,0-3.8,0.6-5.4,1.7c-1.4,1-2.6,2.4-3.6,4.2v22.1c0,0.4,0.3,0.9,0.8,1.3
				c0.5,0.4,0.9,0.8,1.4,1.1c0.3,0.3,0.4,0.5,0.4,0.7c0,0.2-0.2,0.4-0.6,0.4c-0.1,0-0.7,0-1.6-0.1c-1-0.1-1.8-0.1-2.6-0.1
				c-0.9,0-1.6,0-2.2,0.1c-0.5,0-1.2,0.1-1.9,0.1c-0.6,0-0.9-0.1-0.9-0.4c0-0.2,0.1-0.4,0.3-0.6s0.6-0.6,1-1
				c0.8-0.6,1.2-1.2,1.2-1.6v-21.3c0-2-0.6-3.7-1.8-5c-0.5-0.6-1.5-1.2-2.8-1.9c-0.2-0.1-0.3-0.2-0.3-0.4c0-0.2,0.1-0.3,0.2-0.5
				c0.3-0.3,0.6-0.5,0.8-0.7c0.2-0.2,0.5-0.4,0.8-0.8c0.3-0.3,0.6-0.6,0.8-0.8c0.2-0.2,0.4-0.4,0.5-0.6c0.1-0.1,0.2-0.2,0.4-0.2
				c0.1,0,0.3,0,0.3,0.1c0.9,0.7,1.8,1.7,2.7,2.9c1.3,1.7,2.1,3.2,2.3,4.4c1.1-1.7,2.3-3.2,3.9-4.5c2.3-1.9,4.6-2.8,6.9-2.8
				c4.3,0,7.7,1.6,10,4.9C353.8,796.9,354.7,799.7,354.7,802.9z"/>
			<path class="st4" d="M395.8,817.4c-0.6,2-2.1,4-4.5,5.7c-2.8,2.1-5.8,3.1-9.1,3.1c-2.1,0-4-0.2-5.6-0.7c-1.9-0.5-3.7-1.4-5.3-2.7
				c-0.7,0.8-1.3,1.8-1.8,2.7c-0.7,1.2-1,2.1-1,2.7c0,0.7,0.2,1.1,0.5,1.4c0.2,0.2,0.6,0.3,1.2,0.3c0.2,0,0.3,0,0.5-0.1
				c0.1,0,0.3-0.1,0.4-0.1c0.1,0,0.2,0,0.3,0c0.2,0.1,0.2,0.3,0.1,0.6c-0.1,0.6-0.4,1.1-0.9,1.6c-0.6,0.6-1.2,0.9-2,0.9
				c-0.8,0-1.5-0.3-2-0.9c-0.5-0.6-0.8-1.4-0.8-2.3c0-0.8,0.3-1.7,0.8-2.8c0.1-0.3,1.2-2,3.1-5.1c-1.8-1.8-3.1-3.8-4.1-5.9
				c-1.1-2.4-1.6-4.9-1.6-7.7c0-5,1.6-9.4,4.9-13.1c3.3-3.7,7.4-5.5,12.2-5.5c1.9,0,3.9,0.5,6,1.4c1.1,0.6,2.3,1.1,3.4,1.6
				c0.2,0.1,0.5,0.2,0.9,0.2c0.4,0,0.8,0.1,1.2,0.1l1.1-0.1c0.3,0,0.4,0.1,0.4,0.3c0,0.2-0.1,0.3-0.3,0.4c-0.4,0.2-0.8,0.6-1.3,1
				c-0.6,0.5-1.2,1.1-1.6,1.6c-2.3,2.6-5,6-8.1,10.2c-3.1,4.2-6,8.4-8.7,12.7c1.4,1,2.9,1.8,4.3,2.3c1.7,0.6,3.5,1,5.4,1
				c2.6,0,4.7-0.5,6.4-1.5c1.2-0.7,2.6-2,4.1-3.9c0.1-0.2,0.3-0.5,0.5-0.7c0.2-0.3,0.4-0.4,0.6-0.3c0.3,0.1,0.5,0.3,0.5,0.7
				C396,816.8,395.9,817.1,395.8,817.4z M385.9,796.1c0-1.4-0.8-2.5-2.3-3.3c-1.3-0.7-2.9-1-4.7-1c-3.4,0-6.2,1.5-8.4,4.4
				c-2.1,2.7-3.1,6-3.1,9.8c0,2.2,0.5,4.5,1.6,6.7c0.9,1.9,2.1,3.5,3.4,4.8c1.6-2.4,2.9-4.3,3.8-5.7c1.5-2.2,2.7-4,3.7-5.4
				c1.3-1.9,2.6-3.7,4-5.6C385.3,798.7,385.9,797.2,385.9,796.1z"/>
			<path class="st4" d="M428.4,793.4c0,1.6-0.2,3.2-0.7,5c-0.4,1.4-0.9,3.1-1.8,5c-0.6,1.4-1.3,2.9-2.2,4.7
				c-0.9,1.8-1.8,3.6-2.8,5.5c-0.4,0.8-1.4,2.6-2.9,5.3c-1,1.8-1.9,3.5-2.9,5.3c-0.3,0.6-0.5,1.1-0.8,1.7c-0.1,0.2-0.3,0.3-0.5,0.3
				c-0.2,0-0.3-0.1-0.5-0.3c-0.3-0.4-0.6-0.9-0.9-1.5c-0.6-1.3-1.4-2.6-2.2-4c-0.9-1.6-1.6-2.8-1.9-3.4c-0.7-1.3-1.5-3.2-2.6-5.6
				c-1-2.2-1.8-4.6-2.5-7.1c-0.5-1.8-1-3.8-1.4-6.1c-0.3-1.6-0.6-3-0.7-4.2c0-0.5-0.4-0.9-1.1-1.4c-0.5-0.4-1-0.8-1.5-1.2
				c-0.2-0.2-0.3-0.3-0.3-0.5c0-0.2,0.2-0.3,0.6-0.3c0.3,0,0.9,0,1.9,0.1c1,0.1,1.9,0.1,2.5,0.1c0.7,0,1.6,0,2.6-0.1
				c1-0.1,1.7-0.1,1.9-0.1c0.3,0,0.5,0.1,0.5,0.4c0,0.2-0.1,0.3-0.2,0.5c-0.6,0.5-1.1,0.8-1.4,1.1c-0.6,0.5-0.8,1-0.8,1.6
				c0.2,2.4,0.5,4.6,1,6.7c0.5,2.6,1.3,5.1,2.3,7.6c1.1,2.8,2,5,2.8,6.6c0.6,1.3,1.6,2.9,3,5.1c1-1.9,2-4.1,3.1-6.4
				c1.3-2.6,2.3-5,3.2-7c1.1-2.5,2-4.8,2.6-6.7c0.8-2.5,1.2-4.7,1.2-6.5c0-0.9-0.2-1.7-0.7-2.5c-0.6-0.9-1.3-1.4-2.2-1.4
				c-0.2,0-0.3,0-0.4,0c-0.8,0.1-1.4,0.5-1.7,1.3c-0.1,0.2-0.1,0.3-0.1,0.5c0,0.2,0,0.3,0,0.4c0,0.2,0,0.4,0,0.5
				c0,0.4,0,0.6-0.3,0.6c-0.1,0-0.2,0-0.4-0.1c-0.4-0.2-0.7-0.5-1-1c-0.4-0.6-0.6-1.3-0.6-1.9c0-1.1,0.4-2,1.3-2.8
				c0.8-0.8,1.8-1.2,2.9-1.2c2.1,0,3.7,0.8,4.9,2.4C427.9,789.7,428.4,791.5,428.4,793.4z"/>
			<path class="st4" d="M467.8,817.4c-0.6,2-2.1,4-4.5,5.7c-2.8,2.1-5.8,3.1-9.1,3.1c-2.1,0-4-0.2-5.6-0.7c-1.9-0.5-3.7-1.4-5.3-2.7
				c-0.7,0.8-1.3,1.8-1.8,2.7c-0.7,1.2-1,2.1-1,2.7c0,0.7,0.2,1.1,0.5,1.4c0.2,0.2,0.6,0.3,1.2,0.3c0.2,0,0.3,0,0.5-0.1
				c0.1,0,0.3-0.1,0.4-0.1c0.1,0,0.2,0,0.3,0c0.2,0.1,0.2,0.3,0.1,0.6c-0.1,0.6-0.4,1.1-0.9,1.6c-0.6,0.6-1.2,0.9-2,0.9
				c-0.8,0-1.5-0.3-2-0.9c-0.5-0.6-0.8-1.4-0.8-2.3c0-0.8,0.3-1.7,0.8-2.8c0.1-0.3,1.2-2,3.1-5.1c-1.8-1.8-3.1-3.8-4.1-5.9
				c-1.1-2.4-1.6-4.9-1.6-7.7c0-5,1.6-9.4,4.9-13.1c3.3-3.7,7.4-5.5,12.2-5.5c1.9,0,3.9,0.5,6,1.4c1.1,0.6,2.3,1.1,3.4,1.6
				c0.2,0.1,0.5,0.2,0.9,0.2c0.4,0,0.8,0.1,1.2,0.1l1.1-0.1c0.3,0,0.4,0.1,0.4,0.3c0,0.2-0.1,0.3-0.3,0.4c-0.4,0.2-0.8,0.6-1.3,1
				c-0.6,0.5-1.2,1.1-1.6,1.6c-2.3,2.6-5,6-8.1,10.2c-3.1,4.2-6,8.4-8.7,12.7c1.4,1,2.9,1.8,4.3,2.3c1.7,0.6,3.5,1,5.4,1
				c2.6,0,4.7-0.5,6.4-1.5c1.2-0.7,2.6-2,4.1-3.9c0.1-0.2,0.3-0.5,0.5-0.7c0.2-0.3,0.4-0.4,0.6-0.3c0.3,0.1,0.5,0.3,0.5,0.7
				C468,816.8,467.9,817.1,467.8,817.4z M458,796.1c0-1.4-0.8-2.5-2.3-3.3c-1.3-0.7-2.9-1-4.7-1c-3.4,0-6.2,1.5-8.4,4.4
				c-2.1,2.7-3.1,6-3.1,9.8c0,2.2,0.5,4.5,1.6,6.7c0.9,1.9,2.1,3.5,3.4,4.8c1.6-2.4,2.9-4.3,3.8-5.7c1.5-2.2,2.7-4,3.7-5.4
				c1.3-1.9,2.6-3.7,4-5.6C457.3,798.7,458,797.2,458,796.1z"/>
			<path class="st4" d="M497.6,794.7c0,1.4-0.4,2.5-1.1,3.4c-0.7,0.9-1.7,1.3-3,1.3c-0.9,0-1.7-0.1-2.3-0.4s-1.1-0.6-1.2-1
				c-0.1-0.1-0.1-0.2,0-0.3c0-0.1,0.2-0.2,0.3-0.2c0.4,0,0.8-0.1,1.2-0.2c0.4-0.1,0.7-0.3,1-0.6c0.4-0.5,0.6-1,0.6-1.7
				c0-0.8-0.3-1.4-0.9-1.9c-0.7-0.6-1.8-0.8-3.1-0.8c-1.7,0-3.4,0.8-5,2.3c-1.5,1.3-2.6,3-3.4,4.9v22.1c0,0.4,0.3,0.9,0.8,1.3
				c0.5,0.4,0.9,0.8,1.4,1.1c0.2,0.2,0.4,0.5,0.4,0.7c0,0.3-0.3,0.4-0.8,0.4c-0.4,0-0.8,0-1.1,0c-1.5-0.1-2.5-0.2-3-0.2
				c-0.9,0-1.6,0-2.2,0.1c-0.5,0-1.2,0.1-1.9,0.1c-0.5,0-0.8-0.1-0.8-0.4c0-0.2,0.1-0.5,0.4-0.8c0.4-0.4,0.8-0.6,1-0.8
				c0.7-0.6,1.1-1.1,1.1-1.6v-21.3c0-1.7-0.4-3-1.3-4.1c-0.6-0.7-1.9-1.5-3.9-2.4c-0.1,0-0.1-0.1-0.1-0.2c0-0.1,0-0.3,0.1-0.4
				l1.7-1.6c0.3-0.3,0.6-0.6,0.8-0.9c0.1-0.1,0.2-0.3,0.5-0.6c0.1-0.2,0.3-0.3,0.5-0.3c0.1,0,0.2,0,0.3,0.1c1.3,0.9,2.3,1.7,3,2.4
				c1.4,1.5,2.3,3,2.5,4.5c0.9-2,2.2-3.7,4-5c2-1.6,4.3-2.3,6.8-2.3c2.1,0,3.8,0.5,5,1.5C497,792,497.6,793.2,497.6,794.7z"/>
		</g>
		<g>
			<g>
				<path class="st4" d="M731.8,734c0,3.6-0.6,7-1.9,10.2c-1.2,3.3-3.1,6.3-5.6,9c0.1,0,0.2,0,0.4,0c0.2,0,0.4,0,0.7,0
					c0.7,0,1.4,0,2.1-0.1c0.6-0.1,1.3-0.3,1.9-0.7c0.6-0.5,1-0.8,1.2-0.9c0.2-0.1,0.3-0.2,0.4-0.2c0.2,0,0.3,0.2,0.3,0.5
					c-0.1,0.5-0.1,1-0.2,1.4c-0.1,0.5-0.1,0.8-0.1,1c0,0.5,0,1,0.1,1.5c0.1,0.6,0.1,0.9,0.1,1c0,0.4-0.1,0.5-0.3,0.5
					c-0.1,0-0.2-0.1-0.4-0.2c-0.5-0.4-1-0.7-1.5-0.8c-0.5-0.2-1-0.3-1.5-0.4c-0.5-0.1-1.3-0.1-2.3-0.1c-0.7,0-1.2,0-1.7,0
					c-0.4,0-1,0.1-1.6,0.1c-0.3,0-0.5,0-0.7,0c-0.2,0-0.4,0-0.5-0.1c-0.1-0.1-0.1-0.3-0.1-0.5s0.2-0.3,0.3-0.5c1.3-2,2.3-3.7,3-5
					c1.1-2.1,2-4,2.5-5.8c0.7-2.2,1-4.4,1-6.7c0-3.7-0.8-6.8-2.5-9.2c-1.8-2.5-4.1-3.7-7.1-3.7c-2,0-3.8,0.6-5.4,1.8
					c-1.4,1-2.6,2.4-3.6,4.1v22.2c0,0.4,0.3,0.8,0.8,1.3c0.4,0.4,0.9,0.7,1.3,1.1c0.3,0.3,0.4,0.5,0.4,0.7c0,0.3-0.3,0.4-0.8,0.4
					c-0.4,0-0.8,0-1.1,0c-1.5-0.1-2.5-0.2-3-0.2c-0.9,0-1.6,0-2.1,0.1c-0.5,0-1.2,0.1-1.9,0.1c-0.6,0-0.9-0.1-0.9-0.4
					c0-0.1,0.1-0.4,0.4-0.7c0.6-0.5,1-0.9,1.3-1.1c0.6-0.5,0.8-0.9,0.8-1.3V714c0-0.7,0-1.2-0.1-1.7s-0.3-0.6-0.9-0.5
					c-0.3,0-0.7,0.3-1.3,0.7c-0.6,0.4-1,0.7-1.3,0.7c-0.4,0.1-0.5,0-0.5-0.4c0-0.1,0.1-0.3,0.2-0.5c0.1-0.2,0.8-0.9,2-2
					c0.9-0.9,1.7-1.7,2.2-2.2c0.8-0.8,1.7-1.8,2.7-2.9c0.7-0.8,1.1-1.3,1.3-1.4c0,0,0.1-0.1,0.2-0.1c0.1,0,0.1,0,0.2,0
					c0.2,0,0.3,0.2,0.3,0.6c-0.1,0.8-0.2,1.7-0.3,2.9s-0.1,2.4-0.1,3.6v16.6c1.1-1.7,2.2-3.1,3.6-4.3c2.1-1.7,4.3-2.6,6.6-2.6
					c4.3,0,7.7,1.6,10,4.9C730.9,727.9,731.8,730.8,731.8,734z"/>
				<path class="st4" d="M772.8,748.5c-0.6,2-2.1,4-4.5,5.7c-2.8,2.1-5.8,3.1-9.1,3.1c-2.1,0-4-0.2-5.6-0.7
					c-1.9-0.5-3.7-1.4-5.3-2.7c-0.7,0.8-1.3,1.8-1.8,2.7c-0.7,1.2-1,2.1-1,2.7c0,0.7,0.2,1.1,0.5,1.4c0.2,0.2,0.6,0.3,1.2,0.3
					c0.2,0,0.3,0,0.5-0.1c0.1,0,0.3-0.1,0.4-0.1c0.1,0,0.2,0,0.3,0c0.2,0.1,0.2,0.3,0.1,0.6c-0.1,0.6-0.4,1.1-0.9,1.6
					c-0.6,0.6-1.2,0.9-2,0.9c-0.8,0-1.5-0.3-2-0.9c-0.5-0.6-0.8-1.4-0.8-2.3c0-0.8,0.3-1.7,0.8-2.8c0.1-0.3,1.2-2,3.1-5.1
					c-1.8-1.8-3.1-3.8-4.1-5.9c-1.1-2.4-1.6-4.9-1.6-7.7c0-5,1.6-9.4,4.9-13.1c3.3-3.7,7.4-5.5,12.2-5.5c1.9,0,3.9,0.5,6,1.4
					c1.1,0.6,2.3,1.1,3.4,1.6c0.2,0.1,0.5,0.2,0.9,0.2c0.4,0,0.8,0.1,1.2,0.1l1.1-0.1c0.3,0,0.4,0.1,0.4,0.3c0,0.2-0.1,0.3-0.3,0.4
					c-0.4,0.2-0.8,0.6-1.3,1c-0.6,0.5-1.2,1.1-1.6,1.6c-2.3,2.6-5,6-8.1,10.2c-3.1,4.2-6,8.4-8.7,12.7c1.4,1,2.9,1.8,4.3,2.3
					c1.7,0.6,3.5,1,5.4,1c2.6,0,4.7-0.5,6.4-1.5c1.2-0.7,2.6-2,4.1-3.9c0.1-0.2,0.3-0.5,0.5-0.7c0.2-0.3,0.4-0.4,0.6-0.3
					c0.3,0.1,0.5,0.3,0.5,0.7C773,747.8,772.9,748.1,772.8,748.5z M762.9,727.2c0-1.4-0.8-2.5-2.3-3.3c-1.3-0.7-2.9-1-4.7-1
					c-3.4,0-6.2,1.5-8.4,4.4c-2.1,2.7-3.1,6-3.1,9.8c0,2.2,0.5,4.5,1.6,6.7c0.9,1.9,2.1,3.5,3.4,4.8c1.6-2.4,2.9-4.3,3.8-5.7
					c1.5-2.2,2.7-4,3.7-5.4c1.3-1.9,2.6-3.7,4-5.6C762.3,729.8,762.9,728.2,762.9,727.2z"/>
				<path class="st4" d="M809.3,755.2c0.2,0.3,0.3,0.5,0.3,0.6c0,0.2-0.2,0.4-0.5,0.4c-0.1,0-0.5,0-1.2-0.1c-0.7-0.1-1.4-0.1-2-0.1
					c-0.4,0-0.9,0-1.4,0.1c-0.5,0.1-0.8,0.1-0.9,0.1c-0.6,0-0.8-0.1-0.8-0.4c0-0.1,0.1-0.2,0.2-0.4c0.2-0.3,0.4-0.6,0.5-1
					c0.1-0.3,0.2-0.7,0.2-1.2l-0.2-3.5c-0.9,2-2.5,3.7-4.7,5.2c-2.4,1.6-4.9,2.4-7.5,2.4c-3.7,0-6.8-1.1-9.4-3.3c-2.7-2.3-4-5.3-4-9
					c0-3.7,1.5-6.8,4.4-9.3c2.8-2.4,6.2-3.6,10.1-3.6c1.9,0,3.7,0.4,5.5,1.1c1.7,0.7,3.1,1.6,4,2.7c0-1.1-0.6-2.6-1.8-4.7
					c-1.4-2.5-3.1-4.5-5.1-6.1c-2.5-2-5-3-7.6-3c-1.6,0-3,0.3-4.1,1c-1.3,0.8-2,1.8-2,3.2c0,0.8,0.2,1.4,0.6,1.9
					c0.4,0.5,0.9,0.8,1.6,0.8c0.5,0,0.9-0.2,1.3-0.5s0.5-0.7,0.5-1.1c0-0.3,0-0.6-0.1-0.9c-0.1-0.3-0.2-0.6-0.2-0.8
					c-0.1-0.2-0.1-0.3,0-0.3c0,0,0.2,0,0.5,0c0.7,0.1,1.3,0.4,1.8,0.9c0.6,0.6,0.8,1.2,0.8,1.9c0,1.1-0.5,2.1-1.4,2.8
					c-0.9,0.8-1.9,1.1-3.1,1.1c-1.4,0-2.5-0.5-3.5-1.4c-0.9-0.9-1.4-2.2-1.4-3.8c0-2.1,1.1-3.7,3.3-4.8c1.9-1,4.2-1.5,7-1.5
					c2.7,0,5.3,0.8,7.9,2.5s4.7,4,6.3,6.9c1.1,2,2,4.6,2.7,7.6c0.4,1.9,0.8,4.6,1.2,7.9c0.4,3.4,0.7,5.7,1,6.9
					c0.1,0.6,0.3,1.2,0.7,1.8C809,754.7,809.2,755,809.3,755.2z M803.2,743.6c0-2.7-1-4.9-3-6.5s-4.6-2.4-7.9-2.4
					c-2.6,0-5,0.9-6.9,2.6c-2,1.7-3,3.9-3,6.4c0,2.7,1,5,3,6.9c2,1.9,4.4,2.8,7.2,2.8c3.2,0,5.8-0.9,7.7-2.7
					S803.2,746.5,803.2,743.6z"/>
				<path class="st4" d="M841.7,725.7c0,1.4-0.4,2.5-1.1,3.4c-0.7,0.9-1.7,1.3-3,1.3c-0.9,0-1.7-0.1-2.3-0.4c-0.6-0.2-1.1-0.6-1.2-1
					c-0.1-0.1-0.1-0.2,0-0.3s0.2-0.2,0.3-0.2c0.4,0,0.8-0.1,1.2-0.2c0.4-0.1,0.7-0.3,1-0.6c0.4-0.5,0.6-1,0.6-1.7
					c0-0.8-0.3-1.4-0.9-1.9c-0.7-0.6-1.8-0.8-3.1-0.8c-1.7,0-3.4,0.8-5,2.3c-1.5,1.3-2.6,3-3.4,4.9v22.1c0,0.4,0.3,0.9,0.8,1.3
					c0.5,0.4,0.9,0.8,1.4,1.1c0.2,0.2,0.4,0.5,0.4,0.7c0,0.3-0.3,0.4-0.8,0.4c-0.4,0-0.8,0-1.1,0c-1.5-0.1-2.5-0.2-3-0.2
					c-0.9,0-1.6,0-2.2,0.1s-1.2,0.1-1.9,0.1c-0.5,0-0.8-0.1-0.8-0.4c0-0.2,0.1-0.5,0.4-0.8c0.4-0.4,0.8-0.6,1-0.8
					c0.7-0.6,1.1-1.1,1.1-1.6v-21.3c0-1.7-0.4-3-1.3-4.1c-0.6-0.7-1.9-1.5-3.9-2.4c-0.1,0-0.1-0.1-0.1-0.2c0-0.1,0-0.3,0.1-0.4
					l1.7-1.6c0.3-0.3,0.6-0.6,0.8-0.9c0.1-0.1,0.2-0.3,0.5-0.6c0.1-0.2,0.3-0.3,0.5-0.3c0.1,0,0.2,0,0.3,0.1c1.3,0.9,2.3,1.7,3,2.4
					c1.4,1.5,2.3,3,2.5,4.5c0.9-2,2.2-3.7,4-5c2-1.6,4.3-2.3,6.8-2.3c2.1,0,3.8,0.5,5,1.5C841.1,723,841.7,724.3,841.7,725.7z"/>
				<path class="st4" d="M859.8,723.4c0,0.4-0.2,0.6-0.5,0.6c-0.1,0-0.7,0-1.8-0.1s-2.1-0.1-3-0.1v23.9c0,1.7,0.5,3.2,1.4,4.4
					c0.3,0.3,1,1,2.1,1.9c0.2,0.1,0.3,0.3,0.3,0.5c0,0.1-0.1,0.2-0.3,0.4c-0.2,0.1-0.4,0.3-0.6,0.4c-0.3,0.2-0.6,0.4-0.7,0.6
					c-0.7,0.6-1.1,1-1.3,1.3c-0.2,0.2-0.4,0.3-0.6,0.3c-0.2,0-0.3,0-0.5-0.1c-1-0.6-1.9-1.6-2.7-3c-1.1-1.9-1.7-4.3-1.7-7v-23.5
					c-0.8,0-1.5,0-2.2,0.1c-0.7,0-1.4,0.1-2.1,0.1c-0.3,0-0.5-0.2-0.5-0.6v-1.2c0-0.4,0.2-0.6,0.6-0.6c0.1,0,0.6,0,1.6,0.1
					c0.9,0,1.8,0.1,2.6,0.1V719c0-1.4-0.3-2.2-0.9-2.3c-0.4,0-0.7-0.1-0.8-0.1c-0.3,0-0.5-0.2-0.5-0.5c0-0.1,0.1-0.3,0.2-0.4
					c0.5-0.5,1.1-0.9,1.6-1.5c0.6-0.5,1.2-1.1,1.8-1.8c0.8-0.8,1.4-1.5,1.8-2c0.4-0.5,0.8-1,1.2-1.5c0.1-0.1,0.2-0.2,0.3-0.2
					c0.2,0,0.3,0.2,0.3,0.5c-0.1,0.6-0.1,1.2-0.2,1.9c-0.1,1.5-0.2,3.1-0.2,4.7v6c0.8,0,1.6,0,2.3,0c0.8,0,1.6-0.1,2.4-0.1
					c0.3,0,0.5,0.2,0.5,0.5V723.4z"/>
			</g>
		</g>
	</g>
</g>
</svg>
