<?xml version="1.0" encoding="utf-8"?>
<!-- Generator: Adobe Illustrator 14.0.0, SVG Export Plug-In . SVG Version: 6.00 Build 43363)  -->
<!DOCTYPE svg PUBLIC "-//W3C//DTD SVG 1.1//EN" "http://www.w3.org/Graphics/SVG/1.1/DTD/svg11.dtd">
<svg version="1.1" id="Layer_1" xmlns="http://www.w3.org/2000/svg" xmlns:xlink="http://www.w3.org/1999/xlink" x="0px" y="0px"
	 width="1296px" height="864px" viewBox="0 0 1296 864" enable-background="new 0 0 1296 864" xml:space="preserve">
<rect id="photo" x="452" fill="#DFDAC3" width="844" height="864"/>
<rect id="fill_x5F_rect" fill="#83A238" width="452.5" height="864"/>
<g id="fill_x5F_loves">
	<g>
		<path fill="#FFFFFF" d="M54.811,440.033c-1.713,7.711-2.784,15.207-2.784,21.633c0,11.138,3.213,16.492,9.424,16.492
			c11.352,0,23.346-17.563,30.843-34.27l3.213,1.713c-11.352,24.418-24.846,39.411-40.267,39.411
			c-12.209,0-17.135-9.425-17.135-22.062c0-41.124,52.048-138.579,66.612-138.579c4.498,0,7.068,9.853,7.068,15.85
			C111.785,359.284,86.083,414.116,54.811,440.033z M56.739,432.751c24.846-25.06,48.407-73.252,48.407-87.603
			c0-2.784-0.857-3.427-1.5-3.427C97.863,341.721,68.519,391.413,56.739,432.751z"/>
		<path fill="#FFFFFF" d="M181.824,446.459c-6.211,14.351-14.351,18.42-21.419,18.42c-7.925,0-15.85-5.141-20.133-14.993
			c-8.996,20.99-22.49,35.556-37.483,35.556c-10.924,0-17.135-7.711-17.135-18.635c0-22.704,26.345-63.614,51.833-63.614
			c5.355,0,7.925,1.928,9.21,4.498c0.429-0.214,0.857-0.214,1.5-0.214c5.354,0,7.282,5.783,7.282,8.354
			c0,5.354-8.353,15.636-8.353,26.987c0,10.924,7.497,17.777,14.993,17.777c5.997,0,11.352-4.497,16.92-16.278L181.824,446.459z
			 M138.129,443.246c-0.857-3.427-1.285-7.282-1.285-12.209c0-9.638,1.713-15.85,4.07-19.491c-24.204,0-41.553,37.483-41.553,53.761
			c0,6.64,2.999,10.923,8.139,10.923C117.139,476.23,130.418,461.666,138.129,443.246z"/>
		<path fill="#FFFFFF" d="M268.997,446.887c-6.211,14.351-14.351,17.992-21.205,17.992c-9.424,0-16.064-6.854-17.992-20.776
			c-10.495,20.776-27.202,42.838-40.91,42.838c-8.996,0-11.78-9.639-11.78-23.561c0-0.429,0.214-8.14,1.285-28.059
			c0.428-7.711,0.643-10.067,6.854-10.067c4.926,0,5.569,1.499,5.569,6.854c0,9.424-1.928,23.347-1.928,34.484
			c0,8.353,1.071,11.994,4.926,11.994c10.495,0,26.345-26.987,35.341-46.907c0.643-19.277,4.498-24.203,9.853-24.203
			c5.355,0,7.711,5.141,7.711,8.139c0,5.569-7.497,9.639-7.497,28.701c0,7.068,1.071,16.278,10.067,16.278
			c5.997,0,11.352-4.069,16.921-15.85L268.997,446.887z"/>
		<path fill="#FFFFFF" d="M273.92,456.098c-0.643,2.784-0.857,5.568-0.857,7.71c0,8.782,3.641,17.992,16.921,17.992
			c18.206,0,37.269-17.35,47.978-37.911l2.57,1.928c-11.566,25.702-33.842,42.194-55.046,42.194
			c-17.349,0-26.131-10.923-26.131-24.846c0-25.488,29.129-61.686,54.404-61.686c6.64,0,13.279,2.57,13.279,13.065
			C327.038,436.393,298.337,453.741,273.92,456.098z M274.991,452.027c15.208-5.354,42.624-20.562,42.624-38.982
			c0-3.213-0.857-4.926-4.498-4.926C299.408,408.119,280.774,431.68,274.991,452.027z"/>
		<path fill="#FFFFFF" d="M343.316,442.175c8.567-9.424,15.85-19.705,21.205-31.057v-2.57c0-10.495,4.284-14.564,8.354-14.564
			c2.356,0,3.427,1.285,3.427,2.784c0,1.5-1.285,4.498-1.285,9.424c0,14.137,11.138,31.914,11.138,51.619
			c0,3.855-0.428,7.282-1.285,10.495c9.853-1.713,18.634-8.139,26.988-24.203l1.928,2.142
			c-5.354,15.636-17.135,23.562-29.986,25.488c-4.498,12.209-15.208,17.778-27.416,17.778c-20.134,0-26.773-15.208-26.773-28.059
			C329.608,444.531,340.96,444.745,343.316,442.175z M370.304,471.519c-11.995-2.355-21.847-10.495-26.345-17.777
			c-3.427,0.214-4.712,2.999-4.712,7.496c0,10.281,6.425,20.776,17.563,20.776C360.237,482.014,367.091,480.943,370.304,471.519z
			 M365.591,419.257c-6.64,10.924-14.351,21.419-20.776,27.845c4.284,9.21,13.494,18.206,26.559,20.99
			c0.428-2.784,0.857-5.783,0.857-10.066C372.231,444.531,367.733,431.037,365.591,419.257z"/>
	</g>
</g>
<text transform="matrix(1 0 0 1 -1439.2363 269.292)" font-family="'JosefinSans-Light'" font-size="141.2945">All of me</text>
<text transform="matrix(1 0 0 1 -1443.1904 693.9023)" font-family="'JosefinSans-Light'" font-size="141.2945">all of you</text>
<text transform="matrix(1 0 0 1 -1461.5112 512.3916)" font-family="'DancingScriptOT'" font-size="306.547">loves</text>
<g id="fill_x5F_text">
	<g>
		<path fill="#DFDAC3" d="M97.084,146.03c0-3.956,0.753-7.676,2.261-11.162c1.506-3.484,3.533-6.521,6.076-9.113
			c2.543-2.59,5.533-4.639,8.972-6.146c3.438-1.506,7.136-2.261,11.092-2.261c2.826,0,5.511,0.402,8.054,1.201
			c2.543,0.801,4.851,1.907,6.923,3.32c2.071,1.413,3.886,3.038,5.44,4.875s2.755,3.793,3.603,5.864
			c0-2.354,0.046-4.709,0.142-7.064c0.092-2.354,0.234-4.663,0.424-6.924h4.239V173.3h-4.804v-13.988
			c-1.603,4.146-4.521,7.679-8.76,10.597c-4.239,2.921-9.325,4.38-15.26,4.38c-4.051,0-7.795-0.755-11.233-2.261
			c-3.439-1.506-6.429-3.533-8.972-6.076c-2.543-2.543-4.546-5.533-6.005-8.972C97.813,153.543,97.084,149.894,97.084,146.03z
			 M101.889,145.889c0,3.298,0.612,6.382,1.837,9.255c1.223,2.875,2.896,5.369,5.016,7.488c2.119,2.12,4.638,3.793,7.559,5.016
			c2.918,1.226,6.027,1.837,9.325,1.837c3.296,0,6.405-0.611,9.326-1.837c2.918-1.223,5.462-2.896,7.63-5.016
			c2.166-2.119,3.861-4.614,5.086-7.488c1.223-2.873,1.837-5.957,1.837-9.255c0-3.296-0.614-6.405-1.837-9.326
			c-1.225-2.918-2.92-5.439-5.086-7.559c-2.168-2.119-4.711-3.791-7.63-5.016c-2.921-1.223-6.029-1.836-9.326-1.836
			c-3.298,0-6.407,0.614-9.325,1.836c-2.921,1.226-5.44,2.897-7.559,5.016c-2.12,2.12-3.793,4.641-5.016,7.559
			C102.5,139.484,101.889,142.593,101.889,145.889z"/>
		<path fill="#DFDAC3" d="M179.6,173.3h-4.945V66.199h4.945V173.3z"/>
		<path fill="#DFDAC3" d="M205.456,173.3h-4.945V66.199h4.945V173.3z"/>
		<path fill="#DFDAC3" d="M257.17,145.889c0-3.956,0.753-7.676,2.261-11.162c1.505-3.484,3.554-6.522,6.146-9.114
			c2.59-2.589,5.628-4.638,9.114-6.146c3.484-1.506,7.206-2.261,11.162-2.261c3.957,0,7.676,0.755,11.163,2.261
			c3.483,1.508,6.521,3.557,9.113,6.146c2.59,2.592,4.638,5.63,6.146,9.114c1.505,3.486,2.261,7.206,2.261,11.162
			s-0.755,7.654-2.261,11.092c-1.508,3.439-3.557,6.429-6.146,8.972c-2.592,2.543-5.63,4.57-9.113,6.076
			c-3.486,1.505-7.255,2.261-11.304,2.261c-3.957,0-7.679-0.731-11.162-2.19c-3.486-1.459-6.5-3.461-9.043-6.005
			c-2.543-2.543-4.57-5.533-6.076-8.972C257.923,153.685,257.17,149.94,257.17,145.889z M262.115,145.889
			c0,3.298,0.611,6.382,1.837,9.255c1.223,2.875,2.896,5.369,5.016,7.488c2.12,2.12,4.614,3.793,7.489,5.016
			c2.872,1.226,5.957,1.837,9.255,1.837c3.296,0,6.38-0.611,9.255-1.837c2.872-1.223,5.391-2.896,7.559-5.016
			c2.166-2.119,3.861-4.614,5.086-7.488c1.223-2.873,1.837-5.957,1.837-9.255c0-3.296-0.614-6.38-1.837-9.255
			c-1.225-2.872-2.92-5.391-5.086-7.559c-2.168-2.166-4.687-3.861-7.559-5.087c-2.875-1.223-5.959-1.836-9.255-1.836
			c-3.298,0-6.383,0.614-9.255,1.836c-2.875,1.226-5.369,2.921-7.489,5.087c-2.119,2.168-3.792,4.687-5.016,7.559
			C262.727,139.509,262.115,142.593,262.115,145.889z"/>
		<path fill="#DFDAC3" d="M322.73,123.706v-4.804h9.325v-18.651c0-5.462,0.707-10.29,2.12-14.482
			c1.413-4.19,3.391-7.723,5.934-10.597c2.543-2.873,5.533-5.038,8.972-6.5c3.438-1.459,7.182-2.283,11.233-2.473v4.804
			c-3.391,0-6.5,0.685-9.325,2.049c-2.826,1.367-5.276,3.298-7.347,5.793c-2.073,2.497-3.698,5.511-4.875,9.043
			C337.588,91.42,337,95.401,337,99.827v19.075h18.368v4.804H337V173.3h-4.945v-49.594H322.73z"/>
	</g>
	<g>
		<path fill="#DFDAC3" d="M97.084,610.095c0-3.957,0.753-7.677,2.261-11.162c1.506-3.484,3.533-6.522,6.076-9.114
			c2.543-2.59,5.533-4.638,8.972-6.146c3.438-1.505,7.136-2.26,11.092-2.26c2.826,0,5.511,0.401,8.054,1.2
			c2.543,0.802,4.851,1.908,6.923,3.32c2.071,1.413,3.886,3.038,5.44,4.875s2.755,3.793,3.603,5.864c0-2.354,0.046-4.71,0.142-7.065
			c0.092-2.354,0.234-4.662,0.424-6.923h4.239v54.681h-4.804v-13.988c-1.603,4.146-4.521,7.679-8.76,10.598
			c-4.239,2.92-9.325,4.38-15.26,4.38c-4.051,0-7.795-0.755-11.233-2.261c-3.439-1.506-6.429-3.532-8.972-6.076
			c-2.543-2.543-4.546-5.532-6.005-8.972C97.813,617.607,97.084,613.958,97.084,610.095z M101.889,609.953
			c0,3.298,0.612,6.383,1.837,9.255c1.223,2.874,2.896,5.369,5.016,7.488c2.119,2.12,4.638,3.793,7.559,5.017
			c2.918,1.225,6.027,1.836,9.325,1.836c3.296,0,6.405-0.611,9.326-1.836c2.918-1.224,5.462-2.896,7.63-5.017
			c2.166-2.119,3.861-4.614,5.086-7.488c1.223-2.872,1.837-5.957,1.837-9.255c0-3.296-0.614-6.404-1.837-9.325
			c-1.225-2.919-2.92-5.44-5.086-7.56c-2.168-2.119-4.711-3.791-7.63-5.016c-2.921-1.224-6.029-1.837-9.326-1.837
			c-3.298,0-6.407,0.613-9.325,1.837c-2.921,1.225-5.44,2.896-7.559,5.016c-2.12,2.119-3.793,4.641-5.016,7.56
			C102.5,603.549,101.889,606.657,101.889,609.953z"/>
		<path fill="#DFDAC3" d="M179.6,637.364h-4.945V530.263h4.945V637.364z"/>
		<path fill="#DFDAC3" d="M205.456,637.364h-4.945V530.263h4.945V637.364z"/>
		<path fill="#DFDAC3" d="M257.17,609.953c0-3.956,0.753-7.677,2.261-11.162c1.505-3.484,3.554-6.521,6.146-9.113
			c2.59-2.59,5.628-4.639,9.114-6.146c3.484-1.506,7.206-2.261,11.162-2.261c3.957,0,7.676,0.755,11.163,2.261
			c3.483,1.508,6.521,3.557,9.113,6.146c2.59,2.592,4.638,5.629,6.146,9.113c1.505,3.485,2.261,7.206,2.261,11.162
			s-0.755,7.654-2.261,11.092c-1.508,3.439-3.557,6.429-6.146,8.972c-2.592,2.544-5.63,4.57-9.113,6.076
			c-3.486,1.506-7.255,2.261-11.304,2.261c-3.957,0-7.679-0.73-11.162-2.19c-3.486-1.459-6.5-3.462-9.043-6.005
			c-2.543-2.543-4.57-5.532-6.076-8.972C257.923,617.749,257.17,614.004,257.17,609.953z M262.115,609.953
			c0,3.298,0.611,6.383,1.837,9.255c1.223,2.874,2.896,5.369,5.016,7.488c2.12,2.12,4.614,3.793,7.489,5.017
			c2.872,1.225,5.957,1.836,9.255,1.836c3.296,0,6.38-0.611,9.255-1.836c2.872-1.224,5.391-2.896,7.559-5.017
			c2.166-2.119,3.861-4.614,5.086-7.488c1.223-2.872,1.837-5.957,1.837-9.255c0-3.296-0.614-6.38-1.837-9.255
			c-1.225-2.872-2.92-5.392-5.086-7.56c-2.168-2.165-4.687-3.861-7.559-5.086c-2.875-1.224-5.959-1.837-9.255-1.837
			c-3.298,0-6.383,0.613-9.255,1.837c-2.875,1.225-5.369,2.921-7.489,5.086c-2.119,2.168-3.792,4.688-5.016,7.56
			C262.727,603.573,262.115,606.657,262.115,609.953z"/>
		<path fill="#DFDAC3" d="M322.73,587.77v-4.804h9.325v-18.65c0-5.462,0.707-10.291,2.12-14.483
			c1.413-4.19,3.391-7.723,5.934-10.597c2.543-2.872,5.533-5.038,8.972-6.5c3.438-1.459,7.182-2.282,11.233-2.473v4.805
			c-3.391,0-6.5,0.684-9.325,2.049c-2.826,1.366-5.276,3.298-7.347,5.793c-2.073,2.497-3.698,5.51-4.875,9.043
			c-1.179,3.532-1.766,7.513-1.766,11.938v19.075h18.368v4.804H337v49.595h-4.945V587.77H322.73z"/>
	</g>
	<g>
		<path fill="#DFDAC3" d="M135.233,226.583c3.484,5.276,7.348,10.95,11.586,17.026s8.478,12.151,12.716,18.227
			s8.358,11.963,12.363,17.662c4.002,5.701,7.605,10.809,10.809,15.331c1.13-1.601,2.731-3.908,4.804-6.923
			c2.071-3.014,4.451-6.476,7.135-10.385c2.685-3.908,5.581-8.1,8.689-12.575c3.108-4.473,6.239-8.972,9.396-13.494
			c3.155-4.521,6.239-8.924,9.255-13.211c3.014-4.285,5.793-8.171,8.336-11.657V331h-6.076v-81.527c0-0.94,0.022-1.908,0.071-2.896
			c0.046-0.989,0.07-1.908,0.07-2.755c-3.298,4.521-6.806,9.491-10.526,14.907c-3.722,5.417-7.442,10.879-11.162,16.39
			c-3.722,5.51-7.301,10.857-10.738,16.037c-3.44,5.182-6.524,9.798-9.255,13.847c-1.696-2.261-3.793-5.133-6.288-8.619
			c-2.497-3.484-5.135-7.252-7.913-11.304c-2.779-4.049-5.63-8.217-8.548-12.504c-2.921-4.285-5.652-8.312-8.195-12.081
			c-2.543-3.767-4.782-7.135-6.711-10.103c-1.932-2.967-3.369-5.157-4.31-6.57c0,0.848,0.046,1.766,0.141,2.755
			c0.093,0.989,0.141,1.956,0.141,2.896V331h-5.793V226.583z"/>
		<path fill="#DFDAC3" d="M261.69,331v-99.895h61.181v5.369h-55.246v41.541h49.594v5.369h-49.594v42.106h57.224V331H261.69z"/>
	</g>
	<g>
		<path fill="#DFDAC3" d="M124.848,768.451v36.03h-5.934v-36.03c-2.451-4.144-5.323-9.019-8.619-14.624
			c-3.298-5.603-6.641-11.374-10.032-17.309s-6.736-11.703-10.032-17.309c-3.298-5.603-6.17-10.478-8.619-14.624h6.641
			c2.261,3.77,4.733,7.912,7.418,12.434s5.416,9.185,8.195,13.988c2.777,4.805,5.557,9.633,8.336,14.483
			c2.777,4.853,5.439,9.491,7.983,13.917l1.837,3.957l1.554-3.957c2.543-4.426,5.228-9.064,8.054-13.917
			c2.826-4.851,5.604-9.679,8.336-14.483c2.731-4.804,5.416-9.467,8.054-13.988c2.636-4.521,5.087-8.664,7.348-12.434h6.641
			L124.848,768.451z"/>
		<path fill="#DFDAC3" d="M167.096,754.604c0-7.065,1.342-13.681,4.027-19.853c2.685-6.168,6.31-11.586,10.88-16.248
			c4.568-4.663,9.937-8.336,16.107-11.021c6.168-2.684,12.787-4.026,19.852-4.026c7.064,0,13.706,1.343,19.922,4.026
			c6.217,2.686,11.657,6.358,16.319,11.021c4.663,4.662,8.336,10.08,11.021,16.248c2.685,6.172,4.027,12.787,4.027,19.853
			s-1.342,13.684-4.027,19.853c-2.685,6.17-6.358,11.563-11.021,16.178c-4.663,4.616-10.103,8.266-16.319,10.95
			s-12.858,4.026-19.922,4.026c-7.065,0-13.684-1.342-19.852-4.026c-6.17-2.685-11.54-6.334-16.107-10.95
			c-4.57-4.614-8.195-10.008-10.88-16.178C168.438,768.288,167.096,761.67,167.096,754.604z M172.889,754.746
			c0,6.217,1.177,12.08,3.533,17.591c2.353,5.511,5.581,10.314,9.678,14.412c4.098,4.098,8.853,7.347,14.271,9.749
			c5.416,2.402,11.233,3.604,17.45,3.604c6.217,0,12.103-1.201,17.662-3.604c5.557-2.402,10.407-5.651,14.553-9.749
			c4.144-4.098,7.418-8.901,9.82-14.412c2.402-5.511,3.603-11.421,3.603-17.732c0-6.217-1.201-12.103-3.603-17.661
			c-2.402-5.558-5.652-10.386-9.749-14.483c-4.098-4.098-8.902-7.347-14.412-9.749c-5.511-2.402-11.375-3.604-17.591-3.604
			s-12.081,1.201-17.591,3.604c-5.51,2.402-10.314,5.676-14.412,9.82c-4.097,4.146-7.325,8.972-9.678,14.482
			C174.065,742.523,172.889,748.436,172.889,754.746z"/>
		<path fill="#DFDAC3" d="M325.063,805.611c-4.804,0-9.279-0.754-13.423-2.26c-4.146-1.506-7.725-3.721-10.738-6.641
			c-3.016-2.92-5.394-6.522-7.135-10.81c-1.744-4.285-2.614-9.16-2.614-14.624v-66.691h5.935v66.268
			c0,4.521,0.707,8.597,2.12,12.222c1.413,3.628,3.342,6.712,5.793,9.255c2.448,2.543,5.391,4.475,8.831,5.793
			c3.437,1.32,7.182,1.979,11.233,1.979c3.956,0,7.652-0.658,11.091-1.979c3.438-1.318,6.405-3.25,8.902-5.793
			c2.495-2.543,4.451-5.627,5.863-9.255c1.413-3.625,2.12-7.7,2.12-12.222v-66.268h5.935v66.691c0,5.464-0.872,10.339-2.614,14.624
			c-1.744,4.287-4.146,7.89-7.206,10.81c-3.062,2.92-6.641,5.135-10.738,6.641S329.866,805.611,325.063,805.611z"/>
	</g>
</g>
<rect x="15.5" y="17.5" fill="none" stroke="#FFFFFF" stroke-width="0.5" width="421.5" height="829"/>
<rect x="468.333" y="17.5" fill="none" stroke="#FFFFFF" stroke-width="0.5" width="812.227" height="829"/>
</svg>
