<?xml version="1.0" encoding="utf-8"?>
<!-- Generator: Adobe Illustrator 14.0.0, SVG Export Plug-In . SVG Version: 6.00 Build 43363)  -->
<!DOCTYPE svg PUBLIC "-//W3C//DTD SVG 1.1//EN" "http://www.w3.org/Graphics/SVG/1.1/DTD/svg11.dtd">
<svg version="1.1" id="Layer_1" xmlns="http://www.w3.org/2000/svg" xmlns:xlink="http://www.w3.org/1999/xlink" x="0px" y="0px"
	 width="864px" height="1296px" viewBox="0 0 864 1296" enable-background="new 0 0 864 1296" xml:space="preserve">
<polygon id="photo1" fill="#D0D2D3" points="259.11,302.867 431.993,130.832 604.041,302.867 431.892,475.485 "/>
<polygon id="photo2" fill="#D0D2D3" points="86.796,475.182 259.679,303.146 431.727,475.182 259.577,647.8 "/>
<polygon id="photo3" fill="#D0D2D3" points="259.116,647.502 431.999,475.467 604.047,647.502 431.897,820.121 "/>
<polygon id="photo4" fill="#D0D2D3" points="432.141,820.613 605.024,648.578 777.071,820.613 604.923,993.232 "/>
<polygon id="photo5" fill="#D0D2D3" points="259.129,992.815 432.013,820.781 604.06,992.815 431.911,1165.435 "/>
<g id="Layer_3">
	<g id="fill-large-squares">
		
			<rect x="629.889" y="242.11" transform="matrix(-0.7071 0.7071 -0.7071 -0.7071 1393.8237 28.939)" fill="#CEF0D8" width="122.058" height="122.058"/>
		
			<rect x="457.272" y="414.456" transform="matrix(-0.7071 0.7071 -0.7071 -0.7071 1221.0146 445.2119)" fill="#CEF0D8" width="122.058" height="122.058"/>
		
			<rect x="198.345" y="845.893" transform="matrix(-0.7071 0.7071 -0.7071 -0.7071 1084.0719 1364.8047)" fill="#CEF0D8" width="122.058" height="122.058"/>
		
			<rect x="543.58" y="1020.011" transform="matrix(-0.7071 0.7071 -0.7071 -0.7071 1796.5419 1417.9281)" fill="#CEF0D8" width="122.057" height="122.057"/>
		
			<rect x="198.351" y="155.799" transform="matrix(-0.7071 0.7071 -0.7071 -0.7071 596.1093 186.7387)" fill="#CEF0D8" width="122.058" height="122.058"/>
	</g>
	<g id="fill-small-squares">
		
			<rect x="574.096" y="229.47" transform="matrix(-0.7071 0.7071 -0.7071 -0.7071 1215.9734 16.3002)" fill="#E7E8B3" width="61.029" height="61.028"/>
		
			<rect x="228.76" y="660.74" transform="matrix(-0.7071 0.7071 -0.7071 -0.7071 931.3969 996.7137)" fill="#E7E8B3" width="61.028" height="61.028"/>
		
			<rect x="185.608" y="272.353" transform="matrix(-0.7071 0.7071 -0.7071 -0.7071 583.1041 364.2047)" fill="#E7E8B3" width="61.029" height="61.028"/>
		
			<rect x="228.859" y="1007.369" transform="matrix(-0.7071 0.7071 -0.7071 -0.7071 1176.6796 1588.3633)" fill="#E7E8B3" width="61.029" height="61.029"/>
		
			<rect x="617.246" y="962.718" transform="matrix(-0.7071 0.7071 -0.7071 -0.7071 1808.1173 1237.5181)" fill="#E7E8B3" width="61.029" height="61.029"/>
		
			<rect x="573.993" y="574.433" transform="matrix(-0.7071 0.7071 -0.7071 -0.7071 1459.7208 605.2584)" fill="#E7E8B3" width="61.028" height="61.029"/>
	</g>
</g>
<g id="Layer_2">
	<g id="fill-lines">
		<g>
			<path fill="#404040" d="M811.926,855.309c0,0-5.485-4.809-17.043-16.364c-11.558-11.558-680.203-680.203-692.74-692.739
				c-13.812-13.812-19.26-19.938-19.26-19.938l0,0c0,0,6.447,5.769,19.938,19.26c12.246,12.247,681.124,681.125,692.739,692.74
				C807.176,849.88,811.926,855.309,811.926,855.309L811.926,855.309z"/>
		</g>
		<g>
			<path fill="#404040" d="M188.796,718.587c0,0,3.586-4.264,12.398-13.076c8.812-8.812,518.655-518.655,528.214-528.214
				c10.531-10.531,15.283-14.605,15.283-14.605l0,0c0,0-4.318,4.996-14.605,15.284c-9.338,9.338-519.357,519.358-528.214,528.213
				C193.016,715.045,188.796,718.587,188.796,718.587L188.796,718.587z"/>
		</g>
		<g>
			<path fill="#404040" d="M709,1097.617c0,0-5.191-4.515-16.087-15.409C682.017,1071.313,51.648,440.944,39.83,429.125
				c-13.021-13.021-18.138-18.816-18.138-18.816l0,0c0,0,6.097,5.419,18.816,18.139c11.545,11.545,642.133,642.133,653.083,653.083
				S709,1097.617,709,1097.617L709,1097.617z"/>
		</g>
		<g>
			<path fill="#404040" d="M797,800.852c0,0-3.008,3.688-10.523,11.201c-7.515,7.517-442.314,442.315-450.467,450.467
				c-8.98,8.981-13.084,12.406-13.084,12.406l0,0c0,0,3.633-4.311,12.406-13.084c7.963-7.964,442.915-442.914,450.467-450.467
				S797,800.852,797,800.852L797,800.852z"/>
		</g>
		<g>
			<path fill="#404040" d="M470.074,1203.926c0,0-2.801-2.122-8.327-7.647c-5.526-5.526-325.262-325.264-331.257-331.259
				c-6.604-6.604-9.033-9.711-9.033-9.711l0,0c0,0,3.26,2.582,9.711,9.033c5.856,5.855,325.703,325.703,331.258,331.257
				C467.979,1201.153,470.074,1203.926,470.074,1203.926L470.074,1203.926z"/>
		</g>
		<g>
			<path fill="#404040" d="M140.309,1112.309c0,0,3.29-3.968,11.438-12.115s479.565-479.566,488.405-488.405
				c9.736-9.737,14.156-13.479,14.156-13.479l0,0c0,0-3.967,4.646-13.479,14.157c-8.634,8.634-480.215,480.216-488.404,488.404
				C144.236,1109.061,140.309,1112.309,140.309,1112.309L140.309,1112.309z"/>
		</g>
		<g>
			<path fill="#404040" d="M773.771,471.92c0,0-3.104-2.427-9.313-8.636S399.006,97.833,392.271,91.098
				c-7.421-7.42-10.191-10.869-10.191-10.869l0,0c0,0,3.621,2.942,10.869,10.191c6.58,6.58,365.945,365.946,372.187,372.188
				C771.376,468.847,773.771,471.92,773.771,471.92L773.771,471.92z"/>
		</g>
		<g>
			<path fill="#404040" d="M63,499.148c0,0,2.841-3.52,9.98-10.659c7.14-7.14,420.211-420.21,427.955-427.955
				c8.532-8.533,12.447-11.769,12.447-11.769l0,0c0,0-3.435,4.112-11.769,12.447c-7.565,7.565-420.78,420.78-427.956,427.955
				C66.483,496.343,63,499.148,63,499.148L63,499.148z"/>
		</g>
	</g>
</g>
</svg>
