<?xml version="1.0" encoding="utf-8"?>
<!-- Generator: Adobe Illustrator 20.1.0, SVG Export Plug-In . SVG Version: 6.00 Build 0)  -->
<svg version="1.1" id="Layer_1" xmlns="http://www.w3.org/2000/svg" xmlns:xlink="http://www.w3.org/1999/xlink" x="0px" y="0px"
	 viewBox="0 0 576 720" style="enable-background:new 0 0 576 720;" xml:space="preserve">
<style type="text/css">
	.st0{fill:#C4C4C4;}
	.st1{fill:#555555;}
	.st2{fill:#D81366;}
	.st3{fill:none;stroke:#FFFFFF;stroke-width:2;stroke-miterlimit:10;}
</style>
<rect id="photo" x="109.5" class="st0" width="356.9" height="720"/>
<g id="fill-never">
	<g>
		<path class="st1" d="M96,649.5H22.3v-23.7c0-5.8,1-10.9,2.9-15.2c1.9-4.3,4.6-7.9,7.9-10.8c3.3-2.9,7.2-5,11.7-6.4
			c4.5-1.4,9.2-2.1,14.3-2.1c5.6,0,10.7,0.8,15.2,2.4c4.5,1.6,8.4,3.9,11.6,6.9c3.2,3,5.7,6.6,7.5,10.9c1.8,4.3,2.6,9.1,2.6,14.3
			V649.5z M59,593.3c-5.1,0-9.7,0.7-13.9,2.1c-4.2,1.4-7.9,3.5-10.9,6.3c-3.1,2.8-5.5,6.2-7.2,10.2c-1.7,4-2.6,8.7-2.6,13.9v21.6
			h69.5v-21.6c0-5.3-0.9-10-2.6-14.1c-1.8-4-4.2-7.4-7.3-10.2c-3.1-2.7-6.8-4.8-11.1-6.2C68.6,594,64,593.3,59,593.3z"/>
		<path class="st1" d="M96.5,546.6c0,5.1-1.1,9.8-3.2,14c-2.1,4.2-4.9,7.8-8.4,10.8c-3.5,3-7.4,5.4-11.9,7.1
			c-4.5,1.7-9.1,2.5-13.8,2.5c-4.9,0-9.6-0.9-14.1-2.6c-4.5-1.8-8.5-4.2-11.9-7.3c-3.5-3.1-6.2-6.7-8.3-10.9
			c-2-4.2-3.1-8.7-3.1-13.5c0-5,1.1-9.7,3.3-13.9c2.2-4.2,5-7.8,8.6-10.8c3.5-3,7.5-5.3,12-7s9-2.5,13.5-2.5c5,0,9.7,0.9,14.2,2.6
			c4.5,1.8,8.5,4.2,11.9,7.3c3.4,3.1,6.2,6.7,8.2,10.8C95.5,537.3,96.5,541.8,96.5,546.6z M59.1,578.9c4.6,0,9-0.8,13.2-2.4
			c4.3-1.6,8-3.9,11.3-6.7c3.3-2.8,5.9-6.2,7.8-10.2c1.9-3.9,2.9-8.3,2.9-13c0-4.8-1-9.1-3.1-13.1c-2-4-4.7-7.4-8-10.2
			s-7.1-5-11.3-6.5c-4.2-1.6-8.5-2.3-12.9-2.3c-4.6,0-9,0.8-13.2,2.4c-4.3,1.6-8,3.9-11.3,6.8c-3.3,2.9-5.9,6.3-7.8,10.2
			c-1.9,3.9-2.9,8.1-2.9,12.7c0,4.8,1,9.2,3.1,13.1c2,4,4.7,7.4,8,10.2c3.3,2.8,7.1,5,11.3,6.6C50.5,578.1,54.8,578.9,59.1,578.9z"
			/>
		<path class="st1" d="M26.3,495H96v2.1H22.3v-1.6L93,439.2H22.3v-2.1H96v2.4L26.3,495z"/>
		<path class="st1" d="M36.8,419.5l-8.9-1v0.9h-7.7v-2.7h7.7l8.9,1.3V419.5z"/>
		<path class="st1" d="M24.3,349.3v28.2H96v2.1H24.3v28.2h-2.1v-58.5H24.3z"/>
		<path class="st1" d="M93.9,264.6H96V313H22.3v-47.4h2.1v45.4h32.9v-39.8h2.1v39.8h34.6V264.6z"/>
		<path class="st1" d="M22.3,255.1l71.1-31l-71.1-30.9v-2.3L96,222.9v2.3l-73.7,32.1V255.1z"/>
		<path class="st1" d="M93.9,130.2H96v48.4H22.3v-47.4h2.1v45.4h32.9v-39.8h2.1v39.8h34.6V130.2z"/>
		<path class="st1" d="M96,114.6H22.3v-30c0-3,0.6-5.7,1.9-8.3c1.3-2.6,3-4.8,5.1-6.6c2.1-1.8,4.5-3.3,7.2-4.3
			c2.7-1,5.4-1.6,8.1-1.6c2.8,0,5.6,0.5,8.2,1.3c2.6,0.9,5,2.2,7,3.8c2,1.7,3.7,3.7,5,6c1.3,2.3,2,4.9,2.2,7.6l29-18.7v2.5L67,85.1
			v27.4h29V114.6z M64.9,112.5V83.8c0-2.8-0.6-5.3-1.8-7.5c-1.2-2.2-2.7-4.1-4.6-5.7c-1.9-1.6-4.1-2.8-6.5-3.6
			c-2.4-0.8-4.9-1.2-7.5-1.2c-2.6,0-5.2,0.5-7.6,1.5c-2.4,1-4.6,2.3-6.4,4c-1.9,1.7-3.4,3.7-4.5,6c-1.1,2.3-1.7,4.7-1.7,7.3v27.9
			H64.9z"/>
	</g>
</g>
<g id="fill-growup">
	<g>
		<path class="st1" d="M493.9,117.1c-8.7-7.7-13.1-16.5-13.1-26.6c0-5.1,1.1-9.8,3.3-14.1c2.2-4.3,5-7.9,8.6-11
			c3.5-3.1,7.5-5.5,12-7.2c4.5-1.7,9-2.5,13.5-2.5c4.8,0,9.4,0.8,13.9,2.5c4.5,1.7,8.5,4,12,6.9c3.5,2.9,6.3,6.5,8.4,10.6
			c2.1,4.1,3.1,8.6,3.1,13.5c0,3.8-0.4,7.2-1.2,10.2c-0.8,3-1.9,5.6-3.3,7.9c-1.4,2.3-3.1,4.2-5.1,5.9c-2,1.6-4.1,3-6.5,4.2l-0.6-2
			c5.2-2.8,8.9-6.5,11.2-10.9c2.3-4.4,3.4-9.5,3.4-15.3c0-4.8-1-9.2-3.1-13.1c-2-3.9-4.7-7.2-8-9.9c-3.3-2.7-7.1-4.8-11.3-6.3
			c-4.2-1.5-8.5-2.2-12.9-2.2c-4.6,0-9.1,0.8-13.3,2.5c-4.3,1.7-8,4-11.3,7c-3.3,3-5.8,6.4-7.8,10.4c-1.9,3.9-2.9,8.2-2.9,12.8
			c0,4.8,1.1,9.4,3.3,13.8c2.2,4.4,5.7,8.6,10.6,12.8h17.5V99.8h2.1v19.4h-35.1v-2.1H493.9z"/>
		<path class="st1" d="M481.4,135.8h73.7v30c0,3-0.6,5.7-1.9,8.3c-1.3,2.6-3,4.8-5.1,6.6c-2.1,1.8-4.5,3.3-7.2,4.3
			c-2.7,1-5.4,1.6-8.1,1.6c-2.8,0-5.6-0.5-8.2-1.3c-2.6-0.9-5-2.2-7-3.8c-2-1.7-3.7-3.7-5-6c-1.3-2.3-2-4.9-2.2-7.6l-29,18.7v-2.5
			l29-18.7v-27.4h-29V135.8z M512.4,137.8v28.6c0,2.8,0.6,5.3,1.8,7.5c1.2,2.2,2.7,4.1,4.6,5.7c1.9,1.6,4.1,2.8,6.5,3.6
			c2.4,0.8,4.9,1.2,7.5,1.2c2.6,0,5.2-0.5,7.6-1.5c2.4-1,4.6-2.3,6.4-4c1.9-1.7,3.4-3.7,4.5-6c1.1-2.3,1.7-4.7,1.7-7.3v-27.9H512.4z
			"/>
		<path class="st1" d="M480.9,231.5c0-5.1,1.1-9.8,3.2-14c2.1-4.2,4.9-7.8,8.4-10.8c3.5-3,7.4-5.4,11.9-7.1
			c4.5-1.7,9.1-2.5,13.8-2.5c4.9,0,9.6,0.9,14.1,2.6c4.5,1.8,8.5,4.2,11.9,7.3c3.5,3.1,6.2,6.7,8.3,10.9c2,4.2,3.1,8.7,3.1,13.5
			c0,5-1.1,9.7-3.3,13.9c-2.2,4.2-5,7.8-8.6,10.8c-3.5,3-7.5,5.3-12,7s-9,2.5-13.5,2.5c-5,0-9.7-0.9-14.2-2.6
			c-4.5-1.8-8.5-4.2-11.9-7.3c-3.4-3.1-6.2-6.7-8.2-10.8C481.9,240.8,480.9,236.3,480.9,231.5z M518.2,199.2c-4.6,0-9,0.8-13.2,2.4
			c-4.3,1.6-8,3.9-11.3,6.7c-3.3,2.8-5.9,6.2-7.8,10.2c-1.9,3.9-2.9,8.3-2.9,13c0,4.8,1,9.1,3.1,13.1c2,4,4.7,7.4,8,10.2
			s7.1,5,11.3,6.5c4.2,1.6,8.5,2.3,12.9,2.3c4.6,0,9-0.8,13.2-2.4c4.3-1.6,8-3.9,11.3-6.8c3.3-2.9,5.9-6.3,7.8-10.2
			c1.9-3.9,2.9-8.1,2.9-12.7c0-4.8-1-9.2-3.1-13.1c-2-4-4.7-7.4-8-10.2c-3.3-2.8-7.1-5-11.3-6.6C526.9,200,522.6,199.2,518.2,199.2z
			"/>
		<path class="st1" d="M554.4,307.5v2.3l-27.6,11.9l27.6,12v2.3l-30.1-13.2L484,340.5l71.1,30.9v2.3l-73.7-32.1v-2.3l40.4-17.5
			l-40.4-17.5V302l73.7-32.1v2.3L484,303.2l40.4,17.5L554.4,307.5z"/>
		<path class="st1" d="M482.9,438.5c0,5.5,1,10.1,3.1,13.8c2.1,3.6,4.8,6.5,8.1,8.6c3.3,2.1,7.1,3.6,11.3,4.5
			c4.2,0.9,8.5,1.3,12.8,1.3h36.8v2.1h-36.8c-4.9,0-9.6-0.5-14.1-1.5c-4.5-1-8.5-2.7-11.9-5c-3.4-2.4-6.2-5.4-8.3-9.3
			s-3.1-8.6-3.1-14.3c0-5.8,1.1-10.7,3.2-14.5c2.1-3.9,5-7,8.5-9.3c3.5-2.3,7.5-4,12-4.9c4.5-1,9-1.5,13.6-1.5h36.8v2.1h-36.8
			c-4.4,0-8.8,0.4-13,1.3c-4.2,0.9-8,2.4-11.3,4.5c-3.3,2.1-6,5-8,8.6C483.9,428.5,482.9,433,482.9,438.5z"/>
		<path class="st1" d="M481.4,488h73.7v30c0,3-0.6,5.7-1.9,8.3c-1.3,2.6-3,4.8-5.1,6.6c-2.1,1.8-4.5,3.3-7.2,4.3
			c-2.7,1-5.4,1.6-8.1,1.6c-2.9,0-5.7-0.5-8.4-1.5c-2.7-1-5.1-2.3-7.2-4.1c-2.1-1.8-3.7-3.9-5-6.3c-1.2-2.5-1.9-5.2-1.9-8.1v-28.6
			h-29V488z M512.4,490.1v28.6c0,2.8,0.6,5.3,1.8,7.5c1.2,2.2,2.7,4.1,4.7,5.7c1.9,1.5,4.1,2.7,6.5,3.5c2.4,0.8,4.9,1.2,7.4,1.2
			c2.6,0,5.2-0.5,7.6-1.5c2.4-1,4.6-2.3,6.4-4c1.9-1.7,3.4-3.7,4.5-6c1.1-2.3,1.7-4.7,1.7-7.3v-27.9H512.4z"/>
	</g>
</g>
<path id="fill-heart" class="st2" d="M549.9,625c-1.6-1.4-3.4-2.5-5.4-3.3c-0.4-0.1-0.7-0.3-1.1-0.4v-0.7c0.3-0.1,0.5-0.2,0.8-0.3
	c2-0.7,3.8-1.8,5.4-3.2c1.6-1.4,2.9-3,3.9-4.9c1-1.9,1.5-4,1.5-6.3c0-2.2-0.5-4.2-1.4-6.1c-0.9-1.9-2.2-3.5-3.7-4.9
	c-1.6-1.4-3.4-2.5-5.4-3.3c-2-0.8-4.2-1.2-6.4-1.2c-2.1,0-4.2,0.4-6.2,1.1c-0.6,0.2-1.2,0.5-1.7,0.7v0l-48.8,27.9v1.5l47.4,27.1
	c0.2,0.1,0.5,0.3,0.7,0.4l0.7,0.4v0c0.5,0.2,1,0.5,1.5,0.7c2,0.8,4.2,1.2,6.4,1.2c2.1,0,4.1-0.4,6.1-1.1c2-0.7,3.8-1.8,5.4-3.2
	c1.6-1.4,2.9-3,3.9-4.9c1-1.9,1.5-4,1.5-6.3c0-2.2-0.5-4.2-1.4-6.1C552.7,628,551.5,626.3,549.9,625z M551.6,641.3
	c-0.9,1.6-2,3.1-3.4,4.3c-1.4,1.2-3,2.1-4.8,2.8c-1.8,0.7-3.6,1-5.4,1c-2,0-3.9-0.4-5.6-1c-0.4-0.2-0.9-0.4-1.4-0.6l-0.2-0.1
	l-0.7-0.4c-0.1-0.1-0.3-0.2-0.4-0.2l-45.6-26l46.3-26.5l0.5-0.2c0.6-0.3,1-0.5,1.5-0.7c1.8-0.7,3.6-1,5.5-1c1.9,0,3.8,0.4,5.6,1
	c1.8,0.7,3.4,1.7,4.7,2.9c1.3,1.2,2.4,2.6,3.2,4.3c0.8,1.6,1.2,3.3,1.2,5.2c0,2-0.4,3.7-1.2,5.3c-0.9,1.6-2,3.1-3.4,4.3
	c-1.4,1.2-3,2.1-4.8,2.8c-0.6,0.2-1.2,0.4-1.9,0.6l0,0.2l0,0v3.8h0l0,0.2c0.8,0.2,1.5,0.4,2.1,0.6c1.8,0.7,3.4,1.7,4.7,2.9
	c1.3,1.2,2.4,2.6,3.2,4.3c0.8,1.6,1.2,3.3,1.2,5.2C552.9,637.9,552.5,639.7,551.6,641.3z"/>
<g id="stroke-lines">
	<line class="st3" x1="113.5" y1="0" x2="113.5" y2="720"/>
	<line class="st3" x1="462.5" y1="0" x2="462.5" y2="720"/>
</g>
</svg>
