<?xml version="1.0" encoding="utf-8"?>
<!-- Generator: Adobe Illustrator 14.0.0, SVG Export Plug-In . SVG Version: 6.00 Build 43363)  -->
<!DOCTYPE svg PUBLIC "-//W3C//DTD SVG 1.1//EN" "http://www.w3.org/Graphics/SVG/1.1/DTD/svg11.dtd">
<svg version="1.1" id="Layer_1" xmlns="http://www.w3.org/2000/svg" xmlns:xlink="http://www.w3.org/1999/xlink" x="0px" y="0px"
	 width="864px" height="864px" viewBox="0 0 864 864" enable-background="new 0 0 864 864" xml:space="preserve">
<rect id="photo3" x="584.286" y="35.75" fill="#D0D2D3" width="241.881" height="241.88"/>
<rect id="photo1" x="43" y="35.75" fill="#D0D2D3" width="241.88" height="241.88"/>
<rect id="photo2" x="313.643" y="35.75" fill="#D0D2D3" width="241.881" height="241.88"/>
<rect id="photo4" x="43" y="311.06" fill="#D0D2D3" width="241.88" height="241.881"/>
<path id="fill_1_" fill="#7D7D8F" d="M434.583,506.001c0,0,56.102-52.482,72.029-72.029c17.013-20.992,10.314-50.491-5.61-62.073
	c-15.926-11.583-39.091-8.687-50.132-1.81c-11.22,7.058-16.287,22.259-16.287,22.259s-5.609-15.201-16.288-22.259
	c-10.858-7.059-34.385-9.773-50.13,1.81c-15.926,11.582-22.621,41.081-5.609,62.073C378.48,453.519,434.583,506.001,434.583,506.001
	z"/>
<rect id="photo5" x="584.286" y="311.06" fill="#D0D2D3" width="241.881" height="241.881"/>
<rect id="photo6" x="43" y="584.47" fill="#D0D2D3" width="241.88" height="241.881"/>
<rect id="photo8" x="584.286" y="584.47" fill="#D0D2D3" width="241.881" height="241.881"/>
<rect id="photo7" x="313.643" y="584.47" fill="#D0D2D3" width="241.881" height="241.881"/>
</svg>
