<?xml version="1.0" encoding="utf-8"?>
<!-- Generator: Adobe Illustrator 14.0.0, SVG Export Plug-In . SVG Version: 6.00 Build 43363)  -->
<!DOCTYPE svg PUBLIC "-//W3C//DTD SVG 1.1//EN" "http://www.w3.org/Graphics/SVG/1.1/DTD/svg11.dtd">
<svg version="1.1" id="Layer_1" xmlns="http://www.w3.org/2000/svg" xmlns:xlink="http://www.w3.org/1999/xlink" x="0px" y="0px"
	 width="1296px" height="864px" viewBox="0 0 1296 864" enable-background="new 0 0 1296 864" xml:space="preserve">
<rect id="photo" x="0.431" fill="#D0D2D3" width="1296" height="864"/>
<g id="fill-fabulous">
	<g>
		<path fill="#CC418C" d="M1264.141,807.08v26.624h-176.649v-75.788h26.765v49.164h48.178v-35.922h26.765v35.922H1264.141z"/>
		<path fill="#CC418C" d="M1223.57,727.67l40.57,6.469v27.723l-176.509-30.008V695.23l176.509-29.58v27.993l-40.57,6.229V727.67z
			 M1128.062,713.684l69.589,9.861v-19.722L1128.062,713.684z"/>
		<path fill="#CC418C" d="M1264.141,643.254h-176.649v-39.866c0-10.517,2.771-20.003,8.312-28.455
			c4.697-7.23,11.974-12.396,21.834-15.496c5.261-1.69,11.506-2.535,18.736-2.535c11.833,0,21.319,3.147,28.455,9.438
			c3.007,2.631,5.307,5.729,6.902,9.298c2.254-5.917,6.716-10.939,13.383-15.073c4.508-2.723,10.332-4.741,17.468-6.057
			c3.662-0.656,7.748-0.986,12.256-0.986c11.177,0,20.661,2.113,28.455,6.339c6.105,3.288,10.988,7.938,14.65,13.946
			c4.134,6.762,6.198,13.477,6.198,20.144V643.254z M1159.616,614.517v-11.129c0-8.263-4.037-13.805-12.115-16.622
			c-3.004-1.032-6.713-1.55-11.128-1.55c-7.325,0-12.865,1.785-16.623,5.353c-3.474,3.289-5.212,7.562-5.212,12.819v11.129H1159.616
			z M1237.798,614.517v-11.129c0-9.016-4.648-15.26-13.945-18.735c-3.192-1.22-6.854-1.831-10.988-1.831
			c-9.86,0-17.045,1.88-21.553,5.635c-4.132,3.381-6.198,8.359-6.198,14.932v11.129H1237.798z"/>
		<path fill="#CC418C" d="M1266.112,488.582c0,11.74-4.085,21.694-12.255,29.864c-8.171,8.171-18.078,12.256-29.724,12.256h-136.502
			v-26.061h136.221c4.226,0,7.817-1.502,10.776-4.508c2.958-3.005,4.438-6.621,4.438-10.848c0-4.226-1.479-7.817-4.438-10.776
			c-2.959-2.958-6.551-4.438-10.776-4.438h-136.221v-27.751h136.502c11.833,0,21.788,4.134,29.864,12.396
			C1262.076,466.983,1266.112,476.938,1266.112,488.582z"/>
		<path fill="#CC418C" d="M1264.141,350.112v72.548h-176.509v-26.625h150.025v-45.923H1264.141z"/>
		<path fill="#CC418C" d="M1085.378,289.682c0-11.738,4.134-21.716,12.396-29.935c8.266-8.216,18.221-12.326,29.864-12.326h96.354
			c11.74,0,21.718,4.133,29.935,12.396c8.219,8.265,12.326,18.221,12.326,29.864c0,11.741-4.132,21.694-12.396,29.864
			c-8.263,8.17-18.219,12.256-29.864,12.256h-96.354c-11.738,0-21.716-4.132-29.935-12.396
			C1089.487,311.142,1085.378,301.233,1085.378,289.682z M1127.075,275.172c-4.226,0-7.818,1.479-10.776,4.438
			c-2.958,2.958-4.438,6.55-4.438,10.776s1.479,7.842,4.438,10.847c2.958,3.007,6.551,4.508,10.776,4.508h96.636
			c4.227,0,7.818-1.501,10.776-4.508c2.959-3.004,4.438-6.621,4.438-10.847s-1.479-7.818-4.438-10.776
			c-2.958-2.958-6.55-4.438-10.776-4.438H1127.075z"/>
		<path fill="#CC418C" d="M1266.112,182.06c0,11.741-4.085,21.694-12.255,29.864c-8.171,8.17-18.078,12.256-29.724,12.256h-136.502
			v-26.061h136.221c4.226,0,7.817-1.501,10.776-4.508c2.958-3.004,4.438-6.621,4.438-10.847s-1.479-7.818-4.438-10.776
			c-2.959-2.958-6.551-4.438-10.776-4.438h-136.221v-27.751h136.502c11.833,0,21.788,4.134,29.864,12.396
			C1262.076,160.461,1266.112,170.417,1266.112,182.06z"/>
		<path fill="#CC418C" d="M1220.189,29.784c12.304-0.188,22.821,3.006,31.555,9.579c5.917,4.321,10.097,10.424,12.537,18.313
			c1.314,4.226,1.973,9.157,1.973,14.792c0,10.424-2.582,19.065-7.748,25.92c-4.226,5.729-9.978,10.261-17.257,13.594
			c-7.276,3.334-15.611,5.283-25.004,5.846l-1.831-25.356c10.29-1.127,17.747-3.85,22.372-8.17
			c3.492-3.192,5.146-6.854,4.956-10.988c-0.187-5.822-3.055-10.471-8.602-13.946c-2.725-1.783-6.625-2.676-11.701-2.676
			c-7.331,0-14.617,3.334-21.854,10.001c-4.98,5.261-12.453,13.149-22.418,23.666c-8.553,8.829-16.215,15.073-22.983,18.736
			c-7.613,3.944-15.885,5.917-24.814,5.917c-16.072,0-28.247-5.399-36.519-16.2c-4.98-6.667-7.473-14.932-7.473-24.793
			c0-9.484,2.113-17.608,6.339-24.37c3.289-5.258,7.889-9.509,13.806-12.749c5.916-3.24,12.727-5.188,20.426-5.846l4.648,25.497
			c-7.23,0.753-12.865,2.817-16.904,6.198c-2.909,2.443-4.366,5.965-4.366,10.565c0,4.884,2.161,8.593,6.479,11.128
			c3.476,2.067,7.796,3.099,12.96,3.099c8.078,0,16.295-3.473,24.652-10.424c3.193-2.628,6.951-6.572,11.27-11.833
			c5.166-6.198,8.782-10.283,10.847-12.255c6.574-6.572,13.055-11.644,19.439-15.214c3.007-1.69,5.776-3.051,8.312-4.085
			C1209.578,31.192,1215.213,29.878,1220.189,29.784z"/>
	</g>
</g>
<rect id="stroke" x="32.861" y="30.296" fill="none" stroke="#CC418C" stroke-width="1.9867" width="1231.139" height="803.408"/>
</svg>
