<?xml version="1.0" encoding="utf-8"?>
<!-- Generator: Adobe Illustrator 14.0.0, SVG Export Plug-In . SVG Version: 6.00 Build 43363)  -->
<!DOCTYPE svg PUBLIC "-//W3C//DTD SVG 1.1//EN" "http://www.w3.org/Graphics/SVG/1.1/DTD/svg11.dtd">
<svg version="1.1" id="Layer_1" xmlns="http://www.w3.org/2000/svg" xmlns:xlink="http://www.w3.org/1999/xlink" x="0px" y="0px"
	 width="1440px" height="1152px" viewBox="0 0 1440 1152" enable-background="new 0 0 1440 1152" xml:space="preserve">
<rect id="photo" fill="#D0D2D3" width="1440" height="1152"/>
<g id="fill-fabulous">
	<g>
		<path fill="#CC418C" d="M1403.648,1076.058v35.548h-235.864v-101.193h35.737v65.646h64.326v-47.964h35.737v47.964H1403.648z"/>
		<path fill="#CC418C" d="M1349.479,970.028l54.17,8.637v37.016l-235.676-40.066v-48.899l235.676-39.496v37.376l-54.17,8.317
			V970.028z M1221.955,951.353l92.916,13.167v-26.333L1221.955,951.353z"/>
		<path fill="#CC418C" d="M1403.648,857.315h-235.864v-53.23c0-14.042,3.701-26.708,11.099-37.993
			c6.271-9.654,15.986-16.553,29.152-20.691c7.023-2.257,15.362-3.384,25.017-3.384c15.8,0,28.467,4.202,37.994,12.601
			c4.016,3.513,7.085,7.65,9.216,12.415c3.01-7.901,8.967-14.607,17.869-20.126c6.019-3.635,13.795-6.332,23.323-8.087
			c4.891-0.876,10.346-1.318,16.363-1.318c14.923,0,27.587,2.823,37.994,8.465c8.152,4.39,14.671,10.599,19.563,18.62
			c5.518,9.03,8.274,17.996,8.274,26.897V857.315z M1264.087,818.943v-14.858c0-11.032-5.391-18.433-16.177-22.193
			c-4.011-1.379-8.964-2.069-14.858-2.069c-9.779,0-17.178,2.383-22.195,7.146c-4.638,4.392-6.957,10.096-6.957,17.116v14.858
			H1264.087z M1368.476,818.943v-14.858c0-12.038-6.206-20.375-18.62-25.016c-4.263-1.628-9.153-2.445-14.672-2.445
			c-13.165,0-22.758,2.51-28.776,7.523c-5.517,4.515-8.276,11.162-8.276,19.938v14.858H1368.476z"/>
		<path fill="#CC418C" d="M1406.28,650.796c0,15.675-5.452,28.965-16.362,39.874s-24.138,16.363-39.688,16.363h-182.258v-34.795
			h181.883c5.642,0,10.439-2.006,14.389-6.02c3.949-4.011,5.925-8.84,5.925-14.482c0-5.644-1.976-10.438-5.925-14.389
			s-8.747-5.926-14.389-5.926h-181.883v-37.054h182.258c15.802,0,29.093,5.521,39.876,16.553
			C1400.892,621.957,1406.28,635.249,1406.28,650.796z"/>
		<path fill="#CC418C" d="M1403.648,465.909v96.868h-235.676v-35.55h200.315v-61.318H1403.648z"/>
		<path fill="#CC418C" d="M1164.963,385.222c0-15.673,5.52-28.996,16.551-39.969c11.037-10.971,24.328-16.458,39.876-16.458h128.653
			c15.676,0,28.998,5.519,39.969,16.551c10.975,11.036,16.459,24.329,16.459,39.875c0,15.676-5.518,28.965-16.553,39.875
			c-11.031,10.909-24.326,16.364-39.875,16.364H1221.39c-15.672,0-28.996-5.517-39.969-16.552
			C1170.449,413.876,1164.963,400.646,1164.963,385.222z M1220.637,365.849c-5.642,0-10.438,1.975-14.389,5.925
			c-3.949,3.95-5.924,8.746-5.924,14.389c0,5.643,1.975,10.471,5.924,14.483c3.951,4.014,8.747,6.019,14.389,6.019h129.03
			c5.643,0,10.439-2.004,14.388-6.019c3.952-4.012,5.926-8.84,5.926-14.483c0-5.643-1.974-10.439-5.926-14.389
			c-3.948-3.95-8.745-5.925-14.388-5.925H1220.637z"/>
		<path fill="#CC418C" d="M1406.28,241.525c0,15.676-5.452,28.965-16.362,39.875s-24.138,16.364-39.688,16.364h-182.258v-34.796
			h181.883c5.642,0,10.439-2.004,14.389-6.019c3.949-4.012,5.925-8.84,5.925-14.482c0-5.643-1.976-10.439-5.925-14.389
			c-3.949-3.951-8.747-5.925-14.389-5.925h-181.883v-37.054h182.258c15.802,0,29.093,5.52,39.876,16.552
			C1400.892,212.685,1406.28,225.978,1406.28,241.525z"/>
		<path fill="#CC418C" d="M1344.964,38.204c16.429-0.25,30.472,4.015,42.133,12.79c7.9,5.77,13.48,13.918,16.739,24.452
			c1.757,5.643,2.635,12.227,2.635,19.75c0,13.918-3.448,25.456-10.346,34.608c-5.643,7.649-13.321,13.701-23.041,18.151
			c-9.715,4.452-20.846,7.053-33.386,7.805l-2.444-33.856c13.738-1.505,23.696-5.14,29.871-10.909
			c4.662-4.262,6.87-9.152,6.618-14.671c-0.25-7.774-4.079-13.981-11.485-18.622c-3.638-2.381-8.848-3.574-15.623-3.574
			c-9.789,0-19.518,4.453-29.182,13.354c-6.65,7.024-16.628,17.557-29.933,31.598c-11.42,11.789-21.65,20.126-30.688,25.017
			c-10.165,5.267-21.208,7.9-33.133,7.9c-21.459,0-37.715-7.21-48.758-21.63c-6.651-8.903-9.979-19.938-9.979-33.104
			c0-12.663,2.821-23.511,8.464-32.539c4.391-7.021,10.534-12.697,18.433-17.022c7.899-4.326,16.993-6.928,27.273-7.806
			l6.207,34.044c-9.654,1.005-17.179,3.762-22.572,8.275c-3.884,3.263-5.828,7.964-5.828,14.108c0,6.521,2.887,11.473,8.651,14.858
			c4.64,2.76,10.408,4.139,17.304,4.139c10.787,0,21.756-4.637,32.916-13.919c4.264-3.509,9.281-8.775,15.048-15.8
			c6.896-8.275,11.726-13.73,14.482-16.363c8.778-8.775,17.43-15.547,25.955-20.313c4.017-2.257,7.713-4.074,11.097-5.454
			C1330.795,40.085,1338.319,38.33,1344.964,38.204z"/>
	</g>
</g>
<rect id="stroke" x="36.034" y="40.395" fill="none" stroke="#CC418C" stroke-width="2" width="1367.932" height="1071.21"/>
</svg>
