<?xml version="1.0" encoding="utf-8"?>
<!-- Generator: Adobe Illustrator 14.0.0, SVG Export Plug-In . SVG Version: 6.00 Build 43363)  -->
<!DOCTYPE svg PUBLIC "-//W3C//DTD SVG 1.1//EN" "http://www.w3.org/Graphics/SVG/1.1/DTD/svg11.dtd">
<svg version="1.1" id="Layer_1" xmlns="http://www.w3.org/2000/svg" xmlns:xlink="http://www.w3.org/1999/xlink" x="0px" y="0px"
	 width="720px" height="576px" viewBox="72 360 720 576" enable-background="new 72 360 720 576" xml:space="preserve">
<polygon id="photo2" fill="#C9C9C9" points="345.2,627.7 391.8,708.301 345.2,789 252.101,789 205.6,708.301 252.101,627.7 "/>
<polygon id="photo3" fill="#C9C9C9" points="488.1,709.9 534.601,790.5 488.1,871.2 395,871.2 348.399,790.5 395,709.9 "/>
<g id="fill2">
	<polygon opacity="0.17" fill="#00A79D" enable-background="new    " points="488.1,381.8 534.601,462.4 488.1,543.1 395,543.1 
		348.399,462.4 395,381.8 	"/>
	<polygon opacity="0.17" fill="#00A79D" enable-background="new    " points="72,440.9 106.2,381.7 93.7,360 72,360 	"/>
	<polygon opacity="0.12" fill="#00A79D" enable-background="new    " points="792,415.7 772.4,381.8 679.3,381.8 632.8,462.4 
		679.3,543.1 772.4,543.1 792,509.201 	"/>
</g>
<polygon id="photo1" fill="#C9C9C9" points="109.3,709.9 72,774.5 72,806.601 109.3,871.2 202.4,871.2 248.9,790.5 202.4,709.9 "/>
<g id="fill3">
	<polygon opacity="0.17" fill="#8DC63F" enable-background="new    " points="345.2,463.3 391.8,544 345.2,624.6 252.101,624.6 
		205.6,544 252.101,463.3 	"/>
	<polygon opacity="0.17" fill="#8DC63F" enable-background="new    " points="98.1,360 109.3,379.3 202.4,379.3 213.5,360 	"/>
	<polygon opacity="0.24" fill="#8DC63F" enable-background="new    " points="537.5,793.101 490.9,873.7 526.899,936 641.2,936 
		677.101,873.7 630.6,793.101 	"/>
	<polygon opacity="0.17" fill="#8DC63F" enable-background="new    " points="668.2,360 679.3,379.3 772.4,379.3 783.6,360 	"/>
</g>
<g id="fill4">
	<polygon opacity="0.43" fill="#00A79D" enable-background="new    " points="252.101,793.101 205.6,873.7 241.5,936 355.8,936 
		391.8,873.7 345.2,793.101 	"/>
	<polygon opacity="0.43" fill="#00A79D" enable-background="new    " points="792,936 792,909.3 772.4,875.399 679.3,875.399 
		644.399,936 	"/>
</g>
<path id="fill-islands" opacity="0.8" fill="#00A79D" enable-background="new    " d="M633.5,698.301
	c-0.499-1.001,0.6-2.101,0.7-3.201c0.1-0.5-0.101-0.999-0.3-1.5c-1.8-4.6-5.4-8.3-7.101-12.899c-0.8-2.101-1.2-4.4-1.399-6.6
	c-0.3-3.101,0-6.9,2.601-8.601c2.5-1.7,5.899-0.8,8.699,0.1c3.3,1.101,7,2.4,8.801,5.4c0.299,0.5,0.499,1,0.899,1.4
	c0.6,0.6,1.399,0.9,2.199,1.199c3.801,1.5,7,4.2,10.4,6.7c0.5,0.4,1.101,0.8,1.7,0.9c0.9,0.3,1.999,0,2.899,0
	c1.901-0.101,3.801,0.6,5.601,1.2c2.6,0.9,5.199,1.8,7.8,2.7c6.4,2.199,12,5.7,18.101,8.699c1.499,0.7,2.999,1.5,4.299,2.4
	c0.8,0.601,1.601,1.2,2.4,1.8c1.8,1.3,3.8,2.3,5.601,3.601c2.2,1.7,3.8,3.8,5.5,6c1.7,2.199,3.4,4.399,5.101,6.6
	c0.599,0.8,0.699,2.1,0.199,3c-0.3,0.7-0.999,1.3-0.9,2.101c0.101,0.399,0.301,0.699,0.5,0.999c0.7,1.301,0.3,3.001,0.201,4.5
	c-0.101,1.5,0.299,3.4,1.7,3.8c1.799,0.601,3.699-1.6,5.599-1.1c0.699,0.2,1.2,0.7,1.7,1.2c1.3,1.3,2.7,2.7,3,4.5
	c0.3,1.399-0.1,2.899-0.1,4.3s0.699,3.101,2.1,3.4c0.3,0.1,0.699,0.1,1.001,0.3c0.199,0.2,0.299,0.6,0.299,0.899
	c0.3,1.801,1.801,3,3.3,4.101c2,1.5,4,3,6.301,3.899c1.199,0.501,2.5,0.701,3.499,1.501c1.8,1.199,2.7,3.699,2.301,5.899
	c-0.4,2.2-2,4-4,5.1c-4.101,2.2-7.1,5.9-10.5,8.9c-3.501,3.1-7.301,5.9-11.8,6.9c-0.9,0.199-1.801,0.3-2.699,0.6
	c-1.602,0.6-2.901,1.801-4.2,2.7c-2.101,1.5-4.501,2.7-7.001,3.399c-0.899,0.2-1.9,0.4-2.9,0.4c-1.1-0.101-2.1-0.5-3.2-0.8
	c-2.399-0.6-5-0.4-7.5-0.101c-0.399,0-0.699,0.101-0.999,0.301c-0.4,0.3-0.601,0.8-0.899,1.199c-1.001,1.5-3.202,1.9-4.301,3.301
	c-0.501,0.6-0.699,1.399-1.2,1.899c-0.9,1.101-2.5,1.4-3.9,1.6c-4.3,0.601-6.2,7.301-10.5,7.601c-0.6,0-1.2,0-1.699,0.2
	c-0.5,0.2-0.899,0.5-1.3,0.9c-2.5,2.3-5.201,5.1-4.7,8.399c0.101,0.399,0.199,0.9,0,1.3c-0.201,0.6-0.8,0.9-1.301,1.2
	c-1.7,1-2.899,2.899-3.1,4.9c-0.1,0.899-0.1,2.1-0.801,2.6c-0.4,0.3-0.999,0.3-1.499,0.5c-0.8,0.4-1.1,1.3-1.499,2.1
	c-1.301,2.301-3.701,3.601-6.001,4.9c-0.9-1.2-1.499-2.7-2.5-3.8c-1.1-1.3-2.5-2.2-3.901-3.1c-1.699-1.001-3.3-2.101-5-3.001
	c-2.299-1.3-4.799-2.399-7.299-3.3c-1.999-0.7-4.4-1.5-5.201-3.5c-0.299-0.8-0.399-1.6-0.8-2.3c-0.399-0.7-1.099-1.1-1.6-1.8
	c-0.399-0.601-0.6-1.301-0.699-2.101c-0.9-4.899-0.201-10,2.101-14.399c-1.401-3.5,0.699-7.5,0.9-11.2
	c0.198-3.5-1.301-6.8-2.402-10.1c-0.998-2.9-1.699-5.8-2.198-8.8c-1.102-1-2.2-1.2-2.701-3.101c-0.299-1-0.198-3.4-0.6-4.3
	c-1.101-2.7-0.899-7.1-4.4-11.7c-0.6-0.7-1.099-1.5-1.999-1.7c-0.4-0.1-0.9-0.1-1.301-0.399c-1.199-0.8-0.399-2.9-1.199-4.101
	c-0.4-0.5-1.001-0.8-1.301-1.399c-0.5-0.8,0-1.9-0.299-2.8c-0.201-0.5-0.501-0.801-0.701-1.3c-0.199-0.501-0.099-1.101,0-1.601
	c0.2-1.7,0.5-3.399,1.2-4.9c0.7-1.5,2.101-2.899,3.8-3.2c1.3-0.2,1.699-1.899,2.5-2.899c1-1.3,2.7-2.2,4.3-2.399
	c0.8-0.101,1.6,0,2.302-0.301c0.699-0.3,1.299-1.2,0.898-1.9c-0.099-0.2-0.199-0.299-0.3-0.499c-0.199-0.501,0.399-0.9,0.8-1.301
	c1.3-1.1,1.4-3.1,2.2-4.699C627.201,702.2,631.4,700.801,633.5,698.301z M545,625.5c-0.7,0.2-1.5,0.4-1.999,1
	c-0.201,0.2-0.302,0.499-0.501,0.699c-0.5,0.9-1.3,1.7-2.301,1.801c-0.399,0-0.8-0.101-1.199-0.101c-0.6,0-1.1,0.2-1.5,0.6
	c-0.5,0.501-0.601,1.201-1.1,1.601c-0.4,0.4-1,0.7-1.5,0.899c0.699,0.4,1.199,0.9,1.6,1.601c0.2,0.3,0.3,0.601,0.601,0.899
	c0.3,0.2,0.699,0.301,0.999,0.4c1.3,0.3,2.7,0.6,4.001,0.4c0.9-0.1,1.7-0.5,2.601-0.8c0.299-0.1,0.498-0.2,0.8-0.299
	c0.099,0,0.199-0.101,0.299-0.2c0.101-0.101,0.101-0.2,0.2-0.301c0.2-0.299,0.7-0.399,1-0.2c0.601,0.301,0.5,1.301,1.1,1.601
	c0.5,0.3,1.101-0.1,1.501-0.4c0.5-0.399,1.1-0.8,1.8-0.699c0.399,0.1,0.801,0.299,1.2,0.2c0.499-0.101,0.8-0.501,0.899-0.9
	c0.1-0.4,0.1-0.9,0-1.4c-0.4-0.399-1.1-0.5-1.601-0.5c0.101-0.7,0.302-1.3,0.4-2c0.101-0.399,0.2-0.9,0.601-1.1
	c0.299-0.2,0.9-0.3,1-0.7c0-0.2-0.1-0.4-0.301-0.601c-0.8-0.899-1.6-1.899-2.399-2.799c-0.2-0.2-0.3-0.4-0.5-0.501
	c-0.4-0.2-0.9-0.299-1.301-0.299c-0.399,0-0.8,0.099-1.199,0.2c-0.3,0.1-0.501,0.3-0.7,0.5C546.8,624.8,545.9,625.2,545,625.5z
	 M561.6,601.701c0.101,0.099,0.3,0.199,0.4,0.299c0.101,0.101,0.101,0.301,0.101,0.4c0.199,1.3,0.3,2.601,0.8,3.8
	c0.399,1,1.199,1.9,1.399,3.001c0.301,1.5-0.399,3.3,0.5,4.499c-0.099,0.101-0.199,0.4-0.3,0.501
	c0.101,0.999,0.101,1.999,0.201,2.999c0,0.301,0,0.5-0.101,0.8c-0.201,0.3-0.7,0.5-0.8,0.8c-0.101,0.2,0,0.499-0.101,0.8
	c-0.101,0.2-0.2,0.3-0.2,0.5c0,0.1,0.1,0.2,0.2,0.2c0.399,0.4,0.9,0.8,1.3,1.201c0.101,0.1,0.199,0.2,0.3,0.299
	c0.101,0.101,0,0.301,0,0.501c-0.101,0.2-0.101,0.5-0.101,0.7s0.101,0.5,0.4,0.6c0.1,0.1,0.301,0,0.5,0.1
	c0.7,0.101,1.102,0.8,1.7,1.301c0.601,0.5,1.4,0.8,2.101,0.999c0.899,0.301,1.8,0.501,2.799,0.501c0.701,0,1.301-0.2,2.002-0.4
	c2.599-0.5,5.399,0,7.899-0.8c1.499-0.5,2.699-1.6,4.1-2.4c0.9-0.6,1.8-1,2.8-1.399c1.4-0.6,2.9-1,4.301-0.7
	c0.299,0.1,0.599,0.199,0.9,0.3c0.299,0.1,0.699,0.1,0.998,0.1c1.001,0,2.101,0.101,3.102,0.101c0.299,0,0.599,0,0.9-0.101
	c0.399-0.2,0.599-0.6,0.898-1c0.801-0.899,2.001-1.3,3.201-1.6c1.7-0.4,3.499-0.9,5.199-1c0.2,0,0.399,0,0.601-0.1
	c0.199-0.101,0.199-0.4,0.3-0.601c0.299-1,1-1.7,1.899-2.2c1.7-0.899,3.601-2,4.501-3.7c1.1-2.1,0.599-4.6,0.1-6.799
	c-0.2-1-0.5-2.001-1.201-2.801c-0.498-0.6-1.299-0.9-2.1-1.3c-2.4-1.099-4.9-2.1-7.3-3.2c-0.5-0.199-1-0.399-1.5-0.399
	c-0.399,0-0.8,0.1-1.2,0c-0.699-0.101-1.3-0.7-1.799-1.301c-0.701-0.8-1.4-1.6-2.101-2.4c-0.3-0.299-0.601-0.7-1-0.8
	c-0.501-0.2-1.1-0.1-1.601-0.2c-0.6-0.099-1.099-0.6-1.6-0.999c-0.8-0.7-1.5-1.4-2.301-2.101c-0.599-0.5-1.199-1.1-1.799-1.6
	c-0.8-0.7-1.601-1.4-2.301-2.2c-0.999-1.2-2.899-0.8-4.3-1.3c-0.499-0.2-0.899-0.4-1.399-0.6c-1.6-0.7-3.501-0.4-5.201-0.1
	c-0.899,0.2-1.799,0.3-2.699,0.7c-0.7,0.3-1.4,0.699-2.1,1.1c-2.1,1.101-4.4,1.801-6.6,2.601c-1.301,0.399-2.5,0.8-3.801,1.3
	c-0.2,0.1-0.5,0.2-0.7,0.1c-0.399,0-0.7-0.299-0.899-0.6c-1.3-1.5-1.9-3.5-3.201-4.9c-0.899-0.9-1.999-1.6-2.299-2.8
	c-0.201-0.9,0.101-1.9-0.4-2.6c-0.2-0.299-0.601-0.5-0.899-0.7c-0.8-0.6-1.301-1.6-2.101-2.3c-1.199-1-2.899-0.9-4.2-1.7
	c-0.5-0.3-1-0.7-1.6-0.9c-0.5-0.1-1.1,0-1.6,0.101c-1.3,0.3-2.801,0.7-3.501,1.9c-0.299,0.499-0.5,1.199-0.699,1.799
	c-0.8,1.7-2.601,2.601-3.4,4.2c-1.1,1.9,0.101,4.4-0.101,6.6c-0.1,1.501,0.101,3.101,0.701,4.501c0.199,0.2,0.3,0.4,0.4,0.4
	c2.1,1.299,2.899,3.899,4.799,5.499c0.3,0.301,0.7,0.5,0.9,0.9c0.101,0.2,0.2,0.5,0.399,0.7c0.3,0.4,0.801,0.4,1.301,0.499
	c0.8,0.101,1.7,0.301,2.5,0.701c0.6,0.299,1.199,0.8,1.801,1.1c0.599,0.3,1.299,0.5,1.898,0.8c0.7,0.3,1.401,0.8,2.201,0.9
	c1.1,0.1,2.1-0.6,2.899-1.4c0.3-0.3,0.6-0.7,0.999-0.9c0.4-0.2,0.9-0.3,1.301,0C559.601,600.8,560.7,601.2,561.6,601.701z
	 M498.001,584.6c-0.601,0.1-1.201,0.2-1.7,0.5c-0.501,0.3-1.001,0.7-1.2,1.2c-0.399,1.2-0.301,2.5,0.199,3.7
	c0.5,1.1,1.5,2.1,2.701,2.5c0.699,0.299,1.398,0.399,1.999,0.8c0.501,0.3,0.8,0.8,1.1,1.3c0.4,0.6,0.8,1.2,1.2,1.8
	c0.2,0.301,0.399,0.5,0.399,0.8c0.101,0.5,0,1-0.099,1.5c-0.301,1.301-0.399,2.7-0.101,4.1c0.3,1.3,0.9,2.6,2,3.5
	c0.3,0.2,0.5,0.4,0.8,0.6c0.201,0.2,0.399,0.601,0.7,0.7c0.4,0.3,1,0.2,1.5,0.2c1.899-0.2,3.9-0.4,5.8-0.6c0.4,0,0.7-0.1,1.1-0.2
	C515,606.8,515.4,606.3,515.9,605.9c0.899-0.601,2.101-0.9,3.1-1.1c1.6-0.301,2.6-1.8,3.4-3.2c0.5-1,1-2.101,1.1-3.2
	c0.1-1.3-0.4-2.6-1.1-3.701c-0.7-1.1-1.601-2.1-2.5-2.999c-1.899-2.001-3.9-4.101-6.2-5.701c-0.3-0.199-0.699-0.5-1.1-0.6
	c-0.601-0.3-1.3-0.3-1.901-0.399c-1.6-0.2-3.199-0.4-4.799-0.501c-0.9-0.1-1.801-0.1-2.601-0.399
	C501.7,583.5,499.601,584.299,498.001,584.6z M502.699,552.8c-0.899,0.9-3.199,0.2-4.299,0.1c-3.9-0.399-7.801-0.7-11.7-1.101
	c-2.1-0.199-4.3-0.399-6.3-1.199c-0.699-0.3-1.301-0.6-2-0.8c-1.9-0.6-4.001-0.5-6-0.301c0.899,1.5,1.3,3.5,0.299,4.9
	c-0.399,0.601-0.999,1-1.6,1.5c-1.8,1.5-3,3.7-4.2,5.7c-0.199,0.399-0.399,0.8-0.3,1.2c0.2,0.601,0.9,0.8,1.5,1
	c6.2,1.2,12.7,1.1,18.8-0.2c1.7-0.4,3.4-0.8,5.101-0.8c3.501,0,6.5,2.1,9.8,3.3c2.2,0.8,4.501,1.4,6.8,1.9c1.6,0.3,3.101,0.7,4.7,1
	c0.501,0.1,1,0.2,1.5,0.2s1.101-0.2,1.601-0.301c2.1-0.5,4.299-0.6,6.399-1.3c1.7-0.6,3.2-1.699,4.601-2.7c2.7-1.9,5.5-4,6.4-7.2
	c0.1-0.399,0.199-0.8-0.101-1.1c-0.4-0.4-1.2-0.1-1.7-0.3c-0.3-0.101-0.6-0.4-0.8-0.7c-1.3-1.399-3.501-1.5-5.501-1.2
	c-2.299,0.3-4.398,1-6.699,1.4c-2.3,0.399-4.601,0.5-6.7-0.4c-1.2-0.5-2.599-1.3-3.7-0.5c-0.8-0.699-1.499-1.6-1.899-2.6
	c-0.2-0.6-0.399-1.2-0.7-1.6c-0.301-0.5-0.899-0.9-1.5-0.7C503.1,550.1,503.5,552,502.699,552.8z M360.3,508.7
	c1,0.9,2.2,1.9,2.4,3.2c-0.6,0.5-0.7,1.5-0.7,2.301c0,1.099,0,2.199,0.6,3.1c0.2,0.399,0.501,0.7,0.8,1
	c0.801,0.9,1.7,1.799,2.601,2.699c0.5,0.501,1.101,1,1.399,1.7c0.4,0.701,0.501,1.601,0.501,2.4c0,0.3,0,0.601,0.1,0.9
	c0.3,0.8,1.3,1.2,1.5,2c1.9,0.9,3.4,2.7,4,4.8c0.3,1.201,0.4,2.5,1,3.6c0.399,0.7,1.2,1.3,1.3,2.1c0.1,0.4,0.1,0.9,0.5,1.101
	c0.101,0,0.2,0,0.4,0c1.6-0.101,3.199-0.2,4.7-0.5c0.999-0.2,2.199-0.601,3.3-0.5c1.399-0.6,2.8-1.2,4.399-1.4
	c0.9-0.1,2.2-0.3,2.4-1.299c0.1-0.701-0.5-1.401-0.5-2.1c0.1-1.4,2.399-1.7,2.7-3.1c-0.9,0.1-1.8-0.4-2.4-1.1
	c0.6-0.101,1.3-0.101,1.899-0.101c0.601,0.101,1.301,0.301,1.501,0.9c0.199,0.6-0.1,1.2-0.601,1.6c-0.399,0.4-0.999,0.7-1.399,1.201
	c-0.9,1-0.7,2.799,0.4,3.599c0.199,0.2,0.499,0.301,0.699,0.601s0.101,0.7,0.3,1c0.101,0.2,0.3,0.2,0.501,0.299
	c1.199,0.4,2.399,0.301,3.599-0.2c-0.199-0.299-0.499-0.6-0.699-0.8c-0.101-0.1-0.2-0.199-0.2-0.3c0-0.1,0-0.1,0.099-0.2
	c0.301-0.399,0.701-0.8,1.2-0.899c0.5-0.101,1.101,0.1,1.3,0.6c0.2,0.3,0.2,0.7,0.4,1s0.5,0.5,0.8,0.6c2.3,1.101,4.501,2.5,6.3,4.3
	c0.501,0.601,1.101,1.201,1.9,1.401c1.301,0.399,2.5-0.601,3.7-1.301c2.2-1.3,4.9-1.7,7.3-1.1c0.2,0.1,0.399,0.1,0.6,0.3
	c0.501,0.5-0.1,1.7,0.501,2.2c0.399,0.399,1.1,0,1.5-0.4c1.399-1.3,2.799-2.6,4.1-4.1c0.2-0.2,0.399-0.4,0.5-0.7
	c0.2-0.9-0.8-1.5-1.601-1.9c-1.199-0.699-2.3-1.7-3.3-2.6c-0.8-0.7-1.8-1.8-1.199-2.7c0.6-1,0.199-2.4-0.601-3.3
	c-0.8-0.9-1.8-1.5-2.699-2.3c-0.301-0.2-0.501-0.5-0.601-0.9c-0.101-0.399,0.1-0.9,0.3-1.3c0.301-0.8,0.399-1.6,0.2-2.399
	c-0.2-0.8-1-1.501-1.8-1.501c-1.4,0-2.201,1.7-2.201,3.101c0,0.5,0,1-0.2,1.5c-0.2,0.5-0.699,0.9-1.1,0.8
	c-0.301-0.1-0.5-0.3-0.8-0.5c-1.1-1.2-2.2-2.3-3.3-3.5c-1.8-1.9-3.8-4.3-3.3-6.9c0.399-0.3,0.9-0.499,1.4-0.499
	c0.1-1.401,0.2-2.9-0.601-4.101c-0.4-0.5-0.899-0.899-1.399-1.3c-3.4-2.801-6.101-6.5-7.7-10.6c-0.7-1.8-1.2-3.701-2.2-5.4
	s-2.8-3-4.7-2.9c-1,0-2,0.5-2.899,0.9c-2.101,1.1-4.001,2.5-5.601,4.2c-0.399,0.5-0.9,0.999-1,1.6c0,0.399,0.1,0.9,0,1.3
	c-0.1,0.4-0.399,0.7-0.6,1c-1.3,1.4-2.5,2.801-3.8,4.2c-0.501,0.6-1.101,1.2-1.8,1.6c-1.299,0.8-3,0.6-4.5,0.5
	c-4.399-0.3-8.8-0.1-13.199,0.601C358.101,506.5,359.1,507.6,360.3,508.7z M217.9,428.601c-0.5,0.099-1.3-0.4-1.7-0.601
	c-0.8-0.3-1.5-0.5-2.3-0.8c-0.6-0.2-1.2-0.4-1.9-0.5c-1.8-0.2-3.5,0.7-5.1,1.7c-2.7,1.8-5.2,4.199-8.3,5.299
	c-1.9,0.701-4.2,0.9-5.6,2.5c-1.5,1.8-1.3,4.5-2.7,6.4c-0.6,0.801-1.5,1.3-2.2,2c-2.7,2.5-2.7,7.2-0.3,9.9c1.6,1.9,4.1,2.9,6.4,3.8
	c1.1,0.399,2.1,0.8,3.3,1.1c1,0.2,2.199,0.3,3,1c0.8,0.6,1.2,1.6,1.7,2.5c0.701,1.101,1.7,2,2.7,3c0.6,0.6,1.4,1.2,2.201,0.9
	c0.4-0.1,0.699-0.4,1-0.5c1-0.4,2,0.3,3,0.8c3.6,1.7,8.1,0.1,11.8,1.8c0.6,0.301,1.3,0.7,1.9,0.7c0.5,0,0.899-0.2,1.3-0.3
	c1.8-0.801,3.4-1.9,4.8-3.2c1.4-1.4,2.6-3.1,4.4-3.7c-0.299-1.1,0.3-2.4,1.4-2.9c0.2-0.1,0.5-0.2,0.6-0.4c0.2-0.2,0.2-0.5,0.2-0.8
	c0.099-1.1,0.2-2.2,0-3.3c-0.2-1.2-0.601-2.401-0.601-3.7c0-2.7,1.8-4.9,3.3-7.1c1.5-2.201,2.8-5.101,1.5-7.401
	c-0.5-0.899-1.3-1.6-1.4-2.6c-0.1-0.4,0-0.9-0.1-1.3c-0.3-1.2-1.8-1.5-2.601-2.4c-0.4-0.5-0.6-1.3-1.1-1.8c-0.9-0.9-2.4-0.5-3.6-0.9
	c-1-0.399-1.9-1.4-3-1.4c-0.6,0-1.1,0.4-1.7,0.6c-2.7,1-5.8-1.7-8.399-0.4C218.7,426.3,219,428.5,217.9,428.601z M135.7,469.5
	c-0.7,1.7-1.2,3.5-1.3,5.301c-0.1,0.8-0.1,1.6,0.3,2.199c0.301,0.6,0.9,1,1.4,1.5c0.8,0.601,1.6,1.2,2.4,1.9c0.1,0,0.1,0.1,0.2,0.1
	c0.2,0,0.3-0.2,0.4-0.4c0.5-1.4,0.7-2.9,1.5-4.1c0.3-0.5,0.6-0.9,0.9-1.3c0.4-0.699,0.5-1.5,0.8-2.199c0.7-1.7,2.399-3.001,4.3-3.2
	c0.7-0.1,1.4,0,2.1-0.2c0.7-0.2,1.3-0.601,2-0.8c0.5-0.2,1.1-0.2,1.6-0.4c0.5-0.2,1-0.5,1.1-1.1c0.2-0.801-0.5-1.5-0.7-2.3
	c-0.2-0.7,0.1-1.5,0-2.2c0-0.3-0.1-0.6-0.1-0.8c0-0.301,0.2-0.7,0.3-1c0.5-1,1.2-2,1.9-2.9c0.4-0.5,0.9-1,1.1-1.5
	c0.3-0.6,0.2-1.3-0.2-1.8c-0.5-0.5-1.2-0.5-1.9-0.5c-1.1,0-2.4-0.301-3.4,0.3c-1.9,1.1-1.5,4.1-3.2,5.6c-1.1,0.9-2.7,0.9-4,1.5
	c-0.7,0.301-1.3,0.9-1.9,1.4c-1.1,1-2.2,1.9-3.2,2.9C137,466.4,136.3,468,135.7,469.5z"/>
<g id="fill1">
	<polygon opacity="0.69" fill="#8DC63F" enable-background="new    " points="109.3,544.9 72,609.4 72,641.6 109.3,706.1 
		202.4,706.1 248.9,625.5 202.4,544.9 	"/>
	<g opacity="0.75">
		<path fill="#8DC63F" d="M464.2,434.7h16.5v17.4h15.1v-17.4h16.5v49.4h-16.5v-17.7h-15.1v17.7h-16.5V434.7z"/>
		<path fill="#8DC63F" d="M535.101,434.4H551.5l20.8,49.7h-17.9l-2.6-6.6h-17.3l-2.5,6.6h-17.601L535.101,434.4z M547.699,465.8
			l-4.499-12l-4.5,12H547.699z"/>
		<path fill="#8DC63F" d="M565.199,434.7H582.5l7,23.7l8-23.8h14.2l8.001,23.8l6.999-23.7h17l-16.2,49.7h-14.4l-8.7-24.5l-8.7,24.5
			h-14.398L565.199,434.7z"/>
		<path fill="#8DC63F" d="M657.3,434.4h16.4l20.8,49.7h-17.9l-2.6-6.6h-17.3l-2.5,6.6H636.6L657.3,434.4z M669.8,465.8l-4.5-12
			l-4.5,12H669.8z"/>
		<path fill="#8DC63F" d="M696.6,434.7h16.5v49.4h-16.5V434.7z"/>
		<path fill="#8DC63F" d="M717.201,457.2c4.599-0.6,7.198-2.7,7.198-6.3h-6.398v-16.2h16.398V447.6c0,11.601-6.7,15-15.899,15.4
			L717.201,457.2z"/>
		<path fill="#8DC63F" d="M738.899,434.7H755.4v49.4h-16.501V434.7z"/>
	</g>
</g>
</svg>
