<?xml version="1.0" encoding="utf-8"?>
<!-- Generator: Adobe Illustrator 20.1.0, SVG Export Plug-In . SVG Version: 6.00 Build 0)  -->
<svg version="1.1" id="Layer_1" xmlns="http://www.w3.org/2000/svg" xmlns:xlink="http://www.w3.org/1999/xlink" x="0px" y="0px"
	 viewBox="0 0 720 576" style="enable-background:new 0 0 720 576;" xml:space="preserve">
<style type="text/css">
	.st0{opacity:0.17;fill:#8DC63F;}
	.st1{opacity:0.17;fill:#00A79D;}
	.st2{fill:#D1D3D4;}
	.st3{opacity:0.12;fill:#00A79D;}
	.st4{opacity:0.69;fill:#8DC63F;}
	.st5{opacity:0.43;fill:#00A79D;}
	.st6{opacity:0.24;fill:#8DC63F;}
	.st7{opacity:0.8;fill:#00A79D;}
	.st8{opacity:0.75;}
	.st9{fill:#8DC63F;}
</style>
<polygon class="st0" points="273.2,103.3 319.8,184 273.2,264.6 180.1,264.6 133.6,184 180.1,103.3 "/>
<polygon class="st1" points="416.1,21.8 462.6,102.4 416.1,183.1 323,183.1 276.4,102.4 323,21.8 "/>
<polygon id="photo2" class="st2" points="273.2,267.7 319.8,348.3 273.2,429 180.1,429 133.6,348.3 180.1,267.7 "/>
<polygon id="photo3" class="st2" points="416.1,349.9 462.6,430.5 416.1,511.2 323,511.2 276.4,430.5 323,349.9 "/>
<polygon class="st0" points="26.1,0 37.3,19.3 130.4,19.3 141.5,0 "/>
<polygon class="st1" points="0,80.9 34.2,21.7 21.7,0 0,0 "/>
<polygon class="st0" points="596.2,0 607.3,19.3 700.4,19.3 711.6,0 "/>
<polygon class="st3" points="720,55.7 700.4,21.8 607.3,21.8 560.8,102.4 607.3,183.1 700.4,183.1 720,149.2 "/>
<polygon class="st4" points="37.3,184.9 0,249.4 0,281.6 37.3,346.1 130.4,346.1 176.9,265.5 130.4,184.9 "/>
<polygon id="photo1" class="st2" points="37.3,349.9 0,414.5 0,446.6 37.3,511.2 130.4,511.2 176.9,430.5 130.4,349.9 "/>
<polygon class="st5" points="180.1,433.1 133.6,513.7 169.5,576 283.8,576 319.8,513.7 273.2,433.1 "/>
<polygon class="st6" points="465.5,433.1 418.9,513.7 454.9,576 569.2,576 605.1,513.7 558.6,433.1 "/>
<polygon class="st5" points="720,576 720,549.3 700.4,515.4 607.3,515.4 572.4,576 "/>
<path id="hawaii" class="st7" d="M561.5,338.3c-0.5-1,0.6-2.1,0.7-3.2c0.1-0.5-0.1-1-0.3-1.5c-1.8-4.6-5.4-8.3-7.1-12.9
	c-0.8-2.1-1.2-4.4-1.4-6.6c-0.3-3.1,0-6.9,2.6-8.6c2.5-1.7,5.9-0.8,8.7,0.1c3.3,1.1,7,2.4,8.8,5.4c0.3,0.5,0.5,1,0.9,1.4
	c0.6,0.6,1.4,0.9,2.2,1.2c3.8,1.5,7,4.2,10.4,6.7c0.5,0.4,1.1,0.8,1.7,0.9c0.9,0.3,2,0,2.9,0c1.9-0.1,3.8,0.6,5.6,1.2
	c2.6,0.9,5.2,1.8,7.8,2.7c6.4,2.2,12,5.7,18.1,8.7c1.5,0.7,3,1.5,4.3,2.4c0.8,0.6,1.6,1.2,2.4,1.8c1.8,1.3,3.8,2.3,5.6,3.6
	c2.2,1.7,3.8,3.8,5.5,6c1.7,2.2,3.4,4.4,5.1,6.6c0.6,0.8,0.7,2.1,0.2,3c-0.3,0.7-1,1.3-0.9,2.1c0.1,0.4,0.3,0.7,0.5,1
	c0.7,1.3,0.3,3,0.2,4.5c-0.1,1.5,0.3,3.4,1.7,3.8c1.8,0.6,3.7-1.6,5.6-1.1c0.7,0.2,1.2,0.7,1.7,1.2c1.3,1.3,2.7,2.7,3,4.5
	c0.3,1.4-0.1,2.9-0.1,4.3c0,1.4,0.7,3.1,2.1,3.4c0.3,0.1,0.7,0.1,1,0.3c0.2,0.2,0.3,0.6,0.3,0.9c0.3,1.8,1.8,3,3.3,4.1
	c2,1.5,4,3,6.3,3.9c1.2,0.5,2.5,0.7,3.5,1.5c1.8,1.2,2.7,3.7,2.3,5.9c-0.4,2.2-2,4-4,5.1c-4.1,2.2-7.1,5.9-10.5,8.9
	c-3.5,3.1-7.3,5.9-11.8,6.9c-0.9,0.2-1.8,0.3-2.7,0.6c-1.6,0.6-2.9,1.8-4.2,2.7c-2.1,1.5-4.5,2.7-7,3.4c-0.9,0.2-1.9,0.4-2.9,0.4
	c-1.1-0.1-2.1-0.5-3.2-0.8c-2.4-0.6-5-0.4-7.5-0.1c-0.4,0-0.7,0.1-1,0.3c-0.4,0.3-0.6,0.8-0.9,1.2c-1,1.5-3.2,1.9-4.3,3.3
	c-0.5,0.6-0.7,1.4-1.2,1.9c-0.9,1.1-2.5,1.4-3.9,1.6c-4.3,0.6-6.2,7.3-10.5,7.6c-0.6,0-1.2,0-1.7,0.2c-0.5,0.2-0.9,0.5-1.3,0.9
	c-2.5,2.3-5.2,5.1-4.7,8.4c0.1,0.4,0.2,0.9,0,1.3c-0.2,0.6-0.8,0.9-1.3,1.2c-1.7,1-2.9,2.9-3.1,4.9c-0.1,0.9-0.1,2.1-0.8,2.6
	c-0.4,0.3-1,0.3-1.5,0.5c-0.8,0.4-1.1,1.3-1.5,2.1c-1.3,2.3-3.7,3.6-6,4.9c-0.9-1.2-1.5-2.7-2.5-3.8c-1.1-1.3-2.5-2.2-3.9-3.1
	c-1.7-1-3.3-2.1-5-3c-2.3-1.3-4.8-2.4-7.3-3.3c-2-0.7-4.4-1.5-5.2-3.5c-0.3-0.8-0.4-1.6-0.8-2.3c-0.4-0.7-1.1-1.1-1.6-1.8
	c-0.4-0.6-0.6-1.3-0.7-2.1c-0.9-4.9-0.2-10,2.1-14.4c-1.4-3.5,0.7-7.5,0.9-11.2c0.2-3.5-1.3-6.8-2.4-10.1c-1-2.9-1.7-5.8-2.2-8.8
	c-1.1-1-2.2-1.2-2.7-3.1c-0.3-1-0.2-3.4-0.6-4.3c-1.1-2.7-0.9-7.1-4.4-11.7c-0.6-0.7-1.1-1.5-2-1.7c-0.4-0.1-0.9-0.1-1.3-0.4
	c-1.2-0.8-0.4-2.9-1.2-4.1c-0.4-0.5-1-0.8-1.3-1.4c-0.5-0.8,0-1.9-0.3-2.8c-0.2-0.5-0.5-0.8-0.7-1.3c-0.2-0.5-0.1-1.1,0-1.6
	c0.2-1.7,0.5-3.4,1.2-4.9s2.1-2.9,3.8-3.2c1.3-0.2,1.7-1.9,2.5-2.9c1-1.3,2.7-2.2,4.3-2.4c0.8-0.1,1.6,0,2.3-0.3
	c0.7-0.3,1.3-1.2,0.9-1.9c-0.1-0.2-0.2-0.3-0.3-0.5c-0.2-0.5,0.4-0.9,0.8-1.3c1.3-1.1,1.4-3.1,2.2-4.7
	C555.2,342.2,559.4,340.8,561.5,338.3z M473,265.5c-0.7,0.2-1.5,0.4-2,1c-0.2,0.2-0.3,0.5-0.5,0.7c-0.5,0.9-1.3,1.7-2.3,1.8
	c-0.4,0-0.8-0.1-1.2-0.1c-0.6,0-1.1,0.2-1.5,0.6c-0.5,0.5-0.6,1.2-1.1,1.6c-0.4,0.4-1,0.7-1.5,0.9c0.7,0.4,1.2,0.9,1.6,1.6
	c0.2,0.3,0.3,0.6,0.6,0.9c0.3,0.2,0.7,0.3,1,0.4c1.3,0.3,2.7,0.6,4,0.4c0.9-0.1,1.7-0.5,2.6-0.8c0.3-0.1,0.5-0.2,0.8-0.3
	c0.1,0,0.2-0.1,0.3-0.2c0.1-0.1,0.1-0.2,0.2-0.3c0.2-0.3,0.7-0.4,1-0.2c0.6,0.3,0.5,1.3,1.1,1.6c0.5,0.3,1.1-0.1,1.5-0.4
	c0.5-0.4,1.1-0.8,1.8-0.7c0.4,0.1,0.8,0.3,1.2,0.2c0.5-0.1,0.8-0.5,0.9-0.9c0.1-0.4,0.1-0.9,0-1.4c-0.4-0.4-1.1-0.5-1.6-0.5
	c0.1-0.7,0.3-1.3,0.4-2c0.1-0.4,0.2-0.9,0.6-1.1c0.3-0.2,0.9-0.3,1-0.7c0-0.2-0.1-0.4-0.3-0.6c-0.8-0.9-1.6-1.9-2.4-2.8
	c-0.2-0.2-0.3-0.4-0.5-0.5c-0.4-0.2-0.9-0.3-1.3-0.3c-0.4,0-0.8,0.1-1.2,0.2c-0.3,0.1-0.5,0.3-0.7,0.5
	C474.8,264.8,473.9,265.2,473,265.5z M489.6,241.7c0.1,0.1,0.3,0.2,0.4,0.3c0.1,0.1,0.1,0.3,0.1,0.4c0.2,1.3,0.3,2.6,0.8,3.8
	c0.4,1,1.2,1.9,1.4,3c0.3,1.5-0.4,3.3,0.5,4.5c-0.1,0.1-0.2,0.4-0.3,0.5c0.1,1,0.1,2,0.2,3c0,0.3,0,0.5-0.1,0.8
	c-0.2,0.3-0.7,0.5-0.8,0.8c-0.1,0.2,0,0.5-0.1,0.8c-0.1,0.2-0.2,0.3-0.2,0.5c0,0.1,0.1,0.2,0.2,0.2c0.4,0.4,0.9,0.8,1.3,1.2
	c0.1,0.1,0.2,0.2,0.3,0.3c0.1,0.1,0,0.3,0,0.5c-0.1,0.2-0.1,0.5-0.1,0.7c0,0.2,0.1,0.5,0.4,0.6c0.1,0.1,0.3,0,0.5,0.1
	c0.7,0.1,1.1,0.8,1.7,1.3c0.6,0.5,1.4,0.8,2.1,1c0.9,0.3,1.8,0.5,2.8,0.5c0.7,0,1.3-0.2,2-0.4c2.6-0.5,5.4,0,7.9-0.8
	c1.5-0.5,2.7-1.6,4.1-2.4c0.9-0.6,1.8-1,2.8-1.4c1.4-0.6,2.9-1,4.3-0.7c0.3,0.1,0.6,0.2,0.9,0.3c0.3,0.1,0.7,0.1,1,0.1
	c1,0,2.1,0.1,3.1,0.1c0.3,0,0.6,0,0.9-0.1c0.4-0.2,0.6-0.6,0.9-1c0.8-0.9,2-1.3,3.2-1.6c1.7-0.4,3.5-0.9,5.2-1c0.2,0,0.4,0,0.6-0.1
	c0.2-0.1,0.2-0.4,0.3-0.6c0.3-1,1-1.7,1.9-2.2c1.7-0.9,3.6-2,4.5-3.7c1.1-2.1,0.6-4.6,0.1-6.8c-0.2-1-0.5-2-1.2-2.8
	c-0.5-0.6-1.3-0.9-2.1-1.3c-2.4-1.1-4.9-2.1-7.3-3.2c-0.5-0.2-1-0.4-1.5-0.4c-0.4,0-0.8,0.1-1.2,0c-0.7-0.1-1.3-0.7-1.8-1.3
	c-0.7-0.8-1.4-1.6-2.1-2.4c-0.3-0.3-0.6-0.7-1-0.8c-0.5-0.2-1.1-0.1-1.6-0.2c-0.6-0.1-1.1-0.6-1.6-1c-0.8-0.7-1.5-1.4-2.3-2.1
	c-0.6-0.5-1.2-1.1-1.8-1.6c-0.8-0.7-1.6-1.4-2.3-2.2c-1-1.2-2.9-0.8-4.3-1.3c-0.5-0.2-0.9-0.4-1.4-0.6c-1.6-0.7-3.5-0.4-5.2-0.1
	c-0.9,0.2-1.8,0.3-2.7,0.7c-0.7,0.3-1.4,0.7-2.1,1.1c-2.1,1.1-4.4,1.8-6.6,2.6c-1.3,0.4-2.5,0.8-3.8,1.3c-0.2,0.1-0.5,0.2-0.7,0.1
	c-0.4,0-0.7-0.3-0.9-0.6c-1.3-1.5-1.9-3.5-3.2-4.9c-0.9-0.9-2-1.6-2.3-2.8c-0.2-0.9,0.1-1.9-0.4-2.6c-0.2-0.3-0.6-0.5-0.9-0.7
	c-0.8-0.6-1.3-1.6-2.1-2.3c-1.2-1-2.9-0.9-4.2-1.7c-0.5-0.3-1-0.7-1.6-0.9c-0.5-0.1-1.1,0-1.6,0.1c-1.3,0.3-2.8,0.7-3.5,1.9
	c-0.3,0.5-0.5,1.2-0.7,1.8c-0.8,1.7-2.6,2.6-3.4,4.2c-1.1,1.9,0.1,4.4-0.1,6.6c-0.1,1.5,0.1,3.1,0.7,4.5c0.2,0.2,0.3,0.4,0.4,0.4
	c2.1,1.3,2.9,3.9,4.8,5.5c0.3,0.3,0.7,0.5,0.9,0.9c0.1,0.2,0.2,0.5,0.4,0.7c0.3,0.4,0.8,0.4,1.3,0.5c0.8,0.1,1.7,0.3,2.5,0.7
	c0.6,0.3,1.2,0.8,1.8,1.1c0.6,0.3,1.3,0.5,1.9,0.8c0.7,0.3,1.4,0.8,2.2,0.9c1.1,0.1,2.1-0.6,2.9-1.4c0.3-0.3,0.6-0.7,1-0.9
	c0.4-0.2,0.9-0.3,1.3,0C487.6,240.8,488.7,241.2,489.6,241.7z M426,224.6c-0.6,0.1-1.2,0.2-1.7,0.5c-0.5,0.3-1,0.7-1.2,1.2
	c-0.4,1.2-0.3,2.5,0.2,3.7c0.5,1.1,1.5,2.1,2.7,2.5c0.7,0.3,1.4,0.4,2,0.8c0.5,0.3,0.8,0.8,1.1,1.3c0.4,0.6,0.8,1.2,1.2,1.8
	c0.2,0.3,0.4,0.5,0.4,0.8c0.1,0.5,0,1-0.1,1.5c-0.3,1.3-0.4,2.7-0.1,4.1c0.3,1.3,0.9,2.6,2,3.5c0.3,0.2,0.5,0.4,0.8,0.6
	c0.2,0.2,0.4,0.6,0.7,0.7c0.4,0.3,1,0.2,1.5,0.2c1.9-0.2,3.9-0.4,5.8-0.6c0.4,0,0.7-0.1,1.1-0.2c0.6-0.2,1-0.7,1.5-1.1
	c0.9-0.6,2.1-0.9,3.1-1.1c1.6-0.3,2.6-1.8,3.4-3.2c0.5-1,1-2.1,1.1-3.2c0.1-1.3-0.4-2.6-1.1-3.7c-0.7-1.1-1.6-2.1-2.5-3
	c-1.9-2-3.9-4.1-6.2-5.7c-0.3-0.2-0.7-0.5-1.1-0.6c-0.6-0.3-1.3-0.3-1.9-0.4c-1.6-0.2-3.2-0.4-4.8-0.5c-0.9-0.1-1.8-0.1-2.6-0.4
	C429.7,223.5,427.6,224.3,426,224.6z M430.7,192.8c-0.9,0.9-3.2,0.2-4.3,0.1c-3.9-0.4-7.8-0.7-11.7-1.1c-2.1-0.2-4.3-0.4-6.3-1.2
	c-0.7-0.3-1.3-0.6-2-0.8c-1.9-0.6-4-0.5-6-0.3c0.9,1.5,1.3,3.5,0.3,4.9c-0.4,0.6-1,1-1.6,1.5c-1.8,1.5-3,3.7-4.2,5.7
	c-0.2,0.4-0.4,0.8-0.3,1.2c0.2,0.6,0.9,0.8,1.5,1c6.2,1.2,12.7,1.1,18.8-0.2c1.7-0.4,3.4-0.8,5.1-0.8c3.5,0,6.5,2.1,9.8,3.3
	c2.2,0.8,4.5,1.4,6.8,1.9c1.6,0.3,3.1,0.7,4.7,1c0.5,0.1,1,0.2,1.5,0.2c0.5,0,1.1-0.2,1.6-0.3c2.1-0.5,4.3-0.6,6.4-1.3
	c1.7-0.6,3.2-1.7,4.6-2.7c2.7-1.9,5.5-4,6.4-7.2c0.1-0.4,0.2-0.8-0.1-1.1c-0.4-0.4-1.2-0.1-1.7-0.3c-0.3-0.1-0.6-0.4-0.8-0.7
	c-1.3-1.4-3.5-1.5-5.5-1.2c-2.3,0.3-4.4,1-6.7,1.4s-4.6,0.5-6.7-0.4c-1.2-0.5-2.6-1.3-3.7-0.5c-0.8-0.7-1.5-1.6-1.9-2.6
	c-0.2-0.6-0.4-1.2-0.7-1.6c-0.3-0.5-0.9-0.9-1.5-0.7C431.1,190.1,431.5,192,430.7,192.8z M288.3,148.7c1,0.9,2.2,1.9,2.4,3.2
	c-0.6,0.5-0.7,1.5-0.7,2.3c0,1.1,0,2.2,0.6,3.1c0.2,0.4,0.5,0.7,0.8,1c0.8,0.9,1.7,1.8,2.6,2.7c0.5,0.5,1.1,1,1.4,1.7
	c0.4,0.7,0.5,1.6,0.5,2.4c0,0.3,0,0.6,0.1,0.9c0.3,0.8,1.3,1.2,1.5,2c1.9,0.9,3.4,2.7,4,4.8c0.3,1.2,0.4,2.5,1,3.6
	c0.4,0.7,1.2,1.3,1.3,2.1c0.1,0.4,0.1,0.9,0.5,1.1c0.1,0,0.2,0,0.4,0c1.6-0.1,3.2-0.2,4.7-0.5c1-0.2,2.2-0.6,3.3-0.5
	c1.4-0.6,2.8-1.2,4.4-1.4c0.9-0.1,2.2-0.3,2.4-1.3c0.1-0.7-0.5-1.4-0.5-2.1c0.1-1.4,2.4-1.7,2.7-3.1c-0.9,0.1-1.8-0.4-2.4-1.1
	c0.6-0.1,1.3-0.1,1.9-0.1c0.6,0.1,1.3,0.3,1.5,0.9c0.2,0.6-0.1,1.2-0.6,1.6c-0.4,0.4-1,0.7-1.4,1.2c-0.9,1-0.7,2.8,0.4,3.6
	c0.2,0.2,0.5,0.3,0.7,0.6c0.2,0.3,0.1,0.7,0.3,1c0.1,0.2,0.3,0.2,0.5,0.3c1.2,0.4,2.4,0.3,3.6-0.2c-0.2-0.3-0.5-0.6-0.7-0.8
	c-0.1-0.1-0.2-0.2-0.2-0.3c0-0.1,0-0.1,0.1-0.2c0.3-0.4,0.7-0.8,1.2-0.9c0.5-0.1,1.1,0.1,1.3,0.6c0.2,0.3,0.2,0.7,0.4,1
	c0.2,0.3,0.5,0.5,0.8,0.6c2.3,1.1,4.5,2.5,6.3,4.3c0.5,0.6,1.1,1.2,1.9,1.4c1.3,0.4,2.5-0.6,3.7-1.3c2.2-1.3,4.9-1.7,7.3-1.1
	c0.2,0.1,0.4,0.1,0.6,0.3c0.5,0.5-0.1,1.7,0.5,2.2c0.4,0.4,1.1,0,1.5-0.4c1.4-1.3,2.8-2.6,4.1-4.1c0.2-0.2,0.4-0.4,0.5-0.7
	c0.2-0.9-0.8-1.5-1.6-1.9c-1.2-0.7-2.3-1.7-3.3-2.6c-0.8-0.7-1.8-1.8-1.2-2.7c0.6-1,0.2-2.4-0.6-3.3c-0.8-0.9-1.8-1.5-2.7-2.3
	c-0.3-0.2-0.5-0.5-0.6-0.9c-0.1-0.4,0.1-0.9,0.3-1.3c0.3-0.8,0.4-1.6,0.2-2.4s-1-1.5-1.8-1.5c-1.4,0-2.2,1.7-2.2,3.1
	c0,0.5,0,1-0.2,1.5c-0.2,0.5-0.7,0.9-1.1,0.8c-0.3-0.1-0.5-0.3-0.8-0.5c-1.1-1.2-2.2-2.3-3.3-3.5c-1.8-1.9-3.8-4.3-3.3-6.9
	c0.4-0.3,0.9-0.5,1.4-0.5c0.1-1.4,0.2-2.9-0.6-4.1c-0.4-0.5-0.9-0.9-1.4-1.3c-3.4-2.8-6.1-6.5-7.7-10.6c-0.7-1.8-1.2-3.7-2.2-5.4
	s-2.8-3-4.7-2.9c-1,0-2,0.5-2.9,0.9c-2.1,1.1-4,2.5-5.6,4.2c-0.4,0.5-0.9,1-1,1.6c0,0.4,0.1,0.9,0,1.3c-0.1,0.4-0.4,0.7-0.6,1
	c-1.3,1.4-2.5,2.8-3.8,4.2c-0.5,0.6-1.1,1.2-1.8,1.6c-1.3,0.8-3,0.6-4.5,0.5c-4.4-0.3-8.8-0.1-13.2,0.6
	C286.1,146.5,287.1,147.6,288.3,148.7z M145.9,68.6c-0.5,0.1-1.3-0.4-1.7-0.6c-0.8-0.3-1.5-0.5-2.3-0.8c-0.6-0.2-1.2-0.4-1.9-0.5
	c-1.8-0.2-3.5,0.7-5.1,1.7c-2.7,1.8-5.2,4.2-8.3,5.3c-1.9,0.7-4.2,0.9-5.6,2.5c-1.5,1.8-1.3,4.5-2.7,6.4c-0.6,0.8-1.5,1.3-2.2,2
	c-2.7,2.5-2.7,7.2-0.3,9.9c1.6,1.9,4.1,2.9,6.4,3.8c1.1,0.4,2.1,0.8,3.3,1.1c1,0.2,2.2,0.3,3,1c0.8,0.6,1.2,1.6,1.7,2.5
	c0.7,1.1,1.7,2,2.7,3c0.6,0.6,1.4,1.2,2.2,0.9c0.4-0.1,0.7-0.4,1-0.5c1-0.4,2,0.3,3,0.8c3.6,1.7,8.1,0.1,11.8,1.8
	c0.6,0.3,1.3,0.7,1.9,0.7c0.5,0,0.9-0.2,1.3-0.3c1.8-0.8,3.4-1.9,4.8-3.2c1.4-1.4,2.6-3.1,4.4-3.7c-0.3-1.1,0.3-2.4,1.4-2.9
	c0.2-0.1,0.5-0.2,0.6-0.4c0.2-0.2,0.2-0.5,0.2-0.8c0.1-1.1,0.2-2.2,0-3.3c-0.2-1.2-0.6-2.4-0.6-3.7c0-2.7,1.8-4.9,3.3-7.1
	s2.8-5.1,1.5-7.4c-0.5-0.9-1.3-1.6-1.4-2.6c-0.1-0.4,0-0.9-0.1-1.3c-0.3-1.2-1.8-1.5-2.6-2.4c-0.4-0.5-0.6-1.3-1.1-1.8
	c-0.9-0.9-2.4-0.5-3.6-0.9c-1-0.4-1.9-1.4-3-1.4c-0.6,0-1.1,0.4-1.7,0.6c-2.7,1-5.8-1.7-8.4-0.4C146.7,66.3,147,68.5,145.9,68.6z
	 M63.7,109.5c-0.7,1.7-1.2,3.5-1.3,5.3c-0.1,0.8-0.1,1.6,0.3,2.2c0.3,0.6,0.9,1,1.4,1.5c0.8,0.6,1.6,1.2,2.4,1.9
	c0.1,0,0.1,0.1,0.2,0.1c0.2,0,0.3-0.2,0.4-0.4c0.5-1.4,0.7-2.9,1.5-4.1c0.3-0.5,0.6-0.9,0.9-1.3c0.4-0.7,0.5-1.5,0.8-2.2
	c0.7-1.7,2.4-3,4.3-3.2c0.7-0.1,1.4,0,2.1-0.2c0.7-0.2,1.3-0.6,2-0.8c0.5-0.2,1.1-0.2,1.6-0.4c0.5-0.2,1-0.5,1.1-1.1
	c0.2-0.8-0.5-1.5-0.7-2.3c-0.2-0.7,0.1-1.5,0-2.2c0-0.3-0.1-0.6-0.1-0.8c0-0.3,0.2-0.7,0.3-1c0.5-1,1.2-2,1.9-2.9
	c0.4-0.5,0.9-1,1.1-1.5c0.3-0.6,0.2-1.3-0.2-1.8c-0.5-0.5-1.2-0.5-1.9-0.5c-1.1,0-2.4-0.3-3.4,0.3c-1.9,1.1-1.5,4.1-3.2,5.6
	c-1.1,0.9-2.7,0.9-4,1.5c-0.7,0.3-1.3,0.9-1.9,1.4c-1.1,1-2.2,1.9-3.2,2.9C65,106.4,64.3,108,63.7,109.5z"/>
<g class="st8">
	<path class="st9" d="M392.2,74.7h16.5v17.4h15.1V74.7h16.5v49.4h-16.5v-17.7h-15.1v17.7h-16.5V74.7z"/>
	<path class="st9" d="M463.1,74.4h16.4l20.8,49.7h-17.9l-2.6-6.6h-17.3l-2.5,6.6h-17.6L463.1,74.4z M475.7,105.8l-4.5-12l-4.5,12
		H475.7z"/>
	<path class="st9" d="M493.2,74.7h17.3l7,23.7l8-23.8h14.2l8,23.8l7-23.7h17l-16.2,49.7h-14.4l-8.7-24.5l-8.7,24.5h-14.4L493.2,74.7
		z"/>
	<path class="st9" d="M585.3,74.4h16.4l20.8,49.7h-17.9l-2.6-6.6h-17.3l-2.5,6.6h-17.6L585.3,74.4z M597.8,105.8l-4.5-12l-4.5,12
		H597.8z"/>
	<path class="st9" d="M624.6,74.7h16.5v49.4h-16.5V74.7z"/>
	<path class="st9" d="M645.2,97.2c4.6-0.6,7.2-2.7,7.2-6.3H646V74.7h16.4v12.9c0,11.6-6.7,15-15.9,15.4L645.2,97.2z"/>
	<path class="st9" d="M666.9,74.7h16.5v49.4h-16.5V74.7z"/>
</g>
</svg>
