<?xml version="1.0" encoding="utf-8"?>
<!-- Generator: Adobe Illustrator 14.0.0, SVG Export Plug-In . SVG Version: 6.00 Build 43363)  -->
<!DOCTYPE svg PUBLIC "-//W3C//DTD SVG 1.1//EN" "http://www.w3.org/Graphics/SVG/1.1/DTD/svg11.dtd">
<svg version="1.1" id="Layer_1" xmlns="http://www.w3.org/2000/svg" xmlns:xlink="http://www.w3.org/1999/xlink" x="0px" y="0px"
	 width="1296px" height="864px" viewBox="0 0 1296 864" enable-background="new 0 0 1296 864" xml:space="preserve">
<g id="strokecrazies">
	<path fill="none" stroke="#6EA6B8" stroke-width="4" d="M698.912,752.813c-6.596,0-12.201-2.308-16.817-6.925
		c-4.617-4.616-6.925-10.195-6.925-16.738v-54.131c0-6.594,2.321-12.199,6.965-16.816c4.642-4.616,10.234-6.925,16.777-6.925
		c6.595,0,12.188,2.322,16.777,6.964c4.59,4.644,6.885,10.236,6.885,16.777v11.317h-15.511v-11.634c0-2.374-0.845-4.404-2.532-6.094
		c-1.689-1.688-3.72-2.532-6.094-2.532c-2.375,0-4.393,0.845-6.055,2.532c-1.662,1.689-2.492,3.72-2.492,6.094v54.289
		c0,2.374,0.83,4.393,2.492,6.055c1.662,1.661,3.68,2.492,6.055,2.492c2.374,0,4.404-0.831,6.094-2.492
		c1.688-1.662,2.532-3.681,2.532-6.055v-13.69h15.511v13.849c0,6.596-2.322,12.188-6.964,16.777
		C710.967,750.518,705.401,752.813,698.912,752.813z"/>
	<path fill="none" stroke="#6EA6B8" stroke-width="4" d="M758.422,652.385c8.335,0,14.455,2.296,18.36,6.886
		c3.429,4.01,5.144,9.603,5.144,16.777v14.403c0,7.018-2.665,12.952-7.993,17.806l11.078,43.289h-16.175l-9.069-37.354
		c-0.423,0-0.87,0-1.345,0h-8.626v37.354h-14.958v-99.161H758.422z M767.364,676.285c0-5.75-2.849-8.626-8.547-8.626h-9.021v31.734
		h9.021c2.374,0,4.393-0.844,6.054-2.532c1.662-1.688,2.493-3.72,2.493-6.094V676.285z"/>
	<path fill="none" stroke="#6EA6B8" stroke-width="4" d="M816.249,728.754l-3.635,22.792H797.04l16.858-99.161h20.574l16.618,99.161
		h-15.727l-3.499-22.792H816.249z M824.105,675.098l-5.539,39.095h11.079L824.105,675.098z"/>
	<path fill="none" stroke="#6EA6B8" stroke-width="4" d="M905.063,652.385v15.037l-27.541,69.246h27.541v14.878h-43.685v-14.972
		l27.62-69.231l-27.62,0.079v-15.037H905.063z"/>
	<path fill="none" stroke="#6EA6B8" stroke-width="4" d="M932.445,751.546h-14.958v-99.161h14.958V751.546z"/>
	<path fill="none" stroke="#6EA6B8" stroke-width="4" d="M945.818,751.546v-99.24h42.577v15.037h-27.619v27.065h20.18v15.036h-20.18
		v27.065h27.619v15.036H945.818z"/>
	<path fill="none" stroke="#6EA6B8" stroke-width="4" d="M1048.144,726.854c0.105,6.912-1.688,12.82-5.381,17.728
		c-2.428,3.323-5.856,5.672-10.288,7.043c-2.374,0.738-5.145,1.108-8.31,1.108c-5.856,0-10.711-1.451-14.562-4.354
		c-3.219-2.374-5.765-5.604-7.637-9.694c-1.874-4.088-2.968-8.771-3.285-14.047l14.245-1.028c0.634,5.78,2.163,9.97,4.59,12.567
		c1.794,1.963,3.851,2.892,6.173,2.785c3.271-0.105,5.883-1.717,7.835-4.832c1.002-1.531,1.504-3.723,1.504-6.574
		c0-4.118-1.873-8.212-5.619-12.277c-2.955-2.798-7.387-6.996-13.295-12.594c-4.96-4.806-8.468-9.11-10.525-12.912
		c-2.216-4.277-3.324-8.924-3.324-13.94c0-9.029,3.033-15.869,9.102-20.516c3.745-2.799,8.389-4.198,13.928-4.198
		c5.328,0,9.893,1.187,13.691,3.562c2.954,1.847,5.342,4.432,7.162,7.755c1.82,3.324,2.914,7.15,3.284,11.476l-14.324,2.611
		c-0.423-4.062-1.583-7.228-3.482-9.496c-1.372-1.635-3.351-2.454-5.936-2.454c-2.743,0-4.827,1.215-6.252,3.641
		c-1.161,1.952-1.74,4.38-1.74,7.281c0,4.538,1.951,9.153,5.855,13.849c1.477,1.794,3.692,3.905,6.648,6.331
		c3.481,2.902,5.776,4.934,6.885,6.094c3.692,3.693,6.541,7.334,8.547,10.921c0.949,1.689,1.714,3.245,2.295,4.67
		C1047.353,720.894,1048.091,724.059,1048.144,726.854z"/>
</g>
<g id="fillwords">
	<g>
		<path fill="#003E57" d="M702.801,199.563v68.52h-24.388V106.397h24.388v68.648h29.421v-68.648h24.389v161.686h-24.389v-68.52
			H702.801z"/>
		<path fill="#003E57" d="M816.74,104.333c10.753,0,19.893,3.786,27.421,11.355c7.526,7.571,11.291,16.69,11.291,27.356v88.263
			c0,10.754-3.786,19.894-11.355,27.42c-7.571,7.529-16.69,11.291-27.356,11.291c-10.754,0-19.872-3.785-27.355-11.355
			c-7.484-7.569-11.227-16.688-11.227-27.356v-88.263c0-10.752,3.784-19.892,11.355-27.421
			C797.082,108.097,806.159,104.333,816.74,104.333z M830.031,142.528c0-3.871-1.354-7.162-4.064-9.872
			c-2.71-2.709-6-4.064-9.871-4.064s-7.185,1.355-9.937,4.064c-2.754,2.71-4.129,6-4.129,9.872v88.521
			c0,3.871,1.375,7.162,4.129,9.872c2.752,2.71,6.065,4.064,9.937,4.064s7.161-1.354,9.871-4.064s4.064-6,4.064-9.872V142.528z"/>
		<path fill="#003E57" d="M901.257,268.083h-24.388V106.268h34.997l22.729,116.24l21.817-116.24h33.623v161.814h-24.389V166.4
			l-21.16,101.683h-19.614l-23.616-101.424V268.083z"/>
		<path fill="#003E57" d="M1011.842,268.083V106.268h69.423v24.517h-45.035v44.131h32.905v24.518h-32.905v44.131h45.035v24.518
			H1011.842z"/>
	</g>
	<g>
		<path fill="#003E57" d="M1139.199,268.083h-24.388V106.397h24.388V268.083z"/>
		<path fill="#003E57" d="M1240.236,227.822c0.171,11.271-2.755,20.904-8.775,28.905c-3.957,5.42-9.549,9.249-16.774,11.484
			c-3.871,1.204-8.388,1.807-13.55,1.807c-9.549,0-17.464-2.365-23.742-7.097c-5.249-3.871-9.4-9.14-12.453-15.807
			c-3.054-6.666-4.839-14.301-5.354-22.904l23.227-1.678c1.032,9.426,3.526,16.257,7.484,20.493c2.924,3.2,6.278,4.714,10.065,4.541
			c5.333-0.171,9.591-2.799,12.774-7.879c1.633-2.496,2.452-6.069,2.452-10.718c0-6.716-3.055-13.39-9.162-20.019
			c-4.818-4.563-12.045-11.408-21.679-20.536c-8.087-7.835-13.807-14.854-17.162-21.053c-3.613-6.974-5.419-14.551-5.419-22.731
			c0-14.723,4.945-25.875,14.839-33.451c6.107-4.563,13.679-6.845,22.711-6.845c8.688,0,16.13,1.936,22.323,5.807
			c4.817,3.012,8.711,7.226,11.679,12.646c2.968,5.419,4.752,11.658,5.354,18.71l-23.355,4.258
			c-0.689-6.624-2.581-11.785-5.678-15.485c-2.238-2.666-5.464-4-9.678-4c-4.475,0-7.872,1.98-10.194,5.936
			c-1.894,3.184-2.839,7.142-2.839,11.872c0,7.4,3.182,14.926,9.549,22.582c2.407,2.925,6.021,6.367,10.839,10.323
			c5.678,4.732,9.42,8.045,11.227,9.936c6.021,6.022,10.666,11.958,13.937,17.808c1.548,2.754,2.794,5.291,3.742,7.613
			C1238.945,218.102,1240.149,223.264,1240.236,227.822z"/>
	</g>
	<g>
		<path fill="#003E57" d="M746.094,326.256h17.93l-17.715,113.249H730.04l-9.741-62.309l-9.091,62.309h-16.344l-18.963-113.249
			h17.896l8.947,60.646l8.227-60.646h17.895l8.939,60.595L746.094,326.256z"/>
		<path fill="#003E57" d="M795.474,391.512v47.993h-17.082V326.256h17.082v48.083h20.607v-48.083h17.082v113.249h-17.082v-47.993
			H795.474z"/>
		<path fill="#003E57" d="M848.436,439.505V326.166h48.625v17.172h-31.543v30.911h23.048v17.173h-23.048v30.911h31.543v17.172
			H848.436z"/>
		<path fill="#003E57" d="M935.744,326.256c9.52,0,16.509,2.621,20.969,7.863c3.916,4.58,5.875,10.967,5.875,19.161v16.449
			c0,8.014-3.044,14.793-9.129,20.336l12.652,49.439h-18.474l-10.357-42.661c-0.482,0-0.994,0-1.536,0h-9.852v42.661h-17.082
			V326.256H935.744z M945.957,353.551c0-6.567-3.254-9.852-9.761-9.852h-10.304v36.243h10.304c2.711,0,5.016-0.963,6.914-2.893
			c1.898-1.927,2.847-4.248,2.847-6.959V353.551z"/>
		<path fill="#003E57" d="M980.752,439.505V326.166h48.625v17.172h-31.543v30.911h23.048v17.173h-23.048v30.911h31.543v17.172
			H980.752z"/>
		<path fill="#003E57" d="M1061.372,439.505l-20.244-113.249h17.904l14.216,88.276l14.316-88.276h17.914l-20.606,113.249H1061.372z"
			/>
		<path fill="#003E57" d="M1119.758,439.505V326.166h48.625v17.172h-31.543v30.911h23.048v17.173h-23.048v30.911h31.543v17.172
			H1119.758z"/>
		<path fill="#003E57" d="M1207.065,326.256c9.52,0,16.509,2.621,20.969,7.863c3.916,4.58,5.875,10.967,5.875,19.161v16.449
			c0,8.014-3.044,14.793-9.129,20.336l12.652,49.439h-18.474l-10.357-42.661c-0.482,0-0.994,0-1.536,0h-9.852v42.661h-17.082
			V326.256H1207.065z M1217.278,353.551c0-6.567-3.254-9.852-9.761-9.852h-10.304v36.243h10.304c2.711,0,5.016-0.963,6.914-2.893
			c1.898-1.927,2.847-4.248,2.847-6.959V353.551z"/>
	</g>
	<g>
		<g>
			<path fill="#003E57" d="M689.658,593.735h-14.607v-96.924h20.962l13.614,69.625l13.068-69.625h20.14v96.924h-14.608V532.83
				l-12.675,60.905h-11.748l-14.146-60.751V593.735z"/>
			<path fill="#003E57" d="M774.138,553.157l-19.555-56.346h16.076l10.82,34.781l10.744-34.781h16.153l-19.632,56.346v40.578
				h-14.607V553.157z"/>
			<path fill="#003E57" d="M828.472,593.735v-96.924h21.873c5.771,0,10.976,1.521,15.613,4.561c3.967,2.577,6.801,6.57,8.502,11.98
				c0.927,2.886,1.391,6.313,1.391,10.279c0,6.493-1.727,11.698-5.179,15.613c-1.442,1.649-3.144,2.911-5.101,3.787
				c3.246,1.236,6.002,3.685,8.27,7.343c1.494,2.474,2.602,5.669,3.324,9.584c0.359,2.01,0.541,4.251,0.541,6.725
				c0,6.133-1.159,11.336-3.479,15.612c-1.804,3.351-4.354,6.029-7.651,8.039c-3.71,2.268-7.395,3.4-11.053,3.4H828.472z
				 M844.238,536.385h6.106c4.533,0,7.574-2.215,9.12-6.646c0.566-1.648,0.851-3.684,0.851-6.106c0-4.019-0.979-7.059-2.938-9.12
				c-1.804-1.905-4.148-2.859-7.033-2.859h-6.106V536.385z M844.238,579.282h6.106c4.946,0,8.373-2.551,10.279-7.652
				c0.67-1.751,1.005-3.761,1.005-6.028c0-5.411-1.031-9.353-3.092-11.826c-1.854-2.267-4.586-3.4-8.192-3.4h-6.106V579.282z"/>
			<path fill="#003E57" d="M913.335,594.817c-6.441,0-11.902-2.241-16.386-6.725c-4.482-4.482-6.724-9.918-6.724-16.309V496.89
				h14.299v74.74c0,2.319,0.823,4.29,2.473,5.913c1.648,1.623,3.633,2.435,5.952,2.435c2.318,0,4.289-0.812,5.912-2.435
				s2.435-3.594,2.435-5.913v-74.74h15.227v74.895c0,6.493-2.268,11.955-6.802,16.386
				C925.187,592.603,919.724,594.817,913.335,594.817z"/>
			<path fill="#003E57" d="M965.905,496.812l19.386,65.139v-65.139h14.608v96.924h-15.69l-20.096-62.065v62.065h-14.607v-96.924
				H965.905z"/>
			<path fill="#003E57" d="M1035.915,594.972c-6.441,0-11.916-2.253-16.424-6.763c-4.51-4.508-6.763-9.957-6.763-16.347v-52.868
				c0-6.44,2.267-11.914,6.801-16.424c4.534-4.509,9.996-6.763,16.386-6.763c6.441,0,11.903,2.268,16.386,6.801
				c4.483,4.535,6.725,9.998,6.725,16.386v11.053h-15.148v-11.361c0-2.319-0.825-4.302-2.474-5.951
				c-1.649-1.648-3.633-2.474-5.951-2.474c-2.319,0-4.29,0.825-5.913,2.474c-1.623,1.649-2.435,3.632-2.435,5.951v53.021
				c0,2.319,0.812,4.29,2.435,5.913s3.594,2.435,5.913,2.435c2.318,0,4.302-0.812,5.951-2.435c1.648-1.623,2.474-3.594,2.474-5.913
				v-13.371h15.148v13.526c0,6.441-2.268,11.902-6.802,16.386C1047.689,592.73,1042.253,594.972,1035.915,594.972z"/>
			<path fill="#003E57" d="M1085.611,552.693v41.042h-14.607V496.89h14.607v41.118h17.623V496.89h14.607v96.846h-14.607v-41.042
				H1085.611z"/>
			<path fill="#003E57" d="M1161.045,495.652c6.44,0,11.915,2.269,16.425,6.802c4.508,4.535,6.763,9.997,6.763,16.386v52.867
				c0,6.442-2.268,11.916-6.802,16.425c-4.534,4.51-9.997,6.763-16.386,6.763c-6.441,0-11.902-2.267-16.386-6.802
				c-4.482-4.533-6.724-9.996-6.724-16.386V518.84c0-6.44,2.267-11.915,6.801-16.424S1154.707,495.652,1161.045,495.652z
				 M1169.006,518.531c0-2.319-0.812-4.29-2.435-5.913s-3.594-2.435-5.912-2.435c-2.319,0-4.304,0.812-5.952,2.435
				c-1.649,1.623-2.473,3.594-2.473,5.913v53.021c0,2.318,0.823,4.29,2.473,5.913c1.648,1.623,3.633,2.435,5.952,2.435
				c2.318,0,4.289-0.812,5.912-2.435s2.435-3.595,2.435-5.913V518.531z"/>
			<path fill="#003E57" d="M1211.669,593.735h-14.607v-96.924h41.582v14.686h-26.975v26.434h19.71v14.686h-19.71V593.735z"/>
		</g>
	</g>
	<path fill="#003E57" d="M1087.926,728.754l-3.635,22.792h-15.574l16.858-99.161h20.574l16.618,99.161h-15.727l-3.499-22.792
		H1087.926z M1095.782,675.098l-5.539,39.095h11.079L1095.782,675.098z"/>
	<path fill="#003E57" d="M1158.934,652.385c8.335,0,14.455,2.296,18.36,6.886c3.429,4.01,5.144,9.603,5.144,16.777v14.403
		c0,7.018-2.665,12.952-7.993,17.806l11.078,43.289h-16.175l-9.069-37.354c-0.423,0-0.87,0-1.345,0h-8.626v37.354h-14.958v-99.161
		H1158.934z M1167.876,676.285c0-5.75-2.849-8.626-8.547-8.626h-9.021v31.734h9.021c2.374,0,4.393-0.844,6.054-2.532
		c1.662-1.688,2.493-3.72,2.493-6.094V676.285z"/>
	<path fill="#003E57" d="M1198.342,751.546v-99.24h42.577v15.037H1213.3v27.065h20.18v15.036h-20.18v27.065h27.619v15.036H1198.342z
		"/>
</g>
<g id="strokeline">
	<polyline fill="none" stroke="#B8D6E0" stroke-width="1.9097" points="635.96,54.083 614.965,27.089 635.96,0.094 	"/>
	<polyline fill="none" stroke="#B8D6E0" stroke-width="1.9097" points="635.96,108.074 614.965,81.079 635.96,54.083 	"/>
	<polyline fill="none" stroke="#B8D6E0" stroke-width="1.9097" points="635.96,162.064 614.965,135.068 635.96,108.074 	"/>
	<polyline fill="none" stroke="#B8D6E0" stroke-width="1.9097" points="635.96,216.054 614.965,189.059 635.96,162.064 	"/>
	<polyline fill="none" stroke="#B8D6E0" stroke-width="1.9097" points="635.96,270.045 614.965,243.049 635.96,216.054 	"/>
	<polyline fill="none" stroke="#B8D6E0" stroke-width="1.9097" points="635.96,324.035 614.965,297.039 635.96,270.045 	"/>
	<polyline fill="none" stroke="#B8D6E0" stroke-width="1.9097" points="635.96,378.024 614.965,351.03 635.96,324.035 	"/>
	<polyline fill="none" stroke="#B8D6E0" stroke-width="1.9097" points="635.96,432.015 614.965,405.02 635.96,378.024 	"/>
	<polyline fill="none" stroke="#B8D6E0" stroke-width="1.9097" points="635.96,486.005 614.965,459.009 635.96,432.015 	"/>
	<polyline fill="none" stroke="#B8D6E0" stroke-width="1.9097" points="635.96,539.994 614.965,513 635.96,486.005 	"/>
	<polyline fill="none" stroke="#B8D6E0" stroke-width="1.9097" points="635.96,593.986 614.965,566.989 635.96,539.994 	"/>
	<polyline fill="none" stroke="#B8D6E0" stroke-width="1.9097" points="635.96,647.976 614.965,620.98 635.96,593.986 	"/>
	<polyline fill="none" stroke="#B8D6E0" stroke-width="1.9097" points="635.96,701.966 614.965,674.97 635.96,647.977 	"/>
	<polyline fill="none" stroke="#B8D6E0" stroke-width="1.9097" points="635.96,755.955 614.965,728.961 635.96,701.966 	"/>
	<polyline fill="none" stroke="#B8D6E0" stroke-width="1.9097" points="635.96,809.947 614.965,782.95 635.96,755.955 	"/>
	<polyline fill="none" stroke="#B8D6E0" stroke-width="1.9097" points="635.96,863.937 614.965,836.941 635.96,809.947 	"/>
</g>
<polygon id="photo" fill="#D0D2D3" points="617.089,809.968 598.094,782.973 617.089,755.978 598.094,728.983 617.089,701.988 
	598.094,674.993 617.088,647.998 598.094,621.003 617.089,594.008 598.094,567.013 617.089,540.017 598.094,513.023 
	617.089,486.028 598.094,459.032 617.089,432.037 598.094,405.042 617.089,378.046 598.094,351.052 617.089,324.057 
	598.094,297.061 617.089,270.066 598.094,243.071 617.089,216.076 598.094,189.081 617.089,162.085 598.094,135.09 617.089,108.096 
	598.094,81.1 617.089,54.104 598.094,27.109 617.089,0.115 617.089,0 0,0 0,864 617.089,864 617.089,863.959 598.094,836.964 "/>
</svg>
