<?xml version="1.0" encoding="utf-8"?>
<!-- Generator: Adobe Illustrator 14.0.0, SVG Export Plug-In . SVG Version: 6.00 Build 43363)  -->
<!DOCTYPE svg PUBLIC "-//W3C//DTD SVG 1.1//EN" "http://www.w3.org/Graphics/SVG/1.1/DTD/svg11.dtd">
<svg version="1.1" id="Layer_1" xmlns="http://www.w3.org/2000/svg" xmlns:xlink="http://www.w3.org/1999/xlink" x="0px" y="0px"
	 width="1296px" height="864px" viewBox="0 0 1296 864" enable-background="new 0 0 1296 864" xml:space="preserve">
<path id="photo" fill="#D0D2D3" d="M0,864h689c50.618-171.721,77.79-353.49,77.79-541.607c0-109.876-9.275-217.584-27.07-322.393H0
	V864z"/>
<g id="fill-words">
	<g>
		<g>
			<path fill="#D27D69" d="M906.807,800.398v-1.979h13.005v1.979H906.807z"/>
			<path fill="#D27D69" d="M964.406,813.133l-5.13-25.559l-0.54-3.195l-0.899,3.195l0.045-0.045l-9.27,25.604h-2.25l-9.18-25.559
				v0.045l-0.9-3.285l-0.495,3.285l-4.59,22.813c-0.359,1.71-1.755,3.016-3.6,3.016c-1.529,0-2.745-0.855-3.375-2.025l1.846-0.765
				c0.314,0.495,0.765,0.854,1.529,0.854c0.72,0,1.351-0.449,1.62-1.215l0.045-0.045l5.715-27.898h2.205l9.539,26.009l0.811,2.88
				l0.81-2.88l9.585-26.009h2.115l6.299,30.778H964.406z"/>
			<path fill="#D27D69" d="M993.075,812.143c-0.81,1.08-1.89,1.44-2.925,1.44c-2.205,0-3.87-1.71-3.87-3.87
				c0-0.27,0.045-0.585,0.09-0.854c-1.26,3.33-3.914,4.725-7.289,4.725c-6.39,0-9.495-5.265-9.495-11.43
				c0-6.93,4.005-11.699,10.89-11.699c1.351,0,3.825,0.18,5.445,0.405h2.25v18.898c0,1.215,1.034,1.936,1.935,1.936
				c0.495,0,1.035-0.181,1.395-0.585L993.075,812.143z M986.28,792.568c-1.26,0.046-4.319-0.359-6.074-0.359
				c-5.67,0-8.64,4.455-8.64,9.854c0,4.859,2.43,9.765,7.56,9.765c3.015,0,5.399-1.71,6.479-3.915
				c0.45-0.854,0.675-1.89,0.675-3.104V792.568z"/>
			<path fill="#D27D69" d="M996.903,790.679c1.44,1.17,2.07,2.565,2.34,4.635c0.811-1.755,1.98-3.149,3.15-3.915
				c1.08-0.675,2.385-0.944,3.779-0.944c0.54,0,0.855,0.045,2.341,0.314v1.71c-1.035-0.18-1.71-0.225-2.25-0.225
				c-1.8,0-3.061,0.405-4.141,1.26c-0.81,0.675-1.979,1.98-2.744,3.465v16.154h-1.891v-15.884c0-2.34-0.585-4.186-1.71-5.445
				L996.903,790.679z"/>
			<path fill="#D27D69" d="M1011.619,790.229c1.62,1.125,2.655,2.745,3.24,4.59l5.175,15.795l6.479-19.754h1.845l-7.289,22.273
				h-2.115l-6.21-18.854c-0.359-0.944-1.215-1.979-2.069-2.564L1011.619,790.229z"/>
			<path fill="#D27D69" d="M1034.931,783.164c0,0.945-0.72,1.62-1.665,1.62c-0.944,0-1.62-0.675-1.62-1.62
				c0-0.944,0.676-1.62,1.62-1.62C1034.211,781.544,1034.931,782.22,1034.931,783.164z M1034.751,809.758
				c0,1.125,1.035,1.936,1.935,1.936c0.36,0,0.945-0.136,1.35-0.585l1.575,1.034c-0.72,0.945-1.71,1.44-2.925,1.44
				c-2.205,0-3.825-1.665-3.825-3.825v-18.944h1.891V809.758z"/>
			<path fill="#D27D69" d="M1042.401,790.679c1.484,1.125,2.069,2.79,2.295,4.68c2.25-3.6,4.904-4.904,8.279-4.904
				c4.365,0,6.795,1.935,7.064,6.39v13.05c0,1.215,1.08,1.935,1.98,1.935c0.449,0,0.944-0.18,1.35-0.585l1.53,1.035
				c-0.766,0.989-1.665,1.439-2.925,1.439c-2.34,0-3.825-1.71-3.825-3.824v-11.88c0-3.87-1.8-5.805-5.399-5.805
				c-3.601,0-5.805,2.024-7.92,4.859v16.064h-1.845v-15.884c0-2.34-0.585-4.186-1.71-5.445L1042.401,790.679z"/>
			<path fill="#D27D69" d="M1080.789,782.984c2.475-0.945,3.24-1.17,4.365-1.17c0.675,0,1.035,0.09,4.005,1.035
				c1.08,0.404,1.845,0.63,2.564,0.63c0.585,0,1.125-0.226,1.8-0.585c0.315-0.226,0.63-0.45,0.811-0.675h2.114v22.453
				c0,4.455-2.34,8.64-8.1,8.64c-5.489,0-7.56-3.824-7.739-7.739l1.979,0.18c0.09,3.285,2.34,5.58,5.896,5.58
				c4.68,0,5.984-3.78,5.984-6.795v-20.069c-0.765,0.721-1.8,0.945-2.835,0.945c-0.81,0-1.575-0.135-2.07-0.27
				c-1.619-0.405-2.835-1.396-4.409-1.396c-1.215,0-2.43,0.63-3.465,1.035L1080.789,782.984z"/>
			<path fill="#D27D69" d="M1105.27,811.693c0,0.944-0.72,1.619-1.664,1.619c-0.945,0-1.62-0.675-1.62-1.619
				c0-0.945,0.675-1.62,1.62-1.62C1104.55,810.073,1105.27,810.748,1105.27,811.693z"/>
			<path fill="#D27D69" d="M1150.63,813.133l-4.364-10.439h-13.995l-3.42,8.325c-0.585,1.529-1.979,2.294-3.465,2.294
				c-1.755,0-3.329-1.124-3.779-2.88l2.024-0.359c0.271,0.63,0.9,1.17,1.755,1.17c0.811,0,1.396-0.495,1.62-1.125l12.06-27.854h0.45
				l13.319,30.868H1150.63z M1138.48,787.979l-5.354,12.734h12.284l-5.354-12.734v0.045l-0.811-2.476l-0.765,2.476V787.979z"/>
			<path fill="#D27D69" d="M1158.014,809.758c2.025,1.306,4.32,2.07,6.705,2.07c2.88,0,5.76-1.215,5.76-4.5
				c0-2.069-1.215-3.33-3.375-4.364c-4.005-1.891-8.865-2.476-8.865-7.065c0-3.555,2.835-5.444,6.436-5.444
				c1.755,0,4.095,0.45,5.534,1.26l-0.404,1.71c-1.846-0.9-3.825-1.215-5.175-1.215c-2.835,0-4.365,1.35-4.365,3.42
				c0,3.96,5.76,4.5,9.225,6.569c1.979,1.215,3.015,2.7,3.015,5.085c0,4.545-3.869,6.3-8.01,6.3c-2.88,0-5.399-0.9-7.425-2.43
				L1158.014,809.758z"/>
			<path fill="#D27D69" d="M1179.39,795.134c1.98-3.33,4.5-4.814,8.055-4.814c4.905,0,7.155,2.385,7.155,7.064v12.284
				c0,1.215,0.989,1.89,1.935,1.89c0.495,0,0.99-0.18,1.35-0.585l1.575,1.08c-0.765,0.945-1.755,1.396-2.925,1.396
				c-2.25,0-3.825-1.62-3.825-3.78v-12.149c0-3.734-2.114-5.444-5.624-5.444c-3.465,0-5.535,1.935-7.695,4.859v16.064h-1.89v-32.669
				h1.89V795.134z"/>
			<path fill="#D27D69" d="M1212.872,790.904v1.89h-7.245v14.084c0,2.925,0.675,4.95,3.555,4.95c1.755,0,3.42-0.855,4.455-2.52
				l1.35,0.989c-1.35,2.16-3.149,3.285-5.805,3.285c-4.05,0-5.444-2.564-5.444-6.705v-21.733h1.89v5.76H1212.872z"/>
			<path fill="#D27D69" d="M1240.368,802.063c0,6.885-4.545,11.52-11.115,11.52c-6.704,0-11.069-4.814-11.069-11.475
				s4.365-11.654,11.114-11.654C1235.913,790.454,1240.368,795.269,1240.368,802.063z M1220.163,802.063
				c0,5.715,3.556,9.765,9.135,9.765c5.76,0,9.09-4.365,9.09-9.944c0-5.805-3.645-9.675-9.09-9.675
				C1223.403,792.209,1220.163,796.619,1220.163,802.063z"/>
			<path fill="#D27D69" d="M1245.546,790.679c1.485,1.125,2.07,2.79,2.295,4.68c2.25-3.6,4.905-4.904,8.28-4.904
				c4.364,0,6.795,1.935,7.064,6.39v13.05c0,1.215,1.08,1.935,1.979,1.935c0.45,0,0.945-0.18,1.351-0.585l1.529,1.035
				c-0.765,0.989-1.664,1.439-2.925,1.439c-2.34,0-3.824-1.71-3.824-3.824v-11.88c0-3.87-1.8-5.805-5.4-5.805
				c-3.6,0-5.805,2.024-7.919,4.859v16.064h-1.846v-15.884c0-2.34-0.585-4.186-1.71-5.445L1245.546,790.679z"/>
		</g>
	</g>
	<g>
		<g>
			<path fill="#D27D69" d="M798.799,55.914c0.963-1.123,2.14-1.765,3.691-1.765c2.461,0,4.761,1.819,4.761,4.708v11.93h20.864
				v-16.37h2.568v36.592h-2.568V73.141h-20.864v17.868h-2.621V58.856c0-1.123-0.963-2.086-2.086-2.086
				c-0.481,0-1.07,0.161-1.498,0.642L798.799,55.914z"/>
			<path fill="#D27D69" d="M863.637,77.848c0,8.185-5.403,13.695-13.214,13.695c-7.972,0-13.161-5.724-13.161-13.642
				c0-7.918,5.189-13.856,13.214-13.856C858.34,64.046,863.637,69.77,863.637,77.848z M839.616,77.848
				c0,6.794,4.227,11.609,10.859,11.609c6.848,0,10.807-5.189,10.807-11.823c0-6.901-4.333-11.502-10.807-11.502
				C843.468,66.132,839.616,71.375,839.616,77.848z"/>
			<path fill="#D27D69" d="M870.697,64.313c1.712,1.391,2.354,3.049,2.729,5.457c1.766-3.691,4.814-5.724,8.827-5.724
				c3.798,0,6.313,1.819,7.436,5.617c1.979-3.638,4.868-5.617,8.721-5.617c4.975,0,8.024,3.156,8.024,8.185V87.05
				c0,1.444,1.284,2.3,2.354,2.3c0.535,0,1.124-0.214,1.552-0.695l1.872,1.23c-0.909,1.177-1.979,1.712-3.477,1.712
				c-2.782,0-4.548-2.033-4.548-4.547V72.285c-0.214-4.227-2.247-6.152-5.831-6.152c-3.424,0-6.313,1.712-8.346,5.67v19.206h-2.247
				V73.033c0-4.172-1.926-6.901-5.777-6.901c-3.745,0-7.169,2.568-8.346,5.617v19.259h-2.247V72.124
				c0-2.782-0.695-4.975-2.033-6.473L870.697,64.313z"/>
			<path fill="#D27D69" d="M936.553,88.655c-2.729,1.765-5.885,2.889-9.63,2.889c-8.185,0-11.823-5.403-11.823-12.732
				c0-6.955,3.317-14.765,11.609-14.765c5.243,0,9.362,3.049,9.362,8.024c0,5.243-4.494,8.025-11.663,8.025h-6.848
				c0.589,5.885,3.531,9.362,9.362,9.362c3.37,0,5.992-1.124,8.613-2.461L936.553,88.655z M924.408,78.009
				c5.243,0,9.362-1.552,9.362-5.992c0-4.12-3.478-6.045-6.901-6.045c-7.008,0-9.576,7.597-9.415,12.037H924.408z"/>
			<path fill="#D27D69" d="M958.004,86.996c2.407,1.552,5.136,2.461,7.971,2.461c3.424,0,6.848-1.444,6.848-5.35
				c0-2.461-1.444-3.959-4.013-5.189c-4.761-2.247-10.538-2.942-10.538-8.399c0-4.226,3.37-6.473,7.649-6.473
				c2.087,0,4.868,0.535,6.58,1.498l-0.481,2.033c-2.193-1.07-4.547-1.444-6.152-1.444c-3.37,0-5.188,1.605-5.188,4.066
				c0,4.708,6.848,5.35,10.967,7.811c2.354,1.444,3.584,3.21,3.584,6.045c0,5.403-4.601,7.49-9.522,7.49
				c-3.424,0-6.42-1.07-8.827-2.889L958.004,86.996z"/>
			<path fill="#D27D69" d="M983.413,69.609c2.354-3.958,5.351-5.724,9.576-5.724c5.831,0,8.507,2.835,8.507,8.399v14.604
				c0,1.444,1.177,2.247,2.3,2.247c0.589,0,1.177-0.214,1.605-0.696l1.872,1.284c-0.909,1.124-2.087,1.658-3.478,1.658
				c-2.675,0-4.547-1.926-4.547-4.494V72.445c0-4.44-2.515-6.473-6.688-6.473c-4.119,0-6.58,2.3-9.148,5.778v19.099h-2.246V52.009
				h2.246V69.609z"/>
			<path fill="#D27D69" d="M1036.536,77.848c0,8.185-5.403,13.695-13.214,13.695c-7.972,0-13.161-5.724-13.161-13.642
				c0-7.918,5.189-13.856,13.214-13.856C1031.239,64.046,1036.536,69.77,1036.536,77.848z M1012.516,77.848
				c0,6.794,4.227,11.609,10.859,11.609c6.848,0,10.807-5.189,10.807-11.823c0-6.901-4.333-11.502-10.807-11.502
				C1016.367,66.132,1012.516,71.375,1012.516,77.848z"/>
			<path fill="#D27D69" d="M1042.527,64.207c1.979,1.498,3.905,3.209,3.905,5.938v12.304c0,4.601,2.141,6.901,6.474,6.901
				c4.173,0,6.58-2.033,9.309-5.724V64.474h2.193V87.05c0,1.444,1.337,2.3,2.354,2.3c0.535,0,1.178-0.214,1.605-0.695l1.872,1.284
				c-0.909,1.124-1.979,1.659-3.424,1.659c-2.782,0-4.654-2.033-4.654-4.761c0-0.321,0.054-0.642,0.107-1.017
				c-2.836,4.119-5.511,5.617-9.684,5.617c-5.242,0-8.078-2.3-8.398-7.597V70.145c0-1.873-1.819-3.263-2.89-4.066L1042.527,64.207z"
				/>
			<path fill="#D27D69" d="M1077.621,86.943c0,1.391,1.23,2.3,2.3,2.3c0.535,0,1.124-0.214,1.605-0.695l1.872,1.23
				c-0.855,1.123-2.247,1.712-3.584,1.712c-2.461,0-4.44-2.033-4.44-4.547V52.169h2.247V86.943z"/>
			<path fill="#D27D69" d="M1108.381,86.996c0,1.177,1.07,2.3,2.354,2.3c0.589,0,1.178-0.214,1.605-0.695l1.872,1.23
				c-0.963,1.284-2.247,1.712-3.478,1.712c-2.621,0-4.601-2.033-4.601-4.601c0-0.321,0.054-0.696,0.107-1.017
				c-1.498,3.959-4.708,5.617-8.613,5.617c-7.489,0-11.342-6.152-11.342-13.588c0-8.185,4.762-13.909,12.947-13.909
				c1.712,0,4.975,0.268,6.9,0.535V52.116h2.247V86.996z M1106.134,66.667c-1.069,0-2.889-0.535-5.777-0.535
				c-8.667,0-11.716,5.029-11.716,11.448c0,6.313,2.996,11.876,8.987,11.876c3.37,0,6.313-1.765,7.704-4.654
				c0.534-1.017,0.802-2.247,0.802-3.691V66.667z"/>
			<path fill="#D27D69" d="M1136.412,69.235c1.712-3.691,5.136-5.189,8.667-5.189c6.794,0,11.128,5.563,11.128,13.749
				c0,7.489-3.639,13.749-13.375,13.749c-1.284,0-3.53-0.107-5.242-0.321c-0.749-0.107-2.354-0.375-3.424-0.696V52.169h2.246V69.235
				z M1139.622,89.296c1.07,0.107,2.354,0.161,3.156,0.161c8.453,0,11.074-5.617,11.074-11.609c0-7.597-3.959-11.716-8.934-11.716
				c-1.926,0-3.905,0.695-5.403,1.819c-1.979,1.444-2.942,3.37-3.104,5.51v15.46L1139.622,89.296z"/>
			<path fill="#D27D69" d="M1183.436,88.655c-2.729,1.765-5.885,2.889-9.63,2.889c-8.185,0-11.823-5.403-11.823-12.732
				c0-6.955,3.317-14.765,11.609-14.765c5.243,0,9.362,3.049,9.362,8.024c0,5.243-4.494,8.025-11.663,8.025h-6.848
				c0.589,5.885,3.531,9.362,9.362,9.362c3.37,0,5.992-1.124,8.613-2.461L1183.436,88.655z M1171.291,78.009
				c5.243,0,9.362-1.552,9.362-5.992c0-4.12-3.478-6.045-6.901-6.045c-7.008,0-9.576,7.597-9.415,12.037H1171.291z"/>
			<path fill="#D27D69" d="M1232.116,89.832c-0.963,1.284-2.247,1.712-3.478,1.712c-2.621,0-4.601-2.033-4.601-4.601
				c0-0.321,0.054-0.696,0.107-1.017c-1.498,3.959-4.654,5.617-8.667,5.617c-7.597,0-11.288-6.259-11.288-13.588
				c0-8.238,4.762-13.909,12.947-13.909c1.604,0,4.547,0.214,6.473,0.481h2.675v22.469c0,1.444,1.23,2.3,2.301,2.3
				c0.588,0,1.23-0.214,1.658-0.695L1232.116,89.832z M1224.038,66.56c-1.498,0.054-5.136-0.428-7.222-0.428
				c-6.741,0-10.271,5.296-10.271,11.716c0,5.778,2.889,11.609,8.987,11.609c3.584,0,6.42-2.033,7.704-4.654
				c0.534-1.017,0.802-2.247,0.802-3.691V66.56z"/>
			<path fill="#D27D69" d="M1236.129,64.313c1.766,1.337,2.461,3.317,2.729,5.563c2.675-4.28,5.831-5.831,9.843-5.831
				c5.189,0,8.078,2.3,8.399,7.597v15.514c0,1.444,1.284,2.3,2.354,2.3c0.535,0,1.124-0.214,1.605-0.695l1.818,1.23
				c-0.909,1.177-1.979,1.712-3.477,1.712c-2.782,0-4.548-2.033-4.548-4.547V73.033c0-4.601-2.14-6.901-6.42-6.901
				c-4.279,0-6.9,2.407-9.415,5.778v19.098h-2.193V72.124c0-2.782-0.695-4.975-2.033-6.473L1236.129,64.313z"/>
		</g>
	</g>
	<g>
		<g>
			<path fill="#D27D69" d="M874.244,192.319h-18.602l-5.617-15.194H821.11l-5.617,15.194h-18.602l30.665-75.972h16.022
				L874.244,192.319z M835.66,139.83h-0.185l-8.472,22.101h17.128L835.66,139.83z"/>
			<path fill="#D27D69" d="M894.5,192.319h-17.313v-75.972H894.5l30.204,47.148h0.185v-47.148H942.2v75.972h-17.312l-30.205-47.148
				H894.5V192.319z"/>
			<path fill="#D27D69" d="M1005.645,171.968l7.367,14.734c0,0-8.472,6.999-24.955,6.999c-21.457,0-41.163-17.497-41.163-39.229
				c0-21.825,19.614-39.505,41.163-39.505c16.483,0,24.955,6.999,24.955,6.999l-7.367,14.734c0,0-6.077-4.696-14.918-4.696
				c-17.404,0-25.048,12.155-25.048,22.285c0,10.222,7.644,22.377,25.048,22.377C999.567,176.665,1005.645,171.968,1005.645,171.968
				z"/>
			<path fill="#D27D69" d="M1036.95,192.319h-17.313v-75.972h17.313v30.297h24.495v-30.297h17.312v75.972h-17.312v-30.481h-24.495
				V192.319z"/>
			<path fill="#D27D69" d="M1124.704,114.966c21.088,0,38.217,17.128,38.217,39.321s-16.392,39.413-38.217,39.413
				c-22.469,0-38.308-17.22-38.308-39.413S1103.801,114.966,1124.704,114.966z M1124.704,176.941
				c13.813,0,19.522-11.327,19.522-22.653s-6.077-22.653-19.522-22.653c-13.353,0-19.614,11.327-19.614,22.653
				S1110.523,176.941,1124.704,176.941z"/>
			<path fill="#D27D69" d="M1197.726,116.348c14.09,0,24.771,7.643,24.771,22.562c0,11.418-6.262,19.062-15.563,22.009
				l26.152,31.401h-22.009l-23.205-30.021v30.021h-17.313v-75.972H1197.726z M1189.898,150.051c6.538,0,14.365-0.46,14.365-9.945
				s-7.827-9.945-14.365-9.945h-2.025v19.891H1189.898z"/>
			<path fill="#D27D69" d="M1257.578,183.203c0,11.143-7.92,20.167-15.471,26.429l-4.696-3.868c0,0,5.525-5.249,6.998-12.892
				c-4.512-1.105-7.919-4.789-7.919-9.669c0-5.894,4.696-10.59,10.498-10.59C1252.882,172.613,1257.578,177.309,1257.578,183.203z"
				/>
		</g>
	</g>
	<g>
		<g>
			<path fill="#D27D69" d="M832.134,250.818c-1.089,1.453-2.541,1.937-3.933,1.937c-2.966,0-5.205-2.299-5.205-5.204
				c0-0.363,0.061-0.787,0.121-1.15c-1.694,4.478-5.265,6.354-9.804,6.354c-8.593,0-12.769-7.08-12.769-15.371
				c0-9.319,5.386-15.734,14.645-15.734c1.815,0,5.145,0.242,7.322,0.544h3.026v25.417c0,1.634,1.392,2.602,2.603,2.602
				c0.665,0,1.392-0.242,1.876-0.787L832.134,250.818z M822.996,224.494c-1.694,0.061-5.81-0.484-8.17-0.484
				c-7.625,0-11.619,5.991-11.619,13.253c0,6.536,3.269,13.132,10.167,13.132c4.055,0,7.262-2.3,8.715-5.265
				c0.604-1.149,0.907-2.542,0.907-4.175V224.494z"/>
			<path fill="#D27D69" d="M854.951,221.952c2.058,1.694,2.603,3.631,3.087,6.052c1.634-4.66,5.446-6.354,9.743-6.354
				c8.593,0,12.89,6.959,12.89,15.371c0,9.259-5.265,15.734-14.645,15.734c-1.997,0-5.568-0.302-7.807-0.605v16.097h-2.481v-37.459
				c0-3.147-0.787-5.628-2.3-7.322L854.951,221.952z M858.22,249.79c5.446,0.544,6.535,0.605,7.504,0.605
				c8.229,0,12.284-5.447,12.284-13.011c0-7.141-3.631-13.374-10.045-13.374c-4.66,0-9.32,3.329-9.743,8.291V249.79z"/>
			<path fill="#D27D69" d="M916.981,237.263c0,9.259-6.111,15.492-14.947,15.492c-9.017,0-14.887-6.475-14.887-15.432
				c0-8.956,5.87-15.673,14.947-15.673C910.99,221.65,916.981,228.125,916.981,237.263z M889.81,237.263
				c0,7.686,4.781,13.132,12.285,13.132c7.746,0,12.225-5.87,12.225-13.374c0-7.807-4.902-13.011-12.225-13.011
				C894.167,224.01,889.81,229.94,889.81,237.263z"/>
			<path fill="#D27D69" d="M924.549,221.952c1.937,1.574,2.783,3.45,3.146,6.233c1.09-2.36,2.663-4.236,4.236-5.265
				c1.452-0.908,3.207-1.271,5.084-1.271c0.726,0,1.149,0.06,3.146,0.423v2.3c-1.392-0.242-2.3-0.303-3.026-0.303
				c-2.42,0-4.114,0.545-5.567,1.694c-1.089,0.908-2.662,2.663-3.691,4.66v21.725h-2.541v-21.362c0-3.147-0.787-5.628-2.3-7.322
				L924.549,221.952z"/>
			<path fill="#D27D69" d="M956.502,222.255v2.542h-9.743v18.942c0,3.934,0.908,6.657,4.781,6.657c2.359,0,4.599-1.15,5.991-3.389
				l1.815,1.332c-1.815,2.905-4.236,4.417-7.807,4.417c-5.447,0-7.323-3.449-7.323-9.017v-29.229h2.542v7.746H956.502z"/>
			<path fill="#D27D69" d="M984.521,211.846c0,1.271-0.968,2.178-2.239,2.178c-1.271,0-2.178-0.908-2.178-2.178
				c0-1.271,0.907-2.179,2.178-2.179C983.554,209.667,984.521,210.575,984.521,211.846z M984.279,247.611
				c0,1.513,1.393,2.602,2.603,2.602c0.484,0,1.271-0.182,1.815-0.787l2.118,1.392c-0.968,1.271-2.3,1.937-3.934,1.937
				c-2.965,0-5.144-2.239-5.144-5.144v-25.478h2.541V247.611z"/>
			<path fill="#D27D69" d="M994.567,221.952c1.997,1.513,2.784,3.752,3.087,6.294c3.025-4.841,6.596-6.596,11.135-6.596
				c5.87,0,9.138,2.602,9.501,8.593v17.55c0,1.634,1.452,2.602,2.663,2.602c0.604,0,1.271-0.242,1.815-0.787l2.058,1.392
				c-1.029,1.332-2.239,1.937-3.934,1.937c-3.147,0-5.145-2.299-5.145-5.144v-15.977c0-5.205-2.42-7.807-7.262-7.807
				c-4.841,0-7.807,2.723-10.65,6.536v21.604h-2.481v-21.362c0-3.147-0.787-5.628-2.3-7.322L994.567,221.952z"/>
			<path fill="#D27D69" d="M1078.264,250.818c-1.089,1.453-2.541,1.937-3.934,1.937c-2.965,0-5.204-2.299-5.204-5.204
				c0-0.363,0.061-0.787,0.121-1.15c-1.694,4.478-5.265,6.354-9.804,6.354c-8.593,0-12.769-7.08-12.769-15.371
				c0-9.319,5.386-15.734,14.645-15.734c1.815,0,5.145,0.242,7.322,0.544h3.026v25.417c0,1.634,1.392,2.602,2.603,2.602
				c0.665,0,1.392-0.242,1.876-0.787L1078.264,250.818z M1069.126,224.494c-1.694,0.061-5.81-0.484-8.17-0.484
				c-7.625,0-11.619,5.991-11.619,13.253c0,6.536,3.269,13.132,10.167,13.132c4.055,0,7.262-2.3,8.715-5.265
				c0.604-1.149,0.907-2.542,0.907-4.175V224.494z"/>
			<path fill="#D27D69" d="M1100.839,247.611c2.724,1.755,5.81,2.784,9.018,2.784c3.873,0,7.746-1.634,7.746-6.052
				c0-2.784-1.634-4.478-4.539-5.87c-5.386-2.542-11.922-3.328-11.922-9.501c0-4.781,3.813-7.322,8.654-7.322
				c2.36,0,5.507,0.605,7.443,1.694l-0.545,2.299c-2.481-1.21-5.144-1.634-6.959-1.634c-3.813,0-5.87,1.815-5.87,4.599
				c0,5.326,7.746,6.052,12.405,8.835c2.663,1.634,4.055,3.631,4.055,6.838c0,6.112-5.204,8.472-10.771,8.472
				c-3.873,0-7.262-1.21-9.985-3.268L1100.839,247.611z"/>
			<path fill="#D27D69" d="M1139.208,222.255v2.542h-9.743v18.942c0,3.934,0.908,6.657,4.781,6.657c2.359,0,4.599-1.15,5.991-3.389
				l1.815,1.332c-1.815,2.905-4.236,4.417-7.807,4.417c-5.447,0-7.323-3.449-7.323-9.017v-29.229h2.542v7.746H1139.208z"/>
			<path fill="#D27D69" d="M1176.184,237.263c0,9.259-6.111,15.492-14.947,15.492c-9.017,0-14.887-6.475-14.887-15.432
				c0-8.956,5.87-15.673,14.947-15.673C1170.192,221.65,1176.184,228.125,1176.184,237.263z M1149.012,237.263
				c0,7.686,4.781,13.132,12.285,13.132c7.746,0,12.225-5.87,12.225-13.374c0-7.807-4.902-13.011-12.225-13.011
				C1153.369,224.01,1149.012,229.94,1149.012,237.263z"/>
			<path fill="#D27D69" d="M1183.751,221.952c1.937,1.574,2.784,3.45,3.146,6.233c1.09-2.36,2.663-4.236,4.236-5.265
				c1.452-0.908,3.207-1.271,5.083-1.271c0.727,0,1.15,0.06,3.147,0.423v2.3c-1.392-0.242-2.3-0.303-3.026-0.303
				c-2.42,0-4.114,0.545-5.567,1.694c-1.089,0.908-2.662,2.663-3.691,4.66v21.725h-2.541v-21.362c0-3.147-0.787-5.628-2.3-7.322
				L1183.751,221.952z"/>
			<path fill="#D27D69" d="M1204.812,221.952c1.937,1.574,2.662,3.45,3.086,6.173c1.997-4.176,5.446-6.475,9.985-6.475
				c4.297,0,7.141,2.057,8.412,6.354c2.238-4.115,5.507-6.354,9.864-6.354c5.628,0,9.077,3.57,9.077,9.259v16.763
				c0,1.634,1.452,2.602,2.662,2.602c0.605,0,1.271-0.242,1.756-0.787l2.117,1.392c-1.028,1.332-2.238,1.937-3.934,1.937
				c-3.146,0-5.144-2.299-5.144-5.144v-16.703c-0.242-4.781-2.542-6.959-6.596-6.959c-3.873,0-7.142,1.937-9.441,6.415v21.725
				h-2.541v-20.333c0-4.72-2.179-7.807-6.536-7.807c-4.236,0-8.109,2.905-9.44,6.354v21.786h-2.542v-21.362
				c0-3.147-0.786-5.628-2.299-7.322L1204.812,221.952z"/>
			<path fill="#D27D69" d="M1256.011,256.688c0.666-0.726,1.15-1.573,1.392-2.299c0.242-0.787,0.363-1.574,0.363-2.905
				c0-0.605,0-1.271-0.061-2.118c0-1.029,0.605-1.634,1.635-1.634c1.089,0,1.513,0.787,1.513,1.634v1.21
				c0,1.694-0.242,3.207-0.727,4.417c-0.424,1.15-1.271,2.179-2.603,3.208L1256.011,256.688z"/>
		</g>
	</g>
	<g>
		<g>
			<path fill="#D27D69" d="M854.001,335.554l-8.67-20.738h-27.8l-6.793,16.537c-1.162,3.039-3.933,4.559-6.883,4.559
				c-3.486,0-6.614-2.234-7.509-5.721l4.022-0.715c0.537,1.251,1.788,2.324,3.486,2.324c1.609,0,2.771-0.983,3.218-2.234
				l23.956-55.33h0.894l26.458,61.319H854.001z M829.867,285.587l-10.638,25.296h24.402l-10.637-25.296v0.089l-1.608-4.916
				l-1.52,4.916V285.587z"/>
			<path fill="#D27D69" d="M920.056,274.414c3.039,0,5.185,0.626,7.062,1.52c5.81,2.86,9.475,9.296,9.475,16.715
				c0,9.743-6.257,15.911-14.033,16.447l-5.632,0.269l4.38,1.52c0.805,0.268,2.414,1.341,3.129,2.324l13.766,17.788
				c0.805,1.073,1.787,1.698,2.949,1.698c1.698,0,3.396-1.52,3.755-3.128h3.933c-0.269,4.201-3.575,6.883-7.598,6.883
				c-2.503,0-4.559-1.073-6.257-3.308l-11.531-14.927c-3.128-4.291-5.988-7.062-12.067-7.777v-3.843h7.33
				c8.581,0,13.676-5.81,13.676-13.944s-5.185-14.391-12.692-14.391h-14.302v57.296h-4.291v-57.296h-2.413
				c-2.503,0-4.737,1.966-5.006,4.469h-3.844c0.09-2.145,0.895-3.844,2.503-5.542c1.788-1.877,3.755-2.771,6.168-2.771H920.056z"/>
			<path fill="#D27D69" d="M965.82,278.258v22.972h24.313v3.933H965.82v26.458h35.218v3.933h-39.509v-57.296
				c-2.949,0-4.201,0.447-5.273,1.52c-0.716,0.625-1.252,1.877-1.431,2.95h-3.844c0.09-2.235,0.983-4.022,2.503-5.542
				c1.698-1.698,3.665-2.771,6.168-2.771h41.386v3.844H965.82z"/>
			<path fill="#D27D69" d="M1023.116,278.347v22.972h24.313v3.933h-24.313v30.391h-4.291v-57.296c-2.949,0-4.201,0.447-5.273,1.52
				c-0.716,0.625-1.252,1.877-1.431,2.95h-3.844c0.09-2.234,0.983-4.022,2.503-5.542c1.788-1.788,3.665-2.771,6.168-2.771h41.386
				v3.844H1023.116z"/>
			<path fill="#D27D69" d="M1061.907,276.738c1.609-1.877,4.112-3.128,6.615-3.128c5.185,0,8.224,2.771,8.224,8.313v29.855
				c0,11.263,6.524,20.827,19.485,20.827c13.944,0,19.397-11.084,19.397-20.827v-37.453h4.29v37.453
				c0,12.067-6.972,24.581-23.598,24.581c-15.732,0-23.866-11.262-23.866-24.581v-29.855c-0.089-3.396-2.413-4.111-3.754-4.111
				c-1.162,0-2.414,0.536-3.218,1.34L1061.907,276.738z"/>
			<path fill="#D27D69" d="M1182.488,326.705c-5.095,7.866-12.961,11.709-21.632,11.709c-17.341,0-30.48-15.106-30.48-32.269
				c0-17.966,14.48-33.341,31.285-33.341c7.598,0,20.291,3.039,20.291,12.514c0,4.827-3.039,8.044-7.33,8.044
				c-1.43,0-2.771-0.357-4.022-1.162l2.324-2.95c0.626,0.268,1.252,0.447,1.788,0.447c2.056,0,3.575-2.056,3.575-4.38
				c0-6.615-10.815-8.76-16.536-8.76c-15.196,0-27.71,14.033-27.71,29.676c0,15.375,12.067,28.514,26.815,28.514
				c11.71,0,20.201-8.402,21.632-18.86v-6.704h3.933v43.263c0,5.273-4.201,7.776-7.865,7.776c-2.503,0-4.56-1.073-5.989-2.95
				l3.396-2.234c0.626,0.625,1.52,1.072,2.682,1.072c2.413,0,3.665-1.966,3.844-3.665V326.705z"/>
			<path fill="#D27D69" d="M1207.784,278.258v22.972h24.313v3.933h-24.313v26.458h35.218v3.933h-39.509v-57.296
				c-2.949,0-4.201,0.447-5.273,1.52c-0.716,0.625-1.252,1.877-1.431,2.95h-3.844c0.09-2.235,0.983-4.022,2.503-5.542
				c1.698-1.698,3.665-2.771,6.168-2.771h41.386v3.844H1207.784z"/>
			<path fill="#D27D69" d="M1251.403,342.258c0.983-1.073,1.698-2.324,2.056-3.397c0.358-1.162,0.537-2.324,0.537-4.291
				c0-0.894,0-1.877-0.09-3.128c0-1.52,0.894-2.414,2.414-2.414c1.608,0,2.234,1.162,2.234,2.414v1.788
				c0,2.503-0.357,4.738-1.073,6.525c-0.625,1.698-1.877,3.218-3.843,4.737L1251.403,342.258z"/>
		</g>
	</g>
	<g>
		<g>
			<path fill="#D27D69" d="M815.896,371.45c4.397,0,8.029,1.466,10.705,4.078v-3.122h11.279v32.688h-11.151v-3.695h-0.128
				c-2.421,2.676-6.244,4.651-10.705,4.651c-9.558,0-16.248-7.71-16.248-17.269C799.648,379.224,806.339,371.45,815.896,371.45z
				 M819.274,396.429c4.396,0,7.583-3.186,7.583-7.646c0-4.524-3.378-7.71-7.583-7.71c-4.27,0-7.646,3.186-7.646,7.71
				C811.628,393.243,814.687,396.429,819.274,396.429z"/>
			<path fill="#D27D69" d="M862.917,350.295h11.278v25.552h0.128c2.549-2.549,5.798-4.396,9.366-4.396
				c5.99,0,14.338,2.995,14.338,12.107v21.537h-11.279v-18.479c0-3.25-2.229-6.373-5.861-6.373c-3.378,0-6.691,3.123-6.691,6.373
				v18.479h-11.278V350.295z"/>
			<path fill="#D27D69" d="M918.924,371.45c4.397,0,8.029,1.466,10.705,4.078v-3.122h11.279v32.688h-11.151v-3.695h-0.128
				c-2.421,2.676-6.244,4.651-10.705,4.651c-9.558,0-16.248-7.71-16.248-17.269C902.676,379.224,909.366,371.45,918.924,371.45z
				 M922.302,396.429c4.396,0,7.583-3.186,7.583-7.646c0-4.524-3.378-7.71-7.583-7.71c-4.27,0-7.646,3.186-7.646,7.71
				C914.655,393.243,917.714,396.429,922.302,396.429z"/>
			<path fill="#D27D69" d="M970.534,406.051c-4.396,0-8.028-1.466-10.705-4.078v19.689h-11.278v-49.256h11.151v3.695h0.127
				c2.422-2.676,6.245-4.651,10.705-4.651c9.559,0,16.249,7.71,16.249,17.269C986.783,398.276,980.093,406.051,970.534,406.051z
				 M967.157,381.072c-4.396,0-7.583,3.186-7.583,7.646c0,4.524,3.377,7.71,7.583,7.71c4.27,0,7.646-3.186,7.646-7.71
				C974.804,384.258,971.745,381.072,967.157,381.072z"/>
			<path fill="#D27D69" d="M1014.052,406.051c-4.396,0-8.028-1.466-10.705-4.078v19.689h-11.278v-49.256h11.151v3.695h0.127
				c2.422-2.676,6.245-4.651,10.705-4.651c9.559,0,16.249,7.71,16.249,17.269C1030.301,398.276,1023.61,406.051,1014.052,406.051z
				 M1010.675,381.072c-4.396,0-7.583,3.186-7.583,7.646c0,4.524,3.377,7.71,7.583,7.71c4.27,0,7.646-3.186,7.646-7.71
				C1018.321,384.258,1015.263,381.072,1010.675,381.072z"/>
			<path fill="#D27D69" d="M1073.372,372.406l-25.679,49.256h-13l11.279-21.665l-15.484-27.591h12.999l9.112,16.759l7.773-16.759
				H1073.372z"/>
			<path fill="#D27D69" d="M1115.295,406.051c-4.396,0-8.028-1.466-10.705-4.078v19.689h-11.278v-49.256h11.151v3.695h0.127
				c2.422-2.676,6.245-4.651,10.705-4.651c9.559,0,16.249,7.71,16.249,17.269C1131.544,398.276,1124.854,406.051,1115.295,406.051z
				 M1111.918,381.072c-4.396,0-7.583,3.186-7.583,7.646c0,4.524,3.378,7.71,7.583,7.71c4.27,0,7.646-3.186,7.646-7.71
				C1119.564,384.258,1116.506,381.072,1111.918,381.072z"/>
			<path fill="#D27D69" d="M1136.829,350.295h11.278v54.8h-11.278V350.295z"/>
			<path fill="#D27D69" d="M1169.645,371.45c4.396,0,8.028,1.466,10.705,4.078v-3.122h11.278v32.688h-11.151v-3.695h-0.127
				c-2.422,2.676-6.245,4.651-10.705,4.651c-9.559,0-16.249-7.71-16.249-17.269C1153.396,379.224,1160.086,371.45,1169.645,371.45z
				 M1173.021,396.429c4.396,0,7.582-3.186,7.582-7.646c0-4.524-3.377-7.71-7.582-7.71c-4.27,0-7.646,3.186-7.646,7.71
				C1165.375,393.243,1168.434,396.429,1173.021,396.429z"/>
			<path fill="#D27D69" d="M1208.893,388.719c0,4.524,3.504,8.093,7.773,8.093c3.377,0,5.48-1.529,5.48-1.529l3.823,7.837
				c0,0-3.696,2.932-10.96,2.932c-9.431,0-18.097-7.646-18.097-17.205c0-9.622,8.603-17.396,18.097-17.396
				c7.264,0,10.96,3.059,10.96,3.059l-3.823,7.71c0,0-2.104-1.529-5.48-1.529C1212.396,380.689,1208.893,384.258,1208.893,388.719z"
				/>
			<path fill="#D27D69" d="M1239.922,390.312c0,5.034,4.205,6.754,7.072,6.754c3.633,0,5.226-0.7,7.966-3.632l8.156,4.078
				c-3.696,6.181-9.686,8.539-16.95,8.539c-9.877,0-17.969-7.774-17.969-17.269c0-9.558,8.092-17.332,17.969-17.332
				c9.94,0,17.523,5.862,17.523,17.332c0,0.446,0,1.146-0.063,1.529H1239.922z M1252.666,384.067
				c-0.51-3.441-2.867-5.289-6.182-5.289c-3.887,0-6.053,2.294-6.244,5.289H1252.666z"/>
		</g>
	</g>
	<g>
		<g>
			<path fill="#D27D69" d="M802.291,437.972c0,1.263-0.963,2.165-2.227,2.165c-1.263,0-2.165-0.902-2.165-2.165
				c0-1.264,0.902-2.166,2.165-2.166C801.328,435.806,802.291,436.708,802.291,437.972z M802.051,473.529
				c0,1.504,1.384,2.587,2.587,2.587c0.481,0,1.264-0.181,1.805-0.782l2.105,1.384c-0.962,1.264-2.286,1.925-3.91,1.925
				c-2.948,0-5.114-2.226-5.114-5.113v-25.33h2.527V473.529z"/>
			<path fill="#D27D69" d="M812.277,448.019c1.985,1.505,2.768,3.73,3.068,6.258c3.009-4.813,6.559-6.559,11.07-6.559
				c5.836,0,9.085,2.587,9.446,8.544v17.448c0,1.624,1.444,2.587,2.647,2.587c0.602,0,1.264-0.241,1.805-0.782l2.046,1.384
				c-1.023,1.323-2.227,1.925-3.911,1.925c-3.128,0-5.114-2.286-5.114-5.113v-15.884c0-5.175-2.406-7.762-7.22-7.762
				c-4.813,0-7.761,2.707-10.589,6.498v21.479h-2.467v-21.238c0-3.128-0.782-5.595-2.286-7.279L812.277,448.019z"/>
			<path fill="#D27D69" d="M864.862,447.357c1.985,1.443,3.369,3.55,4.271,6.196l6.919,20.938l8.604-26.292h2.828l8.543,26.292
				l8.604-26.292h2.527l-9.687,29.782h-2.828l-8.604-26.293l-8.604,26.293h-2.888l-8.183-25.21
				c-0.542-1.263-1.625-2.646-2.768-3.429L864.862,447.357z"/>
			<path fill="#D27D69" d="M917.024,453.976c2.647-4.452,6.017-6.438,10.77-6.438c6.559,0,9.566,3.189,9.566,9.446v16.425
				c0,1.625,1.324,2.527,2.587,2.527c0.662,0,1.324-0.24,1.806-0.782l2.105,1.444c-1.022,1.264-2.347,1.865-3.911,1.865
				c-3.008,0-5.113-2.166-5.113-5.055v-16.244c0-4.994-2.828-7.28-7.521-7.28c-4.632,0-7.399,2.587-10.288,6.498v21.479h-2.526
				v-43.681h2.526V453.976z"/>
			<path fill="#D27D69" d="M951.799,437.972c0,1.263-0.963,2.165-2.227,2.165c-1.263,0-2.165-0.902-2.165-2.165
				c0-1.264,0.902-2.166,2.165-2.166C950.836,435.806,951.799,436.708,951.799,437.972z M951.559,473.529
				c0,1.504,1.384,2.587,2.587,2.587c0.481,0,1.264-0.181,1.805-0.782l2.105,1.384c-0.962,1.264-2.286,1.925-3.91,1.925
				c-2.948,0-5.114-2.226-5.114-5.113v-25.33h2.527V473.529z"/>
			<path fill="#D27D69" d="M984.589,475.153c-3.43,2.227-6.919,3.249-10.709,3.249c-9.025,0-13.417-5.716-13.417-14.56
				c0-9.266,4.813-16.365,12.936-16.365c5.475,0,10.349,3.188,10.589,8.483H981.4c-0.241-4.212-3.971-6.317-7.762-6.317
				c-7.521,0-10.589,7.761-10.589,14.259c0,7.521,4.091,12.153,10.83,12.153c3.609,0,6.618-1.264,9.566-2.768L984.589,475.153z"/>
			<path fill="#D27D69" d="M994.455,453.976c2.647-4.452,6.017-6.438,10.77-6.438c6.559,0,9.566,3.189,9.566,9.446v16.425
				c0,1.625,1.324,2.527,2.587,2.527c0.662,0,1.324-0.24,1.806-0.782l2.105,1.444c-1.022,1.264-2.347,1.865-3.911,1.865
				c-3.008,0-5.113-2.166-5.113-5.055v-16.244c0-4.994-2.828-7.28-7.521-7.28c-4.632,0-7.399,2.587-10.288,6.498v21.479h-2.526
				v-43.681h2.526V453.976z"/>
			<path fill="#D27D69" d="M1055.883,448.319v2.527h-9.687v18.832c0,3.91,0.902,6.618,4.753,6.618c2.347,0,4.573-1.144,5.957-3.369
				l1.805,1.323c-1.805,2.888-4.212,4.392-7.762,4.392c-5.415,0-7.28-3.429-7.28-8.964v-29.061h2.527v7.701H1055.883z"/>
			<path fill="#D27D69" d="M1092.644,463.24c0,9.206-6.076,15.402-14.86,15.402c-8.965,0-14.801-6.438-14.801-15.342
				s5.836-15.583,14.86-15.583C1086.688,447.718,1092.644,454.155,1092.644,463.24z M1065.63,463.24
				c0,7.642,4.753,13.057,12.213,13.057c7.701,0,12.153-5.836,12.153-13.297c0-7.762-4.873-12.936-12.153-12.936
				C1069.961,450.064,1065.63,455.961,1065.63,463.24z"/>
			<path fill="#D27D69" d="M1140.654,473.529c0,1.323,1.204,2.587,2.647,2.587c0.662,0,1.324-0.241,1.806-0.782l2.105,1.384
				c-1.083,1.444-2.527,1.925-3.911,1.925c-2.948,0-5.174-2.286-5.174-5.174c0-0.361,0.06-0.782,0.12-1.144
				c-1.685,4.453-5.295,6.317-9.687,6.317c-8.423,0-12.755-6.919-12.755-15.281c0-9.206,5.354-15.644,14.56-15.644
				c1.926,0,5.596,0.301,7.762,0.602v-14.019h2.526V473.529z M1138.128,450.666c-1.203,0-3.249-0.602-6.498-0.602
				c-9.747,0-13.176,5.655-13.176,12.875c0,7.1,3.369,13.357,10.107,13.357c3.79,0,7.1-1.985,8.664-5.234
				c0.602-1.144,0.902-2.527,0.902-4.151V450.666z"/>
			<path fill="#D27D69" d="M1150.582,447.357c1.985,1.443,3.369,3.55,4.271,6.196l6.919,20.938l8.604-26.292h2.828l8.543,26.292
				l8.604-26.292h2.527l-9.687,29.782h-2.828l-8.604-26.293l-8.604,26.293h-2.888l-8.183-25.21
				c-0.542-1.263-1.625-2.646-2.768-3.429L1150.582,447.357z"/>
			<path fill="#D27D69" d="M1221.757,475.395c-3.068,1.985-6.618,3.248-10.83,3.248c-9.205,0-13.296-6.076-13.296-14.319
				c0-7.821,3.73-16.605,13.056-16.605c5.896,0,10.529,3.43,10.529,9.025c0,5.896-5.055,9.024-13.116,9.024h-7.701
				c0.662,6.618,3.971,10.529,10.528,10.529c3.791,0,6.739-1.264,9.688-2.768L1221.757,475.395z M1208.1,463.421
				c5.896,0,10.528-1.744,10.528-6.738c0-4.633-3.91-6.799-7.761-6.799c-7.882,0-10.77,8.544-10.589,13.537H1208.1z"/>
			<path fill="#D27D69" d="M1231.685,473.469c0,1.564,1.384,2.587,2.587,2.587c0.602,0,1.264-0.24,1.805-0.782l2.105,1.384
				c-0.962,1.264-2.526,1.926-4.03,1.926c-2.768,0-4.994-2.286-4.994-5.114v-39.107h2.527V473.469z"/>
			<path fill="#D27D69" d="M1246.484,473.469c0,1.564,1.384,2.587,2.587,2.587c0.602,0,1.264-0.24,1.805-0.782l2.105,1.384
				c-0.962,1.264-2.526,1.926-4.03,1.926c-2.768,0-4.994-2.286-4.994-5.114v-39.107h2.527V473.469z"/>
			<path fill="#D27D69" d="M1257.192,482.554c0.662-0.722,1.144-1.564,1.384-2.286c0.241-0.782,0.361-1.564,0.361-2.888
				c0-0.602,0-1.264-0.061-2.106c0-1.022,0.602-1.624,1.625-1.624c1.083,0,1.504,0.782,1.504,1.624v1.204
				c0,1.685-0.24,3.188-0.722,4.392c-0.422,1.144-1.264,2.166-2.588,3.188L1257.192,482.554z"/>
		</g>
	</g>
	<g>
		<g>
			<path fill="#D27D69" d="M866.36,524.537c-0.713,0.951-1.663,1.268-2.574,1.268c-1.94,0-3.405-1.505-3.405-3.405
				c0-0.237,0.04-0.515,0.079-0.752c-1.108,2.93-3.444,4.157-6.414,4.157c-5.623,0-8.355-4.633-8.355-10.058
				c0-6.098,3.524-10.295,9.583-10.295c1.188,0,3.365,0.158,4.791,0.356h1.979v16.63c0,1.069,0.911,1.703,1.703,1.703
				c0.436,0,0.91-0.158,1.228-0.515L866.36,524.537z M860.381,507.313c-1.108,0.039-3.801-0.317-5.346-0.317
				c-4.989,0-7.603,3.92-7.603,8.672c0,4.276,2.139,8.593,6.652,8.593c2.653,0,4.752-1.505,5.702-3.445
				c0.396-0.752,0.594-1.663,0.594-2.732V507.313z"/>
			<path fill="#D27D69" d="M881.294,505.65c1.346,1.108,1.702,2.375,2.02,3.959c1.068-3.049,3.563-4.157,6.375-4.157
				c5.622,0,8.434,4.554,8.434,10.058c0,6.058-3.445,10.295-9.582,10.295c-1.307,0-3.644-0.198-5.108-0.396v10.533h-1.623v-24.511
				c0-2.059-0.515-3.682-1.505-4.791L881.294,505.65z M883.432,523.864c3.563,0.356,4.276,0.396,4.91,0.396
				c5.385,0,8.038-3.564,8.038-8.514c0-4.673-2.376-8.751-6.573-8.751c-3.049,0-6.098,2.178-6.375,5.425V523.864z"/>
			<path fill="#D27D69" d="M904.501,522.399c0,1.029,0.91,1.702,1.702,1.702c0.396,0,0.832-0.158,1.188-0.515l1.386,0.911
				c-0.634,0.831-1.663,1.267-2.653,1.267c-1.821,0-3.286-1.504-3.286-3.365v-25.738h1.663V522.399z"/>
			<path fill="#D27D69" d="M931.586,524.537c-0.713,0.951-1.663,1.268-2.574,1.268c-1.94,0-3.405-1.505-3.405-3.405
				c0-0.237,0.04-0.515,0.079-0.752c-1.108,2.93-3.444,4.157-6.414,4.157c-5.623,0-8.355-4.633-8.355-10.058
				c0-6.098,3.524-10.295,9.583-10.295c1.188,0,3.365,0.158,4.791,0.356h1.979v16.63c0,1.069,0.911,1.703,1.703,1.703
				c0.436,0,0.91-0.158,1.228-0.515L931.586,524.537z M925.606,507.313c-1.108,0.039-3.801-0.317-5.346-0.317
				c-4.989,0-7.603,3.92-7.603,8.672c0,4.276,2.139,8.593,6.652,8.593c2.653,0,4.752-1.505,5.702-3.445
				c0.396-0.752,0.594-1.663,0.594-2.732V507.313z"/>
			<path fill="#D27D69" d="M949.566,523.508c-2.258,1.465-4.554,2.139-7.049,2.139c-5.939,0-8.83-3.762-8.83-9.583
				c0-6.098,3.168-10.77,8.514-10.77c3.604,0,6.811,2.099,6.969,5.583h-1.702c-0.159-2.772-2.613-4.158-5.108-4.158
				c-4.949,0-6.969,5.108-6.969,9.385c0,4.949,2.692,7.998,7.127,7.998c2.376,0,4.355-0.831,6.296-1.821L949.566,523.508z"/>
			<path fill="#D27D69" d="M968.973,523.666c-2.02,1.307-4.356,2.139-7.128,2.139c-6.058,0-8.751-3.999-8.751-9.424
				c0-5.147,2.455-10.929,8.593-10.929c3.881,0,6.93,2.257,6.93,5.939c0,3.88-3.326,5.939-8.633,5.939h-5.068
				c0.437,4.355,2.614,6.93,6.93,6.93c2.495,0,4.435-0.832,6.375-1.822L968.973,523.666z M959.983,515.787
				c3.881,0,6.93-1.148,6.93-4.436c0-3.049-2.573-4.474-5.107-4.474c-5.188,0-7.088,5.622-6.97,8.909H959.983z"/>
			<path fill="#D27D69" d="M984.854,505.215c1.307,0.95,2.218,2.336,2.812,4.078l4.554,13.779l5.662-17.304h1.861l5.623,17.304
				l5.662-17.304h1.663l-6.375,19.601h-1.861l-5.662-17.304l-5.662,17.304h-1.901l-5.385-16.591
				c-0.356-0.832-1.069-1.742-1.821-2.257L984.854,505.215z"/>
			<path fill="#D27D69" d="M1019.19,509.57c1.742-2.931,3.96-4.237,7.088-4.237c4.316,0,6.296,2.099,6.296,6.217v10.81
				c0,1.069,0.871,1.663,1.703,1.663c0.436,0,0.871-0.158,1.188-0.515l1.386,0.95c-0.673,0.832-1.544,1.228-2.573,1.228
				c-1.98,0-3.366-1.425-3.366-3.326v-10.69c0-3.287-1.86-4.791-4.949-4.791c-3.049,0-4.87,1.702-6.771,4.276v14.136h-1.663v-28.747
				h1.663V509.57z"/>
			<path fill="#D27D69" d="M1054.871,523.666c-2.02,1.307-4.356,2.139-7.128,2.139c-6.058,0-8.751-3.999-8.751-9.424
				c0-5.147,2.455-10.929,8.593-10.929c3.881,0,6.93,2.257,6.93,5.939c0,3.88-3.326,5.939-8.633,5.939h-5.068
				c0.437,4.355,2.614,6.93,6.93,6.93c2.495,0,4.435-0.832,6.375-1.822L1054.871,523.666z M1045.882,515.787
				c3.881,0,6.93-1.148,6.93-4.436c0-3.049-2.573-4.474-5.107-4.474c-5.188,0-7.088,5.622-6.97,8.909H1045.882z"/>
			<path fill="#D27D69" d="M1059.942,505.65c1.268,1.029,1.821,2.257,2.06,4.078c0.712-1.544,1.742-2.771,2.771-3.445
				c0.95-0.594,2.099-0.831,3.326-0.831c0.475,0,0.752,0.039,2.059,0.277v1.504c-0.91-0.158-1.505-0.197-1.979-0.197
				c-1.584,0-2.692,0.356-3.643,1.108c-0.713,0.594-1.743,1.742-2.416,3.049v14.215h-1.663v-13.978c0-2.059-0.515-3.682-1.505-4.791
				L1059.942,505.65z"/>
			<path fill="#D27D69" d="M1087.067,523.666c-2.02,1.307-4.356,2.139-7.128,2.139c-6.058,0-8.751-3.999-8.751-9.424
				c0-5.147,2.455-10.929,8.593-10.929c3.881,0,6.93,2.257,6.93,5.939c0,3.88-3.326,5.939-8.633,5.939h-5.068
				c0.436,4.355,2.614,6.93,6.93,6.93c2.495,0,4.435-0.832,6.375-1.822L1087.067,523.666z M1078.078,515.787
				c3.881,0,6.93-1.148,6.93-4.436c0-3.049-2.573-4.474-5.107-4.474c-5.188,0-7.088,5.622-6.97,8.909H1078.078z"/>
			<path fill="#D27D69" d="M1102.95,505.215c1.307,0.95,2.218,2.336,2.812,4.078l4.554,13.779l5.662-17.304h1.861l5.623,17.304
				l5.662-17.304h1.663l-6.375,19.601h-1.861l-5.662-17.304l-5.662,17.304h-1.901l-5.385-16.591
				c-0.356-0.832-1.069-1.742-1.821-2.257L1102.95,505.215z"/>
			<path fill="#D27D69" d="M1149.799,523.666c-2.02,1.307-4.356,2.139-7.128,2.139c-6.058,0-8.751-3.999-8.751-9.424
				c0-5.147,2.455-10.929,8.593-10.929c3.881,0,6.93,2.257,6.93,5.939c0,3.88-3.326,5.939-8.633,5.939h-5.068
				c0.437,4.355,2.614,6.93,6.93,6.93c2.495,0,4.435-0.832,6.375-1.822L1149.799,523.666z M1140.81,515.787
				c3.881,0,6.93-1.148,6.93-4.436c0-3.049-2.573-4.474-5.107-4.474c-5.188,0-7.088,5.622-6.97,8.909H1140.81z"/>
			<path fill="#D27D69" d="M1185.836,524.537c-0.713,0.951-1.663,1.268-2.574,1.268c-1.94,0-3.405-1.505-3.405-3.405
				c0-0.237,0.04-0.515,0.079-0.752c-1.108,2.93-3.444,4.157-6.414,4.157c-5.623,0-8.355-4.633-8.355-10.058
				c0-6.098,3.524-10.295,9.583-10.295c1.188,0,3.365,0.158,4.791,0.356h1.979v16.63c0,1.069,0.911,1.703,1.703,1.703
				c0.436,0,0.91-0.158,1.228-0.515L1185.836,524.537z M1179.856,507.313c-1.108,0.039-3.801-0.317-5.346-0.317
				c-4.989,0-7.603,3.92-7.603,8.672c0,4.276,2.139,8.593,6.652,8.593c2.653,0,4.752-1.505,5.702-3.445
				c0.396-0.752,0.594-1.663,0.594-2.732V507.313z"/>
			<path fill="#D27D69" d="M1189.205,505.65c1.268,1.029,1.821,2.257,2.06,4.078c0.712-1.544,1.742-2.771,2.771-3.445
				c0.95-0.594,2.099-0.831,3.326-0.831c0.475,0,0.752,0.039,2.059,0.277v1.504c-0.91-0.158-1.505-0.197-1.979-0.197
				c-1.584,0-2.692,0.356-3.643,1.108c-0.713,0.594-1.743,1.742-2.416,3.049v14.215h-1.663v-13.978c0-2.059-0.515-3.682-1.505-4.791
				L1189.205,505.65z"/>
			<path fill="#D27D69" d="M1216.331,523.666c-2.02,1.307-4.356,2.139-7.128,2.139c-6.058,0-8.751-3.999-8.751-9.424
				c0-5.147,2.455-10.929,8.593-10.929c3.881,0,6.93,2.257,6.93,5.939c0,3.88-3.326,5.939-8.633,5.939h-5.068
				c0.436,4.355,2.614,6.93,6.93,6.93c2.495,0,4.435-0.832,6.375-1.822L1216.331,523.666z M1207.342,515.787
				c3.881,0,6.93-1.148,6.93-4.436c0-3.049-2.573-4.474-5.107-4.474c-5.188,0-7.088,5.622-6.97,8.909H1207.342z"/>
		</g>
	</g>
	<g>
		<g>
			<path fill="#D27D69" d="M798.85,501.025h30.015v145.831H798.85V501.025z"/>
			<path fill="#D27D69" d="M895.335,557.323c28.827,0,51.889,18.992,51.889,46.123c0,26.792-21.875,45.954-51.889,45.954
				c-31.371,0-52.397-19.162-52.397-45.954C842.938,576.315,865.999,557.323,895.335,557.323z M895.165,623.795
				c11.7,0,20.179-8.479,20.179-20.349c0-12.039-8.987-20.519-20.179-20.519c-11.361,0-20.349,8.479-20.349,20.519
				C874.816,615.316,882.956,623.795,895.165,623.795z"/>
			<path fill="#D27D69" d="M1003.69,607.177l21.196-47.311h35.609l-46.632,86.99h-20.349l-46.632-86.99h35.61L1003.69,607.177z"/>
			<path fill="#D27D69" d="M1091.695,607.516c0,13.396,11.191,17.975,18.822,17.975c9.665,0,13.904-1.865,21.196-9.665
				l21.705,10.853c-9.835,16.448-25.775,22.723-45.106,22.723c-26.283,0-47.818-20.688-47.818-45.954
				c0-25.436,21.535-46.123,47.818-46.123c26.453,0,46.633,15.601,46.633,46.123c0,1.187,0,3.053-0.17,4.069H1091.695z
				 M1125.609,590.898c-1.356-9.157-7.631-14.075-16.448-14.075c-10.344,0-16.109,6.104-16.618,14.075H1125.609z"/>
			<path fill="#D27D69" d="M1205.983,557.323c11.7,0,21.366,3.899,28.488,10.853v-67.15h30.014v145.831h-29.675v-9.835h-0.339
				c-6.444,7.122-16.618,12.379-28.488,12.379c-25.436,0-43.24-20.519-43.24-45.954S1180.548,557.323,1205.983,557.323z
				 M1214.971,623.795c11.7,0,20.179-8.479,20.179-20.349c0-12.039-8.987-20.519-20.179-20.519
				c-11.361,0-20.349,8.479-20.349,20.519C1194.622,615.316,1202.762,623.795,1214.971,623.795z"/>
		</g>
	</g>
	<g>
		<g>
			<path fill="#D27D69" d="M818.506,697.719c-0.811,1.08-1.89,1.44-2.925,1.44c-2.205,0-3.87-1.71-3.87-3.87
				c0-0.27,0.045-0.585,0.09-0.854c-1.26,3.329-3.915,4.725-7.289,4.725c-6.391,0-9.495-5.265-9.495-11.43
				c0-6.93,4.005-11.699,10.89-11.699c1.35,0,3.825,0.18,5.444,0.404h2.25v18.899c0,1.215,1.035,1.935,1.936,1.935
				c0.495,0,1.034-0.18,1.395-0.585L818.506,697.719z M811.711,678.145c-1.26,0.045-4.319-0.359-6.075-0.359
				c-5.669,0-8.64,4.454-8.64,9.854c0,4.859,2.431,9.765,7.561,9.765c3.015,0,5.399-1.71,6.479-3.915
				c0.45-0.855,0.675-1.89,0.675-3.105V678.145z"/>
			<path fill="#D27D69" d="M821.884,676.255c1.485,1.125,2.07,2.79,2.295,4.68c2.25-3.6,4.905-4.904,8.28-4.904
				c4.364,0,6.795,1.935,7.064,6.39v13.049c0,1.215,1.08,1.936,1.979,1.936c0.45,0,0.945-0.181,1.351-0.585l1.529,1.034
				c-0.765,0.99-1.664,1.44-2.925,1.44c-2.34,0-3.824-1.71-3.824-3.825V683.59c0-3.87-1.8-5.805-5.4-5.805
				c-3.6,0-5.805,2.024-7.919,4.859v16.064h-1.846v-15.885c0-2.34-0.585-4.185-1.71-5.444L821.884,676.255z"/>
			<path fill="#D27D69" d="M865.4,695.334c0,0.99,0.9,1.935,1.98,1.935c0.495,0,0.989-0.18,1.35-0.585l1.575,1.035
				c-0.811,1.08-1.89,1.44-2.925,1.44c-2.205,0-3.87-1.71-3.87-3.87c0-0.27,0.045-0.585,0.09-0.854
				c-1.26,3.329-3.96,4.725-7.244,4.725c-6.3,0-9.54-5.175-9.54-11.43c0-6.885,4.005-11.699,10.89-11.699
				c1.439,0,4.185,0.225,5.805,0.449v-10.484h1.89V695.334z M863.511,678.234c-0.9,0-2.43-0.449-4.859-0.449
				c-7.29,0-9.855,4.229-9.855,9.629c0,5.311,2.521,9.99,7.561,9.99c2.835,0,5.31-1.485,6.479-3.915
				c0.45-0.855,0.675-1.89,0.675-3.105V678.234z"/>
			<path fill="#D27D69" d="M887.094,675.76c1.485,1.08,2.52,2.655,3.195,4.635l5.175,15.659l6.435-19.664h2.114l6.391,19.664
				l6.435-19.664h1.89l-7.245,22.274h-2.114L902.934,679l-6.436,19.664h-2.159l-6.12-18.854c-0.405-0.945-1.215-1.979-2.07-2.564
				L887.094,675.76z"/>
			<path fill="#D27D69" d="M926.112,680.71c1.98-3.33,4.5-4.815,8.055-4.815c4.905,0,7.155,2.385,7.155,7.065v12.284
				c0,1.215,0.989,1.89,1.935,1.89c0.495,0,0.99-0.18,1.35-0.585l1.575,1.08c-0.765,0.945-1.755,1.395-2.925,1.395
				c-2.25,0-3.825-1.619-3.825-3.779v-12.149c0-3.735-2.114-5.445-5.624-5.445c-3.465,0-5.535,1.936-7.695,4.86v16.064h-1.89
				v-32.669h1.89V680.71z"/>
			<path fill="#D27D69" d="M966.658,696.729c-2.295,1.485-4.949,2.431-8.1,2.431c-6.885,0-9.944-4.545-9.944-10.71
				c0-5.85,2.79-12.419,9.765-12.419c4.41,0,7.875,2.564,7.875,6.749c0,4.41-3.78,6.75-9.81,6.75h-5.76
				c0.495,4.95,2.97,7.875,7.874,7.875c2.835,0,5.04-0.945,7.245-2.07L966.658,696.729z M956.444,687.774
				c4.409,0,7.874-1.305,7.874-5.04c0-3.465-2.925-5.085-5.805-5.085c-5.895,0-8.055,6.39-7.92,10.125H956.444z"/>
			<path fill="#D27D69" d="M972.421,676.255c1.44,1.17,2.07,2.564,2.34,4.635c0.811-1.755,1.98-3.149,3.15-3.915
				c1.08-0.675,2.385-0.944,3.779-0.944c0.54,0,0.855,0.045,2.34,0.314v1.71c-1.034-0.18-1.71-0.225-2.25-0.225
				c-1.8,0-3.06,0.404-4.14,1.26c-0.81,0.675-1.979,1.979-2.745,3.465v16.154h-1.89v-15.885c0-2.34-0.585-4.185-1.71-5.444
				L972.421,676.255z"/>
			<path fill="#D27D69" d="M1003.246,696.729c-2.295,1.485-4.949,2.431-8.1,2.431c-6.885,0-9.944-4.545-9.944-10.71
				c0-5.85,2.79-12.419,9.765-12.419c4.41,0,7.875,2.564,7.875,6.749c0,4.41-3.78,6.75-9.81,6.75h-5.76
				c0.495,4.95,2.97,7.875,7.874,7.875c2.835,0,5.04-0.945,7.245-2.07L1003.246,696.729z M993.032,687.774
				c4.409,0,7.874-1.305,7.874-5.04c0-3.465-2.925-5.085-5.805-5.085c-5.895,0-8.055,6.39-7.92,10.125H993.032z"/>
			<path fill="#D27D69" d="M1021.294,675.76c1.485,1.08,2.52,2.655,3.195,4.635l5.175,15.659l6.435-19.664h2.114l6.391,19.664
				l6.435-19.664h1.89l-7.245,22.274h-2.114L1037.134,679l-6.436,19.664h-2.159l-6.12-18.854c-0.405-0.945-1.215-1.979-2.07-2.564
				L1021.294,675.76z"/>
			<path fill="#D27D69" d="M1074.531,696.729c-2.295,1.485-4.949,2.431-8.1,2.431c-6.885,0-9.944-4.545-9.944-10.71
				c0-5.85,2.79-12.419,9.765-12.419c4.41,0,7.875,2.564,7.875,6.749c0,4.41-3.78,6.75-9.81,6.75h-5.76
				c0.495,4.95,2.97,7.875,7.874,7.875c2.835,0,5.04-0.945,7.245-2.07L1074.531,696.729z M1064.317,687.774
				c4.409,0,7.874-1.305,7.874-5.04c0-3.465-2.925-5.085-5.805-5.085c-5.895,0-8.055,6.39-7.92,10.125H1064.317z"/>
			<path fill="#D27D69" d="M1110.039,696.549c-2.564,1.665-5.175,2.43-8.01,2.43c-6.749,0-10.034-4.274-10.034-10.89
				c0-6.93,3.6-12.239,9.675-12.239c4.095,0,7.739,2.385,7.92,6.345h-1.936c-0.18-3.149-2.97-4.725-5.805-4.725
				c-5.625,0-7.92,5.805-7.92,10.665c0,5.624,3.061,9.089,8.1,9.089c2.7,0,4.95-0.944,7.155-2.069L1110.039,696.549z"/>
			<path fill="#D27D69" d="M1137.536,697.719c-0.811,1.08-1.89,1.44-2.925,1.44c-2.205,0-3.87-1.71-3.87-3.87
				c0-0.27,0.045-0.585,0.09-0.854c-1.26,3.329-3.915,4.725-7.289,4.725c-6.391,0-9.495-5.265-9.495-11.43
				c0-6.93,4.005-11.699,10.89-11.699c1.35,0,3.825,0.18,5.444,0.404h2.25v18.899c0,1.215,1.035,1.935,1.936,1.935
				c0.495,0,1.034-0.18,1.395-0.585L1137.536,697.719z M1130.741,678.145c-1.26,0.045-4.319-0.359-6.075-0.359
				c-5.669,0-8.64,4.454-8.64,9.854c0,4.859,2.431,9.765,7.561,9.765c3.015,0,5.399-1.71,6.479-3.915
				c0.45-0.855,0.675-1.89,0.675-3.105V678.145z"/>
			<path fill="#D27D69" d="M1140.914,676.255c1.485,1.125,2.07,2.79,2.295,4.68c2.25-3.6,4.905-4.904,8.28-4.904
				c4.364,0,6.795,1.935,7.064,6.39v13.049c0,1.215,1.08,1.936,1.979,1.936c0.45,0,0.945-0.181,1.351-0.585l1.529,1.034
				c-0.765,0.99-1.664,1.44-2.925,1.44c-2.34,0-3.824-1.71-3.824-3.825V683.59c0-3.87-1.8-5.805-5.4-5.805
				c-3.6,0-5.805,2.024-7.919,4.859v16.064h-1.846v-15.885c0-2.34-0.585-4.185-1.71-5.444L1140.914,676.255z"/>
			<path fill="#D27D69" d="M1183.802,694.704c0,0.63,0.54,1.035,1.035,1.035c0.45,0,0.72-0.226,1.035-0.9l2.88,1.89
				c-0.72,1.485-2.475,2.431-4.005,2.431c-2.34,0-4.365-2.07-4.365-4.455V666.04h3.42V694.704z"/>
			<path fill="#D27D69" d="M1213.997,687.414c0,6.885-4.814,11.79-11.43,11.79c-6.705,0-11.34-5.085-11.34-11.745
				c0-6.659,4.635-11.924,11.385-11.924C1209.272,675.535,1213.997,680.62,1213.997,687.414z M1194.783,687.414
				c0,5.04,3.015,8.46,7.829,8.46c4.995,0,7.83-3.689,7.83-8.64c0-5.085-3.061-8.37-7.83-8.37
				C1197.527,678.864,1194.783,682.645,1194.783,687.414z"/>
			<path fill="#D27D69" d="M1218.994,675.04c2.07,1.17,3.42,3.149,4.096,5.265l4.14,12.6l5.534-16.965h3.51l-7.47,22.859h-3.194
				l-6.075-18.494v0.045c-0.449-1.08-1.484-2.16-2.43-2.43L1218.994,675.04z"/>
			<path fill="#D27D69" d="M1258.461,696.324c-2.386,1.71-5.4,2.88-8.82,2.88c-7.02,0-10.305-4.905-10.305-10.979
				c0-5.76,2.925-12.689,10.125-12.689c4.455,0,8.279,2.835,8.279,7.244c0,4.68-4.14,7.29-10.124,7.29h-4.545
				c0.63,3.779,2.7,5.805,6.569,5.805c2.745,0,4.815-0.99,7.155-2.25L1258.461,696.324z M1247.616,686.739
				c3.96,0,6.659-1.08,6.659-3.96c0-2.745-2.25-4.05-4.68-4.05c-4.545,0-6.524,4.68-6.704,8.01H1247.616z"/>
			<path fill="#D27D69" d="M1266.833,697.269c0,0.945-0.72,1.62-1.665,1.62c-0.944,0-1.619-0.675-1.619-1.62
				c0-0.944,0.675-1.619,1.619-1.619C1266.113,695.649,1266.833,696.324,1266.833,697.269z"/>
		</g>
	</g>
</g>
<path id="fill-anchor" fill="#D27D69" d="M877.365,803.8c-0.077,0.177-0.703,1.643-0.955,2.223
	c-0.063,0.145-0.173,0.211-0.342,0.158c-0.167-0.054-3.965-1.355-3.965-1.355s-9.408,12.367-23.306,12.465
	c-13.896,0.098-20.419,2.953-22.604,2.441l-0.016-0.007c-2.076-0.856-5.726-6.968-16.978-15.12
	c-11.256-8.153-11.727-23.687-11.727-23.687s-3.849-1.144-4.018-1.197c-0.167-0.056-0.218-0.175-0.185-0.329
	c0.132-0.615,0.473-2.176,0.514-2.363c0.051-0.235,0.27-0.225,0.374-0.237c0.094-0.014,11.823,3.164,13.928,3.735
	c0.209,0.058,0.291,0.199,0.244,0.369c-0.148,0.534-0.669,2.051-0.722,2.228c-0.065,0.236-0.24,0.275-0.502,0.235
	c-0.263-0.043-1.926-0.509-1.926-0.509s-0.786,7.535,7.779,13.281c8.567,5.746,15.978,2.523,15.978,2.523l14.589-42.607
	c-2.193-0.921-4.86-2.089-5.656-2.642c-1.422-0.987-1.435-2.367,0.699-1.986l6.168,1.094l1.407-4.112
	c-2.593-1.708-4.312-4.642-4.325-7.98c-0.021-5.305,4.261-9.62,9.564-9.643c5.302-0.021,9.62,4.259,9.642,9.563
	c0.021,5.14-3.999,9.354-9.076,9.629l-1.307,4.383c2.51,1.198,5.956,2.895,6.665,3.508c1.137,0.988,0.574,1.981-1.128,1.564
	c-1.017-0.249-4.205-0.944-6.612-1.465l-12.768,42.819c0,0,3.547,7.129,13.858,7.429c10.313,0.301,14.048-6.29,14.048-6.29
	s-1.625-0.587-1.863-0.707c-0.235-0.119-0.355-0.252-0.272-0.481c0.063-0.174,0.521-1.712,0.706-2.231
	c0.061-0.167,0.213-0.233,0.412-0.161c2.049,0.761,13.442,4.988,13.511,5.053C877.275,803.462,877.46,803.579,877.365,803.8z
	 M851.419,735.728c-2.557,0.01-4.622,2.092-4.612,4.648c0.011,2.558,2.094,4.62,4.65,4.61c2.558-0.012,4.622-2.092,4.611-4.648
	S853.977,735.717,851.419,735.728z"/>
</svg>
