<?xml version="1.0" encoding="utf-8"?>
<!-- Generator: Adobe Illustrator 14.0.0, SVG Export Plug-In . SVG Version: 6.00 Build 43363)  -->
<!DOCTYPE svg PUBLIC "-//W3C//DTD SVG 1.1//EN" "http://www.w3.org/Graphics/SVG/1.1/DTD/svg11.dtd">
<svg version="1.1" id="Layer_1" xmlns="http://www.w3.org/2000/svg" xmlns:xlink="http://www.w3.org/1999/xlink" x="0px" y="0px"
	 width="864px" height="1296px" viewBox="0 0 864 1296" enable-background="new 0 0 864 1296" xml:space="preserve">
<rect id="photo" x="-1" fill="#D0D2D3" width="864" height="1296"/>
<g id="filltext">
	<path fill="#FFFFFF" d="M375.33,472.992l4.288-0.607l-5.084-35.866l-4.288,0.607l-0.222-1.56l10.471-1.484l0.221,1.56l-4.622,0.655
		l5.084,35.867l4.623-0.656l0.221,1.56l-10.471,1.484L375.33,472.992z"/>
	<path fill="#FFFFFF" d="M405.864,469.505l4.098-0.239l-2.271-38.971l-4.044,0.236l-0.091-1.573l5.615-0.327l2.365,40.543
		l4.659-0.271l0.093,1.572l-10.333,0.603L405.864,469.505z"/>
	<path fill="#FFFFFF" d="M419.689,459.636c-0.007-1.5,0.269-2.927,0.824-4.279s1.329-2.527,2.318-3.527
		c0.989-0.998,2.148-1.791,3.477-2.378c1.327-0.587,2.761-0.884,4.299-0.892c1.537-0.007,2.982,0.277,4.336,0.852
		c1.353,0.575,2.527,1.357,3.525,2.346c0.999,0.989,1.791,2.157,2.379,3.504s0.885,2.771,0.893,4.27
		c0.007,1.539-0.277,2.975-0.853,4.308c-0.575,1.335-1.357,2.491-2.346,3.471c-0.99,0.98-2.158,1.763-3.505,2.351
		c-1.348,0.587-2.79,0.885-4.327,0.892c-1.538,0.007-2.974-0.277-4.308-0.852c-1.334-0.575-2.501-1.348-3.498-2.318
		c-0.998-0.97-1.781-2.12-2.351-3.448C419.985,462.607,419.697,461.174,419.689,459.636z M421.265,459.628
		c0.007,1.313,0.257,2.54,0.751,3.681c0.494,1.142,1.166,2.132,2.017,2.972s1.85,1.501,2.999,1.983
		c1.149,0.482,2.383,0.72,3.699,0.714c1.278-0.006,2.499-0.255,3.663-0.749c1.163-0.492,2.167-1.163,3.009-2.011
		c0.843-0.848,1.515-1.843,2.018-2.99c0.503-1.146,0.752-2.375,0.745-3.688c-0.006-1.312-0.266-2.539-0.779-3.681
		c-0.514-1.141-1.194-2.141-2.045-3c-0.851-0.858-1.859-1.529-3.027-2.011s-2.393-0.72-3.67-0.715
		c-1.316,0.006-2.548,0.257-3.693,0.749c-1.145,0.493-2.138,1.173-2.979,2.039c-0.843,0.867-1.506,1.873-1.99,3.019
		C421.498,457.087,421.259,458.316,421.265,459.628z"/>
	<path fill="#FFFFFF" d="M446.556,449.043l9.592,0.716l-0.117,1.571l-3.87-0.289c1.294,3.058,2.589,6.125,3.883,9.202
		c1.293,3.077,2.548,6.161,3.765,9.25c1.525-2.698,3.163-5.499,4.913-8.405c1.749-2.906,3.526-5.81,5.333-8.711l-3.253-0.243
		l0.116-1.57l8.752,0.653l-0.118,1.571l-3.926-0.293c-2.02,3.375-4.026,6.703-6.02,9.986c-1.994,3.284-4,6.611-6.02,9.986
		c-1.533-3.64-3.042-7.229-4.526-10.772c-1.484-3.542-2.975-7.132-4.471-10.769l-4.151-0.31L446.556,449.043z"/>
	<path fill="#FFFFFF" d="M499.756,461.936c-3.189,0.763-6.376,1.509-9.561,2.235s-6.371,1.472-9.561,2.235
		c0.448,1.775,1.346,3.289,2.691,4.537c1.345,1.25,3,2.024,4.964,2.325c1.26,0.192,2.462,0.149,3.605-0.131
		c1.144-0.281,2.2-0.745,3.173-1.393c0.119,0.209,0.238,0.416,0.359,0.624c0.119,0.208,0.257,0.419,0.416,0.632
		c-1.107,0.78-2.32,1.333-3.641,1.663c-1.321,0.328-2.705,0.383-4.15,0.161c-1.521-0.233-2.895-0.737-4.122-1.513
		c-1.228-0.776-2.251-1.719-3.066-2.831c-0.817-1.111-1.411-2.369-1.784-3.772s-0.442-2.866-0.21-4.386
		c0.227-1.482,0.729-2.848,1.508-4.094c0.779-1.246,1.724-2.277,2.836-3.094c1.11-0.815,2.368-1.41,3.771-1.784
		c1.404-0.373,2.866-0.444,4.387-0.211c2.224,0.341,4.074,1.326,5.551,2.956S499.344,459.673,499.756,461.936z M491.134,454.698
		c-1.521-0.232-2.961-0.116-4.321,0.348c-1.361,0.465-2.54,1.163-3.536,2.096c-0.996,0.932-1.768,2.066-2.313,3.403
		c-0.548,1.337-0.744,2.746-0.592,4.228c2.95-0.687,5.872-1.368,8.764-2.045c2.892-0.675,5.813-1.357,8.764-2.044
		c-0.484-1.541-1.317-2.86-2.495-3.957C494.224,455.63,492.802,454.954,491.134,454.698z"/>
	<path fill="#FFFFFF" d="M516.696,492.696l4.493,1.268c1.533-1.702,3.084-3.407,4.657-5.116c1.573-1.71,3.12-3.397,4.642-5.062
		c-0.73-3.625-1.438-7.233-2.119-10.825c-0.684-3.591-1.372-7.195-2.066-10.81l-4.007-1.13l0.428-1.516l9.366,2.641l-0.427,1.516
		l-3.627-1.022c0.621,3.322,1.257,6.628,1.907,9.918c0.65,3.291,1.249,6.586,1.801,9.888c2.126-2.429,4.343-4.902,6.649-7.417
		c2.306-2.515,4.609-5.021,6.912-7.519l-3.086-0.87l0.428-1.516l8.5,2.396l-0.428,1.516l-3.736-1.053
		c-8.062,8.831-16.082,17.654-24.061,26.47l3.735,1.053l-0.427,1.516l-9.962-2.809L516.696,492.696z"/>
	<path fill="#FFFFFF" d="M552.13,479.05c0.521-1.406,1.278-2.646,2.273-3.717c0.997-1.071,2.132-1.9,3.41-2.488
		c1.275-0.587,2.64-0.923,4.09-1.006c1.45-0.084,2.896,0.141,4.338,0.674c1.441,0.533,2.695,1.307,3.761,2.32
		c1.064,1.014,1.89,2.159,2.478,3.435c0.586,1.277,0.919,2.649,0.997,4.117c0.076,1.468-0.146,2.905-0.665,4.312
		c-0.533,1.442-1.304,2.687-2.311,3.734s-2.146,1.855-3.415,2.425c-1.271,0.57-2.64,0.894-4.107,0.97
		c-1.468,0.076-2.924-0.151-4.364-0.685c-1.443-0.533-2.688-1.303-3.733-2.31c-1.048-1.006-1.869-2.139-2.462-3.399
		c-0.595-1.259-0.924-2.61-0.989-4.054C551.363,481.936,551.597,480.493,552.13,479.05z M553.606,479.596
		c-0.455,1.231-0.651,2.468-0.59,3.71c0.063,1.243,0.344,2.406,0.845,3.491c0.502,1.084,1.206,2.055,2.112,2.909
		c0.907,0.856,1.979,1.511,3.212,1.968c1.199,0.443,2.431,0.639,3.693,0.586c1.262-0.052,2.438-0.329,3.523-0.826
		c1.087-0.499,2.065-1.195,2.939-2.092c0.872-0.896,1.537-1.96,1.993-3.191c0.455-1.231,0.642-2.471,0.562-3.72
		c-0.079-1.249-0.366-2.424-0.86-3.527c-0.495-1.103-1.205-2.084-2.129-2.946c-0.925-0.861-1.986-1.515-3.186-1.958
		c-1.235-0.457-2.476-0.655-3.72-0.596c-1.245,0.06-2.414,0.347-3.507,0.862c-1.094,0.516-2.068,1.225-2.922,2.128
		C554.717,477.298,554.062,478.365,553.606,479.596z"/>
	<path fill="#FFFFFF" d="M580.915,478.597l5.322,2.429l-6.242,13.676c-0.477,1.221-0.509,2.438-0.099,3.654
		c0.41,1.215,1.313,2.182,2.71,2.902c1.088,0.497,2.213,0.795,3.379,0.896c1.164,0.102,2.277,0.006,3.334-0.29
		c1.059-0.296,2.015-0.792,2.866-1.488c0.852-0.697,1.519-1.571,1.998-2.622l4.295-9.409l-3.939-1.799l0.653-1.433l5.373,2.453
		l-8.176,17.91l3.787,1.729l-0.585,1.28l-4.91-2.242l1.135-2.76l0.999-2.326c-1.428,1.328-3.119,2.132-5.075,2.414
		s-3.888-0.012-5.791-0.881c-1.835-0.837-3.048-2.028-3.638-3.572c-0.589-1.543-0.53-3.181,0.179-4.913l5.66-12.399l-3.889-1.775
		L580.915,478.597z"/>
	<path fill="#FFFFFF" d="M613.795,516.629l3.881,2.279l9.089-15.471l-3.879-2.279l0.797-1.358l5.237,3.077l-9.887,16.829
		l3.734,2.194l-0.799,1.358l-8.972-5.272L613.795,516.629z M630.655,495.481c0.21-0.355,0.519-0.586,0.93-0.693
		c0.41-0.106,0.794-0.055,1.15,0.154c0.355,0.208,0.578,0.514,0.67,0.915c0.09,0.402,0.03,0.78-0.179,1.135
		c-0.209,0.356-0.505,0.583-0.891,0.684c-0.385,0.1-0.755,0.045-1.11-0.164c-0.357-0.209-0.593-0.511-0.709-0.905
		C630.4,496.212,630.447,495.837,630.655,495.481z"/>
	<path fill="#FFFFFF" d="M638.83,532.255l3.692,2.472l7.494-11.198c0.663-1.125,0.89-2.32,0.679-3.583
		c-0.213-1.263-0.948-2.361-2.21-3.295c-0.994-0.665-2.057-1.141-3.191-1.429c-1.135-0.287-2.246-0.371-3.339-0.25
		c-1.093,0.122-2.114,0.457-3.067,1.008c-0.952,0.552-1.75,1.307-2.393,2.267l-5.752,8.595l3.646,2.44l-0.877,1.309l-8.602-5.757
		l0.877-1.309l3.646,2.44l9.979-14.912l-3.411-2.284l0.876-1.309l4.395,2.94l-1.283,2.12c-0.313,0.467-0.58,0.898-0.799,1.294
		c-0.22,0.394-0.486,0.825-0.799,1.292c1.625-1.079,3.42-1.604,5.386-1.574s3.838,0.639,5.614,1.828
		c1.683,1.126,2.684,2.494,3.006,4.104c0.32,1.61-0.008,3.213-0.984,4.808l-7.581,11.328l3.646,2.439l-0.876,1.31l-8.647-5.788
		L638.83,532.255z"/>
	<path fill="#FFFFFF" d="M688.378,527.978l1.207,1.011l-8.811,10.524l5.22,4.369l-1.011,1.208l-5.219-4.369l-11.518,13.759
		l3.622,3.034l-1.012,1.208l-4.831-4.044l12.53-14.967l-3.795-3.178l1.011-1.208l3.795,3.178L688.378,527.978z"/>
	<path fill="#FFFFFF" d="M687.535,571.786l3.223,3.061l9.277-9.771c0.845-0.997,1.269-2.136,1.272-3.416
		c0.006-1.28-0.534-2.488-1.62-3.622c-0.866-0.823-1.835-1.472-2.903-1.947c-1.069-0.475-2.151-0.746-3.249-0.81
		c-1.097-0.065-2.161,0.093-3.194,0.475c-1.031,0.382-1.944,0.992-2.74,1.83l-7.121,7.5l3.181,3.021l-1.085,1.142l-7.505-7.127
		l1.085-1.142l3.182,3.021l26.881-28.308l-2.978-2.827l1.085-1.143l4.119,3.913l-16.578,17.458l-1.865,1.72
		c1.811-0.764,3.675-0.971,5.595-0.623c1.918,0.349,3.653,1.258,5.202,2.73c1.469,1.395,2.226,2.913,2.27,4.554
		c0.044,1.641-0.55,3.165-1.782,4.573l-9.386,9.884l3.182,3.021l-1.085,1.142l-7.546-7.165L687.535,571.786z"/>
	<path fill="#FFFFFF" d="M720.52,588.218c-2.961-1.413-5.906-2.838-8.839-4.276c-2.934-1.438-5.878-2.864-8.839-4.276
		c-0.769,1.663-1.021,3.403-0.762,5.22c0.259,1.817,1.059,3.46,2.397,4.93c0.858,0.942,1.82,1.664,2.885,2.166
		c1.064,0.5,2.178,0.805,3.342,0.913c-0.039,0.237-0.075,0.474-0.112,0.711c-0.039,0.237-0.063,0.488-0.076,0.753
		c-1.35-0.089-2.642-0.422-3.875-0.998c-1.234-0.576-2.343-1.404-3.327-2.485c-1.037-1.137-1.787-2.394-2.253-3.769
		c-0.468-1.376-0.669-2.752-0.603-4.13c0.063-1.377,0.393-2.729,0.986-4.055c0.591-1.326,1.456-2.506,2.593-3.542
		c1.109-1.01,2.358-1.755,3.748-2.234c1.39-0.479,2.772-0.686,4.15-0.622c1.378,0.064,2.729,0.393,4.056,0.986
		c1.325,0.592,2.506,1.458,3.542,2.594c1.515,1.664,2.333,3.594,2.457,5.789C722.112,584.092,721.622,586.199,720.52,588.218z
		 M718.369,577.168c-1.036-1.138-2.229-1.953-3.579-2.447c-1.351-0.495-2.705-0.694-4.066-0.596
		c-1.362,0.098-2.674,0.495-3.939,1.191c-1.266,0.696-2.306,1.667-3.119,2.916c2.726,1.322,5.426,2.63,8.1,3.922
		c2.672,1.293,5.373,2.601,8.098,3.923c0.594-1.504,0.775-3.052,0.551-4.646C720.186,579.836,719.505,578.416,718.369,577.168z"/>
	<path fill="#FFFFFF" d="M741.876,637.701l2.509,3.668l11.121-7.606c1.034-0.798,1.688-1.822,1.961-3.073
		c0.273-1.251-0.002-2.544-0.824-3.881c-0.676-0.987-1.475-1.809-2.399-2.467c-0.924-0.657-1.895-1.136-2.912-1.435
		c-1.018-0.299-2.066-0.397-3.146-0.292c-1.08,0.105-2.093,0.458-3.035,1.058l-8.769,5.997l2.477,3.622l-1.3,0.889l-5.874-8.59
		l1.299-0.889l2.51,3.668l11.121-7.606c1.035-0.798,1.688-1.822,1.961-3.073c0.274-1.251-0.002-2.545-0.824-3.882
		c-0.675-0.986-1.484-1.824-2.431-2.512c-0.946-0.689-1.947-1.181-3.007-1.474c-1.059-0.294-2.133-0.363-3.223-0.206
		c-1.088,0.157-2.109,0.562-3.063,1.214l-8.536,5.839l2.477,3.621l-1.301,0.89l-5.843-8.543l1.3-0.89l2.478,3.621l14.812-10.129
		l-2.318-3.39l1.299-0.89l2.986,4.365l-1.979,1.491c-0.464,0.317-0.872,0.618-1.223,0.903c-0.35,0.284-0.757,0.586-1.222,0.904
		c1.909-0.397,3.77-0.217,5.584,0.542c1.813,0.758,3.324,2.02,4.531,3.784c1.058,1.547,1.49,3.093,1.295,4.635
		c-0.195,1.541-0.937,2.865-2.223,3.973c1.856-0.274,3.664-0.039,5.423,0.705c1.758,0.745,3.217,1.965,4.378,3.662
		c1.139,1.666,1.562,3.311,1.27,4.937c-0.294,1.626-1.19,2.998-2.69,4.115l-11.25,7.695l2.445,3.575l-1.301,0.89l-5.842-8.543
		L741.876,637.701z"/>
	<path fill="#FFFFFF" d="M756.931,644.965c1.313-0.724,2.697-1.166,4.151-1.325c1.454-0.159,2.855-0.043,4.206,0.348
		c1.349,0.391,2.6,1.029,3.753,1.914c1.15,0.885,2.097,2.001,2.84,3.348c0.742,1.346,1.185,2.751,1.327,4.214
		c0.142,1.464,0.017,2.87-0.371,4.22c-0.393,1.35-1.038,2.604-1.939,3.766c-0.902,1.16-2.011,2.104-3.323,2.828
		c-1.348,0.74-2.744,1.18-4.19,1.313c-1.447,0.133-2.837,0-4.169-0.399c-1.335-0.399-2.581-1.05-3.742-1.952
		c-1.16-0.902-2.112-2.026-2.854-3.373c-0.743-1.347-1.181-2.743-1.314-4.189c-0.133-1.446-0.014-2.84,0.361-4.182
		c0.374-1.34,1.009-2.578,1.903-3.713C754.463,646.646,755.583,645.708,756.931,644.965z M757.69,646.344
		c-1.15,0.634-2.106,1.441-2.872,2.421c-0.767,0.98-1.313,2.043-1.644,3.192c-0.331,1.148-0.434,2.344-0.307,3.584
		c0.126,1.239,0.508,2.436,1.144,3.59c0.616,1.119,1.42,2.072,2.409,2.857c0.99,0.786,2.06,1.346,3.207,1.68
		c1.146,0.334,2.343,0.447,3.591,0.34c1.246-0.107,2.445-0.477,3.595-1.111c1.149-0.633,2.102-1.449,2.859-2.445
		c0.756-0.996,1.308-2.074,1.655-3.23c0.346-1.158,0.451-2.365,0.316-3.621c-0.136-1.258-0.513-2.445-1.13-3.565
		c-0.635-1.153-1.443-2.114-2.424-2.883s-2.053-1.316-3.217-1.641c-1.165-0.325-2.364-0.426-3.603-0.301
		C760.033,645.332,758.84,645.71,757.69,646.344z"/>
	<path fill="#FFFFFF" d="M761.172,671.746l1.884,3.963l16.207-7.701l-1.762-3.709l1.423-0.676l2.269,4.775l-2.187,1.164
		c-0.509,0.242-0.958,0.475-1.349,0.703c-0.39,0.226-0.839,0.461-1.348,0.702c2.014-0.044,3.845,0.468,5.492,1.532
		s2.898,2.453,3.754,4.164l-1.447,0.625c-0.549-1.068-1.242-2.006-2.078-2.812c-0.838-0.808-1.749-1.421-2.733-1.846
		c-0.987-0.425-2.018-0.641-3.093-0.648c-1.077-0.008-2.121,0.229-3.131,0.708l-9.342,4.439l1.883,3.963l-1.422,0.676l-4.443-9.348
		L761.172,671.746z"/>
	<path fill="#FFFFFF" d="M774.896,702.853l1.64,4.13l12.521-4.975c1.186-0.551,2.048-1.406,2.591-2.566
		c0.541-1.16,0.557-2.482,0.049-3.968c-0.442-1.11-1.048-2.106-1.819-2.985c-0.771-0.88-1.64-1.58-2.608-2.1
		c-0.969-0.519-2.001-0.822-3.099-0.908c-1.097-0.087-2.182,0.083-3.256,0.51l-9.612,3.818l1.621,4.078l-1.464,0.58l-3.822-9.618
		l1.464-0.581l1.62,4.078l16.677-6.625l-1.517-3.816l1.464-0.582l1.951,4.914l-2.258,1.019c-0.523,0.208-0.986,0.411-1.392,0.612
		c-0.403,0.201-0.868,0.406-1.39,0.613c1.949,0.033,3.726,0.618,5.328,1.758c1.602,1.139,2.799,2.701,3.587,4.688
		c0.748,1.883,0.797,3.577,0.148,5.086c-0.647,1.508-1.827,2.642-3.536,3.402l-12.668,5.031l1.621,4.078l-1.465,0.582l-3.842-9.672
		L774.896,702.853z"/>
	<path fill="#FFFFFF" d="M779.708,715.877l1.411,4.272l17.038-5.626l-1.411-4.273l1.496-0.493l1.904,5.769l-18.534,6.121
		l1.358,4.111l-1.496,0.494l-3.262-9.881L779.708,715.877z M806.332,711.113c0.392-0.129,0.776-0.1,1.156,0.092
		c0.378,0.191,0.633,0.482,0.762,0.875c0.13,0.391,0.095,0.768-0.101,1.129c-0.198,0.361-0.491,0.605-0.883,0.735
		s-0.765,0.104-1.12-0.074s-0.598-0.464-0.728-0.856c-0.128-0.392-0.107-0.773,0.066-1.146
		C805.657,711.494,805.939,711.243,806.332,711.113z"/>
	<path fill="#FFFFFF" d="M788.198,744.127l1.143,4.293l13.021-3.465c1.241-0.407,2.198-1.155,2.873-2.244
		c0.675-1.088,0.847-2.398,0.516-3.934c-0.307-1.155-0.792-2.215-1.453-3.18c-0.662-0.964-1.442-1.762-2.344-2.391
		c-0.901-0.631-1.89-1.053-2.97-1.268c-1.08-0.216-2.177-0.174-3.293,0.123l-9.995,2.66l1.128,4.24l-1.521,0.404l-2.662-10.002
		l1.522-0.404l1.128,4.239l17.34-4.614l-1.056-3.969l1.522-0.405l1.36,5.11l-2.363,0.744c-0.544,0.146-1.029,0.293-1.453,0.445
		c-0.426,0.152-0.91,0.301-1.454,0.445c1.934,0.262,3.627,1.053,5.085,2.372s2.46,3.013,3.01,5.078
		c0.521,1.956,0.37,3.646-0.45,5.067c-0.822,1.422-2.127,2.408-3.913,2.963l-13.173,3.505l1.129,4.24l-1.522,0.405l-2.676-10.057
		L788.198,744.127z"/>
	<path fill="#FFFFFF" d="M814.574,774.201l1.025,5.357l-1.548,0.295l-0.792-4.145l-20.628,3.943
		c-1.948,0.373-3.728,0.436-5.34,0.191c-1.608-0.247-3.026-0.739-4.255-1.478c-1.227-0.739-2.244-1.681-3.055-2.824
		c-0.81-1.144-1.369-2.43-1.682-3.858c-0.222-1.563-0.233-3.173-0.035-4.833c0.197-1.661,0.776-3.079,1.735-4.255l1.271,0.957
		c-0.834,1.034-1.343,2.264-1.528,3.688c-0.187,1.424-0.157,2.779,0.089,4.064c0.232,1.212,0.709,2.309,1.432,3.295
		c0.724,0.984,1.629,1.781,2.72,2.391c1.09,0.609,2.344,1.027,3.76,1.251c1.418,0.224,2.938,0.181,4.559-0.129l4.087-0.781
		c0.517-0.099,1.016-0.185,1.498-0.257c0.481-0.074,0.984-0.141,1.507-0.203c-1.783-0.345-3.408-1.254-4.872-2.724
		c-1.466-1.472-2.412-3.328-2.84-5.567c-0.289-1.507-0.28-2.965,0.022-4.375s0.849-2.694,1.641-3.854
		c0.789-1.16,1.775-2.139,2.96-2.937c1.184-0.797,2.53-1.34,4.042-1.629c1.472-0.282,2.916-0.272,4.328,0.028
		s2.699,0.846,3.863,1.633c1.161,0.785,2.151,1.777,2.973,2.973c0.82,1.193,1.375,2.545,1.662,4.051
		c0.212,1.102,0.255,2.18,0.131,3.23c-0.123,1.051-0.383,2.043-0.777,2.975c-0.395,0.933-0.902,1.773-1.522,2.52
		s-1.306,1.363-2.052,1.849c0.921-0.176,1.845-0.334,2.772-0.474C812.652,774.432,813.603,774.309,814.574,774.201z
		 M800.642,757.334c-1.281,0.244-2.435,0.711-3.461,1.402c-1.025,0.691-1.871,1.528-2.537,2.512
		c-0.665,0.984-1.13,2.081-1.391,3.293c-0.262,1.211-0.27,2.459-0.024,3.744c0.246,1.285,0.715,2.452,1.409,3.5
		c0.692,1.047,1.532,1.914,2.518,2.602c0.985,0.686,2.082,1.162,3.291,1.426c1.208,0.264,2.452,0.273,3.733,0.029
		s2.434-0.713,3.461-1.404c1.025-0.691,1.878-1.539,2.559-2.545c0.68-1.004,1.149-2.123,1.409-3.352
		c0.257-1.23,0.264-2.487,0.019-3.773c-0.246-1.285-0.715-2.441-1.404-3.471c-0.689-1.03-1.534-1.877-2.535-2.543
		c-1-0.664-2.103-1.129-3.313-1.393C803.168,757.098,801.923,757.088,800.642,757.334z"/>
	<path fill="#FFFFFF" d="M807.672,802.371c1.498-0.086,2.927,0.114,4.289,0.6c1.36,0.484,2.565,1.193,3.615,2.13
		c1.049,0.935,1.901,2.05,2.559,3.346c0.657,1.295,1.029,2.71,1.118,4.245c0.064,1.123-0.034,2.201-0.293,3.229
		c-0.262,1.03-0.646,1.982-1.159,2.856c-0.514,0.874-1.128,1.644-1.841,2.304c-0.714,0.66-1.473,1.183-2.276,1.568
		c0.936-0.055,1.873-0.09,2.812-0.106c0.938-0.017,1.896-0.015,2.873,0.003l0.068,1.18l-19.486,1.121l0.24,4.156l-1.574,0.09
		l-0.319-5.56l2.64-0.151l3.088-0.178c-0.843-0.29-1.655-0.713-2.438-1.269c-0.784-0.557-1.479-1.239-2.09-2.048
		c-0.61-0.812-1.104-1.713-1.48-2.705c-0.375-0.992-0.597-2.068-0.663-3.229c-0.089-1.536,0.118-2.984,0.622-4.347
		c0.504-1.361,1.214-2.567,2.131-3.614c0.916-1.05,2.021-1.892,3.319-2.53C804.721,802.823,806.137,802.459,807.672,802.371z
		 M807.734,803.945c-1.306,0.076-2.515,0.389-3.626,0.941s-2.062,1.273-2.854,2.164c-0.79,0.891-1.396,1.92-1.815,3.091
		c-0.419,1.169-0.591,2.409-0.516,3.72s0.389,2.531,0.94,3.664c0.553,1.133,1.272,2.106,2.162,2.918
		c0.889,0.814,1.918,1.431,3.084,1.852c1.167,0.422,2.403,0.594,3.71,0.52c1.306-0.076,2.514-0.389,3.625-0.941
		c1.11-0.553,2.071-1.283,2.878-2.193c0.81-0.911,1.424-1.961,1.842-3.148c0.419-1.188,0.59-2.439,0.516-3.748
		c-0.076-1.311-0.39-2.523-0.94-3.637c-0.55-1.115-1.28-2.068-2.186-2.86c-0.907-0.794-1.944-1.401-3.111-1.821
		C810.276,804.043,809.04,803.87,807.734,803.945z"/>
	<path fill="#FFFFFF" d="M799.892,848.02l-0.102,4.443l13.471,0.307c1.306-0.046,2.435-0.496,3.385-1.354
		c0.951-0.856,1.483-2.068,1.593-3.635c0.027-1.195-0.143-2.347-0.509-3.458c-0.366-1.11-0.895-2.094-1.583-2.95
		s-1.521-1.539-2.497-2.047c-0.977-0.506-2.043-0.773-3.197-0.801l-10.341-0.234l-0.099,4.387l-1.575-0.036l0.236-10.347
		l1.573,0.035l-0.1,4.387l17.938,0.407l0.095-4.104l1.575,0.035l-0.121,5.287l-2.477,0.055c-0.563-0.012-1.068-0.005-1.521,0.023
		c-0.45,0.025-0.957,0.033-1.52,0.021c1.783,0.789,3.189,2.021,4.221,3.697c1.031,1.673,1.521,3.578,1.473,5.715
		c-0.045,2.025-0.661,3.605-1.847,4.741c-1.186,1.134-2.713,1.72-4.584,1.752l-13.626-0.31l-0.1,4.387l-1.575-0.035l0.236-10.404
		L799.892,848.02z"/>
	<path fill="#FFFFFF" d="M798.392,882.303l3.077,0.318c-0.787-0.42-1.521-0.969-2.206-1.643c-0.684-0.674-1.262-1.459-1.734-2.356
		s-0.816-1.865-1.028-2.905c-0.212-1.039-0.26-2.139-0.14-3.295c0.158-1.529,0.596-2.926,1.311-4.189
		c0.715-1.266,1.608-2.342,2.682-3.229c1.071-0.889,2.298-1.544,3.681-1.967c1.382-0.422,2.838-0.555,4.366-0.396
		c1.492,0.153,2.882,0.581,4.166,1.28c1.285,0.697,2.36,1.592,3.229,2.68c0.868,1.09,1.521,2.324,1.964,3.71
		c0.44,1.384,0.582,2.84,0.424,4.37c-0.116,1.119-0.386,2.165-0.807,3.14c-0.421,0.974-0.954,1.853-1.602,2.634
		c-0.646,0.781-1.374,1.441-2.184,1.979c-0.81,0.539-1.644,0.934-2.498,1.184c0.971,0.063,1.923,0.133,2.855,0.211
		s1.883,0.167,2.851,0.268l19.372,2.005l0.416-4.028l1.567,0.162l-0.574,5.539l-40.396-4.182l-0.428,4.141l-1.566-0.163l0.573-5.54
		L798.392,882.303z M808.21,864.205c-1.302-0.135-2.545-0.019-3.729,0.35c-1.185,0.367-2.239,0.928-3.162,1.68
		s-1.686,1.672-2.287,2.761c-0.602,1.087-0.969,2.284-1.104,3.589c-0.135,1.307-0.021,2.561,0.342,3.769
		c0.365,1.206,0.92,2.281,1.668,3.227c0.748,0.944,1.663,1.717,2.747,2.32c1.086,0.602,2.278,0.971,3.58,1.105
		s2.544,0.017,3.729-0.349c1.185-0.369,2.25-0.938,3.192-1.705c0.944-0.771,1.719-1.709,2.322-2.814
		c0.603-1.105,0.973-2.313,1.107-3.617c0.136-1.306,0.02-2.553-0.345-3.74c-0.366-1.188-0.934-2.246-1.702-3.174
		s-1.693-1.693-2.779-2.295C810.703,864.707,809.511,864.34,808.21,864.205z"/>
	<path fill="#FFFFFF" d="M793.254,907.398l-0.93,4.402l17.558,3.703l0.929-4.402l1.541,0.325l-1.253,5.944l-19.1-4.027l-0.893,4.238
		l-1.541-0.326l2.146-10.182L793.254,907.398z M818.663,916.666c0.403,0.085,0.721,0.305,0.953,0.66
		c0.231,0.355,0.305,0.734,0.219,1.139c-0.085,0.404-0.304,0.713-0.654,0.926c-0.353,0.213-0.729,0.277-1.133,0.191
		c-0.405-0.084-0.714-0.293-0.932-0.627c-0.217-0.333-0.283-0.701-0.197-1.105c0.085-0.404,0.296-0.723,0.633-0.958
		S818.259,916.581,818.663,916.666z"/>
	<path fill="#FFFFFF" d="M786.385,936.091l-1.173,4.285l12.996,3.557c1.277,0.272,2.482,0.108,3.611-0.493
		c1.131-0.601,1.939-1.647,2.426-3.14c0.314-1.153,0.43-2.313,0.344-3.479c-0.088-1.166-0.362-2.248-0.824-3.246
		c-0.46-0.996-1.102-1.861-1.927-2.59s-1.795-1.246-2.908-1.549l-9.976-2.731l-1.158,4.231l-1.52-0.416l2.732-9.982l1.519,0.416
		l-1.159,4.232l17.308,4.736l1.085-3.961l1.52,0.416l-1.396,5.1l-2.417-0.545c-0.542-0.148-1.035-0.264-1.48-0.347
		c-0.443-0.083-0.937-0.196-1.479-0.347c1.538,1.199,2.605,2.734,3.2,4.609c0.595,1.872,0.611,3.84,0.046,5.902
		c-0.534,1.953-1.514,3.337-2.939,4.152c-1.425,0.814-3.049,1.012-4.872,0.591l-13.146-3.597l-1.158,4.23l-1.519-0.416l2.746-10.037
		L786.385,936.091z"/>
	<path fill="#FFFFFF" d="M806.135,981.729l-0.577,1.466l-12.771-5.028l-2.494,6.332l-1.466-0.576l2.494-6.334l-16.695-6.574
		l-1.732,4.396l-1.465-0.578l2.309-5.861l18.161,7.152l1.814-4.606l1.464,0.577l-1.813,4.605L806.135,981.729z"/>
	<path fill="#FFFFFF" d="M764.292,994.813l-1.884,4.023l12.202,5.715c1.213,0.486,2.427,0.529,3.642,0.129
		c1.218-0.399,2.191-1.294,2.925-2.683c0.508-1.083,0.816-2.206,0.931-3.369c0.112-1.165,0.025-2.278-0.259-3.339
		c-0.285-1.062-0.771-2.021-1.46-2.881c-0.688-0.857-1.558-1.531-2.603-2.021L768.42,986l-1.861,3.973l-1.426-0.667l4.389-9.373
		l1.427,0.667l-1.861,3.975l35.354,16.557l1.741-3.719l1.427,0.668l-2.41,5.145l-21.802-10.211l-2.221-1.227
		c1.295,1.477,2.082,3.181,2.357,5.111c0.276,1.931-0.039,3.863-0.945,5.799c-0.858,1.834-2.06,3.031-3.604,3.592
		c-1.541,0.561-3.176,0.479-4.9-0.245l-12.344-5.78l-1.86,3.974l-1.427-0.669l4.413-9.424L764.292,994.813z"/>
	<path fill="#FFFFFF" d="M759.147,1031.267c0.404-3.255,0.824-6.501,1.261-9.737c0.437-3.238,0.857-6.482,1.263-9.737
		c-1.822-0.204-3.553,0.106-5.194,0.929c-1.643,0.82-2.948,2.098-3.919,3.832c-0.623,1.112-1.003,2.254-1.143,3.423
		c-0.138,1.169-0.075,2.321,0.19,3.458c-0.236,0.039-0.474,0.079-0.71,0.118c-0.236,0.038-0.483,0.095-0.738,0.168
		c-0.342-1.31-0.436-2.64-0.279-3.993s0.59-2.666,1.306-3.943c0.752-1.342,1.705-2.451,2.862-3.328s2.399-1.504,3.727-1.879
		c1.328-0.375,2.713-0.49,4.16-0.346c1.444,0.142,2.838,0.59,4.18,1.34c1.309,0.734,2.411,1.684,3.305,2.851
		c0.895,1.166,1.528,2.413,1.902,3.74s0.489,2.714,0.347,4.159c-0.143,1.444-0.59,2.838-1.341,4.18
		c-1.1,1.965-2.671,3.35-4.715,4.162C763.565,1031.473,761.411,1031.674,759.147,1031.267z M768.951,1025.73
		c0.751-1.342,1.146-2.731,1.188-4.168c0.043-1.438-0.197-2.787-0.721-4.047s-1.314-2.379-2.375-3.36
		c-1.061-0.979-2.313-1.659-3.752-2.036c-0.393,3.004-0.78,5.979-1.161,8.925c-0.382,2.943-0.768,5.919-1.159,8.923
		c1.613,0.086,3.14-0.23,4.58-0.948C766.994,1028.299,768.126,1027.204,768.951,1025.73z"/>
	<path fill="#FFFFFF" d="M744.859,1047.356c1.214,0.88,2.194,1.938,2.942,3.175c0.747,1.236,1.231,2.549,1.453,3.938
		c0.221,1.386,0.176,2.79-0.134,4.21c-0.312,1.418-0.918,2.75-1.82,3.996c-0.661,0.91-1.418,1.682-2.271,2.314
		c-0.852,0.633-1.753,1.125-2.703,1.479c-0.951,0.353-1.912,0.559-2.882,0.619c-0.972,0.061-1.89-0.014-2.755-0.225
		c0.758,0.551,1.508,1.115,2.244,1.697c0.736,0.578,1.478,1.186,2.224,1.82l-0.694,0.955l-15.801-11.457l-2.444,3.371l-1.274-0.926
		l3.268-4.508l2.141,1.551l2.506,1.817c-0.471-0.759-0.833-1.601-1.088-2.526s-0.362-1.895-0.323-2.908
		c0.041-1.014,0.228-2.025,0.565-3.03c0.337-1.007,0.846-1.981,1.527-2.923c0.902-1.244,1.979-2.234,3.231-2.971
		c1.253-0.738,2.564-1.223,3.938-1.453c1.372-0.232,2.762-0.186,4.17,0.141C742.287,1045.84,743.614,1046.453,744.859,1047.356z
		 M743.911,1048.615c-1.06-0.77-2.193-1.289-3.403-1.564c-1.209-0.276-2.403-0.318-3.578-0.129
		c-1.176,0.189-2.296,0.604-3.362,1.244c-1.063,0.642-1.98,1.493-2.752,2.555c-0.77,1.064-1.3,2.209-1.59,3.435
		c-0.288,1.226-0.346,2.435-0.172,3.628c0.176,1.192,0.582,2.32,1.219,3.385c0.638,1.063,1.486,1.979,2.545,2.748
		c1.059,0.768,2.193,1.289,3.403,1.564c1.209,0.275,2.415,0.315,3.617,0.121c1.202-0.193,2.342-0.618,3.417-1.273
		c1.076-0.656,2-1.516,2.771-2.577c0.771-1.063,1.295-2.2,1.571-3.411c0.279-1.211,0.316-2.412,0.116-3.6
		c-0.201-1.188-0.619-2.313-1.257-3.377C745.819,1050.299,744.97,1049.381,743.911,1048.615z"/>
	<path fill="#FFFFFF" d="M719.944,1065.85l-2.182,2.648l13.853,11.406l2.181-2.648l1.216,1l-2.181,2.648l6.209,5.114
		c1.592,1.311,2.826,2.702,3.702,4.178c0.874,1.474,1.416,2.938,1.624,4.397c0.208,1.457,0.113,2.886-0.285,4.283
		c-0.396,1.396-1.056,2.712-1.975,3.947l-1.216-1.001c0.811-0.984,1.369-2.091,1.678-3.317c0.309-1.229,0.361-2.482,0.16-3.768
		c-0.203-1.283-0.685-2.566-1.445-3.848c-0.761-1.283-1.818-2.482-3.176-3.6l-6.278-5.169l-4.54,5.515l-1.217-1.002l4.541-5.514
		l-13.853-11.406l-3.396,4.124l-1.217-1.001l6.579-7.99L719.944,1065.85z"/>
	<path fill="#FFFFFF" d="M731.048,1104.15l-1.055,1.17l-10.196-9.188l-4.556,5.055l-1.169-1.053l4.556-5.057l-13.329-12.013
		l-3.164,3.511l-1.17-1.055l4.218-4.68l14.499,13.066l3.314-3.678l1.17,1.055l-3.313,3.678L731.048,1104.15z"/>
	<path fill="#FFFFFF" d="M692.643,1114.119c1.283-3.02,2.58-6.023,3.891-9.016c1.309-2.992,2.605-5.996,3.89-9.016
		c-1.693-0.695-3.444-0.874-5.249-0.535c-1.805,0.338-3.41,1.207-4.821,2.607c-0.904,0.898-1.584,1.891-2.039,2.977
		c-0.455,1.084-0.711,2.211-0.769,3.379c-0.237-0.029-0.477-0.057-0.715-0.083c-0.239-0.028-0.49-0.042-0.756-0.042
		c0.031-1.354,0.308-2.658,0.829-3.916c0.522-1.258,1.301-2.402,2.339-3.432c1.092-1.084,2.314-1.888,3.669-2.414
		c1.354-0.525,2.721-0.785,4.1-0.779c1.379,0.004,2.743,0.275,4.094,0.811c1.35,0.533,2.566,1.348,3.651,2.439
		c1.056,1.063,1.854,2.279,2.392,3.647c0.54,1.367,0.807,2.739,0.802,4.118c-0.006,1.379-0.275,2.744-0.811,4.095
		c-0.536,1.351-1.348,2.567-2.439,3.65c-1.597,1.585-3.489,2.486-5.678,2.704C696.833,1115.531,694.706,1115.133,692.643,1114.119z
		 M703.59,1111.492c1.092-1.084,1.854-2.311,2.291-3.68c0.436-1.371,0.575-2.734,0.419-4.09c-0.157-1.355-0.61-2.648-1.359-3.883
		c-0.751-1.234-1.767-2.232-3.049-2.99c-1.203,2.779-2.393,5.533-3.569,8.26c-1.177,2.728-2.366,5.48-3.569,8.262
		c1.527,0.526,3.083,0.642,4.665,0.346C701.002,1113.424,702.392,1112.682,703.59,1111.492z"/>
	<path fill="#FFFFFF" d="M681.116,1107.627l-3.287,2.906l11.887,13.443l3.075-2.721l1.044,1.18l-3.961,3.502l-1.725-1.779
		c-0.372-0.42-0.722-0.787-1.049-1.1c-0.325-0.313-0.675-0.68-1.048-1.1c0.6,1.92,0.615,3.822,0.049,5.701
		c-0.566,1.877-1.555,3.463-2.963,4.76l-1.001-1.219c0.875-0.823,1.583-1.748,2.126-2.776s0.882-2.073,1.017-3.137
		c0.136-1.065,0.058-2.116-0.232-3.151c-0.292-1.037-0.807-1.975-1.547-2.812l-6.852-7.749l-3.287,2.907l-1.043-1.18l7.753-6.856
		L681.116,1107.627z"/>
	<path fill="#FFFFFF" d="M655.027,1129.43l-3.513,2.719l8.25,10.654c0.857,0.985,1.919,1.577,3.183,1.775
		c1.265,0.199,2.541-0.15,3.827-1.053c0.944-0.731,1.732-1.59,2.365-2.574c0.631-0.984,1.062-2.013,1.293-3.088
		c0.23-1.074,0.236-2.15,0.015-3.229c-0.221-1.079-0.687-2.074-1.392-2.986l-6.334-8.178l-3.469,2.686l-0.965-1.244l8.184-6.338
		l0.964,1.246l-3.468,2.686l10.986,14.188l3.246-2.515l0.965,1.245l-4.181,3.236l-1.604-1.887c-0.345-0.445-0.669-0.834-0.975-1.166
		c-0.305-0.333-0.63-0.723-0.974-1.167c0.508,1.882,0.438,3.75-0.212,5.606c-0.649,1.855-1.82,3.438-3.51,4.746
		c-1.602,1.24-3.216,1.758-4.846,1.553c-1.628-0.205-3.044-1.023-4.249-2.455l-8.346-10.777l-3.469,2.688l-0.965-1.246l8.227-6.371
		L655.027,1129.43z"/>
	<path fill="#FFFFFF" d="M648.957,1145.225c0.826,1.25,1.379,2.594,1.653,4.031c0.275,1.437,0.273,2.843-0.009,4.221
		c-0.281,1.376-0.816,2.674-1.606,3.893c-0.789,1.219-1.825,2.254-3.109,3.102c-1.281,0.847-2.646,1.4-4.094,1.66
		c-1.446,0.26-2.857,0.249-4.234-0.031c-1.377-0.283-2.68-0.826-3.91-1.631c-1.229-0.806-2.258-1.834-3.085-3.085
		c-0.848-1.283-1.396-2.641-1.646-4.07c-0.249-1.432-0.229-2.828,0.063-4.188c0.291-1.362,0.84-2.658,1.646-3.886
		c0.806-1.229,1.85-2.269,3.132-3.116c1.283-0.848,2.64-1.397,4.07-1.646c1.432-0.249,2.831-0.242,4.196,0.024
		c1.367,0.265,2.652,0.798,3.855,1.599C647.084,1142.9,648.108,1143.941,648.957,1145.225z M647.643,1146.092
		c-0.725-1.094-1.604-1.984-2.643-2.668c-1.038-0.686-2.145-1.146-3.315-1.383c-1.172-0.236-2.37-0.244-3.596-0.018
		s-2.387,0.702-3.486,1.428c-1.065,0.705-1.951,1.582-2.655,2.633c-0.703,1.05-1.176,2.16-1.417,3.33
		c-0.24,1.17-0.257,2.372-0.05,3.607c0.206,1.234,0.672,2.398,1.396,3.493c0.725,1.095,1.613,1.979,2.668,2.653
		c1.054,0.674,2.172,1.137,3.354,1.391c1.181,0.252,2.392,0.262,3.634,0.025c1.242-0.237,2.396-0.709,3.462-1.412
		c1.099-0.727,1.991-1.609,2.68-2.648s1.147-2.152,1.378-3.338c0.229-1.188,0.234-2.393,0.012-3.615
		C648.84,1148.346,648.367,1147.188,647.643,1146.092z"/>
	<path fill="#FFFFFF" d="M627.086,1159.51c0.737,1.305,1.194,2.685,1.369,4.137c0.174,1.453,0.074,2.854-0.303,4.211
		c-0.377,1.352-1.001,2.609-1.875,3.771c-0.872,1.16-1.978,2.118-3.317,2.876c-1.338,0.757-2.738,1.214-4.199,1.372
		c-1.462,0.158-2.869,0.049-4.224-0.328c-1.354-0.377-2.615-1.008-3.786-1.898c-1.17-0.889-2.125-1.986-2.861-3.293
		c-0.758-1.34-1.209-2.73-1.357-4.175c-0.15-1.445-0.031-2.837,0.354-4.175c0.386-1.338,1.023-2.592,1.912-3.76
		c0.89-1.172,2.004-2.135,3.342-2.891c1.34-0.758,2.731-1.211,4.175-1.358c1.445-0.149,2.841-0.044,4.186,0.317
		c1.346,0.358,2.59,0.979,3.734,1.861C625.379,1157.061,626.329,1158.172,627.086,1159.51z M625.715,1160.285
		c-0.646-1.143-1.463-2.093-2.45-2.848c-0.988-0.756-2.061-1.291-3.211-1.609c-1.152-0.318-2.348-0.408-3.586-0.268
		c-1.238,0.139-2.431,0.533-3.577,1.182c-1.112,0.629-2.057,1.441-2.833,2.439c-0.774,0.998-1.323,2.074-1.646,3.225
		c-0.321,1.15-0.422,2.348-0.302,3.594c0.121,1.246,0.504,2.439,1.149,3.583c0.646,1.142,1.471,2.086,2.477,2.833
		c1.005,0.746,2.087,1.285,3.249,1.621c1.16,0.333,2.369,0.426,3.624,0.277c1.255-0.15,2.438-0.537,3.552-1.168
		c1.146-0.646,2.099-1.465,2.857-2.454c0.758-0.989,1.294-2.067,1.607-3.233c0.313-1.168,0.399-2.371,0.263-3.606
		C626.751,1162.615,626.36,1161.428,625.715,1160.285z"/>
	<path fill="#FFFFFF" d="M586.312,1170.801l-4.022,1.891l5.729,12.194c0.621,1.148,1.529,1.958,2.719,2.428
		c1.191,0.471,2.513,0.405,3.964-0.194c1.082-0.508,2.038-1.172,2.869-1.996c0.831-0.822,1.477-1.732,1.936-2.73
		c0.459-1,0.699-2.049,0.719-3.149s-0.217-2.173-0.708-3.218l-4.397-9.361l-3.971,1.865l-0.67-1.426l9.367-4.4l0.67,1.426
		l-3.971,1.865l7.629,16.24l3.717-1.746l0.67,1.426l-4.786,2.248l-1.153-2.191c-0.239-0.51-0.472-0.961-0.697-1.351
		c-0.225-0.393-0.457-0.843-0.696-1.352c0.087,1.948-0.389,3.757-1.43,5.425c-1.038,1.67-2.524,2.959-4.46,3.867
		c-1.832,0.861-3.522,1.014-5.067,0.459c-1.544-0.555-2.748-1.662-3.611-3.322l-5.796-12.336l-3.971,1.865l-0.67-1.426l9.419-4.426
		L586.312,1170.801z"/>
	<path fill="#FFFFFF" d="M569.638,1181.5c0.017-2.11,0.023-4.195,0.021-6.257c-0.002-2.063,0.004-4.147,0.021-6.258l1.461-0.59
		c0.035,2.089,0.089,4.149,0.161,6.184c0.074,2.032,0.128,4.093,0.162,6.183L569.638,1181.5z"/>
	<path fill="#FFFFFF" d="M547.834,1185.996l-4.132,1.298l10.861,34.558l4.131-1.299l0.473,1.504l-10.088,3.17l-0.473-1.502
		l4.455-1.4l-10.862-34.559l-4.453,1.4l-0.473-1.502l10.088-3.171L547.834,1185.996z"/>
	<path fill="#FFFFFF" d="M518.307,1194.395l-4.006,0.904l8.589,38.08l3.95-0.891l0.348,1.536l-5.487,1.237l-8.936-39.617
		l-4.555,1.027l-0.346-1.537l10.096-2.277L518.307,1194.395z"/>
	<path fill="#FFFFFF" d="M506.187,1206.538c0.233,1.48,0.179,2.933-0.167,4.354c-0.345,1.42-0.932,2.699-1.758,3.836
		c-0.826,1.135-1.853,2.094-3.077,2.877c-1.224,0.78-2.596,1.291-4.114,1.531s-2.99,0.178-4.415-0.186
		c-1.424-0.365-2.703-0.96-3.84-1.786c-1.136-0.827-2.097-1.862-2.882-3.104c-0.784-1.243-1.294-2.606-1.527-4.088
		c-0.239-1.52-0.177-2.981,0.19-4.386c0.368-1.406,0.966-2.668,1.795-3.786c0.83-1.118,1.866-2.068,3.108-2.854
		c1.243-0.783,2.625-1.295,4.143-1.536c1.52-0.239,2.981-0.176,4.387,0.19c1.406,0.367,2.675,0.955,3.809,1.764
		s2.082,1.825,2.846,3.053C505.446,1203.645,505.947,1205.018,506.187,1206.538z M504.632,1206.783
		c-0.205-1.297-0.638-2.473-1.299-3.525c-0.661-1.055-1.477-1.932-2.443-2.633c-0.968-0.701-2.056-1.204-3.265-1.508
		c-1.209-0.302-2.464-0.351-3.764-0.146c-1.263,0.201-2.433,0.631-3.509,1.295c-1.075,0.662-1.966,1.478-2.67,2.443
		c-0.704,0.965-1.219,2.051-1.542,3.261c-0.323,1.208-0.383,2.462-0.179,3.759c0.205,1.297,0.646,2.469,1.326,3.52
		c0.681,1.051,1.505,1.936,2.477,2.656c0.97,0.721,2.069,1.23,3.296,1.529c1.229,0.301,2.474,0.352,3.736,0.152
		c1.301-0.205,2.479-0.639,3.536-1.299c1.058-0.66,1.937-1.482,2.639-2.465c0.701-0.985,1.205-2.08,1.51-3.285
		C504.785,1209.329,504.836,1208.078,504.632,1206.783z"/>
	<path fill="#FFFFFF" d="M481.501,1221.234l-9.579,0.879l-0.144-1.568l3.865-0.354c-1.782-2.805-3.564-5.615-5.349-8.436
		c-1.784-2.822-3.531-5.656-5.241-8.501c-1.06,2.913-2.212,5.945-3.457,9.101c-1.246,3.154-2.52,6.313-3.822,9.473l3.249-0.299
		l0.145,1.57l-8.739,0.8l-0.144-1.567l3.921-0.36c1.436-3.661,2.864-7.275,4.288-10.843c1.424-3.568,2.854-7.18,4.287-10.842
		c2.113,3.336,4.195,6.627,6.243,9.877c2.05,3.248,4.111,6.542,6.188,9.883l4.145-0.379L481.501,1221.234z"/>
	<path fill="#FFFFFF" d="M426.894,1217.322c3.02-1.281,6.038-2.545,9.058-3.789c3.02-1.246,6.039-2.508,9.059-3.789
		c-0.736-1.677-1.873-3.02-3.406-4.029c-1.534-1.009-3.294-1.498-5.282-1.469c-1.273,0.019-2.452,0.26-3.533,0.727
		c-1.08,0.465-2.046,1.099-2.897,1.898c-0.152-0.186-0.305-0.369-0.458-0.555c-0.152-0.187-0.324-0.371-0.515-0.557
		c0.962-0.951,2.066-1.697,3.314-2.242c1.249-0.543,2.604-0.824,4.066-0.848c1.538-0.021,2.976,0.248,4.315,0.809
		c1.34,0.563,2.504,1.324,3.493,2.285c0.989,0.959,1.784,2.102,2.385,3.424c0.602,1.322,0.912,2.752,0.935,4.29
		c0.022,1.499-0.247,2.929-0.809,4.286c-0.562,1.359-1.322,2.533-2.283,3.522s-2.102,1.784-3.425,2.384
		c-1.322,0.602-2.752,0.914-4.29,0.936c-2.25,0.033-4.237-0.633-5.964-1.993C428.93,1221.249,427.677,1219.486,426.894,1217.322z
		 M436.597,1223.031c1.538-0.021,2.939-0.377,4.204-1.061s2.312-1.567,3.14-2.651c0.828-1.085,1.4-2.331,1.717-3.741
		c0.317-1.408,0.277-2.832-0.119-4.268c-2.795,1.168-5.563,2.322-8.303,3.469c-2.739,1.146-5.508,2.304-8.303,3.469
		c0.733,1.441,1.773,2.603,3.117,3.49C433.394,1222.625,434.909,1223.056,436.597,1223.031z"/>
	<path fill="#FFFFFF" d="M405.113,1189.803l-4.641-0.504c-1.229,1.932-2.477,3.871-3.744,5.817
		c-1.267,1.946-2.513,3.868-3.737,5.763c1.322,3.452,2.618,6.893,3.887,10.324c1.269,3.427,2.547,6.867,3.831,10.316l4.138,0.449
		l-0.17,1.564l-9.674-1.049l0.17-1.566l3.746,0.406c-1.163-3.172-2.34-6.327-3.527-9.463c-1.187-3.139-2.325-6.288-3.416-9.453
		c-1.692,2.75-3.469,5.555-5.326,8.419c-1.857,2.862-3.713,5.716-5.568,8.562l3.188,0.347l-0.171,1.565l-8.779-0.953l0.17-1.565
		l3.858,0.419c6.485-10.047,12.93-20.078,19.336-30.098l-3.858-0.417l0.17-1.566l10.289,1.116L405.113,1189.803z"/>
	<path fill="#FFFFFF" d="M372.41,1209.136c-0.28,1.472-0.823,2.819-1.628,4.041s-1.788,2.228-2.95,3.019
		c-1.161,0.79-2.451,1.346-3.867,1.668s-2.88,0.34-4.391,0.054c-1.511-0.287-2.875-0.843-4.092-1.666
		c-1.218-0.823-2.222-1.816-3.013-2.978c-0.79-1.162-1.345-2.461-1.664-3.895c-0.318-1.436-0.338-2.891-0.058-4.363
		c0.287-1.512,0.841-2.865,1.66-4.064c0.82-1.199,1.81-2.186,2.967-2.957c1.159-0.773,2.456-1.318,3.891-1.637
		s2.907-0.334,4.418-0.047s2.866,0.842,4.064,1.66c1.199,0.82,2.196,1.801,2.99,2.944s1.343,2.421,1.646,3.835
		C372.688,1206.162,372.697,1207.625,372.41,1209.136z M370.862,1208.841c0.245-1.29,0.235-2.542-0.031-3.756
		c-0.267-1.216-0.737-2.317-1.411-3.304c-0.674-0.988-1.528-1.828-2.564-2.521c-1.036-0.694-2.2-1.161-3.494-1.408
		c-1.256-0.239-2.502-0.228-3.739,0.033c-1.235,0.26-2.348,0.727-3.338,1.397c-0.988,0.67-1.839,1.52-2.552,2.549
		s-1.191,2.188-1.438,3.479c-0.245,1.288-0.225,2.541,0.061,3.76s0.763,2.331,1.433,3.338c0.671,1.004,1.533,1.855,2.587,2.552
		c1.055,0.696,2.21,1.165,3.466,1.404c1.294,0.246,2.55,0.236,3.768-0.027c1.218-0.266,2.323-0.742,3.315-1.432
		c0.993-0.69,1.837-1.55,2.53-2.581C370.147,1211.29,370.617,1210.129,370.862,1208.841z"/>
	<path fill="#FFFFFF" d="M344.095,1214.345l-5.65-1.519l3.901-14.518c0.269-1.283,0.099-2.489-0.506-3.621
		c-0.605-1.131-1.656-1.936-3.152-2.414c-1.154-0.311-2.313-0.42-3.479-0.327c-1.166,0.092-2.246,0.37-3.242,0.837
		c-0.994,0.465-1.854,1.111-2.58,1.938c-0.725,0.829-1.238,1.801-1.538,2.917l-2.684,9.988l4.183,1.124l-0.408,1.521l-5.704-1.532
		l5.108-19.013l-4.02-1.08l0.364-1.359l5.214,1.402l-0.664,2.908l-0.602,2.459c1.188-1.545,2.725-2.617,4.607-3.217
		c1.884-0.602,3.836-0.629,5.856-0.086c1.949,0.523,3.342,1.496,4.178,2.922c0.836,1.425,1.048,3.049,0.634,4.875l-3.537,13.164
		l4.129,1.109L344.095,1214.345z"/>
	<path fill="#FFFFFF" d="M292.227,1205.877c-0.147,0.385-0.415,0.662-0.803,0.838c-0.388,0.172-0.773,0.185-1.159,0.037
		c-0.386-0.148-0.655-0.414-0.811-0.794c-0.155-0.382-0.158-0.763-0.012-1.148c0.148-0.386,0.404-0.659,0.767-0.821
		c0.363-0.162,0.738-0.168,1.123-0.021c0.386,0.148,0.667,0.406,0.847,0.777C292.358,1205.114,292.374,1205.492,292.227,1205.877z
		 M305.384,1182.246l-4.201-1.611l-6.425,16.754l4.202,1.612l-0.564,1.47l-5.672-2.174l6.988-18.225l-4.044-1.551l0.563-1.471
		l9.717,3.726L305.384,1182.246z"/>
	<path fill="#FFFFFF" d="M278.134,1170.945l-4.047-1.832l-5.557,12.275c-0.47,1.219-0.497,2.434-0.081,3.645
		c0.415,1.211,1.322,2.174,2.721,2.889c1.089,0.493,2.216,0.787,3.381,0.887c1.166,0.098,2.277-0.004,3.335-0.303
		s2.012-0.797,2.861-1.496c0.849-0.7,1.512-1.576,1.987-2.627l4.266-9.424l-3.997-1.811l0.649-1.434l9.429,4.268l-0.649,1.436
		l-3.997-1.811l-7.398,16.348l3.74,1.693l-0.649,1.434l-4.816-2.18l0.918-2.301c0.231-0.512,0.423-0.982,0.575-1.406
		c0.151-0.426,0.343-0.895,0.574-1.406c-1.425,1.33-3.109,2.142-5.054,2.436c-1.944,0.293-3.89-0.002-5.837-0.883
		c-1.845-0.834-3.058-2.02-3.639-3.557c-0.58-1.535-0.52-3.17,0.182-4.904l5.621-12.416l-3.997-1.811l0.649-1.435l9.48,4.292
		L278.134,1170.945z"/>
	<path fill="#FFFFFF" d="M229.96,1183.285l-1.356-0.799l6.967-11.825l-5.864-3.455l0.799-1.356l5.865,3.455l9.107-15.461
		l-4.07-2.398l0.799-1.357l5.429,3.198l-9.908,16.817l4.265,2.514l-0.8,1.355l-4.265-2.513L229.96,1183.285z"/>
	<path fill="#FFFFFF" d="M223.604,1139.926l-3.681-2.49l-7.552,11.158c-0.669,1.121-0.9,2.315-0.695,3.58
		c0.204,1.262,0.936,2.366,2.192,3.307c0.99,0.669,2.051,1.15,3.183,1.443c1.133,0.294,2.245,0.384,3.339,0.269
		c1.092-0.117,2.116-0.446,3.071-0.993c0.956-0.545,1.758-1.297,2.404-2.254l5.798-8.565l-3.634-2.458l0.882-1.306l8.572,5.802
		l-0.883,1.304l-3.634-2.458l-21.879,32.329l3.401,2.301l-0.883,1.306l-4.705-3.185l13.492-19.938l1.559-2.002
		c-1.661,1.051-3.467,1.56-5.416,1.53c-1.95-0.028-3.811-0.643-5.581-1.841c-1.677-1.135-2.671-2.508-2.984-4.119
		c-0.313-1.613,0.023-3.213,1.009-4.805l7.639-11.287l-3.633-2.459l0.882-1.305l8.619,5.832L223.604,1139.926z"/>
	<path fill="#FFFFFF" d="M188.385,1129.138c3.152,0.907,6.293,1.829,9.422,2.768c3.128,0.937,6.269,1.858,9.42,2.767
		c0.485-1.766,0.45-3.525-0.105-5.275c-0.555-1.75-1.612-3.238-3.174-4.469c-1.001-0.789-2.068-1.344-3.202-1.662
		c-1.132-0.319-2.28-0.438-3.446-0.353c-0.001-0.24-0.003-0.48-0.005-0.721c-0.001-0.239-0.018-0.491-0.05-0.754
		c1.347-0.134,2.676-0.019,3.986,0.347c1.313,0.365,2.542,1,3.69,1.906c1.209,0.949,2.156,2.066,2.842,3.347
		c0.687,1.28,1.11,2.604,1.272,3.974c0.164,1.369,0.061,2.758-0.307,4.162c-0.366,1.406-1.026,2.711-1.978,3.921
		c-0.929,1.179-2.039,2.118-3.331,2.817c-1.292,0.701-2.622,1.133-3.991,1.295s-2.757,0.062-4.162-0.307
		c-1.405-0.366-2.712-1.025-3.92-1.978c-1.768-1.392-2.892-3.161-3.374-5.308C187.492,1133.471,187.63,1131.311,188.385,1129.138z
		 M192.321,1139.686c1.209,0.952,2.52,1.561,3.932,1.826c1.414,0.266,2.783,0.24,4.109-0.08s2.557-0.928,3.69-1.821
		s2-2.024,2.597-3.388c-2.905-0.857-5.782-1.703-8.633-2.54c-2.849-0.837-5.727-1.684-8.632-2.54
		c-0.338,1.58-0.264,3.138,0.221,4.674C190.091,1137.352,190.995,1138.642,192.321,1139.686z"/>
	<path fill="#FFFFFF" d="M157.638,1100.559c3.034,1.25,6.055,2.51,9.062,3.785c3.007,1.273,6.027,2.533,9.061,3.781
		c0.676-1.703,0.833-3.455,0.474-5.254c-0.359-1.801-1.248-3.397-2.665-4.791c-0.909-0.894-1.909-1.562-3-2.003
		c-1.091-0.442-2.22-0.685-3.388-0.728c0.025-0.238,0.05-0.479,0.073-0.717c0.025-0.238,0.037-0.49,0.034-0.758
		c1.354,0.018,2.661,0.277,3.925,0.783c1.264,0.508,2.417,1.273,3.46,2.299c1.097,1.078,1.915,2.291,2.456,3.639
		c0.542,1.348,0.819,2.711,0.829,4.09c0.013,1.379-0.241,2.747-0.761,4.104c-0.518,1.356-1.317,2.581-2.396,3.679
		c-1.051,1.068-2.258,1.881-3.619,2.438c-1.361,0.555-2.73,0.837-4.11,0.85c-1.378,0.01-2.745-0.243-4.103-0.762
		c-1.355-0.52-2.583-1.318-3.68-2.396c-1.604-1.578-2.527-3.459-2.771-5.645C156.275,1104.768,156.649,1102.637,157.638,1100.559z
		 M160.395,1111.475c1.097,1.078,2.333,1.828,3.708,2.247c1.376,0.42,2.74,0.544,4.093,0.37c1.354-0.172,2.643-0.641,3.868-1.406
		c1.226-0.764,2.21-1.791,2.953-3.082c-2.794-1.17-5.562-2.326-8.303-3.471c-2.74-1.146-5.508-2.302-8.302-3.471
		c-0.509,1.533-0.606,3.089-0.293,4.668C158.434,1108.91,159.191,1110.291,160.395,1111.475z"/>
	<path fill="#FFFFFF" d="M149.222,1102.031l-6.32-7.249l1.188-1.036l2.551,2.926c1.228-3.085,2.463-6.176,3.705-9.273
		c1.242-3.1,2.516-6.175,3.821-9.227c-2.98,0.846-6.114,1.688-9.401,2.525c-3.286,0.838-6.592,1.654-9.916,2.449l2.144,2.459
		l-1.188,1.035l-5.766-6.613l1.188-1.036l2.587,2.968c3.809-0.982,7.575-1.939,11.3-2.873c3.727-0.935,7.492-1.893,11.301-2.873
		c-1.468,3.666-2.918,7.281-4.352,10.844s-2.896,7.165-4.389,10.803l2.735,3.139L149.222,1102.031z"/>
	<path fill="#FFFFFF" d="M120.438,1055.492c2.807,1.697,5.599,3.406,8.375,5.126c2.777,1.72,5.568,3.429,8.375,5.126
		c0.928-1.58,1.353-3.287,1.271-5.121c-0.079-1.834-0.713-3.547-1.899-5.142c-0.762-1.022-1.648-1.835-2.658-2.439
		c-1.011-0.604-2.089-1.015-3.236-1.237c0.062-0.232,0.122-0.465,0.183-0.697c0.062-0.231,0.111-0.479,0.148-0.742
		c1.335,0.223,2.588,0.68,3.759,1.375c1.172,0.693,2.194,1.627,3.067,2.801c0.918,1.232,1.542,2.557,1.87,3.971
		c0.33,1.416,0.395,2.806,0.194,4.17c-0.199,1.363-0.66,2.677-1.381,3.939c-0.719,1.26-1.696,2.35-2.931,3.268
		c-1.202,0.896-2.519,1.514-3.949,1.854s-2.826,0.411-4.192,0.211c-1.363-0.199-2.676-0.66-3.938-1.381
		c-1.261-0.72-2.351-1.697-3.27-2.93c-1.344-1.805-1.968-3.807-1.875-6.003C118.447,1059.442,119.143,1057.395,120.438,1055.492z
		 M121.491,1066.702c0.919,1.233,2.025,2.163,3.32,2.786c1.295,0.626,2.625,0.957,3.988,0.994c1.364,0.035,2.709-0.23,4.037-0.799
		s2.459-1.432,3.391-2.594c-2.582-1.584-5.14-3.151-7.673-4.701c-2.533-1.551-5.092-3.117-7.674-4.699
		c-0.737,1.436-1.071,2.959-1.003,4.568C119.946,1063.866,120.483,1065.348,121.491,1066.702z"/>
	<path fill="#FFFFFF" d="M120.014,1031.96l-2.388-3.749l-11.364,7.237c-1.061,0.763-1.748,1.766-2.062,3.007
		c-0.314,1.24-0.083,2.543,0.696,3.906c0.643,1.008,1.425,1.872,2.347,2.591c0.922,0.72,1.907,1.244,2.957,1.572
		c1.048,0.327,2.119,0.433,3.213,0.312s2.128-0.492,3.103-1.111l8.724-5.557l-2.356-3.701l1.329-0.845l5.559,8.729l-1.328,0.846
		l-2.356-3.701l-15.137,9.639l2.206,3.463l-1.329,0.846l-2.84-4.46l2.027-1.425c0.475-0.301,0.892-0.588,1.251-0.862
		c0.359-0.272,0.776-0.562,1.251-0.862c-1.921,0.334-3.774,0.092-5.563-0.727c-1.787-0.816-3.255-2.128-4.403-3.932
		c-1.088-1.707-1.454-3.363-1.101-4.967s1.299-2.938,2.836-4.006l11.496-7.32l-2.355-3.701l1.328-0.846l5.589,8.777L120.014,1031.96
		z"/>
	<path fill="#FFFFFF" d="M87.601,1029.771c-0.36,0.2-0.744,0.243-1.152,0.127c-0.408-0.117-0.712-0.354-0.913-0.717
		c-0.2-0.359-0.237-0.736-0.113-1.127c0.126-0.393,0.369-0.688,0.729-0.889c0.361-0.201,0.731-0.246,1.114-0.137
		s0.674,0.344,0.875,0.705c0.2,0.359,0.251,0.74,0.15,1.137C88.192,1029.271,87.962,1029.571,87.601,1029.771z M112.858,1020.098
		l-2.188-3.934l-15.681,8.725l2.188,3.933l-1.376,0.765l-2.954-5.309l17.058-9.488l-2.105-3.785l1.376-0.766l5.059,9.094
		L112.858,1020.098z"/>
	<path fill="#FFFFFF" d="M99.218,993.928l-1.926-4.004l-12.143,5.838c-1.144,0.633-1.944,1.547-2.403,2.742
		c-0.459,1.194-0.383,2.516,0.229,3.961c0.518,1.077,1.192,2.027,2.022,2.852c0.831,0.822,1.746,1.461,2.75,1.91
		c1.002,0.451,2.053,0.682,3.153,0.691c1.102,0.008,2.171-0.237,3.212-0.738l9.321-4.482l-1.9-3.953l1.419-0.684l4.485,9.328
		l-1.42,0.684l-1.901-3.955l-16.171,7.777l1.779,3.699l-1.419,0.684l-2.292-4.766l2.182-1.174c0.508-0.244,0.956-0.48,1.345-0.709
		c0.39-0.229,0.837-0.465,1.344-0.709c-1.946,0.104-3.759-0.355-5.438-1.379s-2.98-2.5-3.907-4.427
		c-0.877-1.824-1.045-3.513-0.504-5.063s1.638-2.763,3.289-3.642l12.284-5.906l-1.901-3.954l1.42-0.683l4.51,9.379L99.218,993.928z"
		/>
	<path fill="#FFFFFF" d="M67.719,969.159l-1.961-5.089l1.471-0.566l1.517,3.938l19.598-7.549c1.852-0.715,3.592-1.092,5.22-1.137
		c1.627-0.045,3.11,0.188,4.451,0.696c1.338,0.509,2.509,1.255,3.509,2.235c0.998,0.981,1.779,2.148,2.34,3.498
		c0.496,1.498,0.795,3.08,0.895,4.749c0.101,1.671-0.217,3.169-0.95,4.496l-1.421-0.715c0.636-1.167,0.919-2.466,0.848-3.901
		c-0.069-1.435-0.34-2.764-0.811-3.984c-0.443-1.15-1.108-2.146-1.994-2.986c-0.887-0.84-1.92-1.463-3.102-1.87
		c-1.181-0.405-2.488-0.593-3.923-0.562c-1.436,0.031-2.923,0.344-4.462,0.937l-3.885,1.496c-0.489,0.188-0.965,0.362-1.427,0.521
		c-0.462,0.157-0.944,0.313-1.448,0.467c1.817,0.021,3.577,0.627,5.28,1.813c1.704,1.188,2.965,2.847,3.784,4.975
		c0.552,1.431,0.804,2.867,0.756,4.308c-0.048,1.441-0.357,2.804-0.929,4.085c-0.57,1.282-1.367,2.421-2.392,3.416
		c-1.022,0.995-2.251,1.769-3.687,2.321c-1.399,0.539-2.821,0.787-4.266,0.742c-1.443-0.045-2.807-0.352-4.092-0.92
		c-1.282-0.566-2.434-1.365-3.454-2.396c-1.019-1.029-1.805-2.26-2.355-3.691c-0.403-1.046-0.638-2.099-0.704-3.156
		c-0.064-1.055,0.014-2.078,0.236-3.064c0.222-0.988,0.573-1.904,1.05-2.749c0.479-0.847,1.043-1.575,1.691-2.185
		c-0.875,0.336-1.757,0.656-2.645,0.957C69.569,968.59,68.657,968.879,67.719,969.159z M84.431,983.279
		c1.217-0.469,2.269-1.133,3.155-1.996c0.887-0.861,1.569-1.836,2.05-2.922c0.48-1.087,0.741-2.248,0.783-3.487
		c0.043-1.239-0.172-2.468-0.642-3.689c-0.471-1.222-1.141-2.286-2.009-3.193c-0.869-0.907-1.849-1.612-2.94-2.112
		s-2.256-0.773-3.491-0.818c-1.236-0.045-2.463,0.166-3.68,0.635c-1.217,0.471-2.27,1.135-3.156,1.998
		c-0.887,0.861-1.574,1.848-2.065,2.959c-0.491,1.109-0.754,2.293-0.79,3.549c-0.035,1.256,0.182,2.494,0.652,3.716
		s1.137,2.276,1.998,3.167c0.863,0.891,1.846,1.574,2.947,2.05c1.103,0.478,2.271,0.737,3.507,0.784
		C81.986,983.961,83.213,983.75,84.431,983.279z"/>
	<path fill="#FFFFFF" d="M69.29,940.318c-1.455,0.359-2.897,0.426-4.325,0.201c-1.427-0.227-2.742-0.701-3.946-1.428
		c-1.203-0.725-2.246-1.664-3.132-2.816c-0.884-1.152-1.511-2.475-1.88-3.969c-0.271-1.092-0.373-2.168-0.308-3.227
		c0.066-1.059,0.271-2.066,0.614-3.02c0.343-0.955,0.804-1.822,1.384-2.604c0.579-0.781,1.229-1.434,1.947-1.96
		c-0.909,0.226-1.823,0.432-2.743,0.62c-0.918,0.191-1.86,0.365-2.825,0.527l-0.284-1.146l18.947-4.693l-1.001-4.04l1.528-0.378
		l1.339,5.404l-2.566,0.637l-3.003,0.743c0.883,0.128,1.76,0.396,2.631,0.798c0.873,0.4,1.684,0.943,2.433,1.628
		c0.748,0.684,1.4,1.479,1.952,2.385c0.553,0.905,0.969,1.924,1.248,3.052c0.37,1.492,0.433,2.955,0.188,4.387
		s-0.719,2.748-1.428,3.946c-0.706,1.2-1.639,2.231-2.797,3.097C72.107,939.33,70.782,939.947,69.29,940.318z M68.939,938.781
		c1.27-0.314,2.399-0.846,3.39-1.592c0.99-0.748,1.791-1.633,2.405-2.654c0.613-1.021,1.019-2.145,1.216-3.372
		c0.196-1.227,0.137-2.476-0.18-3.751c-0.314-1.273-0.848-2.417-1.6-3.43c-0.75-1.01-1.638-1.832-2.662-2.469
		c-1.023-0.635-2.147-1.051-3.372-1.252c-1.224-0.197-2.472-0.141-3.741,0.175c-1.27,0.314-2.399,0.846-3.39,1.593
		s-1.799,1.644-2.427,2.688c-0.626,1.043-1.036,2.188-1.229,3.434c-0.192,1.244-0.131,2.505,0.185,3.778
		c0.315,1.274,0.847,2.407,1.594,3.4c0.747,0.994,1.639,1.798,2.676,2.409c1.038,0.611,2.169,1.019,3.394,1.217
		C66.423,939.154,67.669,939.097,68.939,938.781z"/>
	<path fill="#FFFFFF" d="M68.53,894.039l-0.691-4.391l-13.31,2.1c-1.276,0.277-2.307,0.922-3.091,1.935
		c-0.783,1.013-1.09,2.3-0.919,3.86c0.186,1.18,0.559,2.284,1.116,3.313c0.559,1.027,1.253,1.9,2.084,2.619
		c0.83,0.721,1.771,1.244,2.822,1.57c1.051,0.324,2.147,0.396,3.289,0.218l10.216-1.612l-0.684-4.334l1.556-0.245l1.613,10.224
		l-1.557,0.245l-0.684-4.333l-17.725,2.795l0.641,4.057l-1.557,0.245l-0.823-5.224l2.427-0.496c0.557-0.088,1.053-0.185,1.491-0.291
		c0.439-0.107,0.937-0.205,1.492-0.293c-1.895-0.461-3.499-1.422-4.813-2.887c-1.313-1.463-2.135-3.25-2.469-5.361
		c-0.315-2,0.01-3.664,0.974-4.994c0.964-1.328,2.363-2.175,4.199-2.541l13.463-2.124l-0.684-4.334l1.556-0.245l1.622,10.279
		L68.53,894.039z"/>
	<path fill="#FFFFFF" d="M63.582,860.05l-3.082,0.263c0.851,0.266,1.675,0.667,2.473,1.201c0.8,0.533,1.514,1.197,2.146,1.99
		c0.633,0.793,1.151,1.68,1.555,2.662c0.402,0.98,0.654,2.053,0.753,3.209c0.13,1.533-0.038,2.986-0.504,4.363
		c-0.466,1.375-1.142,2.6-2.03,3.672c-0.887,1.073-1.97,1.946-3.248,2.619c-1.278,0.674-2.684,1.076-4.216,1.207
		c-1.494,0.127-2.938-0.032-4.332-0.479c-1.393-0.445-2.616-1.122-3.673-2.029c-1.056-0.908-1.929-2-2.622-3.277
		c-0.691-1.276-1.103-2.682-1.233-4.214c-0.096-1.12-0.027-2.198,0.204-3.235c0.232-1.035,0.592-1.998,1.081-2.886
		c0.488-0.89,1.081-1.673,1.774-2.353c0.696-0.681,1.44-1.225,2.233-1.631c-0.966,0.121-1.915,0.23-2.845,0.328
		s-1.881,0.188-2.85,0.27l-19.405,1.654l0.344,4.035l-1.57,0.133l-0.473-5.549l40.467-3.446l-0.354-4.147l1.569-0.133l0.473,5.548
		L63.582,860.05z M57.321,879.664c1.305-0.111,2.503-0.457,3.599-1.04c1.096-0.582,2.026-1.33,2.792-2.242
		c0.767-0.913,1.344-1.958,1.73-3.14c0.388-1.18,0.525-2.424,0.414-3.732c-0.111-1.308-0.459-2.52-1.041-3.637
		c-0.583-1.117-1.33-2.07-2.241-2.858c-0.912-0.788-1.956-1.376-3.134-1.766c-1.178-0.388-2.419-0.527-3.723-0.417
		c-1.304,0.111-2.503,0.459-3.598,1.041c-1.096,0.582-2.035,1.34-2.818,2.272s-1.367,1.999-1.753,3.198
		c-0.387,1.199-0.524,2.453-0.412,3.76c0.111,1.309,0.458,2.512,1.039,3.609c0.582,1.1,1.337,2.031,2.265,2.8
		c0.928,0.768,1.981,1.347,3.159,1.735S56.019,879.775,57.321,879.664z"/>
	<path fill="#FFFFFF" d="M44.228,833.814l0.23-5.846l15.021,0.596c1.311-0.021,2.45-0.453,3.419-1.295
		c0.97-0.84,1.522-2.043,1.658-3.607c0.048-1.193-0.102-2.349-0.45-3.465c-0.347-1.117-0.857-2.109-1.532-2.977
		c-0.675-0.869-1.495-1.564-2.463-2.088c-0.968-0.525-2.028-0.811-3.184-0.855l-10.335-0.409l-0.172,4.327l-1.573-0.062l0.233-5.901
		l19.672,0.777l0.165-4.158l1.405,0.055l-0.214,5.395l-2.983-0.004l-2.531-0.043c1.77,0.817,3.154,2.078,4.156,3.781
		c1.003,1.704,1.463,3.602,1.38,5.693c-0.08,2.016-0.722,3.59-1.927,4.721c-1.205,1.129-2.742,1.695-4.614,1.695l-13.619-0.539
		l-0.169,4.271L44.228,833.814z"/>
	<path fill="#FFFFFF" d="M66.878,789.953l0.53-4.412l-13.377-1.607c-1.305-0.082-2.472,0.258-3.501,1.019s-1.676,1.915-1.937,3.463
		c-0.143,1.187-0.085,2.351,0.172,3.491c0.258,1.142,0.687,2.172,1.29,3.09s1.365,1.679,2.288,2.279
		c0.923,0.599,1.958,0.967,3.104,1.104l10.269,1.234l0.524-4.356l1.563,0.188l-1.235,10.277l-1.563-0.188l0.523-4.357l-17.815-2.141
		l-0.49,4.077l-1.563-0.188l0.631-5.249l2.471,0.184c0.559,0.067,1.063,0.109,1.515,0.125c0.451,0.017,0.956,0.059,1.515,0.126
		c-1.698-0.959-2.979-2.322-3.843-4.088c-0.864-1.766-1.169-3.709-0.914-5.832c0.241-2.01,1.008-3.523,2.297-4.54
		c1.289-1.015,2.867-1.448,4.732-1.3l13.532,1.625l0.523-4.355l1.564,0.188l-1.241,10.332L66.878,789.953z"/>
	<path fill="#FFFFFF" d="M71.691,755.965l-3.032-0.615c0.742,0.495,1.42,1.111,2.036,1.848c0.616,0.738,1.115,1.575,1.499,2.514
		c0.383,0.939,0.631,1.937,0.742,2.992c0.11,1.055,0.051,2.153-0.181,3.293c-0.306,1.506-0.876,2.854-1.71,4.043
		s-1.827,2.174-2.981,2.953c-1.152,0.781-2.438,1.313-3.854,1.6c-1.417,0.287-2.878,0.278-4.385-0.027
		c-1.47-0.299-2.811-0.857-4.022-1.678c-1.211-0.819-2.195-1.813-2.954-2.98c-0.758-1.168-1.289-2.461-1.595-3.883
		c-0.304-1.419-0.305-2.883,0.001-4.39c0.225-1.103,0.594-2.118,1.106-3.047c0.515-0.929,1.131-1.751,1.85-2.466
		s1.508-1.302,2.365-1.76c0.858-0.457,1.726-0.769,2.601-0.936c-0.96-0.156-1.901-0.318-2.821-0.486
		c-0.921-0.167-1.857-0.348-2.812-0.541l-19.086-3.873l-0.806,3.97l-1.544-0.313l1.107-5.457l39.802,8.074l0.827-4.08l1.544,0.314
		l-1.107,5.457L71.691,755.965z M60.166,773.025c1.282,0.262,2.531,0.266,3.746,0.014c1.215-0.25,2.318-0.705,3.311-1.365
		s1.84-1.5,2.543-2.525c0.704-1.024,1.186-2.18,1.447-3.467c0.261-1.285,0.269-2.547,0.023-3.783
		c-0.245-1.234-0.694-2.359-1.347-3.372c-0.653-1.013-1.489-1.87-2.511-2.576c-1.021-0.704-2.173-1.187-3.455-1.446
		c-1.281-0.26-2.53-0.264-3.745-0.014s-2.329,0.713-3.343,1.388c-1.015,0.675-1.875,1.534-2.583,2.575
		c-0.707,1.043-1.192,2.207-1.453,3.494s-0.267,2.539-0.018,3.756c0.25,1.218,0.712,2.324,1.387,3.322
		c0.674,0.998,1.522,1.85,2.543,2.555C57.733,772.283,58.885,772.766,60.166,773.025z"/>
	<path fill="#FFFFFF" d="M68.207,724.281c0.371,3.258,0.726,6.513,1.061,9.761c0.337,3.249,0.689,6.503,1.062,9.761
		c1.816-0.229,3.427-0.938,4.83-2.121s2.372-2.732,2.908-4.646c0.344-1.228,0.447-2.426,0.307-3.595
		c-0.14-1.168-0.473-2.274-0.997-3.317c0.222-0.094,0.442-0.188,0.662-0.281c0.222-0.094,0.448-0.205,0.679-0.336
		c0.64,1.192,1.043,2.465,1.209,3.814c0.166,1.352,0.053,2.73-0.343,4.139c-0.415,1.482-1.082,2.785-2.001,3.908
		c-0.918,1.126-1.979,2.027-3.181,2.701c-1.202,0.677-2.522,1.115-3.961,1.314c-1.438,0.201-2.898,0.093-4.379-0.322
		c-1.444-0.404-2.738-1.068-3.882-1.993c-1.143-0.925-2.052-1.985-2.728-3.188s-1.113-2.523-1.314-3.962
		c-0.2-1.438-0.093-2.897,0.323-4.378c0.606-2.167,1.809-3.884,3.605-5.152S65.91,724.417,68.207,724.281z M59.978,731.964
		c-0.415,1.48-0.474,2.925-0.178,4.331c0.297,1.408,0.847,2.662,1.651,3.764c0.806,1.103,1.838,2.004,3.099,2.709
		c1.262,0.704,2.637,1.07,4.126,1.098c-0.324-3.012-0.646-5.994-0.968-8.946s-0.645-5.935-0.969-8.946
		c-1.589,0.295-2.998,0.961-4.23,1.998C61.277,729.008,60.434,730.34,59.978,731.964z"/>
	<path fill="#FFFFFF" d="M81.431,724.266l1.428-4.148L65.89,714.28l-1.335,3.884l-1.489-0.514l1.72-5l2.377,0.699
		c0.531,0.184,1.017,0.33,1.454,0.44c0.438,0.112,0.923,0.259,1.455,0.441c-1.469-1.377-2.42-3.022-2.853-4.937
		s-0.354-3.781,0.231-5.602l1.471,0.564c-0.354,1.148-0.514,2.303-0.48,3.464s0.254,2.239,0.661,3.231
		c0.407,0.994,0.993,1.869,1.757,2.627c0.764,0.76,1.675,1.32,2.732,1.684l9.779,3.363l1.428-4.148l1.489,0.513l-3.367,9.786
		L81.431,724.266z"/>
	<path fill="#FFFFFF" d="M93.394,692.41l1.716-4.1l-12.429-5.201c-1.232-0.435-2.447-0.427-3.646,0.023
		c-1.198,0.449-2.136,1.384-2.81,2.802c-0.461,1.103-0.725,2.237-0.789,3.405c-0.063,1.168,0.067,2.276,0.397,3.324
		c0.329,1.049,0.854,1.988,1.577,2.818c0.725,0.828,1.619,1.465,2.685,1.911l9.541,3.994l1.693-4.048l1.453,0.607l-3.995,9.549
		l-1.454-0.609l1.694-4.047l-16.552-6.928l-1.586,3.787l-1.453-0.607l2.042-4.877l2.326,0.852c0.52,0.217,0.994,0.396,1.423,0.535
		c0.43,0.139,0.903,0.316,1.423,0.533c-1.371-1.387-2.23-3.047-2.579-4.982c-0.349-1.934-0.11-3.888,0.715-5.859
		c0.781-1.867,1.932-3.113,3.45-3.738c1.518-0.625,3.154-0.611,4.907,0.041l12.573,5.264l1.693-4.049l1.454,0.609l-4.019,9.599
		L93.394,692.41z"/>
	<path fill="#FFFFFF" d="M97.021,655.775c-0.27,3.27-0.554,6.529-0.856,9.781c-0.302,3.252-0.588,6.512-0.856,9.78
		c1.827,0.128,3.544-0.253,5.15-1.142c1.607-0.889,2.858-2.22,3.757-3.993c0.576-1.137,0.909-2.292,0.999-3.466
		s-0.021-2.323-0.334-3.448c0.235-0.049,0.471-0.099,0.705-0.147c0.235-0.049,0.479-0.113,0.73-0.197
		c0.396,1.294,0.544,2.619,0.444,3.977c-0.1,1.358-0.479,2.689-1.14,3.994c-0.695,1.372-1.604,2.52-2.723,3.444
		c-1.12,0.925-2.335,1.603-3.646,2.031c-1.311,0.43-2.69,0.603-4.142,0.519c-1.45-0.082-2.86-0.471-4.232-1.166
		c-1.337-0.678-2.479-1.58-3.42-2.709s-1.626-2.348-2.056-3.66c-0.429-1.309-0.603-2.689-0.519-4.141
		c0.082-1.449,0.472-2.859,1.166-4.232c1.018-2.007,2.53-3.457,4.538-4.354C92.598,655.752,94.741,655.462,97.021,655.775z
		 M87.454,661.712c-0.694,1.372-1.032,2.776-1.015,4.214c0.018,1.439,0.313,2.776,0.889,4.014c0.575,1.236,1.412,2.323,2.513,3.259
		c1.1,0.936,2.378,1.563,3.833,1.88c0.268-3.018,0.53-6.006,0.789-8.965c0.26-2.958,0.521-5.947,0.79-8.964
		c-1.616-0.02-3.129,0.36-4.539,1.138C89.304,659.065,88.218,660.207,87.454,661.712z"/>
	<path fill="#FFFFFF" d="M102.094,653.705c-1.284-0.771-2.353-1.742-3.204-2.911c-0.851-1.167-1.446-2.434-1.786-3.798
		c-0.339-1.362-0.415-2.765-0.228-4.206c0.188-1.44,0.678-2.819,1.471-4.137c0.579-0.964,1.267-1.798,2.062-2.502
		c0.795-0.703,1.65-1.271,2.567-1.705c0.917-0.434,1.857-0.722,2.818-0.866c0.961-0.143,1.883-0.147,2.764-0.012
		c-0.803-0.483-1.598-0.981-2.381-1.498c-0.785-0.514-1.575-1.055-2.372-1.623l0.608-1.013l16.728,10.059l2.146-3.568l1.35,0.812
		l-2.869,4.772l-2.267-1.362l-2.651-1.595c0.533,0.715,0.967,1.523,1.301,2.423c0.334,0.901,0.523,1.857,0.57,2.871
		c0.048,1.013-0.053,2.036-0.302,3.067s-0.672,2.046-1.271,3.042c-0.792,1.318-1.78,2.398-2.965,3.238
		c-1.184,0.842-2.449,1.438-3.797,1.786c-1.349,0.351-2.737,0.423-4.168,0.218C104.786,654.996,103.413,654.498,102.094,653.705z
		 M102.93,652.371c1.122,0.674,2.297,1.096,3.525,1.266c1.229,0.17,2.421,0.109,3.577-0.18c1.155-0.289,2.235-0.799,3.242-1.529
		c1.006-0.73,1.846-1.656,2.522-2.782c0.677-1.125,1.106-2.31,1.289-3.557c0.182-1.246,0.135-2.456-0.142-3.628
		c-0.276-1.173-0.777-2.261-1.504-3.267c-0.727-1.005-1.65-1.846-2.771-2.52c-1.121-0.674-2.296-1.095-3.524-1.266
		c-1.229-0.17-2.434-0.107-3.615,0.189c-1.181,0.297-2.28,0.818-3.295,1.563c-1.016,0.746-1.862,1.681-2.538,2.806
		c-0.677,1.125-1.101,2.303-1.273,3.533c-0.173,1.231-0.108,2.43,0.193,3.596c0.302,1.166,0.816,2.252,1.543,3.258
		S101.81,651.696,102.93,652.371z"/>
	<path fill="#FFFFFF" d="M100.768,610.19l0.896-1.296l11.296,7.794l3.865-5.602l1.296,0.894l-3.864,5.602l14.769,10.191l2.684-3.889
		l1.296,0.894l-3.577,5.186l-16.065-11.084l-2.812,4.074l-1.296-0.894l2.811-4.075L100.768,610.19z"/>
	<path fill="#FFFFFF" d="M144.469,606.954l2.748-3.493l-10.591-8.329c-1.071-0.748-2.245-1.065-3.52-0.951
		c-1.275,0.114-2.428,0.764-3.455,1.951c-0.739,0.94-1.296,1.964-1.67,3.072c-0.373,1.108-0.542,2.211-0.504,3.31
		c0.037,1.099,0.293,2.144,0.77,3.136s1.169,1.845,2.076,2.559l8.13,6.394l2.712-3.448l1.238,0.973l-6.398,8.135l-1.238-0.974
		l2.713-3.448l-30.684-24.134l-2.539,3.228l-1.237-0.974l3.512-4.465l18.923,14.884l1.886,1.697
		c-0.928-1.731-1.308-3.569-1.14-5.512c0.169-1.943,0.914-3.755,2.235-5.435c1.252-1.592,2.693-2.485,4.323-2.683
		c1.629-0.196,3.202,0.253,4.718,1.35l10.714,8.426l2.712-3.448l1.238,0.973l-6.434,8.179L144.469,606.954z"/>
	<path fill="#FFFFFF" d="M144.007,557.218l1.101-1.127l9.817,9.591l4.756-4.868l1.127,1.101l-4.756,4.868l12.834,12.54l3.302-3.379
		l1.127,1.101l-4.402,4.506L154.95,567.91l-3.459,3.541l-1.126-1.101l3.459-3.541L144.007,557.218z"/>
	<path fill="#FFFFFF" d="M187.638,561.408l3.299-2.977l-9.027-10.002c-0.93-0.918-2.032-1.429-3.309-1.532
		c-1.275-0.104-2.521,0.343-3.735,1.338c-0.887,0.801-1.609,1.716-2.165,2.745c-0.556,1.029-0.908,2.088-1.058,3.177
		s-0.074,2.162,0.228,3.221s0.84,2.017,1.613,2.874l6.93,7.678l3.258-2.939l1.055,1.168l-7.684,6.935l-1.056-1.169l3.258-2.94
		l-26.155-28.98l-3.049,2.751l-1.055-1.169l4.218-3.806l16.13,17.872l1.57,1.992c-0.621-1.865-0.684-3.739-0.189-5.625
		c0.495-1.886,1.536-3.545,3.123-4.978c1.503-1.357,3.074-1.994,4.715-1.913c1.639,0.082,3.113,0.792,4.422,2.129l9.132,10.118
		l3.258-2.939l1.055,1.169l-7.726,6.972L187.638,561.408z"/>
	<path fill="#FFFFFF" d="M206.525,529.819c-1.636,2.842-3.284,5.67-4.944,8.482c-1.659,2.813-3.308,5.641-4.944,8.483
		c1.599,0.894,3.314,1.281,5.146,1.162c1.832-0.119,3.531-0.788,5.1-2.01c1.006-0.783,1.8-1.686,2.382-2.709s0.971-2.11,1.168-3.261
		c0.233,0.056,0.467,0.111,0.701,0.167c0.233,0.057,0.481,0.101,0.744,0.133c-0.193,1.339-0.624,2.601-1.293,3.787
		c-0.67,1.186-1.58,2.229-2.734,3.127c-1.214,0.944-2.524,1.596-3.932,1.956c-1.407,0.359-2.795,0.454-4.163,0.283
		c-1.368-0.17-2.69-0.602-3.967-1.296c-1.276-0.692-2.387-1.646-3.331-2.86c-0.922-1.183-1.568-2.486-1.938-3.909
		c-0.371-1.422-0.471-2.817-0.301-4.186c0.171-1.368,0.603-2.689,1.296-3.967c0.693-1.276,1.646-2.387,2.86-3.332
		c1.774-1.381,3.762-2.049,5.961-2.003C202.534,527.912,204.598,528.564,206.525,529.819z M195.342,531.111
		c-1.214,0.945-2.119,2.072-2.716,3.38s-0.899,2.644-0.906,4.008c-0.007,1.365,0.287,2.704,0.884,4.019
		c0.596,1.316,1.484,2.428,2.666,3.334c1.528-2.615,3.04-5.206,4.536-7.772c1.495-2.566,3.006-5.157,4.535-7.772
		c-1.454-0.707-2.984-1.008-4.59-0.906C198.144,529.505,196.674,530.074,195.342,531.111z"/>
	<path fill="#FFFFFF" d="M257.541,512.339l3.852-2.217l-6.721-11.678c-0.716-1.094-1.687-1.825-2.912-2.194
		c-1.225-0.37-2.537-0.196-3.933,0.521c-1.036,0.596-1.919,1.33-2.646,2.2c-0.728,0.87-1.28,1.801-1.657,2.792
		c-0.378,0.993-0.557,2.031-0.535,3.115c0.021,1.084,0.293,2.121,0.818,3.108l5.299,9.207l3.803-2.188l0.786,1.365l-9.02,5.191
		l-0.786-1.366l3.852-2.216l-6.721-11.679c-0.715-1.093-1.686-1.824-2.911-2.193c-1.226-0.37-2.537-0.196-3.934,0.521
		c-1.036,0.597-1.934,1.339-2.694,2.228c-0.76,0.89-1.327,1.851-1.702,2.883s-0.527,2.098-0.455,3.197
		c0.072,1.098,0.396,2.147,0.973,3.148l5.159,8.965l3.803-2.189l0.785,1.366l-8.971,5.162l-0.785-1.365l3.803-2.189l-8.95-15.552
		l-3.56,2.048l-0.785-1.365l4.583-2.637l1.332,2.089c0.28,0.487,0.549,0.917,0.806,1.288s0.526,0.8,0.807,1.288
		c-0.248-1.934,0.076-3.775,0.975-5.525c0.896-1.75,2.271-3.157,4.124-4.223c1.624-0.936,3.198-1.246,4.72-0.933
		c1.521,0.315,2.785,1.156,3.79,2.525c-0.13-1.873,0.245-3.656,1.123-5.352c0.878-1.695,2.208-3.055,3.989-4.08
		c1.749-1.007,3.423-1.3,5.021-0.883c1.598,0.417,2.896,1.418,3.894,3.001l6.799,11.813l3.754-2.16l0.785,1.365l-8.971,5.163
		L257.541,512.339z"/>
	<path fill="#FFFFFF" d="M265.95,497.895c-0.62-1.366-0.953-2.779-0.998-4.242c-0.046-1.461,0.178-2.85,0.673-4.166
		c0.494-1.315,1.228-2.512,2.199-3.593c0.972-1.079,2.158-1.936,3.559-2.572c1.399-0.635,2.835-0.967,4.305-0.996
		c1.47-0.028,2.861,0.205,4.178,0.699c1.315,0.495,2.517,1.236,3.604,2.225s1.941,2.167,2.561,3.533
		c0.636,1.401,0.964,2.827,0.984,4.279c0.021,1.453-0.221,2.828-0.723,4.126c-0.502,1.299-1.247,2.492-2.236,3.578
		c-0.989,1.087-2.185,1.948-3.584,2.584c-1.4,0.636-2.827,0.963-4.279,0.984c-1.452,0.021-2.833-0.207-4.14-0.685
		c-1.309-0.477-2.493-1.206-3.556-2.186C267.435,500.486,266.585,499.296,265.95,497.895z M267.384,497.244
		c0.542,1.196,1.272,2.213,2.19,3.052c0.918,0.84,1.937,1.469,3.056,1.887s2.302,0.613,3.548,0.583
		c1.246-0.03,2.469-0.317,3.668-0.862c1.163-0.528,2.176-1.255,3.036-2.181c0.86-0.925,1.502-1.948,1.924-3.066
		s0.628-2.302,0.618-3.554c-0.011-1.251-0.286-2.474-0.829-3.67c-0.542-1.195-1.281-2.208-2.216-3.04
		c-0.936-0.832-1.966-1.465-3.093-1.901c-1.128-0.436-2.323-0.635-3.586-0.598c-1.263,0.039-2.477,0.322-3.641,0.85
		c-1.199,0.544-2.221,1.275-3.063,2.193c-0.844,0.918-1.473,1.944-1.886,3.079c-0.415,1.136-0.609,2.326-0.581,3.568
		C266.557,494.83,266.842,496.049,267.384,497.244z"/>
	<path fill="#FFFFFF" d="M289.786,487.236c-0.523-1.405-0.757-2.839-0.7-4.3c0.057-1.461,0.376-2.831,0.962-4.109
		c0.584-1.277,1.398-2.42,2.444-3.431c1.044-1.009,2.287-1.781,3.729-2.318c1.44-0.536,2.896-0.767,4.363-0.694
		c1.469,0.074,2.841,0.404,4.119,0.988c1.277,0.585,2.425,1.408,3.44,2.471s1.785,2.297,2.309,3.703
		c0.536,1.441,0.764,2.887,0.684,4.336c-0.081,1.451-0.417,2.806-1.008,4.066c-0.591,1.262-1.418,2.399-2.48,3.415
		s-2.314,1.792-3.755,2.328c-1.441,0.536-2.888,0.764-4.338,0.684c-1.45-0.08-2.812-0.403-4.082-0.971
		c-1.271-0.567-2.402-1.376-3.395-2.428C291.087,489.924,290.322,488.678,289.786,487.236z M291.263,486.687
		c0.457,1.231,1.115,2.296,1.972,3.198c0.857,0.902,1.83,1.6,2.917,2.095c1.088,0.495,2.254,0.772,3.499,0.829
		c1.245,0.057,2.485-0.145,3.719-0.604c1.198-0.446,2.259-1.1,3.182-1.965c0.923-0.862,1.633-1.838,2.132-2.923
		c0.499-1.086,0.787-2.253,0.863-3.502c0.077-1.249-0.112-2.488-0.57-3.719s-1.124-2.292-1.999-3.188
		c-0.875-0.895-1.859-1.598-2.954-2.112c-1.094-0.513-2.271-0.794-3.534-0.845c-1.264-0.049-2.494,0.148-3.692,0.594
		c-1.233,0.459-2.303,1.118-3.208,1.975c-0.905,0.857-1.604,1.837-2.097,2.941c-0.491,1.104-0.768,2.276-0.827,3.519
		C290.605,484.221,290.805,485.458,291.263,486.687z"/>
	<path fill="#FFFFFF" d="M331.812,482.502l4.27-1.235l-3.746-12.943c-0.434-1.232-1.202-2.173-2.305-2.824
		c-1.103-0.651-2.417-0.795-3.944-0.431c-1.148,0.332-2.197,0.84-3.147,1.522c-0.949,0.684-1.73,1.48-2.34,2.395
		c-0.61,0.914-1.013,1.913-1.203,2.996c-0.191,1.084-0.127,2.181,0.194,3.29l2.874,9.936l4.215-1.22l0.438,1.513l-9.941,2.876
		l-0.438-1.513l4.215-1.22l-4.987-17.236l-3.945,1.142l-0.438-1.514l5.08-1.469l0.795,2.346c0.157,0.54,0.315,1.021,0.477,1.443
		c0.16,0.422,0.32,0.903,0.477,1.444c0.22-1.938,0.974-3.649,2.262-5.134c1.288-1.485,2.959-2.525,5.012-3.119
		c1.945-0.563,3.638-0.449,5.077,0.341c1.438,0.791,2.453,2.073,3.045,3.849l3.789,13.093l4.214-1.22l0.438,1.513l-9.996,2.893
		L331.812,482.502z"/>
	<path fill="#FFFFFF" d="M346.632,478.781c-0.094-0.401-0.029-0.782,0.194-1.144c0.224-0.36,0.536-0.587,0.938-0.682
		c0.401-0.094,0.773-0.026,1.116,0.201c0.342,0.229,0.56,0.543,0.654,0.945c0.094,0.402,0.036,0.771-0.174,1.109
		s-0.516,0.554-0.918,0.648c-0.402,0.094-0.78,0.038-1.137-0.167C346.95,479.486,346.726,479.183,346.632,478.781z"/>
</g>
<g id="strokecircles">
	<circle fill="none" stroke="#FFFFFF" stroke-width="0.2586" cx="431" cy="836.625" r="360"/>
	<circle fill="none" stroke="#FFFFFF" stroke-width="0.2552" cx="431" cy="836.625" r="355.334"/>
</g>
</svg>
