<?xml version="1.0" encoding="utf-8"?>
<!-- Generator: Adobe Illustrator 14.0.0, SVG Export Plug-In . SVG Version: 6.00 Build 43363)  -->
<!DOCTYPE svg PUBLIC "-//W3C//DTD SVG 1.1//EN" "http://www.w3.org/Graphics/SVG/1.1/DTD/svg11.dtd">
<svg version="1.1" id="Layer_1" xmlns="http://www.w3.org/2000/svg" xmlns:xlink="http://www.w3.org/1999/xlink" x="0px" y="0px"
	 width="864px" height="864px" viewBox="0 0 864 864" enable-background="new 0 0 864 864" xml:space="preserve">
<rect id="photo" fill="#D0D2D3" width="864" height="864"/>
<g id="filltext">
	<path fill="#FFFFFF" d="M376.329,68.367l4.288-0.607l-5.083-35.866l-4.289,0.607l-0.222-1.559l10.472-1.485l0.221,1.56
		l-4.623,0.656l5.084,35.866l4.623-0.655l0.221,1.56l-10.471,1.484L376.329,68.367z"/>
	<path fill="#FFFFFF" d="M406.862,64.88l4.1-0.239l-2.272-38.971l-4.044,0.235l-0.092-1.573l5.617-0.327l2.364,40.543l4.659-0.271
		l0.093,1.572l-10.333,0.603L406.862,64.88z"/>
	<path fill="#FFFFFF" d="M420.688,55.011c-0.006-1.5,0.269-2.927,0.824-4.279c0.557-1.353,1.329-2.527,2.318-3.526
		c0.988-0.998,2.148-1.791,3.477-2.379c1.327-0.587,2.761-0.884,4.299-0.891c1.537-0.008,2.982,0.277,4.336,0.851
		c1.352,0.576,2.527,1.358,3.526,2.347c0.998,0.989,1.79,2.157,2.378,3.504s0.885,2.771,0.893,4.271
		c0.007,1.539-0.277,2.974-0.853,4.308c-0.575,1.334-1.357,2.491-2.346,3.47c-0.99,0.979-2.158,1.764-3.505,2.351
		c-1.348,0.587-2.79,0.885-4.327,0.892c-1.538,0.008-2.974-0.277-4.308-0.852s-2.501-1.347-3.498-2.318
		c-0.998-0.97-1.781-2.119-2.351-3.448C420.984,57.982,420.696,56.549,420.688,55.011z M422.264,55.003
		c0.007,1.313,0.257,2.54,0.751,3.681c0.494,1.143,1.166,2.132,2.017,2.972c0.851,0.84,1.85,1.502,2.999,1.983
		c1.149,0.482,2.383,0.72,3.699,0.714c1.277-0.006,2.499-0.255,3.663-0.749c1.163-0.492,2.167-1.163,3.009-2.011
		c0.843-0.848,1.515-1.844,2.018-2.99s0.752-2.375,0.744-3.688c-0.005-1.312-0.265-2.539-0.778-3.681
		c-0.513-1.141-1.194-2.141-2.045-3c-0.851-0.858-1.859-1.528-3.027-2.011c-1.169-0.481-2.393-0.72-3.67-0.715
		c-1.317,0.006-2.548,0.257-3.693,0.749c-1.145,0.493-2.138,1.173-2.979,2.039c-0.843,0.867-1.506,1.873-1.99,3.019
		C422.497,52.462,422.258,53.691,422.264,55.003z"/>
	<path fill="#FFFFFF" d="M447.555,44.418l9.592,0.716l-0.117,1.571l-3.87-0.289c1.294,3.058,2.589,6.125,3.883,9.202
		c1.293,3.077,2.548,6.161,3.766,9.25c1.524-2.698,3.162-5.499,4.912-8.405c1.749-2.906,3.527-5.81,5.333-8.711l-3.253-0.243
		l0.116-1.57l8.752,0.653l-0.118,1.571l-3.926-0.293c-2.02,3.375-4.025,6.704-6.02,9.986c-1.994,3.284-4,6.612-6.02,9.986
		c-1.533-3.64-3.042-7.229-4.526-10.772c-1.484-3.542-2.975-7.132-4.47-10.769l-4.152-0.31L447.555,44.418z"/>
	<path fill="#FFFFFF" d="M500.755,57.311c-3.189,0.763-6.377,1.509-9.561,2.236c-3.185,0.727-6.371,1.471-9.561,2.235
		c0.448,1.776,1.346,3.289,2.691,4.537c1.345,1.25,3,2.024,4.965,2.326c1.26,0.192,2.461,0.149,3.604-0.131
		c1.144-0.281,2.2-0.744,3.173-1.392c0.119,0.208,0.239,0.416,0.359,0.624c0.119,0.208,0.257,0.419,0.416,0.632
		c-1.107,0.78-2.32,1.333-3.641,1.662c-1.322,0.328-2.705,0.383-4.15,0.162c-1.521-0.233-2.895-0.738-4.122-1.513
		s-2.251-1.719-3.066-2.831c-0.817-1.111-1.411-2.369-1.784-3.773c-0.373-1.403-0.443-2.866-0.21-4.386
		c0.227-1.482,0.729-2.847,1.508-4.094c0.779-1.246,1.724-2.276,2.836-3.094c1.11-0.816,2.368-1.411,3.771-1.784
		c1.404-0.373,2.866-0.443,4.386-0.211c2.225,0.341,4.074,1.326,5.551,2.956C499.398,53.101,500.343,55.047,500.755,57.311z
		 M492.133,50.073c-1.521-0.233-2.961-0.117-4.321,0.348c-1.361,0.465-2.54,1.164-3.536,2.096c-0.997,0.932-1.768,2.066-2.313,3.404
		c-0.548,1.336-0.744,2.746-0.592,4.228c2.95-0.686,5.872-1.368,8.764-2.044c2.892-0.676,5.813-1.357,8.764-2.044
		c-0.485-1.541-1.317-2.86-2.495-3.957C495.223,51.005,493.801,50.328,492.133,50.073z"/>
	<path fill="#FFFFFF" d="M517.695,88.071l4.493,1.268c1.533-1.702,3.084-3.407,4.657-5.116c1.573-1.709,3.12-3.397,4.642-5.062
		c-0.73-3.625-1.438-7.233-2.119-10.825c-0.684-3.591-1.371-7.195-2.066-10.81l-4.007-1.129l0.428-1.516l9.367,2.641l-0.428,1.516
		l-3.627-1.022c0.621,3.322,1.257,6.628,1.907,9.918c0.65,3.291,1.249,6.586,1.801,9.888c2.126-2.429,4.342-4.902,6.649-7.417
		c2.306-2.515,4.609-5.021,6.912-7.519l-3.086-0.87l0.428-1.516l8.499,2.396l-0.427,1.516l-3.736-1.053
		c-8.062,8.831-16.081,17.654-24.061,26.47l3.735,1.053l-0.427,1.516l-9.962-2.809L517.695,88.071z"/>
	<path fill="#FFFFFF" d="M553.129,74.424c0.521-1.406,1.278-2.646,2.273-3.717c0.997-1.071,2.132-1.9,3.41-2.487
		c1.275-0.587,2.64-0.923,4.09-1.007c1.45-0.083,2.896,0.142,4.338,0.675c1.441,0.534,2.695,1.307,3.761,2.32
		c1.064,1.014,1.889,2.159,2.478,3.435c0.586,1.277,0.919,2.649,0.997,4.117c0.076,1.468-0.146,2.906-0.665,4.312
		c-0.533,1.442-1.304,2.688-2.312,3.734c-1.006,1.047-2.146,1.855-3.414,2.425c-1.271,0.57-2.64,0.894-4.107,0.97
		c-1.468,0.076-2.924-0.151-4.364-0.685c-1.443-0.533-2.688-1.303-3.733-2.31c-1.048-1.007-1.869-2.14-2.462-3.399
		c-0.595-1.259-0.924-2.61-0.99-4.054C552.362,77.31,552.596,75.867,553.129,74.424z M554.605,74.971
		c-0.455,1.231-0.651,2.468-0.59,3.71c0.062,1.242,0.344,2.406,0.845,3.491c0.502,1.084,1.205,2.055,2.112,2.91
		c0.907,0.855,1.979,1.511,3.212,1.967c1.199,0.443,2.431,0.639,3.693,0.586c1.262-0.052,2.438-0.328,3.523-0.827
		c1.087-0.498,2.065-1.194,2.939-2.092c0.872-0.896,1.537-1.959,1.993-3.191c0.454-1.231,0.642-2.471,0.562-3.72
		c-0.08-1.249-0.366-2.424-0.86-3.527c-0.495-1.103-1.205-2.085-2.129-2.946c-0.925-0.861-1.987-1.515-3.186-1.958
		c-1.235-0.456-2.476-0.655-3.72-0.596c-1.246,0.061-2.414,0.347-3.507,0.862c-1.094,0.517-2.068,1.225-2.923,2.128
		C555.716,72.673,555.061,73.74,554.605,74.971z"/>
	<path fill="#FFFFFF" d="M581.914,73.971l5.322,2.429l-6.242,13.676c-0.477,1.221-0.509,2.439-0.099,3.655
		c0.41,1.215,1.313,2.182,2.71,2.901c1.088,0.497,2.213,0.795,3.378,0.896c1.166,0.103,2.277,0.006,3.335-0.29
		c1.059-0.296,2.015-0.791,2.866-1.488s1.518-1.571,1.998-2.622l4.295-9.409l-3.939-1.799l0.653-1.433l5.373,2.453l-8.176,17.91
		l3.787,1.729l-0.585,1.279l-4.91-2.242l1.135-2.76l0.999-2.326c-1.427,1.328-3.119,2.132-5.075,2.414
		c-1.956,0.282-3.888-0.012-5.791-0.881c-1.835-0.838-3.049-2.028-3.638-3.572c-0.589-1.543-0.53-3.181,0.179-4.913l5.66-12.399
		l-3.889-1.775L581.914,73.971z"/>
	<path fill="#FFFFFF" d="M614.794,112.004l3.881,2.28l9.089-15.471l-3.88-2.279l0.798-1.358l5.238,3.078l-9.888,16.829l3.734,2.194
		l-0.799,1.357l-8.972-5.271L614.794,112.004z M631.654,90.856c0.21-0.355,0.519-0.586,0.93-0.693
		c0.41-0.106,0.794-0.056,1.15,0.153c0.355,0.209,0.578,0.514,0.669,0.916s0.031,0.779-0.177,1.135
		c-0.21,0.356-0.506,0.583-0.892,0.683c-0.385,0.1-0.756,0.045-1.111-0.164c-0.356-0.209-0.592-0.511-0.708-0.905
		C631.399,91.586,631.446,91.212,631.654,90.856z"/>
	<path fill="#FFFFFF" d="M639.829,127.629l3.692,2.472l7.494-11.198c0.663-1.125,0.89-2.319,0.679-3.582
		c-0.213-1.263-0.948-2.361-2.211-3.296c-0.993-0.665-2.056-1.141-3.189-1.429c-1.136-0.287-2.247-0.371-3.34-0.25
		c-1.093,0.122-2.114,0.457-3.067,1.008c-0.952,0.551-1.75,1.307-2.393,2.267l-5.753,8.596l3.647,2.44l-0.877,1.309l-8.602-5.756
		l0.877-1.31l3.646,2.441l9.979-14.912l-3.411-2.284l0.876-1.309l4.394,2.941l-1.282,2.12c-0.313,0.467-0.58,0.898-0.799,1.294
		c-0.22,0.394-0.485,0.825-0.799,1.293c1.625-1.079,3.421-1.604,5.387-1.574c1.965,0.029,3.837,0.639,5.612,1.828
		c1.684,1.126,2.685,2.495,3.007,4.105c0.319,1.609-0.009,3.212-0.985,4.808l-7.58,11.328l3.646,2.44l-0.876,1.31l-8.648-5.789
		L639.829,127.629z"/>
	<path fill="#FFFFFF" d="M689.376,123.352l1.208,1.011l-8.811,10.524l5.22,4.369l-1.011,1.208l-5.219-4.369l-11.519,13.759
		l3.623,3.034l-1.012,1.208l-4.831-4.044l12.53-14.967l-3.795-3.177l1.011-1.208l3.795,3.178L689.376,123.352z"/>
	<path fill="#FFFFFF" d="M688.534,167.161l3.223,3.061l9.277-9.771c0.844-0.997,1.269-2.135,1.272-3.416
		c0.005-1.28-0.534-2.488-1.62-3.622c-0.866-0.823-1.835-1.472-2.903-1.947c-1.069-0.475-2.151-0.745-3.249-0.81
		c-1.097-0.065-2.162,0.092-3.194,0.475c-1.03,0.382-1.944,0.992-2.74,1.83l-7.122,7.5l3.182,3.021l-1.085,1.142l-7.505-7.126
		l1.085-1.143l3.182,3.021l26.881-28.308l-2.978-2.827l1.085-1.143l4.118,3.913l-16.577,17.458L691,150.188
		c1.811-0.763,3.675-0.97,5.595-0.623c1.918,0.349,3.652,1.258,5.203,2.73c1.467,1.394,2.225,2.913,2.269,4.554
		c0.044,1.641-0.55,3.165-1.782,4.573l-9.386,9.884l3.182,3.021l-1.085,1.142l-7.546-7.165L688.534,167.161z"/>
	<path fill="#FFFFFF" d="M721.52,183.593c-2.961-1.413-5.906-2.838-8.839-4.276c-2.934-1.438-5.878-2.864-8.839-4.276
		c-0.769,1.662-1.021,3.403-0.762,5.22c0.259,1.817,1.059,3.46,2.397,4.93c0.858,0.942,1.82,1.664,2.885,2.166
		c1.064,0.5,2.178,0.805,3.342,0.913c-0.039,0.236-0.075,0.474-0.112,0.711c-0.039,0.237-0.063,0.488-0.075,0.753
		c-1.351-0.089-2.643-0.422-3.876-0.998c-1.234-0.576-2.343-1.404-3.327-2.485c-1.037-1.137-1.787-2.394-2.253-3.769
		c-0.468-1.376-0.667-2.752-0.603-4.13c0.063-1.377,0.393-2.729,0.986-4.055c0.591-1.326,1.456-2.506,2.593-3.542
		c1.109-1.01,2.358-1.755,3.748-2.234c1.39-0.479,2.772-0.686,4.15-0.622c1.378,0.065,2.729,0.394,4.056,0.987
		c1.325,0.592,2.506,1.458,3.542,2.594c1.515,1.664,2.333,3.594,2.457,5.789C723.112,179.467,722.622,181.574,721.52,183.593z
		 M719.369,172.543c-1.036-1.138-2.229-1.953-3.579-2.448c-1.351-0.494-2.705-0.693-4.066-0.595
		c-1.362,0.098-2.674,0.495-3.939,1.191c-1.266,0.695-2.306,1.668-3.119,2.916c2.726,1.322,5.426,2.63,8.1,3.922
		c2.672,1.293,5.373,2.601,8.099,3.922c0.593-1.503,0.774-3.052,0.55-4.646C721.186,175.211,720.505,173.791,719.369,172.543z"/>
	<path fill="#FFFFFF" d="M742.876,233.075l2.509,3.668l11.12-7.606c1.034-0.798,1.689-1.822,1.963-3.073
		c0.272-1.25-0.002-2.544-0.826-3.881c-0.675-0.987-1.475-1.809-2.398-2.467c-0.924-0.657-1.895-1.136-2.912-1.436
		c-1.018-0.299-2.067-0.396-3.146-0.292c-1.081,0.105-2.093,0.458-3.036,1.058l-8.768,5.997l2.477,3.622l-1.3,0.889l-5.874-8.59
		l1.299-0.889l2.51,3.667l11.121-7.606c1.035-0.798,1.688-1.822,1.961-3.073c0.274-1.251-0.002-2.545-0.824-3.881
		c-0.675-0.987-1.485-1.824-2.432-2.513c-0.945-0.689-1.946-1.181-3.006-1.474c-1.06-0.294-2.133-0.363-3.223-0.206
		c-1.088,0.157-2.109,0.562-3.063,1.214l-8.536,5.839l2.476,3.621l-1.3,0.889l-5.843-8.542l1.3-0.89l2.478,3.621l14.812-10.129
		l-2.318-3.389l1.299-0.89l2.986,4.365l-1.98,1.49c-0.464,0.318-0.871,0.619-1.222,0.904c-0.35,0.284-0.757,0.586-1.222,0.904
		c1.909-0.397,3.77-0.217,5.584,0.542c1.813,0.758,3.324,2.02,4.531,3.784c1.058,1.547,1.49,3.093,1.295,4.635
		c-0.195,1.541-0.937,2.865-2.223,3.973c1.856-0.274,3.663-0.039,5.422,0.705c1.76,0.745,3.218,1.964,4.378,3.661
		c1.139,1.666,1.562,3.311,1.27,4.937c-0.293,1.626-1.189,2.997-2.689,4.115l-11.25,7.695l2.444,3.575l-1.3,0.89l-5.842-8.543
		L742.876,233.075z"/>
	<path fill="#FFFFFF" d="M757.931,240.34c1.313-0.724,2.697-1.166,4.151-1.325c1.454-0.159,2.855-0.043,4.206,0.348
		c1.349,0.391,2.6,1.029,3.753,1.914c1.15,0.886,2.097,2.001,2.84,3.348c0.742,1.347,1.185,2.751,1.327,4.214
		c0.142,1.463,0.018,2.869-0.371,4.219c-0.393,1.35-1.038,2.605-1.939,3.766c-0.902,1.161-2.011,2.103-3.323,2.827
		c-1.348,0.742-2.744,1.181-4.19,1.313c-1.447,0.134-2.837,0-4.169-0.399c-1.335-0.4-2.581-1.05-3.742-1.952
		c-1.16-0.902-2.112-2.026-2.854-3.373c-0.743-1.347-1.181-2.743-1.314-4.189c-0.133-1.447-0.014-2.841,0.361-4.182
		c0.374-1.341,1.009-2.579,1.903-3.714C755.463,242.021,756.583,241.083,757.931,240.34z M758.69,241.719
		c-1.15,0.634-2.106,1.441-2.872,2.42c-0.767,0.981-1.313,2.045-1.644,3.193c-0.331,1.148-0.434,2.343-0.307,3.583
		c0.126,1.24,0.508,2.437,1.144,3.59c0.616,1.119,1.42,2.072,2.409,2.858c0.99,0.786,2.06,1.345,3.207,1.679s2.344,0.448,3.591,0.34
		c1.246-0.107,2.445-0.477,3.595-1.111s2.102-1.449,2.859-2.446c0.756-0.997,1.308-2.074,1.654-3.231
		c0.347-1.157,0.452-2.365,0.318-3.621c-0.137-1.257-0.514-2.445-1.131-3.565c-0.635-1.153-1.443-2.114-2.424-2.883
		c-0.98-0.77-2.053-1.316-3.217-1.641c-1.165-0.325-2.364-0.426-3.603-0.301C761.033,240.707,759.84,241.085,758.69,241.719z"/>
	<path fill="#FFFFFF" d="M762.172,267.12l1.884,3.963l16.207-7.701l-1.762-3.708l1.423-0.676l2.269,4.776l-2.187,1.163
		c-0.509,0.242-0.958,0.476-1.349,0.703c-0.39,0.227-0.84,0.461-1.348,0.703c2.014-0.044,3.845,0.467,5.492,1.532
		s2.898,2.453,3.754,4.164l-1.447,0.625c-0.55-1.069-1.242-2.005-2.078-2.812c-0.838-0.807-1.748-1.422-2.734-1.846
		c-0.986-0.425-2.018-0.641-3.092-0.648c-1.077-0.008-2.121,0.229-3.131,0.708l-9.342,4.439l1.884,3.962l-1.423,0.676l-4.443-9.348
		L762.172,267.12z"/>
	<path fill="#FFFFFF" d="M775.894,298.227l1.641,4.13l12.521-4.975c1.186-0.551,2.048-1.406,2.591-2.566
		c0.541-1.16,0.557-2.483,0.048-3.968c-0.441-1.11-1.047-2.106-1.818-2.986c-0.771-0.879-1.64-1.58-2.608-2.098
		c-0.969-0.52-2.001-0.823-3.099-0.909c-1.097-0.086-2.182,0.083-3.256,0.51l-9.612,3.818l1.62,4.078l-1.463,0.582l-3.822-9.619
		l1.464-0.582l1.62,4.078l16.677-6.625l-1.517-3.816l1.464-0.582l1.951,4.914l-2.258,1.018c-0.523,0.208-0.986,0.412-1.392,0.613
		c-0.403,0.201-0.867,0.406-1.39,0.614c1.949,0.032,3.726,0.617,5.328,1.757c1.603,1.138,2.799,2.702,3.587,4.688
		c0.748,1.882,0.797,3.577,0.148,5.086c-0.647,1.508-1.827,2.642-3.536,3.402l-12.668,5.032l1.621,4.078l-1.465,0.582l-3.842-9.671
		L775.894,298.227z"/>
	<path fill="#FFFFFF" d="M780.701,311.234l1.411,4.273l17.039-5.627l-1.41-4.273l1.494-0.494l1.905,5.769l-18.534,6.121l1.359,4.113
		l-1.496,0.494l-3.263-9.881L780.701,311.234z M807.325,306.469c0.393-0.129,0.777-0.099,1.156,0.092
		c0.379,0.191,0.634,0.481,0.764,0.874c0.128,0.392,0.095,0.769-0.103,1.13c-0.197,0.361-0.491,0.606-0.883,0.735
		c-0.391,0.13-0.765,0.105-1.12-0.074c-0.354-0.178-0.597-0.464-0.727-0.855c-0.129-0.393-0.107-0.775,0.065-1.148
		C806.651,306.849,806.934,306.599,807.325,306.469z"/>
	<path fill="#FFFFFF" d="M789.198,339.5l1.144,4.294l13.021-3.465c1.241-0.408,2.198-1.155,2.873-2.243
		c0.675-1.088,0.847-2.4,0.516-3.935c-0.307-1.155-0.792-2.215-1.453-3.18c-0.662-0.964-1.442-1.761-2.344-2.391
		c-0.901-0.629-1.89-1.053-2.97-1.268s-2.177-0.173-3.293,0.124l-9.995,2.659l1.128,4.241l-1.521,0.405l-2.662-10.001l1.522-0.405
		l1.128,4.24l17.34-4.615l-1.056-3.969l1.522-0.405l1.36,5.109l-2.363,0.746c-0.544,0.145-1.029,0.293-1.453,0.445
		c-0.426,0.151-0.911,0.3-1.454,0.445c1.934,0.262,3.627,1.052,5.085,2.372c1.457,1.32,2.46,3.012,3.01,5.078
		c0.521,1.956,0.37,3.646-0.45,5.067c-0.822,1.421-2.126,2.409-3.913,2.962l-13.173,3.505l1.129,4.24l-1.522,0.405l-2.676-10.056
		L789.198,339.5z"/>
	<path fill="#FFFFFF" d="M815.574,369.576l1.025,5.357l-1.548,0.295l-0.792-4.144l-20.628,3.944
		c-1.948,0.372-3.728,0.435-5.338,0.189c-1.61-0.247-3.028-0.739-4.257-1.477c-1.227-0.739-2.244-1.68-3.055-2.824
		c-0.809-1.144-1.369-2.43-1.681-3.858c-0.223-1.562-0.234-3.172-0.036-4.833c0.197-1.661,0.776-3.079,1.735-4.254l1.271,0.956
		c-0.834,1.035-1.343,2.264-1.528,3.688c-0.187,1.424-0.156,2.779,0.089,4.065c0.232,1.211,0.709,2.309,1.433,3.294
		c0.723,0.983,1.628,1.781,2.719,2.391s2.344,1.026,3.76,1.25c1.418,0.225,2.938,0.181,4.559-0.128l4.088-0.782
		c0.516-0.098,1.015-0.185,1.497-0.257c0.482-0.073,0.984-0.141,1.507-0.202c-1.783-0.344-3.408-1.253-4.872-2.724
		c-1.466-1.472-2.412-3.327-2.84-5.567c-0.289-1.506-0.28-2.965,0.022-4.375s0.849-2.694,1.641-3.854
		c0.789-1.16,1.775-2.139,2.96-2.936c1.184-0.797,2.53-1.34,4.042-1.629c1.472-0.281,2.916-0.272,4.328,0.029
		s2.699,0.845,3.863,1.631c1.162,0.787,2.151,1.778,2.973,2.973c0.82,1.194,1.375,2.545,1.663,4.051
		c0.211,1.102,0.254,2.179,0.13,3.23c-0.123,1.052-0.383,2.042-0.776,2.976c-0.396,0.931-0.903,1.771-1.523,2.518
		c-0.62,0.747-1.306,1.363-2.051,1.85c0.92-0.177,1.844-0.335,2.772-0.473C813.652,369.808,814.603,369.684,815.574,369.576z
		 M801.642,352.709c-1.281,0.245-2.434,0.712-3.461,1.403c-1.025,0.691-1.871,1.528-2.537,2.512
		c-0.665,0.983-1.13,2.081-1.391,3.292c-0.262,1.211-0.27,2.459-0.024,3.745c0.246,1.285,0.716,2.452,1.409,3.5
		c0.692,1.047,1.532,1.915,2.518,2.602c0.985,0.687,2.082,1.162,3.291,1.426c1.208,0.263,2.452,0.273,3.734,0.029
		c1.28-0.245,2.434-0.713,3.46-1.404c1.025-0.69,1.878-1.539,2.559-2.545c0.681-1.005,1.149-2.123,1.409-3.352
		c0.257-1.229,0.265-2.487,0.019-3.773c-0.246-1.285-0.714-2.442-1.404-3.472c-0.689-1.03-1.534-1.876-2.535-2.542
		c-0.999-0.665-2.103-1.13-3.313-1.394C804.168,352.472,802.923,352.463,801.642,352.709z"/>
	<path fill="#FFFFFF" d="M808.672,397.746c1.496-0.086,2.927,0.114,4.288,0.599s2.566,1.195,3.616,2.13
		c1.049,0.935,1.901,2.05,2.559,3.346c0.657,1.295,1.029,2.711,1.118,4.246c0.064,1.124-0.034,2.2-0.293,3.229
		c-0.262,1.03-0.646,1.981-1.16,2.856c-0.513,0.875-1.127,1.643-1.84,2.304c-0.714,0.661-1.473,1.183-2.276,1.568
		c0.936-0.054,1.872-0.09,2.812-0.106c0.938-0.017,1.896-0.015,2.873,0.003l0.068,1.18l-19.487,1.121l0.239,4.155l-1.572,0.09
		l-0.319-5.56l2.64-0.151l3.088-0.178c-0.843-0.291-1.655-0.714-2.439-1.269c-0.783-0.557-1.479-1.24-2.09-2.049
		c-0.609-0.811-1.104-1.712-1.479-2.704c-0.376-0.993-0.598-2.069-0.664-3.23c-0.089-1.536,0.119-2.984,0.623-4.346
		c0.504-1.362,1.213-2.568,2.131-3.615c0.915-1.049,2.021-1.892,3.319-2.53C805.721,398.198,807.137,397.833,808.672,397.746z
		 M808.734,399.32c-1.307,0.075-2.515,0.389-3.626,0.941c-1.111,0.552-2.062,1.273-2.854,2.164c-0.79,0.89-1.396,1.92-1.815,3.09
		c-0.419,1.169-0.591,2.41-0.516,3.72c0.075,1.31,0.389,2.531,0.94,3.664c0.552,1.133,1.272,2.106,2.162,2.919
		c0.889,0.813,1.917,1.43,3.084,1.85c1.167,0.421,2.402,0.594,3.709,0.52c1.306-0.076,2.514-0.39,3.625-0.941
		c1.111-0.553,2.07-1.284,2.879-2.194c0.81-0.911,1.423-1.96,1.841-3.148c0.42-1.188,0.591-2.438,0.517-3.748
		c-0.076-1.311-0.39-2.523-0.941-3.637c-0.55-1.114-1.279-2.068-2.185-2.86c-0.908-0.793-1.945-1.401-3.111-1.822
		C811.276,399.417,810.04,399.244,808.734,399.32z"/>
	<path fill="#FFFFFF" d="M800.892,443.395l-0.102,4.441l13.471,0.307c1.306-0.045,2.434-0.496,3.385-1.353s1.482-2.068,1.593-3.634
		c0.027-1.195-0.143-2.348-0.509-3.459c-0.366-1.109-0.895-2.094-1.583-2.95s-1.521-1.539-2.497-2.046
		c-0.977-0.508-2.043-0.774-3.197-0.801l-10.341-0.234l-0.1,4.385l-1.574-0.035l0.235-10.347l1.574,0.036l-0.101,4.387l17.939,0.407
		l0.095-4.104l1.574,0.036l-0.121,5.286l-2.476,0.057c-0.563-0.014-1.069-0.006-1.521,0.021c-0.45,0.027-0.957,0.035-1.52,0.021
		c1.782,0.791,3.189,2.021,4.221,3.697c1.031,1.674,1.521,3.578,1.473,5.717c-0.045,2.023-0.661,3.604-1.847,4.74
		c-1.186,1.135-2.713,1.719-4.584,1.752l-13.626-0.31l-0.1,4.388l-1.575-0.037l0.236-10.404L800.892,443.395z"/>
	<path fill="#FFFFFF" d="M799.391,477.677l3.078,0.319c-0.787-0.422-1.521-0.969-2.206-1.643c-0.684-0.676-1.262-1.461-1.735-2.357
		c-0.472-0.896-0.815-1.865-1.027-2.905s-0.26-2.14-0.14-3.295c0.158-1.53,0.595-2.926,1.311-4.19
		c0.715-1.264,1.608-2.34,2.681-3.228c1.072-0.89,2.299-1.544,3.682-1.966c1.381-0.424,2.837-0.555,4.366-0.396
		c1.492,0.154,2.882,0.58,4.166,1.279c1.285,0.699,2.36,1.592,3.229,2.682c0.868,1.088,1.521,2.324,1.963,3.709
		c0.441,1.384,0.583,2.84,0.425,4.37c-0.116,1.118-0.386,2.166-0.808,3.14c-0.42,0.975-0.953,1.854-1.602,2.634
		c-0.645,0.781-1.373,1.44-2.183,1.979c-0.811,0.538-1.644,0.932-2.498,1.184c0.97,0.063,1.922,0.133,2.855,0.211
		c0.933,0.077,1.883,0.166,2.851,0.268l19.371,2.004l0.417-4.027l1.567,0.162l-0.574,5.539l-40.396-4.184l-0.428,4.141l-1.567-0.162
		l0.574-5.539L799.391,477.677z M809.21,459.58c-1.302-0.135-2.545-0.02-3.729,0.348s-2.239,0.928-3.162,1.68
		c-0.924,0.754-1.686,1.674-2.287,2.762c-0.603,1.087-0.969,2.283-1.104,3.59c-0.135,1.305-0.021,2.561,0.342,3.768
		c0.364,1.205,0.92,2.281,1.668,3.227c0.748,0.943,1.663,1.717,2.747,2.32c1.086,0.602,2.278,0.971,3.58,1.105
		s2.544,0.018,3.729-0.35s2.25-0.936,3.192-1.705c0.944-0.77,1.719-1.708,2.322-2.813c0.603-1.107,0.973-2.313,1.107-3.619
		c0.136-1.305,0.02-2.551-0.346-3.738c-0.365-1.189-0.934-2.246-1.701-3.174c-0.769-0.928-1.694-1.693-2.779-2.295
		C811.703,460.082,810.511,459.715,809.21,459.58z"/>
	<path fill="#FFFFFF" d="M794.254,502.773l-0.93,4.402l17.558,3.702l0.929-4.402l1.541,0.325l-1.253,5.943l-19.1-4.027l-0.893,4.238
		l-1.541-0.324l2.146-10.184L794.254,502.773z M819.663,512.041c0.403,0.084,0.721,0.303,0.952,0.659
		c0.232,0.354,0.306,0.735,0.22,1.138c-0.085,0.404-0.303,0.713-0.654,0.927c-0.353,0.214-0.729,0.277-1.133,0.192
		c-0.405-0.086-0.714-0.294-0.932-0.629c-0.217-0.332-0.283-0.701-0.197-1.104c0.085-0.404,0.296-0.725,0.633-0.959
		C818.889,512.029,819.259,511.955,819.663,512.041z"/>
	<path fill="#FFFFFF" d="M787.386,531.465l-1.173,4.285l12.996,3.557c1.276,0.273,2.481,0.108,3.611-0.494
		c1.131-0.6,1.939-1.646,2.425-3.139c0.316-1.154,0.43-2.314,0.345-3.479c-0.088-1.167-0.361-2.249-0.823-3.245
		c-0.462-0.998-1.104-1.861-1.928-2.59c-0.825-0.729-1.795-1.246-2.908-1.551l-9.976-2.73l-1.159,4.232l-1.519-0.416l2.732-9.983
		l1.519,0.417l-1.159,4.23l17.308,4.736l1.084-3.96l1.52,0.415l-1.396,5.101l-2.417-0.546c-0.543-0.147-1.035-0.264-1.479-0.346
		c-0.443-0.083-0.938-0.198-1.479-0.348c1.538,1.199,2.605,2.734,3.201,4.609c0.595,1.873,0.61,3.84,0.045,5.902
		c-0.534,1.953-1.514,3.338-2.939,4.152c-1.425,0.816-3.049,1.012-4.872,0.592l-13.146-3.598l-1.157,4.232l-1.52-0.417l2.746-10.036
		L787.386,531.465z"/>
	<path fill="#FFFFFF" d="M807.135,577.102l-0.577,1.467l-12.771-5.029l-2.494,6.333l-1.466-0.577l2.494-6.333l-16.695-6.574
		l-1.732,4.396l-1.465-0.577l2.309-5.861l18.161,7.152l1.814-4.607l1.464,0.576l-1.813,4.606L807.135,577.102z"/>
	<path fill="#FFFFFF" d="M765.292,590.188l-1.884,4.023l12.202,5.715c1.213,0.486,2.427,0.529,3.642,0.129
		c1.218-0.399,2.191-1.294,2.925-2.683c0.508-1.083,0.816-2.206,0.931-3.369c0.112-1.165,0.025-2.278-0.259-3.339
		c-0.285-1.062-0.771-2.021-1.46-2.881c-0.688-0.857-1.558-1.531-2.603-2.021l-9.366-4.387l-1.861,3.973l-1.426-0.667l4.389-9.373
		l1.427,0.667l-1.861,3.975l35.354,16.557l1.741-3.719l1.427,0.668l-2.41,5.145l-21.802-10.211l-2.221-1.227
		c1.295,1.477,2.082,3.181,2.357,5.111c0.276,1.931-0.039,3.863-0.945,5.799c-0.858,1.834-2.06,3.031-3.604,3.592
		c-1.541,0.561-3.176,0.479-4.9-0.245l-12.344-5.78l-1.86,3.974l-1.427-0.669l4.413-9.424L765.292,590.188z"/>
	<path fill="#FFFFFF" d="M760.147,626.642c0.404-3.255,0.824-6.501,1.261-9.737c0.437-3.238,0.857-6.482,1.263-9.737
		c-1.822-0.204-3.553,0.106-5.194,0.929c-1.643,0.82-2.948,2.098-3.919,3.832c-0.623,1.112-1.003,2.254-1.143,3.423
		c-0.138,1.169-0.075,2.321,0.19,3.458c-0.236,0.039-0.474,0.079-0.71,0.118c-0.236,0.038-0.483,0.095-0.738,0.168
		c-0.342-1.31-0.436-2.64-0.279-3.993s0.59-2.666,1.306-3.943c0.752-1.342,1.705-2.451,2.862-3.328s2.399-1.504,3.727-1.879
		c1.328-0.375,2.713-0.49,4.16-0.346c1.444,0.142,2.838,0.59,4.18,1.34c1.309,0.734,2.411,1.684,3.305,2.851
		c0.895,1.166,1.528,2.413,1.902,3.74s0.489,2.714,0.347,4.159c-0.143,1.444-0.59,2.838-1.341,4.18
		c-1.1,1.965-2.671,3.35-4.715,4.162C764.565,626.848,762.411,627.049,760.147,626.642z M769.951,621.105
		c0.751-1.342,1.146-2.731,1.188-4.168c0.043-1.438-0.197-2.787-0.721-4.047s-1.314-2.379-2.375-3.36
		c-1.061-0.979-2.313-1.659-3.752-2.036c-0.393,3.004-0.78,5.979-1.161,8.925c-0.382,2.943-0.768,5.919-1.159,8.923
		c1.613,0.086,3.14-0.23,4.58-0.948C767.994,623.674,769.126,622.579,769.951,621.105z"/>
	<path fill="#FFFFFF" d="M745.858,642.731c1.214,0.88,2.194,1.938,2.942,3.176c0.747,1.236,1.231,2.548,1.454,3.938
		c0.221,1.386,0.176,2.791-0.135,4.21c-0.311,1.418-0.918,2.75-1.82,3.996c-0.66,0.91-1.418,1.682-2.271,2.314
		c-0.852,0.633-1.753,1.125-2.703,1.479c-0.951,0.353-1.912,0.56-2.882,0.62c-0.972,0.061-1.889-0.015-2.755-0.226
		c0.758,0.551,1.508,1.115,2.244,1.697c0.736,0.578,1.478,1.186,2.224,1.82l-0.694,0.955l-15.801-11.457l-2.444,3.371l-1.274-0.926
		l3.269-4.508l2.141,1.551l2.505,1.818c-0.471-0.759-0.833-1.602-1.088-2.527s-0.362-1.895-0.322-2.908
		c0.04-1.013,0.227-2.024,0.564-3.03c0.337-1.007,0.846-1.981,1.527-2.921c0.902-1.246,1.979-2.236,3.231-2.973
		c1.252-0.738,2.564-1.223,3.938-1.453c1.373-0.232,2.763-0.186,4.171,0.141C743.286,641.215,744.612,641.828,745.858,642.731z
		 M744.91,643.99c-1.06-0.77-2.193-1.289-3.403-1.564c-1.209-0.275-2.402-0.318-3.578-0.129s-2.296,0.604-3.362,1.244
		c-1.063,0.643-1.98,1.493-2.753,2.556c-0.77,1.063-1.299,2.208-1.588,3.434s-0.347,2.435-0.173,3.628
		c0.176,1.193,0.582,2.32,1.22,3.385c0.637,1.063,1.485,1.979,2.544,2.748c1.059,0.768,2.192,1.289,3.403,1.564
		c1.209,0.275,2.414,0.315,3.617,0.121c1.202-0.193,2.342-0.617,3.418-1.273c1.075-0.656,1.999-1.516,2.77-2.577
		c0.771-1.063,1.295-2.2,1.571-3.411c0.278-1.211,0.316-2.412,0.116-3.6s-0.619-2.313-1.258-3.377
		C746.818,645.674,745.969,644.757,744.91,643.99z"/>
	<path fill="#FFFFFF" d="M720.942,661.225l-2.182,2.648l13.852,11.404l2.182-2.646l1.216,1l-2.181,2.648l6.209,5.113
		c1.592,1.312,2.826,2.703,3.701,4.177s1.417,2.94,1.625,4.399c0.209,1.457,0.113,2.885-0.284,4.283
		c-0.397,1.396-1.057,2.711-1.977,3.947l-1.215-1.002c0.811-0.984,1.37-2.09,1.678-3.316c0.309-1.23,0.362-2.484,0.159-3.768
		c-0.201-1.284-0.684-2.568-1.443-3.85c-0.762-1.281-1.819-2.481-3.176-3.598l-6.279-5.17l-4.54,5.515l-1.218-1.001l4.542-5.515
		l-13.853-11.406l-3.396,4.124l-1.216-1l6.579-7.99L720.942,661.225z"/>
	<path fill="#FFFFFF" d="M732.047,699.525l-1.055,1.17l-10.196-9.188l-4.556,5.055l-1.169-1.053l4.556-5.057l-13.329-12.013
		l-3.164,3.511l-1.17-1.055l4.218-4.68l14.499,13.066l3.314-3.678l1.17,1.055l-3.313,3.678L732.047,699.525z"/>
	<path fill="#FFFFFF" d="M693.642,709.494c1.283-3.018,2.58-6.022,3.891-9.016c1.309-2.99,2.606-5.996,3.89-9.014
		c-1.693-0.695-3.444-0.875-5.249-0.535c-1.805,0.338-3.41,1.206-4.821,2.607c-0.904,0.896-1.584,1.889-2.039,2.975
		s-0.71,2.213-0.768,3.379c-0.238-0.027-0.478-0.055-0.716-0.082c-0.239-0.027-0.49-0.041-0.756-0.043
		c0.031-1.352,0.308-2.657,0.83-3.914c0.521-1.259,1.301-2.402,2.338-3.432c1.093-1.084,2.314-1.889,3.669-2.414
		c1.354-0.526,2.721-0.787,4.1-0.781c1.379,0.004,2.743,0.275,4.094,0.811c1.35,0.533,2.566,1.348,3.651,2.439
		c1.056,1.064,1.854,2.28,2.393,3.648c0.539,1.367,0.806,2.739,0.801,4.119c-0.004,1.379-0.275,2.742-0.81,4.094
		c-0.536,1.35-1.349,2.568-2.439,3.65c-1.598,1.586-3.49,2.486-5.679,2.705C697.833,710.908,695.706,710.51,693.642,709.494z
		 M704.59,706.869c1.091-1.084,1.854-2.311,2.29-3.682c0.436-1.369,0.576-2.732,0.419-4.089c-0.157-1.354-0.61-2.649-1.359-3.884
		c-0.751-1.233-1.767-2.231-3.049-2.988c-1.202,2.777-2.393,5.533-3.569,8.26s-2.365,5.48-3.569,8.261
		c1.528,0.526,3.083,0.642,4.665,0.347C702.002,708.799,703.392,708.058,704.59,706.869z"/>
	<path fill="#FFFFFF" d="M682.116,703.002l-3.287,2.906l11.887,13.443l3.075-2.721l1.044,1.18l-3.961,3.502l-1.725-1.779
		c-0.372-0.42-0.722-0.787-1.049-1.1c-0.325-0.313-0.675-0.68-1.048-1.1c0.6,1.92,0.615,3.822,0.049,5.701
		c-0.566,1.877-1.555,3.463-2.963,4.76l-1.001-1.219c0.875-0.823,1.583-1.748,2.126-2.776s0.882-2.073,1.017-3.137
		c0.136-1.065,0.058-2.116-0.232-3.151c-0.292-1.037-0.807-1.975-1.547-2.812l-6.852-7.749l-3.287,2.907l-1.043-1.18l7.753-6.856
		L682.116,703.002z"/>
	<path fill="#FFFFFF" d="M656.027,724.803l-3.513,2.721l8.25,10.652c0.858,0.986,1.919,1.578,3.184,1.777
		c1.264,0.199,2.54-0.152,3.825-1.053c0.945-0.732,1.733-1.59,2.366-2.575c0.631-0.984,1.062-2.013,1.293-3.089
		c0.23-1.073,0.236-2.15,0.014-3.227c-0.22-1.08-0.686-2.076-1.391-2.988l-6.334-8.177l-3.469,2.687l-0.965-1.245l8.184-6.338
		l0.965,1.245l-3.47,2.687l10.986,14.187l3.248-2.514l0.964,1.246l-4.181,3.236l-1.604-1.889c-0.345-0.444-0.669-0.832-0.974-1.166
		c-0.306-0.332-0.631-0.721-0.976-1.166c0.51,1.883,0.439,3.75-0.211,5.606c-0.649,1.854-1.82,3.437-3.511,4.746
		c-1.601,1.24-3.215,1.757-4.845,1.554c-1.628-0.207-3.044-1.023-4.249-2.456l-8.346-10.776l-3.469,2.687l-0.965-1.245l8.228-6.372
		L656.027,724.803z"/>
	<path fill="#FFFFFF" d="M649.956,740.6c0.826,1.251,1.379,2.595,1.653,4.031c0.275,1.438,0.273,2.844-0.009,4.221
		c-0.281,1.376-0.816,2.674-1.605,3.894c-0.79,1.218-1.826,2.253-3.11,3.101c-1.281,0.848-2.646,1.4-4.094,1.66
		c-1.446,0.26-2.857,0.249-4.234-0.031c-1.377-0.283-2.681-0.825-3.91-1.631c-1.229-0.805-2.258-1.834-3.085-3.085
		c-0.848-1.282-1.396-2.64-1.646-4.069c-0.249-1.433-0.228-2.828,0.063-4.189c0.291-1.362,0.84-2.657,1.646-3.886
		c0.806-1.229,1.851-2.269,3.132-3.116c1.283-0.848,2.64-1.396,4.07-1.646c1.432-0.249,2.831-0.242,4.196,0.024
		c1.367,0.265,2.652,0.798,3.856,1.599C648.083,738.275,649.107,739.316,649.956,740.6z M648.643,741.467
		c-0.725-1.094-1.605-1.984-2.644-2.668c-1.039-0.686-2.145-1.146-3.315-1.383c-1.172-0.236-2.37-0.244-3.596-0.018
		s-2.387,0.703-3.486,1.428c-1.065,0.705-1.95,1.582-2.655,2.633c-0.703,1.05-1.176,2.16-1.416,3.33
		c-0.241,1.171-0.258,2.372-0.051,3.607c0.207,1.234,0.672,2.398,1.396,3.493c0.725,1.095,1.613,1.979,2.667,2.653
		c1.055,0.674,2.173,1.138,3.355,1.391c1.181,0.252,2.392,0.262,3.634,0.025c1.241-0.237,2.396-0.709,3.462-1.412
		c1.099-0.727,1.991-1.609,2.68-2.648s1.147-2.152,1.378-3.338c0.229-1.187,0.234-2.393,0.012-3.615
		C649.839,743.721,649.366,742.563,648.643,741.467z"/>
	<path fill="#FFFFFF" d="M628.085,754.887c0.737,1.305,1.194,2.684,1.369,4.137c0.174,1.451,0.074,2.854-0.303,4.209
		c-0.377,1.352-1,2.609-1.874,3.771c-0.873,1.162-1.979,2.119-3.317,2.877c-1.339,0.757-2.739,1.213-4.2,1.371
		s-2.869,0.049-4.223-0.326c-1.354-0.377-2.615-1.01-3.786-1.898c-1.17-0.889-2.126-1.988-2.862-3.294
		c-0.757-1.339-1.209-2.73-1.357-4.175c-0.149-1.445-0.031-2.836,0.354-4.174c0.386-1.338,1.023-2.592,1.913-3.762
		c0.889-1.17,2.003-2.135,3.342-2.891s2.73-1.209,4.175-1.357s2.84-0.045,4.185,0.316c1.346,0.359,2.59,0.98,3.734,1.863
		C626.378,752.436,627.329,753.547,628.085,754.887z M626.714,755.661c-0.646-1.144-1.463-2.093-2.45-2.847
		c-0.988-0.757-2.06-1.293-3.211-1.611c-1.152-0.318-2.348-0.407-3.586-0.267c-1.238,0.14-2.431,0.534-3.577,1.181
		c-1.112,0.629-2.057,1.443-2.833,2.441c-0.774,0.996-1.323,2.072-1.646,3.224c-0.321,1.151-0.422,2.349-0.302,3.595
		c0.121,1.244,0.504,2.439,1.149,3.582c0.646,1.143,1.472,2.087,2.477,2.832c1.005,0.747,2.087,1.287,3.249,1.623
		c1.161,0.332,2.369,0.426,3.624,0.277c1.255-0.15,2.44-0.539,3.553-1.168c1.146-0.646,2.098-1.467,2.856-2.455
		c0.76-0.99,1.295-2.066,1.607-3.233c0.313-1.169,0.4-2.37,0.263-3.606C627.751,757.992,627.359,756.803,626.714,755.661z"/>
	<path fill="#FFFFFF" d="M587.311,766.178l-4.022,1.889l5.729,12.195c0.623,1.148,1.529,1.959,2.72,2.428
		c1.191,0.471,2.512,0.406,3.963-0.193c1.082-0.508,2.039-1.174,2.87-1.996c0.83-0.823,1.477-1.734,1.936-2.732
		c0.459-0.999,0.699-2.047,0.718-3.147c0.02-1.101-0.217-2.174-0.707-3.22l-4.398-9.361l-3.971,1.865l-0.67-1.424l9.367-4.402
		l0.67,1.426l-3.971,1.865l7.63,16.242l3.717-1.747l0.669,1.426l-4.785,2.249l-1.154-2.191c-0.239-0.51-0.471-0.961-0.697-1.352
		c-0.225-0.393-0.457-0.842-0.696-1.352c0.087,1.949-0.389,3.757-1.429,5.426c-1.039,1.669-2.525,2.959-4.46,3.867
		c-1.833,0.861-3.521,1.014-5.067,0.457c-1.545-0.555-2.749-1.661-3.612-3.32l-5.796-12.337l-3.971,1.864l-0.67-1.426l9.419-4.424
		L587.311,766.178z"/>
	<path fill="#FFFFFF" d="M570.638,776.875c0.017-2.11,0.023-4.195,0.021-6.257c-0.002-2.063,0.004-4.147,0.021-6.258l1.461-0.59
		c0.035,2.089,0.089,4.149,0.161,6.184c0.074,2.032,0.128,4.093,0.162,6.183L570.638,776.875z"/>
	<path fill="#FFFFFF" d="M548.833,781.371l-4.132,1.298l10.861,34.558l4.132-1.298l0.473,1.503l-10.088,3.17l-0.473-1.502l4.454-1.4
		l-10.862-34.558l-4.453,1.4l-0.473-1.503l10.088-3.17L548.833,781.371z"/>
	<path fill="#FFFFFF" d="M519.306,789.771l-4.006,0.903l8.589,38.081l3.951-0.893l0.347,1.537l-5.487,1.238l-8.936-39.617
		l-4.554,1.026l-0.347-1.536l10.096-2.277L519.306,789.771z"/>
	<path fill="#FFFFFF" d="M507.186,801.914c0.233,1.48,0.179,2.932-0.167,4.354c-0.345,1.422-0.932,2.699-1.758,3.838
		c-0.826,1.135-1.853,2.094-3.077,2.877c-1.224,0.779-2.595,1.291-4.114,1.53c-1.519,0.239-2.99,0.177-4.414-0.187
		c-1.425-0.363-2.705-0.96-3.842-1.785c-1.136-0.827-2.096-1.861-2.881-3.105c-0.784-1.243-1.293-2.605-1.527-4.086
		c-0.239-1.52-0.176-2.982,0.19-4.387c0.368-1.406,0.966-2.668,1.795-3.785c0.83-1.119,1.866-2.069,3.108-2.854
		c1.244-0.783,2.625-1.297,4.143-1.537c1.52-0.238,2.981-0.176,4.387,0.191c1.406,0.366,2.676,0.954,3.809,1.763
		c1.134,0.808,2.082,1.825,2.846,3.053C506.444,799.021,506.947,800.395,507.186,801.914z M505.631,802.159
		c-0.205-1.298-0.638-2.472-1.299-3.526c-0.661-1.054-1.476-1.931-2.443-2.633c-0.968-0.7-2.056-1.203-3.265-1.506
		s-2.464-0.352-3.765-0.146c-1.262,0.199-2.432,0.631-3.507,1.293c-1.076,0.664-1.967,1.479-2.671,2.443s-1.218,2.053-1.542,3.262
		c-0.323,1.209-0.383,2.461-0.179,3.759c0.204,1.296,0.646,2.47,1.327,3.521c0.68,1.051,1.504,1.935,2.475,2.656
		c0.971,0.72,2.069,1.229,3.297,1.529c1.229,0.299,2.475,0.352,3.736,0.15c1.301-0.204,2.479-0.637,3.537-1.297
		c1.057-0.661,1.936-1.483,2.638-2.467c0.702-0.984,1.205-2.08,1.51-3.285C505.784,804.705,505.835,803.455,505.631,802.159z"/>
	<path fill="#FFFFFF" d="M482.5,816.611l-9.578,0.877l-0.144-1.567l3.864-0.354c-1.781-2.803-3.564-5.615-5.348-8.436
		c-1.784-2.82-3.531-5.654-5.242-8.501c-1.059,2.913-2.211,5.946-3.456,9.101c-1.246,3.156-2.521,6.313-3.822,9.474l3.248-0.298
		l0.145,1.568l-8.738,0.801l-0.144-1.568l3.921-0.359c1.434-3.662,2.863-7.276,4.287-10.844c1.424-3.566,2.854-7.18,4.288-10.842
		c2.113,3.336,4.194,6.627,6.243,9.877c2.049,3.249,4.111,6.543,6.187,9.885l4.146-0.381L482.5,816.611z"/>
	<path fill="#FFFFFF" d="M427.893,812.699c3.019-1.281,6.038-2.545,9.058-3.79s6.039-2.507,9.059-3.788
		c-0.736-1.678-1.873-3.021-3.406-4.029c-1.534-1.01-3.294-1.5-5.282-1.47c-1.273,0.019-2.452,0.261-3.533,0.726
		c-1.08,0.467-2.046,1.1-2.897,1.899c-0.152-0.187-0.305-0.37-0.458-0.556c-0.152-0.186-0.323-0.371-0.515-0.555
		c0.962-0.953,2.066-1.699,3.314-2.244c1.249-0.543,2.604-0.824,4.066-0.846c1.538-0.022,2.977,0.247,4.315,0.809
		c1.34,0.561,2.504,1.322,3.493,2.283s1.784,2.102,2.385,3.426c0.602,1.322,0.912,2.75,0.935,4.289c0.022,1.5-0.247,2.93-0.81,4.287
		c-0.561,1.359-1.321,2.531-2.282,3.521c-0.96,0.988-2.102,1.783-3.425,2.385c-1.322,0.601-2.752,0.912-4.29,0.936
		c-2.249,0.033-4.237-0.633-5.964-1.995S428.676,814.862,427.893,812.699z M437.596,818.407c1.538-0.022,2.939-0.376,4.204-1.06
		c1.266-0.686,2.312-1.568,3.14-2.652c0.828-1.086,1.4-2.331,1.718-3.74c0.316-1.409,0.277-2.832-0.119-4.268
		c-2.796,1.166-5.563,2.322-8.304,3.469c-2.739,1.146-5.508,2.303-8.303,3.469c0.733,1.441,1.773,2.602,3.117,3.489
		C434.394,818.001,435.909,818.432,437.596,818.407z"/>
	<path fill="#FFFFFF" d="M406.113,785.178l-4.642-0.504c-1.229,1.932-2.476,3.871-3.743,5.817s-2.514,3.868-3.737,5.763
		c1.322,3.453,2.617,6.893,3.887,10.324c1.269,3.428,2.546,6.867,3.83,10.316l4.139,0.449l-0.17,1.564l-9.674-1.049l0.169-1.566
		l3.747,0.406c-1.164-3.172-2.34-6.327-3.527-9.463c-1.188-3.138-2.325-6.288-3.416-9.453c-1.693,2.75-3.469,5.555-5.326,8.419
		c-1.857,2.862-3.714,5.716-5.569,8.562l3.188,0.347l-0.17,1.565l-8.78-0.953l0.171-1.565l3.858,0.419
		c6.484-10.048,12.93-20.078,19.335-30.098l-3.858-0.417l0.17-1.566l10.29,1.116L406.113,785.178z"/>
	<path fill="#FFFFFF" d="M373.409,804.511c-0.28,1.472-0.823,2.82-1.628,4.042c-0.806,1.221-1.788,2.227-2.95,3.018
		c-1.161,0.79-2.451,1.346-3.867,1.668s-2.88,0.341-4.391,0.054c-1.51-0.286-2.875-0.843-4.092-1.666
		c-1.218-0.823-2.222-1.816-3.013-2.978c-0.79-1.162-1.345-2.461-1.664-3.895c-0.318-1.436-0.338-2.891-0.058-4.363
		c0.287-1.512,0.841-2.865,1.66-4.064c0.82-1.199,1.81-2.186,2.967-2.957c1.159-0.773,2.456-1.318,3.891-1.637
		s2.907-0.335,4.418-0.047c1.511,0.287,2.866,0.842,4.064,1.66c1.199,0.82,2.196,1.801,2.99,2.945
		c0.794,1.143,1.343,2.42,1.646,3.835C373.688,801.537,373.696,803,373.409,804.511z M371.861,804.217
		c0.245-1.291,0.235-2.543-0.032-3.756c-0.266-1.217-0.736-2.317-1.41-3.305s-1.528-1.828-2.564-2.521
		c-1.035-0.694-2.201-1.161-3.494-1.407c-1.256-0.24-2.502-0.229-3.738,0.033c-1.236,0.26-2.35,0.727-3.339,1.396
		c-0.988,0.67-1.839,1.521-2.552,2.549c-0.713,1.029-1.191,2.188-1.438,3.479c-0.245,1.288-0.225,2.541,0.061,3.761
		c0.285,1.218,0.763,2.33,1.433,3.335c0.671,1.006,1.533,1.857,2.587,2.555c1.055,0.695,2.211,1.164,3.466,1.403
		c1.294,0.245,2.55,0.237,3.767-0.028c1.219-0.266,2.324-0.741,3.316-1.43c0.992-0.691,1.836-1.551,2.53-2.582
		C371.147,806.666,371.616,805.504,371.861,804.217z"/>
	<path fill="#FFFFFF" d="M345.112,809.723l-5.65-1.518l3.9-14.518c0.269-1.283,0.099-2.49-0.506-3.621
		c-0.606-1.131-1.656-1.936-3.152-2.415c-1.154-0.311-2.313-0.419-3.479-0.327s-2.246,0.371-3.241,0.838
		c-0.996,0.465-1.856,1.111-2.582,1.939c-0.724,0.828-1.237,1.801-1.537,2.916l-2.683,9.989l4.183,1.123l-0.409,1.521l-5.704-1.532
		l5.108-19.014l-4.021-1.08l0.365-1.358l5.213,1.399l-0.663,2.91l-0.603,2.459c1.189-1.545,2.725-2.617,4.607-3.219
		c1.884-0.599,3.836-0.629,5.857-0.086c1.949,0.523,3.342,1.498,4.178,2.923s1.047,3.05,0.635,4.876l-3.537,13.164l4.129,1.107
		L345.112,809.723z"/>
	<path fill="#FFFFFF" d="M293.227,801.252c-0.147,0.385-0.415,0.662-0.803,0.838c-0.388,0.17-0.773,0.185-1.159,0.035
		c-0.386-0.146-0.655-0.412-0.811-0.792c-0.155-0.382-0.159-0.765-0.012-1.148c0.148-0.386,0.403-0.659,0.767-0.821
		s0.738-0.168,1.123-0.021c0.386,0.148,0.667,0.406,0.847,0.777C293.358,800.489,293.374,800.867,293.227,801.252z M306.384,777.621
		l-4.201-1.611l-6.425,16.754l4.202,1.612l-0.564,1.47l-5.672-2.174l6.988-18.225l-4.044-1.551l0.563-1.471l9.717,3.726
		L306.384,777.621z"/>
	<path fill="#FFFFFF" d="M279.134,766.32l-4.049-1.834l-5.556,12.276c-0.471,1.219-0.497,2.433-0.081,3.645
		c0.415,1.21,1.322,2.173,2.721,2.889c1.088,0.493,2.216,0.788,3.381,0.886c1.166,0.098,2.277-0.002,3.335-0.301
		s2.012-0.797,2.86-1.498c0.85-0.699,1.512-1.576,1.988-2.627l4.266-9.422l-3.997-1.811l0.649-1.436l9.429,4.27l-0.649,1.435
		l-3.997-1.81l-7.399,16.347l3.741,1.692l-0.649,1.436l-4.817-2.18l0.919-2.301c0.231-0.512,0.423-0.982,0.574-1.408
		c0.152-0.426,0.344-0.894,0.575-1.406c-1.425,1.33-3.109,2.143-5.054,2.437c-1.944,0.293-3.89-0.001-5.837-0.883
		c-1.845-0.835-3.058-2.021-3.639-3.556s-0.521-3.17,0.182-4.904l5.621-12.417l-3.997-1.811l0.649-1.435l9.48,4.291L279.134,766.32z
		"/>
	<path fill="#FFFFFF" d="M230.959,778.66l-1.356-0.799l6.967-11.824l-5.864-3.455l0.8-1.357l5.864,3.455l9.108-15.461l-4.071-2.398
		l0.8-1.357l5.428,3.198l-9.908,16.817l4.265,2.514l-0.799,1.355l-4.265-2.512L230.959,778.66z"/>
	<path fill="#FFFFFF" d="M224.604,735.3l-3.681-2.491l-7.551,11.16c-0.67,1.121-0.901,2.314-0.696,3.578s0.937,2.367,2.192,3.307
		c0.99,0.672,2.052,1.152,3.184,1.445s2.244,0.383,3.338,0.268c1.092-0.117,2.117-0.445,3.072-0.992
		c0.956-0.547,1.757-1.298,2.404-2.254l5.797-8.566l-3.634-2.459l0.882-1.305l8.572,5.801l-0.883,1.305l-3.634-2.459l-21.878,32.33
		l3.4,2.301l-0.883,1.305l-4.705-3.184l13.492-19.939l1.559-2.001c-1.66,1.05-3.466,1.561-5.416,1.53
		c-1.95-0.028-3.81-0.643-5.58-1.84c-1.677-1.135-2.672-2.51-2.985-4.121c-0.313-1.61,0.024-3.212,1.009-4.803l7.64-11.288
		l-3.634-2.46l0.883-1.303l8.618,5.832L224.604,735.3z"/>
	<path fill="#FFFFFF" d="M189.385,724.514c3.151,0.906,6.293,1.829,9.421,2.767c3.129,0.937,6.269,1.858,9.421,2.767
		c0.485-1.766,0.449-3.525-0.106-5.275c-0.554-1.75-1.611-3.238-3.174-4.469c-1.001-0.789-2.068-1.344-3.201-1.662
		c-1.133-0.319-2.281-0.438-3.446-0.353c-0.001-0.24-0.003-0.48-0.006-0.721c-0.001-0.24-0.018-0.491-0.05-0.755
		c1.348-0.133,2.676-0.018,3.987,0.348s2.542,1,3.69,1.906c1.208,0.949,2.155,2.066,2.842,3.348c0.686,1.279,1.11,2.604,1.271,3.973
		c0.164,1.37,0.062,2.758-0.307,4.162c-0.365,1.406-1.026,2.711-1.978,3.921c-0.928,1.179-2.038,2.118-3.33,2.817
		c-1.292,0.701-2.622,1.133-3.992,1.295c-1.369,0.162-2.756,0.062-4.162-0.307c-1.404-0.366-2.711-1.025-3.92-1.977
		c-1.767-1.393-2.892-3.162-3.374-5.309C188.491,728.846,188.629,726.687,189.385,724.514z M193.32,735.062
		c1.209,0.95,2.52,1.56,3.933,1.825s2.782,0.24,4.109-0.08c1.326-0.32,2.556-0.927,3.689-1.82c1.135-0.895,2-2.025,2.598-3.389
		c-2.905-0.857-5.783-1.703-8.633-2.54s-5.728-1.684-8.633-2.54c-0.337,1.581-0.264,3.138,0.221,4.674
		C191.09,732.727,191.995,734.017,193.32,735.062z"/>
	<path fill="#FFFFFF" d="M158.638,695.934c3.033,1.248,6.055,2.509,9.061,3.783c3.008,1.273,6.027,2.535,9.061,3.783
		c0.676-1.703,0.834-3.455,0.474-5.256c-0.358-1.799-1.247-3.396-2.665-4.789c-0.908-0.895-1.909-1.563-3-2.004
		s-2.219-0.684-3.387-0.728c0.025-0.239,0.049-0.478,0.073-0.718c0.025-0.237,0.036-0.49,0.034-0.756
		c1.353,0.017,2.66,0.276,3.924,0.783c1.264,0.506,2.417,1.272,3.46,2.298c1.097,1.079,1.915,2.292,2.456,3.64
		c0.542,1.347,0.819,2.711,0.83,4.09c0.013,1.379-0.242,2.746-0.761,4.104c-0.519,1.356-1.318,2.582-2.396,3.68
		c-1.051,1.068-2.258,1.881-3.619,2.436c-1.361,0.557-2.729,0.838-4.109,0.85c-1.378,0.012-2.746-0.242-4.104-0.762
		c-1.355-0.519-2.583-1.316-3.68-2.396c-1.604-1.577-2.527-3.458-2.771-5.646C157.274,700.142,157.648,698.01,158.638,695.934z
		 M161.394,706.85c1.097,1.078,2.333,1.826,3.708,2.246c1.376,0.42,2.74,0.543,4.093,0.371c1.354-0.173,2.643-0.643,3.868-1.406
		c1.226-0.766,2.21-1.793,2.953-3.084c-2.794-1.17-5.561-2.326-8.302-3.47c-2.741-1.146-5.509-2.301-8.303-3.471
		c-0.509,1.532-0.605,3.089-0.292,4.669C159.433,704.284,160.19,705.666,161.394,706.85z"/>
	<path fill="#FFFFFF" d="M150.222,697.406l-6.32-7.249l1.188-1.036l2.551,2.926c1.228-3.085,2.463-6.176,3.705-9.273
		c1.242-3.1,2.516-6.175,3.821-9.227c-2.98,0.846-6.114,1.688-9.401,2.525c-3.286,0.838-6.592,1.654-9.916,2.449l2.144,2.459
		l-1.188,1.035l-5.766-6.613l1.188-1.036l2.587,2.968c3.809-0.982,7.575-1.939,11.3-2.873c3.727-0.935,7.492-1.893,11.301-2.873
		c-1.468,3.666-2.918,7.281-4.352,10.844s-2.896,7.165-4.389,10.803l2.735,3.139L150.222,697.406z"/>
	<path fill="#FFFFFF" d="M121.438,650.867c2.807,1.697,5.599,3.406,8.375,5.126c2.777,1.72,5.568,3.429,8.375,5.126
		c0.928-1.58,1.353-3.287,1.271-5.121c-0.079-1.834-0.713-3.547-1.899-5.142c-0.762-1.022-1.648-1.835-2.658-2.439
		c-1.011-0.604-2.089-1.015-3.236-1.237c0.062-0.232,0.122-0.465,0.183-0.697c0.062-0.231,0.111-0.479,0.148-0.742
		c1.335,0.223,2.588,0.68,3.759,1.375c1.171,0.693,2.194,1.627,3.067,2.801c0.918,1.232,1.542,2.557,1.87,3.971
		c0.33,1.416,0.395,2.806,0.194,4.17c-0.199,1.363-0.66,2.677-1.381,3.939c-0.719,1.26-1.696,2.35-2.931,3.268
		c-1.202,0.896-2.519,1.514-3.949,1.854s-2.826,0.411-4.192,0.211c-1.363-0.199-2.676-0.66-3.938-1.381
		c-1.261-0.72-2.351-1.697-3.27-2.93c-1.344-1.805-1.968-3.807-1.875-6.003C119.447,654.817,120.143,652.77,121.438,650.867z
		 M122.491,662.077c0.919,1.233,2.025,2.163,3.32,2.786c1.296,0.627,2.625,0.957,3.988,0.994c1.364,0.035,2.709-0.23,4.037-0.799
		s2.459-1.432,3.391-2.594c-2.582-1.584-5.14-3.151-7.673-4.701c-2.533-1.551-5.092-3.117-7.674-4.699
		c-0.737,1.436-1.071,2.959-1.003,4.568C120.946,659.241,121.483,660.723,122.491,662.077z"/>
	<path fill="#FFFFFF" d="M121.013,627.335l-2.387-3.749l-11.365,7.237c-1.061,0.763-1.748,1.767-2.062,3.007
		c-0.314,1.24-0.082,2.543,0.697,3.906c0.642,1.008,1.424,1.872,2.346,2.591c0.923,0.72,1.907,1.244,2.957,1.573
		c1.048,0.326,2.119,0.432,3.214,0.311c1.094-0.121,2.127-0.492,3.102-1.111l8.725-5.557l-2.356-3.701l1.329-0.845l5.559,8.729
		l-1.329,0.846l-2.356-3.701l-15.136,9.639l2.205,3.463l-1.328,0.847l-2.84-4.46l2.027-1.426c0.475-0.301,0.892-0.588,1.25-0.862
		c0.36-0.272,0.777-0.562,1.252-0.862c-1.921,0.334-3.775,0.092-5.563-0.727c-1.788-0.816-3.256-2.127-4.403-3.932
		c-1.088-1.707-1.454-3.363-1.101-4.967s1.298-2.938,2.835-4.005l11.497-7.321l-2.356-3.701l1.328-0.846l5.59,8.777L121.013,627.335
		z"/>
	<path fill="#FFFFFF" d="M88.601,625.146c-0.36,0.2-0.744,0.243-1.152,0.127c-0.408-0.117-0.712-0.354-0.913-0.717
		c-0.2-0.359-0.237-0.736-0.113-1.127c0.126-0.393,0.369-0.688,0.729-0.889c0.361-0.201,0.731-0.246,1.114-0.139
		c0.383,0.111,0.674,0.346,0.875,0.707c0.2,0.359,0.251,0.74,0.15,1.137C89.192,624.646,88.962,624.946,88.601,625.146z
		 M113.858,615.473l-2.188-3.934l-15.681,8.725l2.188,3.933l-1.376,0.765l-2.954-5.309l17.058-9.488l-2.105-3.785l1.376-0.766
		l5.059,9.094L113.858,615.473z"/>
	<path fill="#FFFFFF" d="M100.217,589.303l-1.926-4.006l-12.143,5.84c-1.144,0.633-1.944,1.547-2.403,2.741
		s-0.383,2.515,0.229,3.961c0.519,1.077,1.192,2.027,2.022,2.851c0.831,0.824,1.747,1.461,2.75,1.912
		c1.002,0.449,2.053,0.681,3.154,0.689c1.101,0.01,2.171-0.236,3.211-0.736l9.322-4.482l-1.901-3.955l1.419-0.683l4.485,9.329
		l-1.419,0.682l-1.902-3.953l-16.171,7.775l1.78,3.701l-1.42,0.682l-2.291-4.765l2.182-1.175c0.507-0.242,0.955-0.48,1.344-0.708
		c0.39-0.229,0.838-0.466,1.345-0.71c-1.947,0.105-3.76-0.354-5.438-1.379c-1.678-1.023-2.979-2.498-3.906-4.426
		c-0.878-1.824-1.046-3.512-0.505-5.063c0.541-1.549,1.638-2.764,3.29-3.641l12.283-5.908l-1.9-3.953l1.419-0.682l4.51,9.377
		L100.217,589.303z"/>
	<path fill="#FFFFFF" d="M68.719,564.534l-1.961-5.089l1.47-0.566l1.518,3.938l19.598-7.549c1.852-0.715,3.592-1.092,5.22-1.137
		c1.627-0.045,3.11,0.188,4.451,0.696c1.338,0.509,2.509,1.255,3.509,2.235c0.998,0.981,1.779,2.148,2.34,3.498
		c0.496,1.498,0.795,3.08,0.895,4.749c0.101,1.671-0.217,3.169-0.95,4.496l-1.421-0.715c0.636-1.167,0.919-2.466,0.848-3.901
		c-0.069-1.435-0.34-2.764-0.811-3.984c-0.443-1.15-1.108-2.146-1.994-2.986c-0.887-0.84-1.92-1.463-3.102-1.87
		c-1.181-0.405-2.488-0.593-3.923-0.562c-1.436,0.031-2.923,0.344-4.462,0.937l-3.885,1.496c-0.489,0.188-0.965,0.362-1.427,0.521
		c-0.462,0.157-0.944,0.313-1.448,0.467c1.817,0.021,3.577,0.627,5.28,1.813c1.704,1.188,2.965,2.847,3.784,4.975
		c0.552,1.431,0.803,2.867,0.756,4.308c-0.048,1.441-0.357,2.804-0.929,4.085c-0.57,1.282-1.367,2.421-2.392,3.416
		c-1.022,0.995-2.251,1.769-3.687,2.321c-1.399,0.539-2.821,0.787-4.266,0.742c-1.443-0.045-2.807-0.352-4.092-0.92
		c-1.282-0.566-2.434-1.365-3.454-2.396c-1.02-1.029-1.805-2.26-2.355-3.691c-0.403-1.046-0.638-2.099-0.704-3.156
		c-0.064-1.055,0.014-2.078,0.236-3.064c0.222-0.988,0.573-1.904,1.05-2.749c0.479-0.847,1.043-1.575,1.691-2.185
		c-0.875,0.336-1.757,0.656-2.645,0.957C70.569,563.965,69.657,564.254,68.719,564.534z M85.431,578.654
		c1.217-0.469,2.269-1.133,3.155-1.994c0.887-0.863,1.569-1.838,2.05-2.924c0.479-1.086,0.741-2.248,0.783-3.487
		c0.043-1.239-0.172-2.468-0.642-3.689c-0.471-1.222-1.141-2.286-2.009-3.193c-0.869-0.907-1.849-1.612-2.94-2.112
		s-2.256-0.773-3.491-0.818c-1.236-0.045-2.463,0.166-3.68,0.635c-1.217,0.471-2.27,1.135-3.156,1.998
		c-0.887,0.861-1.574,1.848-2.065,2.959c-0.491,1.11-0.754,2.293-0.79,3.549c-0.035,1.256,0.182,2.495,0.652,3.716
		c0.471,1.222,1.137,2.276,1.998,3.167c0.863,0.891,1.845,1.574,2.947,2.051s2.271,0.736,3.507,0.783
		C82.986,579.336,84.213,579.125,85.431,578.654z"/>
	<path fill="#FFFFFF" d="M70.29,535.693c-1.455,0.359-2.897,0.428-4.325,0.201c-1.427-0.227-2.742-0.701-3.946-1.426
		c-1.202-0.727-2.246-1.666-3.132-2.818c-0.884-1.15-1.511-2.475-1.88-3.967c-0.271-1.092-0.372-2.168-0.308-3.227
		c0.067-1.061,0.271-2.067,0.614-3.021c0.343-0.955,0.805-1.822,1.384-2.602c0.579-0.781,1.229-1.436,1.948-1.961
		c-0.91,0.225-1.824,0.433-2.744,0.621c-0.918,0.189-1.86,0.365-2.825,0.525l-0.283-1.146l18.946-4.691l-1.001-4.041l1.529-0.379
		l1.339,5.406l-2.567,0.635l-3.003,0.744c0.883,0.129,1.76,0.395,2.631,0.797c0.873,0.402,1.684,0.945,2.433,1.629
		c0.748,0.684,1.4,1.479,1.952,2.385s0.969,1.924,1.248,3.051c0.37,1.494,0.433,2.955,0.188,4.387
		c-0.243,1.434-0.719,2.749-1.427,3.947c-0.707,1.199-1.64,2.231-2.798,3.098C73.107,534.705,71.782,535.324,70.29,535.693z
		 M69.939,534.158c1.27-0.314,2.399-0.846,3.39-1.594c0.99-0.746,1.791-1.632,2.405-2.652c0.614-1.021,1.02-2.145,1.216-3.373
		c0.196-1.227,0.137-2.477-0.179-3.752c-0.315-1.272-0.849-2.416-1.601-3.428c-0.75-1.012-1.638-1.834-2.662-2.471
		c-1.023-0.633-2.147-1.051-3.372-1.25c-1.224-0.197-2.472-0.141-3.741,0.174s-2.399,0.846-3.39,1.592
		c-0.99,0.748-1.799,1.645-2.426,2.688c-0.627,1.045-1.037,2.189-1.229,3.434c-0.192,1.246-0.131,2.506,0.185,3.779
		s0.847,2.408,1.594,3.4c0.747,0.994,1.639,1.797,2.676,2.409s2.169,1.019,3.394,1.216C67.423,534.53,68.669,534.473,69.939,534.158
		z"/>
	<path fill="#FFFFFF" d="M69.53,489.414l-0.691-4.39l-13.31,2.101c-1.276,0.275-2.307,0.921-3.09,1.934
		c-0.784,1.013-1.091,2.299-0.92,3.859c0.187,1.182,0.559,2.285,1.116,3.313c0.56,1.027,1.254,1.901,2.084,2.621
		c0.83,0.721,1.771,1.244,2.822,1.568c1.052,0.325,2.147,0.397,3.289,0.219l10.216-1.612l-0.684-4.334l1.556-0.245l1.613,10.223
		l-1.556,0.246l-0.685-4.334l-17.724,2.797l0.64,4.055l-1.557,0.246l-0.823-5.223l2.428-0.497c0.556-0.087,1.052-0.185,1.491-0.292
		c0.438-0.106,0.936-0.205,1.491-0.292c-1.895-0.46-3.499-1.422-4.813-2.886c-1.312-1.463-2.135-3.251-2.468-5.361
		c-0.315-2.001,0.009-3.666,0.973-4.994s2.364-2.176,4.198-2.542l13.464-2.124l-0.684-4.334l1.556-0.245l1.621,10.278L69.53,489.414
		z"/>
	<path fill="#FFFFFF" d="M64.582,455.426l-3.082,0.262c0.852,0.268,1.675,0.668,2.474,1.201c0.799,0.535,1.513,1.197,2.145,1.99
		c0.633,0.793,1.151,1.682,1.555,2.662c0.402,0.982,0.654,2.053,0.753,3.211c0.13,1.532-0.038,2.986-0.504,4.361
		c-0.466,1.377-1.142,2.601-2.03,3.674c-0.887,1.072-1.97,1.945-3.248,2.619s-2.684,1.075-4.216,1.205
		c-1.494,0.128-2.938-0.031-4.331-0.477c-1.394-0.446-2.617-1.123-3.674-2.031c-1.055-0.906-1.929-1.999-2.622-3.276
		c-0.691-1.276-1.103-2.681-1.233-4.214c-0.096-1.121-0.027-2.199,0.204-3.234c0.231-1.036,0.592-1.998,1.081-2.887
		c0.488-0.889,1.081-1.673,1.775-2.354c0.695-0.68,1.439-1.223,2.232-1.629c-0.966,0.119-1.914,0.229-2.845,0.326
		c-0.93,0.1-1.88,0.189-2.85,0.271l-19.405,1.652l0.343,4.036l-1.569,0.134l-0.473-5.549l40.467-3.447l-0.354-4.146l1.569-0.135
		l0.473,5.549L64.582,455.426z M58.322,475.041c1.304-0.112,2.503-0.458,3.598-1.041c1.097-0.582,2.026-1.33,2.792-2.242
		c0.768-0.912,1.344-1.958,1.731-3.139c0.387-1.182,0.524-2.426,0.413-3.734c-0.111-1.307-0.458-2.52-1.041-3.637
		c-0.583-1.116-1.33-2.068-2.241-2.857c-0.912-0.788-1.956-1.377-3.134-1.766c-1.179-0.389-2.419-0.527-3.723-0.416
		s-2.502,0.458-3.598,1.04c-1.096,0.583-2.034,1.34-2.818,2.272c-0.782,0.934-1.367,1.999-1.753,3.197
		c-0.386,1.2-0.523,2.454-0.412,3.762c0.111,1.309,0.458,2.511,1.039,3.609c0.582,1.098,1.337,2.031,2.265,2.799
		s1.981,1.347,3.159,1.734C55.778,475.013,57.02,475.15,58.322,475.041z"/>
	<path fill="#FFFFFF" d="M45.228,429.191l0.231-5.846l15.021,0.595c1.311-0.022,2.45-0.454,3.419-1.294
		c0.97-0.84,1.522-2.043,1.659-3.608c0.047-1.194-0.103-2.349-0.451-3.465c-0.347-1.117-0.857-2.109-1.532-2.977
		c-0.675-0.868-1.495-1.564-2.463-2.088c-0.968-0.524-2.028-0.81-3.184-0.855l-10.335-0.408l-0.172,4.327l-1.573-0.062l0.233-5.902
		l19.672,0.778l0.165-4.159l1.405,0.055l-0.214,5.394l-2.983-0.004l-2.531-0.043c1.77,0.817,3.155,2.078,4.156,3.782
		c1.003,1.704,1.462,3.602,1.38,5.693c-0.08,2.016-0.722,3.59-1.927,4.72c-1.205,1.13-2.742,1.696-4.614,1.697l-13.619-0.539
		l-0.169,4.271L45.228,429.191z"/>
	<path fill="#FFFFFF" d="M67.878,385.328l0.53-4.412l-13.377-1.607c-1.305-0.081-2.472,0.258-3.501,1.019
		c-1.029,0.761-1.676,1.915-1.938,3.463c-0.142,1.187-0.084,2.351,0.173,3.492c0.258,1.141,0.687,2.171,1.29,3.089
		c0.604,0.919,1.365,1.679,2.288,2.278s1.958,0.968,3.104,1.106l10.27,1.234l0.523-4.356l1.563,0.188l-1.235,10.276l-1.563-0.188
		l0.523-4.356l-17.815-2.141l-0.49,4.077l-1.563-0.188l0.631-5.25l2.471,0.184c0.559,0.067,1.063,0.109,1.515,0.125
		c0.451,0.017,0.956,0.059,1.515,0.126c-1.698-0.959-2.979-2.322-3.843-4.088c-0.864-1.765-1.169-3.709-0.914-5.832
		c0.241-2.01,1.008-3.523,2.297-4.54c1.29-1.015,2.867-1.449,4.732-1.301l13.533,1.625l0.522-4.356l1.564,0.188l-1.242,10.332
		L67.878,385.328z"/>
	<path fill="#FFFFFF" d="M72.691,351.34l-3.032-0.615c0.742,0.496,1.42,1.112,2.036,1.848c0.616,0.738,1.115,1.575,1.499,2.514
		c0.383,0.939,0.631,1.937,0.742,2.992c0.11,1.056,0.051,2.154-0.181,3.292c-0.306,1.507-0.876,2.855-1.71,4.044
		c-0.834,1.189-1.827,2.174-2.981,2.954c-1.152,0.781-2.438,1.313-3.854,1.6s-2.878,0.277-4.385-0.029
		c-1.47-0.298-2.811-0.857-4.022-1.677c-1.211-0.82-2.195-1.813-2.953-2.981c-0.759-1.167-1.289-2.461-1.596-3.882
		c-0.304-1.42-0.305-2.883,0.002-4.391c0.224-1.103,0.593-2.119,1.105-3.047c0.515-0.929,1.131-1.75,1.85-2.466
		s1.508-1.301,2.365-1.759c0.858-0.457,1.726-0.769,2.601-0.936c-0.96-0.156-1.901-0.318-2.821-0.486
		c-0.92-0.167-1.857-0.348-2.811-0.542l-19.087-3.872l-0.806,3.969l-1.544-0.313l1.107-5.458l39.802,8.074l0.827-4.08l1.544,0.313
		l-1.107,5.458L72.691,351.34z M61.166,368.401c1.282,0.261,2.531,0.266,3.746,0.014c1.215-0.25,2.318-0.706,3.311-1.366
		s1.84-1.501,2.544-2.525c0.703-1.024,1.185-2.18,1.446-3.466c0.261-1.287,0.269-2.547,0.024-3.783
		c-0.246-1.235-0.695-2.359-1.348-3.373c-0.653-1.013-1.489-1.871-2.511-2.576c-1.021-0.704-2.173-1.187-3.455-1.446
		c-1.281-0.26-2.53-0.264-3.745-0.014s-2.329,0.714-3.343,1.388c-1.015,0.675-1.875,1.533-2.583,2.576
		c-0.707,1.043-1.192,2.207-1.453,3.493c-0.261,1.288-0.267,2.539-0.018,3.757c0.25,1.218,0.712,2.325,1.387,3.323
		c0.675,0.998,1.522,1.849,2.543,2.554C58.733,367.66,59.885,368.142,61.166,368.401z"/>
	<path fill="#FFFFFF" d="M69.206,319.657c0.372,3.258,0.727,6.513,1.061,9.761c0.337,3.249,0.69,6.503,1.062,9.762
		c1.817-0.23,3.428-0.938,4.83-2.123c1.403-1.183,2.372-2.732,2.909-4.646c0.344-1.228,0.446-2.426,0.307-3.595
		c-0.141-1.168-0.473-2.273-0.997-3.317c0.221-0.093,0.441-0.187,0.662-0.281c0.222-0.094,0.447-0.206,0.679-0.336
		c0.64,1.192,1.043,2.464,1.209,3.814c0.166,1.352,0.052,2.731-0.343,4.14c-0.415,1.481-1.082,2.784-2.001,3.908
		c-0.919,1.125-1.979,2.026-3.182,2.701c-1.201,0.676-2.522,1.114-3.961,1.313c-1.438,0.202-2.897,0.093-4.379-0.321
		c-1.443-0.405-2.737-1.069-3.881-1.994c-1.143-0.924-2.052-1.986-2.728-3.189c-0.676-1.202-1.113-2.521-1.314-3.961
		c-0.2-1.438-0.093-2.897,0.322-4.378c0.606-2.167,1.81-3.883,3.605-5.152C64.863,320.494,66.91,319.792,69.206,319.657z
		 M60.978,327.339c-0.415,1.48-0.475,2.925-0.178,4.332c0.297,1.408,0.847,2.662,1.651,3.764c0.805,1.102,1.837,2.004,3.099,2.708
		s2.636,1.07,4.125,1.099c-0.323-3.012-0.646-5.995-0.968-8.947c-0.32-2.952-0.644-5.935-0.968-8.946
		c-1.589,0.294-2.999,0.961-4.23,1.998C62.276,324.384,61.433,325.715,60.978,327.339z"/>
	<path fill="#FFFFFF" d="M82.431,319.641l1.427-4.149l-16.968-5.836l-1.336,3.883l-1.489-0.513l1.721-5l2.377,0.698
		c0.531,0.183,1.017,0.331,1.454,0.441c0.438,0.112,0.922,0.258,1.454,0.441c-1.469-1.377-2.419-3.023-2.853-4.937
		c-0.433-1.913-0.354-3.78,0.231-5.602l1.472,0.566c-0.354,1.147-0.515,2.301-0.481,3.463c0.033,1.162,0.255,2.239,0.662,3.232
		c0.407,0.993,0.993,1.868,1.757,2.626c0.764,0.759,1.674,1.32,2.731,1.683l9.78,3.365l1.427-4.149l1.489,0.513l-3.366,9.787
		L82.431,319.641z"/>
	<path fill="#FFFFFF" d="M94.394,287.786l1.716-4.1l-12.429-5.202c-1.232-0.434-2.447-0.426-3.646,0.024
		c-1.198,0.45-2.136,1.384-2.81,2.802c-0.461,1.103-0.725,2.238-0.789,3.405c-0.063,1.168,0.067,2.276,0.397,3.325
		c0.329,1.049,0.854,1.988,1.577,2.817c0.725,0.829,1.619,1.466,2.685,1.912l9.541,3.994l1.693-4.048l1.453,0.608l-3.995,9.548
		l-1.454-0.608l1.694-4.047l-16.552-6.928l-1.586,3.787l-1.453-0.608l2.042-4.877l2.326,0.852c0.52,0.218,0.994,0.396,1.423,0.535
		c0.43,0.139,0.904,0.316,1.423,0.534c-1.371-1.387-2.23-3.047-2.579-4.982c-0.349-1.934-0.11-3.888,0.715-5.859
		c0.781-1.868,1.932-3.114,3.45-3.739c1.518-0.624,3.154-0.61,4.907,0.042l12.573,5.263l1.693-4.047l1.454,0.608l-4.019,9.599
		L94.394,287.786z"/>
	<path fill="#FFFFFF" d="M98.02,251.15c-0.269,3.27-0.554,6.529-0.856,9.782c-0.302,3.252-0.587,6.512-0.855,9.78
		c1.826,0.128,3.544-0.253,5.15-1.142c1.606-0.889,2.857-2.219,3.756-3.993c0.576-1.137,0.91-2.292,1-3.466
		s-0.021-2.323-0.334-3.448c0.234-0.049,0.47-0.098,0.705-0.147c0.235-0.048,0.479-0.114,0.73-0.197
		c0.396,1.294,0.544,2.619,0.444,3.977s-0.479,2.689-1.14,3.993c-0.695,1.373-1.604,2.521-2.724,3.445
		c-1.119,0.926-2.335,1.603-3.646,2.031c-1.31,0.43-2.69,0.603-4.141,0.519c-1.45-0.083-2.86-0.472-4.232-1.167
		c-1.338-0.678-2.479-1.581-3.42-2.709s-1.627-2.347-2.057-3.659c-0.429-1.31-0.602-2.69-0.519-4.141
		c0.083-1.449,0.472-2.86,1.167-4.232c1.017-2.007,2.529-3.458,4.538-4.353C93.597,251.128,95.741,250.837,98.02,251.15z
		 M88.454,257.087c-0.695,1.373-1.033,2.777-1.016,4.215c0.018,1.438,0.313,2.775,0.889,4.013s1.412,2.323,2.513,3.259
		s2.378,1.563,3.834,1.879c0.267-3.018,0.53-6.005,0.789-8.964c0.259-2.958,0.521-5.947,0.789-8.964
		c-1.616-0.02-3.129,0.36-4.538,1.138C90.304,254.441,89.218,255.583,88.454,257.087z"/>
	<path fill="#FFFFFF" d="M103.094,249.081c-1.284-0.772-2.354-1.743-3.205-2.912c-0.85-1.167-1.446-2.434-1.785-3.798
		c-0.34-1.362-0.415-2.765-0.228-4.206c0.188-1.44,0.678-2.819,1.47-4.137c0.579-0.964,1.268-1.798,2.062-2.502
		c0.795-0.703,1.651-1.271,2.568-1.705c0.917-0.434,1.856-0.722,2.817-0.866c0.962-0.143,1.884-0.147,2.764-0.012
		c-0.803-0.482-1.597-0.981-2.381-1.498c-0.784-0.514-1.575-1.055-2.372-1.623l0.609-1.013l16.727,10.059l2.146-3.568l1.35,0.812
		l-2.869,4.772l-2.266-1.362l-2.652-1.594c0.534,0.714,0.968,1.523,1.301,2.422c0.334,0.901,0.524,1.857,0.571,2.871
		s-0.053,2.036-0.302,3.067s-0.673,2.046-1.271,3.042c-0.793,1.318-1.781,2.397-2.965,3.238c-1.184,0.842-2.45,1.438-3.798,1.786
		c-1.348,0.35-2.736,0.422-4.168,0.218C105.786,250.371,104.412,249.873,103.094,249.081z M103.93,247.746
		c1.122,0.674,2.296,1.096,3.525,1.266c1.229,0.171,2.421,0.11,3.576-0.18c1.155-0.289,2.236-0.799,3.242-1.529
		s1.846-1.657,2.523-2.782c0.676-1.125,1.105-2.311,1.288-3.557s0.136-2.457-0.141-3.629c-0.276-1.173-0.777-2.261-1.504-3.267
		c-0.727-1.005-1.65-1.846-2.771-2.52c-1.121-0.674-2.297-1.096-3.525-1.267c-1.229-0.17-2.434-0.107-3.614,0.189
		c-1.182,0.297-2.28,0.818-3.296,1.563c-1.016,0.746-1.861,1.681-2.537,2.806c-0.678,1.125-1.102,2.303-1.274,3.533
		c-0.173,1.231-0.107,2.43,0.194,3.596c0.302,1.166,0.816,2.252,1.542,3.257C101.886,246.232,102.809,247.072,103.93,247.746z"/>
	<path fill="#FFFFFF" d="M101.768,205.565l0.895-1.296l11.297,7.794l3.865-5.602l1.296,0.894l-3.865,5.602l14.77,10.191l2.684-3.889
		l1.296,0.894l-3.578,5.185l-16.065-11.084l-2.812,4.074l-1.296-0.894l2.812-4.074L101.768,205.565z"/>
	<path fill="#FFFFFF" d="M145.469,202.33l2.747-3.493l-10.59-8.329c-1.071-0.748-2.245-1.064-3.52-0.951
		c-1.275,0.114-2.428,0.764-3.456,1.951c-0.739,0.94-1.295,1.964-1.669,3.072c-0.373,1.108-0.542,2.211-0.504,3.31
		c0.037,1.099,0.293,2.144,0.769,3.136c0.478,0.992,1.169,1.845,2.077,2.559l8.13,6.394l2.712-3.448l1.238,0.974l-6.398,8.135
		l-1.238-0.974l2.712-3.448l-30.684-24.134l-2.538,3.228l-1.238-0.973l3.513-4.466l18.923,14.884l1.886,1.697
		c-0.929-1.731-1.309-3.569-1.14-5.512c0.168-1.943,0.914-3.755,2.234-5.434c1.253-1.592,2.693-2.486,4.324-2.684
		c1.629-0.196,3.201,0.253,4.717,1.35l10.714,8.427l2.713-3.449l1.237,0.974l-6.434,8.179L145.469,202.33z"/>
	<path fill="#FFFFFF" d="M145.007,152.593l1.101-1.127l9.817,9.591l4.756-4.868l1.126,1.101l-4.756,4.868l12.835,12.54l3.302-3.379
		l1.127,1.101l-4.403,4.506l-13.961-13.641l-3.459,3.541l-1.127-1.101l3.459-3.541L145.007,152.593z"/>
	<path fill="#FFFFFF" d="M188.638,156.783l3.299-2.977l-9.027-10.002c-0.93-0.918-2.032-1.429-3.309-1.532
		c-1.275-0.104-2.521,0.343-3.735,1.338c-0.887,0.801-1.609,1.716-2.165,2.745c-0.556,1.029-0.908,2.088-1.058,3.177
		s-0.074,2.162,0.228,3.221s0.84,2.017,1.613,2.874l6.93,7.678l3.258-2.939l1.055,1.168l-7.684,6.935l-1.056-1.169l3.258-2.94
		l-26.155-28.98l-3.049,2.751l-1.055-1.169l4.218-3.806l16.13,17.872l1.57,1.992c-0.621-1.865-0.684-3.739-0.189-5.625
		c0.495-1.886,1.536-3.545,3.123-4.978c1.503-1.357,3.074-1.994,4.715-1.913c1.639,0.082,3.113,0.792,4.422,2.129l9.132,10.118
		l3.258-2.939l1.055,1.169l-7.726,6.972L188.638,156.783z"/>
	<path fill="#FFFFFF" d="M207.525,125.194c-1.637,2.842-3.285,5.67-4.944,8.482c-1.659,2.813-3.309,5.641-4.945,8.483
		c1.599,0.894,3.315,1.281,5.146,1.162c1.832-0.119,3.531-0.789,5.101-2.01c1.005-0.783,1.8-1.686,2.382-2.709
		c0.581-1.023,0.971-2.11,1.168-3.261c0.232,0.057,0.467,0.112,0.7,0.167c0.233,0.057,0.481,0.101,0.745,0.133
		c-0.193,1.339-0.625,2.601-1.294,3.787c-0.669,1.186-1.579,2.229-2.733,3.127c-1.214,0.945-2.524,1.596-3.932,1.956
		c-1.407,0.359-2.795,0.454-4.164,0.283c-1.368-0.17-2.689-0.602-3.966-1.296c-1.277-0.692-2.387-1.646-3.332-2.86
		c-0.921-1.183-1.567-2.486-1.938-3.909s-0.471-2.817-0.3-4.187c0.17-1.368,0.603-2.689,1.296-3.967
		c0.692-1.276,1.646-2.386,2.859-3.332c1.775-1.381,3.763-2.049,5.961-2.003C203.534,123.287,205.598,123.939,207.525,125.194z
		 M196.342,126.486c-1.214,0.945-2.119,2.072-2.716,3.38c-0.598,1.309-0.899,2.644-0.907,4.008c-0.007,1.365,0.287,2.704,0.884,4.02
		c0.597,1.316,1.485,2.428,2.667,3.334c1.528-2.615,3.04-5.206,4.535-7.772s3.007-5.157,4.535-7.772
		c-1.453-0.707-2.983-1.008-4.59-0.906C199.143,124.88,197.673,125.449,196.342,126.486z"/>
	<path fill="#FFFFFF" d="M258.541,107.714l3.852-2.217l-6.721-11.678c-0.716-1.094-1.687-1.825-2.912-2.194
		c-1.225-0.37-2.537-0.196-3.933,0.521c-1.036,0.596-1.919,1.33-2.646,2.2c-0.728,0.87-1.28,1.801-1.657,2.792
		c-0.378,0.993-0.557,2.031-0.535,3.115c0.021,1.084,0.293,2.121,0.818,3.108l5.299,9.207l3.803-2.188l0.786,1.365l-9.02,5.191
		l-0.786-1.366l3.852-2.216l-6.721-11.679c-0.715-1.093-1.686-1.824-2.911-2.193c-1.226-0.37-2.537-0.196-3.934,0.521
		c-1.036,0.597-1.934,1.339-2.694,2.228c-0.76,0.89-1.327,1.851-1.702,2.883s-0.527,2.098-0.455,3.197
		c0.072,1.098,0.396,2.147,0.973,3.148l5.159,8.965l3.803-2.189l0.785,1.366l-8.971,5.162l-0.785-1.365l3.803-2.189l-8.95-15.552
		l-3.56,2.048l-0.785-1.365l4.583-2.637l1.332,2.089c0.28,0.487,0.549,0.917,0.806,1.288s0.526,0.8,0.807,1.288
		c-0.248-1.934,0.076-3.775,0.975-5.525c0.896-1.75,2.271-3.157,4.124-4.223c1.624-0.936,3.198-1.246,4.72-0.933
		c1.521,0.315,2.785,1.156,3.79,2.525c-0.13-1.873,0.245-3.656,1.123-5.352c0.878-1.695,2.208-3.055,3.989-4.08
		c1.749-1.007,3.423-1.3,5.021-0.883c1.598,0.417,2.896,1.418,3.894,3.001l6.799,11.813l3.754-2.16l0.785,1.365l-8.971,5.163
		L258.541,107.714z"/>
	<path fill="#FFFFFF" d="M266.949,93.27c-0.62-1.366-0.952-2.779-0.998-4.242c-0.046-1.461,0.179-2.85,0.674-4.166
		c0.493-1.315,1.227-2.512,2.199-3.593c0.972-1.079,2.157-1.936,3.559-2.572c1.399-0.635,2.835-0.967,4.304-0.996
		c1.47-0.028,2.862,0.205,4.179,0.699c1.314,0.495,2.516,1.236,3.604,2.225c1.087,0.989,1.94,2.167,2.56,3.533
		c0.637,1.4,0.964,2.827,0.984,4.278c0.021,1.453-0.221,2.828-0.722,4.126c-0.502,1.299-1.248,2.492-2.237,3.579
		c-0.989,1.086-2.184,1.948-3.584,2.583c-1.4,0.636-2.826,0.963-4.279,0.984c-1.452,0.021-2.832-0.207-4.14-0.685
		c-1.308-0.477-2.493-1.206-3.556-2.186C268.434,95.861,267.585,94.671,266.949,93.27z M268.383,92.619
		c0.543,1.196,1.273,2.213,2.19,3.052c0.918,0.84,1.937,1.469,3.056,1.888c1.12,0.418,2.303,0.613,3.549,0.583
		c1.245-0.03,2.468-0.317,3.667-0.862c1.164-0.528,2.177-1.255,3.037-2.181c0.86-0.925,1.502-1.948,1.924-3.066
		c0.422-1.118,0.628-2.302,0.618-3.554c-0.011-1.251-0.286-2.474-0.829-3.67c-0.543-1.194-1.281-2.208-2.217-3.04
		c-0.935-0.832-1.965-1.465-3.092-1.901c-1.128-0.436-2.323-0.635-3.586-0.598c-1.264,0.039-2.478,0.322-3.642,0.85
		c-1.198,0.544-2.22,1.275-3.063,2.193c-0.843,0.918-1.472,1.944-1.886,3.079c-0.414,1.136-0.608,2.325-0.581,3.568
		C267.557,90.205,267.841,91.424,268.383,92.619z"/>
	<path fill="#FFFFFF" d="M290.786,82.611c-0.523-1.405-0.757-2.839-0.7-4.3c0.057-1.461,0.376-2.831,0.962-4.109
		c0.584-1.277,1.398-2.42,2.444-3.431c1.044-1.009,2.287-1.781,3.729-2.318c1.44-0.536,2.896-0.767,4.363-0.694
		c1.469,0.074,2.841,0.404,4.119,0.988c1.277,0.585,2.425,1.408,3.44,2.471s1.785,2.297,2.309,3.703
		c0.536,1.441,0.764,2.887,0.684,4.336c-0.081,1.451-0.417,2.806-1.008,4.066c-0.591,1.262-1.418,2.399-2.48,3.415
		s-2.314,1.792-3.755,2.328c-1.441,0.536-2.888,0.764-4.338,0.684c-1.45-0.08-2.812-0.403-4.082-0.971
		c-1.271-0.567-2.402-1.376-3.395-2.428C292.087,85.299,291.322,84.053,290.786,82.611z M292.263,82.062
		c0.457,1.231,1.115,2.296,1.972,3.198c0.857,0.902,1.83,1.6,2.917,2.095c1.088,0.495,2.254,0.772,3.499,0.829
		c1.245,0.057,2.485-0.145,3.719-0.604c1.198-0.446,2.259-1.1,3.182-1.965c0.923-0.862,1.633-1.838,2.132-2.923
		c0.499-1.086,0.787-2.253,0.863-3.502c0.078-1.249-0.112-2.488-0.57-3.719s-1.124-2.292-1.999-3.188
		c-0.875-0.895-1.859-1.598-2.954-2.112c-1.094-0.513-2.271-0.794-3.534-0.845c-1.264-0.049-2.494,0.148-3.692,0.594
		c-1.233,0.459-2.303,1.118-3.208,1.975c-0.905,0.857-1.604,1.837-2.097,2.941c-0.491,1.104-0.768,2.276-0.827,3.519
		C291.605,79.596,291.805,80.833,292.263,82.062z"/>
	<path fill="#FFFFFF" d="M332.812,77.877l4.269-1.235L333.335,63.7c-0.434-1.232-1.202-2.173-2.305-2.824s-2.418-0.795-3.944-0.431
		c-1.149,0.333-2.198,0.84-3.147,1.522c-0.95,0.684-1.73,1.48-2.34,2.395c-0.611,0.914-1.013,1.913-1.204,2.996
		s-0.127,2.18,0.194,3.29l2.875,9.936l4.215-1.22l0.438,1.513l-9.942,2.876l-0.438-1.513l4.215-1.22l-4.988-17.236l-3.944,1.142
		l-0.438-1.513l5.079-1.47l0.796,2.346c0.156,0.54,0.314,1.021,0.477,1.443c0.16,0.422,0.319,0.903,0.476,1.444
		c0.22-1.938,0.974-3.649,2.263-5.134c1.287-1.485,2.958-2.525,5.012-3.119c1.945-0.563,3.637-0.449,5.076,0.341
		c1.438,0.791,2.454,2.074,3.046,3.849l3.788,13.093l4.215-1.22l0.438,1.513l-9.996,2.893L332.812,77.877z"/>
	<path fill="#FFFFFF" d="M347.632,74.156c-0.095-0.401-0.03-0.782,0.194-1.144c0.224-0.36,0.536-0.587,0.938-0.682
		c0.4-0.094,0.772-0.026,1.115,0.201c0.343,0.229,0.561,0.543,0.654,0.945c0.095,0.402,0.037,0.771-0.174,1.109
		c-0.209,0.338-0.516,0.554-0.917,0.648c-0.402,0.094-0.781,0.038-1.137-0.167C347.95,74.861,347.726,74.558,347.632,74.156z"/>
</g>
<g id="strokecircles">
	<circle fill="none" stroke="#FFFFFF" stroke-width="0.2586" cx="432" cy="432" r="360"/>
	<circle fill="none" stroke="#FFFFFF" stroke-width="0.2552" cx="432" cy="432" r="355.334"/>
</g>
</svg>
