<?xml version="1.0" encoding="utf-8"?>
<!-- Generator: Adobe Illustrator 14.0.0, SVG Export Plug-In . SVG Version: 6.00 Build 43363)  -->
<!DOCTYPE svg PUBLIC "-//W3C//DTD SVG 1.1//EN" "http://www.w3.org/Graphics/SVG/1.1/DTD/svg11.dtd">
<svg version="1.1" id="Layer_1" xmlns="http://www.w3.org/2000/svg" xmlns:xlink="http://www.w3.org/1999/xlink" x="0px" y="0px"
	 width="576px" height="720px" viewBox="0 0 576 720" enable-background="new 0 0 576 720" xml:space="preserve">
<rect id="photo" x="0.007" fill="#D0D2D3" width="575.993" height="720"/>
<g id="filltext">
	<path fill="#FFFFFF" d="M250.891,171.333l2.858-0.405l-3.389-23.91l-2.859,0.405l-0.147-1.04l6.979-0.99l0.147,1.04l-3.081,0.437
		l3.389,23.911l3.082-0.438l0.148,1.04l-6.98,0.99L250.891,171.333z"/>
	<path fill="#FFFFFF" d="M271.246,169.01l2.732-0.16l-1.515-25.981l-2.696,0.158l-0.06-1.049l3.743-0.218l1.578,27.028l3.105-0.181
		l0.062,1.047l-6.888,0.402L271.246,169.01z"/>
	<path fill="#FFFFFF" d="M280.463,162.431c-0.004-1,0.179-1.951,0.55-2.853c0.37-0.902,0.886-1.685,1.545-2.351
		c0.66-0.665,1.432-1.194,2.318-1.586c0.885-0.392,1.84-0.59,2.866-0.595c1.025-0.004,1.988,0.185,2.89,0.568
		c0.901,0.383,1.685,0.905,2.352,1.564c0.665,0.659,1.192,1.438,1.585,2.336c0.392,0.898,0.59,1.848,0.596,2.847
		c0.005,1.026-0.186,1.983-0.569,2.872c-0.384,0.89-0.905,1.661-1.563,2.314c-0.66,0.653-1.439,1.175-2.337,1.567
		c-0.898,0.392-1.859,0.59-2.885,0.594c-1.025,0.005-1.982-0.185-2.871-0.568c-0.89-0.383-1.668-0.898-2.333-1.545
		c-0.666-0.646-1.188-1.413-1.567-2.299C280.66,164.411,280.468,163.456,280.463,162.431z M281.514,162.425
		c0.004,0.875,0.17,1.693,0.5,2.453c0.33,0.762,0.777,1.422,1.344,1.982c0.567,0.559,1.233,1,2,1.321
		c0.766,0.321,1.588,0.48,2.466,0.477c0.852-0.004,1.666-0.17,2.442-0.499c0.775-0.329,1.445-0.775,2.006-1.341
		c0.562-0.564,1.01-1.229,1.345-1.993c0.336-0.764,0.501-1.583,0.497-2.458c-0.004-0.875-0.177-1.692-0.52-2.454
		c-0.342-0.76-0.796-1.427-1.363-2c-0.566-0.572-1.239-1.019-2.019-1.34c-0.778-0.321-1.595-0.48-2.446-0.477
		c-0.878,0.004-1.699,0.171-2.463,0.5c-0.763,0.328-1.425,0.782-1.986,1.359c-0.562,0.579-1.004,1.249-1.327,2.013
		C281.669,160.731,281.51,161.551,281.514,162.425z"/>
	<path fill="#FFFFFF" d="M298.373,155.369l6.396,0.477l-0.078,1.047l-2.58-0.193c0.862,2.039,1.726,4.083,2.589,6.134
		c0.861,2.052,1.698,4.107,2.51,6.167c1.017-1.798,2.108-3.666,3.274-5.603s2.352-3.873,3.556-5.808l-2.168-0.162l0.077-1.047
		l5.834,0.435l-0.079,1.047l-2.616-0.195c-1.347,2.249-2.685,4.469-4.014,6.657c-1.329,2.189-2.666,4.407-4.013,6.657
		c-1.022-2.426-2.028-4.82-3.018-7.182c-0.989-2.361-1.982-4.755-2.98-7.179l-2.768-0.206L298.373,155.369z"/>
	<path fill="#FFFFFF" d="M333.84,163.963c-2.126,0.509-4.25,1.006-6.373,1.49c-2.124,0.484-4.248,0.981-6.374,1.49
		c0.299,1.183,0.897,2.192,1.794,3.025c0.896,0.833,2,1.349,3.31,1.55c0.84,0.128,1.642,0.1,2.404-0.087
		c0.762-0.187,1.466-0.496,2.115-0.929c0.079,0.14,0.158,0.278,0.239,0.416c0.078,0.139,0.171,0.28,0.277,0.422
		c-0.738,0.52-1.548,0.889-2.428,1.108c-0.881,0.219-1.803,0.255-2.767,0.107c-1.014-0.156-1.93-0.492-2.748-1.009
		c-0.818-0.517-1.5-1.146-2.045-1.887c-0.545-0.741-0.94-1.58-1.188-2.515c-0.249-0.936-0.295-1.911-0.141-2.924
		c0.152-0.988,0.486-1.898,1.006-2.729c0.519-0.83,1.148-1.518,1.891-2.063c0.74-0.544,1.579-0.939,2.515-1.189
		c0.936-0.248,1.909-0.295,2.924-0.14c1.482,0.227,2.716,0.884,3.7,1.97S333.565,162.455,333.84,163.963z M328.092,159.138
		c-1.015-0.155-1.974-0.078-2.88,0.232c-0.907,0.31-1.693,0.775-2.358,1.396c-0.663,0.622-1.179,1.377-1.541,2.27
		c-0.365,0.891-0.496,1.83-0.395,2.818c1.966-0.458,3.914-0.912,5.842-1.363c1.928-0.45,3.875-0.905,5.843-1.362
		c-0.323-1.028-0.878-1.907-1.663-2.638C330.152,159.76,329.204,159.308,328.092,159.138z"/>
	<path fill="#FFFFFF" d="M345.134,184.47l2.995,0.844c1.021-1.134,2.057-2.271,3.104-3.41c1.05-1.14,2.08-2.265,3.095-3.375
		c-0.487-2.417-0.959-4.822-1.413-7.217c-0.456-2.395-0.915-4.797-1.377-7.207l-2.672-0.753l0.285-1.01l6.244,1.76l-0.284,1.011
		l-2.418-0.682c0.414,2.215,0.838,4.418,1.271,6.612c0.434,2.193,0.833,4.391,1.201,6.592c1.417-1.62,2.895-3.269,4.433-4.945
		c1.537-1.677,3.073-3.348,4.608-5.013l-2.058-0.58l0.284-1.011l5.668,1.597l-0.285,1.011l-2.491-0.702
		c-5.374,5.887-10.722,11.77-16.04,17.646l2.49,0.702l-0.285,1.011l-6.642-1.873L345.134,184.47z"/>
	<path fill="#FFFFFF" d="M368.756,175.373c0.348-0.938,0.852-1.764,1.516-2.479c0.664-0.714,1.421-1.266,2.273-1.658
		c0.85-0.392,1.76-0.615,2.726-0.671c0.968-0.056,1.932,0.094,2.893,0.45c0.961,0.355,1.797,0.871,2.508,1.546
		c0.71,0.676,1.26,1.439,1.651,2.29c0.391,0.852,0.612,1.766,0.664,2.745c0.051,0.978-0.097,1.937-0.443,2.874
		c-0.355,0.962-0.869,1.792-1.539,2.49c-0.672,0.697-1.432,1.236-2.277,1.616c-0.849,0.38-1.761,0.596-2.738,0.647
		c-0.979,0.051-1.95-0.101-2.909-0.457c-0.963-0.354-1.792-0.868-2.49-1.54c-0.698-0.671-1.245-1.426-1.641-2.266
		c-0.396-0.839-0.616-1.74-0.66-2.703C368.245,177.296,368.4,176.334,368.756,175.373z M369.739,175.737
		c-0.302,0.821-0.435,1.646-0.392,2.473c0.041,0.829,0.229,1.604,0.563,2.328c0.335,0.723,0.804,1.37,1.408,1.939
		c0.605,0.571,1.318,1.007,2.142,1.312c0.799,0.295,1.62,0.426,2.462,0.391c0.841-0.035,1.625-0.219,2.349-0.551
		c0.725-0.333,1.376-0.796,1.96-1.395c0.581-0.597,1.024-1.306,1.329-2.127c0.303-0.821,0.427-1.647,0.374-2.48
		c-0.053-0.833-0.245-1.616-0.574-2.352c-0.329-0.735-0.803-1.39-1.419-1.964c-0.616-0.574-1.324-1.01-2.124-1.305
		c-0.823-0.305-1.65-0.438-2.479-0.397c-0.831,0.04-1.61,0.231-2.339,0.574c-0.729,0.344-1.378,0.817-1.948,1.419
		C370.48,174.205,370.043,174.916,369.739,175.737z"/>
	<path fill="#FFFFFF" d="M387.945,175.071l3.548,1.619l-4.161,9.117c-0.317,0.814-0.338,1.625-0.065,2.436
		c0.273,0.81,0.875,1.455,1.806,1.935c0.726,0.331,1.477,0.53,2.254,0.598c0.776,0.068,1.518,0.004,2.223-0.193
		c0.706-0.197,1.342-0.528,1.91-0.993s1.013-1.047,1.332-1.748l2.863-6.272l-2.626-1.199l0.435-0.955l3.582,1.635l-5.449,11.939
		l2.524,1.153l-0.39,0.853l-3.273-1.495l0.757-1.84l0.665-1.551c-0.952,0.885-2.08,1.421-3.384,1.609s-2.592-0.008-3.861-0.587
		c-1.222-0.558-2.03-1.353-2.423-2.381c-0.394-1.029-0.354-2.121,0.118-3.276l3.773-8.266l-2.593-1.184L387.945,175.071z"/>
	<path fill="#FFFFFF" d="M409.865,200.425l2.587,1.52l6.06-10.314l-2.586-1.519l0.531-0.905l3.491,2.051l-6.591,11.219l2.489,1.463
		l-0.531,0.906l-5.982-3.515L409.865,200.425z M421.105,186.326c0.14-0.236,0.346-0.39,0.62-0.462
		c0.273-0.07,0.529-0.037,0.766,0.103c0.238,0.138,0.386,0.342,0.447,0.61c0.06,0.268,0.02,0.52-0.119,0.756
		c-0.139,0.238-0.337,0.39-0.593,0.456c-0.258,0.066-0.503,0.03-0.741-0.109c-0.238-0.14-0.395-0.341-0.472-0.604
		C420.937,186.813,420.967,186.564,421.105,186.326z"/>
	<path fill="#FFFFFF" d="M426.556,210.842l2.461,1.648l4.996-7.465c0.441-0.75,0.594-1.546,0.452-2.388s-0.631-1.574-1.473-2.197
		c-0.663-0.443-1.371-0.76-2.128-0.953c-0.757-0.191-1.498-0.247-2.226-0.166c-0.729,0.081-1.41,0.304-2.045,0.671
		c-0.635,0.368-1.167,0.871-1.596,1.511l-3.834,5.73l2.431,1.627l-0.584,0.873l-5.735-3.838l0.586-0.873l2.43,1.627l6.653-9.941
		l-2.274-1.523l0.584-0.872l2.93,1.96l-0.855,1.413c-0.209,0.312-0.387,0.599-0.533,0.862c-0.146,0.263-0.324,0.55-0.532,0.862
		c1.084-0.719,2.279-1.069,3.591-1.049c1.311,0.02,2.558,0.426,3.742,1.219c1.123,0.751,1.789,1.663,2.004,2.737
		c0.214,1.073-0.005,2.142-0.656,3.206l-5.054,7.551l2.431,1.626l-0.584,0.873l-5.766-3.858L426.556,210.842z"/>
	<path fill="#FFFFFF" d="M459.587,207.991l0.805,0.674l-5.874,7.016l3.479,2.913l-0.673,0.805l-3.479-2.913l-7.679,9.172
		l2.415,2.023l-0.674,0.805l-3.222-2.696l8.354-9.978l-2.529-2.119l0.673-0.805l2.53,2.119L459.587,207.991z"/>
	<path fill="#FFFFFF" d="M459.024,237.196l2.149,2.04l6.185-6.514c0.563-0.665,0.846-1.424,0.848-2.278
		c0.004-0.854-0.356-1.658-1.08-2.414c-0.577-0.549-1.224-0.981-1.935-1.298c-0.713-0.316-1.434-0.497-2.167-0.54
		c-0.73-0.043-1.44,0.062-2.129,0.317c-0.688,0.254-1.297,0.661-1.827,1.219l-4.748,5l2.12,2.014l-0.722,0.761l-5.004-4.751
		l0.724-0.761l2.121,2.014l17.921-18.872l-1.985-1.885l0.724-0.761l2.745,2.608l-11.052,11.639l-1.243,1.146
		c1.206-0.509,2.449-0.647,3.729-0.415c1.278,0.232,2.436,0.839,3.468,1.82c0.979,0.93,1.485,1.942,1.514,3.036
		c0.029,1.094-0.367,2.11-1.188,3.049l-6.258,6.589l2.122,2.014l-0.724,0.761l-5.03-4.776L459.024,237.196z"/>
	<path fill="#FFFFFF" d="M481.015,248.151c-1.975-0.942-3.938-1.892-5.893-2.851c-1.956-0.958-3.919-1.909-5.893-2.85
		c-0.513,1.108-0.682,2.268-0.508,3.48c0.172,1.211,0.706,2.307,1.599,3.287c0.571,0.628,1.214,1.11,1.922,1.444
		c0.71,0.334,1.453,0.537,2.229,0.609c-0.026,0.158-0.051,0.315-0.075,0.473c-0.025,0.159-0.042,0.326-0.051,0.502
		c-0.899-0.06-1.761-0.281-2.583-0.665c-0.823-0.384-1.561-0.936-2.218-1.656c-0.692-0.759-1.191-1.597-1.503-2.513
		c-0.312-0.917-0.445-1.835-0.401-2.753c0.043-0.918,0.262-1.82,0.658-2.704c0.394-0.884,0.971-1.67,1.728-2.36
		c0.74-0.673,1.573-1.17,2.499-1.489c0.927-0.32,1.849-0.458,2.767-0.415c0.92,0.043,1.82,0.262,2.705,0.658
		c0.883,0.395,1.67,0.971,2.36,1.729c1.011,1.109,1.556,2.396,1.639,3.859C482.076,245.399,481.749,246.805,481.015,248.151z
		 M479.58,240.784c-0.69-0.758-1.486-1.302-2.386-1.631c-0.899-0.33-1.803-0.463-2.71-0.397c-0.909,0.065-1.783,0.33-2.628,0.793
		c-0.843,0.464-1.535,1.112-2.079,1.944c1.818,0.881,3.618,1.753,5.4,2.615c1.781,0.861,3.581,1.733,5.398,2.615
		c0.396-1.003,0.517-2.035,0.367-3.098C480.791,242.563,480.338,241.616,479.58,240.784z"/>
	<path fill="#FFFFFF" d="M495.252,281.138l1.672,2.446l7.414-5.071c0.689-0.533,1.126-1.215,1.308-2.049
		c0.183-0.834-0.002-1.696-0.549-2.588c-0.451-0.657-0.983-1.205-1.601-1.644c-0.615-0.438-1.263-0.757-1.941-0.957
		c-0.679-0.2-1.377-0.265-2.097-0.195c-0.72,0.071-1.396,0.305-2.023,0.706l-5.846,3.998l1.65,2.415l-0.866,0.593l-3.916-5.727
		l0.866-0.592l1.673,2.445l7.414-5.07c0.69-0.532,1.125-1.215,1.308-2.049c0.184-0.834-0.002-1.697-0.549-2.588
		c-0.45-0.657-0.99-1.216-1.622-1.675c-0.63-0.459-1.298-0.788-2.003-0.982c-0.706-0.196-1.423-0.242-2.148-0.137
		c-0.726,0.104-1.407,0.375-2.042,0.81l-5.691,3.893l1.65,2.414l-0.866,0.593l-3.896-5.695l0.866-0.593l1.651,2.415l9.875-6.753
		l-1.546-2.259l0.866-0.593l1.99,2.91l-1.319,0.994c-0.31,0.211-0.581,0.412-0.815,0.602c-0.232,0.189-0.505,0.392-0.814,0.603
		c1.272-0.265,2.513-0.145,3.724,0.361c1.209,0.505,2.215,1.347,3.021,2.523c0.705,1.032,0.993,2.062,0.862,3.09
		c-0.129,1.027-0.624,1.911-1.481,2.649c1.238-0.183,2.442-0.026,3.615,0.469c1.172,0.497,2.145,1.31,2.919,2.441
		c0.759,1.111,1.04,2.208,0.847,3.292c-0.197,1.083-0.794,1.998-1.794,2.744l-7.501,5.13l1.631,2.383l-0.866,0.593l-3.895-5.695
		L495.252,281.138z"/>
	<path fill="#FFFFFF" d="M505.288,285.982c0.875-0.483,1.797-0.777,2.768-0.883c0.97-0.106,1.903-0.029,2.804,0.232
		c0.898,0.26,1.732,0.686,2.502,1.276c0.768,0.589,1.397,1.333,1.893,2.232c0.496,0.896,0.79,1.833,0.886,2.809
		c0.094,0.976,0.012,1.914-0.248,2.813c-0.262,0.899-0.691,1.736-1.292,2.511c-0.602,0.773-1.341,1.402-2.216,1.885
		c-0.897,0.493-1.829,0.786-2.794,0.875c-0.965,0.088-1.891,0-2.779-0.267c-0.89-0.267-1.721-0.7-2.494-1.302
		c-0.774-0.601-1.408-1.351-1.902-2.249c-0.496-0.897-0.787-1.829-0.877-2.793c-0.089-0.964-0.01-1.893,0.241-2.788
		c0.25-0.893,0.673-1.718,1.269-2.476C503.643,287.102,504.39,286.476,505.288,285.982z M505.795,286.901
		c-0.768,0.423-1.405,0.96-1.915,1.614c-0.511,0.653-0.876,1.362-1.096,2.128c-0.221,0.766-0.289,1.563-0.205,2.39
		c0.085,0.826,0.339,1.623,0.764,2.394c0.41,0.746,0.946,1.381,1.605,1.904c0.66,0.524,1.373,0.897,2.137,1.12
		c0.766,0.222,1.563,0.298,2.395,0.226c0.831-0.072,1.631-0.318,2.397-0.741c0.766-0.421,1.4-0.966,1.905-1.629
		c0.504-0.664,0.872-1.383,1.104-2.154c0.229-0.772,0.3-1.577,0.21-2.414c-0.09-0.839-0.342-1.631-0.753-2.378
		c-0.423-0.768-0.962-1.409-1.615-1.922c-0.654-0.513-1.369-0.877-2.145-1.094c-0.777-0.216-1.577-0.284-2.402-0.201
		C507.356,286.226,506.561,286.478,505.795,286.901z"/>
	<path fill="#FFFFFF" d="M508.115,303.835l1.256,2.642l10.805-5.134l-1.175-2.472l0.948-0.45l1.513,3.183l-1.457,0.776
		c-0.339,0.162-0.639,0.317-0.899,0.469c-0.26,0.15-0.56,0.308-0.898,0.468c1.344-0.029,2.563,0.312,3.662,1.021
		c1.098,0.709,1.932,1.636,2.503,2.776l-0.967,0.417c-0.364-0.711-0.826-1.337-1.385-1.874c-0.559-0.539-1.165-0.947-1.822-1.23
		c-0.658-0.283-1.345-0.427-2.062-0.432c-0.719-0.005-1.414,0.153-2.087,0.472l-6.229,2.96l1.256,2.642l-0.947,0.451l-2.963-6.232
		L508.115,303.835z"/>
	<path fill="#FFFFFF" d="M517.265,324.573l1.093,2.752l8.348-3.316c0.79-0.368,1.365-0.938,1.728-1.711
		c0.36-0.773,0.371-1.655,0.031-2.645c-0.294-0.74-0.697-1.404-1.212-1.99c-0.515-0.587-1.093-1.054-1.739-1.399
		c-0.646-0.346-1.334-0.549-2.064-0.605c-0.732-0.058-1.455,0.055-2.171,0.34l-6.408,2.545l1.08,2.719l-0.976,0.387l-2.548-6.412
		l0.976-0.387l1.08,2.719l11.118-4.417l-1.012-2.544l0.977-0.388l1.301,3.276l-1.506,0.679c-0.349,0.139-0.658,0.274-0.928,0.408
		s-0.578,0.271-0.926,0.409c1.299,0.022,2.482,0.412,3.552,1.171c1.067,0.759,1.865,1.801,2.392,3.125
		c0.498,1.255,0.531,2.385,0.099,3.391c-0.432,1.005-1.219,1.761-2.358,2.268l-8.444,3.354l1.08,2.719l-0.977,0.387l-2.561-6.448
		L517.265,324.573z"/>
	<path fill="#FFFFFF" d="M520.474,333.255l0.939,2.848l11.358-3.75l-0.94-2.85l0.997-0.329l1.27,3.846l-12.355,4.081l0.906,2.741
		l-0.998,0.329l-2.175-6.587L520.474,333.255z M538.222,330.08c0.262-0.086,0.518-0.066,0.771,0.062
		c0.252,0.127,0.423,0.321,0.508,0.583c0.087,0.261,0.063,0.512-0.066,0.753c-0.133,0.241-0.328,0.404-0.59,0.49
		c-0.26,0.086-0.509,0.069-0.745-0.049c-0.237-0.12-0.398-0.31-0.485-0.571c-0.086-0.261-0.072-0.516,0.045-0.765
		C537.772,330.333,537.959,330.167,538.222,330.08z"/>
	<path fill="#FFFFFF" d="M526.133,352.089l0.762,2.862l8.681-2.31c0.828-0.271,1.465-0.77,1.915-1.497
		c0.449-0.725,0.565-1.598,0.345-2.622c-0.205-0.771-0.528-1.477-0.969-2.12c-0.442-0.643-0.962-1.174-1.563-1.594
		c-0.601-0.42-1.26-0.702-1.979-0.845c-0.721-0.144-1.452-0.116-2.196,0.082l-6.663,1.773l0.753,2.827l-1.016,0.27l-1.774-6.667
		l1.016-0.27l0.751,2.826l11.56-3.077l-0.702-2.645l1.014-0.271l0.907,3.407l-1.576,0.497c-0.361,0.097-0.686,0.195-0.969,0.296
		c-0.283,0.102-0.606,0.201-0.969,0.298c1.289,0.174,2.418,0.702,3.39,1.581s1.641,2.008,2.007,3.385
		c0.347,1.304,0.246,2.43-0.3,3.378c-0.55,0.948-1.419,1.605-2.608,1.975l-8.783,2.337l0.753,2.826l-1.015,0.271l-1.784-6.704
		L526.133,352.089z"/>
	<path fill="#FFFFFF" d="M543.717,372.139l0.683,3.57l-1.031,0.197l-0.528-2.764l-13.751,2.629
		c-1.299,0.249-2.485,0.291-3.561,0.128c-1.071-0.165-2.018-0.493-2.837-0.985c-0.817-0.492-1.496-1.119-2.036-1.883
		c-0.539-0.762-0.912-1.619-1.121-2.572c-0.147-1.041-0.155-2.115-0.023-3.222c0.133-1.107,0.519-2.053,1.157-2.837l0.847,0.639
		c-0.556,0.689-0.895,1.51-1.018,2.458c-0.125,0.95-0.105,1.853,0.059,2.71c0.154,0.809,0.472,1.539,0.954,2.196
		c0.482,0.656,1.086,1.188,1.813,1.594c0.727,0.407,1.563,0.685,2.506,0.834c0.945,0.149,1.959,0.12,3.039-0.086l2.726-0.521
		c0.343-0.065,0.676-0.123,0.998-0.172c0.321-0.049,0.655-0.094,1.004-0.135c-1.188-0.23-2.271-0.836-3.247-1.816
		c-0.978-0.98-1.608-2.219-1.894-3.711c-0.193-1.004-0.187-1.977,0.015-2.916c0.202-0.941,0.566-1.797,1.095-2.57
		c0.525-0.772,1.184-1.425,1.972-1.957c0.79-0.531,1.688-0.893,2.696-1.086c0.98-0.188,1.942-0.182,2.885,0.019
		c0.941,0.2,1.8,0.564,2.575,1.088c0.773,0.523,1.435,1.186,1.981,1.981s0.917,1.696,1.108,2.7c0.142,0.734,0.17,1.453,0.088,2.154
		c-0.082,0.7-0.256,1.361-0.519,1.982c-0.264,0.622-0.603,1.184-1.016,1.68c-0.413,0.498-0.87,0.909-1.367,1.232
		c0.613-0.117,1.229-0.223,1.848-0.315C542.436,372.291,543.068,372.21,543.717,372.139z M534.428,360.893
		c-0.854,0.163-1.623,0.474-2.307,0.935s-1.247,1.02-1.691,1.674c-0.443,0.657-0.753,1.388-0.927,2.195
		c-0.175,0.809-0.181,1.641-0.017,2.496c0.164,0.857,0.477,1.635,0.939,2.334c0.462,0.697,1.021,1.275,1.679,1.734
		c0.656,0.457,1.388,0.774,2.194,0.95c0.805,0.176,1.634,0.183,2.488,0.02c0.854-0.162,1.622-0.476,2.307-0.937
		s1.252-1.025,1.706-1.696c0.453-0.669,0.767-1.415,0.939-2.234c0.172-0.819,0.177-1.658,0.013-2.516
		c-0.164-0.856-0.477-1.628-0.937-2.313c-0.459-0.688-1.022-1.252-1.69-1.695c-0.666-0.443-1.401-0.752-2.208-0.928
		C536.112,360.735,535.282,360.729,534.428,360.893z"/>
	<path fill="#FFFFFF" d="M539.115,390.918c0.998-0.059,1.951,0.076,2.859,0.399c0.907,0.323,1.711,0.795,2.409,1.419
		c0.7,0.624,1.268,1.367,1.706,2.231c0.438,0.863,0.687,1.807,0.745,2.83c0.043,0.749-0.022,1.468-0.194,2.152
		c-0.175,0.687-0.431,1.321-0.772,1.904c-0.343,0.583-0.753,1.096-1.228,1.536c-0.476,0.439-0.982,0.787-1.518,1.045
		c0.624-0.036,1.248-0.061,1.874-0.07c0.625-0.012,1.265-0.011,1.915,0.001l0.046,0.787l-12.99,0.747l0.159,2.771l-1.049,0.059
		l-0.213-3.705l1.76-0.102l2.059-0.119c-0.563-0.193-1.104-0.475-1.625-0.846c-0.524-0.37-0.987-0.826-1.395-1.365
		c-0.406-0.54-0.735-1.141-0.986-1.803c-0.25-0.661-0.397-1.379-0.442-2.152c-0.06-1.024,0.079-1.99,0.415-2.898
		s0.81-1.712,1.42-2.41c0.611-0.699,1.348-1.261,2.213-1.686C537.148,391.219,538.092,390.977,539.115,390.918z M539.156,391.967
		c-0.87,0.051-1.677,0.26-2.416,0.627c-0.741,0.369-1.376,0.85-1.903,1.443c-0.526,0.594-0.931,1.279-1.21,2.061
		c-0.279,0.779-0.395,1.605-0.344,2.48c0.05,0.873,0.259,1.688,0.627,2.442s0.849,1.403,1.441,1.945
		c0.593,0.543,1.278,0.954,2.056,1.233c0.778,0.282,1.603,0.396,2.474,0.347c0.87-0.051,1.676-0.259,2.416-0.628
		c0.74-0.367,1.381-0.855,1.919-1.461c0.54-0.608,0.949-1.308,1.228-2.1c0.279-0.793,0.394-1.627,0.345-2.498
		c-0.052-0.875-0.26-1.683-0.628-2.425c-0.366-0.743-0.854-1.379-1.456-1.907c-0.605-0.529-1.297-0.935-2.075-1.214
		C540.852,392.032,540.027,391.917,539.156,391.967z"/>
	<path fill="#FFFFFF" d="M533.929,421.35l-0.068,2.962l8.98,0.204c0.871-0.03,1.624-0.33,2.257-0.902
		c0.635-0.57,0.988-1.379,1.063-2.423c0.018-0.796-0.097-1.563-0.34-2.305c-0.245-0.741-0.597-1.396-1.056-1.967
		c-0.459-0.571-1.013-1.026-1.665-1.366c-0.65-0.336-1.361-0.515-2.131-0.533l-6.895-0.156l-0.065,2.925l-1.05-0.023l0.157-6.897
		l1.05,0.023l-0.067,2.924l11.959,0.271l0.063-2.736l1.05,0.023l-0.08,3.525l-1.651,0.035c-0.375-0.008-0.713-0.003-1.014,0.016
		c-0.3,0.018-0.639,0.023-1.014,0.016c1.189,0.525,2.127,1.348,2.814,2.464c0.687,1.116,1.014,2.386,0.981,3.81
		c-0.03,1.351-0.44,2.404-1.23,3.162c-0.791,0.755-1.809,1.146-3.057,1.167l-9.084-0.206l-0.066,2.924l-1.05-0.023l0.157-6.936
		L533.929,421.35z"/>
	<path fill="#FFFFFF" d="M532.929,444.205l2.051,0.212c-0.524-0.28-1.015-0.646-1.471-1.095s-0.841-0.973-1.156-1.571
		c-0.314-0.599-0.544-1.243-0.685-1.938c-0.143-0.692-0.175-1.425-0.094-2.196c0.105-1.02,0.396-1.951,0.874-2.793
		c0.477-0.844,1.072-1.561,1.788-2.152c0.713-0.592,1.531-1.029,2.452-1.311c0.923-0.281,1.893-0.37,2.912-0.264
		c0.993,0.102,1.921,0.388,2.777,0.854c0.856,0.465,1.572,1.061,2.152,1.786c0.578,0.727,1.014,1.549,1.309,2.474
		c0.294,0.922,0.389,1.893,0.282,2.912c-0.078,0.747-0.257,1.444-0.538,2.094c-0.28,0.648-0.635,1.235-1.067,1.756
		c-0.43,0.521-0.916,0.961-1.455,1.318c-0.54,0.359-1.096,0.623-1.666,0.791c0.647,0.041,1.282,0.088,1.904,0.14
		c0.621,0.052,1.256,0.111,1.899,0.178l12.915,1.337l0.278-2.686l1.044,0.108l-0.383,3.692l-26.931-2.787l-0.285,2.76l-1.044-0.109
		l0.383-3.693L532.929,444.205z M539.474,432.141c-0.867-0.091-1.696-0.014-2.486,0.232c-0.79,0.245-1.492,0.618-2.107,1.119
		c-0.615,0.502-1.124,1.115-1.524,1.842c-0.401,0.725-0.646,1.521-0.737,2.393c-0.089,0.87-0.014,1.707,0.228,2.512
		c0.244,0.804,0.614,1.521,1.112,2.151c0.499,0.628,1.109,1.145,1.831,1.546c0.725,0.401,1.52,0.647,2.388,0.737
		c0.867,0.09,1.695,0.011,2.485-0.232c0.789-0.246,1.499-0.625,2.128-1.136c0.63-0.516,1.146-1.141,1.548-1.878
		c0.402-0.736,0.649-1.541,0.739-2.411c0.09-0.871,0.013-1.701-0.23-2.493c-0.244-0.792-0.622-1.497-1.134-2.116
		c-0.513-0.618-1.13-1.129-1.854-1.529C541.137,432.475,540.341,432.23,539.474,432.141z"/>
	<path fill="#FFFFFF" d="M529.504,460.936l-0.621,2.934l11.705,2.47l0.619-2.936l1.027,0.218l-0.835,3.962l-12.732-2.684
		l-0.596,2.824l-1.026-0.217l1.431-6.788L529.504,460.936z M546.442,467.113c0.269,0.057,0.48,0.203,0.636,0.44
		c0.154,0.236,0.203,0.489,0.146,0.76c-0.057,0.268-0.202,0.475-0.436,0.616c-0.236,0.142-0.487,0.186-0.757,0.127
		c-0.269-0.056-0.476-0.195-0.619-0.418c-0.146-0.222-0.19-0.467-0.133-0.736s0.198-0.481,0.422-0.639
		C545.927,467.107,546.172,467.057,546.442,467.113z"/>
	<path fill="#FFFFFF" d="M524.924,480.063l-0.782,2.857l8.664,2.371c0.852,0.182,1.655,0.072,2.408-0.329
		c0.754-0.399,1.292-1.098,1.617-2.093c0.209-0.769,0.286-1.542,0.229-2.32c-0.059-0.777-0.241-1.498-0.55-2.164
		c-0.307-0.663-0.734-1.24-1.284-1.727c-0.55-0.485-1.196-0.83-1.938-1.031l-6.65-1.821l-0.772,2.82l-1.013-0.277l1.821-6.655
		l1.012,0.277l-0.771,2.822l11.538,3.157l0.723-2.642l1.014,0.278l-0.932,3.4l-1.61-0.364c-0.361-0.098-0.69-0.176-0.988-0.231
		c-0.295-0.055-0.623-0.131-0.985-0.23c1.025,0.8,1.737,1.822,2.134,3.073c0.396,1.247,0.407,2.56,0.03,3.935
		c-0.356,1.302-1.009,2.224-1.959,2.769c-0.95,0.542-2.033,0.674-3.248,0.395l-8.764-2.398l-0.772,2.82l-1.013-0.278l1.831-6.691
		L524.924,480.063z"/>
	<path fill="#FFFFFF" d="M538.091,510.487l-0.385,0.978l-8.514-3.353l-1.664,4.222l-0.977-0.385l1.664-4.223l-11.131-4.382
		l-1.155,2.931l-0.977-0.386l1.539-3.906l12.108,4.768l1.208-3.071l0.977,0.385l-1.208,3.07L538.091,510.487z"/>
	<path fill="#FFFFFF" d="M510.196,519.21l-1.256,2.682l8.135,3.811c0.808,0.324,1.618,0.353,2.427,0.087
		c0.812-0.268,1.461-0.863,1.95-1.789c0.339-0.722,0.544-1.471,0.62-2.246c0.075-0.777,0.017-1.519-0.172-2.226
		c-0.191-0.708-0.515-1.348-0.974-1.921c-0.459-0.572-1.039-1.021-1.735-1.348l-6.244-2.924l-1.241,2.647l-0.95-0.444l2.926-6.248
		l0.951,0.444l-1.241,2.649l23.569,11.038l1.161-2.479l0.951,0.445l-1.607,3.43l-14.534-6.808l-1.48-0.817
		c0.863,0.984,1.388,2.12,1.572,3.407c0.184,1.287-0.027,2.575-0.631,3.865c-0.572,1.223-1.373,2.021-2.402,2.396
		c-1.028,0.374-2.117,0.319-3.268-0.163l-8.229-3.854l-1.241,2.649l-0.95-0.446l2.941-6.283L510.196,519.21z"/>
	<path fill="#FFFFFF" d="M506.766,543.514c0.27-2.171,0.549-4.334,0.841-6.492c0.29-2.158,0.571-4.321,0.842-6.491
		c-1.215-0.137-2.369,0.07-3.463,0.619c-1.096,0.546-1.966,1.397-2.613,2.554c-0.415,0.742-0.668,1.504-0.761,2.282
		c-0.092,0.779-0.05,1.548,0.126,2.306c-0.156,0.026-0.315,0.053-0.473,0.078c-0.157,0.026-0.322,0.063-0.492,0.112
		c-0.228-0.873-0.29-1.76-0.187-2.662c0.104-0.902,0.394-1.777,0.87-2.628c0.503-0.896,1.138-1.635,1.909-2.219
		c0.771-0.586,1.6-1.004,2.484-1.254c0.885-0.249,1.809-0.326,2.772-0.229c0.963,0.093,1.893,0.393,2.786,0.893
		c0.873,0.489,1.608,1.122,2.204,1.901c0.596,0.777,1.019,1.607,1.269,2.492c0.249,0.886,0.325,1.81,0.23,2.773
		c-0.095,0.963-0.394,1.891-0.894,2.786c-0.733,1.31-1.781,2.233-3.144,2.774C509.712,543.649,508.274,543.785,506.766,543.514z
		 M513.302,539.821c0.5-0.894,0.765-1.82,0.792-2.778c0.029-0.958-0.132-1.858-0.479-2.697c-0.35-0.84-0.877-1.586-1.584-2.241
		c-0.708-0.651-1.543-1.105-2.502-1.356c-0.261,2.003-0.52,3.985-0.774,5.949c-0.254,1.964-0.512,3.946-0.771,5.949
		c1.075,0.057,2.092-0.154,3.053-0.633C511.997,541.534,512.752,540.805,513.302,539.821z"/>
	<path fill="#FFFFFF" d="M497.24,554.239c0.81,0.586,1.464,1.292,1.962,2.117c0.498,0.823,0.82,1.699,0.968,2.625
		c0.148,0.924,0.118,1.859-0.089,2.806s-0.611,1.835-1.213,2.665c-0.44,0.606-0.945,1.121-1.514,1.543s-1.168,0.749-1.802,0.985
		c-0.635,0.235-1.275,0.372-1.922,0.412c-0.647,0.042-1.26-0.009-1.836-0.149c0.505,0.367,1.004,0.744,1.495,1.132
		c0.491,0.386,0.986,0.79,1.483,1.214l-0.463,0.636l-10.534-7.638l-1.63,2.247l-0.85-0.616l2.179-3.005l1.427,1.033l1.672,1.212
		c-0.314-0.506-0.557-1.067-0.726-1.685c-0.17-0.617-0.242-1.263-0.217-1.938c0.028-0.677,0.152-1.35,0.378-2.021
		c0.225-0.67,0.564-1.321,1.018-1.948c0.602-0.829,1.32-1.49,2.155-1.981s1.709-0.814,2.625-0.968
		c0.914-0.155,1.842-0.124,2.78,0.094C495.525,553.229,496.411,553.637,497.24,554.239z M496.608,555.078
		c-0.707-0.513-1.462-0.858-2.269-1.043s-1.603-0.212-2.387-0.086c-0.783,0.127-1.529,0.402-2.24,0.829
		c-0.71,0.428-1.32,0.996-1.835,1.703c-0.513,0.71-0.866,1.474-1.06,2.29c-0.192,0.816-0.23,1.623-0.115,2.419
		c0.117,0.795,0.389,1.547,0.813,2.256s0.99,1.32,1.696,1.833c0.705,0.512,1.462,0.859,2.269,1.043
		c0.806,0.183,1.61,0.209,2.412,0.08c0.801-0.129,1.56-0.412,2.277-0.849c0.718-0.438,1.333-1.011,1.847-1.718
		c0.516-0.709,0.863-1.467,1.048-2.274c0.186-0.808,0.211-1.608,0.077-2.4s-0.412-1.541-0.838-2.251
		C497.881,556.2,497.314,555.589,496.608,555.078z"/>
	<path fill="#FFFFFF" d="M480.631,566.568l-1.455,1.766l9.235,7.604l1.453-1.766l0.811,0.667l-1.453,1.766l4.139,3.409
		c1.062,0.874,1.885,1.801,2.469,2.785c0.583,0.982,0.943,1.959,1.083,2.932c0.139,0.971,0.075,1.924-0.191,2.855
		c-0.263,0.931-0.702,1.808-1.315,2.632l-0.811-0.668c0.54-0.656,0.912-1.394,1.118-2.212c0.205-0.818,0.24-1.655,0.107-2.512
		c-0.136-0.855-0.457-1.711-0.964-2.564c-0.507-0.856-1.212-1.655-2.117-2.399l-4.186-3.445l-3.027,3.675l-0.811-0.667l3.027-3.676
		l-9.234-7.604l-2.264,2.748l-0.812-0.667l4.387-5.327L480.631,566.568z"/>
	<path fill="#FFFFFF" d="M488.032,592.102l-0.702,0.78l-6.797-6.125l-3.037,3.369l-0.779-0.701l3.037-3.371l-8.888-8.01
		l-2.108,2.342l-0.78-0.704l2.813-3.118l9.665,8.71l2.211-2.452l0.778,0.703l-2.209,2.452L488.032,592.102z"/>
	<path fill="#FFFFFF" d="M462.43,598.748c0.855-2.014,1.72-4.017,2.594-6.012c0.873-1.994,1.736-3.997,2.594-6.01
		c-1.13-0.464-2.297-0.583-3.5-0.356c-1.203,0.225-2.273,0.805-3.214,1.738c-0.604,0.599-1.057,1.26-1.359,1.983
		c-0.304,0.723-0.474,1.475-0.513,2.254c-0.158-0.02-0.317-0.039-0.477-0.057c-0.159-0.019-0.326-0.028-0.504-0.028
		c0.021-0.902,0.206-1.771,0.553-2.61c0.348-0.838,0.867-1.601,1.56-2.287c0.728-0.723,1.543-1.259,2.445-1.609
		c0.903-0.352,1.814-0.523,2.733-0.52c0.919,0.002,1.829,0.184,2.729,0.54c0.899,0.355,1.71,0.898,2.434,1.626
		c0.704,0.709,1.236,1.521,1.595,2.433c0.36,0.911,0.537,1.826,0.534,2.745c-0.004,0.919-0.184,1.828-0.54,2.729
		c-0.358,0.9-0.898,1.712-1.626,2.434c-1.064,1.057-2.326,1.658-3.786,1.803C465.223,599.688,463.806,599.423,462.43,598.748z
		 M469.728,596.995c0.729-0.722,1.236-1.539,1.527-2.452c0.291-0.914,0.384-1.824,0.28-2.728c-0.105-0.903-0.407-1.766-0.906-2.588
		c-0.502-0.823-1.178-1.488-2.033-1.993c-0.802,1.853-1.596,3.688-2.379,5.507c-0.785,1.818-1.578,3.653-2.38,5.507
		c1.018,0.352,2.055,0.428,3.109,0.231C468.002,598.283,468.93,597.789,469.728,596.995z"/>
	<path fill="#FFFFFF" d="M454.746,594.418l-2.192,1.938l7.926,8.962l2.05-1.813l0.695,0.786l-2.641,2.335l-1.15-1.187
		c-0.247-0.28-0.48-0.524-0.698-0.733c-0.218-0.208-0.45-0.453-0.699-0.732c0.4,1.28,0.41,2.548,0.033,3.801
		c-0.378,1.251-1.036,2.309-1.975,3.173l-0.668-0.813c0.583-0.549,1.056-1.166,1.417-1.851c0.361-0.686,0.588-1.382,0.678-2.091
		c0.091-0.711,0.038-1.41-0.154-2.101c-0.195-0.692-0.539-1.317-1.032-1.874l-4.566-5.166l-2.192,1.938l-0.695-0.787l5.169-4.57
		L454.746,594.418z"/>
	<path fill="#FFFFFF" d="M437.354,608.953l-2.342,1.813l5.499,7.103c0.573,0.657,1.279,1.052,2.122,1.184
		c0.844,0.133,1.693-0.1,2.551-0.702c0.631-0.487,1.156-1.06,1.578-1.716c0.42-0.656,0.707-1.342,0.862-2.059
		c0.152-0.716,0.156-1.434,0.009-2.152c-0.146-0.719-0.457-1.383-0.928-1.99l-4.222-5.452l-2.313,1.79l-0.644-0.829l5.455-4.226
		l0.643,0.831l-2.312,1.791l7.324,9.458l2.164-1.677l0.643,0.83l-2.787,2.158l-1.069-1.259c-0.229-0.297-0.446-0.556-0.649-0.776
		c-0.204-0.223-0.42-0.482-0.649-0.779c0.339,1.255,0.293,2.501-0.142,3.738c-0.433,1.237-1.213,2.292-2.339,3.164
		c-1.068,0.827-2.145,1.172-3.231,1.035c-1.084-0.138-2.029-0.683-2.831-1.637l-5.564-7.186l-2.313,1.792l-0.643-0.831l5.484-4.247
		L437.354,608.953z"/>
	<path fill="#FFFFFF" d="M433.307,619.484c0.551,0.833,0.919,1.729,1.102,2.687c0.185,0.958,0.183,1.896-0.006,2.814
		c-0.187,0.917-0.544,1.782-1.07,2.596c-0.526,0.812-1.217,1.501-2.073,2.067c-0.854,0.563-1.764,0.934-2.729,1.105
		c-0.964,0.174-1.904,0.166-2.822-0.02c-0.918-0.189-1.786-0.551-2.606-1.087c-0.819-0.539-1.506-1.224-2.057-2.058
		c-0.565-0.854-0.931-1.76-1.099-2.714c-0.165-0.954-0.151-1.885,0.043-2.792s0.56-1.772,1.098-2.591
		c0.536-0.818,1.233-1.513,2.088-2.077c0.855-0.565,1.76-0.932,2.713-1.098c0.955-0.166,1.888-0.162,2.798,0.018
		c0.912,0.176,1.769,0.53,2.57,1.064C432.058,617.934,432.74,618.628,433.307,619.484z M432.43,620.063
		c-0.482-0.729-1.069-1.323-1.761-1.779c-0.692-0.457-1.431-0.765-2.211-0.922c-0.781-0.156-1.579-0.162-2.396-0.012
		c-0.817,0.151-1.592,0.468-2.325,0.952c-0.709,0.47-1.3,1.056-1.77,1.755c-0.469,0.7-0.784,1.44-0.945,2.22
		c-0.159,0.78-0.172,1.582-0.032,2.405c0.137,0.823,0.447,1.6,0.93,2.328c0.482,0.73,1.075,1.319,1.778,1.77
		s1.447,0.758,2.236,0.927c0.787,0.168,1.595,0.175,2.423,0.018c0.828-0.159,1.599-0.473,2.308-0.942
		c0.733-0.483,1.328-1.072,1.787-1.766c0.459-0.692,0.765-1.435,0.919-2.225c0.152-0.792,0.155-1.596,0.008-2.409
		C433.229,621.564,432.914,620.792,432.43,620.063z"/>
	<path fill="#FFFFFF" d="M418.727,629.008c0.491,0.869,0.795,1.788,0.912,2.757c0.116,0.97,0.05,1.903-0.202,2.808
		c-0.25,0.901-0.667,1.74-1.25,2.515c-0.581,0.773-1.318,1.412-2.212,1.917c-0.892,0.504-1.825,0.809-2.799,0.914
		c-0.975,0.106-1.913,0.033-2.815-0.219c-0.903-0.251-1.744-0.672-2.525-1.266c-0.779-0.592-1.415-1.323-1.906-2.195
		c-0.506-0.893-0.806-1.819-0.904-2.783c-0.102-0.963-0.021-1.891,0.234-2.783c0.258-0.892,0.683-1.727,1.274-2.506
		c0.594-0.781,1.337-1.423,2.229-1.927c0.894-0.506,1.821-0.808,2.783-0.906c0.964-0.1,1.894-0.029,2.79,0.212
		c0.897,0.24,1.727,0.652,2.489,1.241C417.588,627.374,418.221,628.115,418.727,629.008z M417.812,629.523
		c-0.431-0.762-0.976-1.395-1.633-1.897c-0.659-0.504-1.374-0.86-2.141-1.074c-0.769-0.211-1.565-0.271-2.391-0.178
		c-0.826,0.093-1.621,0.356-2.386,0.788c-0.74,0.419-1.371,0.961-1.888,1.627c-0.517,0.665-0.883,1.383-1.098,2.149
		c-0.214,0.766-0.28,1.564-0.201,2.396c0.081,0.83,0.337,1.626,0.767,2.389c0.432,0.761,0.98,1.391,1.651,1.889
		c0.669,0.497,1.391,0.856,2.166,1.081c0.773,0.222,1.579,0.283,2.415,0.185c0.837-0.101,1.626-0.358,2.369-0.779
		c0.764-0.431,1.398-0.976,1.903-1.636c0.507-0.659,0.863-1.378,1.072-2.155c0.208-0.778,0.267-1.58,0.175-2.404
		C418.503,631.078,418.242,630.286,417.812,629.523z"/>
	<path fill="#FFFFFF" d="M391.543,636.534l-2.682,1.261l3.819,8.129c0.415,0.766,1.02,1.307,1.813,1.618
		c0.795,0.314,1.676,0.271,2.643-0.129c0.722-0.339,1.359-0.781,1.914-1.33c0.554-0.548,0.983-1.155,1.29-1.82
		c0.305-0.667,0.466-1.367,0.479-2.1c0.012-0.734-0.146-1.449-0.473-2.146l-2.932-6.241l-2.647,1.244l-0.445-0.95l6.243-2.935
		l0.447,0.951l-2.647,1.243l5.086,10.826l2.479-1.163l0.446,0.95l-3.191,1.498l-0.768-1.46c-0.16-0.341-0.314-0.642-0.466-0.9
		c-0.149-0.263-0.305-0.562-0.465-0.901c0.059,1.299-0.258,2.505-0.952,3.616c-0.692,1.114-1.684,1.973-2.974,2.578
		c-1.222,0.575-2.348,0.677-3.379,0.306c-1.028-0.37-1.831-1.107-2.406-2.214l-3.864-8.224l-2.647,1.242l-0.445-0.95l6.278-2.951
		L391.543,636.534z"/>
	<path fill="#FFFFFF" d="M380.427,643.667c0.011-1.407,0.016-2.797,0.015-4.171c-0.002-1.376,0.002-2.765,0.013-4.172l0.975-0.393
		c0.023,1.393,0.06,2.765,0.107,4.121c0.05,1.356,0.085,2.729,0.108,4.122L380.427,643.667z"/>
	<path fill="#FFFFFF" d="M365.891,646.664l-2.753,0.865l7.24,23.039l2.754-0.866l0.315,1.002l-6.727,2.114l-0.313-1.001l2.97-0.935
		l-7.241-23.038l-2.969,0.933l-0.315-1.001l6.726-2.113L365.891,646.664z"/>
	<path fill="#FFFFFF" d="M346.208,652.263l-2.672,0.604l5.727,25.387l2.633-0.594l0.232,1.024l-3.658,0.824l-5.958-26.411
		l-3.036,0.686l-0.23-1.025l6.731-1.518L346.208,652.263z"/>
	<path fill="#FFFFFF" d="M338.127,660.358c0.156,0.987,0.119,1.956-0.11,2.903c-0.23,0.947-0.622,1.8-1.172,2.558
		c-0.551,0.757-1.235,1.396-2.052,1.917c-0.816,0.521-1.73,0.861-2.742,1.021c-1.014,0.16-1.994,0.119-2.944-0.124
		c-0.949-0.242-1.802-0.64-2.56-1.189c-0.758-0.553-1.397-1.242-1.922-2.07c-0.522-0.829-0.862-1.737-1.018-2.726
		c-0.159-1.013-0.118-1.986,0.126-2.923c0.246-0.938,0.645-1.78,1.197-2.524c0.553-0.745,1.244-1.379,2.072-1.903
		c0.829-0.521,1.75-0.862,2.762-1.023c1.014-0.159,1.987-0.117,2.925,0.127c0.937,0.245,1.782,0.637,2.538,1.176
		s1.389,1.217,1.897,2.035S337.967,659.346,338.127,660.358z M337.09,660.521c-0.136-0.864-0.425-1.647-0.865-2.35
		c-0.44-0.703-0.984-1.287-1.629-1.755s-1.37-0.803-2.176-1.005c-0.806-0.201-1.643-0.234-2.509-0.099
		c-0.842,0.135-1.622,0.421-2.34,0.863c-0.716,0.442-1.311,0.985-1.78,1.629c-0.469,0.645-0.813,1.367-1.027,2.174
		c-0.216,0.806-0.256,1.642-0.119,2.506c0.137,0.865,0.431,1.646,0.884,2.347c0.454,0.701,1.003,1.291,1.65,1.771
		s1.38,0.82,2.197,1.02c0.819,0.199,1.649,0.234,2.491,0.102c0.867-0.137,1.652-0.426,2.358-0.866
		c0.704-0.44,1.29-0.988,1.758-1.644c0.468-0.656,0.804-1.387,1.007-2.19C337.193,662.22,337.227,661.386,337.09,660.521z"/>
	<path fill="#FFFFFF" d="M321.67,670.157l-6.385,0.585l-0.097-1.045l2.576-0.236c-1.188-1.869-2.375-3.743-3.565-5.623
		c-1.189-1.882-2.354-3.771-3.493-5.667c-0.707,1.94-1.476,3.963-2.305,6.066c-0.831,2.104-1.68,4.208-2.548,6.315l2.166-0.2
		l0.096,1.048l-5.826,0.533l-0.096-1.045l2.614-0.241c0.956-2.44,1.909-4.85,2.858-7.229c0.949-2.378,1.901-4.786,2.857-7.228
		c1.41,2.225,2.798,4.419,4.162,6.585c1.367,2.165,2.741,4.361,4.125,6.589l2.763-0.254L321.67,670.157z"/>
	<path fill="#FFFFFF" d="M285.266,667.549c2.013-0.854,4.025-1.697,6.039-2.526c2.013-0.831,4.025-1.672,6.039-2.526
		c-0.491-1.117-1.249-2.014-2.272-2.686c-1.021-0.673-2.195-1-3.521-0.979c-0.849,0.013-1.636,0.174-2.355,0.484
		c-0.72,0.31-1.364,0.732-1.931,1.266c-0.102-0.124-0.203-0.246-0.306-0.369c-0.102-0.125-0.216-0.248-0.343-0.372
		c0.642-0.634,1.377-1.131,2.21-1.494c0.832-0.361,1.735-0.55,2.711-0.565c1.026-0.015,1.983,0.165,2.877,0.538
		c0.893,0.376,1.669,0.884,2.328,1.524c0.66,0.64,1.189,1.4,1.59,2.282c0.401,0.882,0.607,1.834,0.624,2.86
		c0.016,0.999-0.165,1.951-0.54,2.856c-0.374,0.908-0.881,1.689-1.521,2.35c-0.641,0.659-1.401,1.189-2.284,1.589
		c-0.881,0.401-1.834,0.609-2.858,0.623c-1.501,0.022-2.826-0.422-3.977-1.328C286.623,670.166,285.789,668.991,285.266,667.549z
		 M291.735,671.354c1.024-0.014,1.958-0.251,2.802-0.707c0.843-0.456,1.541-1.044,2.094-1.768c0.551-0.724,0.933-1.555,1.145-2.494
		c0.211-0.938,0.185-1.888-0.08-2.845c-1.863,0.778-3.708,1.548-5.534,2.313c-1.827,0.765-3.673,1.535-5.536,2.312
		c0.489,0.962,1.182,1.735,2.078,2.327S290.609,671.371,291.735,671.354z"/>
	<path fill="#FFFFFF" d="M270.746,649.202l-3.094-0.336c-0.819,1.287-1.651,2.581-2.496,3.878c-0.844,1.298-1.675,2.579-2.491,3.842
		c0.881,2.303,1.745,4.595,2.591,6.883c0.846,2.285,1.698,4.578,2.554,6.878l2.758,0.299l-0.113,1.043l-6.449-0.698l0.113-1.045
		l2.497,0.271c-0.775-2.114-1.56-4.218-2.352-6.308c-0.791-2.093-1.55-4.192-2.277-6.302c-1.128,1.833-2.313,3.702-3.55,5.612
		c-1.239,1.907-2.475,3.811-3.712,5.707l2.125,0.231l-0.114,1.043l-5.853-0.635l0.114-1.044l2.572,0.279
		c4.323-6.697,8.62-13.385,12.891-20.064l-2.573-0.279l0.113-1.043l6.859,0.744L270.746,649.202z"/>
	<path fill="#FFFFFF" d="M248.944,662.091c-0.187,0.98-0.549,1.88-1.085,2.693c-0.537,0.815-1.192,1.486-1.966,2.013
		c-0.775,0.526-1.635,0.896-2.579,1.112c-0.944,0.215-1.92,0.227-2.927,0.036c-1.007-0.192-1.917-0.563-2.728-1.111
		c-0.812-0.548-1.481-1.211-2.008-1.984c-0.527-0.774-0.896-1.641-1.109-2.598c-0.213-0.956-0.225-1.926-0.038-2.907
		c0.191-1.009,0.56-1.911,1.106-2.71s1.206-1.457,1.978-1.972c0.773-0.515,1.638-0.879,2.594-1.092
		c0.957-0.211,1.938-0.222,2.945-0.031c1.008,0.192,1.911,0.562,2.71,1.107c0.799,0.547,1.464,1.201,1.994,1.963
		s0.895,1.614,1.098,2.557C249.13,660.107,249.135,661.084,248.944,662.091z M247.912,661.895c0.164-0.86,0.157-1.694-0.021-2.504
		c-0.178-0.811-0.491-1.546-0.94-2.202c-0.45-0.659-1.019-1.22-1.71-1.681c-0.691-0.463-1.467-0.774-2.329-0.938
		c-0.837-0.16-1.668-0.152-2.493,0.021c-0.824,0.174-1.565,0.485-2.226,0.932c-0.659,0.446-1.226,1.013-1.701,1.699
		c-0.476,0.686-0.795,1.458-0.958,2.318c-0.164,0.859-0.15,1.694,0.04,2.507c0.19,0.813,0.508,1.555,0.955,2.226
		c0.447,0.669,1.022,1.237,1.725,1.701c0.702,0.464,1.473,0.776,2.31,0.936c0.863,0.165,1.7,0.158,2.512-0.019
		c0.812-0.176,1.549-0.494,2.21-0.954c0.662-0.46,1.225-1.032,1.687-1.72C247.436,663.526,247.749,662.753,247.912,661.895z"/>
	<path fill="#FFFFFF" d="M230.067,665.563l-3.768-1.012l2.602-9.679c0.179-0.856,0.065-1.66-0.337-2.414
		c-0.404-0.754-1.104-1.29-2.102-1.609c-0.77-0.208-1.542-0.28-2.32-0.219c-0.777,0.062-1.497,0.247-2.161,0.559
		c-0.663,0.309-1.236,0.74-1.72,1.292c-0.483,0.553-0.826,1.201-1.025,1.944l-1.789,6.659l2.789,0.75l-0.272,1.014l-3.803-1.022
		l3.406-12.675l-2.679-0.721l0.243-0.905l3.476,0.935l-0.443,1.939l-0.401,1.639c0.792-1.03,1.816-1.744,3.071-2.145
		c1.255-0.4,2.557-0.419,3.904-0.057c1.3,0.348,2.228,0.997,2.785,1.947c0.557,0.949,0.699,2.033,0.423,3.25l-2.358,8.776
		l2.752,0.739L230.067,665.563z"/>
	<path fill="#FFFFFF" d="M195.489,659.918c-0.098,0.257-0.276,0.441-0.535,0.559c-0.259,0.115-0.516,0.123-0.773,0.025
		c-0.257-0.1-0.437-0.276-0.54-0.53c-0.104-0.253-0.105-0.508-0.008-0.766c0.099-0.256,0.27-0.439,0.511-0.547
		c0.242-0.108,0.492-0.111,0.749-0.015c0.257,0.1,0.444,0.271,0.564,0.519C195.577,659.41,195.587,659.661,195.489,659.918z
		 M204.26,644.164l-2.801-1.073l-4.283,11.169l2.802,1.074l-0.376,0.98l-3.782-1.449l4.659-12.149l-2.696-1.034l0.375-0.98
		l6.478,2.483L204.26,644.164z"/>
	<path fill="#FFFFFF" d="M186.094,636.631l-2.698-1.222l-3.705,8.184c-0.313,0.813-0.331,1.622-0.054,2.43
		c0.276,0.808,0.881,1.449,1.813,1.926c0.726,0.329,1.477,0.524,2.254,0.592c0.778,0.065,1.518-0.003,2.223-0.203
		c0.706-0.198,1.342-0.53,1.908-0.996c0.566-0.467,1.008-1.052,1.325-1.752l2.844-6.282l-2.666-1.207l0.433-0.956l6.286,2.846
		l-0.433,0.957l-2.665-1.208l-4.932,10.898l2.494,1.13l-0.433,0.955l-3.211-1.453l0.612-1.534c0.154-0.341,0.282-0.654,0.383-0.938
		c0.101-0.284,0.229-0.596,0.383-0.937c-0.949,0.886-2.072,1.427-3.369,1.623c-1.297,0.195-2.594-0.001-3.892-0.589
		c-1.229-0.556-2.038-1.346-2.426-2.37c-0.387-1.024-0.346-2.113,0.122-3.271l3.747-8.276l-2.665-1.207l0.433-0.957l6.32,2.862
		L186.094,636.631z"/>
	<path fill="#FFFFFF" d="M153.979,644.857l-0.904-0.532l4.645-7.885l-3.91-2.303l0.532-0.904l3.91,2.303l6.072-10.307l-2.713-1.599
		l0.533-0.905l3.619,2.132l-6.605,11.213l2.843,1.675l-0.533,0.903l-2.843-1.674L153.979,644.857z"/>
	<path fill="#FFFFFF" d="M149.742,615.951l-2.454-1.66l-5.034,7.439c-0.446,0.747-0.601,1.544-0.463,2.386
		c0.136,0.842,0.624,1.578,1.461,2.205c0.661,0.445,1.367,0.767,2.122,0.962c0.756,0.196,1.497,0.256,2.227,0.179
		c0.728-0.078,1.41-0.297,2.047-0.661c0.637-0.364,1.172-0.864,1.604-1.504l3.865-5.71l-2.422-1.638l0.587-0.871l5.715,3.868
		l-0.588,0.869l-2.422-1.64l-14.586,21.554l2.267,1.533l-0.588,0.87l-3.137-2.122l8.995-13.293l1.039-1.335
		c-1.107,0.701-2.311,1.041-3.61,1.021c-1.3-0.02-2.541-0.429-3.721-1.228c-1.118-0.757-1.781-1.672-1.99-2.746
		c-0.208-1.075,0.016-2.143,0.672-3.203l5.092-7.525l-2.421-1.638l0.588-0.87l5.746,3.888L149.742,615.951z"/>
	<path fill="#FFFFFF" d="M126.262,608.759c2.102,0.605,4.196,1.221,6.281,1.846c2.085,0.625,4.179,1.238,6.28,1.844
		c0.324-1.176,0.3-2.35-0.07-3.517c-0.37-1.166-1.075-2.159-2.116-2.979c-0.667-0.525-1.38-0.896-2.135-1.106
		c-0.755-0.214-1.52-0.293-2.297-0.236c-0.001-0.16-0.002-0.32-0.003-0.48c0-0.159-0.012-0.328-0.033-0.502
		c0.897-0.089,1.783-0.013,2.657,0.23c0.875,0.243,1.695,0.667,2.461,1.271c0.805,0.633,1.437,1.378,1.895,2.231
		c0.458,0.854,0.74,1.737,0.848,2.649c0.109,0.913,0.041,1.838-0.204,2.774c-0.244,0.937-0.685,1.807-1.318,2.613
		c-0.619,0.787-1.359,1.413-2.221,1.879c-0.861,0.468-1.748,0.755-2.661,0.863c-0.913,0.108-1.838,0.041-2.775-0.205
		c-0.937-0.243-1.808-0.683-2.613-1.317c-1.179-0.928-1.928-2.108-2.25-3.539C125.667,611.648,125.759,610.208,126.262,608.759z
		 M128.887,615.791c0.805,0.635,1.679,1.041,2.621,1.218c0.942,0.177,1.855,0.16,2.74-0.053c0.884-0.215,1.704-0.62,2.46-1.215
		c0.756-0.596,1.333-1.35,1.731-2.258c-1.937-0.572-3.855-1.136-5.755-1.694c-1.899-0.558-3.818-1.122-5.754-1.693
		c-0.225,1.053-0.175,2.093,0.147,3.116C127.399,614.235,128.001,615.096,128.887,615.791z"/>
	<path fill="#FFFFFF" d="M105.764,589.706c2.022,0.834,4.037,1.674,6.041,2.524c2.005,0.849,4.019,1.688,6.041,2.521
		c0.451-1.135,0.556-2.304,0.316-3.502c-0.24-1.201-0.832-2.265-1.777-3.194c-0.606-0.596-1.273-1.042-2-1.336
		c-0.727-0.295-1.479-0.456-2.258-0.485c0.017-0.158,0.033-0.317,0.049-0.478c0.017-0.158,0.025-0.326,0.023-0.505
		c0.902,0.012,1.774,0.185,2.616,0.522c0.843,0.339,1.611,0.849,2.307,1.532c0.731,0.72,1.276,1.527,1.637,2.427
		c0.361,0.898,0.546,1.807,0.553,2.726c0.008,0.92-0.161,1.832-0.507,2.735c-0.345,0.904-0.878,1.722-1.597,2.453
		c-0.7,0.713-1.505,1.255-2.413,1.625s-1.82,0.558-2.74,0.566c-0.918,0.007-1.83-0.161-2.735-0.508
		c-0.903-0.347-1.722-0.878-2.453-1.598c-1.07-1.052-1.685-2.306-1.848-3.763C104.856,592.513,105.105,591.093,105.764,589.706z
		 M107.602,596.983c0.731,0.72,1.556,1.22,2.472,1.499c0.917,0.28,1.827,0.362,2.729,0.246c0.903-0.114,1.762-0.428,2.579-0.938
		c0.816-0.509,1.473-1.193,1.969-2.054c-1.863-0.78-3.708-1.552-5.536-2.314c-1.826-0.764-3.672-1.533-5.534-2.313
		c-0.339,1.021-0.405,2.06-0.195,3.111C106.295,595.274,106.8,596.195,107.602,596.983z"/>
	<path fill="#FFFFFF" d="M100.154,590.688l-4.214-4.833l0.792-0.69l1.7,1.95c0.818-2.056,1.642-4.117,2.47-6.182
		c0.828-2.067,1.677-4.117,2.547-6.151c-1.987,0.564-4.076,1.125-6.268,1.684c-2.19,0.559-4.395,1.103-6.611,1.632L92,579.738
		l-0.792,0.69l-3.844-4.408l0.792-0.691l1.725,1.979c2.54-0.655,5.05-1.293,7.533-1.916c2.484-0.622,4.995-1.262,7.534-1.915
		c-0.979,2.443-1.945,4.854-2.901,7.229c-0.956,2.375-1.931,4.777-2.925,7.202l1.823,2.093L100.154,590.688z"/>
	<path fill="#FFFFFF" d="M80.965,559.662c1.871,1.132,3.732,2.272,5.583,3.418c1.852,1.146,3.713,2.286,5.583,3.417
		c0.619-1.053,0.902-2.191,0.848-3.414c-0.053-1.222-0.475-2.364-1.266-3.428c-0.508-0.681-1.099-1.223-1.772-1.626
		c-0.673-0.402-1.392-0.676-2.157-0.824c0.041-0.155,0.081-0.311,0.122-0.465s0.074-0.32,0.099-0.496
		c0.89,0.149,1.725,0.454,2.506,0.918c0.781,0.462,1.463,1.084,2.045,1.867c0.612,0.821,1.028,1.704,1.247,2.646
		c0.22,0.944,0.263,1.871,0.13,2.78c-0.133,0.908-0.44,1.785-0.921,2.627c-0.479,0.839-1.131,1.565-1.954,2.178
		c-0.801,0.598-1.679,1.009-2.633,1.235c-0.953,0.227-1.884,0.274-2.794,0.141c-0.909-0.133-1.784-0.439-2.625-0.92
		c-0.84-0.48-1.567-1.133-2.179-1.954c-0.896-1.202-1.312-2.538-1.25-4.001C79.638,562.297,80.101,560.931,80.965,559.662z
		 M81.667,567.137c0.612,0.822,1.35,1.441,2.213,1.856c0.863,0.417,1.75,0.639,2.658,0.663c0.91,0.023,1.807-0.153,2.692-0.533
		c0.885-0.378,1.639-0.954,2.26-1.729c-1.721-1.056-3.426-2.1-5.116-3.134c-1.688-1.034-3.394-2.078-5.115-3.133
		c-0.492,0.957-0.714,1.972-0.669,3.045C80.637,565.246,80.995,566.233,81.667,567.137z"/>
	<path fill="#FFFFFF" d="M80.682,543.975l-1.591-2.499l-7.577,4.824c-0.707,0.509-1.165,1.178-1.374,2.005
		c-0.209,0.827-0.055,1.695,0.464,2.604c0.428,0.673,0.95,1.248,1.564,1.728c0.615,0.479,1.271,0.829,1.971,1.048
		c0.699,0.218,1.413,0.288,2.142,0.208c0.729-0.081,1.418-0.329,2.068-0.741l5.815-3.704l-1.571-2.468l0.886-0.563l3.706,5.819
		l-0.885,0.563l-1.571-2.466l-10.091,6.426l1.471,2.308l-0.886,0.563l-1.893-2.974l1.351-0.949c0.316-0.2,0.595-0.392,0.834-0.574
		c0.239-0.182,0.517-0.375,0.834-0.575c-1.281,0.223-2.517,0.062-3.709-0.485c-1.191-0.544-2.17-1.418-2.936-2.62
		c-0.726-1.138-0.97-2.242-0.734-3.312c0.236-1.068,0.866-1.958,1.891-2.671l7.665-4.88l-1.57-2.468l0.885-0.563l3.726,5.853
		L80.682,543.975z"/>
	<path fill="#FFFFFF" d="M59.073,542.516c-0.24,0.134-0.496,0.163-0.768,0.086c-0.272-0.078-0.475-0.237-0.609-0.479
		c-0.134-0.239-0.158-0.492-0.076-0.751c0.084-0.263,0.246-0.458,0.486-0.593c0.241-0.135,0.488-0.164,0.743-0.092
		c0.255,0.073,0.449,0.23,0.584,0.471c0.133,0.239,0.167,0.492,0.1,0.757C59.468,542.183,59.314,542.383,59.073,542.516z
		 M75.912,536.066l-1.458-2.622L64,539.261l1.458,2.622l-0.917,0.509l-1.969-3.538l11.372-6.326l-1.404-2.523l0.917-0.511
		l3.373,6.063L75.912,536.066z"/>
	<path fill="#FFFFFF" d="M66.818,518.621l-1.284-2.669l-8.094,3.891c-0.763,0.423-1.296,1.032-1.603,1.828
		c-0.306,0.797-0.255,1.678,0.153,2.641c0.345,0.719,0.795,1.352,1.349,1.901c0.554,0.548,1.164,0.974,1.833,1.273
		c0.667,0.301,1.368,0.455,2.102,0.461c0.735,0.006,1.447-0.158,2.142-0.493l6.214-2.988l-1.267-2.635l0.946-0.456l2.99,6.22
		l-0.947,0.456l-1.267-2.638l-10.781,5.186l1.187,2.466l-0.946,0.456l-1.528-3.178l1.455-0.783c0.339-0.162,0.638-0.319,0.896-0.472
		c0.259-0.152,0.558-0.311,0.896-0.473c-1.297,0.068-2.505-0.236-3.625-0.919c-1.12-0.683-1.987-1.667-2.605-2.951
		c-0.584-1.217-0.697-2.342-0.335-3.376c0.361-1.032,1.092-1.841,2.192-2.427l8.189-3.938l-1.268-2.637l0.947-0.454l3.006,6.252
		L66.818,518.621z"/>
	<path fill="#FFFFFF" d="M45.818,502.107l-1.307-3.391l0.98-0.378l1.011,2.625l13.065-5.033c1.234-0.476,2.394-0.728,3.479-0.758
		c1.084-0.03,2.073,0.126,2.967,0.464c0.892,0.339,1.672,0.837,2.339,1.49c0.666,0.654,1.186,1.433,1.56,2.332
		c0.33,1,0.529,2.054,0.596,3.167s-0.145,2.112-0.633,2.997l-0.948-0.478c0.424-0.777,0.613-1.643,0.565-2.601
		c-0.046-0.957-0.227-1.842-0.541-2.656c-0.295-0.768-0.739-1.431-1.329-1.99c-0.591-0.561-1.28-0.976-2.068-1.247
		c-0.787-0.271-1.659-0.396-2.615-0.374c-0.957,0.021-1.948,0.229-2.975,0.624l-2.59,0.998c-0.326,0.125-0.643,0.24-0.951,0.346
		c-0.309,0.105-0.63,0.209-0.966,0.312c1.212,0.015,2.385,0.418,3.521,1.209c1.136,0.793,1.976,1.897,2.523,3.316
		c0.367,0.953,0.536,1.912,0.504,2.871c-0.032,0.962-0.238,1.87-0.62,2.725c-0.38,0.854-0.911,1.613-1.594,2.277
		c-0.682,0.662-1.5,1.179-2.458,1.548c-0.933,0.357-1.881,0.524-2.843,0.494s-1.871-0.234-2.728-0.614
		c-0.854-0.377-1.622-0.909-2.303-1.597c-0.679-0.687-1.203-1.507-1.57-2.461c-0.269-0.698-0.425-1.399-0.469-2.104
		c-0.043-0.704,0.009-1.385,0.158-2.043c0.147-0.658,0.382-1.27,0.7-1.832c0.319-0.564,0.695-1.051,1.127-1.456
		c-0.583,0.223-1.171,0.438-1.763,0.638C47.052,501.729,46.444,501.921,45.818,502.107z M56.96,511.521
		c0.811-0.313,1.512-0.755,2.103-1.33c0.591-0.574,1.047-1.225,1.367-1.948c0.32-0.725,0.494-1.499,0.521-2.325
		c0.029-0.826-0.114-1.646-0.427-2.459c-0.313-0.814-0.761-1.524-1.339-2.129c-0.58-0.605-1.232-1.075-1.96-1.409
		c-0.729-0.333-1.504-0.516-2.328-0.545c-0.824-0.03-1.642,0.11-2.453,0.423c-0.811,0.314-1.513,0.758-2.104,1.332
		s-1.049,1.232-1.377,1.974c-0.327,0.738-0.502,1.527-0.527,2.365c-0.023,0.837,0.121,1.662,0.435,2.477
		c0.313,0.814,0.757,1.519,1.332,2.112c0.576,0.593,1.23,1.048,1.964,1.366c0.735,0.318,1.514,0.491,2.338,0.522
		C55.331,511.976,56.148,511.836,56.96,511.521z"/>
	<path fill="#FFFFFF" d="M46.866,482.882c-0.97,0.238-1.932,0.283-2.883,0.133s-1.829-0.466-2.631-0.951
		c-0.802-0.482-1.497-1.108-2.088-1.878c-0.589-0.768-1.007-1.65-1.253-2.646c-0.181-0.729-0.249-1.445-0.206-2.151
		c0.044-0.705,0.18-1.377,0.41-2.014c0.229-0.636,0.536-1.213,0.922-1.734c0.386-0.521,0.819-0.956,1.298-1.307
		c-0.605,0.15-1.215,0.287-1.828,0.413c-0.612,0.128-1.24,0.244-1.884,0.352l-0.189-0.765l12.631-3.129l-0.667-2.693l1.019-0.251
		l0.893,3.603l-1.711,0.425l-2.002,0.495c0.588,0.085,1.173,0.264,1.754,0.532c0.582,0.267,1.122,0.628,1.622,1.085
		c0.499,0.456,0.934,0.985,1.301,1.59c0.369,0.604,0.646,1.282,0.832,2.034c0.247,0.995,0.289,1.97,0.126,2.925
		c-0.163,0.954-0.479,1.832-0.952,2.631c-0.471,0.8-1.093,1.486-1.864,2.064C48.745,482.223,47.861,482.635,46.866,482.882z
		 M46.632,481.856c0.847-0.21,1.6-0.564,2.26-1.061c0.661-0.499,1.194-1.09,1.604-1.77c0.409-0.681,0.679-1.431,0.811-2.249
		c0.131-0.818,0.091-1.65-0.12-2.5c-0.209-0.849-0.565-1.611-1.066-2.287c-0.5-0.672-1.092-1.221-1.775-1.646
		c-0.682-0.423-1.431-0.7-2.248-0.834c-0.815-0.132-1.647-0.094-2.494,0.116c-0.846,0.209-1.599,0.563-2.259,1.062
		s-1.199,1.097-1.618,1.792c-0.417,0.695-0.69,1.458-0.819,2.289c-0.128,0.83-0.087,1.67,0.123,2.52
		c0.21,0.85,0.564,1.604,1.063,2.267c0.498,0.661,1.092,1.198,1.784,1.605c0.692,0.407,1.446,0.679,2.263,0.811
		C44.955,482.105,45.785,482.067,46.632,481.856z"/>
	<path fill="#FFFFFF" d="M46.36,452.028l-0.461-2.927l-8.874,1.399c-0.85,0.186-1.538,0.615-2.06,1.29
		c-0.522,0.676-0.727,1.533-0.612,2.573c0.124,0.787,0.373,1.523,0.744,2.209c0.372,0.685,0.834,1.267,1.389,1.746
		c0.553,0.479,1.18,0.829,1.882,1.047c0.7,0.216,1.431,0.265,2.192,0.146l6.811-1.075l-0.456-2.89l1.037-0.163l1.075,6.815
		l-1.037,0.164l-0.456-2.89l-11.816,1.863l0.427,2.705l-1.038,0.162l-0.549-3.481l1.618-0.331c0.371-0.058,0.702-0.123,0.994-0.194
		c0.293-0.07,0.625-0.136,0.995-0.194c-1.263-0.308-2.333-0.948-3.208-1.925c-0.875-0.976-1.423-2.166-1.646-3.574
		c-0.21-1.333,0.006-2.442,0.649-3.329c0.643-0.886,1.576-1.45,2.8-1.694l8.975-1.416l-0.456-2.89l1.038-0.163l1.081,6.854
		L46.36,452.028z"/>
	<path fill="#FFFFFF" d="M43.061,429.369l-2.055,0.176c0.567,0.177,1.117,0.444,1.648,0.801c0.533,0.355,1.009,0.797,1.43,1.326
		c0.422,0.529,0.768,1.121,1.036,1.775c0.269,0.653,0.437,1.368,0.503,2.139c0.086,1.022-0.026,1.991-0.336,2.908
		c-0.311,0.918-0.761,1.734-1.354,2.449c-0.591,0.715-1.313,1.297-2.165,1.746s-1.79,0.717-2.811,0.805
		c-0.996,0.084-1.959-0.022-2.888-0.319c-0.928-0.296-1.744-0.747-2.448-1.353s-1.286-1.334-1.748-2.186
		c-0.461-0.851-0.735-1.787-0.822-2.81c-0.064-0.745-0.019-1.465,0.136-2.156c0.155-0.69,0.395-1.332,0.721-1.924
		c0.325-0.593,0.721-1.115,1.183-1.569c0.464-0.453,0.96-0.815,1.489-1.086c-0.644,0.08-1.277,0.153-1.897,0.219
		c-0.62,0.065-1.253,0.125-1.899,0.18l-12.937,1.103l0.229,2.69l-1.047,0.088l-0.315-3.699l26.978-2.297l-0.236-2.766l1.046-0.088
		l0.315,3.699L43.061,429.369z M38.887,442.445c0.87-0.074,1.668-0.305,2.399-0.692s1.351-0.888,1.861-1.495
		c0.511-0.609,0.896-1.306,1.153-2.094c0.259-0.787,0.351-1.615,0.276-2.488c-0.074-0.871-0.306-1.68-0.694-2.424
		c-0.389-0.745-0.887-1.38-1.495-1.906c-0.607-0.524-1.304-0.916-2.089-1.177c-0.785-0.259-1.612-0.352-2.481-0.278
		c-0.869,0.074-1.669,0.307-2.398,0.694c-0.73,0.388-1.357,0.894-1.879,1.515c-0.522,0.622-0.911,1.333-1.168,2.132
		c-0.258,0.8-0.35,1.636-0.275,2.507c0.074,0.873,0.305,1.674,0.693,2.406c0.388,0.733,0.891,1.355,1.51,1.867
		c0.618,0.512,1.321,0.896,2.106,1.156C37.191,442.428,38.019,442.52,38.887,442.445z"/>
	<path fill="#FFFFFF" d="M30.158,411.88l0.153-3.897l10.015,0.397c0.874-0.015,1.634-0.302,2.279-0.863
		c0.646-0.56,1.015-1.362,1.105-2.405c0.032-0.795-0.068-1.565-0.3-2.31c-0.231-0.745-0.572-1.407-1.022-1.985
		c-0.45-0.578-0.996-1.043-1.641-1.392c-0.646-0.349-1.352-0.54-2.123-0.569l-6.89-0.273l-0.115,2.885l-1.049-0.041l0.156-3.934
		l13.114,0.518l0.11-2.771l0.937,0.035l-0.143,3.598l-1.989-0.003l-1.688-0.029c1.18,0.546,2.103,1.386,2.771,2.521
		c0.668,1.137,0.975,2.402,0.92,3.797c-0.054,1.344-0.482,2.393-1.285,3.146c-0.804,0.753-1.828,1.13-3.077,1.13l-9.079-0.359
		l-0.113,2.848L30.158,411.88z"/>
	<path fill="#FFFFFF" d="M45.258,382.639l0.354-2.941l-8.918-1.072c-0.87-0.055-1.648,0.173-2.334,0.68
		c-0.686,0.508-1.117,1.277-1.291,2.309c-0.095,0.791-0.056,1.567,0.115,2.328c0.171,0.762,0.458,1.447,0.859,2.06
		c0.403,0.611,0.91,1.118,1.526,1.52c0.615,0.399,1.305,0.645,2.069,0.735l6.845,0.824l0.35-2.904l1.042,0.125l-0.823,6.851
		l-1.042-0.124l0.349-2.904l-11.877-1.428l-0.326,2.718l-1.042-0.126l0.42-3.5l1.647,0.123c0.372,0.045,0.708,0.073,1.009,0.084
		c0.301,0.01,0.638,0.039,1.01,0.084c-1.132-0.641-1.986-1.549-2.562-2.726c-0.576-1.177-0.78-2.472-0.609-3.888
		c0.161-1.34,0.671-2.35,1.531-3.026s1.912-0.966,3.155-0.867l9.021,1.084l0.349-2.904l1.043,0.125l-0.828,6.888L45.258,382.639z"/>
	<path fill="#FFFFFF" d="M48.467,359.98l-2.021-0.41c0.495,0.33,0.947,0.741,1.357,1.231c0.411,0.493,0.744,1.05,0.999,1.676
		c0.256,0.626,0.421,1.292,0.495,1.995c0.074,0.703,0.034,1.436-0.121,2.195c-0.204,1.004-0.584,1.902-1.14,2.695
		c-0.556,0.793-1.218,1.449-1.987,1.969c-0.769,0.521-1.625,0.876-2.569,1.066c-0.945,0.191-1.918,0.186-2.923-0.019
		c-0.98-0.199-1.874-0.571-2.682-1.118c-0.807-0.547-1.463-1.209-1.969-1.986c-0.505-0.779-0.859-1.642-1.063-2.59
		c-0.203-0.945-0.203-1.922,0.001-2.926c0.149-0.734,0.396-1.412,0.737-2.031c0.343-0.619,0.754-1.167,1.234-1.644
		c0.479-0.476,1.004-0.868,1.577-1.173c0.572-0.305,1.149-0.512,1.733-0.624c-0.64-0.104-1.268-0.212-1.881-0.324
		c-0.614-0.111-1.238-0.232-1.874-0.36l-12.724-2.583l-0.537,2.647l-1.029-0.209l0.738-3.638l26.535,5.383l0.552-2.72l1.028,0.21
		l-0.738,3.638L48.467,359.98z M40.784,371.354c0.854,0.174,1.688,0.177,2.498,0.009c0.81-0.166,1.545-0.471,2.207-0.91
		c0.662-0.44,1.227-1,1.695-1.684c0.469-0.684,0.791-1.453,0.965-2.311s0.179-1.699,0.016-2.523
		c-0.163-0.822-0.462-1.572-0.897-2.248c-0.436-0.674-0.993-1.246-1.674-1.717c-0.681-0.47-1.448-0.791-2.303-0.964
		c-0.854-0.173-1.687-0.176-2.497-0.009c-0.811,0.167-1.553,0.475-2.229,0.925c-0.677,0.45-1.25,1.023-1.722,1.716
		c-0.472,0.695-0.795,1.473-0.969,2.33s-0.178,1.693-0.012,2.504c0.167,0.812,0.474,1.549,0.924,2.215
		c0.45,0.665,1.016,1.232,1.696,1.703C39.162,370.859,39.929,371.182,40.784,371.354z"/>
	<path fill="#FFFFFF" d="M46.144,338.858c0.248,2.171,0.484,4.342,0.708,6.507c0.224,2.166,0.459,4.335,0.708,6.507
		c1.21-0.153,2.284-0.625,3.22-1.415c0.935-0.789,1.581-1.821,1.938-3.097c0.229-0.818,0.298-1.617,0.205-2.397
		c-0.093-0.778-0.315-1.516-0.665-2.211c0.147-0.062,0.294-0.125,0.441-0.188c0.147-0.062,0.299-0.136,0.452-0.224
		c0.427,0.795,0.695,1.644,0.806,2.543c0.111,0.901,0.036,1.82-0.228,2.759c-0.277,0.988-0.721,1.856-1.334,2.605
		c-0.612,0.751-1.318,1.352-2.12,1.801c-0.802,0.451-1.682,0.744-2.641,0.876c-0.959,0.134-1.932,0.062-2.919-0.214
		c-0.962-0.27-1.825-0.713-2.587-1.33c-0.762-0.616-1.368-1.323-1.818-2.125c-0.451-0.802-0.742-1.683-0.876-2.642
		c-0.133-0.959-0.062-1.932,0.216-2.918c0.404-1.445,1.205-2.589,2.403-3.435C43.249,339.416,44.613,338.948,46.144,338.858z
		 M40.658,343.98c-0.277,0.987-0.315,1.95-0.118,2.887c0.198,0.939,0.565,1.775,1.101,2.509c0.538,0.735,1.226,1.335,2.066,1.806
		c0.842,0.469,1.758,0.713,2.75,0.732c-0.216-2.008-0.431-3.997-0.645-5.964c-0.214-1.968-0.43-3.956-0.646-5.964
		c-1.059,0.196-1.999,0.64-2.82,1.333C41.524,342.01,40.962,342.897,40.658,343.98z"/>
	<path fill="#FFFFFF" d="M54.96,338.848l0.952-2.766L44.6,332.191l-0.89,2.589l-0.994-0.343l1.146-3.333l1.585,0.466
		c0.354,0.122,0.678,0.22,0.969,0.293c0.292,0.075,0.615,0.172,0.97,0.294c-0.979-0.918-1.613-2.015-1.902-3.291
		c-0.288-1.275-0.236-2.521,0.154-3.734l0.98,0.376c-0.236,0.766-0.342,1.535-0.32,2.31c0.021,0.774,0.169,1.493,0.44,2.154
		c0.271,0.663,0.662,1.246,1.171,1.751c0.509,0.506,1.117,0.88,1.822,1.123l6.519,2.242l0.952-2.765l0.993,0.341l-2.245,6.525
		L54.96,338.848z"/>
	<path fill="#FFFFFF" d="M62.935,317.611l1.144-2.733l-8.286-3.467c-0.821-0.29-1.631-0.285-2.43,0.016
		c-0.799,0.3-1.424,0.922-1.873,1.868c-0.308,0.735-0.483,1.491-0.527,2.27c-0.042,0.778,0.045,1.518,0.266,2.216
		c0.22,0.699,0.569,1.325,1.051,1.879c0.483,0.552,1.08,0.976,1.79,1.274l6.36,2.663l1.129-2.699l0.969,0.405l-2.664,6.366
		l-0.969-0.406l1.129-2.698l-11.034-4.618l-1.058,2.525l-0.968-0.405l1.361-3.251l1.551,0.568c0.347,0.145,0.663,0.264,0.949,0.357
		c0.286,0.092,0.602,0.211,0.948,0.356c-0.914-0.925-1.487-2.032-1.72-3.322c-0.232-1.289-0.073-2.592,0.477-3.906
		c0.521-1.245,1.288-2.076,2.3-2.492c1.012-0.417,2.103-0.408,3.271,0.027l8.382,3.509l1.129-2.699l0.969,0.406l-2.678,6.399
		L62.935,317.611z"/>
	<path fill="#FFFFFF" d="M65.353,293.188c-0.179,2.18-0.368,4.353-0.57,6.521c-0.202,2.168-0.392,4.341-0.571,6.52
		c1.218,0.085,2.363-0.169,3.434-0.761c1.072-0.592,1.906-1.479,2.505-2.662c0.384-0.758,0.606-1.528,0.666-2.311
		c0.06-0.782-0.014-1.548-0.223-2.299c0.157-0.033,0.313-0.066,0.47-0.098c0.157-0.032,0.319-0.075,0.487-0.131
		c0.264,0.862,0.363,1.746,0.296,2.651c-0.067,0.906-0.32,1.793-0.76,2.663c-0.463,0.915-1.069,1.679-1.815,2.296
		c-0.747,0.616-1.556,1.068-2.431,1.354c-0.874,0.287-1.793,0.402-2.76,0.346c-0.967-0.055-1.907-0.314-2.822-0.778
		c-0.891-0.452-1.652-1.053-2.28-1.806c-0.627-0.753-1.084-1.565-1.371-2.44c-0.286-0.872-0.401-1.792-0.345-2.76
		c0.055-0.966,0.314-1.906,0.777-2.822c0.679-1.337,1.687-2.304,3.026-2.902C62.405,293.172,63.833,292.979,65.353,293.188z
		 M58.976,297.146c-0.463,0.915-0.688,1.851-0.676,2.809c0.012,0.959,0.208,1.851,0.592,2.675c0.383,0.825,0.941,1.549,1.675,2.173
		s1.586,1.042,2.556,1.253c0.178-2.011,0.354-4.003,0.526-5.976c0.173-1.972,0.348-3.965,0.527-5.976
		c-1.078-0.014-2.086,0.24-3.026,0.758C60.209,295.382,59.484,296.143,58.976,297.146z"/>
	<path fill="#FFFFFF" d="M68.735,291.808c-0.856-0.515-1.568-1.162-2.136-1.941c-0.567-0.778-0.964-1.622-1.19-2.532
		c-0.226-0.908-0.277-1.844-0.152-2.804c0.125-0.96,0.452-1.879,0.98-2.758c0.386-0.643,0.844-1.199,1.374-1.668
		c0.53-0.468,1.101-0.848,1.712-1.136s1.238-0.481,1.879-0.577c0.64-0.095,1.255-0.098,1.842-0.008
		c-0.535-0.321-1.065-0.654-1.587-0.998c-0.523-0.343-1.05-0.704-1.581-1.082l0.405-0.675l11.152,6.706l1.431-2.378l0.899,0.541
		l-1.913,3.182l-1.511-0.908l-1.768-1.063c0.355,0.477,0.645,1.015,0.867,1.615c0.222,0.601,0.349,1.238,0.38,1.914
		c0.031,0.676-0.035,1.357-0.201,2.045c-0.167,0.688-0.448,1.364-0.848,2.028c-0.528,0.879-1.187,1.599-1.977,2.159
		c-0.789,0.561-1.633,0.958-2.531,1.191c-0.899,0.233-1.825,0.281-2.779,0.145C70.53,292.669,69.614,292.336,68.735,291.808z
		 M69.292,290.919c0.748,0.449,1.531,0.73,2.351,0.844c0.819,0.113,1.613,0.073,2.384-0.12c0.771-0.193,1.491-0.532,2.162-1.02
		c0.67-0.487,1.23-1.104,1.682-1.854c0.451-0.75,0.737-1.54,0.859-2.372c0.121-0.831,0.089-1.637-0.095-2.419
		s-0.518-1.507-1.002-2.178s-1.1-1.231-1.848-1.68c-0.747-0.45-1.53-0.73-2.35-0.844c-0.819-0.113-1.622-0.071-2.41,0.126
		c-0.788,0.199-1.52,0.545-2.197,1.042c-0.677,0.497-1.242,1.121-1.692,1.87c-0.452,0.75-0.734,1.535-0.849,2.355
		c-0.115,0.821-0.072,1.62,0.128,2.397c0.201,0.777,0.544,1.502,1.029,2.172S68.545,290.469,69.292,290.919z"/>
	<path fill="#FFFFFF" d="M67.851,262.798l0.598-0.864l7.53,5.196l2.577-3.735l0.864,0.596l-2.576,3.735l9.846,6.793l1.789-2.593
		l0.863,0.596l-2.384,3.457l-10.71-7.39l-1.874,2.716l-0.864-0.596l1.873-2.716L67.851,262.798z"/>
	<path fill="#FFFFFF" d="M96.985,260.641l1.832-2.328l-7.061-5.553c-0.714-0.499-1.497-0.709-2.346-0.634
		c-0.85,0.076-1.619,0.509-2.304,1.301c-0.492,0.626-0.864,1.309-1.113,2.047c-0.249,0.739-0.361,1.475-0.336,2.207
		c0.024,0.733,0.195,1.429,0.513,2.09c0.317,0.662,0.779,1.23,1.384,1.707l5.419,4.262l1.809-2.299l0.825,0.649l-4.265,5.423
		l-0.826-0.649l1.809-2.299L71.87,250.476l-1.692,2.152l-0.825-0.649l2.341-2.977l12.615,9.922l1.257,1.132
		c-0.619-1.154-0.872-2.379-0.76-3.675c0.113-1.295,0.609-2.503,1.49-3.623c0.835-1.062,1.796-1.657,2.882-1.79
		c1.086-0.13,2.135,0.169,3.145,0.9l7.143,5.617l1.808-2.298l0.825,0.649l-4.289,5.453L96.985,260.641z"/>
	<path fill="#FFFFFF" d="M96.677,227.484l0.734-0.751l6.545,6.394l3.17-3.245l0.751,0.734l-3.171,3.245l8.556,8.36l2.201-2.253
		l0.751,0.734l-2.935,3.004l-9.308-9.094l-2.306,2.361l-0.75-0.733l2.306-2.361L96.677,227.484z"/>
	<path fill="#FFFFFF" d="M125.764,230.277l2.199-1.985l-6.019-6.668c-0.62-0.612-1.354-0.953-2.205-1.021
		c-0.851-0.069-1.681,0.228-2.49,0.892c-0.591,0.534-1.073,1.144-1.443,1.83s-0.605,1.392-0.706,2.118
		c-0.099,0.726-0.049,1.441,0.152,2.147c0.201,0.706,0.56,1.344,1.076,1.915l4.62,5.119l2.172-1.959l0.703,0.779l-5.123,4.623
		l-0.704-0.779l2.172-1.96l-17.436-19.319l-2.033,1.834l-0.703-0.78l2.812-2.537l10.753,11.915l1.047,1.328
		c-0.414-1.243-0.456-2.493-0.126-3.75c0.331-1.257,1.024-2.364,2.083-3.318c1.002-0.905,2.049-1.33,3.143-1.275
		c1.092,0.055,2.075,0.528,2.948,1.419l6.088,6.746l2.172-1.96l0.703,0.78l-5.15,4.648L125.764,230.277z"/>
	<path fill="#FFFFFF" d="M138.355,209.218c-1.09,1.895-2.189,3.78-3.296,5.655c-1.106,1.875-2.205,3.76-3.296,5.655
		c1.066,0.596,2.209,0.854,3.431,0.774c1.222-0.079,2.354-0.525,3.4-1.34c0.671-0.522,1.2-1.124,1.588-1.806
		c0.388-0.683,0.647-1.407,0.778-2.174c0.156,0.038,0.312,0.074,0.468,0.111c0.156,0.038,0.321,0.067,0.496,0.089
		c-0.129,0.893-0.417,1.734-0.862,2.524c-0.447,0.791-1.053,1.485-1.822,2.085c-0.81,0.629-1.683,1.063-2.621,1.303
		c-0.938,0.239-1.863,0.302-2.775,0.188c-0.913-0.113-1.794-0.401-2.645-0.864c-0.851-0.461-1.591-1.097-2.22-1.906
		c-0.615-0.789-1.046-1.658-1.292-2.606c-0.248-0.948-0.314-1.878-0.201-2.791c0.114-0.912,0.402-1.793,0.864-2.644
		c0.462-0.852,1.097-1.592,1.907-2.222c1.183-0.92,2.508-1.366,3.974-1.335C135.694,207.947,137.07,208.382,138.355,209.218z
		 M130.9,210.08c-0.809,0.63-1.413,1.381-1.811,2.253c-0.397,0.872-0.599,1.763-0.604,2.672c-0.004,0.91,0.191,1.803,0.589,2.679
		c0.397,0.877,0.989,1.619,1.777,2.223c1.019-1.744,2.026-3.471,3.024-5.181c0.996-1.71,2.003-3.438,3.023-5.181
		c-0.969-0.472-1.989-0.672-3.06-0.604C132.768,209.009,131.788,209.389,130.9,210.08z"/>
	<path fill="#FFFFFF" d="M172.365,197.565l2.568-1.478l-4.48-7.785c-0.478-0.729-1.125-1.217-1.941-1.462
		c-0.816-0.248-1.691-0.131-2.622,0.347c-0.691,0.397-1.279,0.887-1.764,1.467c-0.485,0.58-0.854,1.201-1.104,1.861
		c-0.252,0.662-0.372,1.354-0.357,2.077c0.014,0.723,0.195,1.414,0.545,2.071l3.532,6.138l2.536-1.459l0.524,0.91l-6.013,3.46
		l-0.523-0.91l2.567-1.478l-4.48-7.785c-0.477-0.729-1.124-1.217-1.941-1.462c-0.817-0.247-1.691-0.131-2.622,0.347
		c-0.691,0.398-1.289,0.893-1.796,1.485c-0.506,0.593-0.885,1.233-1.135,1.922c-0.25,0.688-0.352,1.398-0.303,2.131
		c0.048,0.732,0.264,1.432,0.648,2.099l3.439,5.977l2.535-1.459l0.523,0.911l-5.98,3.441l-0.523-0.91l2.535-1.459l-5.967-10.368
		l-2.374,1.365l-0.523-0.911l3.056-1.758l0.888,1.393c0.187,0.325,0.366,0.611,0.538,0.859c0.171,0.247,0.351,0.533,0.538,0.859
		c-0.166-1.289,0.051-2.518,0.649-3.684c0.598-1.167,1.514-2.104,2.75-2.816c1.083-0.624,2.132-0.831,3.146-0.622
		c1.015,0.211,1.857,0.771,2.527,1.684c-0.087-1.248,0.163-2.438,0.749-3.568s1.472-2.037,2.66-2.72
		c1.166-0.671,2.282-0.867,3.347-0.588s1.931,0.945,2.596,2l4.533,7.875l2.502-1.439l0.523,0.91l-5.98,3.442L172.365,197.565z"/>
	<path fill="#FFFFFF" d="M177.971,187.936c-0.413-0.911-0.635-1.853-0.665-2.828c-0.03-0.975,0.119-1.9,0.449-2.778
		c0.33-0.876,0.818-1.674,1.466-2.395c0.648-0.719,1.439-1.29,2.373-1.715c0.933-0.423,1.89-0.644,2.87-0.664
		c0.979-0.019,1.907,0.137,2.785,0.467c0.877,0.329,1.678,0.823,2.402,1.483s1.294,1.445,1.707,2.355
		c0.424,0.934,0.643,1.884,0.656,2.852c0.014,0.969-0.147,1.885-0.481,2.751c-0.335,0.866-0.832,1.661-1.491,2.385
		s-1.456,1.298-2.39,1.723c-0.933,0.424-1.884,0.642-2.853,0.656c-0.968,0.014-1.889-0.138-2.76-0.457
		c-0.873-0.318-1.662-0.804-2.37-1.457C178.961,189.663,178.395,188.87,177.971,187.936z M178.927,187.502
		c0.361,0.797,0.849,1.476,1.46,2.035c0.612,0.561,1.291,0.979,2.037,1.258s1.534,0.409,2.365,0.389
		c0.831-0.021,1.646-0.212,2.445-0.575c0.775-0.352,1.451-0.837,2.024-1.454c0.573-0.616,1.001-1.298,1.283-2.043
		c0.281-0.746,0.418-1.534,0.412-2.369c-0.007-0.834-0.19-1.65-0.553-2.447c-0.361-0.797-0.854-1.472-1.477-2.027
		c-0.624-0.554-1.311-0.977-2.062-1.267c-0.752-0.291-1.549-0.423-2.391-0.399c-0.842,0.026-1.651,0.215-2.427,0.567
		c-0.799,0.362-1.481,0.85-2.042,1.462c-0.563,0.612-0.982,1.296-1.257,2.052c-0.276,0.758-0.406,1.551-0.388,2.379
		C178.375,185.893,178.566,186.706,178.927,187.502z"/>
	<path fill="#FFFFFF" d="M193.862,180.83c-0.349-0.937-0.504-1.893-0.467-2.867c0.038-0.974,0.25-1.887,0.641-2.739
		c0.39-0.851,0.933-1.613,1.63-2.287c0.696-0.672,1.525-1.188,2.485-1.545s1.93-0.512,2.909-0.463
		c0.979,0.05,1.894,0.27,2.746,0.659c0.852,0.39,1.616,0.938,2.293,1.647c0.678,0.708,1.191,1.531,1.54,2.468
		c0.356,0.961,0.509,1.925,0.456,2.891c-0.054,0.967-0.278,1.871-0.672,2.71c-0.394,0.841-0.945,1.6-1.653,2.276
		c-0.708,0.677-1.543,1.194-2.503,1.552c-0.96,0.357-1.925,0.509-2.892,0.456c-0.967-0.054-1.874-0.269-2.721-0.648
		c-0.848-0.378-1.601-0.917-2.263-1.619C194.729,182.622,194.219,181.791,193.862,180.83z M194.847,180.464
		c0.304,0.821,0.743,1.531,1.314,2.132c0.572,0.602,1.22,1.066,1.945,1.397c0.725,0.33,1.502,0.515,2.333,0.552
		c0.83,0.038,1.657-0.096,2.479-0.403c0.799-0.297,1.506-0.733,2.121-1.31c0.615-0.575,1.089-1.225,1.421-1.949
		c0.333-0.725,0.525-1.502,0.576-2.335c0.051-0.833-0.075-1.659-0.38-2.479c-0.305-0.82-0.75-1.528-1.333-2.125
		c-0.583-0.597-1.24-1.065-1.969-1.408c-0.729-0.342-1.515-0.53-2.356-0.563c-0.842-0.033-1.663,0.099-2.461,0.396
		c-0.822,0.306-1.535,0.745-2.139,1.316c-0.604,0.571-1.069,1.224-1.397,1.961c-0.328,0.735-0.512,1.518-0.552,2.345
		C194.408,178.82,194.541,179.645,194.847,180.464z"/>
	<path fill="#FFFFFF" d="M221.878,177.674l2.846-0.823l-2.497-8.628c-0.289-0.822-0.801-1.449-1.537-1.883
		c-0.735-0.435-1.611-0.53-2.629-0.288c-0.766,0.221-1.465,0.56-2.098,1.015c-0.633,0.456-1.154,0.986-1.56,1.596
		c-0.407,0.609-0.675,1.275-0.802,1.997c-0.127,0.724-0.084,1.455,0.13,2.193l1.916,6.624l2.81-0.813l0.292,1.008l-6.627,1.917
		l-0.292-1.009l2.81-0.813l-3.325-11.491l-2.63,0.761l-0.291-1.009l3.387-0.979l0.529,1.563c0.105,0.359,0.21,0.681,0.318,0.961
		c0.106,0.282,0.213,0.603,0.318,0.963c0.146-1.292,0.649-2.433,1.507-3.423c0.859-0.99,1.973-1.684,3.342-2.08
		c1.296-0.375,2.425-0.299,3.385,0.227c0.958,0.528,1.635,1.383,2.03,2.566l2.526,8.729l2.809-0.813l0.292,1.009l-6.665,1.928
		L221.878,177.674z"/>
	<path fill="#FFFFFF" d="M231.759,175.193c-0.063-0.268-0.02-0.521,0.13-0.762c0.148-0.24,0.356-0.392,0.625-0.455
		s0.516-0.018,0.745,0.134c0.228,0.152,0.373,0.362,0.437,0.63c0.063,0.269,0.024,0.515-0.116,0.74
		c-0.14,0.225-0.343,0.368-0.611,0.432c-0.269,0.063-0.521,0.025-0.758-0.112C231.971,175.664,231.821,175.461,231.759,175.193z"/>
</g>
<g id="strokecircles">
	<circle fill="none" stroke="#FFFFFF" stroke-width="0.1724" cx="288.003" cy="413.754" r="239.997"/>
	<circle fill="none" stroke="#FFFFFF" stroke-width="0.1701" cx="288.003" cy="413.754" r="236.886"/>
</g>
</svg>
