<?xml version="1.0" encoding="utf-8"?>
<!-- Generator: Adobe Illustrator 14.0.0, SVG Export Plug-In . SVG Version: 6.00 Build 43363)  -->
<!DOCTYPE svg PUBLIC "-//W3C//DTD SVG 1.1//EN" "http://www.w3.org/Graphics/SVG/1.1/DTD/svg11.dtd">
<svg version="1.1" xmlns="http://www.w3.org/2000/svg" xmlns:xlink="http://www.w3.org/1999/xlink" x="0px" y="0px" width="864px"
	 height="864px" viewBox="0 0 864 864" enable-background="new 0 0 864 864" xml:space="preserve">
<g id="Layer_1">
	<rect fill="#BBBDBF" width="864" height="864"/>
	<polygon id="fill_x5F_background" fill="#7C8C65" points="0,335 864,771.516 864,864 0,864 	"/>
	<g opacity="0.06">
		<polygon fill="none" stroke="#FFFFFF" stroke-width="3" points="142.609,807.813 284.671,735.993 284.671,805.437 142.609,877.26 
					"/>
		<polygon fill="none" stroke="#FFFFFF" stroke-width="3" points="288.101,732.559 288.101,663.114 430.161,734.937 
			430.161,804.381 		"/>
		<polygon fill="none" stroke="#FFFFFF" stroke-width="3" points="-2.88,732.559 -2.88,663.114 139.181,734.937 139.181,804.381 		
			"/>
		<polygon fill="none" stroke="#FFFFFF" stroke-width="3" points="433.589,662.058 575.649,590.235 575.649,659.681 
			433.589,731.502 		"/>
		<polygon fill="none" stroke="#FFFFFF" stroke-width="3" points="142.609,662.058 284.671,590.235 284.671,659.681 
			142.609,731.502 		"/>
	</g>
</g>
<g id="Layer_2">
	<path id="photo" fill="#D0D2D3" d="M826.066,752.328L864,733.152v38.363L826.066,752.328z M754.297,716.199L864,660.736v69.004
		l-41.476,20.967L754.297,716.199z M722.845,700.291v-40.605L864,588.32v69.004l-113.078,57.17L722.845,700.291z M578.283,627.174
		V588.32l141.155,71.365v38.885L578.283,627.174z M722.845,587.27L864,515.906v69.002l-141.155,71.365V587.27z M578.283,584.908
		v-69.002l141.155,71.363v69.004L578.283,584.908z M538.162,606.881l36.712-18.561v37.129L538.162,606.881z M466.56,570.666
		l108.314-54.76v69.002l-40.085,20.268L466.56,570.666z M722.845,514.854L864,443.49v69.004l-141.155,71.363V514.854z
		 M578.283,512.494V443.49l141.155,71.363v69.004L578.283,512.494z M433.718,554.057v-39.203l141.156-71.363v69.004l-111.688,56.465
		L433.718,554.057z M289.156,480.938V443.49l141.156,71.363v37.479L289.156,480.938z M722.845,442.439L864,371.076v69.002
		l-141.155,71.365V442.439z M578.283,440.078v-69.002l141.155,71.363v69.004L578.283,440.078z M433.718,442.439l141.156-71.363
		v69.002l-141.156,71.365V442.439z M289.156,440.078v-69.002l141.156,71.363v69.004L289.156,440.078z M250.426,461.348
		l35.323-17.857v35.725L250.426,461.348z M178.825,425.133l106.924-54.057v69.002l-38.697,19.564L178.825,425.133z M722.845,370.026
		L864,298.662v69.001l-141.155,71.364V370.026z M578.283,367.664v-69.001l141.155,71.364v69.001L578.283,367.664z M433.718,370.026
		l141.156-71.364v69.001l-141.156,71.364V370.026z M289.156,367.664v-69.001l141.156,71.364v69.001L289.156,367.664z
		 M144.593,407.819v-37.793l141.156-71.364v69.001l-110.298,55.763L144.593,407.819z M0.029,334.701v-36.039l141.156,71.364v36.07
		L0.029,334.701z M722.845,297.612L864,226.248v69.002l-141.155,71.364V297.612z M578.283,295.25v-69.002l141.155,71.364v69.002
		L578.283,295.25z M433.718,297.612l141.156-71.364v69.002l-141.156,71.364V297.612z M289.156,295.25v-69.002l141.156,71.364v69.002
		L289.156,295.25z M144.593,297.612l141.156-71.364v69.002l-141.156,71.364V297.612z M0.029,295.25v-69.002l141.156,71.364v69.002
		L0.029,295.25z M722.845,225.197L864,153.833v69.002l-141.155,71.364V225.197z M578.283,222.835v-69.002l141.155,71.364v69.002
		L578.283,222.835z M433.718,225.197l141.156-71.364v69.002l-141.156,71.364V225.197z M289.156,222.835v-69.002l141.156,71.364
		v69.002L289.156,222.835z M144.593,225.197l141.156-71.364v69.002l-141.156,71.364V225.197z M0.029,222.835v-69.002l141.156,71.364
		v69.002L0.029,222.835z M722.845,152.783L864,81.418v69.002l-141.155,71.364V152.783z M578.283,150.42V81.418l141.155,71.364
		v69.002L578.283,150.42z M433.718,152.783l141.156-71.364v69.002l-141.156,71.364V152.783z M289.156,150.42V81.418l141.156,71.364
		v69.002L289.156,150.42z M144.593,152.783l141.156-71.364v69.002l-141.156,71.364V152.783z M0.029,150.42V81.418l141.156,71.364
		v69.002L0.029,150.42z M722.845,80.368L864,9.004v69.002L722.845,149.37V80.368z M578.283,78.006V9.004l141.155,71.364v69.002
		L578.283,78.006z M433.718,80.368L574.874,9.004v69.002L433.718,149.37V80.368z M289.156,78.006V9.004l141.156,71.364v69.002
		L289.156,78.006z M144.593,80.368L285.749,9.004v69.002L144.593,149.37V80.368z M0.029,78.006V9.004l141.156,71.364v69.002
		L0.029,78.006z M722.845,7.954l17.647-8.922H864v6.56L722.845,76.956V7.954z M578.283,5.591V-0.02h125.384l15.771,7.974v69.002
		L578.283,5.591z M433.718,7.954l15.771-7.974h125.385v5.611L433.718,76.956V7.954z M289.156,5.591V-0.02h125.385l15.771,7.974
		v69.002L289.156,5.591z M144.593,7.954l15.77-7.974h125.386v5.611L144.593,76.956V7.954z M0.029,5.591V-0.02h125.385l15.771,7.974
		v69.002L0.029,5.591z"/>
</g>
<g id="Layer_3">
	<g id="fill_x5F_text">
		<g>
			<g>
				<path fill="#FFFFFF" d="M32.422,483.336v-34.714h2.575v34.714H32.422z"/>
				<path fill="#FFFFFF" d="M53.592,483.336v-32.139H41.671v-2.575h26.226v2.575h-11.73v32.139H53.592z"/>
				<path fill="#FFFFFF" d="M77.622,445.714l-3.91,9.68l-2.003-0.668l3.052-10.014L77.622,445.714z"/>
				<path fill="#FFFFFF" d="M92.879,484.385c-3.624,0-10.061-1.764-10.776-10.967l2.575-0.144c0.572,7.152,5.197,8.535,8.249,8.535
					c5.484,0,8.679-4.435,8.679-8.249c0-3.1-1.431-5.102-9.346-7.152c-4.435-1.192-8.631-3.624-8.631-8.917
					c0-6.866,5.531-9.489,9.394-9.489c5.865,0,9.537,4.292,9.775,9.489l-2.575,0.144c-0.19-3.91-2.861-7.058-7.152-7.058
					c-3.1,0-6.866,2.051-6.866,6.818c0,3.91,3.099,5.579,6.723,6.485c9.25,2.432,11.253,5.483,11.253,9.68
					C104.18,478.615,100.079,484.385,92.879,484.385z"/>
			</g>
		</g>
		<g>
			<g>
				<path fill="#FFFFFF" d="M156.411,477.423v-28.801h2.575v35.858l-25.129-29.945v28.801h-2.575v-35.858L156.411,477.423z"/>
				<path fill="#FFFFFF" d="M185.446,447.669c10.872,0,18.406,8.63,18.406,18.119c0,10.872-8.631,18.406-18.12,18.406
					c-10.872,0-18.406-8.631-18.406-18.12C167.327,455.202,175.958,447.669,185.446,447.669z M185.446,450.243
					c-7.963,0-15.544,6.295-15.544,15.783c0,7.964,6.294,15.593,15.783,15.593c8.011,0,15.592-6.294,15.592-15.688
					C201.277,457.349,194.554,450.243,185.446,450.243z"/>
				<path fill="#FFFFFF" d="M219.345,483.336v-32.139h-11.921v-2.575h26.226v2.575h-11.73v32.139H219.345z"/>
			</g>
		</g>
		<g>
			<g>
				<path fill="#FFFFFF" d="M149.236,621.314h-29.933l-15.571-54.615l-15.571,54.615H58.099l-31.547-110.75h31.256l17.055,68.462
					l18.144-68.462h21.452l18.144,68.462l17.055-68.462h31.126L149.236,621.314L149.236,621.314z M122.321,617.314h23.895
					l29.268-102.75h-22.702l-18.245,73.236h-3.749l-19.409-73.236H96.084l-19.409,73.236h-3.749l-18.245-73.236H31.85l29.268,102.75
					h24.024l18.589-65.205L122.321,617.314L122.321,617.314z"/>
			</g>
			<g>
				<path fill="#FFFFFF" d="M269.019,621.314h-28.326v-42.83h-30.419v42.83h-28.326v-110.75h28.326v42.57h30.419v-42.57h28.326
					V621.314L269.019,621.314z M244.693,617.314h20.326v-102.75h-20.326v42.57h-38.419v-42.57h-20.326v102.75h20.326v-42.83h38.419
					V617.314L244.693,617.314z"/>
			</g>
			<g>
				<path fill="#FFFFFF" d="M382.81,621.314h-30.495l-7.893-21.35h-37.844l-7.893,21.35H268.19l44.703-110.75h25.214L382.81,621.314
					L382.81,621.314z M355.101,617.314h21.781l-41.474-102.75h-19.815l-41.474,102.75h21.781l7.893-21.35h43.416L355.101,617.314
					L355.101,617.314z M340.442,578.614h-29.885l13.438-35.055h3.01L340.442,578.614L340.442,578.614z M316.375,574.614h18.25
					L325.5,550.81L316.375,574.614L316.375,574.614z"/>
			</g>
			<g>
				<path fill="#FFFFFF" d="M422.73,621.314h-28.326v-85.4h-25.361v-25.35h79.049v25.35H422.73V621.314L422.73,621.314z
					 M398.404,617.314h20.326v-85.4h25.361v-17.35h-71.049v17.35h25.361V617.314L398.404,617.314z"/>
			</g>
		</g>
		<g>
			<g>
				<path fill="#FFFFFF" d="M128.007,817.822h-25.264L90.135,773.6l-12.608,44.223H52.156L25.883,725.59h26.564l13.836,55.54
					l14.719-55.54h18.265l14.719,55.54l13.836-55.54h26.458L128.007,817.822L128.007,817.822z M105.762,813.822h19.226
					l23.994-84.232h-18.033l-15.08,60.532h-3.637L96.189,729.59H84.081l-16.042,60.532h-3.637l-15.08-60.532h-18.14l23.993,84.232
					h19.333l15.627-54.813L105.762,813.822L105.762,813.822z"/>
			</g>
			<g>
				<path fill="#FFFFFF" d="M227.101,817.822h-24.106v-35.4h-24.448v35.4h-24.106V725.59h24.106v35.186h24.448V725.59h24.106
					V817.822L227.101,817.822z M206.994,813.822h16.106V729.59h-16.106v35.186h-32.448V729.59h-16.106v84.232h16.106v-35.4h32.448
					V813.822L206.994,813.822z"/>
			</g>
			<g>
				<path fill="#FFFFFF" d="M278.466,819.427c-26.504,0-46.491-20.538-46.491-47.774c0-26.283,20.855-47.667,46.491-47.667
					c26.01,0,46.384,20.938,46.384,47.667C324.85,798.889,304.909,819.427,278.466,819.427L278.466,819.427z M278.466,727.985
					c-23.43,0-42.491,19.589-42.491,43.667c0,25.364,17.87,43.774,42.491,43.774c24.163,0,42.384-18.819,42.384-43.774
					C320.85,747.166,302.232,727.985,278.466,727.985L278.466,727.985z M278.466,799.962c-18.291,0-24.78-15.25-24.78-28.31
					c0-13.635,7.754-28.31,24.78-28.31c17.044,0,24.673,14.219,24.673,28.31C303.139,784.712,296.677,799.962,278.466,799.962
					L278.466,799.962z M278.466,747.343c-14.355,0-20.78,12.209-20.78,24.31c0,5.703,1.499,24.31,20.78,24.31
					c15.242,0,20.673-12.558,20.673-24.31C299.139,759.552,292.747,747.343,278.466,747.343L278.466,747.343z"/>
			</g>
		</g>
		<g>
			<g>
				<path fill="#FFFFFF" d="M376.15,754.1l10.994-23.574l2.378,1.163l-13.373,28.648l-7.665-16.438l-7.611,16.333l-13.373-28.648
					l2.378-1.11l10.994,23.521l6.185-13.214l-4.281-9.145l2.378-1.11L376.15,754.1z"/>
				<path fill="#FFFFFF" d="M410.401,757.112c2.114,0,4.229-0.581,6.026-1.638l1.321,2.272c-2.22,1.321-4.757,2.009-7.347,2.009
					c-8.88,0-14.8-6.978-14.8-14.483c0-8.88,7.03-14.8,14.536-14.8c7.083,0,12.316,4.44,14.113,10.201l-26.005,4.546
					C398.245,751.404,403.107,757.112,410.401,757.112z M420.444,738.666c-2.062-3.277-5.708-5.55-10.307-5.55
					c-5.338,0-10.36,3.646-11.576,9.408L420.444,738.666z"/>
				<path fill="#FFFFFF" d="M473.513,740.146c0-3.488-2.749-7.029-7.241-7.029c-4.07,0-7.348,1.797-9.515,4.439v21.513h-2.643
					v-42.285h2.643v18.288c1.956-2.748,5.021-4.599,9.515-4.599c6.236,0,9.884,4.863,9.884,9.62v18.976h-2.643V740.146z"/>
				<path fill="#FFFFFF" d="M500.682,730.473c4.546,0,7.611,1.851,9.514,4.599v-3.7h2.644v27.697h-2.644v-4.018
					c-2.008,2.961-5.127,4.705-9.196,4.705c-8.88,0-14.8-6.978-14.8-14.483C486.199,736.393,493.176,730.473,500.682,730.473z
					 M500.734,733.116c-6.184,0-11.893,4.862-11.893,12.104c0,6.185,4.863,11.893,12.104,11.893c3.594,0,7.029-1.638,9.249-4.439
					v-15.117C508.082,734.913,504.752,733.116,500.734,733.116z"/>
				<path fill="#FFFFFF" d="M534.933,753.994l10.994-23.521l2.379,1.11l-13.373,28.648l-13.372-28.648l2.378-1.11L534.933,753.994z"
					/>
				<path fill="#FFFFFF" d="M569.131,757.112c2.114,0,4.229-0.581,6.025-1.638l1.321,2.272c-2.22,1.321-4.757,2.009-7.347,2.009
					c-8.88,0-14.8-6.978-14.8-14.483c0-8.88,7.029-14.8,14.535-14.8c7.083,0,12.315,4.44,14.112,10.201l-26.005,4.546
					C556.974,751.404,561.836,757.112,569.131,757.112z M579.174,738.666c-2.062-3.277-5.709-5.55-10.308-5.55
					c-5.339,0-10.359,3.646-11.575,9.408L579.174,738.666z"/>
				<path fill="#FFFFFF" d="M615.381,721.752c1.374,0,2.537,1.162,2.537,2.537c0,1.374-1.163,2.537-2.537,2.537
					s-2.537-1.163-2.537-2.537C612.844,722.914,614.007,721.752,615.381,721.752z M614.112,759.068v-27.697h2.643v27.697H614.112z"
					/>
				<path fill="#FFFFFF" d="M655.288,740.093v18.976h-2.643v-18.923c0-3.488-2.695-7.029-7.241-7.029
					c-7.294,0-12.157,5.708-12.157,11.893v14.06h-2.643v-27.697h2.643v7.03c0.74-3.383,6.872-7.929,12.21-7.929
					C651.642,730.473,655.288,735.336,655.288,740.093z"/>
				<path fill="#FFFFFF" d="M689.116,759.068v-42.285h2.643v42.285H689.116z"/>
				<path fill="#FFFFFF" d="M706.981,721.752c1.374,0,2.537,1.162,2.537,2.537c0,1.374-1.163,2.537-2.537,2.537
					s-2.537-1.163-2.537-2.537C704.444,722.914,705.607,721.752,706.981,721.752z M705.713,759.068v-27.697h2.643v27.697H705.713z"
					/>
				<path fill="#FFFFFF" d="M737.322,734.015h-12.475v25.054h-2.643v-25.054h-2.643v-2.644h2.643
					c0.105-8.773,7.03-14.588,14.482-14.588h3.806v2.643h-3.806c-6.078,0-11.734,4.758-11.84,11.945h12.475V734.015z"/>
				<path fill="#FFFFFF" d="M756.35,757.112c2.114,0,4.229-0.581,6.025-1.638l1.321,2.272c-2.22,1.321-4.757,2.009-7.347,2.009
					c-8.88,0-14.8-6.978-14.8-14.483c0-8.88,7.029-14.8,14.535-14.8c7.083,0,12.315,4.44,14.112,10.201l-26.005,4.546
					C744.192,751.404,749.055,757.112,756.35,757.112z M766.393,738.666c-2.062-3.277-5.709-5.55-10.308-5.55
					c-5.339,0-10.359,3.646-11.575,9.408L766.393,738.666z"/>
			</g>
		</g>
		<g>
			<g>
				<path fill="#FFFFFF" d="M57.727,684.565l10.994-23.573l2.378,1.162l-13.373,28.648l-7.664-16.438l-7.611,16.333l-13.373-28.648
					l2.379-1.11l10.994,23.521l6.184-13.214l-4.282-9.145l2.379-1.109L57.727,684.565z"/>
				<path fill="#FFFFFF" d="M91.979,687.578c2.114,0,4.229-0.581,6.025-1.639l1.321,2.273c-2.22,1.321-4.757,2.009-7.347,2.009
					c-8.88,0-14.8-6.978-14.8-14.483c0-8.88,7.03-14.8,14.535-14.8c7.083,0,12.315,4.44,14.113,10.202l-26.005,4.545
					C79.821,681.87,84.684,687.578,91.979,687.578z M102.021,669.132c-2.062-3.277-5.708-5.55-10.307-5.55
					c-5.338,0-10.36,3.646-11.575,9.408L102.021,669.132z"/>
				<path fill="#FFFFFF" d="M155.09,670.611c0-3.488-2.749-7.029-7.241-7.029c-4.07,0-7.347,1.797-9.515,4.439v21.513h-2.643
					v-42.285h2.643v18.288c1.956-2.748,5.021-4.599,9.515-4.599c6.237,0,9.884,4.863,9.884,9.62v18.976h-2.643V670.611z"/>
				<path fill="#FFFFFF" d="M182.258,660.938c4.545,0,7.611,1.851,9.514,4.599v-3.699h2.643v27.696h-2.643v-4.017
					c-2.009,2.959-5.127,4.704-9.197,4.704c-8.88,0-14.8-6.978-14.8-14.483C167.775,666.858,174.753,660.938,182.258,660.938z
					 M182.311,663.582c-6.184,0-11.893,4.862-11.893,12.104c0,6.185,4.863,11.893,12.104,11.893c3.594,0,7.03-1.639,9.25-4.439
					v-15.117C189.658,665.379,186.328,663.582,182.311,663.582z"/>
				<path fill="#FFFFFF" d="M216.51,684.46l10.994-23.521l2.378,1.11l-13.373,28.648l-13.373-28.648l2.379-1.11L216.51,684.46z"/>
				<path fill="#FFFFFF" d="M250.708,687.578c2.114,0,4.229-0.581,6.025-1.639l1.321,2.273c-2.22,1.321-4.757,2.009-7.347,2.009
					c-8.88,0-14.8-6.978-14.8-14.483c0-8.88,7.03-14.8,14.535-14.8c7.083,0,12.315,4.44,14.113,10.202l-26.005,4.545
					C238.551,681.87,243.414,687.578,250.708,687.578z M260.75,669.132c-2.062-3.277-5.708-5.55-10.307-5.55
					c-5.338,0-10.36,3.646-11.575,9.408L260.75,669.132z"/>
				<path fill="#FFFFFF" d="M296.958,652.218c1.375,0,2.537,1.163,2.537,2.537s-1.163,2.537-2.537,2.537s-2.537-1.163-2.537-2.537
					S295.583,652.218,296.958,652.218z M295.689,689.534v-27.696h2.643v27.696H295.689z"/>
				<path fill="#FFFFFF" d="M336.865,670.559v18.976h-2.643v-18.923c0-3.488-2.695-7.029-7.241-7.029
					c-7.294,0-12.157,5.708-12.157,11.893v14.06h-2.643v-27.696h2.643v7.029c0.74-3.383,6.872-7.929,12.21-7.929
					C333.218,660.938,336.865,665.802,336.865,670.559z"/>
				<path fill="#FFFFFF" d="M370.693,689.534v-42.285h2.643v42.285H370.693z"/>
				<path fill="#FFFFFF" d="M388.559,652.218c1.374,0,2.537,1.163,2.537,2.537s-1.163,2.537-2.537,2.537s-2.537-1.163-2.537-2.537
					S387.185,652.218,388.559,652.218z M387.29,689.534v-27.696h2.643v27.696H387.29z"/>
				<path fill="#FFFFFF" d="M418.898,664.48h-12.475v25.054h-2.643V664.48h-2.643v-2.643h2.643
					c0.105-8.774,7.03-14.589,14.482-14.589h3.806v2.643h-3.806c-6.078,0-11.734,4.757-11.84,11.946h12.475V664.48z"/>
				<path fill="#FFFFFF" d="M437.927,687.578c2.114,0,4.229-0.581,6.025-1.639l1.321,2.273c-2.22,1.321-4.757,2.009-7.347,2.009
					c-8.88,0-14.8-6.978-14.8-14.483c0-8.88,7.03-14.8,14.535-14.8c7.083,0,12.315,4.44,14.113,10.202l-26.006,4.545
					C425.77,681.87,430.632,687.578,437.927,687.578z M447.969,669.132c-2.061-3.277-5.708-5.55-10.307-5.55
					c-5.338,0-10.36,3.646-11.575,9.408L447.969,669.132z"/>
				<path fill="#FFFFFF" d="M463.88,683.139l-4.334,10.782l-2.22-0.792l3.383-11.048L463.88,683.139z"/>
				<path fill="#FFFFFF" d="M506.323,690.222c-4.07,0-7.188-1.745-9.197-4.704v4.017h-2.643v-42.285h2.643v18.288
					c1.903-2.748,4.969-4.599,9.515-4.599c7.506,0,14.482,5.92,14.482,14.8C521.123,683.244,515.203,690.222,506.323,690.222z
					 M497.126,683.139c2.22,2.801,5.656,4.439,9.25,4.439c7.241,0,12.104-5.708,12.104-11.893c0-7.241-5.709-12.104-11.893-12.104
					c-4.018,0-7.348,1.797-9.462,4.439V683.139z"/>
				<path fill="#FFFFFF" d="M531.166,680.602v-18.764h2.643v18.711c0,3.488,2.696,7.029,7.241,7.029
					c7.295,0,12.157-5.708,12.157-11.893v-13.848h2.643v27.696h-2.643v-7.241c-0.74,3.383-6.871,7.929-12.21,7.929
					C534.813,690.222,531.166,685.358,531.166,680.602z"/>
				<path fill="#FFFFFF" d="M568.536,680.496V664.48h-2.643v-2.643h2.643v-7.823h2.643v7.823h12.475v2.643h-12.475v15.963
					c0,3.488,2.749,7.029,7.241,7.029c1.269,0,2.537-0.37,3.647-1.004l1.321,2.272c-1.479,0.898-3.225,1.374-4.916,1.374
					C572.289,690.115,568.536,685.253,568.536,680.496z"/>
			</g>
		</g>
		<g>
			<g>
				<path fill="#FFFFFF" d="M352.049,806.271v-17.49h-2.886v-2.886h2.886v-8.544h2.886v8.544h13.623v2.886h-13.623v17.433
					c0,3.81,3.002,7.678,7.908,7.678c1.385,0,2.771-0.404,3.983-1.097l1.443,2.481c-1.616,0.981-3.521,1.501-5.369,1.501
					C356.148,816.777,352.049,811.467,352.049,806.271z"/>
				<path fill="#FFFFFF" d="M400.136,795.478c0-3.81-3.002-7.678-7.908-7.678c-4.445,0-8.024,1.963-10.391,4.849v23.494h-2.886
					v-46.18h2.886v19.973c2.136-3.001,5.484-5.021,10.391-5.021c6.811,0,10.794,5.311,10.794,10.506v20.723h-2.886V795.478z"/>
				<path fill="#FFFFFF" d="M429.811,784.914c4.964,0,8.313,2.021,10.391,5.021v-4.04h2.886v30.247h-2.886v-4.387
					c-2.193,3.232-5.6,5.137-10.044,5.137c-9.698,0-16.163-7.619-16.163-15.816C413.994,791.379,421.614,784.914,429.811,784.914z
					 M429.868,787.8c-6.753,0-12.988,5.311-12.988,13.219c0,6.754,5.311,12.988,13.219,12.988c3.925,0,7.677-1.789,10.102-4.849
					v-16.51C437.892,789.763,434.255,787.8,429.868,787.8z"/>
				<path fill="#FFFFFF" d="M456.945,806.271v-17.49h-2.886v-2.886h2.886v-8.544h2.887v8.544h13.622v2.886h-13.622v17.433
					c0,3.81,3.001,7.678,7.908,7.678c1.385,0,2.771-0.404,3.982-1.097l1.443,2.481c-1.616,0.981-3.521,1.501-5.368,1.501
					C461.044,816.777,456.945,811.467,456.945,806.271z"/>
				<path fill="#FFFFFF" d="M548.096,772.734v43.408h-3.117v-34.865l-17.433,20.838l-17.49-20.838v34.865h-3.117v-43.408
					l20.607,24.532L548.096,772.734z"/>
				<path fill="#FFFFFF" d="M577.888,772.792l19.915,42.716l-2.828,1.327l-7.273-15.585h-19.684l-7.273,15.585l-2.829-1.327
					L577.888,772.792z M577.83,780.123l-8.37,18.01h16.798L577.83,780.123z"/>
				<path fill="#FFFFFF" d="M616.279,816.143v-38.906h-14.432v-3.117h31.748v3.117h-14.2v38.906H616.279z"/>
				<path fill="#FFFFFF" d="M650.341,816.143v-38.906h-14.432v-3.117h31.748v3.117h-14.2v38.906H650.341z"/>
				<path fill="#FFFFFF" d="M691.559,795.478h-12.699v17.548h18.125v3.117h-21.242v-42.023h19.049v3.117h-15.932v15.124h12.699
					V795.478z"/>
				<path fill="#FFFFFF" d="M724.466,800.73c-1.443,0-3.29-0.347-3.637-0.462l14.662,14.72l-2.193,2.193l-19.049-19.049h8.428
					c4.906,0,10.159-3.867,10.159-10.621c0-4.849-3.694-10.275-10.274-10.275h-9.756v38.906h-3.117v-42.023h12.873
					c8.485,0,13.392,6.869,13.392,13.393C735.953,794.785,730.643,800.73,724.466,800.73z"/>
				<path fill="#FFFFFF" d="M757.084,817.412c-4.388,0-12.18-2.136-13.046-13.276l3.117-0.173
					c0.692,8.658,6.292,10.332,9.986,10.332c6.638,0,10.506-5.368,10.506-9.985c0-3.753-1.732-6.177-11.314-8.659
					c-5.368-1.443-10.447-4.387-10.447-10.794c0-8.313,6.695-11.487,11.371-11.487c7.101,0,11.545,5.195,11.833,11.487l-3.116,0.173
					c-0.231-4.733-3.464-8.543-8.659-8.543c-3.752,0-8.313,2.482-8.313,8.254c0,4.733,3.753,6.754,8.14,7.851
					c11.198,2.944,13.623,6.639,13.623,11.719C770.765,810.428,765.8,817.412,757.084,817.412z"/>
			</g>
		</g>
	</g>
</g>
</svg>
