<?xml version="1.0" encoding="utf-8"?>
<!-- Generator: Adobe Illustrator 20.1.0, SVG Export Plug-In . SVG Version: 6.00 Build 0)  -->
<svg version="1.1" id="Layer_1" xmlns="http://www.w3.org/2000/svg" xmlns:xlink="http://www.w3.org/1999/xlink" x="0px" y="0px"
	 viewBox="0 0 1296 864" style="enable-background:new 0 0 1296 864;" xml:space="preserve">
<style type="text/css">
	.st0{fill:#CCCCCC;}
	.st1{opacity:0.63;fill:#FFFFFF;enable-background:new    ;}
	.st2{enable-background:new    ;}
	.st3{fill:#C0649C;}
	.st4{fill:#5E5E5E;}
</style>
<rect id="photo" y="0" class="st0" width="1296" height="864"/>
<rect x="842.1" class="st1" width="453.9" height="864"/>
<g id="fill-heart">
	<g class="st2">
		<path class="st3" d="M1028,627.3c-26.3,20.2-68.8,33.5-102.9,44.4c-4.2,11.5-8.1,34.7-10.3,48.3c7.2-11.2,15.4-20.2,25-33.2
			c1.8-7.8,14.8-19.9,12.4-5.7c-1.8,11.5-3.6,24.1-3.6,32.6c0,17.8,3.6,24.4,16.3,15.1c8.8-6.3,16.9-18.1,18.4-19.6
			c0.9-0.9,1.5,1.8,1.5,1.8c-0.9,2.4-25,36.8-41,28.7c-11.8-5.7-6-43.5-5.7-43.8c0-1.5-15.1,18.1-23.8,29.3
			c-0.9,13-10.9,18.1-10.9,15.1c-0.6-11.5,6.6-53.7,11.2-65.5c-6.9,1.8-9.7,4.5-10,7.5c-0.6,4.2-3.6,4.8-3.3,0
			c0.3-6.6,9.4-11.2,15.4-13c9.7-31.7,30.5-70,56.4-89.6c8.8-6.9,18.7-11.5,28.4-13.6c16.9-3.6,35,2.7,41.6,19.6
			C1048.8,601.1,1041.9,616.8,1028,627.3z M1000.3,575.1c-49.2,9.7-61.3,57.9-73.9,91.4c26-7.2,78.8-31.4,99.6-47.1
			c9.4-7.2,19-18.7,14.5-30.5C1034.7,573.9,1013.8,572.4,1000.3,575.1z"/>
		<path class="st3" d="M983.7,738.4c-4.2-3.9-7.8-13.9-5.7-27.2c2.1-11.2,10-28.1,20.8-38.6c8.4-8.1,20.2-10,30.8-3.3
			c9.1,5.7,6,17.8-0.9,27.5h6c5.1,0-2.7,2.7-9.4,4.2c-1.8,2.1-3.9,4.2-6,5.7c-5.7,4.2-5.4,0.9-3-1.5l3-3.3
			c-12.1,0.9-15.7,0.3-26,2.1c-1.8,4.5-3,10-3.3,15.7c-0.9,15.7,9.4,19.6,17.2,18.4c16-2.7,31.7-16.3,37.4-22.3
			c1.8-1.8,4.2-0.6,0.9,3.3C1035,731.4,1000.9,754.1,983.7,738.4z M1009.3,681c-3.9,3.6-9.1,9.1-13,16.6c11.2-0.3,17.2-0.6,26-0.6
			c2.1-4.2,3.9-8.4,4.5-10.9C1031,667.8,1016.9,673.5,1009.3,681z"/>
		<path class="st3" d="M1100.4,740.2c-12.4-4.2-11.2-30.5-11.2-30.8c0-0.9-18.7,33.8-32.3,32c-20.2-3-6-43.8,16.6-65.2
			c11.8-10.9,25.7-16.6,38.6-10c7.5,4.2,6.3,15.7-0.6,16.9c6.6-11.8-6-18.7-21.4-5.4c-12.1,10.3-25,28.4-30.5,41.3
			c-5.7,14.8-3.6,22.6,10.3,9.1c6.6-6.3,15.1-18.7,22.3-29.3c5.1-6.9,10-9.7,9.7,0.3c-0.6,8.1-0.9,16.9,0,22.9
			c2.4,12.4,6.6,16.9,18.1,10.6c8.1-4.5,14.8-12.7,16-13.9c0.9-0.6,2.1,1.2,2.1,1.2C1137.3,721.8,1117.3,745.6,1100.4,740.2z"/>
		<path class="st3" d="M1146.3,703.7c-7.8,12.1-13.3,28.7-15.1,34.7c-0.9,3.6-6,2.7-5.4-0.6c2.7-11.2,7.5-54.6,7.8-62.8
			c0.6-7.8,18.1-11.5,15.7-3.6c-1.5,4.5-7.5,29.3-9.7,33.8c9.1-15.7,27.5-36.8,35.9-36.5c13,0,13,22.9,8.1,13.6
			C1176.5,667.8,1159.3,683.8,1146.3,703.7z"/>
		<path class="st3" d="M1207.9,674.4c0,0-10.6,26-13.9,43.5c-4.8,25.6,10.9,17.2,26,9.1c8.8-4.8,19.3-16.9,19.6-12.1
			c0,4.2-27.5,27.2-43.2,26.9c-11.2-0.6-16-3-12.1-25c2.4-13.3,14.2-41.9,13.6-41.9c-5.4,0-18.1,2.1-22.3,2.7
			c-1.5,0.3-2.7-6,0.9-7.5s16.3-2.1,23.5-2.4c0,0,9.4-32,13.9-41.3c3-6.6,13,6.6,10.6,11.8l-14.8,29.6c12.1-0.6,30.8,0.3,30.8,2.4
			C1240.5,671.4,1212.7,672.9,1207.9,674.4z"/>
	</g>
</g>
<g id="fill-gray">
	<g>
		<g class="st2">
			<path class="st4" d="M1002.5,529.4c-15.6-7-11.3-32.5-8-51.8c-5.3,5.6-20.3,21.6-29.2,33.9c-0.3,14.3-19.3,22.9-18.3,19.6
				c4-12.3,9.6-51.1,9.6-63.4c-8.6,11.6-37.5,47.5-40.8,57.1c-3.7,9.6-15.9,13.6-14.3,7.3c1.7-7.3,12.6-45.5,10-69.1
				c-1-10,20.9-16.9,16.9-6.6c-4.3,10.6-8.6,52.8-10.3,55.4c10-9,23.2-28.9,32.5-44.5c7-11.3,17.6-19.6,17.6,4
				c0,12-1.3,26.2-2.7,34.2c10.3-12.3,19.6-21.6,31.2-38.2c2.7-9.6,17.3-23.2,14.3-6.3c-2.3,13.3-5,28.2-6.3,38.5
				c-2.3,20.6,8.3,27.9,25.2,16.9c11.6-7.3,22.2-21.2,23.9-22.9c1.7-1,2.3,2,2.3,2C1054.9,498.2,1023.4,539,1002.5,529.4z"/>
			<path class="st4" d="M1125.6,472.9c-8.6,4.3-21.9,4.6-27.2,2.3c0.7,6.3-4,22.6-12,36.2c-24.6,43.2-57.1,17.3-42.8-24.6
				c4.6-14.3,15.3-37.5,30.2-38.8c6.3-7.3,24.6,3.7,25.9,16.3c7.6,9,18.9,4,28.6,4C1129.9,468.3,1129.3,470.9,1125.6,472.9z
				 M1077.5,459.3c-8,2-17.9,20.9-22.6,38.2c-8.6,32.2,8.6,39.8,24.9,13.9c8-12.6,12.9-32.5,12-37.8
				C1077.5,471.3,1077.5,459.3,1077.5,459.3z"/>
			<path class="st4" d="M1171.8,514.8c-6.3,4.3-21.2,12.3-21.2,12.6c-4.6,9-37.8,13.9-46.5,9.6c-4-2.3-3-10,8.6-10.6
				c8-0.7,27.6-1.3,34.5-3.3c4.6-7.3,2.7-12.9-5-19.6c-12-10.3-23.6-26.9-15.9-39.8c19.6-32.5,48.8-15.9,44.5-5.3
				c-0.7,2.3-2.7,1.3-3-0.7c-1.3-12.9-24.6-1.7-30.9,14.3c-8.3,21.9,25.6,30.2,16.3,49.1c0,0,16.9-8,26.2-14.6
				C1180.4,505.5,1181.4,508.1,1171.8,514.8z"/>
			<path class="st4" d="M1211.3,457.3c0,0-11.6,28.6-15.3,47.8c-5.3,28.2,12,18.9,28.6,10c9.6-5.3,21.2-18.6,21.6-13.3
				c0,4.6-30.2,29.9-47.5,29.5c-12.3-0.7-17.6-3.3-13.3-27.6c2.7-14.6,15.6-46.1,14.9-46.1c-6,0-19.9,2.3-24.6,3
				c-1.7,0.3-3-6.6,1-8.3c4-1.7,17.9-2.3,25.9-2.7c0,0,10.3-35.2,15.3-45.5c3.3-7.3,14.3,7.3,11.6,12.9l-16.3,32.5
				c13.3-0.7,33.9,0.3,33.9,2.7C1247.1,454,1216.6,455.7,1211.3,457.3z"/>
		</g>
	</g>
	<g>
		<g class="st2">
			<path class="st4" d="M1076.9,563c-8.2,0-15.4,6.2-15.4,17.8v14.6h-3.4v-35.5h3.4v10.1c2.8-6.3,8.7-10.9,15.7-10.7v3.8H1076.9z"/>
			<path class="st4" d="M1099.9,596.2c-10.5,0-18.2-8.5-18.2-18.5v-0.1c0-10,7.7-18.6,18.3-18.6c10.5,0,18.2,8.5,18.2,18.5v0.1
				C1118.2,587.6,1110.5,596.2,1099.9,596.2z M1114.6,577.6c0-8.6-6.4-15.4-14.6-15.4c-8.4,0-14.5,6.9-14.5,15.3v0.1
				c0,8.6,6.4,15.4,14.6,15.4c8.4,0,14.5-6.9,14.5-15.3V577.6z"/>
			<path class="st4" d="M1144.5,596.2c-10.5,0-18.2-8.5-18.2-18.5v-0.1c0-10,7.7-18.6,18.3-18.6c10.5,0,18.2,8.5,18.2,18.5v0.1
				C1162.8,587.6,1155.1,596.2,1144.5,596.2z M1159.2,577.6c0-8.6-6.4-15.4-14.6-15.4c-8.4,0-14.5,6.9-14.5,15.3v0.1
				c0,8.6,6.4,15.4,14.6,15.4c8.4,0,14.5-6.9,14.5-15.3V577.6z"/>
			<path class="st4" d="M1223.7,595.4v-21.1c0-7.7-4-12.1-10.5-12.1c-6,0-11.2,4.6-11.2,12.5v20.7h-3.4V574c0-7.4-4-11.9-10.4-11.9
				c-6.3,0-11.4,5.6-11.4,12.8v20.5h-3.4v-35.5h3.4v6.3c2.3-3.7,5.5-7.2,11.8-7.2c6.2,0,10,3.6,12,7.7c2.3-4,6.1-7.7,12.8-7.7
				c8.4,0,13.7,5.9,13.7,14.8v21.5H1223.7z"/>
		</g>
	</g>
	<g>
		<g class="st2">
			<path class="st4" d="M906.8,423.6c-4.3,0-7.8-2.3-7.8-7.6v-18.2h-4v-2.5h4v-8.9h2.7v8.9h9.7v2.5h-9.7v17.9c0,4,2.3,5.4,5.6,5.4
				c1.4,0,2.5-0.3,4.1-1v2.5C909.9,423.3,908.6,423.6,906.8,423.6z"/>
			<path class="st4" d="M938.4,423.1v-4.6c-1.9,2.7-5.3,5.3-10.6,5.3c-5.2,0-10.7-2.9-10.7-8.7V415c0-5.8,5-9,12.1-9
				c3.9,0,6.5,0.5,9.2,1.2V406c0-5.6-3.4-8.5-9.1-8.5c-3.4,0-6.2,0.9-8.7,2.2l-1-2.3c3-1.4,6-2.4,9.9-2.4c7.1,0,11.6,3.7,11.6,10.9
				v17.3H938.4z M938.4,409.6c-2.3-0.6-5.4-1.3-9.4-1.3c-5.9,0-9.1,2.6-9.1,6.5v0.1c0,4,3.8,6.4,8.1,6.4c5.7,0,10.5-3.5,10.5-8.5
				V409.6z"/>
			<path class="st4" d="M971,423.1l-11-13.6l-6.7,6.8v6.7h-2.7v-39.7h2.7v29.8l17.2-17.8h3.5l-12.1,12.3l12.5,15.5H971z"/>
			<path class="st4" d="M991.5,421.3c4.3,0,7.2-1.9,9.5-4.4l1.9,1.6c-2.8,3-6.2,5.2-11.5,5.2c-7.3,0-13.6-5.8-13.6-14.5v-0.1
				c0-8.1,5.7-14.5,13.2-14.5c7.8,0,12.7,6.3,12.7,14.5v0.1c0,0.4,0,0.5-0.1,1h-23C981.1,417.3,986.1,421.3,991.5,421.3z
				 M1000.8,408c-0.4-5.6-3.6-10.8-10-10.8c-5.5,0-9.7,4.6-10.2,10.8H1000.8z"/>
			<path class="st4" d="M1048.4,423.1V418c-1.9,3.3-5,5.8-10,5.8c-7,0-11.1-4.8-11.1-11.4v-17h2.7v16.5c0,5.7,3.2,9.5,8.8,9.5
				c5.4,0,9.6-4.1,9.6-9.9v-16.1h2.7v27.8H1048.4z"/>
			<path class="st4" d="M1075.3,423.8c-5.6,0-9.1-3.2-11.4-6.6v14.7h-2.7v-36.5h2.7v6.2c2.4-3.6,5.9-6.9,11.4-6.9
				c6.7,0,13.5,5.4,13.5,14.4v0.1C1088.8,418.3,1082,423.8,1075.3,423.8z M1085.9,409.3c0-7.3-5.1-12-10.9-12
				c-5.8,0-11.3,4.8-11.3,11.9v0.1c0,7.1,5.6,11.9,11.3,11.9c6,0,10.9-4.4,10.9-11.9V409.3z"/>
			<path class="st4" d="M1122.7,423.6c-4.3,0-7.8-2.3-7.8-7.6v-18.2h-4v-2.5h4v-8.9h2.7v8.9h9.7v2.5h-9.7v17.9c0,4,2.3,5.4,5.6,5.4
				c1.4,0,2.5-0.3,4.1-1v2.5C1125.8,423.3,1124.4,423.6,1122.7,423.6z"/>
			<path class="st4" d="M1156.3,423.1v-16.5c0-5.7-3.2-9.5-8.8-9.5c-5.4,0-9.6,4.1-9.6,9.9v16.1h-2.7v-39.7h2.7v17.1
				c1.8-3.3,5-5.8,10-5.8c7,0,11.1,4.8,11.1,11.4v17H1156.3z"/>
			<path class="st4" d="M1180.4,421.3c4.3,0,7.2-1.9,9.5-4.4l1.9,1.6c-2.8,3-6.2,5.2-11.5,5.2c-7.3,0-13.6-5.8-13.6-14.5v-0.1
				c0-8.1,5.7-14.5,13.2-14.5c7.8,0,12.7,6.3,12.7,14.5v0.1c0,0.4,0,0.5-0.1,1h-23C1170,417.3,1174.9,421.3,1180.4,421.3z
				 M1189.7,408c-0.4-5.6-3.6-10.8-10-10.8c-5.5,0-9.7,4.6-10.2,10.8H1189.7z"/>
		</g>
	</g>
	<g>
		<g class="st2">
			<path class="st4" d="M920.2,307.8v57.9h-4.6v-57.9H894v-4.3h47.9v4.3H920.2z"/>
			<path class="st4" d="M1000.3,365.6v-29.1h-39.8v29.1h-4.6v-62.1h4.6v28.7h39.8v-28.7h4.6v62.1H1000.3z"/>
			<path class="st4" d="M1024,365.6v-62.1h4.6v62.1H1024z"/>
			<path class="st4" d="M1095.8,365.6l-43.7-55.2v55.2h-4.4v-62.1h4.3l42.9,54v-54h4.4v62.1H1095.8z"/>
			<path class="st4" d="M1146.2,366.7c-19.6,0-31.2-14.5-31.2-31.9v-0.2c0-16.8,12.2-32.1,30.7-32.1c10.1,0,16.5,3,22.7,8.2l-3,3.5
				c-4.9-4.3-10.6-7.5-20-7.5c-15.1,0-25.6,12.8-25.6,27.8v0.2c0,16.1,10,28,26.6,28c7.9,0,15.3-3.3,19.8-7.1v-17.8h-20.8v-4.3h25.2
				v24C1165,362.3,1156.4,366.7,1146.2,366.7z"/>
			<path class="st4" d="M1208.4,366.5c-9.9,0-17.6-3.3-25-9.9l3-3.5c6.8,6.3,13.1,9.2,22.3,9.2c9.3,0,15.7-5.2,15.7-12.3v-0.2
				c0-6.6-3.5-10.4-17.6-13.2c-14.9-3-20.9-8.1-20.9-17.5V319c0-9.2,8.4-16.3,20-16.3c9.1,0,15,2.5,21.3,7.5l-2.9,3.6
				c-5.9-5.1-11.7-7-18.5-7c-9.1,0-15.2,5.2-15.2,11.7v0.2c0,6.6,3.4,10.6,18.1,13.6c14.4,2.9,20.4,8.1,20.4,17.1v0.2
				C1228.9,359.6,1220.3,366.5,1208.4,366.5z"/>
		</g>
	</g>
	<g>
		<g class="st2">
			<path class="st4" d="M902.7,142.3c-3.5,0-7.4-1.4-9.9-3.5l1.4-1.9c2.7,2,5.6,3.2,8.7,3.2c3.3,0,5.8-1.8,5.8-4.6v-0.1
				c0-2.9-3-3.9-6.4-4.8c-3.9-1.1-8.3-2.3-8.3-6.7v-0.1c0-3.9,3.3-6.7,8-6.7c2.9,0,6.2,1,8.6,2.7l-1.2,1.9c-2.2-1.5-4.9-2.4-7.5-2.4
				c-3.3,0-5.5,1.8-5.5,4.2v0.1c0,2.7,3.3,3.7,6.7,4.7c3.9,1.1,8,2.5,8,6.8v0.1C911,139.5,907.3,142.3,902.7,142.3z"/>
			<path class="st4" d="M929.2,142.4c-7.2,0-12.4-5.8-12.4-12.6v-0.1c0-6.8,5.3-12.7,12.5-12.7c7.2,0,12.4,5.8,12.4,12.6v0.1
				C941.7,136.5,936.4,142.4,929.2,142.4z M939.1,129.7c0-5.8-4.4-10.5-10-10.5c-5.8,0-9.9,4.7-9.9,10.4v0.1c0,5.8,4.4,10.5,10,10.5
				C935,140.2,939.1,135.5,939.1,129.7L939.1,129.7z"/>
			<path class="st4" d="M983.1,141.8v-14.4c0-5.2-2.7-8.3-7.2-8.3c-4.1,0-7.7,3.1-7.7,8.6v14.1H966v-14.5c0-5-2.8-8.1-7.1-8.1
				c-4.3,0-7.7,3.8-7.7,8.7v14h-2.3v-24.2h2.3v4.3c1.6-2.5,3.8-4.9,8.1-4.9c4.2,0,6.8,2.4,8.2,5.2c1.6-2.7,4.2-5.2,8.7-5.2
				c5.7,0,9.3,4,9.3,10.1v14.7H983.1z"/>
			<path class="st4" d="M1004.3,140.2c3.8,0,6.3-1.7,8.3-3.8l1.6,1.4c-2.5,2.7-5.4,4.6-10,4.6c-6.4,0-11.9-5.1-11.9-12.6v-0.1
				c0-7,4.9-12.6,11.5-12.6c6.8,0,11.1,5.5,11.1,12.7v0.1c0,0.3,0,0.5,0,0.9h-20.1C995.3,136.7,999.6,140.2,1004.3,140.2z
				 M1012.5,128.6c-0.3-4.9-3.1-9.4-8.7-9.4c-4.8,0-8.5,4-8.9,9.4H1012.5z"/>
			<path class="st4" d="M1029.9,142.2c-3.8,0-6.8-2-6.8-6.7v-15.9h-3.5v-2.1h3.5v-7.7h2.3v7.7h8.5v2.1h-8.5v15.6
				c0,3.5,2,4.7,4.8,4.7c1.2,0,2.2-0.2,3.6-0.9v2.2C1032.6,142,1031.4,142.2,1029.9,142.2z"/>
			<path class="st4" d="M1040.8,111.3v-3.2h2.9v3.2H1040.8z M1041.1,141.8v-24.2h2.3v24.2H1041.1z"/>
			<path class="st4" d="M1086.9,141.8v-14.4c0-5.2-2.7-8.3-7.2-8.3c-4.1,0-7.7,3.1-7.7,8.6v14.1h-2.3v-14.5c0-5-2.8-8.1-7.1-8.1
				c-4.3,0-7.7,3.8-7.7,8.7v14h-2.3v-24.2h2.3v4.3c1.6-2.5,3.8-4.9,8.1-4.9c4.2,0,6.8,2.4,8.2,5.2c1.6-2.7,4.2-5.2,8.7-5.2
				c5.7,0,9.3,4,9.3,10.1v14.7H1086.9z"/>
			<path class="st4" d="M1108.1,140.2c3.8,0,6.3-1.7,8.3-3.8l1.6,1.4c-2.5,2.7-5.4,4.6-10,4.6c-6.4,0-11.9-5.1-11.9-12.6v-0.1
				c0-7,4.9-12.6,11.5-12.6c6.8,0,11.1,5.5,11.1,12.7v0.1c0,0.3,0,0.5,0,0.9h-20.1C1099,136.7,1103.4,140.2,1108.1,140.2z
				 M1116.2,128.6c-0.3-4.9-3.1-9.4-8.7-9.4c-4.8,0-8.5,4-8.9,9.4H1116.2z"/>
			<path class="st4" d="M1133.4,142.3c-3.5,0-7.4-1.4-9.9-3.5l1.4-1.9c2.7,2,5.6,3.2,8.7,3.2c3.3,0,5.8-1.8,5.8-4.6v-0.1
				c0-2.9-3-3.9-6.4-4.8c-3.9-1.1-8.3-2.3-8.3-6.7v-0.1c0-3.9,3.3-6.7,8-6.7c2.9,0,6.2,1,8.6,2.7l-1.2,1.9c-2.2-1.5-4.9-2.4-7.5-2.4
				c-3.3,0-5.5,1.8-5.5,4.2v0.1c0,2.7,3.3,3.7,6.7,4.7c3.9,1.1,8,2.5,8,6.8v0.1C1141.8,139.5,1138.1,142.3,1133.4,142.3z"/>
			<path class="st4" d="M1171.5,142.2c-3.8,0-6.8-2-6.8-6.7v-15.9h-3.5v-2.1h3.5v-7.7h2.3v7.7h8.5v2.1h-8.5v15.6
				c0,3.5,2,4.7,4.8,4.7c1.2,0,2.2-0.2,3.6-0.9v2.2C1174.2,142,1173,142.2,1171.5,142.2z"/>
			<path class="st4" d="M1200.9,141.8v-14.4c0-5-2.8-8.3-7.7-8.3c-4.8,0-8.4,3.6-8.4,8.6v14h-2.3v-34.7h2.3v15
				c1.6-2.9,4.3-5.1,8.7-5.1c6.1,0,9.7,4.2,9.7,10v14.8H1200.9z"/>
			<path class="st4" d="M1221.9,140.2c3.8,0,6.3-1.7,8.3-3.8l1.6,1.4c-2.5,2.7-5.4,4.6-10,4.6c-6.4,0-11.9-5.1-11.9-12.6v-0.1
				c0-7,4.9-12.6,11.5-12.6c6.8,0,11.1,5.5,11.1,12.7v0.1c0,0.3,0,0.5,0,0.9h-20.1C1212.8,136.7,1217.1,140.2,1221.9,140.2z
				 M1230,128.6c-0.3-4.9-3.1-9.4-8.7-9.4c-4.8,0-8.5,4-8.9,9.4H1230z"/>
		</g>
	</g>
	<g>
		<g class="st2">
			<path class="st4" d="M909.9,237.9c-3.6,12.7-8.6,34.8-2.6,39.1c5.8,4.1,22.5-3.8,29.5-13c4.6-5.8,3.4,1,1.7,3.1
				c-5,6.5-23.7,17.3-32.4,15.1c-7.9-1.9-12.5-9.6-7.2-34.1c-3.4,0.7-3.8-1.9,1.9-7.9c6.2-25.9,17-62.1,37.9-79.6
				c8.4-7,19.2-5.8,18.9,4.3C957.2,191.9,928.1,219.9,909.9,237.9z M941.3,166.7c-9.8,11.5-25.7,48.7-30.7,66
				c12.5-11.8,42.9-47,43.4-66.2C954.3,155.9,946.8,160,941.3,166.7z"/>
			<path class="st4" d="M957.2,275.1c-13.9,10.3-23,8.4-20.9-13.4c1-9.6,7-28.8,7.9-32.1c0.5-2.4,10.3-2.6,10.3,1
				c0,2.4-2.4,11.3-6,12c-1.2,0.2-2.4,10.8-3.6,20.6c-1.4,9.6,0,17.8,11,8.6c4.1-3.4,11.8-8.9,14.6-12.2c1.2-1,2.4-0.2,1.7,1.2
				C970.8,263.1,964.1,270.1,957.2,275.1z M956.4,217.5c-3.1,0.7-8.9-1.4-7.2-2.9c7.4-6.2,15.4-8.4,15.4-6
				C964.6,210.1,959.8,216.6,956.4,217.5z"/>
			<path class="st4" d="M990.3,229c0,0-8.4,20.6-11,34.5c-3.8,20.4,8.6,13.7,20.6,7.2c7-3.8,15.4-13.4,15.6-9.6
				c0,3.4-21.8,21.6-34.3,21.3c-8.9-0.5-12.7-2.4-9.6-19.9c1.9-10.6,11.3-33.3,10.8-33.3c-4.3,0-14.4,1.7-17.8,2.2
				c-1.2,0.2-2.2-4.8,0.7-6c2.9-1.2,13-1.7,18.7-1.9c0,0,7.4-25.4,11-32.9c2.4-5.3,10.3,5.3,8.4,9.4l-11.8,23.5
				c9.6-0.5,24.5,0.2,24.5,1.9C1016.2,226.6,994.1,227.8,990.3,229z"/>
			<path class="st4" d="M1030.3,229c0,0-8.4,20.6-11,34.5c-3.8,20.4,8.6,13.7,20.6,7.2c7-3.8,15.4-13.4,15.6-9.6
				c0,3.4-21.8,21.6-34.3,21.3c-8.9-0.5-12.7-2.4-9.6-19.9c1.9-10.6,11.3-33.3,10.8-33.3c-4.3,0-14.4,1.7-17.8,2.2
				c-1.2,0.2-2.2-4.8,0.7-6c2.9-1.2,13-1.7,18.7-1.9c0,0,7.4-25.4,11-32.9c2.4-5.3,10.3,5.3,8.4,9.4l-11.8,23.5
				c9.6-0.5,24.5,0.2,24.5,1.9C1056.2,226.6,1034.2,227.8,1030.3,229z"/>
			<path class="st4" d="M1063.9,237.9c-3.6,12.7-8.6,34.8-2.6,39.1c5.8,4.1,22.5-3.8,29.5-13c4.6-5.8,3.4,1,1.7,3.1
				c-5,6.5-23.7,17.3-32.4,15.1c-7.9-1.9-12.5-9.6-7.2-34.1c-3.4,0.7-3.8-1.9,1.9-7.9c6.2-25.9,17-62.1,37.9-79.6
				c8.4-7,19.2-5.8,18.9,4.3C1111.2,191.9,1082.1,219.9,1063.9,237.9z M1095.3,166.7c-9.8,11.5-25.7,48.7-30.7,66
				c12.5-11.8,42.9-47,43.4-66.2C1108.3,155.9,1100.8,160,1095.3,166.7z"/>
			<path class="st4" d="M1092.9,279.9c-3.4-3.1-6.2-11-4.6-21.6c1.7-8.9,7.9-22.3,16.6-30.7c6.7-6.5,16.1-7.9,24.5-2.6
				c7.2,4.6,4.8,14.2-0.7,21.8h4.8c4.1,0-2.2,2.2-7.4,3.4c-1.4,1.7-3.1,3.4-4.8,4.6c-4.6,3.4-4.3,0.7-2.4-1.2l2.4-2.6
				c-9.6,0.7-12.5,0.2-20.6,1.7c-1.4,3.6-2.4,7.9-2.6,12.5c-0.7,12.5,7.4,15.6,13.7,14.6c12.7-2.2,25.2-13,29.7-17.8
				c1.4-1.4,3.4-0.5,0.7,2.6C1133.7,274.4,1106.6,292.4,1092.9,279.9z M1113.3,234.3c-3.1,2.9-7.2,7.2-10.3,13.2
				c8.9-0.2,13.7-0.5,20.6-0.5c1.7-3.4,3.1-6.7,3.6-8.6C1130.6,223.8,1119.3,228.3,1113.3,234.3z"/>
			<path class="st4" d="M1183.1,270.5c-4.6,3.1-15.4,8.9-15.4,9.1c-3.4,6.5-27.3,10.1-33.6,7c-2.9-1.7-2.2-7.2,6.2-7.7
				c5.8-0.5,19.9-1,24.9-2.4c3.4-5.3,1.9-9.4-3.6-14.2c-8.6-7.4-17-19.4-11.5-28.8c14.2-23.5,35.3-11.5,32.1-3.8
				c-0.5,1.7-1.9,1-2.2-0.5c-1-9.4-17.8-1.2-22.3,10.3c-6,15.8,18.5,21.8,11.8,35.5c0,0,12.2-5.8,19-10.6
				C1189.3,263.8,1190.1,265.7,1183.1,270.5z"/>
			<path class="st4" d="M1211.6,229c0,0-8.4,20.6-11,34.5c-3.8,20.4,8.6,13.7,20.6,7.2c7-3.8,15.4-13.4,15.6-9.6
				c0,3.4-21.8,21.6-34.3,21.3c-8.9-0.5-12.7-2.4-9.6-19.9c1.9-10.6,11.3-33.3,10.8-33.3c-4.3,0-14.4,1.7-17.8,2.2
				c-1.2,0.2-2.2-4.8,0.7-6c2.9-1.2,13-1.7,18.7-1.9c0,0,7.4-25.4,11-32.9c2.4-5.3,10.3,5.3,8.4,9.4l-11.8,23.5
				c9.6-0.5,24.5,0.2,24.5,1.9C1237.6,226.6,1215.5,227.8,1211.6,229z"/>
		</g>
	</g>
	<g class="st2">
		<path class="st4" d="M1059.1,614.5v-2.8h2.5v2.8H1059.1z M1059.4,641.2V620h2v21.2H1059.4z"/>
		<path class="st4" d="M1085.6,641.2v-12.6c0-4.4-2.5-7.2-6.7-7.2c-4.2,0-7.4,3.2-7.4,7.6v12.3h-2V620h2v3.9
			c1.4-2.5,3.8-4.4,7.6-4.4c5.4,0,8.5,3.7,8.5,8.7v13H1085.6z"/>
		<path class="st4" d="M1117,642c-1.9,4.4-4,6-7.1,6c-1.6,0-2.8-0.3-4.2-0.9l0.7-1.8c1.1,0.5,2,0.8,3.6,0.8c2.2,0,3.7-1.3,5.2-5
			l-10.2-21.1h2.4l8.8,19l7.6-19h2.2L1117,642z"/>
		<path class="st4" d="M1140,641.7c-6.3,0-10.8-5.1-10.8-11v-0.1c0-5.9,4.6-11.1,10.9-11.1c6.3,0,10.8,5.1,10.8,11v0.1
			C1150.9,636.6,1146.3,641.7,1140,641.7z M1148.7,630.6c0-5.1-3.8-9.2-8.7-9.2c-5,0-8.6,4.1-8.6,9.1v0.1c0,5.1,3.8,9.2,8.7,9.2
			C1145.1,639.8,1148.7,635.7,1148.7,630.6L1148.7,630.6z"/>
		<path class="st4" d="M1172.9,641.2v-3.9c-1.4,2.5-3.8,4.4-7.6,4.4c-5.4,0-8.5-3.7-8.5-8.7v-13h2v12.6c0,4.4,2.5,7.2,6.7,7.2
			c4.2,0,7.4-3.2,7.4-7.6V620h2v21.2H1172.9z"/>
		<path class="st4" d="M1193.9,621.9c-4.9,0-9.2,3.7-9.2,10.6v8.7h-2V620h2v6c1.7-3.8,5.2-6.5,9.4-6.4v2.2H1193.9z"/>
	</g>
</g>
</svg>
