<?xml version="1.0" encoding="utf-8"?>
<!-- Generator: Adobe Illustrator 14.0.0, SVG Export Plug-In . SVG Version: 6.00 Build 43363)  -->
<!DOCTYPE svg PUBLIC "-//W3C//DTD SVG 1.1//EN" "http://www.w3.org/Graphics/SVG/1.1/DTD/svg11.dtd">
<svg version="1.1" id="Layer_1" xmlns="http://www.w3.org/2000/svg" xmlns:xlink="http://www.w3.org/1999/xlink" x="0px" y="0px"
	 width="720px" height="576px" viewBox="72 360 720 576" enable-background="new 72 360 720 576" xml:space="preserve">
<path id="photo_x5F_oahu" fill="#D1D3D4" d="M93.141,456.39v-0.418c0-42.243,34.715-75.912,79.677-75.912
	c44.961,0,79.258,33.25,79.258,75.494v0.418c0,42.244-34.715,75.913-79.677,75.913C127.437,531.884,93.141,498.633,93.141,456.39z
	 M202.931,456.39v-0.418c0-17.252-11.815-32.833-30.532-32.833c-18.508,0-30.114,15.371-30.114,32.415v0.418
	c0,17.252,11.816,32.833,30.533,32.833C191.325,488.804,202.931,473.433,202.931,456.39z M260.336,449.594
	c13.488-1.673,21.226-7.947,21.226-18.508h-18.926v-47.89h48.309v38.061c0,34.087-19.763,44.334-46.844,45.589L260.336,449.594z
	 M351.828,382.15h48.307l61.378,146.597H408.71l-7.738-19.554H350.05l-7.528,19.554h-51.968L351.828,382.15z M388.843,474.688
	l-13.279-35.343l-13.28,35.343H388.843z M467.474,383.196h48.622v51.34h44.543v-51.34h48.622v145.551h-48.622V476.57h-44.543v52.177
	h-48.622V383.196z M624.736,463.5v-80.304h49.458v79.676c0,18.09,9.41,25.828,22.48,25.828s22.48-7.11,22.48-24.782v-80.722h49.459
	v79.258c0,49.667-28.964,69.22-72.357,69.22S624.736,511.703,624.736,463.5z"/>
<path id="photo_x5F_hawaii" fill="#D1D3D4" d="M95.65,558.965h38.061v40.152h34.82v-40.152h38.061v113.973H168.53v-40.884h-34.715
	v40.884H95.65V558.965z M259.395,558.129h37.747l47.995,114.705h-41.302l-6.065-15.266h-39.838l-5.855,15.266H211.4L259.395,558.129
	z M288.359,630.486l-10.457-27.709l-10.456,27.709H288.359z M328.719,558.965h39.839l16.102,54.686l18.403-55h32.832l18.403,55
	l16.104-54.686h39.211L472.388,673.67h-33.146l-19.971-56.673l-19.972,56.673h-33.25L328.719,558.965z M541.295,558.129h37.747
	l47.994,114.705h-41.303l-6.063-15.266h-39.839l-5.855,15.266h-40.674L541.295,558.129z M570.259,630.486l-10.456-27.709
	l-10.456,27.709H570.259z M632.16,558.965h38.061v113.973H632.16V558.965z M679.632,610.829
	c10.561-1.255,16.625-6.169,16.625-14.535h-14.848v-37.433h37.746v29.8c0,26.663-15.475,34.715-36.597,35.656L679.632,610.829z
	 M729.717,558.965h38.061v113.973h-38.061V558.965z"/>
<rect id="photo_x5F_square1" x="96.277" y="706.816" fill="#D1D3D4" width="209.125" height="209.125"/>
<rect id="photo_x5F_square2" x="328.406" y="706.816" fill="#D1D3D4" width="209.125" height="209.125"/>
<rect id="photo_x5F_square3" x="560.534" y="706.816" fill="#D1D3D4" width="209.125" height="209.125"/>
</svg>
