<?xml version="1.0" encoding="utf-8"?>
<!-- Generator: Adobe Illustrator 20.1.0, SVG Export Plug-In . SVG Version: 6.00 Build 0)  -->
<svg version="1.1" id="Layer_1" xmlns="http://www.w3.org/2000/svg" xmlns:xlink="http://www.w3.org/1999/xlink" x="0px" y="0px"
	 viewBox="0 0 720 576" style="enable-background:new 0 0 720 576;" xml:space="preserve">
<style type="text/css">
	.st0{fill:#D1D3D4;}
</style>
<g id="photo_x5F_oahu">
	<path class="st0" d="M36,111.5v-0.4c0-40.4,33.2-72.6,76.2-72.6c43,0,75.8,31.8,75.8,72.2v0.4c0,40.4-33.2,72.6-76.2,72.6
		C68.8,183.7,36,151.9,36,111.5z M141,111.5v-0.4c0-16.5-11.3-31.4-29.2-31.4c-17.7,0-28.8,14.7-28.8,31v0.4
		c0,16.5,11.3,31.4,29.2,31.4C129.9,142.5,141,127.8,141,111.5z"/>
	<path class="st0" d="M195.9,105c12.9-1.6,20.3-7.6,20.3-17.7h-18.1V41.5h46.2v36.4c0,32.6-18.9,42.4-44.8,43.6L195.9,105z"/>
	<path class="st0" d="M283.4,40.5h46.2l58.7,140.2h-50.5l-7.4-18.7h-48.7l-7.2,18.7h-49.7L283.4,40.5z M318.8,129l-12.7-33.8
		L293.4,129H318.8z"/>
	<path class="st0" d="M394,41.5h46.5v49.1h42.6V41.5h46.5v139.2h-46.5v-49.9h-42.6v49.9H394V41.5z"/>
	<path class="st0" d="M544.4,118.3V41.5h47.3v76.2c0,17.3,9,24.7,21.5,24.7s21.5-6.8,21.5-23.7V41.5h47.3v75.8
		c0,47.5-27.7,66.2-69.2,66.2S544.4,164.4,544.4,118.3z"/>
</g>
<g id="photo_x5F_hawaii">
	<path class="st0" d="M38.4,209.6h36.4V248h33.3v-38.4h36.4v109h-36.4v-39.1H74.9v39.1H38.4V209.6z"/>
	<path class="st0" d="M195,208.8h36.1L277,318.5h-39.5l-5.8-14.6h-38.1l-5.6,14.6h-38.9L195,208.8z M222.7,278l-10-26.5l-10,26.5
		H222.7z"/>
	<path class="st0" d="M261.3,209.6h38.1l15.4,52.3l17.6-52.6h31.4l17.6,52.6l15.4-52.3h37.5l-35.6,109.7H367l-19.1-54.2l-19.1,54.2
		H297L261.3,209.6z"/>
	<path class="st0" d="M464.6,208.8h36.1l45.9,109.7h-39.5l-5.8-14.6h-38.1l-5.6,14.6h-38.9L464.6,208.8z M492.3,278l-10-26.5
		l-10,26.5H492.3z"/>
	<path class="st0" d="M551.5,209.6h36.4v109h-36.4V209.6z"/>
	<path class="st0" d="M596.9,259.2c10.1-1.2,15.9-5.9,15.9-13.9h-14.2v-35.8h36.1V238c0,25.5-14.8,33.2-35,34.1L596.9,259.2z"/>
	<path class="st0" d="M644.8,209.6h36.4v109h-36.4V209.6z"/>
</g>
<rect id="photo_x5F_square1" x="39" y="351" class="st0" width="200" height="200"/>
<rect id="photo_x5F_square2" x="261" y="351" class="st0" width="200" height="200"/>
<rect id="photo_x5F_square3" x="483" y="351" class="st0" width="200" height="200"/>
</svg>
