<?xml version="1.0" encoding="utf-8"?>
<!-- Generator: Adobe Illustrator 21.1.0, SVG Export Plug-In . SVG Version: 6.00 Build 0)  -->
<svg version="1.1" id="Layer_1" xmlns="http://www.w3.org/2000/svg" xmlns:xlink="http://www.w3.org/1999/xlink" x="0px" y="0px"
	 viewBox="0 0 864 864" style="enable-background:new 0 0 864 864;" xml:space="preserve">
<style type="text/css">
	.st0{fill:#4072A8;}
	.st1{fill:#A7A9AC;}
	.st2{fill:#D1D3D4;}
	.st3{fill:#939598;}
	.st4{fill:#BCBEC0;}
</style>
<g id="fill_1_">
	<path class="st0" d="M432.1,780c-2.4,0-4.8-0.9-6.6-2.7L116.8,468.6c-0.2-0.2-0.4-0.4-0.5-0.6c-38.2-39-59.2-90.5-59.2-145.1
		c0-114.4,93.1-207.5,207.5-207.5c66.8,0,128.4,31.5,167.4,84.9c39.1-53.4,100.7-84.9,167.4-84.9c114.4,0,207.5,93.1,207.5,207.5
		c0,54.2-20.7,105.3-58.3,144.2c-0.3,0.5-0.7,1-1.2,1.5L438.7,777.3C436.9,779.1,434.5,780,432.1,780z M130.5,455.8l301.6,301.6
		l300.8-300.8c0.3-0.5,0.7-0.9,1.1-1.3c35-35.5,54.2-82.6,54.2-132.4c0-104.1-84.7-188.8-188.8-188.8c-65,0-124.6,32.8-159.5,87.8
		c-1.7,2.7-4.7,4.3-7.9,4.3s-6.2-1.6-7.9-4.3c-34.9-55-94.5-87.8-159.5-87.8c-104.1,0-188.8,84.7-188.8,188.8
		c0,49.9,19.3,96.9,54.3,132.5C130.3,455.5,130.4,455.7,130.5,455.8z"/>
</g>
<rect id="photo5" x="105" y="336" transform="matrix(0.987 -0.1606 0.1606 0.987 -64.4817 35.1975)" class="st1" width="161" height="161"/>
<polygon id="photo1" class="st2" points="91.4,169.4 252.3,177 244.6,337.8 83.8,330.2 "/>
<rect id="photo2" x="242.3" y="123.5" transform="matrix(0.9951 -9.865473e-02 9.865473e-02 0.9951 -18.5503 32.8402)" class="st3" width="161" height="161"/>
<polygon id="photo3" class="st2" points="487,119.1 644.1,154.3 609.4,311.4 451.8,276.2 "/>
<polygon id="photo6" class="st2" points="284,291.5 444.5,307 428.7,467.3 268.5,451.8 "/>
<rect id="photo7" x="449.7" y="283.4" transform="matrix(0.9675 -0.2529 0.2529 0.9675 -74.795 145.9193)" class="st4" width="161" height="161"/>
<rect id="photo10" x="467.4" y="462" transform="matrix(0.9951 -9.865473e-02 9.865473e-02 0.9951 -50.8461 56.6982)" class="st2" width="161" height="161"/>
<polygon id="photo8" class="st2" points="626.8,331.5 786.1,356.6 761.6,515.8 602.5,491.3 "/>
<rect id="photo4" x="628.8" y="182" transform="matrix(0.987 -0.1606 0.1606 0.987 -32.9504 117.3204)" class="st1" width="161" height="161"/>
<polygon id="photo9" class="st2" points="250.5,451.3 405.5,494.9 362,649.9 206.5,605.8 "/>
<polygon id="photo11" class="st1" points="359.6,575.4 520.1,591 504.4,751.2 344.1,735.7 "/>
</svg>
