<?xml version="1.0" encoding="utf-8"?>
<!-- Generator: Adobe Illustrator 21.1.0, SVG Export Plug-In . SVG Version: 6.00 Build 0)  -->
<svg version="1.1" id="Layer_1" xmlns="http://www.w3.org/2000/svg" xmlns:xlink="http://www.w3.org/1999/xlink" x="0px" y="0px"
	 viewBox="0 0 864 864" style="enable-background:new 0 0 864 864;" xml:space="preserve">
<style type="text/css">
	.st0{fill:#40A6A8;}
	.st1{fill:#D1D3D4;}
</style>
<g id="fill_1_">
	<path class="st0" d="M432.1,780c-2.4,0-4.8-0.9-6.6-2.7L116.8,468.6c-0.2-0.2-0.4-0.4-0.5-0.6c-38.2-39-59.2-90.5-59.2-145.1
		c0-114.4,93.1-207.5,207.5-207.5c66.8,0,128.4,31.5,167.4,84.9c39.1-53.4,100.7-84.9,167.4-84.9c114.4,0,207.5,93.1,207.5,207.5
		c0,54.2-20.7,105.3-58.3,144.2c-0.3,0.5-0.7,1-1.2,1.5L438.7,777.3C436.9,779.1,434.5,780,432.1,780z M130.5,455.8l301.6,301.6
		l300.8-300.8c0.3-0.5,0.7-0.9,1.1-1.3c35-35.5,54.2-82.6,54.2-132.4c0-104.1-84.7-188.8-188.8-188.8c-65,0-124.6,32.8-159.5,87.8
		c-1.7,2.7-4.7,4.3-7.9,4.3s-6.2-1.6-7.9-4.3c-34.9-55-94.5-87.8-159.5-87.8c-104.1,0-188.8,84.7-188.8,188.8
		c0,49.9,19.3,96.9,54.3,132.5C130.3,455.5,130.4,455.7,130.5,455.8z"/>
</g>
<rect id="photo11" x="360.3" y="603.3" class="st1" width="143.3" height="143.3"/>
<rect id="photo8" x="199.6" y="441.3" class="st1" width="143.3" height="143.3"/>
<rect id="photo9" x="359.3" y="441.3" class="st1" width="143.3" height="143.3"/>
<rect id="photo10" x="521.3" y="441.3" class="st1" width="143.3" height="143.3"/>
<rect id="photo4" x="199.6" y="279.4" class="st1" width="143.3" height="143.3"/>
<rect id="photo3" x="40.9" y="279.4" class="st1" width="143.3" height="143.3"/>
<rect id="photo5" x="359.3" y="279.4" class="st1" width="143.3" height="143.3"/>
<rect id="photo6" x="521.3" y="279.4" class="st1" width="143.3" height="143.3"/>
<rect id="photo1" x="199.6" y="117.4" class="st1" width="143.3" height="143.3"/>
<rect id="photo2" x="521.3" y="117.4" class="st1" width="143.3" height="143.3"/>
<rect id="photo7" x="681.6" y="279.4" class="st1" width="143.3" height="143.3"/>
</svg>
