<?xml version="1.0" encoding="utf-8"?>
<!-- Generator: Adobe Illustrator 14.0.0, SVG Export Plug-In . SVG Version: 6.00 Build 43363)  -->
<!DOCTYPE svg PUBLIC "-//W3C//DTD SVG 1.1//EN" "http://www.w3.org/Graphics/SVG/1.1/DTD/svg11.dtd">
<svg version="1.1" id="Layer_1" xmlns="http://www.w3.org/2000/svg" xmlns:xlink="http://www.w3.org/1999/xlink" x="0px" y="0px"
	 width="864px" height="864px" viewBox="0 0 864 864" enable-background="new 0 0 864 864" xml:space="preserve">
<rect id="photo" fill="#E6E7E8" width="864" height="864"/>
<polygon opacity="0.75" fill="#FFFFFF" enable-background="new    " points="407.077,651.601 312.371,556.893 864,556.893 
	864,746.308 312.371,746.308 "/>
<polyline id="stroke" fill="none" stroke="#F7706A" stroke-width="1.0687" points="864,740.437 326.438,740.437 415.272,651.601 
	326.438,562.764 864,562.764 "/>
<g id="fill">
	<path fill="#F7706A" d="M477.579,643.339c-8.542-2.848-15.286-6.744-20.231-11.689c-4.947-4.946-7.419-10.94-7.419-17.985
		c0-6.893,2.474-12.824,7.419-17.797c4.945-4.971,10.94-7.457,17.984-7.457c6.993,0,12.988,2.475,17.984,7.421
		c2.747,2.648,4.646,5.62,5.695,8.917l-6.07,2.397c-0.899-2.447-2.373-4.694-4.42-6.744c-3.648-3.597-8.045-5.396-13.189-5.396
		c-5.147,0-9.543,1.813-13.189,5.433c-3.648,3.624-5.471,8.031-5.471,13.226c0,5.146,1.822,9.543,5.471,13.188
		c3.397,3.349,8.094,6.421,14.088,9.218c9.592,3.098,17.66,7.92,24.204,14.464c6.943,6.894,10.416,15.237,10.416,25.027
		c0,9.843-3.473,18.235-10.416,25.179c-6.944,6.943-15.312,10.416-25.103,10.416c-9.792,0-18.161-3.496-25.104-10.49
		c-5.545-5.545-8.868-11.99-9.966-19.333l6.369-2.325c0.7,6.496,3.473,12.167,8.318,17.013c5.646,5.645,12.439,8.468,20.384,8.468
		c7.992,0,14.812-2.823,20.458-8.468c5.645-5.646,8.468-12.466,8.468-20.459c0-7.942-2.823-14.736-8.468-20.381
		C490.844,650.232,484.774,646.287,477.579,643.339z"/>
	<path fill="#F7706A" d="M533.559,589.834l45.035,77.933l44.962-77.933h7.719l-0.3,0.525v119.374h-6.743V602.049l-45.636,78.983
		l-45.711-78.983v107.684h-6.744V590.358l-0.301-0.525L533.559,589.834L533.559,589.834z"/>
	<path fill="#F7706A" d="M661.999,589.834v119.898h-6.744V589.834H661.999z"/>
	<path fill="#F7706A" d="M685.978,709.732V589.834h6.743v113.154h46.462v6.744H685.978z"/>
	<path fill="#F7706A" d="M817.116,589.834v6.744h-53.204v49.832h53.204v6.744h-53.204v49.833h53.204v6.744h-59.948V589.833
		L817.116,589.834L817.116,589.834z"/>
</g>
</svg>
