<?xml version="1.0" encoding="utf-8"?>
<!-- Generator: Adobe Illustrator 14.0.0, SVG Export Plug-In . SVG Version: 6.00 Build 43363)  -->
<!DOCTYPE svg PUBLIC "-//W3C//DTD SVG 1.1//EN" "http://www.w3.org/Graphics/SVG/1.1/DTD/svg11.dtd">
<svg version="1.1" id="Layer_1" xmlns="http://www.w3.org/2000/svg" xmlns:xlink="http://www.w3.org/1999/xlink" x="0px" y="0px"
	 width="864px" height="1296px" viewBox="0 0 864 1296" enable-background="new 0 0 864 1296" xml:space="preserve">
<rect id="photo" fill="#DDDDDD" width="864" height="1296"/>
<polygon id="fill-banner" opacity="0.75" fill="#FFFFFF" enable-background="new    " points="292.847,1054.768 174.464,936.383 
	864,936.383 864,1173.151 174.464,1173.151 "/>
<polyline id="stroke" fill="none" stroke="#369096" stroke-width="1.5" points="864,1165.813 192.047,1165.813 303.09,1054.768 
	192.047,943.722 864,943.722 "/>
<g id="fill">
	<path fill="#369096" d="M380.975,1044.439c-10.678-3.559-19.108-8.43-25.29-14.611c-6.183-6.184-9.273-13.676-9.273-22.48
		c0-8.617,3.092-16.031,9.273-22.247c6.182-6.214,13.676-9.321,22.48-9.321c8.742,0,16.236,3.093,22.48,9.275
		c3.433,3.311,5.808,7.025,7.119,11.146l-7.586,2.997c-1.125-3.059-2.967-5.868-5.526-8.431c-4.56-4.495-10.056-6.744-16.486-6.744
		c-6.433,0-11.928,2.267-16.486,6.791c-4.56,4.529-6.839,10.039-6.839,16.533c0,6.432,2.279,11.928,6.839,16.484
		c4.247,4.186,10.116,8.026,17.609,11.523c11.99,3.871,22.075,9.898,30.256,18.078c8.679,8.618,13.02,19.048,13.02,31.285
		c0,12.303-4.341,22.795-13.02,31.474c-8.681,8.679-19.141,13.02-31.379,13.02c-12.24,0-22.701-4.37-31.38-13.113
		c-6.932-6.931-11.085-14.987-12.458-24.165l7.962-2.906c0.875,8.119,4.34,15.207,10.398,21.265
		c7.056,7.056,15.549,10.585,25.479,10.585c9.99,0,18.515-3.529,25.573-10.585c7.056-7.056,10.585-15.581,10.585-25.573
		c0-9.929-3.529-18.42-10.585-25.477C397.556,1053.058,389.969,1048.125,380.975,1044.439z"/>
	<path fill="#369096" d="M450.947,977.56l56.296,97.415l56.202-97.415h9.648l-0.375,0.656v149.218h-8.429V992.828l-57.046,98.729
		l-57.139-98.729v134.604h-8.43V978.215l-0.375-0.656L450.947,977.56L450.947,977.56z"/>
	<path fill="#369096" d="M611.499,977.56v149.872h-8.431V977.56H611.499z"/>
	<path fill="#369096" d="M641.473,1127.432V977.56h8.429v141.442h58.077v8.43H641.473z"/>
	<path fill="#369096" d="M805.396,977.56v8.431h-66.506v62.289h66.506v8.43h-66.506V1119h66.506v8.431h-74.936V977.559
		L805.396,977.56L805.396,977.56z"/>
</g>
</svg>
