<?xml version="1.0" encoding="utf-8"?>
<!-- Generator: Adobe Illustrator 14.0.0, SVG Export Plug-In . SVG Version: 6.00 Build 43363)  -->
<!DOCTYPE svg PUBLIC "-//W3C//DTD SVG 1.1//EN" "http://www.w3.org/Graphics/SVG/1.1/DTD/svg11.dtd">
<svg version="1.1" id="Layer_1" xmlns="http://www.w3.org/2000/svg" xmlns:xlink="http://www.w3.org/1999/xlink" x="0px" y="0px"
	 width="576px" height="720px" viewBox="0 0 576 720" enable-background="new 0 0 576 720" xml:space="preserve">
<rect id="photo" fill="#E6E7E8" width="576" height="720"/>
<polygon opacity="0.75" fill="#FFFFFF" points="195.231,621.923 116.309,543 576,543 576,700.846 116.309,700.846 "/>
<polyline id="stroke" fill="none" stroke="#F7706A" stroke-width="0.8906" points="576,695.953 128.031,695.953
	202.06,621.923 128.031,547.893 576,547.893 "/>
<g id="fill">
	<path fill="#F7706A" d="M253.983,615.038c-7.119-2.373-12.739-5.62-16.86-9.741c-4.122-4.122-6.182-9.117-6.182-14.987
		c0-5.745,2.061-10.688,6.182-14.831s9.117-6.214,14.987-6.214c5.828,0,10.824,2.061,14.987,6.183
		c2.289,2.207,3.872,4.684,4.746,7.431l-5.058,1.998c-0.75-2.039-1.978-3.912-3.684-5.62c-3.04-2.997-6.704-4.496-10.991-4.496
		c-4.289,0-7.952,1.51-10.991,4.527c-3.04,3.02-4.559,6.692-4.559,11.022c0,4.288,1.519,7.952,4.559,10.99
		c2.831,2.79,6.744,5.35,11.74,7.681c7.993,2.582,14.716,6.6,20.17,12.053c5.786,5.745,8.68,12.698,8.68,20.857
		c0,8.202-2.894,15.196-8.68,20.982c-5.787,5.786-12.76,8.68-20.919,8.68c-8.16,0-15.134-2.913-20.92-8.742
		c-4.621-4.621-7.39-9.992-8.305-16.111l5.308-1.937c0.583,5.413,2.893,10.138,6.932,14.176c4.704,4.705,10.366,7.057,16.986,7.057
		c6.66,0,12.343-2.352,17.048-7.057c4.704-4.704,7.057-10.387,7.057-17.048c0-6.619-2.353-12.281-7.057-16.985
		C265.037,620.783,259.979,617.495,253.983,615.038z"/>
	<path fill="#F7706A" d="M300.632,570.451l37.53,64.944l37.468-64.944h6.433l-0.25,0.438v99.478h-5.62V580.63l-38.03,65.819
		l-38.093-65.819v89.736h-5.62v-99.478l-0.25-0.438H300.632z"/>
	<path fill="#F7706A" d="M407.666,570.451v99.915h-5.62v-99.915H407.666z"/>
	<path fill="#F7706A" d="M427.648,670.366v-99.915h5.62v94.295h38.717v5.62H427.648z"/>
	<path fill="#F7706A" d="M536.931,570.451v5.62h-44.337v41.527h44.337v5.62h-44.337v41.527h44.337v5.62h-49.957v-99.915H536.931z"/>
</g>
</svg>
