<?xml version="1.0" encoding="utf-8"?>
<!-- Generator: Adobe Illustrator 14.0.0, SVG Export Plug-In . SVG Version: 6.00 Build 43363)  -->
<!DOCTYPE svg PUBLIC "-//W3C//DTD SVG 1.1//EN" "http://www.w3.org/Graphics/SVG/1.1/DTD/svg11.dtd">
<svg version="1.1" id="Layer_1" xmlns="http://www.w3.org/2000/svg" xmlns:xlink="http://www.w3.org/1999/xlink" x="0px" y="0px"
	 width="864px" height="864px" viewBox="0 0 864 864" enable-background="new 0 0 864 864" xml:space="preserve">
<rect id="photo" fill="#DDDDDD" width="864" height="864"/>
<polygon id="fill-banner" opacity="0.75" fill="#FFFFFF" enable-background="new    " points="407.077,684.542 312.371,589.834 
	864,589.834 864,779.249 312.371,779.249 "/>
<polyline id="stroke" fill="none" stroke="#369096" stroke-width="1.2" points="864,773.378 326.438,773.378 415.272,684.542 
	326.438,595.705 864,595.705 "/>
<g id="fill">
	<path fill="#369096" d="M477.579,676.28c-8.542-2.848-15.286-6.744-20.231-11.689c-4.947-4.946-7.419-10.94-7.419-17.985
		c0-6.893,2.474-12.824,7.419-17.797c4.945-4.971,10.94-7.457,17.984-7.457c6.993,0,12.988,2.475,17.984,7.421
		c2.746,2.648,4.646,5.62,5.695,8.917l-6.07,2.397c-0.899-2.447-2.373-4.694-4.42-6.744c-3.648-3.597-8.045-5.396-13.189-5.396
		c-5.146,0-9.543,1.813-13.189,5.433c-3.648,3.624-5.471,8.031-5.471,13.226c0,5.146,1.822,9.543,5.471,13.188
		c3.397,3.349,8.094,6.421,14.088,9.218c9.592,3.098,17.66,7.92,24.205,14.464c6.942,6.894,10.415,15.237,10.415,25.027
		c0,9.843-3.473,18.235-10.415,25.179c-6.945,6.943-15.313,10.416-25.104,10.416c-9.792,0-18.161-3.496-25.104-10.49
		c-5.545-5.545-8.868-11.99-9.966-19.333l6.369-2.325c0.7,6.496,3.473,12.167,8.318,17.013c5.646,5.645,12.439,8.468,20.384,8.468
		c7.992,0,14.812-2.823,20.458-8.468c5.645-5.646,8.468-12.466,8.468-20.459c0-7.942-2.823-14.736-8.468-20.381
		C490.844,683.174,484.774,679.229,477.579,676.28z"/>
	<path fill="#369096" d="M533.559,622.775l45.035,77.933l44.962-77.933h7.719l-0.3,0.525v119.374h-6.743V634.99l-45.636,78.983
		l-45.711-78.983v107.684h-6.744V623.3l-0.301-0.525L533.559,622.775L533.559,622.775z"/>
	<path fill="#369096" d="M661.999,622.775v119.898h-6.744V622.775H661.999z"/>
	<path fill="#369096" d="M685.978,742.674V622.775h6.743V735.93h46.462v6.744H685.978z"/>
	<path fill="#369096" d="M817.116,622.775v6.744h-53.204v49.832h53.204v6.744h-53.204v49.833h53.204v6.744h-59.948V622.774
		L817.116,622.775L817.116,622.775z"/>
</g>
</svg>
