<?xml version="1.0" encoding="utf-8"?>
<!-- Generator: Adobe Illustrator 14.0.0, SVG Export Plug-In . SVG Version: 6.00 Build 43363)  -->
<!DOCTYPE svg PUBLIC "-//W3C//DTD SVG 1.1//EN" "http://www.w3.org/Graphics/SVG/1.1/DTD/svg11.dtd">
<svg version="1.1" id="Layer_1" xmlns="http://www.w3.org/2000/svg" xmlns:xlink="http://www.w3.org/1999/xlink" x="0px" y="0px"
	 width="864px" height="1296px" viewBox="0 0 864 1296" enable-background="new 0 0 864 1296" xml:space="preserve">
<rect id="photo" y="0.222" fill="#D0D2D3" width="864" height="1295.778"/>
<polygon id="fill-6" opacity="0.7" fill="#808184" points="860.498,1296 837.949,1190.516 669.131,1172.968 614.522,1296 "/>
<polygon id="fill-3" opacity="0.7" fill="#929497" points="454.771,963.144 419.291,797.164 566.184,712.13 692.445,825.558 
	623.589,980.689 "/>
<polygon id="fill-1" opacity="0.7" fill="#404041" points="0,915.872 0,719.851 97.493,663.413 223.756,776.84 154.898,931.974 "/>
<polygon id="fill-5" opacity="0.7" fill="#58595B" points="670.522,1157.752 635.042,991.772 781.937,906.74 864,980.46 
	864,1119.745 839.342,1175.301 "/>
<polygon id="fill-2" opacity="0.7" fill="#58595B" points="293.795,1052.125 167.533,938.699 236.389,783.565 405.208,801.113 
	440.688,967.093 "/>
<polygon id="fill-4" opacity="0.7" fill="#58595B" points="510.572,1245.553 384.31,1132.127 453.167,976.993 621.985,994.542 
	657.466,1160.521 "/>
<g id="fill-text">
	<g>
		<g>
			<path fill="#FFFFFF" d="M41.812,794.231c-0.806-2.525-3.386-4.514-6.288-4.514c-4.191,0-6.933,3.009-6.933,6.341
				s2.311,4.837,6.933,6.288c7.148,2.257,12.468,5.052,12.468,11.77s-5.536,11.124-12.468,11.124
				c-6.395,0-11.608-4.299-12.36-10.265h4.084c0.752,3.708,4.138,6.342,8.276,6.342c4.676,0,8.384-2.741,8.384-7.201
				c0-3.547-2.311-5.481-8.384-7.362c-7.147-2.204-11.017-4.891-11.017-10.695c0-5.804,4.407-10.265,11.017-10.265
				c5.375,0,9.728,3.493,10.587,8.438H41.812z"/>
			<path fill="#FFFFFF" d="M51.48,812.987c0-6.718,5.536-12.253,12.253-12.253c6.718,0,12.253,5.535,12.253,12.253
				c0,6.61-5.536,12.36-12.253,12.36C57.016,825.348,51.48,819.598,51.48,812.987z M55.243,812.987c0,4.676,3.708,8.813,8.491,8.813
				c4.783,0,8.491-4.138,8.491-8.813c0-4.783-3.708-8.706-8.491-8.706C58.951,804.281,55.243,808.204,55.243,812.987z"/>
			<path fill="#FFFFFF" d="M116.879,811.268v13.489h-3.601v-13.489c0-4.676-1.773-6.986-5.267-6.986
				c-4.353,0-7.094,2.419-7.094,8.169v12.307h-3.601v-13.489c0-4.676-1.773-6.986-5.267-6.986c-4.354,0-7.094,2.419-7.094,8.169
				v12.307h-3.601V801.11h3.601v2.849c1.72-2.042,4.138-3.225,7.094-3.225c4.138,0,6.717,1.344,7.954,4.568
				c1.666-2.902,4.46-4.568,8.007-4.568C114.138,800.734,116.879,803.744,116.879,811.268z"/>
			<path fill="#FFFFFF" d="M146.753,814.653H126.17c0.752,3.923,4.138,7.147,8.33,7.147c2.741,0,5.052-1.343,6.557-3.278h4.46
				c-1.988,4.085-6.234,6.825-11.017,6.825c-6.717,0-12.253-5.75-12.253-12.36c0-6.718,5.536-12.253,12.253-12.253
				c6.718,0,12.253,5.535,12.253,12.253V814.653z M126.17,811.214h16.66c-0.806-3.923-4.192-6.933-8.33-6.933
				C130.309,804.281,126.977,807.291,126.17,811.214z"/>
			<path fill="#FFFFFF" d="M157.389,804.389v20.368h-3.601v-20.368h-3.547v-3.278h3.547v-9.297h3.601v9.297h5.32v3.278H157.389z"/>
			<path fill="#FFFFFF" d="M167.007,793.748c0-1.29,1.128-2.472,2.58-2.472c1.343,0,2.526,1.182,2.526,2.472
				c0,1.451-1.183,2.579-2.526,2.579C168.135,796.327,167.007,795.199,167.007,793.748z M167.759,801.11h3.762v23.646h-3.762V801.11
				z"/>
			<path fill="#FFFFFF" d="M214.351,811.268v13.489h-3.601v-13.489c0-4.676-1.773-6.986-5.267-6.986
				c-4.353,0-7.094,2.419-7.094,8.169v12.307h-3.601v-13.489c0-4.676-1.773-6.986-5.267-6.986c-4.353,0-7.094,2.419-7.094,8.169
				v12.307h-3.601V801.11h3.601v2.849c1.72-2.042,4.138-3.225,7.094-3.225c4.138,0,6.718,1.344,7.954,4.568
				c1.666-2.902,4.46-4.568,8.007-4.568C211.61,800.734,214.351,803.744,214.351,811.268z"/>
			<path fill="#FFFFFF" d="M244.226,814.653h-20.583c0.752,3.923,4.138,7.147,8.33,7.147c2.741,0,5.052-1.343,6.557-3.278h4.46
				c-1.988,4.085-6.234,6.825-11.017,6.825c-6.717,0-12.253-5.75-12.253-12.36c0-6.718,5.536-12.253,12.253-12.253
				c6.718,0,12.253,5.535,12.253,12.253V814.653z M223.643,811.214h16.66c-0.806-3.923-4.192-6.933-8.33-6.933
				C227.781,804.281,224.449,807.291,223.643,811.214z"/>
			<path fill="#FFFFFF" d="M262.224,806.915c-0.323-1.612-2.096-2.795-4.891-2.795c-2.848,0-4.837,1.344-4.837,3.117
				s1.559,2.794,5.428,3.547c6.073,1.236,8.491,3.332,8.491,7.255c0,4.138-3.171,7.094-9.083,7.094c-5.32,0-8.867-2.956-9.083-7.094
				h3.278c0.323,1.988,2.741,3.708,5.804,3.708c3.493,0,5.804-1.559,5.804-3.708c0-2.257-1.505-3.01-5.804-3.869
				c-5.643-1.129-8.168-3.171-8.168-6.933c0-3.601,2.794-6.503,8.168-6.503c4.675,0,7.792,2.58,8.169,6.181H262.224z"/>
		</g>
	</g>
	<g>
		<path fill="#FFFFFF" d="M439.865,874.3v-62.166h5.834v37.004h1.306l14.279-13.931h8.184l-15.759,15.236l20.635,23.856h-7.836
			l-17.065-19.677l-3.743,3.656V874.3H439.865z"/>
		<path fill="#FFFFFF" d="M480.435,835.99h5.833v4.615c3.048-3.309,7.314-5.225,12.538-5.225c10.971,0,15.672,4.876,15.672,17.065
			V874.3h-5.833v-21.854c0-7.575-3.483-11.319-9.839-11.319c-7.749-0.174-12.538,4.18-12.538,12.799V874.3h-5.833V835.99z"/>
		<path fill="#FFFFFF" d="M522.744,855.232c0-10.884,8.969-19.852,19.852-19.852c10.884,0,19.852,8.968,19.852,19.852
			c0,10.709-8.968,20.025-19.852,20.025C531.713,875.258,522.744,865.941,522.744,855.232z M528.839,855.232
			c0,7.574,6.008,14.278,13.757,14.278s13.757-6.704,13.757-14.278c0-7.749-6.008-14.105-13.757-14.105
			S528.839,847.483,528.839,855.232z"/>
		<path fill="#FFFFFF" d="M614.159,874.3h-6.095l-11.145-30.125L585.775,874.3h-6.095l-14.191-38.31h6.095l11.145,30.125
			l11.145-30.125h6.095l11.145,30.125l11.145-30.125h6.095L614.159,874.3z"/>
	</g>
	<g>
		<path fill="#FFFFFF" d="M321.542,918.398h6.356l12.625,30.561l12.538-30.561h6.356l-15.759,38.31h-6.356L321.542,918.398z"/>
		<path fill="#FFFFFF" d="M362.981,937.641c0-10.884,8.968-19.852,19.851-19.852c5.833,0,10.971,2.699,14.453,6.879v-6.27h5.833
			v38.483h-5.833v-6.269c-3.482,4.267-8.62,7.053-14.453,7.053C371.949,957.666,362.981,948.35,362.981,937.641z M396.938,937.641
			c0-7.749-6.704-14.105-14.279-14.105c-7.749,0-13.583,6.356-13.583,14.105c0,7.574,5.833,14.278,13.583,14.278
			C390.233,951.919,396.938,945.215,396.938,937.641z"/>
		<path fill="#FFFFFF" d="M414.868,894.542h5.833v62.166h-5.833V894.542z"/>
		<path fill="#FFFFFF" d="M465.626,956.708h-5.833v-4.614c-3.048,3.309-7.314,5.224-12.538,5.224
			c-10.971,0-15.672-4.876-15.672-17.065v-21.854h5.833v21.854c0,7.575,3.483,11.319,9.839,11.319
			c7.749,0,12.538-4.354,12.538-12.799v-20.374h5.833V956.708z"/>
		<path fill="#FFFFFF" d="M514.467,940.34H481.12c1.219,6.355,6.704,11.579,13.495,11.579c4.44,0,8.185-2.177,10.622-5.311h7.227
			c-3.222,6.617-10.1,11.058-17.849,11.058c-10.883,0-19.852-9.316-19.852-20.025c0-10.884,8.969-19.852,19.852-19.852
			c10.884,0,19.852,8.968,19.852,19.852V940.34z M481.12,934.768h26.99c-1.306-6.356-6.791-11.232-13.495-11.232
			C487.824,923.535,482.426,928.411,481.12,934.768z"/>
	</g>
	<g>
		<path fill="#FFFFFF" d="M594.942,1023.939v21.854h-5.833v-21.854c0-7.575-2.873-11.319-8.532-11.319
			c-7.053,0-11.493,3.919-11.493,13.234v19.938h-5.833v-21.854c0-7.575-2.874-11.319-8.533-11.319
			c-7.052,0-11.492,3.919-11.492,13.234v19.938h-5.834v-38.31h5.834v4.615c2.786-3.309,6.704-5.225,11.492-5.225
			c6.704,0,10.884,2.177,12.886,7.4c2.699-4.701,7.227-7.4,12.974-7.4C590.502,1006.874,594.942,1011.75,594.942,1023.939z"/>
		<path fill="#FFFFFF" d="M603.642,1026.726c0-10.884,8.969-19.852,19.852-19.852c10.884,0,19.852,8.968,19.852,19.852
			c0,10.709-8.968,20.025-19.852,20.025C612.61,1046.751,603.642,1037.435,603.642,1026.726z M609.736,1026.726
			c0,7.574,6.008,14.278,13.757,14.278s13.757-6.704,13.757-14.278c0-7.749-6.008-14.105-13.757-14.105
			S609.736,1018.977,609.736,1026.726z"/>
		<path fill="#FFFFFF" d="M709.597,1023.939v21.854h-5.833v-21.854c0-7.575-2.873-11.319-8.532-11.319
			c-7.053,0-11.493,3.919-11.493,13.234v19.938h-5.833v-21.854c0-7.575-2.874-11.319-8.533-11.319
			c-7.052,0-11.492,3.919-11.492,13.234v19.938h-5.834v-38.31h5.834v4.615c2.786-3.309,6.704-5.225,11.492-5.225
			c6.704,0,10.884,2.177,12.886,7.4c2.699-4.701,7.227-7.4,12.974-7.4C705.156,1006.874,709.597,1011.75,709.597,1023.939z"/>
		<path fill="#FFFFFF" d="M757.999,1029.425h-33.347c1.219,6.355,6.704,11.579,13.495,11.579c4.44,0,8.185-2.176,10.622-5.311h7.227
			c-3.222,6.617-10.1,11.058-17.849,11.058c-10.883,0-19.852-9.316-19.852-20.025c0-10.884,8.969-19.852,19.852-19.852
			c10.884,0,19.852,8.968,19.852,19.852V1029.425z M724.652,1023.853h26.99c-1.306-6.356-6.791-11.232-13.495-11.232
			C731.356,1012.62,725.958,1017.496,724.652,1023.853z"/>
		<path fill="#FFFFFF" d="M767.136,1007.483h5.833v4.615c3.048-3.309,7.314-5.225,12.538-5.225c10.971,0,15.672,4.876,15.672,17.065
			v21.854h-5.833v-21.854c0-7.575-3.483-11.319-9.839-11.319c-7.749-0.174-12.538,4.18-12.538,12.799v20.374h-5.833V1007.483z"/>
		<path fill="#FFFFFF" d="M820.59,1012.795v32.998h-5.833v-32.998h-5.746v-5.312h5.746v-15.063h5.833v15.063h8.62v5.312H820.59z"/>
	</g>
	<g>
		<path fill="#FFFFFF" d="M594.485,1166.433v21.854h-5.833v-21.854c0-7.575-2.873-11.319-8.532-11.319
			c-7.053,0-11.493,3.919-11.493,13.234v19.938h-5.833v-21.854c0-7.575-2.874-11.319-8.533-11.319
			c-7.052,0-11.492,3.919-11.492,13.234v19.938h-5.834v-38.31h5.834v4.615c2.786-3.309,6.704-5.225,11.492-5.225
			c6.704,0,10.884,2.177,12.886,7.4c2.699-4.701,7.227-7.4,12.974-7.4C590.045,1149.367,594.485,1154.243,594.485,1166.433z"/>
		<path fill="#FFFFFF" d="M642.888,1171.918h-33.347c1.219,6.355,6.704,11.579,13.495,11.579c4.44,0,8.185-2.176,10.622-5.311h7.227
			c-3.222,6.617-10.1,11.058-17.849,11.058c-10.883,0-19.852-9.316-19.852-20.025c0-10.884,8.969-19.852,19.852-19.852
			c10.884,0,19.852,8.968,19.852,19.852V1171.918z M609.541,1166.346h26.99c-1.306-6.356-6.791-11.232-13.495-11.232
			C616.245,1155.113,610.847,1159.989,609.541,1166.346z"/>
		<path fill="#FFFFFF" d="M709.14,1166.433v21.854h-5.833v-21.854c0-7.575-2.873-11.319-8.532-11.319
			c-7.053,0-11.493,3.919-11.493,13.234v19.938h-5.833v-21.854c0-7.575-2.874-11.319-8.533-11.319
			c-7.052,0-11.492,3.919-11.492,13.234v19.938h-5.834v-38.31h5.834v4.615c2.786-3.309,6.704-5.225,11.492-5.225
			c6.704,0,10.884,2.177,12.886,7.4c2.699-4.701,7.227-7.4,12.974-7.4C704.699,1149.367,709.14,1154.243,709.14,1166.433z"/>
		<path fill="#FFFFFF" d="M717.839,1169.219c0-10.884,8.969-19.852,19.852-19.852c10.884,0,19.852,8.968,19.852,19.852
			c0,10.709-8.968,20.025-19.852,20.025C726.808,1189.244,717.839,1179.928,717.839,1169.219z M723.934,1169.219
			c0,7.574,6.008,14.278,13.757,14.278s13.757-6.704,13.757-14.278c0-7.749-6.008-14.105-13.757-14.105
			S723.934,1161.47,723.934,1169.219z"/>
		<path fill="#FFFFFF" d="M772.512,1155.201c3.135-3.57,7.662-5.834,12.974-5.834v5.746c-6.792,0-12.974,4.18-12.974,12.016v21.157
			h-5.833v-38.31h5.833V1155.201z"/>
		<path fill="#FFFFFF" d="M800.72,1205.699h-6.878l10.883-21.767l-16.978-33.956h6.878l13.496,27.078l13.582-27.078h6.878
			l-16.978,34.043L800.72,1205.699z"/>
	</g>
	<g>
		<path fill="#FFFFFF" d="M95.508,884.674h-4.246l6.718-13.436L87.5,850.279h4.246l8.33,16.714l8.384-16.714h4.246l-10.48,21.013
			L95.508,884.674z"/>
		<path fill="#FFFFFF" d="M114.583,862.156c0-6.718,5.536-12.253,12.253-12.253c6.718,0,12.253,5.535,12.253,12.253
			c0,6.61-5.536,12.36-12.253,12.36C120.118,874.517,114.583,868.767,114.583,862.156z M118.345,862.156
			c0,4.676,3.708,8.813,8.491,8.813c4.783,0,8.491-4.138,8.491-8.813c0-4.783-3.708-8.706-8.491-8.706
			C122.053,853.45,118.345,857.373,118.345,862.156z"/>
		<path fill="#FFFFFF" d="M165.202,873.926h-3.601v-2.849c-1.881,2.043-4.514,3.225-7.739,3.225c-6.771,0-9.673-3.01-9.673-10.533
			v-13.489h3.601v13.489c0,4.676,2.149,6.986,6.073,6.986c4.783,0,7.739-2.687,7.739-7.899v-12.576h3.601V873.926z"/>
		<path fill="#FFFFFF" d="M215.122,873.926h-3.762l-6.879-18.595l-6.879,18.595h-3.762l-8.76-23.646h3.762l6.879,18.595
			l6.879-18.595h3.762l6.879,18.595l6.879-18.595h3.762L215.122,873.926z"/>
		<path fill="#FFFFFF" d="M227.1,842.917c0-1.29,1.128-2.472,2.58-2.472c1.343,0,2.526,1.182,2.526,2.472
			c0,1.451-1.183,2.579-2.526,2.579C228.229,845.496,227.1,844.368,227.1,842.917z M227.853,850.279h3.762v23.646h-3.762V850.279z"
			/>
		<path fill="#FFFFFF" d="M238.921,835.555h3.601v38.371h-3.601V835.555z"/>
		<path fill="#FFFFFF" d="M250.313,835.555h3.601v38.371h-3.601V835.555z"/>
		<path fill="#FFFFFF" d="M277.286,850.279h3.601v2.849c1.881-2.042,4.514-3.225,7.739-3.225c6.771,0,9.673,3.01,9.673,10.533
			v13.489h-3.601v-13.489c0-4.676-2.15-6.986-6.073-6.986c-4.783-0.107-7.739,2.58-7.739,7.9v12.575h-3.601V850.279z"/>
		<path fill="#FFFFFF" d="M327.907,863.822h-20.583c0.752,3.923,4.138,7.147,8.33,7.147c2.741,0,5.052-1.343,6.557-3.278h4.46
			c-1.988,4.085-6.234,6.825-11.017,6.825c-6.717,0-12.253-5.75-12.253-12.36c0-6.718,5.536-12.253,12.253-12.253
			c6.718,0,12.253,5.535,12.253,12.253V863.822z M307.324,860.383h16.66c-0.806-3.923-4.192-6.933-8.33-6.933
			C311.462,853.45,308.13,856.46,307.324,860.383z"/>
		<path fill="#FFFFFF" d="M330.105,850.279h3.923l7.792,18.863l7.739-18.863h3.923l-9.728,23.646h-3.923L330.105,850.279z"/>
		<path fill="#FFFFFF" d="M380.189,863.822h-20.583c0.752,3.923,4.138,7.147,8.33,7.147c2.741,0,5.052-1.343,6.557-3.278h4.46
			c-1.988,4.085-6.234,6.825-11.017,6.825c-6.717,0-12.253-5.75-12.253-12.36c0-6.718,5.536-12.253,12.253-12.253
			c6.718,0,12.253,5.535,12.253,12.253V863.822z M359.606,860.383h16.66c-0.806-3.923-4.192-6.933-8.33-6.933
			C363.744,853.45,360.412,856.46,359.606,860.383z"/>
		<path fill="#FFFFFF" d="M389.428,853.504c1.935-2.203,4.729-3.601,8.007-3.601v3.547c-4.192,0-8.007,2.58-8.007,7.416v13.06
			h-3.601v-23.646h3.601V853.504z"/>
	</g>
	<g>
		<path fill="#FFFFFF" d="M240.079,936.35v20.368h-3.601V936.35h-3.547v-3.278h3.547v-9.297h3.601v9.297h5.32v3.278H240.079z"/>
		<path fill="#FFFFFF" d="M250.234,916.196h3.601v19.724c1.881-2.042,4.514-3.225,7.739-3.225c6.771,0,9.673,3.01,9.673,10.533
			v13.489h-3.601v-13.489c0-4.676-2.15-6.986-6.073-6.986c-4.783,0-7.739,2.688-7.739,7.9v12.575h-3.601V916.196z"/>
		<path fill="#FFFFFF" d="M300.855,946.614h-20.583c0.752,3.923,4.138,7.147,8.33,7.147c2.741,0,5.052-1.344,6.557-3.278h4.46
			c-1.988,4.085-6.234,6.825-11.017,6.825c-6.717,0-12.253-5.75-12.253-12.36c0-6.718,5.536-12.253,12.253-12.253
			c6.718,0,12.253,5.535,12.253,12.253V946.614z M280.272,943.175h16.66c-0.806-3.923-4.192-6.933-8.33-6.933
			C284.41,936.242,281.078,939.252,280.272,943.175z"/>
	</g>
	<g>
		<path fill="#FFFFFF" d="M443.528,1111.272h-3.601v-2.849c-1.882,2.043-4.515,3.225-7.739,3.225c-6.771,0-9.673-3.01-9.673-10.533
			v-13.489h3.601v13.489c0,4.676,2.149,6.986,6.073,6.986c4.783,0,7.739-2.687,7.739-7.899v-12.576h3.601V1111.272z"/>
		<path fill="#FFFFFF" d="M451.048,1087.626h3.601v2.849c1.881-2.042,4.515-3.225,7.739-3.225c6.771,0,9.673,3.01,9.673,10.533
			v13.489h-3.601v-13.489c0-4.676-2.149-6.986-6.072-6.986c-4.783-0.107-7.739,2.58-7.739,7.9v12.575h-3.601V1087.626z"/>
		<path fill="#FFFFFF" d="M484.041,1090.904v20.368h-3.601v-20.368h-3.547v-3.278h3.547v-9.297h3.601v9.297h5.32v3.278H484.041z"/>
		<path fill="#FFFFFF" d="M493.659,1080.264c0-1.29,1.129-2.472,2.579-2.472c1.344,0,2.526,1.182,2.526,2.472
			c0,1.451-1.183,2.579-2.526,2.579C494.788,1082.843,493.659,1081.715,493.659,1080.264z M494.411,1087.626h3.763v23.646h-3.763
			V1087.626z"/>
		<path fill="#FFFFFF" d="M505.48,1072.901h3.601v38.371h-3.601V1072.901z"/>
		<path fill="#FFFFFF" d="M531.916,1080.264c0-1.29,1.129-2.472,2.579-2.472c1.344,0,2.526,1.182,2.526,2.472
			c0,1.451-1.183,2.579-2.526,2.579C533.045,1082.843,531.916,1081.715,531.916,1080.264z M532.668,1087.626h3.762v23.646h-3.762
			V1087.626z"/>
		<path fill="#FFFFFF" d="M549.004,1090.904v20.368h-3.601v-20.368h-3.547v-3.278h3.547v-9.297h3.601v9.297h5.32v3.278H549.004z"/>
		<path fill="#FFFFFF" d="M575.278,1072.901h3.601v18.595c2.15-2.58,5.32-4.246,8.921-4.246c6.718,0,12.254,5.535,12.254,12.253
			c0,6.61-5.536,12.36-12.254,12.36c-3.601,0-6.771-1.72-8.921-4.353v3.762h-3.601V1072.901z M596.291,1099.503
			c0-4.783-3.601-8.706-8.383-8.706c-4.676,0-8.814,3.923-8.814,8.706c0,4.676,4.139,8.813,8.814,8.813
			C592.69,1108.316,596.291,1104.179,596.291,1099.503z"/>
		<path fill="#FFFFFF" d="M628.317,1101.169h-20.583c0.753,3.923,4.139,7.147,8.33,7.147c2.741,0,5.052-1.344,6.557-3.278h4.461
			c-1.989,4.085-6.234,6.825-11.018,6.825c-6.718,0-12.253-5.75-12.253-12.36c0-6.718,5.535-12.253,12.253-12.253
			s12.253,5.535,12.253,12.253V1101.169z M607.734,1097.729h16.66c-0.806-3.923-4.191-6.933-8.33-6.933
			C611.873,1090.797,608.541,1093.807,607.734,1097.729z"/>
		<path fill="#FFFFFF" d="M651.798,1095.312c-1.451-2.688-4.192-4.515-7.471-4.515c-4.783,0-8.491,3.923-8.491,8.706
			c0,4.676,3.708,8.813,8.491,8.813c3.278,0,6.02-1.935,7.471-4.621h4.084c-1.666,4.782-6.234,8.168-11.555,8.168
			c-6.718,0-12.253-5.75-12.253-12.36c0-6.718,5.535-12.253,12.253-12.253c5.267,0,9.781,3.386,11.501,8.062H651.798z"/>
		<path fill="#FFFFFF" d="M659.64,1099.503c0-6.718,5.535-12.253,12.253-12.253s12.253,5.535,12.253,12.253
			c0,6.61-5.535,12.36-12.253,12.36S659.64,1106.113,659.64,1099.503z M663.401,1099.503c0,4.676,3.708,8.813,8.491,8.813
			s8.491-4.138,8.491-8.813c0-4.783-3.708-8.706-8.491-8.706S663.401,1094.72,663.401,1099.503z"/>
		<path fill="#FFFFFF" d="M725.039,1097.783v13.489h-3.601v-13.489c0-4.676-1.773-6.986-5.267-6.986
			c-4.354,0-7.095,2.418-7.095,8.169v12.307h-3.601v-13.489c0-4.676-1.773-6.986-5.267-6.986c-4.353,0-7.094,2.418-7.094,8.169
			v12.307h-3.601v-23.646h3.601v2.849c1.72-2.042,4.139-3.225,7.094-3.225c4.139,0,6.718,1.344,7.954,4.568
			c1.666-2.902,4.46-4.568,8.008-4.568C722.298,1087.25,725.039,1090.26,725.039,1097.783z"/>
		<path fill="#FFFFFF" d="M754.912,1101.169h-20.583c0.753,3.923,4.139,7.147,8.33,7.147c2.741,0,5.052-1.344,6.557-3.278h4.461
			c-1.989,4.085-6.234,6.825-11.018,6.825c-6.718,0-12.253-5.75-12.253-12.36c0-6.718,5.535-12.253,12.253-12.253
			s12.253,5.535,12.253,12.253V1101.169z M734.329,1097.729h16.66c-0.806-3.923-4.191-6.933-8.33-6.933
			C738.468,1090.797,735.136,1093.807,734.329,1097.729z"/>
		<path fill="#FFFFFF" d="M772.911,1093.431c-0.322-1.612-2.096-2.795-4.89-2.795c-2.849,0-4.837,1.344-4.837,3.117
			s1.559,2.794,5.428,3.547c6.072,1.236,8.491,3.332,8.491,7.255c0,4.139-3.171,7.094-9.082,7.094c-5.321,0-8.868-2.955-9.083-7.094
			h3.278c0.322,1.988,2.741,3.708,5.805,3.708c3.493,0,5.804-1.559,5.804-3.708c0-2.257-1.505-3.01-5.804-3.869
			c-5.644-1.129-8.169-3.171-8.169-6.933c0-3.601,2.794-6.503,8.169-6.503c4.675,0,7.792,2.58,8.168,6.181H772.911z"/>
		<path fill="#FFFFFF" d="M797.25,1099.503c0-6.718,5.535-12.253,12.253-12.253c3.601,0,6.771,1.666,8.921,4.246v-3.87h3.602v23.754
			h-3.602v-3.869c-2.149,2.633-5.32,4.353-8.921,4.353C802.785,1111.863,797.25,1106.113,797.25,1099.503z M818.209,1099.503
			c0-4.783-4.138-8.706-8.813-8.706c-4.783,0-8.384,3.923-8.384,8.706c0,4.676,3.601,8.813,8.384,8.813
			C814.071,1108.316,818.209,1104.179,818.209,1099.503z"/>
	</g>
	<g>
		<path fill="#FFFFFF" d="M672.071,1244.864v2.488h-14.225v-2.488H672.071z"/>
		<path fill="#FFFFFF" d="M688.598,1230.194h7.056c9.62,0,13.482,3.788,13.482,13.259s-3.862,13.259-13.482,13.259h-7.056V1230.194z
			 M695.653,1254.112c7.614,0,10.659-3.046,10.659-10.659c0-7.614-3.045-10.659-10.659-10.659h-4.345v21.318H695.653z"/>
		<path fill="#FFFFFF" d="M715.708,1242.599c1.337-1.522,3.269-2.488,5.534-2.488v2.451c-2.896,0-5.534,1.783-5.534,5.125v9.025
			h-2.488v-16.342h2.488V1242.599z"/>
		<path fill="#FFFFFF" d="M722.913,1254.817c0-1.114,0.929-2.042,2.08-2.042c1.113,0,2.042,0.928,2.042,2.042
			c0,1.151-0.929,2.08-2.042,2.08C723.842,1256.897,722.913,1255.969,722.913,1254.817z"/>
		<path fill="#FFFFFF" d="M754.666,1235.616c-0.558-1.745-2.34-3.119-4.346-3.119c-2.896,0-4.791,2.079-4.791,4.382
			s1.598,3.343,4.791,4.346c4.939,1.56,8.616,3.491,8.616,8.134s-3.825,7.688-8.616,7.688c-4.42,0-8.022-2.971-8.542-7.094h2.822
			c0.521,2.563,2.86,4.383,5.72,4.383c3.231,0,5.794-1.895,5.794-4.977c0-2.451-1.597-3.788-5.794-5.088
			c-4.939-1.523-7.613-3.38-7.613-7.392c0-4.011,3.045-7.094,7.613-7.094c3.714,0,6.723,2.414,7.316,5.831H754.666z"/>
		<path fill="#FFFFFF" d="M778.286,1249.729h-14.225c0.521,2.711,2.86,4.939,5.757,4.939c1.895,0,3.491-0.929,4.531-2.266h3.083
			c-1.375,2.823-4.309,4.717-7.614,4.717c-4.643,0-8.468-3.974-8.468-8.542c0-4.643,3.825-8.468,8.468-8.468
			s8.468,3.825,8.468,8.468V1249.729z M764.062,1247.353h11.514c-0.557-2.711-2.896-4.791-5.757-4.791
			C766.922,1242.562,764.619,1244.642,764.062,1247.353z"/>
		<path fill="#FFFFFF" d="M796.335,1256.712h-2.488v-1.969c-1.3,1.412-3.12,2.229-5.349,2.229c-4.679,0-6.685-2.08-6.685-7.279
			v-9.322h2.488v9.322c0,3.231,1.485,4.828,4.196,4.828c3.306,0,5.349-1.856,5.349-5.459v-8.691h2.488V1256.712z"/>
		<path fill="#FFFFFF" d="M810.076,1244.382c-0.223-1.114-1.448-1.932-3.379-1.932c-1.969,0-3.343,0.929-3.343,2.154
			s1.077,1.931,3.751,2.451c4.196,0.854,5.868,2.303,5.868,5.014c0,2.86-2.191,4.902-6.276,4.902c-3.678,0-6.129-2.042-6.277-4.902
			h2.266c0.223,1.374,1.895,2.563,4.012,2.563c2.414,0,4.011-1.077,4.011-2.563c0-1.56-1.04-2.08-4.011-2.674
			c-3.9-0.78-5.646-2.191-5.646-4.791c0-2.488,1.931-4.494,5.646-4.494c3.23,0,5.385,1.783,5.645,4.271H810.076z"/>
		<path fill="#FFFFFF" d="M825.601,1244.382c-0.223-1.114-1.448-1.932-3.379-1.932c-1.969,0-3.343,0.929-3.343,2.154
			s1.077,1.931,3.751,2.451c4.196,0.854,5.868,2.303,5.868,5.014c0,2.86-2.191,4.902-6.276,4.902c-3.678,0-6.129-2.042-6.277-4.902
			h2.266c0.223,1.374,1.895,2.563,4.012,2.563c2.414,0,4.011-1.077,4.011-2.563c0-1.56-1.04-2.08-4.011-2.674
			c-3.9-0.78-5.646-2.191-5.646-4.791c0-2.488,1.931-4.494,5.646-4.494c3.23,0,5.385,1.783,5.645,4.271H825.601z"/>
	</g>
	<g>
		<path fill="#FFFFFF" d="M481.798,1034.883c0-6.718,5.535-12.253,12.253-12.253c3.601,0,6.771,1.666,8.921,4.245v-3.869h3.601
			v23.754h-3.601v-3.869c-2.149,2.633-5.32,4.353-8.921,4.353C487.333,1047.243,481.798,1041.493,481.798,1034.883z
			 M502.757,1034.883c0-4.783-4.138-8.706-8.813-8.706c-4.783,0-8.384,3.923-8.384,8.706c0,4.676,3.601,8.813,8.384,8.813
			C498.619,1043.696,502.757,1039.559,502.757,1034.883z"/>
	</g>
	<g>
		<path fill="#FFFFFF" d="M541.822,944.948c0-6.718,5.535-12.253,12.253-12.253s12.253,5.535,12.253,12.253
			c0,6.61-5.535,12.36-12.253,12.36S541.822,951.559,541.822,944.948z M545.584,944.948c0,4.676,3.708,8.813,8.491,8.813
			s8.491-4.138,8.491-8.813c0-4.783-3.708-8.706-8.491-8.706S545.584,940.165,545.584,944.948z"/>
		<path fill="#FFFFFF" d="M573.525,956.718V936.35h-3.171v-3.278h3.171v-3.225c0-5.804,0.161-12.683,8.652-11.5v3.332
			c-5.535-0.699-5.052,4.675-5.052,8.168v3.225h4.783v3.278h-4.783v20.368H573.525z"/>
	</g>
</g>
</svg>
