<?xml version="1.0" encoding="utf-8"?>
<!-- Generator: Adobe Illustrator 14.0.0, SVG Export Plug-In . SVG Version: 6.00 Build 43363)  -->
<!DOCTYPE svg PUBLIC "-//W3C//DTD SVG 1.1//EN" "http://www.w3.org/Graphics/SVG/1.1/DTD/svg11.dtd">
<svg version="1.1" id="Layer_1" xmlns="http://www.w3.org/2000/svg" xmlns:xlink="http://www.w3.org/1999/xlink" x="0px" y="0px"
	 width="1296px" height="864px" viewBox="0 0 1296 864" enable-background="new 0 0 1296 864" xml:space="preserve">
<rect id="photo" fill="#EBE5E2" width="1296" height="864"/>
<g id="fill-text">
	<g>
		<path fill="#5E5C5B" stroke="#2E2C2C" stroke-width="0.5" d="M71.635,84.057c-3.892-3.421-5.425-5.19-7.667-5.19
			s-3.42,1.651-3.42,3.42c0,4.128,4.954,10.026,12.267,23.472c5.662,10.262,12.621,23.826,12.621,35.267
			c0,11.913-7.902,18.519-16.867,18.519c-3.185,0-6.841-1.297-9.082-2.713l-2.124,1.297h-3.066l-1.651-12.975l3.774-1.416
			c2.123,4.718,4.718,10.144,12.149,10.144c6.251,0,10.969-5.308,10.969-11.913c0-10.262-5.897-22.292-11.441-32.318
			C59.958,94.319,54.65,87.478,54.65,81.58c0-5.308,3.185-8.375,8.256-8.375c0.943,0,1.769,0.118,2.713,0.236l2.123-1.533h3.539
			l4.246,10.733L71.635,84.057z"/>
		<path fill="#5E5C5B" stroke="#2E2C2C" stroke-width="0.5" d="M93.453,121.565c0-28.78,5.426-48.36,18.872-48.36
			c13.329,0,20.642,19.58,20.642,48.36c0,21.703-6.134,37.98-19.108,37.98C99.94,159.545,93.453,143.268,93.453,121.565z
			 M113.858,153.884c8.492,0,12.856-13.918,12.856-32.318c0-23.59-5.308-42.698-14.508-42.698c-8.61,0-12.503,19.108-12.503,42.698
			C99.704,139.965,104.422,153.884,113.858,153.884z"/>
		<path fill="#5E5C5B" stroke="#2E2C2C" stroke-width="0.5" d="M140.748,158.13v-4.482c5.19-0.59,5.19-1.18,5.19-4.6V83.703
			c0-3.42,0-4.128-5.19-4.6v-4.482h11.559l14.39,12.385l14.39-12.385h11.559v4.482c-5.189,0.472-5.189,1.18-5.189,4.6v65.345
			c0,3.42,0,4.01,5.189,4.6v4.482h-15.923v-4.482c4.836-0.59,4.836-1.416,4.836-4.6V80.873l-14.862,13.21l-14.862-13.21v68.175
			c0,3.185,0,4.01,4.836,4.6v4.482H140.748z"/>
		<path fill="#5E5C5B" stroke="#2E2C2C" stroke-width="0.5" d="M201.135,158.13v-4.482c5.308-0.59,5.308-1.18,5.308-4.6V83.703
			c0-3.42,0-4.128-5.308-4.6v-4.482h14.272c2.831,0,7.431,0,11.677-1.77l4.247,8.021l-3.539,2.005
			c-1.887-1.533-2.831-3.067-6.723-3.067h-8.729v10.144h11.087c3.892,0,4.246-1.297,4.364-3.303h3.539v11.795h-3.539
			c-0.354-1.769-0.826-3.302-4.128-3.302H212.34v57.795h12.149c5.426,0,6.251-2.477,8.256-4.954l3.539,2.359l-4.246,9.2
			c-2.241-0.59-5.072-0.944-8.021-1.18c-2.831-0.236-5.662-0.236-7.785-0.236H201.135z"/>
		<path fill="#5E5C5B" stroke="#2E2C2C" stroke-width="0.5" d="M249.609,158.13v-4.482c4.836-0.472,4.836-1.18,4.836-4.6V79.811
			c-4.718,0-7.785,0-10.38,5.544l-3.774-1.297l3.893-10.144c4.364,0.472,8.846,0.708,13.21,0.708c4.482,0,8.846-0.354,13.21-0.708
			l3.892,10.144l-3.774,1.297c-2.595-5.544-5.661-5.544-10.379-5.544v69.237c0,3.42,0,4.128,4.836,4.6v4.482H249.609z"/>
		<path fill="#5E5C5B" stroke="#2E2C2C" stroke-width="0.5" d="M281.216,158.13v-4.482c4.836-0.59,4.836-1.18,4.836-4.6V83.703
			c0-3.42,0-4.128-4.836-4.6v-4.482h15.57v4.482c-4.836,0.472-4.836,1.18-4.836,4.6v65.345c0,3.185,0,4.01,4.836,4.6v4.482H281.216z
			"/>
		<path fill="#5E5C5B" stroke="#2E2C2C" stroke-width="0.5" d="M304.568,158.13v-4.482c5.19-0.59,5.19-1.18,5.19-4.6V83.703
			c0-3.42,0-4.128-5.19-4.6v-4.482h11.559l14.39,12.385l14.39-12.385h11.559v4.482c-5.189,0.472-5.189,1.18-5.189,4.6v65.345
			c0,3.42,0,4.01,5.189,4.6v4.482h-15.923v-4.482c4.836-0.59,4.836-1.416,4.836-4.6V80.873l-14.861,13.21l-14.862-13.21v68.175
			c0,3.185,0,4.01,4.836,4.6v4.482H304.568z"/>
		<path fill="#5E5C5B" stroke="#2E2C2C" stroke-width="0.5" d="M364.956,158.13v-4.482c5.308-0.59,5.308-1.18,5.308-4.6V83.703
			c0-3.42,0-4.128-5.308-4.6v-4.482h14.272c2.831,0,7.431,0,11.677-1.77l4.247,8.021l-3.539,2.005
			c-1.887-1.533-2.831-3.067-6.723-3.067h-8.729v10.144h11.087c3.893,0,4.246-1.297,4.364-3.303h3.539v11.795h-3.539
			c-0.354-1.769-0.826-3.302-4.128-3.302h-11.323v57.795h12.149c5.426,0,6.251-2.477,8.256-4.954l3.539,2.359l-4.246,9.2
			c-2.241-0.59-5.072-0.944-8.021-1.18c-2.831-0.236-5.662-0.236-7.785-0.236H364.956z"/>
		<path fill="#5E5C5B" stroke="#2E2C2C" stroke-width="0.5" d="M423.22,84.057c-3.893-3.421-5.426-5.19-7.667-5.19
			s-3.42,1.651-3.42,3.42c0,4.128,4.954,10.026,12.267,23.472c5.662,10.262,12.621,23.826,12.621,35.267
			c0,11.913-7.902,18.519-16.867,18.519c-3.185,0-6.841-1.297-9.082-2.713l-2.124,1.297h-3.066l-1.651-12.975l3.774-1.416
			c2.123,4.718,4.718,10.144,12.149,10.144c6.251,0,10.969-5.308,10.969-11.913c0-10.262-5.897-22.292-11.441-32.318
			c-8.139-15.333-13.447-22.175-13.447-28.072c0-5.308,3.185-8.375,8.257-8.375c0.943,0,1.769,0.118,2.713,0.236l2.123-1.533h3.539
			l4.246,10.733L423.22,84.057z"/>
	</g>
	<g>
		<path fill="#5E5C5B" stroke="#2E2C2C" stroke-width="0.5" d="M53.471,312.229v-4.482c5.19-0.59,5.19-1.18,5.19-4.6v-65.345
			c0-3.42,0-4.128-5.19-4.6v-4.482H65.03l14.39,12.385l14.39-12.385h11.559v4.482c-5.189,0.472-5.189,1.18-5.189,4.6v65.345
			c0,3.42,0,4.01,5.189,4.6v4.482H89.445v-4.482c4.836-0.59,4.836-1.416,4.836-4.6v-68.175l-14.861,13.21l-14.862-13.21v68.175
			c0,3.185,0,4.01,4.836,4.6v4.482H53.471z"/>
		<path fill="#5E5C5B" stroke="#2E2C2C" stroke-width="0.5" d="M113.15,312.229v-4.482c4.836-0.59,4.836-1.18,4.836-4.6v-65.345
			c0-3.42,0-4.128-4.836-4.6v-4.482h15.57v4.482c-4.836,0.472-4.836,1.18-4.836,4.6v65.345c0,3.185,0,4.01,4.836,4.6v4.482H113.15z"
			/>
		<path fill="#5E5C5B" stroke="#2E2C2C" stroke-width="0.5" d="M137.092,312.229v-4.482c4.836-0.59,4.836-1.18,4.836-4.6v-65.345
			c0-3.42,0-4.128-4.836-4.6v-4.482h21.467c10.262,0,13.329,4.128,13.329,9.672c0,3.656-1.298,7.667-6.841,9.2
			c0,11.559,1.416,37.862,4.364,48.832c2.123,8.138,4.128,10.733,8.139,11.323v4.482h-8.964c-1.533-3.42-3.067-7.195-4.6-12.975
			c-3.774-14.154-4.836-39.513-4.836-51.309h-11.323v55.201c0,3.185,0,4.01,4.836,4.6v4.482H137.092z M158.559,242.757
			c4.718,0,7.077-1.062,7.077-4.482c0-3.066-3.185-4.364-7.077-4.364h-10.733v8.846H158.559z"/>
		<path fill="#5E5C5B" stroke="#2E2C2C" stroke-width="0.5" d="M182.972,312.229v-4.482c3.303-0.354,5.308,0,5.897-5.072
			l5.897-55.672c0.472-4.128,1.062-9.436,1.062-11.441c0-1.769-1.18-2.123-4.718-2.359v-4.836c5.78,0.236,11.441,0.354,17.221,0.354
			c4.718,0,11.441-0.118,16.867-0.354v4.836c-3.303,0.236-4.718,0.354-4.718,2.359c0,2.005,0.59,7.313,1.062,11.441l6.605,55.672
			c0.589,5.072,2.595,4.718,5.189,5.072v4.482h-15.451v-4.482c2.949-0.236,4.6-0.236,4.6-3.067
			c-0.236-2.949-0.708-6.487-1.062-10.144l-5.544-47.888h-15.333l-4.954,47.888c-0.354,3.656-0.826,7.195-1.062,10.144
			c0,2.831,1.651,2.831,4.6,3.067v4.482H182.972z M201.019,241.459h14.154l-0.708-7.549h-12.621L201.019,241.459z"/>
		<path fill="#5E5C5B" stroke="#2E2C2C" stroke-width="0.5" d="M275.56,302.675c-1.769,3.539-5.897,10.97-15.687,10.97
			c-16.042,0-21.703-18.99-21.703-44.585c0-20.051,5.426-41.754,22.175-41.754c3.42,0,4.01-0.236,4.01-1.769l3.42-1.298
			l4.954,11.795l-3.774,1.533c-2.477-2.831-5.19-4.6-8.61-4.6c-8.729,0-15.923,12.975-15.923,37.037
			c0,21.703,4.482,37.98,15.452,37.98c5.897,0,9.908-4.954,11.559-8.729L275.56,302.675z"/>
		<path fill="#5E5C5B" stroke="#2E2C2C" stroke-width="0.5" d="M282.044,312.229v-4.482c5.19-0.59,5.19-1.18,5.19-4.6v-65.345
			c0-3.42,0-4.128-5.19-4.6v-4.482h15.923v4.482c-4.836,0.472-4.836,1.18-4.836,4.6v69.237h12.267c5.072,0,6.369-2.595,8.138-5.189
			l3.774,2.359l-4.364,9.436c-1.651-0.59-3.893-0.944-6.251-1.062c-2.359-0.236-4.836-0.354-7.077-0.354H282.044z"/>
		<path fill="#5E5C5B" stroke="#2E2C2C" stroke-width="0.5" d="M324.267,312.229v-4.482c5.308-0.59,5.308-1.18,5.308-4.6v-65.345
			c0-3.42,0-4.128-5.308-4.6v-4.482h14.272c2.831,0,7.431,0,11.677-1.77l4.247,8.021l-3.539,2.005
			c-1.887-1.533-2.831-3.066-6.723-3.066h-8.729v10.144h11.087c3.892,0,4.246-1.297,4.364-3.303h3.539v11.795h-3.539
			c-0.354-1.769-0.826-3.302-4.128-3.302h-11.323v57.795h12.149c5.426,0,6.251-2.477,8.256-4.954l3.539,2.359l-4.246,9.2
			c-2.241-0.59-5.072-0.944-8.021-1.18c-2.831-0.236-5.662-0.236-7.785-0.236H324.267z"/>
		<path fill="#5E5C5B" stroke="#2E2C2C" stroke-width="0.5" d="M382.53,238.157c-3.892-3.421-5.425-5.19-7.667-5.19
			s-3.42,1.651-3.42,3.42c0,4.128,4.954,10.026,12.267,23.472c5.662,10.262,12.621,23.826,12.621,35.267
			c0,11.913-7.902,18.519-16.867,18.519c-3.185,0-6.841-1.297-9.082-2.713l-2.124,1.297h-3.066l-1.651-12.975l3.774-1.416
			c2.123,4.718,4.718,10.144,12.149,10.144c6.251,0,10.969-5.308,10.969-11.913c0-10.262-5.897-22.292-11.441-32.318
			c-8.139-15.333-13.446-22.175-13.446-28.072c0-5.308,3.185-8.375,8.256-8.375c0.943,0,1.769,0.118,2.713,0.236l2.123-1.533h3.539
			l4.246,10.733L382.53,238.157z"/>
	</g>
	<g>
		<path fill="#5E5C5B" stroke="#2E2C2C" stroke-width="0.5" d="M91.333,456.775c-1.769,3.538-5.897,10.969-15.687,10.969
			c-16.042,0-21.703-18.989-21.703-44.585c0-20.052,5.426-41.754,22.175-41.754c3.42,0,4.01-0.236,4.01-1.769l3.42-1.298
			l4.954,11.795l-3.774,1.533c-2.477-2.831-5.19-4.6-8.61-4.6c-8.729,0-15.923,12.975-15.923,37.037
			c0,21.703,4.482,37.98,15.452,37.98c5.897,0,9.908-4.954,11.559-8.729L91.333,456.775z"/>
		<path fill="#5E5C5B" stroke="#2E2C2C" stroke-width="0.5" d="M95.459,429.765c0-28.78,5.426-48.36,18.872-48.36
			c13.329,0,20.642,19.58,20.642,48.36c0,21.703-6.134,37.979-19.108,37.979C101.946,467.744,95.459,451.468,95.459,429.765z
			 M115.865,462.083c8.492,0,12.856-13.918,12.856-32.318c0-23.59-5.308-42.698-14.508-42.698c-8.61,0-12.503,19.108-12.503,42.698
			C101.71,448.165,106.429,462.083,115.865,462.083z"/>
		<path fill="#5E5C5B" stroke="#2E2C2C" stroke-width="0.5" d="M142.754,466.329v-4.482c5.19-0.59,5.19-1.18,5.19-4.6v-65.345
			c0-3.42,0-4.128-5.19-4.6v-4.482h11.559l14.39,12.385l14.39-12.385h11.559v4.482c-5.189,0.472-5.189,1.18-5.189,4.6v65.345
			c0,3.42,0,4.01,5.189,4.6v4.482h-15.923v-4.482c4.836-0.59,4.836-1.415,4.836-4.6v-68.175l-14.862,13.21l-14.862-13.21v68.175
			c0,3.185,0,4.01,4.836,4.6v4.482H142.754z"/>
		<path fill="#5E5C5B" stroke="#2E2C2C" stroke-width="0.5" d="M203.142,466.329v-4.482c5.308-0.59,5.308-1.18,5.308-4.6v-65.345
			c0-3.42,0-4.128-5.308-4.6v-4.482h14.272c2.831,0,7.431,0,11.677-1.77l4.247,8.021l-3.539,2.005
			c-1.887-1.533-2.831-3.067-6.723-3.067h-8.729v10.144h11.087c3.892,0,4.246-1.297,4.364-3.303h3.539v11.795h-3.539
			c-0.354-1.769-0.826-3.302-4.128-3.302h-11.323v57.796h12.149c5.426,0,6.251-2.478,8.256-4.954l3.539,2.358l-4.246,9.2
			c-2.241-0.59-5.072-0.943-8.021-1.179c-2.831-0.236-5.662-0.236-7.785-0.236H203.142z"/>
	</g>
	<g>
		<path fill="#5E5C5B" stroke="#2E2C2C" stroke-width="0.5" d="M54.178,620.43v-4.482c4.836-0.59,4.836-1.179,4.836-4.6v-65.345
			c0-3.421,0-4.128-4.836-4.6v-4.482h15.57v4.482c-4.836,0.472-4.836,1.179-4.836,4.6v65.345c0,3.185,0,4.01,4.836,4.6v4.482H54.178
			z"/>
		<path fill="#5E5C5B" stroke="#2E2C2C" stroke-width="0.5" d="M77.767,615.947c4.836-0.59,4.836-1.179,4.836-4.6v-65.345
			c0-3.421,0-4.128-4.836-4.6v-4.482H88.5v1.18c0,2.005,0.236,2.241,2.005,3.185l19.226,10.733v-6.016c0-3.421,0-4.128-4.836-4.6
			v-4.482h15.57v4.482c-4.836,0.472-4.836,1.179-4.836,4.6v65.345c0,3.185,0,4.01,4.836,4.6v4.482h-15.57v-4.482
			c4.836-0.59,4.836-1.179,4.836-4.6v-53.313L88.5,546.003v65.345c0,3.185,0,4.01,4.836,4.6v4.482H77.767V615.947z"/>
	</g>
	<g>
		<path fill="#5E5C5B" stroke="#2E2C2C" stroke-width="0.5" d="M64.912,765.447c0,3.185,0,4.01,4.836,4.6v4.482h-15.57v-4.482
			c4.836-0.59,4.836-1.179,4.836-4.6v-65.345c0-3.421,0-4.128-4.836-4.6v-4.482h21.467c10.262,0,13.328,4.128,13.328,9.672
			c0,6.251-4.128,9.554-13.564,9.554H64.912V765.447z M75.646,705.057c4.718,0,7.077-1.062,7.077-4.482
			c0-3.066-3.185-4.364-7.077-4.364H64.912v8.847H75.646z"/>
		<path fill="#5E5C5B" stroke="#2E2C2C" stroke-width="0.5" d="M89.915,774.529v-4.482c3.303-0.354,5.308,0,5.897-5.071
			l5.897-55.673c0.472-4.128,1.062-9.437,1.062-11.441c0-1.77-1.18-2.123-4.718-2.358v-4.836c5.78,0.235,11.441,0.354,17.221,0.354
			c4.718,0,11.441-0.118,16.867-0.354v4.836c-3.303,0.235-4.718,0.354-4.718,2.358s0.59,7.313,1.062,11.441l6.605,55.673
			c0.589,5.071,2.595,4.718,5.189,5.071v4.482h-15.451v-4.482c2.949-0.235,4.6-0.235,4.6-3.066
			c-0.236-2.949-0.708-6.487-1.062-10.144l-5.544-47.888h-15.333l-4.954,47.888c-0.354,3.656-0.826,7.194-1.062,10.144
			c0,2.831,1.651,2.831,4.6,3.066v4.482H89.915z M107.961,703.759h14.154l-0.708-7.549h-12.621L107.961,703.759z"/>
		<path fill="#5E5C5B" stroke="#2E2C2C" stroke-width="0.5" d="M147.706,774.529v-4.482c4.836-0.59,4.836-1.179,4.836-4.6v-65.345
			c0-3.421,0-4.128-4.836-4.6v-4.482h15.57v4.482c-4.836,0.472-4.836,1.179-4.836,4.6v65.345c0,3.185,0,4.01,4.836,4.6v4.482
			H147.706z"/>
		<path fill="#5E5C5B" stroke="#2E2C2C" stroke-width="0.5" d="M171.647,774.529v-4.482c4.836-0.59,4.836-1.179,4.836-4.6v-65.345
			c0-3.421,0-4.128-4.836-4.6v-4.482h21.467c10.262,0,13.329,4.128,13.329,9.672c0,3.656-1.298,7.667-6.841,9.2
			c0,11.559,1.416,37.862,4.364,48.831c2.123,8.139,4.128,10.733,8.139,11.323v4.482h-8.964c-1.533-3.421-3.067-7.195-4.6-12.975
			c-3.774-14.154-4.836-39.514-4.836-51.309h-11.323v55.201c0,3.185,0,4.01,4.836,4.6v4.482H171.647z M193.114,705.057
			c4.718,0,7.077-1.062,7.077-4.482c0-3.066-3.185-4.364-7.077-4.364h-10.733v8.847H193.114z"/>
		<path fill="#5E5C5B" stroke="#2E2C2C" stroke-width="0.5" d="M237.225,700.456c-3.892-3.42-5.425-5.189-7.667-5.189
			s-3.42,1.651-3.42,3.421c0,4.128,4.954,10.025,12.267,23.472c5.662,10.262,12.621,23.826,12.621,35.268
			c0,11.913-7.902,18.518-16.867,18.518c-3.185,0-6.841-1.297-9.082-2.713l-2.124,1.298h-3.066l-1.651-12.975l3.774-1.415
			c2.123,4.718,4.718,10.144,12.149,10.144c6.251,0,10.969-5.308,10.969-11.913c0-10.262-5.897-22.293-11.441-32.318
			c-8.139-15.334-13.446-22.175-13.446-28.072c0-5.308,3.185-8.375,8.256-8.375c0.943,0,1.769,0.118,2.713,0.236l2.123-1.533h3.539
			l4.246,10.733L237.225,700.456z"/>
	</g>
</g>
</svg>
