<?xml version="1.0" encoding="utf-8"?>
<!-- Generator: Adobe Illustrator 14.0.0, SVG Export Plug-In . SVG Version: 6.00 Build 43363)  -->
<!DOCTYPE svg PUBLIC "-//W3C//DTD SVG 1.1//EN" "http://www.w3.org/Graphics/SVG/1.1/DTD/svg11.dtd">
<svg version="1.1" id="Layer_1" xmlns="http://www.w3.org/2000/svg" xmlns:xlink="http://www.w3.org/1999/xlink" x="0px" y="0px"
	 width="864px" height="1296px" viewBox="0 0 864 1296" enable-background="new 0 0 864 1296" xml:space="preserve">
<rect id="photo" y="166.5" fill="#D0D2D3" width="864" height="881"/>
<polygon fill="none" stroke="#FFFFFF" stroke-width="3.4791" stroke-linecap="round" points="567.75,188.333 844.5,188.333 
	844.5,1025 21,1025 21,188.333 49.75,188.333 "/>
<rect id="fill-top" fill="#8DC9EB" width="864" height="166.5"/>
<rect id="fill-bottom" y="1250.127" fill="#8DC9EB" width="864" height="45.873"/>
<g id="fill_x5F_text">
	<g>
		<path fill="#1677BB" d="M140.332,1130.886h-16.115c-0.489,0-0.908-0.35-0.908-0.837c0-0.489,0.419-0.908,0.908-0.908h33.975
			c0.558,0,0.907,0.419,0.907,0.908c0,0.487-0.349,0.837-0.907,0.837h-16.046v46.184c0,0.487-0.488,0.906-0.907,0.906
			c-0.558,0-0.907-0.419-0.907-0.906V1130.886z"/>
		<path fill="#1677BB" d="M196.066,1157.675c0-6.697-5.372-12.069-12.069-12.069c-6.558,0-11.859,5.162-12.139,11.581v19.883
			c0,0.348-0.139,0.628-0.349,0.768c-0.139,0.068-0.279,0.139-0.349,0.139h-0.139c-0.209,0-0.419-0.07-0.628-0.209
			c-0.139-0.14-0.279-0.35-0.279-0.559v-0.139v-19.395v-0.559v-27.067c0-0.489,0.419-0.908,0.908-0.908
			c0.488,0,0.836,0.419,0.836,0.908v20.929c2.372-4.256,6.907-7.186,12.139-7.186c7.674,0,13.813,6.208,13.813,13.883v19.395
			c0,0.487-0.419,0.906-0.838,0.906c-0.558,0-0.907-0.419-0.907-0.906V1157.675z"/>
		<path fill="#1677BB" d="M212.943,1133.676c0-0.558,0.349-0.907,0.908-0.907c0.418,0,0.837,0.35,0.837,0.907v1.675
			c0,0.418-0.419,0.838-0.837,0.838c-0.559,0-0.908-0.42-0.908-0.838V1133.676z M212.943,1144.628c0-0.558,0.349-0.836,0.908-0.836
			c0.418,0,0.837,0.278,0.837,0.836v32.441c0,0.487-0.419,0.906-0.837,0.906c-0.559,0-0.908-0.419-0.908-0.906V1144.628z"/>
		<path fill="#1677BB" d="M230.66,1173.022c-0.349-0.35-0.419-0.906-0.07-1.256c0.35-0.35,0.907-0.418,1.256-0.069
			c0.07,0.069,5.093,4.534,11.651,4.534c6.208,0,11.301-3.627,11.301-8.092c0-5.232-5.093-6.35-10.464-7.604
			c-5.442-1.325-11.651-2.722-11.651-9.14c0-4.604,4.884-8.301,10.813-8.301c6.836,0,10.395,3.976,10.534,4.186
			c0.35,0.348,0.28,0.906-0.069,1.255c-0.418,0.349-0.977,0.28-1.256-0.069c-0.069-0.07-3.209-3.558-9.208-3.558
			c-4.954,0-9,2.859-9,6.487c0,4.953,4.745,6.069,10.255,7.395c5.581,1.256,11.86,2.721,11.86,9.35c0,5.51-5.791,9.836-13.116,9.836
			C236.241,1177.976,230.87,1173.232,230.66,1173.022z"/>
		<path fill="#1677BB" d="M287.786,1133.676c0-0.558,0.35-0.907,0.907-0.907c0.418,0,0.837,0.35,0.837,0.907v1.675
			c0,0.418-0.419,0.838-0.837,0.838c-0.558,0-0.907-0.42-0.907-0.838V1133.676z M287.786,1144.628c0-0.558,0.35-0.836,0.907-0.836
			c0.418,0,0.837,0.278,0.837,0.836v32.441c0,0.487-0.419,0.906-0.837,0.906c-0.558,0-0.907-0.419-0.907-0.906V1144.628z"/>
		<path fill="#1677BB" d="M305.503,1173.022c-0.349-0.35-0.419-0.906-0.07-1.256c0.349-0.35,0.908-0.418,1.256-0.069
			c0.069,0.069,5.092,4.534,11.65,4.534c6.209,0,11.301-3.627,11.301-8.092c0-5.232-5.092-6.35-10.464-7.604
			c-5.441-1.325-11.65-2.722-11.65-9.14c0-4.604,4.884-8.301,10.813-8.301c6.836,0,10.395,3.976,10.534,4.186
			c0.349,0.348,0.28,0.906-0.07,1.255c-0.418,0.349-0.976,0.28-1.255-0.069c-0.07-0.07-3.21-3.558-9.209-3.558
			c-4.953,0-9,2.859-9,6.487c0,4.953,4.745,6.069,10.255,7.395c5.581,1.256,11.86,2.721,11.86,9.35c0,5.51-5.79,9.836-13.115,9.836
			C311.084,1177.976,305.713,1173.232,305.503,1173.022z"/>
		<path fill="#1677BB" d="M388.512,1157.675c0-6.697-5.372-12.069-12.069-12.069c-6.558,0-11.859,5.162-12.139,11.581v19.883
			c0,0.348-0.139,0.628-0.349,0.768c-0.139,0.068-0.279,0.139-0.349,0.139h-0.139c-0.209,0-0.419-0.07-0.628-0.209
			c-0.139-0.14-0.279-0.35-0.279-0.559v-0.139v-19.395v-0.559v-27.067c0-0.489,0.419-0.908,0.908-0.908
			c0.488,0,0.836,0.419,0.836,0.908v20.929c2.372-4.256,6.907-7.186,12.139-7.186c7.674,0,13.813,6.208,13.813,13.883v19.395
			c0,0.487-0.419,0.906-0.838,0.906c-0.558,0-0.907-0.419-0.907-0.906V1157.675z"/>
		<path fill="#1677BB" d="M419.829,1143.792c8.93,0,16.185,7.673,16.185,17.092c0,9.349-7.255,17.092-16.185,17.092
			s-16.115-7.743-16.115-17.092C403.714,1151.465,410.899,1143.792,419.829,1143.792z M419.829,1176.231
			c7.883,0,14.441-6.907,14.441-15.348c0-8.511-6.558-15.349-14.441-15.349c-7.883,0-14.371,6.838-14.371,15.349
			C405.458,1169.324,411.946,1176.231,419.829,1176.231z"/>
		<path fill="#1677BB" d="M477.797,1177.767c-0.068-0.069-0.139-0.14-0.139-0.21c0,0-0.069,0-0.069-0.069v-0.07l-9.21-21.904
			l-9.209,21.904c-0.139,0.28-0.349,0.488-0.627,0.559h-0.278h-0.141c-0.07,0-0.21-0.07-0.349-0.139
			c-0.209-0.14-0.349-0.35-0.349-0.559l-13.535-32.16c-0.208-0.42,0-0.978,0.489-1.117c0.419-0.209,0.977,0,1.187,0.418
			l12.767,30.418l9.139-21.767c0.139-0.349,0.559-0.558,0.976-0.489c0.351,0,0.628,0.209,0.838,0.489l9.14,21.767l12.836-30.418
			c0.139-0.418,0.627-0.627,1.116-0.418c0.419,0.14,0.697,0.697,0.489,1.117l-13.605,32.299c0,0.14-0.139,0.28-0.278,0.35
			c-0.21,0.139-0.349,0.209-0.489,0.209c-0.208,0-0.278,0-0.418-0.07C477.938,1177.905,477.867,1177.837,477.797,1177.767z"/>
		<path fill="#1677BB" d="M558.781,1177.767c-0.07-0.069-0.14-0.14-0.14-0.21c0,0-0.07,0-0.07-0.069v-0.07l-9.208-21.904
			l-9.209,21.904c-0.14,0.28-0.35,0.488-0.629,0.559h-0.278h-0.141c-0.069,0-0.208-0.07-0.349-0.139
			c-0.208-0.14-0.349-0.35-0.349-0.559l-13.534-32.16c-0.209-0.42,0-0.978,0.488-1.117c0.419-0.209,0.977,0,1.187,0.418
			l12.768,30.418l9.138-21.767c0.141-0.349,0.56-0.558,0.977-0.489c0.35,0,0.629,0.209,0.837,0.489l9.141,21.767l12.835-30.418
			c0.141-0.418,0.629-0.627,1.116-0.418c0.419,0.14,0.698,0.697,0.489,1.117l-13.604,32.299c0,0.14-0.14,0.28-0.28,0.35
			c-0.208,0.139-0.349,0.209-0.487,0.209c-0.21,0-0.28,0-0.418-0.07C558.92,1177.905,558.85,1177.837,558.781,1177.767z"/>
		<path fill="#1677BB" d="M580.538,1160.884c0.141-9.488,7.465-17.092,16.604-17.092c8.72,0,15.766,6.906,16.395,15.766v0.07v0.14
			v0.07c-0.07,0.417-0.42,0.837-0.837,0.837h-30.417v0.209c0,8.371,6.627,15.278,14.859,15.348c5.162,0,9.697-2.791,12.277-6.977
			c0.28-0.418,0.768-0.418,1.256-0.209c0.349,0.209,0.489,0.768,0.209,1.187c-2.93,4.534-8.022,7.743-13.742,7.743
			C588.003,1177.837,580.679,1170.232,580.538,1160.884z M582.352,1159h29.44c-0.907-7.604-7.185-13.395-14.649-13.395
			C589.538,1145.605,583.26,1151.396,582.352,1159z"/>
		<path fill="#1677BB" d="M676.245,1177.976c-0.419,0-0.838-0.419-0.838-0.906v-8.442c-2.722,5.513-8.303,9.349-14.719,9.349
			c-9.211,0-16.604-7.743-16.604-17.162c0-9.349,7.394-17.021,16.604-17.021c6.416,0,11.997,3.836,14.719,9.418v-23.021
			c0-0.488,0.419-1.048,0.838-1.048c0.557,0,0.905,0.56,0.905,1.048v29.928v0.697v0.838v15.418
			C677.15,1177.557,676.802,1177.976,676.245,1177.976z M675.407,1160.187c-0.278-8.162-6.905-14.651-14.719-14.651
			c-8.165,0-14.861,6.838-14.861,15.278c0,8.511,6.696,15.418,14.861,15.418c8.021,0,14.719-6.907,14.719-15.418V1160.187z"/>
		<path fill="#1677BB" d="M706.934,1143.792c8.93,0,16.184,7.673,16.184,17.092c0,9.349-7.254,17.092-16.184,17.092
			s-16.116-7.743-16.116-17.092C690.817,1151.465,698.004,1143.792,706.934,1143.792z M706.934,1176.231
			c7.884,0,14.44-6.907,14.44-15.348c0-8.511-6.557-15.349-14.44-15.349s-14.373,6.838-14.373,15.349
			C692.561,1169.324,699.05,1176.231,706.934,1176.231z"/>
		<path fill="#1677BB" d="M736.228,1173.789c1.327,0,2.373,1.048,2.373,2.373s-1.046,2.372-2.373,2.372
			c-1.324,0-2.37-1.047-2.37-2.372S734.903,1173.789,736.228,1173.789z"/>
	</g>
</g>
<g>
	<g>
		<path fill="#FFFFFF" d="M100.646,118.273c1.643,11.908,5.8,19.247,12.473,22.019c6.672,2.771,13.241,2.771,19.709,0
			c6.466-2.771,9.7-8.078,9.7-15.921c0-7.842-7.597-13.775-22.788-17.8c-15.192-4.023-22.789-10.356-22.789-19.001
			c0-8.643,1.848-15.129,5.543-19.462c3.696-4.331,10.163-6.498,19.401-6.498c6.98,0,12.266,1.027,15.859,3.08
			c3.593,2.054,6.621,3.079,9.085,3.079v17.246h-3.696c-1.232-10.471-5.081-16.834-11.548-19.093
			c-6.466-2.258-12.759-2.237-18.877,0.062c-6.119,2.3-9.177,7.021-9.177,14.165c0,7.145,7.626,12.74,22.88,16.784
			c15.254,4.045,22.881,10.707,22.881,19.986s-2.278,16.342-6.836,21.187c-4.558,4.846-10.789,7.268-18.692,7.268
			c-7.905,0-13.735-1.335-17.492-4.003c-3.757-2.669-6.867-4.004-9.331-4.004v-19.093H100.646z"/>
		<path fill="#FFFFFF" d="M165.932,105.956c0-2.874-0.77-4.62-2.31-5.235c-1.54-0.616-3.439-0.925-5.697-0.925v-1.847
			c3.079-0.41,5.491-0.925,7.237-1.541c1.744-0.615,3.849-1.745,6.313-3.387h1.848v28.947c0,7.391,1.21,12.113,3.634,14.166
			c2.422,2.054,5.933,3.08,10.531,3.08c4.106,0,8.212-2.874,12.319-8.623v-24.636c0-2.874-0.77-4.62-2.31-5.235
			c-1.54-0.616-3.439-0.925-5.697-0.925v-1.847c3.079-0.41,5.491-0.925,7.237-1.541c1.745-0.615,3.849-1.745,6.313-3.387h1.848
			v41.881c0,3.286,3.079,4.928,9.238,4.928v1.848c-3.079,0.411-5.8,0.821-8.161,1.231c-2.361,0.411-4.568,1.232-6.621,2.464h-1.847
			v-11.702c-5.379,7.802-11.127,11.702-17.246,11.702c-4.106,0-7.904-1.335-11.395-4.003c-3.49-2.669-5.234-7.083-5.234-13.242
			V105.956z"/>
		<path fill="#FFFFFF" d="M237.376,104.108c5.379-7.801,11.127-11.702,17.245-11.702c4.105,0,7.904,1.334,11.394,4.002
			c2.464,1.89,4.065,4.661,4.804,8.315c5.667-8.212,11.558-12.317,17.677-12.317c4.105,0,7.903,1.334,11.394,4.002
			c3.49,2.669,5.235,7.083,5.235,13.242v27.715c0,2.875,3.08,4.312,9.238,4.312v1.848c-4.312,0-7.544-0.102-9.701-0.308
			c-2.156-0.205-4.311-0.205-6.466,0c-2.156,0.206-5.39,0.308-9.7,0.308v-1.848c6.159,0,9.238-1.437,9.238-4.312V115.81
			c0-7.637-1.211-12.419-3.633-14.35c-2.424-1.93-5.935-2.895-10.532-2.895c-4.106,0-8.253,2.936-12.441,8.807
			c0.082,0.699,0.123,1.458,0.123,2.279v27.715c0,2.875,3.08,4.312,9.239,4.312v1.848c-4.312,0-7.545-0.102-9.701-0.308
			c-2.155-0.205-4.311-0.205-6.467,0c-2.155,0.206-5.389,0.308-9.7,0.308v-1.848c6.159,0,9.238-1.437,9.238-4.312V115.81
			c0-7.637-1.211-12.419-3.634-14.35c-2.423-1.93-5.934-2.895-10.532-2.895c-4.105,0-8.212,2.874-12.317,8.622v30.179
			c0,2.875,3.08,4.312,9.238,4.312v1.848c-4.312,0-7.544-0.102-9.701-0.308c-2.156-0.205-4.311-0.205-6.466,0
			c-2.156,0.206-5.39,0.308-9.7,0.308v-1.848c6.159,0,9.238-1.437,9.238-4.312v-30.179c0-1.641-0.822-2.822-2.463-3.542
			c-1.643-0.718-3.901-1.18-6.774-1.386v-1.848c3.284-0.409,6.261-1.386,8.93-2.925c2.668-1.54,4.62-3.028,5.851-4.465h1.848
			V104.108z"/>
		<path fill="#FFFFFF" d="M335.304,104.108c5.379-7.801,11.127-11.702,17.246-11.702c4.105,0,7.903,1.334,11.394,4.002
			c2.464,1.89,4.065,4.661,4.804,8.315c5.667-8.212,11.559-12.317,17.677-12.317c4.105,0,7.904,1.334,11.394,4.002
			c3.49,2.669,5.235,7.083,5.235,13.242v27.715c0,2.875,3.08,4.312,9.239,4.312v1.848c-4.312,0-7.545-0.102-9.701-0.308
			c-2.155-0.205-4.311-0.205-6.466,0c-2.156,0.206-5.389,0.308-9.7,0.308v-1.848c6.159,0,9.238-1.437,9.238-4.312V115.81
			c0-7.637-1.211-12.419-3.633-14.35c-2.423-1.93-5.934-2.895-10.532-2.895c-4.106,0-8.253,2.936-12.441,8.807
			c0.082,0.699,0.123,1.458,0.123,2.279v27.715c0,2.875,3.08,4.312,9.239,4.312v1.848c-4.312,0-7.544-0.102-9.701-0.308
			c-2.156-0.205-4.312-0.205-6.467,0c-2.155,0.206-5.389,0.308-9.7,0.308v-1.848c6.159,0,9.238-1.437,9.238-4.312V115.81
			c0-7.637-1.212-12.419-3.634-14.35c-2.424-1.93-5.934-2.895-10.532-2.895c-4.106,0-8.213,2.874-12.318,8.622v30.179
			c0,2.875,3.08,4.312,9.239,4.312v1.848c-4.312,0-7.545-0.102-9.701-0.308c-2.155-0.205-4.311-0.205-6.466,0
			c-2.156,0.206-5.389,0.308-9.7,0.308v-1.848c6.159,0,9.238-1.437,9.238-4.312v-30.179c0-1.641-0.821-2.822-2.463-3.542
			c-1.643-0.718-3.901-1.18-6.775-1.386v-1.848c3.284-0.409,6.261-1.386,8.93-2.925c2.668-1.54,4.62-3.028,5.851-4.465h1.848
			V104.108z"/>
		<path fill="#FFFFFF" d="M425.225,137.705c-4.517-5.112-6.775-11.384-6.775-18.815c0-8.212,2.669-14.679,8.007-19.401
			c5.337-4.721,10.676-7.082,16.014-7.082c6.98,0,12.42,1.95,16.321,5.851c3.901,3.901,5.851,8.725,5.851,14.474h-38.802
			c0,9.033,1.745,15.5,5.235,19.4c3.49,3.902,7.289,5.852,11.395,5.852c6.158,0,12.934-3.285,20.324-9.854l1.848,1.231
			c-6.98,10.677-14.781,16.014-23.404,16.014C435.079,145.373,429.742,142.817,425.225,137.705z M456.636,110.267
			c0-4.105-1.294-7.698-3.88-10.778c-2.586-3.08-5.605-4.619-9.053-4.619c-6.16,0-10.677,1.643-13.55,4.927
			c-2.875,3.286-4.312,6.775-4.312,10.471H456.636z"/>
		<path fill="#FFFFFF" d="M481.273,107.187c0-1.641-0.822-2.822-2.465-3.542c-1.643-0.718-3.9-1.18-6.774-1.386v-1.848
			c3.284-0.409,6.261-1.386,8.93-2.925s4.62-3.028,5.853-4.465h1.847v14.166c3.284-9.854,7.699-14.781,13.242-14.781
			s8.314,1.642,8.314,4.927c0,3.286-0.72,5.235-2.156,5.851c-1.437,0.616-3.079,0.309-4.927-0.924
			c-1.848-1.231-4.003-1.949-6.467-2.155c-2.464-0.205-5.133,3.183-8.007,10.162v27.1c0,2.875,3.079,4.312,9.239,4.312v1.848
			c-4.312,0-7.546-0.102-9.701-0.308c-2.156-0.205-4.311-0.205-6.467,0c-2.156,0.206-5.389,0.308-9.7,0.308v-1.848
			c6.158,0,9.239-1.437,9.239-4.312V107.187z"/>
		<path fill="#FFFFFF" d="M550.867,143.525v-2.464c13.141-10.675,21.66-18.066,25.561-22.172s5.852-8.007,5.852-11.703
			c0-2.874-0.821-5.235-2.463-7.083c-1.645-1.848-3.901-2.771-6.775-2.771c-3.695,0-7.052,0.688-10.07,2.063
			c-3.018,1.376-5.41,4.28-7.176,8.715h-1.847c1.231-5.174,3.489-9.085,6.774-11.733s7.391-3.972,12.318-3.972
			c5.336,0,9.752,0.976,13.242,2.925c3.489,1.951,5.234,5.492,5.234,10.625c0,5.338-2.361,9.854-7.083,13.55
			c-4.722,3.695-13.037,9.443-24.943,17.245h25.868c4.105,0,6.467-1.026,7.082-3.08c0.617-2.053,1.744-4.517,3.389-7.391h1.847
			c-1.437,2.874-2.361,5.749-2.771,8.622c-0.411,2.875-0.72,5.75-0.925,8.623H550.867z"/>
		<path fill="#FFFFFF" d="M616.186,137.674c-5.359-5.132-8.038-11.394-8.038-18.784s2.679-13.652,8.038-18.785
			c5.357-5.132,11.917-7.698,19.678-7.698s14.319,2.566,19.678,7.698c5.358,5.133,8.039,11.395,8.039,18.785
			s-2.681,13.652-8.039,18.784c-5.358,5.134-11.917,7.699-19.678,7.699S621.543,142.808,616.186,137.674z M622.313,136.012
			c3.284,4.599,7.802,6.897,13.55,6.897s10.266-2.299,13.551-6.897s4.926-10.306,4.926-17.122s-1.641-12.523-4.926-17.123
			c-3.285-4.598-7.803-6.898-13.551-6.898s-10.266,2.3-13.55,6.898c-3.284,4.6-4.928,10.307-4.928,17.123
			S619.029,131.413,622.313,136.012z"/>
		<path fill="#FFFFFF" d="M685.137,100.412c0-2.873-4.107-4.311-12.319-4.311v-1.848c5.666,0,9.905,0.104,12.718,0.309
			c2.813,0.206,5.625,0.206,8.438,0c2.813-0.205,7.052-0.309,12.721-0.309v1.848c-8.215,0-12.319,1.438-12.319,4.311v36.954
			c0,2.875,4.104,4.312,12.319,4.312v1.848c-5.669,0-9.908-0.102-12.721-0.308c-2.813-0.205-5.625-0.205-8.438,0
			c-2.813,0.206-7.052,0.308-12.718,0.308v-1.848c8.212,0,12.319-1.437,12.319-4.312V100.412z"/>
		<path fill="#FFFFFF" d="M743.646,145.373c-7.802,0-13.857-2.464-18.17-7.391c-4.31-4.927-6.466-13.344-6.466-25.252
			c0-12.318,5.133-23.917,15.398-34.799c10.263-10.88,20.938-17.758,32.027-20.632v3.079c-7.392,2.875-14.783,7.494-22.175,13.858
			c-7.389,6.365-12.521,16.116-15.396,29.255c4.925-4.105,10.263-6.159,16.014-6.159c7.389,0,13.137,2.054,17.244,6.159
			c4.104,4.105,6.158,9.752,6.158,16.937c0,7.186-2.054,13.14-6.158,17.861C758.016,143.013,751.857,145.373,743.646,145.373z
			 M728.558,106.571c-0.208,4.106-0.311,8.212-0.311,12.318c0,8.213,1.541,14.269,4.62,18.168c3.079,3.902,6.981,5.851,11.701,5.851
			c4.723,0,8.317-1.949,10.778-5.851c2.464-3.9,3.697-9.956,3.697-18.168c0-8.212-1.541-13.447-4.62-15.706
			c-3.079-2.257-6.261-3.388-9.545-3.388C739.128,99.796,733.688,102.055,728.558,106.571z"/>
	</g>
</g>
</svg>
