<?xml version="1.0" encoding="utf-8"?>
<!-- Generator: Adobe Illustrator 14.0.0, SVG Export Plug-In . SVG Version: 6.00 Build 43363)  -->
<!DOCTYPE svg PUBLIC "-//W3C//DTD SVG 1.1//EN" "http://www.w3.org/Graphics/SVG/1.1/DTD/svg11.dtd">
<svg version="1.1" id="Layer_1" xmlns="http://www.w3.org/2000/svg" xmlns:xlink="http://www.w3.org/1999/xlink" x="0px" y="0px"
	 width="576px" height="720px" viewBox="0 0 576 720" enable-background="new 0 0 576 720" xml:space="preserve">
<rect id="photo" y="111" fill="#D0D2D3" width="576" height="437.584"/>
<polygon fill="none" stroke="#FFFFFF" stroke-width="2" stroke-linecap="round" points="378.5,121.263 563,121.263 563,536 14,536 
	14,121.263 33.167,121.263 "/>
<rect id="fill-top" fill="#8DC9EB" width="576" height="111"/>
<rect id="fill-bottom" y="689.417" fill="#8DC9EB" width="576" height="30.583"/>
<g id="fill_x5F_text">
	<g>
		<path fill="#1677BB" d="M93.555,600.606H82.811c-0.326,0-0.605-0.232-0.605-0.558c0-0.326,0.279-0.605,0.605-0.605h22.65
			c0.372,0,0.604,0.279,0.604,0.605c0,0.325-0.232,0.558-0.604,0.558H94.764v30.789c0,0.325-0.326,0.604-0.604,0.604
			c-0.372,0-0.604-0.279-0.604-0.604V600.606z"/>
		<path fill="#1677BB" d="M130.711,618.466c0-4.465-3.581-8.046-8.046-8.046c-4.372,0-7.906,3.441-8.093,7.721v13.255
			c0,0.232-0.093,0.419-0.232,0.512c-0.093,0.046-0.186,0.093-0.232,0.093h-0.093c-0.14,0-0.279-0.047-0.419-0.14
			c-0.093-0.093-0.186-0.232-0.186-0.372v-0.093v-12.93v-0.372v-18.045c0-0.326,0.279-0.605,0.605-0.605
			c0.325,0,0.558,0.279,0.558,0.605v13.952c1.582-2.837,4.604-4.79,8.093-4.79c5.116,0,9.209,4.139,9.209,9.255v12.93
			c0,0.325-0.279,0.604-0.559,0.604c-0.372,0-0.604-0.279-0.604-0.604V618.466z"/>
		<path fill="#1677BB" d="M141.962,602.467c0-0.372,0.233-0.604,0.605-0.604c0.279,0,0.558,0.232,0.558,0.604v1.116
			c0,0.279-0.279,0.559-0.558,0.559c-0.372,0-0.605-0.279-0.605-0.559V602.467z M141.962,609.769c0-0.372,0.233-0.558,0.605-0.558
			c0.279,0,0.558,0.186,0.558,0.558v21.627c0,0.325-0.279,0.604-0.558,0.604c-0.372,0-0.605-0.279-0.605-0.604V609.769z"/>
		<path fill="#1677BB" d="M153.773,628.698c-0.232-0.233-0.279-0.604-0.047-0.838c0.233-0.232,0.605-0.278,0.837-0.046
			c0.046,0.046,3.395,3.022,7.767,3.022c4.139,0,7.534-2.418,7.534-5.395c0-3.488-3.395-4.232-6.976-5.069
			c-3.628-0.884-7.767-1.814-7.767-6.093c0-3.069,3.256-5.534,7.209-5.534c4.558,0,6.93,2.65,7.022,2.79
			c0.233,0.232,0.187,0.604-0.046,0.837c-0.279,0.232-0.651,0.187-0.837-0.046c-0.046-0.047-2.14-2.372-6.139-2.372
			c-3.302,0-6,1.906-6,4.325c0,3.302,3.163,4.046,6.837,4.93c3.721,0.837,7.907,1.813,7.907,6.232c0,3.674-3.86,6.558-8.744,6.558
			C157.494,632,153.913,628.838,153.773,628.698z"/>
		<path fill="#1677BB" d="M191.857,602.467c0-0.372,0.233-0.604,0.605-0.604c0.279,0,0.558,0.232,0.558,0.604v1.116
			c0,0.279-0.279,0.559-0.558,0.559c-0.372,0-0.605-0.279-0.605-0.559V602.467z M191.857,609.769c0-0.372,0.233-0.558,0.605-0.558
			c0.279,0,0.558,0.186,0.558,0.558v21.627c0,0.325-0.279,0.604-0.558,0.604c-0.372,0-0.605-0.279-0.605-0.604V609.769z"/>
		<path fill="#1677BB" d="M203.669,628.698c-0.232-0.233-0.279-0.604-0.047-0.838c0.233-0.232,0.605-0.278,0.837-0.046
			c0.046,0.046,3.395,3.022,7.767,3.022c4.139,0,7.534-2.418,7.534-5.395c0-3.488-3.395-4.232-6.976-5.069
			c-3.628-0.884-7.767-1.814-7.767-6.093c0-3.069,3.256-5.534,7.209-5.534c4.558,0,6.93,2.65,7.022,2.79
			c0.233,0.232,0.187,0.604-0.046,0.837c-0.279,0.232-0.651,0.187-0.837-0.046c-0.046-0.047-2.14-2.372-6.139-2.372
			c-3.302,0-6,1.906-6,4.325c0,3.302,3.163,4.046,6.837,4.93c3.721,0.837,7.907,1.813,7.907,6.232c0,3.674-3.86,6.558-8.744,6.558
			C207.39,632,203.809,628.838,203.669,628.698z"/>
		<path fill="#1677BB" d="M259.008,618.466c0-4.465-3.581-8.046-8.046-8.046c-4.372,0-7.906,3.441-8.093,7.721v13.255
			c0,0.232-0.093,0.419-0.232,0.512c-0.093,0.046-0.186,0.093-0.232,0.093h-0.093c-0.14,0-0.279-0.047-0.419-0.14
			c-0.093-0.093-0.186-0.232-0.186-0.372v-0.093v-12.93v-0.372v-18.045c0-0.326,0.279-0.605,0.605-0.605
			c0.325,0,0.558,0.279,0.558,0.605v13.952c1.582-2.837,4.604-4.79,8.093-4.79c5.116,0,9.209,4.139,9.209,9.255v12.93
			c0,0.325-0.279,0.604-0.559,0.604c-0.372,0-0.604-0.279-0.604-0.604V618.466z"/>
		<path fill="#1677BB" d="M279.886,609.211c5.953,0,10.79,5.115,10.79,11.395c0,6.232-4.836,11.395-10.79,11.395
			s-10.744-5.162-10.744-11.395C269.143,614.326,273.933,609.211,279.886,609.211z M279.886,630.837
			c5.255,0,9.627-4.604,9.627-10.231c0-5.674-4.372-10.232-9.627-10.232s-9.581,4.559-9.581,10.232
			C270.306,626.232,274.631,630.837,279.886,630.837z"/>
		<path fill="#1677BB" d="M318.531,631.86c-0.046-0.046-0.093-0.093-0.093-0.14c0,0-0.046,0-0.046-0.046v-0.047l-6.14-14.604
			l-6.14,14.604c-0.093,0.187-0.232,0.325-0.418,0.372h-0.186h-0.094c-0.047,0-0.14-0.047-0.232-0.093
			c-0.14-0.093-0.232-0.232-0.232-0.372l-9.023-21.44c-0.139-0.279,0-0.651,0.326-0.744c0.279-0.14,0.651,0,0.791,0.278
			l8.511,20.278l6.093-14.511c0.093-0.232,0.372-0.372,0.65-0.326c0.233,0,0.419,0.14,0.559,0.326l6.093,14.511l8.558-20.278
			c0.093-0.278,0.418-0.418,0.744-0.278c0.279,0.093,0.465,0.465,0.326,0.744l-9.07,21.533c0,0.093-0.093,0.187-0.186,0.232
			c-0.14,0.093-0.232,0.14-0.326,0.14c-0.139,0-0.186,0-0.278-0.047C318.625,631.953,318.578,631.907,318.531,631.86z"/>
		<path fill="#1677BB" d="M372.521,631.86c-0.047-0.046-0.093-0.093-0.093-0.14c0,0-0.047,0-0.047-0.046v-0.047l-6.139-14.604
			l-6.14,14.604c-0.093,0.187-0.232,0.325-0.419,0.372h-0.186h-0.094c-0.046,0-0.139-0.047-0.232-0.093
			c-0.139-0.093-0.232-0.232-0.232-0.372l-9.022-21.44c-0.14-0.279,0-0.651,0.325-0.744c0.279-0.14,0.651,0,0.791,0.278
			l8.512,20.278l6.092-14.511c0.094-0.232,0.373-0.372,0.651-0.326c0.232,0,0.419,0.14,0.558,0.326l6.094,14.511l8.557-20.278
			c0.094-0.278,0.419-0.418,0.744-0.278c0.279,0.093,0.466,0.465,0.326,0.744l-9.069,21.533c0,0.093-0.093,0.187-0.187,0.232
			c-0.139,0.093-0.232,0.14-0.325,0.14c-0.14,0-0.187,0-0.278-0.047C372.613,631.953,372.566,631.907,372.521,631.86z"/>
		<path fill="#1677BB" d="M387.025,620.605c0.094-6.325,4.977-11.395,11.069-11.395c5.813,0,10.511,4.604,10.93,10.511v0.047v0.093
			v0.047c-0.047,0.278-0.279,0.558-0.558,0.558h-20.278v0.14c0,5.581,4.418,10.186,9.906,10.231c3.441,0,6.465-1.86,8.186-4.65
			c0.187-0.279,0.512-0.279,0.837-0.14c0.232,0.14,0.326,0.512,0.14,0.791c-1.953,3.022-5.349,5.162-9.162,5.162
			C392.002,631.907,387.119,626.838,387.025,620.605z M388.234,619.35h19.627c-0.604-5.069-4.79-8.93-9.767-8.93
			C393.025,610.42,388.84,614.28,388.234,619.35z"/>
		<path fill="#1677BB" d="M450.829,632c-0.278,0-0.558-0.279-0.558-0.604v-5.628c-1.814,3.675-5.535,6.232-9.813,6.232
			c-6.14,0-11.069-5.162-11.069-11.441c0-6.232,4.93-11.348,11.069-11.348c4.278,0,7.999,2.558,9.813,6.278v-15.348
			c0-0.325,0.279-0.698,0.558-0.698c0.372,0,0.604,0.373,0.604,0.698v19.952v0.465v0.559v10.278
			C451.434,631.721,451.201,632,450.829,632z M450.271,620.141c-0.187-5.441-4.604-9.768-9.813-9.768
			c-5.442,0-9.907,4.559-9.907,10.186c0,5.674,4.465,10.278,9.907,10.278c5.349,0,9.813-4.604,9.813-10.278V620.141z"/>
		<path fill="#1677BB" d="M471.288,609.211c5.953,0,10.79,5.115,10.79,11.395c0,6.232-4.837,11.395-10.79,11.395
			s-10.743-5.162-10.743-11.395C460.545,614.326,465.335,609.211,471.288,609.211z M471.288,630.837
			c5.256,0,9.628-4.604,9.628-10.231c0-5.674-4.372-10.232-9.628-10.232c-5.255,0-9.581,4.559-9.581,10.232
			C461.707,626.232,466.033,630.837,471.288,630.837z"/>
		<path fill="#1677BB" d="M490.818,629.209c0.884,0,1.581,0.698,1.581,1.582s-0.697,1.581-1.581,1.581s-1.581-0.697-1.581-1.581
			S489.935,629.209,490.818,629.209z"/>
	</g>
</g>
<g>
	<g>
		<path fill="#FFFFFF" d="M67.097,78.849c1.095,7.938,3.866,12.831,8.315,14.679c4.448,1.848,8.828,1.848,13.139,0
			c4.311-1.848,6.467-5.385,6.467-10.614c0-5.228-5.064-9.184-15.192-11.867c-10.128-2.682-15.192-6.904-15.192-12.667
			c0-5.762,1.232-10.086,3.695-12.975c2.464-2.888,6.775-4.332,12.934-4.332c4.653,0,8.177,0.685,10.573,2.053
			c2.395,1.369,4.414,2.053,6.057,2.053v11.497h-2.464c-0.821-6.98-3.387-11.223-7.699-12.729
			c-4.311-1.505-8.506-1.491-12.585,0.042c-4.079,1.533-6.118,4.681-6.118,9.443c0,4.763,5.084,8.493,15.253,11.189
			c10.169,2.697,15.254,7.138,15.254,13.324c0,6.187-1.519,10.895-4.558,14.125c-3.039,3.23-7.192,4.845-12.461,4.845
			c-5.27,0-9.157-0.89-11.661-2.669c-2.505-1.779-4.578-2.669-6.221-2.669V78.849H67.097z"/>
		<path fill="#FFFFFF" d="M110.621,70.637c0-1.916-0.513-3.08-1.54-3.49c-1.026-0.411-2.293-0.616-3.798-0.616v-1.231
			c2.053-0.273,3.661-0.616,4.825-1.027c1.163-0.41,2.566-1.163,4.208-2.258h1.232v19.298c0,4.927,0.807,8.075,2.422,9.444
			c1.615,1.369,3.955,2.053,7.021,2.053c2.737,0,5.475-1.916,8.212-5.749V70.637c0-1.916-0.513-3.08-1.54-3.49
			c-1.026-0.411-2.293-0.616-3.798-0.616v-1.231c2.053-0.273,3.661-0.616,4.825-1.027c1.163-0.41,2.566-1.163,4.208-2.258h1.232
			v27.921c0,2.19,2.053,3.285,6.159,3.285v1.231c-2.053,0.274-3.867,0.548-5.44,0.821c-1.574,0.274-3.045,0.821-4.414,1.643h-1.231
			v-7.802c-3.586,5.201-7.418,7.802-11.497,7.802c-2.737,0-5.27-0.89-7.596-2.669c-2.327-1.779-3.49-4.722-3.49-8.828V70.637z"/>
		<path fill="#FFFFFF" d="M158.25,69.405c3.586-5.201,7.418-7.801,11.497-7.801c2.737,0,5.269,0.89,7.596,2.668
			c1.643,1.26,2.71,3.107,3.203,5.543c3.778-5.475,7.706-8.212,11.785-8.212c2.737,0,5.269,0.89,7.596,2.668
			c2.327,1.78,3.49,4.722,3.49,8.828v18.477c0,1.917,2.053,2.874,6.159,2.874v1.232c-2.875,0-5.03-0.068-6.467-0.205
			c-1.437-0.137-2.874-0.137-4.311,0c-1.437,0.137-3.593,0.205-6.467,0.205v-1.232c4.106,0,6.159-0.958,6.159-2.874V77.207
			c0-5.091-0.808-8.28-2.422-9.567c-1.616-1.287-3.956-1.93-7.021-1.93c-2.737,0-5.502,1.957-8.294,5.872
			c0.055,0.466,0.082,0.972,0.082,1.519v18.477c0,1.917,2.053,2.874,6.159,2.874v1.232c-2.875,0-5.03-0.068-6.467-0.205
			c-1.437-0.137-2.874-0.137-4.311,0c-1.437,0.137-3.593,0.205-6.467,0.205v-1.232c4.106,0,6.159-0.958,6.159-2.874V77.207
			c0-5.091-0.808-8.28-2.422-9.567c-1.616-1.287-3.956-1.93-7.021-1.93c-2.737,0-5.475,1.916-8.212,5.748v20.12
			c0,1.917,2.053,2.874,6.159,2.874v1.232c-2.875,0-5.03-0.068-6.467-0.205c-1.437-0.137-2.874-0.137-4.311,0
			c-1.437,0.137-3.593,0.205-6.467,0.205v-1.232c4.106,0,6.159-0.958,6.159-2.874v-20.12c0-1.094-0.548-1.881-1.642-2.361
			c-1.095-0.479-2.601-0.787-4.517-0.924v-1.232c2.189-0.273,4.174-0.924,5.954-1.95c1.779-1.026,3.08-2.019,3.9-2.977h1.232V69.405
			z"/>
		<path fill="#FFFFFF" d="M223.536,69.405c3.586-5.201,7.418-7.801,11.497-7.801c2.737,0,5.269,0.89,7.596,2.668
			c1.643,1.26,2.71,3.107,3.203,5.543c3.778-5.475,7.706-8.212,11.785-8.212c2.737,0,5.269,0.89,7.596,2.668
			c2.327,1.78,3.49,4.722,3.49,8.828v18.477c0,1.917,2.053,2.874,6.159,2.874v1.232c-2.875,0-5.03-0.068-6.467-0.205
			c-1.437-0.137-2.874-0.137-4.311,0c-1.437,0.137-3.593,0.205-6.467,0.205v-1.232c4.106,0,6.159-0.958,6.159-2.874V77.207
			c0-5.091-0.808-8.28-2.422-9.567c-1.616-1.287-3.956-1.93-7.021-1.93c-2.737,0-5.502,1.957-8.294,5.872
			c0.055,0.466,0.082,0.972,0.082,1.519v18.477c0,1.917,2.053,2.874,6.159,2.874v1.232c-2.875,0-5.03-0.068-6.467-0.205
			c-1.437-0.137-2.874-0.137-4.311,0c-1.437,0.137-3.593,0.205-6.467,0.205v-1.232c4.106,0,6.159-0.958,6.159-2.874V77.207
			c0-5.091-0.808-8.28-2.422-9.567c-1.616-1.287-3.956-1.93-7.021-1.93c-2.737,0-5.475,1.916-8.212,5.748v20.12
			c0,1.917,2.053,2.874,6.159,2.874v1.232c-2.875,0-5.03-0.068-6.467-0.205c-1.437-0.137-2.874-0.137-4.311,0
			c-1.437,0.137-3.593,0.205-6.467,0.205v-1.232c4.106,0,6.159-0.958,6.159-2.874v-20.12c0-1.094-0.548-1.881-1.642-2.361
			c-1.095-0.479-2.601-0.787-4.517-0.924v-1.232c2.189-0.273,4.174-0.924,5.954-1.95c1.779-1.026,3.08-2.019,3.9-2.977h1.232V69.405
			z"/>
		<path fill="#FFFFFF" d="M283.483,91.803c-3.011-3.408-4.517-7.589-4.517-12.543c0-5.475,1.779-9.786,5.338-12.934
			c3.558-3.147,7.117-4.722,10.676-4.722c4.653,0,8.28,1.3,10.881,3.9c2.601,2.601,3.9,5.817,3.9,9.649h-25.868
			c0,6.022,1.163,10.333,3.49,12.934c2.327,2.601,4.859,3.901,7.596,3.901c4.105,0,8.622-2.19,13.55-6.57l1.231,0.821
			c-4.653,7.118-9.854,10.676-15.603,10.676C290.053,96.916,286.495,95.211,283.483,91.803z M304.424,73.511
			c0-2.737-0.862-5.132-2.587-7.186c-1.724-2.053-3.736-3.08-6.035-3.08c-4.106,0-7.118,1.095-9.033,3.285
			c-1.917,2.19-2.875,4.517-2.875,6.98H304.424z"/>
		<path fill="#FFFFFF" d="M320.849,71.458c0-1.094-0.548-1.881-1.643-2.361c-1.096-0.479-2.601-0.787-4.517-0.924v-1.232
			c2.189-0.273,4.174-0.924,5.953-1.95s3.08-2.019,3.901-2.977h1.231v9.444c2.189-6.569,5.133-9.854,8.828-9.854
			s5.543,1.095,5.543,3.285c0,2.19-0.479,3.49-1.438,3.9c-0.958,0.411-2.053,0.206-3.284-0.616c-1.232-0.821-2.669-1.3-4.312-1.437
			c-1.643-0.137-3.422,2.122-5.338,6.775v18.066c0,1.917,2.053,2.874,6.159,2.874v1.232c-2.874,0-5.03-0.068-6.467-0.205
			c-1.438-0.137-2.874-0.137-4.312,0c-1.438,0.137-3.593,0.205-6.467,0.205v-1.232c4.105,0,6.159-0.958,6.159-2.874V71.458z"/>
		<path fill="#FFFFFF" d="M367.245,95.684v-1.643c8.76-7.117,14.439-12.044,17.04-14.781s3.901-5.338,3.901-7.802
			c0-1.916-0.548-3.49-1.643-4.722c-1.096-1.232-2.601-1.848-4.517-1.848c-2.464,0-4.701,0.458-6.714,1.375
			c-2.012,0.917-3.606,2.854-4.783,5.81h-1.231c0.821-3.449,2.326-6.057,4.517-7.822c2.189-1.766,4.927-2.648,8.212-2.648
			c3.558,0,6.501,0.65,8.828,1.95c2.326,1.3,3.489,3.661,3.489,7.083c0,3.559-1.574,6.569-4.722,9.033
			c-3.147,2.463-8.691,6.296-16.629,11.497h17.245c2.737,0,4.312-0.684,4.722-2.053c0.411-1.368,1.163-3.011,2.259-4.927h1.231
			c-0.958,1.916-1.574,3.833-1.848,5.748c-0.274,1.917-0.479,3.833-0.616,5.749H367.245z"/>
		<path fill="#FFFFFF" d="M410.79,91.783c-3.572-3.421-5.358-7.596-5.358-12.523s1.786-9.102,5.358-12.523
			c3.572-3.421,7.945-5.132,13.119-5.132c5.173,0,9.546,1.711,13.118,5.132c3.572,3.422,5.358,7.596,5.358,12.523
			s-1.786,9.102-5.358,12.523c-3.572,3.422-7.945,5.133-13.118,5.133C418.735,96.916,414.362,95.205,410.79,91.783z M414.876,90.674
			c2.189,3.066,5.2,4.599,9.033,4.599c3.832,0,6.843-1.533,9.033-4.599c2.189-3.065,3.284-6.871,3.284-11.415
			s-1.095-8.349-3.284-11.415c-2.19-3.065-5.201-4.599-9.033-4.599c-3.833,0-6.844,1.533-9.033,4.599
			c-2.19,3.066-3.285,6.871-3.285,11.415S412.686,87.609,414.876,90.674z"/>
		<path fill="#FFFFFF" d="M456.757,66.941c0-1.916-2.738-2.874-8.212-2.874v-1.232c3.777,0,6.604,0.069,8.479,0.206
			c1.875,0.137,3.75,0.137,5.625,0c1.875-0.137,4.701-0.206,8.479-0.206v1.232c-5.476,0-8.213,0.958-8.213,2.874v24.636
			c0,1.917,2.737,2.874,8.213,2.874v1.232c-3.778,0-6.604-0.068-8.479-0.205c-1.875-0.137-3.75-0.137-5.625,0
			c-1.875,0.137-4.701,0.205-8.479,0.205v-1.232c5.474,0,8.212-0.958,8.212-2.874V66.941z"/>
		<path fill="#FFFFFF" d="M495.764,96.916c-5.201,0-9.238-1.643-12.113-4.927c-2.874-3.285-4.311-8.896-4.311-16.834
			c0-8.212,3.421-15.945,10.265-23.199c6.843-7.253,13.96-11.839,21.352-13.755v2.053c-4.928,1.917-9.854,4.996-14.782,9.239
			c-4.927,4.243-8.349,10.744-10.265,19.503c3.284-2.737,6.843-4.106,10.676-4.106c4.927,0,8.759,1.369,11.496,4.106
			c2.737,2.737,4.106,6.501,4.106,11.292c0,4.791-1.369,8.76-4.106,11.907C505.344,95.342,501.238,96.916,495.764,96.916z
			 M485.704,71.047c-0.138,2.738-0.206,5.475-0.206,8.212c0,5.475,1.027,9.512,3.08,12.112c2.053,2.601,4.653,3.901,7.801,3.901
			s5.544-1.3,7.186-3.901c1.643-2.6,2.464-6.637,2.464-12.112c0-5.475-1.026-8.965-3.079-10.471
			c-2.054-1.505-4.175-2.258-6.364-2.258C492.752,66.531,489.125,68.037,485.704,71.047z"/>
	</g>
</g>
</svg>
