<?xml version="1.0" encoding="utf-8"?>
<!-- Generator: Adobe Illustrator 14.0.0, SVG Export Plug-In . SVG Version: 6.00 Build 43363)  -->
<!DOCTYPE svg PUBLIC "-//W3C//DTD SVG 1.1//EN" "http://www.w3.org/Graphics/SVG/1.1/DTD/svg11.dtd">
<svg version="1.1" id="Layer_1" xmlns="http://www.w3.org/2000/svg" xmlns:xlink="http://www.w3.org/1999/xlink" x="0px" y="0px"
	 width="1152px" height="1440px" viewBox="0 0 1152 1440" enable-background="new 0 0 1152 1440" xml:space="preserve">
<rect id="photo1" x="48.207" y="58.053" fill="#D0D2D3" width="243.925" height="243.925"/>
<rect id="photo2" x="318.347" y="58.053" fill="#D0D2D3" width="243.926" height="243.925"/>
<rect id="photo3" x="588.489" y="58.053" fill="#D0D2D3" width="243.927" height="243.925"/>
<rect id="photo10" x="318.347" y="1147.075" fill="#D0D2D3" width="243.926" height="243.925"/>
<rect id="photo9" x="588.489" y="1147.075" fill="#D0D2D3" width="243.927" height="243.925"/>
<rect id="photo4" x="858.632" y="58.053" fill="#D0D2D3" width="243.927" height="243.925"/>
<rect id="photo14" x="48.207" y="330.308" fill="#D0D2D3" width="243.925" height="243.925"/>
<rect id="photo5" x="858.632" y="330.308" fill="#D0D2D3" width="243.927" height="243.925"/>
<rect id="photo13" x="48.207" y="602.564" fill="#D0D2D3" width="243.925" height="243.924"/>
<rect id="photo6" x="858.632" y="602.564" fill="#D0D2D3" width="243.927" height="243.924"/>
<rect id="photo12" x="48.207" y="874.818" fill="#D0D2D3" width="243.925" height="243.926"/>
<rect id="photo7" x="858.632" y="874.818" fill="#D0D2D3" width="243.927" height="243.926"/>
<rect id="photo11" x="48.207" y="1147.073" fill="#D0D2D3" width="243.925" height="243.926"/>
<rect id="photo8" x="858.632" y="1147.073" fill="#D0D2D3" width="243.927" height="243.926"/>
<g id="fill-take">
	<g>
		<path fill="#75BAF5" d="M405.493,547.671v-9.869c10.648-1.039,10.648-2.598,10.648-10.129V375.217
			c-10.389,0-17.142,0-22.855,12.207l-8.311-2.857l8.571-22.335c9.609,1.039,19.479,1.558,29.088,1.558
			c9.87,0,19.479-0.779,29.089-1.559l8.571,22.336l-8.311,2.857c-5.714-12.207-12.467-12.207-22.855-12.207v152.456
			c0,7.532,0,9.09,10.648,10.129v9.869H405.493z"/>
		<path fill="#75BAF5" d="M462.373,547.671v-9.869c7.272-0.779,11.688,0,12.986-11.168l12.986-122.588
			c1.039-9.09,2.337-20.778,2.337-25.193c0-3.896-2.597-4.675-10.389-5.194V363.01c12.726,0.52,25.193,0.779,37.919,0.779
			c10.389,0,25.193-0.26,37.14-0.779v10.648c-7.272,0.52-10.389,0.779-10.389,5.194s1.298,16.103,2.337,25.193l14.544,122.588
			c1.298,11.168,5.713,10.389,11.427,11.168v9.869H539.25v-9.869c6.493-0.52,10.129-0.52,10.129-6.753
			c-0.52-6.493-1.558-14.285-2.337-22.336l-12.207-105.446h-33.764l-10.908,105.446c-0.779,8.051-1.818,15.843-2.337,22.336
			c0,6.233,3.636,6.233,10.129,6.753v9.869H462.373z M502.11,391.839h31.167l-1.559-16.622h-27.79L502.11,391.839z"/>
		<path fill="#75BAF5" d="M588.078,547.671v-9.869c9.869-1.299,9.869-2.598,9.869-10.129V383.788c0-7.532,0-9.09-9.869-10.129v-9.87
			h31.945v9.87c-9.091,1.039-9.091,2.597-9.091,10.129v19.479l31.427-24.154c1.299-1.039,3.116-2.337,3.116-3.376
			c0-2.078-3.896-1.818-5.974-2.078v-9.87h29.349v9.87c-4.415,1.558-7.532,3.896-12.986,8.051l-16.882,12.986
			c1.299,18.44,6.233,73.761,15.324,110.121c5.714,23.115,10.648,31.426,21.816,32.985v9.869h-19.739
			c-5.454-9.869-11.428-25.193-15.323-43.113c-6.233-29.608-10.648-67.527-13.246-100.771l-16.882,12.726v111.16
			c0,7.013,0,8.831,9.091,10.129v9.869H588.078z"/>
		<path fill="#75BAF5" d="M692.227,547.671v-9.869c11.688-1.299,11.688-2.598,11.688-10.129V383.788c0-7.532,0-9.09-11.688-10.129
			v-9.87h31.426c6.233,0,16.362,0,25.713-3.896l9.35,17.661l-7.792,4.416c-4.155-3.376-6.232-6.753-14.804-6.753H716.9v22.336
			h24.413c8.571,0,9.35-2.857,9.609-7.272h7.792v25.972h-7.792c-0.778-3.896-1.817-7.272-9.09-7.272H716.9v127.263h26.751
			c11.947,0,13.765-5.454,18.18-10.908l7.792,5.194l-9.35,20.258c-4.935-1.299-11.168-2.078-17.661-2.597
			c-6.233-0.52-12.467-0.52-17.142-0.52H692.227z"/>
	</g>
</g>
<g id="fill-a">
	<g>
		<path fill="#82A7ED" d="M520.549,820.436v-9.869c7.272-0.779,11.688,0,12.986-11.168l12.986-122.588
			c1.039-9.09,2.337-20.778,2.337-25.193c0-3.896-2.597-4.675-10.389-5.194v-10.648c12.726,0.52,25.193,0.779,37.919,0.779
			c10.389,0,25.193-0.26,37.14-0.779v10.648c-7.271,0.52-10.389,0.779-10.389,5.194s1.299,16.103,2.338,25.193l14.544,122.588
			c1.299,11.168,5.714,10.389,11.428,11.168v9.869h-34.023v-9.869c6.493-0.52,10.129-0.52,10.129-6.753
			c-0.52-6.493-1.558-14.284-2.337-22.336l-12.207-105.446h-33.764l-10.909,105.446c-0.779,8.052-1.818,15.843-2.337,22.336
			c0,6.233,3.636,6.233,10.129,6.753v9.869H520.549z M560.287,664.604h31.167l-1.559-16.622h-27.79L560.287,664.604z"/>
	</g>
</g>
<g id="fill-selfie">
	<g>
		<path fill="#918FDE" d="M374.978,924.807c-8.571-7.531-11.947-11.428-16.882-11.428s-7.532,3.637-7.532,7.532
			c0,9.091,10.908,22.076,27.011,51.685c12.466,22.596,27.79,52.463,27.79,77.656c0,26.231-17.401,40.775-37.14,40.775
			c-7.012,0-15.063-2.856-19.999-5.973l-4.675,2.856h-6.752l-3.636-28.569l8.311-3.116c4.675,10.389,10.389,22.336,26.751,22.336
			c13.765,0,24.154-11.688,24.154-26.232c0-22.595-12.986-49.087-25.192-71.163c-17.921-33.764-29.608-48.827-29.608-61.813
			c0-11.687,7.013-18.439,18.181-18.439c2.078,0,3.896,0.26,5.974,0.52l4.675-3.377h7.792l9.35,23.635L374.978,924.807z"/>
		<path fill="#918FDE" d="M421.989,1087.911v-9.869c11.688-1.299,11.688-2.598,11.688-10.129V924.028c0-7.532,0-9.091-11.688-10.13
			v-9.869h31.426c6.233,0,16.362,0,25.712-3.896l9.35,17.661l-7.792,4.415c-4.156-3.376-6.233-6.753-14.804-6.753h-19.219v22.336
			h24.414c8.571,0,9.35-2.856,9.61-7.272h7.792v25.973h-7.792c-0.779-3.896-1.818-7.272-9.09-7.272h-24.933v127.263h26.751
			c11.947,0,13.766-5.454,18.181-10.908l7.792,5.194l-9.35,20.258c-4.935-1.298-11.167-2.077-17.661-2.597
			c-6.233-0.52-12.467-0.52-17.142-0.52H421.989z"/>
		<path fill="#918FDE" d="M511.852,1087.911v-9.869c11.427-1.299,11.427-2.598,11.427-10.129V924.028c0-7.532,0-9.091-11.427-10.13
			v-9.869h35.062v9.869c-10.648,1.039-10.648,2.598-10.648,10.13v152.455h27.011c11.168,0,14.024-5.714,17.921-11.428l8.311,5.194
			l-9.609,20.777c-3.636-1.298-8.571-2.077-13.765-2.337c-5.194-0.52-10.648-0.779-15.583-0.779H511.852z"/>
		<path fill="#918FDE" d="M605.351,1087.911v-9.869c10.648-1.039,10.648-2.598,10.648-10.129V924.028c0-7.532,0-9.091-11.688-10.13
			v-9.869h31.426c6.233,0,16.362,0,25.713-3.896l9.35,17.661l-7.791,4.415c-4.156-3.376-6.233-6.753-14.805-6.753h-19.219v22.336
			h24.413c8.571,0,9.351-2.856,9.61-7.272h7.791v25.973h-7.791c-0.779-3.896-1.818-7.272-9.091-7.272h-24.933v118.692
			c0,7.791,0,9.09,10.648,10.129v9.869H605.351z"/>
		<path fill="#918FDE" d="M689.76,1087.911v-9.869c10.648-1.299,10.648-2.598,10.648-10.129V924.028c0-7.532,0-9.091-10.648-10.13
			v-9.869h34.283v9.869c-10.648,1.039-10.648,2.598-10.648,10.13v143.885c0,7.012,0,8.83,10.648,10.129v9.869H689.76z"/>
		<path fill="#918FDE" d="M744.301,1087.911v-9.869c11.688-1.299,11.688-2.598,11.688-10.129V924.028c0-7.532,0-9.091-11.688-10.13
			v-9.869h31.426c6.233,0,16.362,0,25.713-3.896l9.35,17.661l-7.792,4.415c-4.155-3.376-6.232-6.753-14.804-6.753h-19.219v22.336
			h24.413c8.571,0,9.35-2.856,9.609-7.272h7.792v25.973h-7.792c-0.778-3.896-1.817-7.272-9.09-7.272h-24.933v127.263h26.751
			c11.947,0,13.765-5.454,18.18-10.908l7.792,5.194l-9.35,20.258c-4.935-1.298-11.168-2.077-17.661-2.597
			c-6.233-0.52-12.467-0.52-17.142-0.52H744.301z"/>
	</g>
</g>
<rect id="stroke-box" x="318.347" y="330.308" fill="none" stroke="#82A7ED" width="514.069" height="788.436"/>
</svg>
