<?xml version="1.0" encoding="utf-8"?>
<!-- Generator: Adobe Illustrator 14.0.0, SVG Export Plug-In . SVG Version: 6.00 Build 43363)  -->
<!DOCTYPE svg PUBLIC "-//W3C//DTD SVG 1.1//EN" "http://www.w3.org/Graphics/SVG/1.1/DTD/svg11.dtd">
<svg version="1.1" id="Layer_1" xmlns="http://www.w3.org/2000/svg" xmlns:xlink="http://www.w3.org/1999/xlink" x="0px" y="0px"
	 width="864px" height="1296px" viewBox="0 0 864 1296" enable-background="new 0 0 864 1296" xml:space="preserve">
<rect id="photo" fill="#D0D2D3" width="864" height="1296"/>
<linearGradient id="SVGID_1_" gradientUnits="userSpaceOnUse" x1="433.5" y1="648" x2="433.5" y2="1295.0005">
	<stop  offset="0" style="stop-color:#FFFFFF;stop-opacity:0"/>
	<stop  offset="1" style="stop-color:#FFFFFF;stop-opacity:0.5"/>
</linearGradient>
<rect x="3" y="648" fill="url(#SVGID_1_)" width="861" height="647"/>
<g id="fill-line1">
	<path fill="#4D024D" d="M92.173,864.278h-11.71c-0.421-2.01-0.631-3.856-0.631-5.539c0-1.543,0.21-3.342,0.631-5.399h35.831
		c0.186,1.028,0.327,1.987,0.421,2.875c0.093,0.889,0.14,1.729,0.14,2.524c0,1.542-0.188,3.39-0.561,5.539h-11.71v39.268
		c-2.479,0.42-4.535,0.631-6.171,0.631c-1.73,0-3.811-0.211-6.24-0.631V864.278z"/>
	<path fill="#4D024D" d="M137.47,890.363h-10.378v13.322c-1.216,0.187-2.314,0.327-3.295,0.421c-0.982,0.093-1.87,0.141-2.665,0.141
		c-0.795,0-1.683-0.048-2.665-0.141c-0.982-0.094-2.058-0.234-3.226-0.421v-36.182c1.028-0.233,2.044-0.396,3.05-0.491
		c1.004-0.093,1.974-0.14,2.91-0.14c0.888,0,1.846,0.047,2.875,0.14c1.028,0.095,2.034,0.258,3.015,0.491v12.341h10.378v-12.341
		c1.028-0.233,2.044-0.396,3.05-0.491c1.004-0.093,1.974-0.14,2.91-0.14c0.888,0,1.846,0.047,2.875,0.14
		c1.028,0.095,2.034,0.258,3.015,0.491v36.182c-1.216,0.187-2.314,0.327-3.295,0.421c-0.982,0.093-1.871,0.141-2.665,0.141
		c-0.795,0-1.683-0.048-2.665-0.141c-0.982-0.094-2.058-0.234-3.226-0.421V890.363z"/>
	<path fill="#4D024D" d="M167.341,889.381c0.514,1.918,1.413,3.273,2.699,4.067c1.285,0.796,2.98,1.192,5.084,1.192
		c1.355,0,2.875-0.164,4.558-0.491c1.683-0.326,3.342-0.817,4.979-1.473c0.654,1.217,1.227,2.665,1.718,4.348
		c0.491,1.683,0.759,3.436,0.806,5.259c-4.161,1.543-8.415,2.314-12.762,2.314c-3.366,0-6.253-0.468-8.66-1.402
		c-2.408-0.935-4.372-2.232-5.89-3.892c-1.52-1.659-2.642-3.635-3.366-5.926c-0.726-2.29-1.087-4.791-1.087-7.503
		c0-2.664,0.374-5.164,1.122-7.503c0.748-2.337,1.869-4.37,3.366-6.1c1.495-1.729,3.366-3.097,5.609-4.103
		c2.244-1.005,4.861-1.508,7.854-1.508c2.477,0,4.686,0.421,6.626,1.263c1.939,0.841,3.587,1.998,4.944,3.471
		c1.355,1.473,2.395,3.25,3.12,5.329c0.724,2.081,1.087,4.337,1.087,6.767c0,1.262-0.059,2.396-0.175,3.4
		c-0.117,1.006-0.223,1.836-0.315,2.489H167.341z M172.95,875.567c-1.497,0-2.782,0.468-3.856,1.402
		c-1.076,0.936-1.707,2.385-1.894,4.348h11.219c-0.094-1.636-0.596-3.003-1.507-4.102C176,876.118,174.679,875.567,172.95,875.567z"
		/>
	<path fill="#4D024D" d="M210.323,867.645c0.935-0.141,2.009-0.269,3.226-0.386c1.215-0.116,2.454-0.222,3.716-0.315
		s2.489-0.164,3.681-0.211c1.192-0.046,2.232-0.07,3.121-0.07c5.843,0,10.213,0.831,13.112,2.489
		c2.898,1.66,4.347,4.242,4.347,7.749c0,1.776-0.41,3.284-1.227,4.522c-0.818,1.239-1.928,2.303-3.331,3.19
		c1.963,0.701,3.576,1.707,4.838,3.015c1.262,1.31,1.893,3.156,1.893,5.54c0,4.301-1.59,7.281-4.768,8.94
		c-3.18,1.658-7.877,2.489-14.094,2.489c-1.637,0-3.775-0.06-6.416-0.176c-2.642-0.117-5.341-0.362-8.099-0.736V867.645z
		 M222.033,881.388h3.436c1.776,0,2.968-0.386,3.576-1.157c0.607-0.771,0.911-1.577,0.911-2.419c0-0.794-0.315-1.53-0.946-2.209
		c-0.631-0.677-1.788-1.017-3.471-1.017c-0.515,0-1.111,0.012-1.788,0.035c-0.678,0.024-1.251,0.06-1.718,0.105V881.388z
		 M222.033,888.75v7.223c0.14,0,0.514,0.024,1.122,0.07c0.607,0.047,1.425,0.07,2.454,0.07c1.963,0,3.366-0.327,4.207-0.982
		c0.841-0.654,1.262-1.565,1.262-2.734c0-0.467-0.082-0.923-0.246-1.367c-0.164-0.444-0.456-0.829-0.876-1.157
		c-0.42-0.326-1.005-0.596-1.753-0.807c-0.748-0.21-1.73-0.315-2.945-0.315H222.033z"/>
	<path fill="#4D024D" d="M259.897,889.381c0.514,1.918,1.413,3.273,2.699,4.067c1.285,0.796,2.98,1.192,5.084,1.192
		c1.355,0,2.875-0.164,4.558-0.491c1.683-0.326,3.342-0.817,4.979-1.473c0.654,1.217,1.227,2.665,1.718,4.348
		c0.491,1.683,0.759,3.436,0.806,5.259c-4.161,1.543-8.415,2.314-12.762,2.314c-3.366,0-6.253-0.468-8.66-1.402
		c-2.408-0.935-4.372-2.232-5.89-3.892c-1.52-1.659-2.642-3.635-3.366-5.926c-0.726-2.29-1.087-4.791-1.087-7.503
		c0-2.664,0.374-5.164,1.122-7.503c0.748-2.337,1.869-4.37,3.366-6.1c1.495-1.729,3.366-3.097,5.609-4.103
		c2.244-1.005,4.861-1.508,7.854-1.508c2.477,0,4.686,0.421,6.626,1.263c1.939,0.841,3.587,1.998,4.944,3.471
		c1.355,1.473,2.395,3.25,3.12,5.329c0.724,2.081,1.087,4.337,1.087,6.767c0,1.262-0.059,2.396-0.175,3.4
		c-0.117,1.006-0.223,1.836-0.315,2.489H259.897z M265.507,875.567c-1.497,0-2.782,0.468-3.856,1.402
		c-1.076,0.936-1.707,2.385-1.894,4.348h11.219c-0.094-1.636-0.596-3.003-1.507-4.102
		C268.557,876.118,267.236,875.567,265.507,875.567z"/>
	<path fill="#4D024D" d="M304.914,881.037c1.402,0.375,2.675,0.83,3.821,1.367c1.145,0.538,2.126,1.228,2.945,2.068
		c0.817,0.842,1.46,1.87,1.928,3.086c0.467,1.216,0.701,2.688,0.701,4.417c0,1.777-0.363,3.436-1.087,4.979
		c-0.726,1.543-1.8,2.875-3.226,3.997c-1.426,1.122-3.18,2.011-5.259,2.664c-2.081,0.654-4.477,0.982-7.188,0.982
		c-2.244,0-4.324-0.165-6.241-0.491c-1.917-0.327-3.951-0.888-6.1-1.683c0.233-3.179,1.098-6.404,2.594-9.677
		c1.496,0.701,3.061,1.228,4.698,1.578c1.636,0.351,3.272,0.525,4.909,0.525c0.561,0,1.145-0.023,1.753-0.07
		c0.607-0.046,1.145-0.151,1.613-0.315c0.467-0.163,0.853-0.386,1.157-0.666c0.304-0.28,0.456-0.654,0.456-1.122
		c0-0.606-0.305-1.063-0.912-1.367c-0.608-0.304-1.309-0.572-2.104-0.807l-4.768-1.332c-2.479-0.701-4.535-1.894-6.171-3.576
		c-1.637-1.683-2.454-3.973-2.454-6.872c0-1.822,0.374-3.481,1.122-4.979c0.747-1.495,1.799-2.77,3.155-3.821
		c1.355-1.052,2.956-1.858,4.803-2.419c1.846-0.561,3.892-0.842,6.136-0.842c1.776,0,3.716,0.188,5.82,0.562
		s4.183,0.911,6.241,1.612c-0.094,1.497-0.398,3.098-0.912,4.804c-0.515,1.707-1.099,3.214-1.753,4.522
		c-1.262-0.514-2.782-0.981-4.558-1.402c-1.777-0.421-3.413-0.631-4.908-0.631c-2.198,0-3.296,0.607-3.296,1.823
		c0,0.515,0.257,0.911,0.771,1.191c0.514,0.28,1.098,0.516,1.753,0.701L304.914,881.037z"/>
	<path fill="#4D024D" d="M327.772,877.391h-10.378c-0.234-0.935-0.386-1.811-0.456-2.629c-0.07-0.817-0.105-1.602-0.105-2.35
		c0-0.747,0.035-1.519,0.105-2.313c0.07-0.795,0.222-1.659,0.456-2.595H350c0.233,0.936,0.386,1.8,0.456,2.595
		c0.07,0.795,0.105,1.566,0.105,2.313c0,0.748-0.035,1.532-0.105,2.35c-0.07,0.818-0.223,1.694-0.456,2.629h-10.377v26.295
		c-1.216,0.187-2.314,0.327-3.296,0.421c-0.981,0.093-1.87,0.141-2.665,0.141c-0.795,0-1.683-0.048-2.665-0.141
		c-0.981-0.094-2.058-0.234-3.225-0.421V877.391z"/>
	<path fill="#4D024D" d="M379.028,877.391H368.65c-0.234-0.935-0.386-1.811-0.456-2.629c-0.07-0.817-0.105-1.602-0.105-2.35
		c0-0.747,0.035-1.519,0.105-2.313c0.07-0.795,0.222-1.659,0.456-2.595h32.605c0.233,0.936,0.386,1.8,0.456,2.595
		c0.07,0.795,0.105,1.566,0.105,2.313c0,0.748-0.035,1.532-0.105,2.35c-0.07,0.818-0.223,1.694-0.456,2.629h-10.377v26.295
		c-1.216,0.187-2.314,0.327-3.296,0.421c-0.981,0.093-1.87,0.141-2.665,0.141c-0.795,0-1.683-0.048-2.665-0.141
		c-0.981-0.094-2.058-0.234-3.225-0.421V877.391z"/>
	<path fill="#4D024D" d="M429.022,890.363h-10.378v13.322c-1.216,0.187-2.314,0.327-3.295,0.421
		c-0.982,0.093-1.87,0.141-2.665,0.141c-0.795,0-1.683-0.048-2.665-0.141c-0.982-0.094-2.058-0.234-3.226-0.421v-36.182
		c1.028-0.233,2.044-0.396,3.05-0.491c1.004-0.093,1.974-0.14,2.91-0.14c0.888,0,1.846,0.047,2.875,0.14
		c1.028,0.095,2.034,0.258,3.015,0.491v12.341h10.378v-12.341c1.028-0.233,2.044-0.396,3.05-0.491c1.004-0.093,1.974-0.14,2.91-0.14
		c0.888,0,1.847,0.047,2.875,0.14c1.027,0.095,2.033,0.258,3.016,0.491v36.182c-1.217,0.187-2.314,0.327-3.296,0.421
		c-0.981,0.093-1.87,0.141-2.665,0.141s-1.683-0.048-2.664-0.141c-0.982-0.094-2.058-0.234-3.226-0.421V890.363z"/>
	<path fill="#4D024D" d="M460.576,903.686c-1.217,0.187-2.314,0.327-3.296,0.421c-0.981,0.093-1.87,0.141-2.665,0.141
		s-1.683-0.048-2.664-0.141c-0.981-0.094-2.058-0.234-3.226-0.421v-36.182c1.027-0.233,2.044-0.396,3.05-0.491
		c1.005-0.093,1.975-0.14,2.91-0.14c0.888,0,1.847,0.047,2.875,0.14c1.027,0.095,2.033,0.258,3.016,0.491V903.686z"/>
	<path fill="#4D024D" d="M483.154,866.803c2.056,0,4.112,0.175,6.17,0.526c2.057,0.351,3.915,1.086,5.574,2.208
		s3.016,2.735,4.067,4.839s1.578,4.885,1.578,8.344v20.966c-1.217,0.233-2.314,0.386-3.296,0.456s-1.848,0.105-2.595,0.105
		c-0.795,0-1.683-0.035-2.664-0.105c-0.982-0.07-2.081-0.223-3.296-0.456v-19.703c0-2.478-0.468-4.254-1.402-5.329
		c-0.936-1.075-2.361-1.613-4.277-1.613c-0.515,0-1.063,0.047-1.647,0.141c-0.586,0.094-0.947,0.188-1.087,0.28v26.225
		c-1.217,0.233-2.314,0.386-3.296,0.456s-1.848,0.105-2.595,0.105c-0.795,0-1.683-0.035-2.664-0.105
		c-0.982-0.07-2.081-0.223-3.296-0.456v-34.429c1.636-0.561,3.622-1.109,5.96-1.647
		C476.726,867.072,479.647,866.803,483.154,866.803z"/>
	<path fill="#4D024D" d="M524.943,904.598c-3.365,0-6.229-0.503-8.589-1.508c-2.361-1.005-4.29-2.372-5.785-4.103
		c-1.497-1.729-2.584-3.762-3.261-6.1c-0.678-2.337-1.017-4.839-1.017-7.503c0-2.57,0.408-5.002,1.227-7.293
		c0.817-2.29,2.034-4.277,3.646-5.96c1.613-1.683,3.611-3.016,5.995-3.997c2.385-0.981,5.142-1.473,8.274-1.473
		c1.636,0,3.436,0.188,5.399,0.562c1.963,0.374,4.112,1.028,6.451,1.963c-0.048,0.796-0.141,1.543-0.281,2.244
		c-0.14,0.701-0.315,1.414-0.525,2.139c-0.21,0.726-0.468,1.496-0.771,2.313c-0.305,0.819-0.666,1.742-1.087,2.771
		c-1.59-0.654-3.063-1.133-4.417-1.438c-1.356-0.304-2.524-0.456-3.507-0.456c-1.542,0-2.852,0.234-3.926,0.701
		c-1.076,0.468-1.94,1.099-2.595,1.894c-0.655,0.795-1.134,1.718-1.438,2.77c-0.305,1.052-0.456,2.139-0.456,3.261
		c0,3.132,0.677,5.434,2.033,6.906c1.355,1.473,3.342,2.209,5.961,2.209h1.262v-10.308c1.168-0.233,2.209-0.396,3.12-0.491
		c0.912-0.093,1.788-0.14,2.63-0.14c1.636,0,3.576,0.21,5.82,0.631v17.811c-1.356,0.515-3.25,1.076-5.68,1.683
		C530.997,904.293,528.169,904.598,524.943,904.598z"/>
	<path fill="#4D024D" d="M563.089,881.037c1.402,0.375,2.676,0.83,3.821,1.367c1.145,0.538,2.127,1.228,2.945,2.068
		c0.817,0.842,1.46,1.87,1.928,3.086c0.467,1.216,0.701,2.688,0.701,4.417c0,1.777-0.362,3.436-1.087,4.979s-1.8,2.875-3.225,3.997
		c-1.427,1.122-3.18,2.011-5.26,2.664c-2.08,0.654-4.477,0.982-7.187,0.982c-2.244,0-4.325-0.165-6.241-0.491
		c-1.917-0.327-3.951-0.888-6.101-1.683c0.233-3.179,1.098-6.404,2.595-9.677c1.495,0.701,3.062,1.228,4.698,1.578
		c1.636,0.351,3.271,0.525,4.908,0.525c0.561,0,1.145-0.023,1.753-0.07c0.607-0.046,1.145-0.151,1.612-0.315
		c0.467-0.163,0.853-0.386,1.157-0.666c0.304-0.28,0.456-0.654,0.456-1.122c0-0.606-0.305-1.063-0.912-1.367
		c-0.607-0.304-1.309-0.572-2.104-0.807l-4.768-1.332c-2.479-0.701-4.535-1.894-6.171-3.576c-1.637-1.683-2.454-3.973-2.454-6.872
		c0-1.822,0.374-3.481,1.122-4.979c0.747-1.495,1.799-2.77,3.155-3.821c1.355-1.052,2.956-1.858,4.804-2.419
		c1.846-0.561,3.892-0.842,6.135-0.842c1.776,0,3.717,0.188,5.82,0.562s4.183,0.911,6.24,1.612
		c-0.094,1.497-0.397,3.098-0.911,4.804c-0.515,1.707-1.099,3.214-1.753,4.522c-1.263-0.514-2.782-0.981-4.558-1.402
		c-1.777-0.421-3.413-0.631-4.909-0.631c-2.197,0-3.295,0.607-3.295,1.823c0,0.515,0.256,0.911,0.771,1.191
		c0.514,0.28,1.098,0.516,1.753,0.701L563.089,881.037z"/>
	<path fill="#4D024D" d="M605.86,903.686c-1.217,0.187-2.314,0.327-3.296,0.421c-0.981,0.093-1.87,0.141-2.665,0.141
		s-1.683-0.048-2.664-0.141c-0.981-0.094-2.058-0.234-3.226-0.421v-36.182c1.027-0.233,2.044-0.396,3.05-0.491
		c1.005-0.093,1.975-0.14,2.91-0.14c0.888,0,1.847,0.047,2.875,0.14c1.027,0.095,2.033,0.258,3.016,0.491V903.686z"/>
	<path fill="#4D024D" d="M628.438,866.803c2.056,0,4.112,0.175,6.17,0.526c2.057,0.351,3.915,1.086,5.574,2.208
		s3.016,2.735,4.067,4.839s1.578,4.885,1.578,8.344v20.966c-1.217,0.233-2.314,0.386-3.296,0.456s-1.848,0.105-2.595,0.105
		c-0.795,0-1.683-0.035-2.664-0.105c-0.982-0.07-2.081-0.223-3.296-0.456v-19.703c0-2.478-0.468-4.254-1.402-5.329
		c-0.936-1.075-2.361-1.613-4.277-1.613c-0.515,0-1.063,0.047-1.647,0.141c-0.586,0.094-0.947,0.188-1.087,0.28v26.225
		c-1.217,0.233-2.314,0.386-3.296,0.456s-1.848,0.105-2.595,0.105c-0.795,0-1.683-0.035-2.664-0.105
		c-0.982-0.07-2.081-0.223-3.296-0.456v-34.429c1.636-0.561,3.622-1.109,5.96-1.647C622.01,867.072,624.932,866.803,628.438,866.803
		z"/>
	<path fill="#4D024D" d="M680.605,893.869h13.252c0.233,0.936,0.386,1.8,0.456,2.595s0.105,1.566,0.105,2.313
		c0,0.748-0.035,1.531-0.105,2.349c-0.07,0.818-0.223,1.695-0.456,2.63h-25.103l0.07-36.252c1.027-0.233,2.044-0.396,3.05-0.491
		c1.005-0.093,1.975-0.14,2.91-0.14c0.888,0,1.846,0.047,2.875,0.14c1.027,0.095,2.033,0.258,3.015,0.491L680.605,893.869z"/>
	<path fill="#4D024D" d="M711.248,903.686c-1.217,0.187-2.314,0.327-3.296,0.421c-0.981,0.093-1.87,0.141-2.665,0.141
		s-1.683-0.048-2.664-0.141c-0.981-0.094-2.058-0.234-3.226-0.421v-36.182c1.027-0.233,2.044-0.396,3.05-0.491
		c1.005-0.093,1.975-0.14,2.91-0.14c0.888,0,1.847,0.047,2.875,0.14c1.027,0.095,2.033,0.258,3.016,0.491V903.686z"/>
	<path fill="#4D024D" d="M730.951,892.888v10.728c-0.982,0.233-1.988,0.386-3.016,0.456c-1.028,0.07-1.987,0.105-2.875,0.105
		c-0.936,0-1.905-0.035-2.91-0.105c-1.006-0.07-2.022-0.223-3.05-0.456v-36.111h26.786c0.233,0.936,0.385,1.8,0.455,2.595
		s0.105,1.566,0.105,2.313c0,0.748-0.035,1.532-0.105,2.35c-0.07,0.818-0.222,1.694-0.455,2.629h-14.936V883h12.061
		c0.233,0.937,0.386,1.801,0.455,2.595c0.07,0.796,0.105,1.566,0.105,2.314s-0.035,1.531-0.105,2.349
		c-0.069,0.818-0.222,1.695-0.455,2.63H730.951z"/>
	<path fill="#4D024D" d="M761.592,889.381c0.515,1.918,1.414,3.273,2.7,4.067c1.285,0.796,2.979,1.192,5.083,1.192
		c1.355,0,2.875-0.164,4.559-0.491c1.683-0.326,3.341-0.817,4.979-1.473c0.653,1.217,1.227,2.665,1.718,4.348
		c0.49,1.683,0.759,3.436,0.806,5.259c-4.161,1.543-8.414,2.314-12.762,2.314c-3.365,0-6.252-0.468-8.659-1.402
		c-2.408-0.935-4.372-2.232-5.891-3.892c-1.52-1.659-2.642-3.635-3.365-5.926c-0.726-2.29-1.087-4.791-1.087-7.503
		c0-2.664,0.373-5.164,1.122-7.503c0.747-2.337,1.869-4.37,3.365-6.1s3.366-3.097,5.609-4.103c2.244-1.005,4.861-1.508,7.854-1.508
		c2.478,0,4.687,0.421,6.627,1.263c1.939,0.841,3.587,1.998,4.943,3.471c1.355,1.473,2.395,3.25,3.12,5.329
		c0.725,2.081,1.087,4.337,1.087,6.767c0,1.262-0.06,2.396-0.176,3.4c-0.117,1.006-0.222,1.836-0.315,2.489H761.592z
		 M767.202,875.567c-1.497,0-2.782,0.468-3.857,1.402c-1.075,0.936-1.707,2.385-1.893,4.348h11.219
		c-0.094-1.636-0.596-3.003-1.508-4.102C770.252,876.118,768.931,875.567,767.202,875.567z"/>
</g>
<g id="fille-line2">
	<path fill="#410242" d="M51.045,976.049c0-2.289,0.491-4.183,1.473-5.68c0.981-1.495,2.244-2.688,3.787-3.576
		c1.542-0.887,3.249-1.507,5.119-1.857c1.869-0.351,3.692-0.526,5.469-0.526h4.277c-0.047-0.842-0.281-1.543-0.701-2.104
		c-0.421-0.561-0.959-0.992-1.613-1.297c-0.655-0.304-1.379-0.515-2.174-0.632c-0.795-0.115-1.613-0.175-2.454-0.175
		c-1.122,0-2.431,0.129-3.927,0.386c-1.497,0.258-3.039,0.666-4.628,1.227c-0.421-0.794-0.783-1.519-1.087-2.173
		c-0.305-0.654-0.538-1.32-0.701-1.999c-0.164-0.677-0.28-1.378-0.351-2.104c-0.07-0.725-0.105-1.554-0.105-2.489
		c2.244-0.747,4.476-1.308,6.696-1.683c2.22-0.374,4.218-0.562,5.995-0.562c2.43,0,4.628,0.293,6.591,0.877
		c1.963,0.585,3.634,1.484,5.014,2.699c1.378,1.217,2.442,2.771,3.19,4.663c0.747,1.894,1.122,4.149,1.122,6.767v20.545
		c-1.777,0.516-3.927,1.029-6.451,1.543s-5.189,0.771-7.994,0.771c-2.431,0-4.663-0.223-6.696-0.666
		c-2.034-0.444-3.776-1.157-5.224-2.139c-1.449-0.982-2.583-2.279-3.401-3.892C51.454,980.361,51.045,978.388,51.045,976.049z
		 M67.594,979.976c0.421,0,1.028-0.046,1.823-0.14c0.794-0.094,1.378-0.187,1.753-0.281v-7.713h-3.997
		c-1.637,0-3.015,0.351-4.137,1.052c-1.122,0.701-1.683,1.683-1.683,2.945c0,0.936,0.21,1.672,0.631,2.209
		c0.42,0.538,0.946,0.946,1.578,1.227c0.631,0.28,1.308,0.468,2.033,0.562C66.319,979.93,66.986,979.976,67.594,979.976z"/>
	<path fill="#410242" d="M89.541,951.788c2.197-0.281,4.476-0.515,6.836-0.701c2.36-0.187,4.593-0.281,6.697-0.281
		c5.655,0,9.898,1.064,12.727,3.19c2.828,2.128,4.242,5.108,4.242,8.94c0,1.45-0.164,2.712-0.491,3.787
		c-0.328,1.075-0.725,1.998-1.192,2.77c-0.468,0.771-0.959,1.392-1.473,1.858c-0.515,0.468-0.936,0.841-1.262,1.121l7.994,15.286
		c-0.936,0.187-1.976,0.327-3.12,0.421c-1.146,0.094-2.256,0.141-3.331,0.141c-1.309,0-2.571-0.047-3.786-0.141
		c-1.216-0.094-2.221-0.234-3.015-0.421l-7.784-16.548l0.982-0.561c1.636-0.935,2.758-1.929,3.366-2.98
		c0.607-1.052,0.912-2.185,0.912-3.401c0-1.215-0.363-2.208-1.087-2.979c-0.725-0.771-1.882-1.157-3.471-1.157
		c-0.889,0-1.567,0.047-2.034,0.141v27.557c-1.216,0.233-2.314,0.386-3.295,0.456c-0.982,0.07-1.848,0.105-2.595,0.105
		c-0.795,0-1.66-0.035-2.594-0.105c-0.936-0.07-2.011-0.223-3.226-0.456V951.788z"/>
	<path fill="#410242" d="M136.802,973.524c0.514,1.918,1.413,3.273,2.699,4.067c1.286,0.796,2.98,1.192,5.084,1.192
		c1.355,0,2.875-0.164,4.558-0.491c1.683-0.326,3.342-0.817,4.979-1.473c0.654,1.217,1.227,2.665,1.718,4.348
		c0.491,1.683,0.759,3.436,0.806,5.259c-4.161,1.543-8.415,2.314-12.762,2.314c-3.366,0-6.253-0.468-8.66-1.402
		c-2.408-0.935-4.372-2.232-5.89-3.892c-1.52-1.659-2.642-3.635-3.366-5.926c-0.726-2.29-1.087-4.791-1.087-7.503
		c0-2.664,0.374-5.164,1.122-7.503c0.748-2.337,1.869-4.37,3.366-6.1c1.495-1.729,3.366-3.097,5.609-4.103
		c2.244-1.005,4.861-1.508,7.854-1.508c2.477,0,4.686,0.421,6.626,1.263c1.939,0.841,3.587,1.998,4.944,3.471
		c1.355,1.473,2.395,3.25,3.12,5.329c0.724,2.081,1.087,4.337,1.087,6.767c0,1.262-0.059,2.396-0.175,3.4
		c-0.117,1.006-0.223,1.836-0.315,2.489H136.802z M142.412,959.711c-1.497,0-2.782,0.468-3.856,1.402
		c-1.076,0.936-1.707,2.385-1.894,4.348h11.219c-0.094-1.636-0.596-3.003-1.507-4.102
		C145.462,960.262,144.141,959.711,142.412,959.711z"/>
	<path fill="#410242" d="M187.848,961.534H177.47c-0.234-0.935-0.386-1.811-0.456-2.629c-0.07-0.817-0.105-1.602-0.105-2.35
		c0-0.747,0.035-1.519,0.105-2.313c0.07-0.795,0.222-1.659,0.456-2.595h32.605c0.233,0.936,0.386,1.8,0.456,2.595
		c0.07,0.795,0.105,1.566,0.105,2.313c0,0.748-0.035,1.532-0.105,2.35c-0.07,0.818-0.223,1.694-0.456,2.629h-10.377v26.295
		c-1.216,0.187-2.314,0.327-3.296,0.421c-0.981,0.093-1.87,0.141-2.665,0.141c-0.795,0-1.683-0.048-2.665-0.141
		c-0.981-0.094-2.058-0.234-3.225-0.421V961.534z"/>
	<path fill="#410242" d="M237.842,974.507h-10.378v13.322c-1.216,0.187-2.314,0.327-3.295,0.421
		c-0.982,0.093-1.87,0.141-2.665,0.141c-0.795,0-1.683-0.048-2.665-0.141c-0.982-0.094-2.058-0.234-3.226-0.421v-36.182
		c1.028-0.233,2.044-0.396,3.05-0.491c1.004-0.093,1.974-0.14,2.91-0.14c0.888,0,1.846,0.047,2.875,0.14
		c1.028,0.095,2.034,0.258,3.015,0.491v12.341h10.378v-12.341c1.028-0.233,2.044-0.396,3.05-0.491c1.004-0.093,1.974-0.14,2.91-0.14
		c0.888,0,1.846,0.047,2.875,0.14c1.028,0.095,2.034,0.258,3.015,0.491v36.182c-1.216,0.187-2.314,0.327-3.295,0.421
		c-0.982,0.093-1.871,0.141-2.665,0.141c-0.795,0-1.683-0.048-2.665-0.141c-0.982-0.094-2.058-0.234-3.226-0.421V974.507z"/>
	<path fill="#410242" d="M267.713,973.524c0.514,1.918,1.413,3.273,2.699,4.067c1.285,0.796,2.98,1.192,5.084,1.192
		c1.355,0,2.875-0.164,4.558-0.491c1.683-0.326,3.342-0.817,4.979-1.473c0.654,1.217,1.227,2.665,1.718,4.348
		c0.491,1.683,0.759,3.436,0.806,5.259c-4.161,1.543-8.415,2.314-12.762,2.314c-3.366,0-6.253-0.468-8.66-1.402
		c-2.408-0.935-4.372-2.232-5.89-3.892c-1.52-1.659-2.642-3.635-3.366-5.926c-0.726-2.29-1.087-4.791-1.087-7.503
		c0-2.664,0.374-5.164,1.122-7.503c0.748-2.337,1.869-4.37,3.366-6.1c1.495-1.729,3.366-3.097,5.609-4.103
		c2.244-1.005,4.861-1.508,7.854-1.508c2.477,0,4.686,0.421,6.626,1.263c1.939,0.841,3.587,1.998,4.944,3.471
		c1.355,1.473,2.395,3.25,3.12,5.329c0.724,2.081,1.087,4.337,1.087,6.767c0,1.262-0.059,2.396-0.175,3.4
		c-0.117,1.006-0.223,1.836-0.315,2.489H267.713z M273.322,959.711c-1.497,0-2.782,0.468-3.856,1.402
		c-1.076,0.936-1.707,2.385-1.894,4.348h11.219c-0.094-1.636-0.596-3.003-1.507-4.102
		C276.373,960.262,275.051,959.711,273.322,959.711z"/>
	<path fill="#410242" d="M310.695,951.788c2.149-0.327,4.358-0.572,6.626-0.736c2.267-0.163,4.453-0.246,6.556-0.246
		c2.149,0,4.253,0.2,6.311,0.597c2.057,0.397,3.903,1.122,5.54,2.174c1.636,1.052,2.956,2.501,3.962,4.347
		c1.004,1.848,1.507,4.242,1.507,7.188c0,2.665-0.456,4.908-1.367,6.731s-2.116,3.296-3.611,4.418
		c-1.497,1.122-3.19,1.928-5.083,2.419s-3.822,0.736-5.785,0.736c-0.795,0-1.472-0.023-2.033-0.07
		c-0.561-0.046-0.912-0.093-1.052-0.141v8.625c-1.216,0.233-2.303,0.386-3.261,0.456c-0.958,0.07-1.812,0.105-2.559,0.105
		c-0.795,0-1.648-0.035-2.56-0.105s-1.976-0.223-3.19-0.456V951.788z M322.265,970.369c0.233,0.048,0.526,0.082,0.876,0.105
		c0.351,0.024,0.642,0.035,0.876,0.035c1.636,0,2.98-0.409,4.032-1.228c1.052-0.817,1.578-2.208,1.578-4.172
		c0-1.683-0.526-2.979-1.578-3.892c-1.052-0.911-2.349-1.367-3.892-1.367c-0.188,0-0.456,0-0.806,0s-0.713,0.024-1.087,0.07V970.369
		z"/>
	<path fill="#410242" d="M357.043,973.524c0.514,1.918,1.413,3.273,2.699,4.067c1.286,0.796,2.98,1.192,5.084,1.192
		c1.355,0,2.875-0.164,4.558-0.491c1.683-0.326,3.342-0.817,4.979-1.473c0.654,1.217,1.227,2.665,1.718,4.348
		c0.491,1.683,0.759,3.436,0.806,5.259c-4.161,1.543-8.415,2.314-12.762,2.314c-3.366,0-6.253-0.468-8.66-1.402
		c-2.408-0.935-4.372-2.232-5.89-3.892c-1.52-1.659-2.642-3.635-3.366-5.926c-0.726-2.29-1.087-4.791-1.087-7.503
		c0-2.664,0.374-5.164,1.122-7.503c0.748-2.337,1.869-4.37,3.366-6.1c1.495-1.729,3.366-3.097,5.609-4.103
		c2.244-1.005,4.861-1.508,7.854-1.508c2.477,0,4.686,0.421,6.626,1.263c1.939,0.841,3.587,1.998,4.944,3.471
		c1.355,1.473,2.395,3.25,3.12,5.329c0.724,2.081,1.087,4.337,1.087,6.767c0,1.262-0.059,2.396-0.175,3.4
		c-0.117,1.006-0.223,1.836-0.315,2.489H357.043z M362.653,959.711c-1.497,0-2.782,0.468-3.856,1.402
		c-1.076,0.936-1.707,2.385-1.894,4.348h11.219c-0.094-1.636-0.596-3.003-1.507-4.102
		C365.703,960.262,364.382,959.711,362.653,959.711z"/>
	<path fill="#410242" d="M382.847,969.949c0-2.852,0.386-5.458,1.157-7.818c0.771-2.36,1.917-4.383,3.436-6.065
		c1.519-1.684,3.401-2.98,5.645-3.892c2.244-0.912,4.838-1.368,7.783-1.368c2.991,0,5.61,0.456,7.854,1.368
		c2.244,0.911,4.125,2.208,5.645,3.892c1.519,1.683,2.665,3.705,3.436,6.065s1.157,4.967,1.157,7.818
		c0,2.805-0.386,5.363-1.157,7.678c-0.771,2.313-1.917,4.302-3.436,5.96c-1.52,1.66-3.4,2.935-5.645,3.821
		c-2.244,0.888-4.862,1.333-7.854,1.333c-2.945,0-5.539-0.445-7.783-1.333c-2.244-0.887-4.126-2.161-5.645-3.821
		c-1.52-1.658-2.665-3.646-3.436-5.96C383.233,975.313,382.847,972.754,382.847,969.949z M406.968,969.949
		c0-2.991-0.503-5.282-1.508-6.872c-1.005-1.589-2.536-2.384-4.593-2.384c-2.058,0-3.576,0.795-4.558,2.384
		c-0.981,1.59-1.473,3.881-1.473,6.872c0,2.944,0.491,5.213,1.473,6.801c0.981,1.59,2.5,2.385,4.558,2.385
		c2.057,0,3.587-0.795,4.593-2.385C406.465,975.162,406.968,972.894,406.968,969.949z"/>
	<path fill="#410242" d="M425.059,951.788c2.149-0.327,4.358-0.572,6.626-0.736c2.267-0.163,4.452-0.246,6.556-0.246
		c2.15,0,4.254,0.2,6.312,0.597c2.056,0.397,3.902,1.122,5.539,2.174c1.636,1.052,2.956,2.501,3.962,4.347
		c1.005,1.848,1.508,4.242,1.508,7.188c0,2.665-0.456,4.908-1.368,6.731c-0.911,1.823-2.115,3.296-3.61,4.418
		c-1.497,1.122-3.19,1.928-5.084,2.419s-3.821,0.736-5.785,0.736c-0.795,0-1.473-0.023-2.033-0.07
		c-0.561-0.046-0.912-0.093-1.052-0.141v8.625c-1.216,0.233-2.303,0.386-3.261,0.456c-0.958,0.07-1.812,0.105-2.559,0.105
		c-0.795,0-1.648-0.035-2.56-0.105s-1.976-0.223-3.19-0.456V951.788z M436.629,970.369c0.233,0.048,0.525,0.082,0.876,0.105
		c0.351,0.024,0.643,0.035,0.877,0.035c1.636,0,2.98-0.409,4.032-1.228c1.052-0.817,1.577-2.208,1.577-4.172
		c0-1.683-0.525-2.979-1.577-3.892c-1.052-0.911-2.35-1.367-3.892-1.367c-0.188,0-0.456,0-0.807,0s-0.714,0.024-1.087,0.07V970.369z
		"/>
	<path fill="#410242" d="M473.091,978.013h13.252c0.233,0.936,0.386,1.8,0.456,2.595s0.105,1.566,0.105,2.313
		c0,0.748-0.035,1.531-0.105,2.349c-0.07,0.818-0.223,1.695-0.456,2.63H461.24l0.07-36.252c1.027-0.233,2.044-0.396,3.05-0.491
		c1.005-0.093,1.975-0.14,2.91-0.14c0.888,0,1.846,0.047,2.875,0.14c1.027,0.095,2.033,0.258,3.015,0.491L473.091,978.013z"/>
	<path fill="#410242" d="M501.349,973.524c0.515,1.918,1.414,3.273,2.7,4.067c1.285,0.796,2.979,1.192,5.083,1.192
		c1.355,0,2.875-0.164,4.559-0.491c1.683-0.326,3.341-0.817,4.979-1.473c0.653,1.217,1.227,2.665,1.718,4.348
		c0.49,1.683,0.759,3.436,0.806,5.259c-4.161,1.543-8.414,2.314-12.762,2.314c-3.365,0-6.252-0.468-8.659-1.402
		c-2.408-0.935-4.372-2.232-5.891-3.892c-1.52-1.659-2.642-3.635-3.365-5.926c-0.726-2.29-1.087-4.791-1.087-7.503
		c0-2.664,0.373-5.164,1.122-7.503c0.747-2.337,1.869-4.37,3.365-6.1s3.366-3.097,5.609-4.103c2.244-1.005,4.861-1.508,7.854-1.508
		c2.478,0,4.687,0.421,6.627,1.263c1.939,0.841,3.587,1.998,4.943,3.471c1.355,1.473,2.395,3.25,3.12,5.329
		c0.725,2.081,1.087,4.337,1.087,6.767c0,1.262-0.06,2.396-0.176,3.4c-0.117,1.006-0.222,1.836-0.315,2.489H501.349z
		 M506.959,959.711c-1.497,0-2.782,0.468-3.857,1.402c-1.075,0.936-1.707,2.385-1.893,4.348h11.219
		c-0.094-1.636-0.596-3.003-1.508-4.102C510.009,960.262,508.688,959.711,506.959,959.711z"/>
	<path fill="#410242" d="M579.391,972.543l4.348-20.896c0.374-0.093,1.098-0.187,2.174-0.28c1.075-0.094,2.22-0.141,3.436-0.141
		c1.543,0,2.91,0.047,4.103,0.141c1.191,0.094,2.044,0.188,2.56,0.28l-11.36,36.111c-0.795,0.233-1.659,0.386-2.594,0.456
		c-0.936,0.07-1.87,0.105-2.805,0.105c-0.936,0-1.883-0.035-2.84-0.105c-0.959-0.07-1.953-0.223-2.98-0.456l-5.119-19.633
		c-0.888,3.132-1.788,6.428-2.699,9.887c-0.911,3.46-1.788,6.708-2.63,9.746c-0.981,0.233-1.952,0.386-2.909,0.456
		c-0.959,0.07-1.905,0.105-2.84,0.105c-0.936,0-1.87-0.035-2.805-0.105c-0.937-0.07-1.801-0.223-2.595-0.456l-11.009-36.111
		c0.514-0.093,1.413-0.187,2.699-0.28c1.285-0.094,2.7-0.141,4.242-0.141c1.215,0,2.396,0.047,3.541,0.141s1.904,0.188,2.279,0.28
		l4.558,21.457l5.049-21.457c0.794-0.233,1.671-0.386,2.629-0.456s1.904-0.104,2.84-0.104c0.935,0,1.882,0.034,2.84,0.104
		s1.929,0.223,2.91,0.456L579.391,972.543z"/>
	<path fill="#410242" d="M609.472,973.524c0.515,1.918,1.414,3.273,2.7,4.067c1.285,0.796,2.979,1.192,5.083,1.192
		c1.355,0,2.875-0.164,4.559-0.491c1.683-0.326,3.341-0.817,4.979-1.473c0.653,1.217,1.227,2.665,1.718,4.348
		c0.49,1.683,0.759,3.436,0.806,5.259c-4.161,1.543-8.414,2.314-12.762,2.314c-3.365,0-6.252-0.468-8.659-1.402
		c-2.408-0.935-4.372-2.232-5.891-3.892c-1.52-1.659-2.642-3.635-3.365-5.926c-0.726-2.29-1.087-4.791-1.087-7.503
		c0-2.664,0.373-5.164,1.122-7.503c0.747-2.337,1.869-4.37,3.365-6.1s3.366-3.097,5.609-4.103c2.244-1.005,4.861-1.508,7.854-1.508
		c2.478,0,4.687,0.421,6.627,1.263c1.939,0.841,3.587,1.998,4.943,3.471c1.355,1.473,2.395,3.25,3.12,5.329
		c0.725,2.081,1.087,4.337,1.087,6.767c0,1.262-0.06,2.396-0.176,3.4c-0.117,1.006-0.222,1.836-0.315,2.489H609.472z
		 M615.082,959.711c-1.497,0-2.782,0.468-3.857,1.402c-1.075,0.936-1.707,2.385-1.893,4.348h11.219
		c-0.094-1.636-0.596-3.003-1.508-4.102C618.132,960.262,616.811,959.711,615.082,959.711z"/>
	<path fill="#410242" d="M664.305,978.013h13.252c0.233,0.936,0.386,1.8,0.456,2.595s0.105,1.566,0.105,2.313
		c0,0.748-0.035,1.531-0.105,2.349c-0.07,0.818-0.223,1.695-0.456,2.63h-25.103l0.07-36.252c1.027-0.233,2.044-0.396,3.05-0.491
		c1.005-0.093,1.975-0.14,2.91-0.14c0.888,0,1.846,0.047,2.875,0.14c1.027,0.095,2.033,0.258,3.015,0.491L664.305,978.013z"/>
	<path fill="#410242" d="M680.643,969.949c0-2.852,0.386-5.458,1.157-7.818c0.771-2.36,1.916-4.383,3.436-6.065
		c1.519-1.684,3.4-2.98,5.645-3.892c2.244-0.912,4.838-1.368,7.783-1.368c2.991,0,5.609,0.456,7.854,1.368
		c2.244,0.911,4.125,2.208,5.645,3.892c1.519,1.683,2.665,3.705,3.437,6.065c0.771,2.36,1.156,4.967,1.156,7.818
		c0,2.805-0.386,5.363-1.156,7.678c-0.771,2.313-1.918,4.302-3.437,5.96c-1.52,1.66-3.4,2.935-5.645,3.821
		c-2.244,0.888-4.862,1.333-7.854,1.333c-2.945,0-5.539-0.445-7.783-1.333c-2.244-0.887-4.126-2.161-5.645-3.821
		c-1.52-1.658-2.665-3.646-3.436-5.96C681.028,975.313,680.643,972.754,680.643,969.949z M704.764,969.949
		c0-2.991-0.503-5.282-1.508-6.872c-1.006-1.589-2.536-2.384-4.593-2.384c-2.058,0-3.576,0.795-4.558,2.384
		c-0.981,1.59-1.473,3.881-1.473,6.872c0,2.944,0.491,5.213,1.473,6.801c0.981,1.59,2.5,2.385,4.558,2.385
		c2.057,0,3.587-0.795,4.593-2.385C704.261,975.162,704.764,972.894,704.764,969.949z"/>
	<path fill="#410242" d="M743.891,951.647c0.373-0.093,1.145-0.187,2.313-0.28c1.168-0.094,2.36-0.141,3.576-0.141
		c1.543,0,2.98,0.047,4.313,0.141s2.255,0.188,2.77,0.28l-13.743,36.111c-0.981,0.233-1.976,0.386-2.98,0.456
		c-1.006,0.07-1.975,0.105-2.909,0.105c-0.937,0-1.894-0.035-2.875-0.105c-0.982-0.07-1.87-0.223-2.665-0.456l-13.463-36.111
		c0.514-0.093,1.438-0.187,2.77-0.28s2.77-0.141,4.313-0.141c1.215,0,2.43,0.047,3.646,0.141c1.215,0.094,2.009,0.188,2.384,0.28
		l6.381,21.737c1.075-3.6,2.114-7.245,3.12-10.938C741.845,958.754,742.861,955.153,743.891,951.647z"/>
	<path fill="#410242" d="M770.254,973.524c0.515,1.918,1.414,3.273,2.7,4.067c1.285,0.796,2.979,1.192,5.083,1.192
		c1.355,0,2.875-0.164,4.559-0.491c1.683-0.326,3.341-0.817,4.979-1.473c0.653,1.217,1.227,2.665,1.718,4.348
		c0.49,1.683,0.759,3.436,0.806,5.259c-4.161,1.543-8.414,2.314-12.762,2.314c-3.365,0-6.252-0.468-8.659-1.402
		c-2.408-0.935-4.372-2.232-5.891-3.892c-1.52-1.659-2.642-3.635-3.365-5.926c-0.726-2.29-1.087-4.791-1.087-7.503
		c0-2.664,0.373-5.164,1.122-7.503c0.747-2.337,1.869-4.37,3.365-6.1s3.366-3.097,5.609-4.103c2.244-1.005,4.861-1.508,7.854-1.508
		c2.478,0,4.687,0.421,6.627,1.263c1.939,0.841,3.587,1.998,4.943,3.471c1.355,1.473,2.395,3.25,3.12,5.329
		c0.725,2.081,1.087,4.337,1.087,6.767c0,1.262-0.06,2.396-0.176,3.4c-0.117,1.006-0.222,1.836-0.315,2.489H770.254z
		 M775.864,959.711c-1.497,0-2.782,0.468-3.857,1.402c-1.075,0.936-1.707,2.385-1.893,4.348h11.219
		c-0.094-1.636-0.596-3.003-1.508-4.102C778.914,960.262,777.593,959.711,775.864,959.711z"/>
	<path fill="#410242" d="M800.406,976.681c1.027-0.233,1.998-0.409,2.909-0.526c0.912-0.116,1.741-0.175,2.489-0.175
		s1.671,0.059,2.771,0.175c1.098,0.117,2.255,0.34,3.471,0.666l-5.329,18.722c-1.122,0.281-2.128,0.456-3.016,0.526
		s-1.683,0.105-2.384,0.105c-0.748,0-1.555-0.048-2.419-0.141c-0.865-0.094-1.976-0.305-3.331-0.631L800.406,976.681z"/>
</g>
<g id="fill-line3">
	<path fill="#3B0140" d="M76.781,1045.678H66.403c-0.234-0.935-0.386-1.811-0.456-2.629c-0.07-0.817-0.105-1.602-0.105-2.35
		c0-0.747,0.035-1.519,0.105-2.313c0.07-0.795,0.222-1.659,0.456-2.595h32.605c0.233,0.936,0.386,1.8,0.456,2.595
		c0.07,0.795,0.105,1.566,0.105,2.313c0,0.748-0.035,1.532-0.105,2.35c-0.07,0.818-0.223,1.694-0.456,2.629H88.631v26.295
		c-1.216,0.187-2.314,0.327-3.296,0.421c-0.981,0.093-1.87,0.141-2.665,0.141c-0.795,0-1.683-0.048-2.665-0.141
		c-0.981-0.094-2.058-0.234-3.225-0.421V1045.678z"/>
	<path fill="#3B0140" d="M126.775,1058.65h-10.378v13.322c-1.216,0.187-2.314,0.327-3.295,0.421
		c-0.982,0.093-1.87,0.141-2.665,0.141c-0.795,0-1.683-0.048-2.665-0.141c-0.982-0.094-2.058-0.234-3.226-0.421v-36.182
		c1.028-0.233,2.044-0.396,3.05-0.491c1.004-0.093,1.974-0.14,2.91-0.14c0.888,0,1.846,0.047,2.875,0.14
		c1.028,0.095,2.034,0.258,3.015,0.491v12.341h10.378v-12.341c1.028-0.233,2.044-0.396,3.05-0.491c1.004-0.093,1.974-0.14,2.91-0.14
		c0.888,0,1.846,0.047,2.875,0.14c1.028,0.095,2.034,0.258,3.015,0.491v36.182c-1.216,0.187-2.314,0.327-3.295,0.421
		c-0.982,0.093-1.871,0.141-2.665,0.141c-0.795,0-1.683-0.048-2.665-0.141c-0.982-0.094-2.058-0.234-3.226-0.421V1058.65z"/>
	<path fill="#3B0140" d="M156.646,1057.668c0.514,1.918,1.413,3.273,2.699,4.067c1.285,0.796,2.98,1.192,5.084,1.192
		c1.355,0,2.875-0.164,4.558-0.491c1.683-0.326,3.342-0.817,4.979-1.473c0.654,1.217,1.227,2.665,1.718,4.348
		c0.491,1.683,0.759,3.436,0.806,5.259c-4.161,1.543-8.415,2.314-12.762,2.314c-3.366,0-6.253-0.468-8.66-1.402
		c-2.408-0.935-4.372-2.232-5.89-3.892c-1.52-1.659-2.642-3.635-3.366-5.926c-0.726-2.29-1.087-4.791-1.087-7.503
		c0-2.664,0.374-5.164,1.122-7.503c0.748-2.337,1.869-4.37,3.366-6.1c1.495-1.729,3.366-3.097,5.609-4.103
		c2.244-1.005,4.861-1.508,7.854-1.508c2.477,0,4.686,0.421,6.626,1.263c1.939,0.841,3.587,1.998,4.944,3.471
		c1.355,1.473,2.395,3.25,3.12,5.329c0.724,2.081,1.087,4.337,1.087,6.767c0,1.262-0.059,2.396-0.175,3.4
		c-0.117,1.006-0.223,1.836-0.315,2.489H156.646z M162.255,1043.854c-1.497,0-2.782,0.468-3.856,1.402
		c-1.076,0.936-1.707,2.385-1.894,4.348h11.219c-0.094-1.636-0.596-3.003-1.507-4.102
		C165.305,1044.405,163.984,1043.854,162.255,1043.854z"/>
	<path fill="#3B0140" d="M199.627,1035.932c2.149-0.327,4.358-0.572,6.626-0.736c2.267-0.163,4.453-0.246,6.556-0.246
		c2.149,0,4.253,0.2,6.311,0.597c2.057,0.397,3.903,1.122,5.54,2.174c1.636,1.052,2.956,2.501,3.962,4.347
		c1.004,1.848,1.507,4.242,1.507,7.188c0,2.665-0.456,4.908-1.367,6.731s-2.116,3.296-3.611,4.418
		c-1.497,1.122-3.19,1.928-5.083,2.419s-3.822,0.736-5.785,0.736c-0.795,0-1.472-0.023-2.033-0.07
		c-0.561-0.046-0.912-0.093-1.052-0.141v8.625c-1.216,0.233-2.303,0.386-3.261,0.456c-0.958,0.07-1.812,0.105-2.559,0.105
		c-0.795,0-1.648-0.035-2.56-0.105s-1.976-0.223-3.19-0.456V1035.932z M211.197,1054.513c0.233,0.048,0.526,0.082,0.876,0.105
		c0.351,0.024,0.642,0.035,0.876,0.035c1.636,0,2.98-0.409,4.032-1.228c1.052-0.817,1.578-2.208,1.578-4.172
		c0-1.683-0.526-2.979-1.578-3.892c-1.052-0.911-2.349-1.367-3.892-1.367c-0.188,0-0.456,0-0.806,0s-0.713,0.024-1.087,0.07
		V1054.513z"/>
	<path fill="#3B0140" d="M247.659,1062.156h13.253c0.233,0.936,0.385,1.8,0.456,2.595s0.105,1.566,0.105,2.313
		c0,0.748-0.035,1.531-0.105,2.349c-0.07,0.818-0.222,1.695-0.456,2.63h-25.103l0.07-36.252c1.027-0.233,2.044-0.396,3.05-0.491
		c1.005-0.093,1.975-0.14,2.91-0.14c0.887,0,1.846,0.047,2.875,0.14c1.027,0.095,2.033,0.258,3.015,0.491L247.659,1062.156z"/>
	<path fill="#3B0140" d="M264.627,1060.192c0-2.289,0.491-4.183,1.473-5.68c0.981-1.495,2.244-2.688,3.787-3.576
		c1.542-0.887,3.249-1.507,5.119-1.857c1.869-0.351,3.692-0.526,5.469-0.526h4.277c-0.047-0.842-0.281-1.543-0.701-2.104
		c-0.421-0.561-0.959-0.992-1.613-1.297c-0.655-0.304-1.379-0.515-2.174-0.632c-0.795-0.115-1.613-0.175-2.454-0.175
		c-1.122,0-2.431,0.129-3.927,0.386c-1.497,0.258-3.039,0.666-4.628,1.227c-0.421-0.794-0.783-1.519-1.087-2.173
		c-0.305-0.654-0.538-1.32-0.701-1.999c-0.164-0.677-0.28-1.378-0.351-2.104c-0.07-0.725-0.105-1.554-0.105-2.489
		c2.244-0.747,4.476-1.309,6.696-1.683c2.22-0.374,4.218-0.562,5.995-0.562c2.43,0,4.628,0.293,6.591,0.877
		c1.963,0.585,3.634,1.484,5.014,2.699c1.378,1.217,2.442,2.771,3.19,4.663c0.747,1.894,1.122,4.149,1.122,6.767v20.545
		c-1.777,0.516-3.927,1.029-6.451,1.543s-5.189,0.771-7.994,0.771c-2.431,0-4.663-0.223-6.696-0.666
		c-2.034-0.444-3.776-1.157-5.224-2.139c-1.449-0.982-2.583-2.279-3.401-3.892C265.036,1064.505,264.627,1062.531,264.627,1060.192z
		 M281.176,1064.119c0.421,0,1.028-0.046,1.823-0.14c0.794-0.094,1.378-0.187,1.753-0.281v-7.713h-3.997
		c-1.637,0-3.015,0.351-4.137,1.052c-1.122,0.701-1.683,1.683-1.683,2.945c0,0.936,0.21,1.672,0.631,2.209
		c0.42,0.538,0.946,0.946,1.578,1.227c0.631,0.28,1.308,0.468,2.033,0.562C279.901,1064.073,280.568,1064.119,281.176,1064.119z"/>
	<path fill="#3B0140" d="M301.37,1053.952c0-2.805,0.396-5.375,1.192-7.713c0.794-2.337,1.963-4.336,3.506-5.996
		c1.543-1.658,3.436-2.955,5.68-3.892c2.244-0.935,4.814-1.402,7.713-1.402c0.981,0,1.916,0.024,2.805,0.07
		c0.888,0.047,1.764,0.141,2.629,0.28c0.865,0.141,1.753,0.351,2.665,0.632c0.912,0.28,1.929,0.631,3.05,1.052
		c0.093,1.59-0.047,3.167-0.42,4.732c-0.375,1.567-0.959,3.098-1.753,4.593c-0.795-0.28-1.507-0.501-2.139-0.666
		c-0.631-0.163-1.227-0.291-1.788-0.386c-0.561-0.093-1.111-0.15-1.648-0.175c-0.538-0.023-1.111-0.035-1.718-0.035
		c-2.244,0-4.102,0.666-5.574,1.998c-1.473,1.333-2.209,3.636-2.209,6.907c0,1.729,0.222,3.167,0.667,4.313
		c0.443,1.146,1.027,2.045,1.753,2.699c0.724,0.655,1.565,1.122,2.524,1.402c0.958,0.28,1.975,0.421,3.05,0.421
		c1.355,0,2.536-0.116,3.541-0.351c1.005-0.233,2.185-0.607,3.541-1.122c0.794,1.263,1.426,2.677,1.894,4.242
		c0.467,1.567,0.701,3.355,0.701,5.364c-2.151,0.842-4.114,1.379-5.89,1.613c-1.777,0.233-3.553,0.351-5.329,0.351
		c-2.992,0-5.634-0.445-7.923-1.333c-2.291-0.887-4.219-2.161-5.785-3.821c-1.567-1.658-2.747-3.646-3.541-5.96
		C301.767,1059.456,301.37,1056.852,301.37,1053.952z"/>
	<path fill="#3B0140" d="M345.265,1057.668c0.514,1.918,1.413,3.273,2.699,4.067c1.285,0.796,2.98,1.192,5.084,1.192
		c1.355,0,2.875-0.164,4.558-0.491c1.683-0.326,3.342-0.817,4.979-1.473c0.654,1.217,1.227,2.665,1.718,4.348
		c0.491,1.683,0.759,3.436,0.806,5.259c-4.161,1.543-8.415,2.314-12.762,2.314c-3.366,0-6.253-0.468-8.66-1.402
		c-2.408-0.935-4.372-2.232-5.89-3.892c-1.52-1.659-2.642-3.635-3.366-5.926c-0.726-2.29-1.087-4.791-1.087-7.503
		c0-2.664,0.374-5.164,1.122-7.503c0.748-2.337,1.869-4.37,3.366-6.1c1.495-1.729,3.366-3.097,5.609-4.103
		c2.244-1.005,4.861-1.508,7.854-1.508c2.477,0,4.686,0.421,6.626,1.263c1.939,0.841,3.587,1.998,4.944,3.471
		c1.355,1.473,2.395,3.25,3.12,5.329c0.724,2.081,1.087,4.337,1.087,6.767c0,1.262-0.059,2.396-0.175,3.4
		c-0.117,1.006-0.223,1.836-0.315,2.489H345.265z M350.874,1043.854c-1.497,0-2.782,0.468-3.856,1.402
		c-1.076,0.936-1.707,2.385-1.894,4.348h11.219c-0.094-1.636-0.596-3.003-1.507-4.102
		C353.924,1044.405,352.603,1043.854,350.874,1043.854z"/>
	<path fill="#3B0140" d="M390.281,1049.324c1.402,0.375,2.675,0.83,3.821,1.367c1.145,0.538,2.126,1.228,2.945,2.068
		c0.817,0.842,1.46,1.87,1.928,3.086c0.467,1.216,0.701,2.688,0.701,4.417c0,1.777-0.363,3.436-1.087,4.979
		c-0.726,1.543-1.8,2.875-3.226,3.997c-1.426,1.122-3.18,2.011-5.259,2.664c-2.081,0.654-4.477,0.982-7.188,0.982
		c-2.244,0-4.324-0.165-6.241-0.491c-1.917-0.327-3.951-0.888-6.1-1.683c0.233-3.179,1.098-6.404,2.594-9.677
		c1.496,0.701,3.061,1.228,4.698,1.578c1.636,0.351,3.272,0.525,4.909,0.525c0.561,0,1.145-0.023,1.753-0.07
		c0.607-0.046,1.145-0.151,1.613-0.315c0.467-0.163,0.853-0.386,1.157-0.666c0.304-0.28,0.456-0.654,0.456-1.122
		c0-0.606-0.305-1.063-0.912-1.367c-0.608-0.304-1.309-0.572-2.104-0.807l-4.768-1.332c-2.479-0.701-4.535-1.894-6.171-3.576
		c-1.637-1.683-2.454-3.973-2.454-6.872c0-1.822,0.374-3.481,1.122-4.979c0.747-1.495,1.799-2.77,3.155-3.821
		c1.355-1.052,2.956-1.858,4.803-2.419c1.846-0.561,3.892-0.842,6.136-0.842c1.776,0,3.716,0.188,5.82,0.562
		s4.183,0.911,6.241,1.612c-0.094,1.497-0.398,3.098-0.912,4.804c-0.515,1.707-1.099,3.214-1.753,4.522
		c-1.262-0.514-2.782-0.981-4.558-1.402c-1.777-0.421-3.413-0.631-4.908-0.631c-2.198,0-3.296,0.607-3.296,1.823
		c0,0.515,0.257,0.911,0.771,1.191c0.514,0.28,1.098,0.516,1.753,0.701L390.281,1049.324z"/>
	<path fill="#3B0140" d="M456.262,1056.687l4.348-20.896c0.374-0.093,1.098-0.187,2.174-0.28c1.075-0.094,2.22-0.141,3.436-0.141
		c1.543,0,2.91,0.047,4.103,0.141c1.191,0.094,2.044,0.188,2.56,0.28l-11.36,36.111c-0.795,0.233-1.659,0.386-2.594,0.456
		c-0.936,0.07-1.87,0.105-2.805,0.105c-0.936,0-1.883-0.035-2.84-0.105c-0.959-0.07-1.953-0.223-2.98-0.456l-5.119-19.633
		c-0.888,3.132-1.788,6.428-2.699,9.887c-0.911,3.46-1.788,6.708-2.63,9.746c-0.981,0.233-1.952,0.386-2.909,0.456
		c-0.959,0.07-1.905,0.105-2.84,0.105c-0.936,0-1.871-0.035-2.805-0.105c-0.936-0.07-1.8-0.223-2.594-0.456l-11.009-36.111
		c0.514-0.093,1.413-0.187,2.699-0.28c1.285-0.094,2.7-0.141,4.243-0.141c1.215,0,2.395,0.047,3.541,0.141
		c1.145,0.094,1.904,0.188,2.279,0.28l4.558,21.457l5.049-21.457c0.794-0.233,1.671-0.386,2.629-0.456s1.904-0.104,2.84-0.104
		c0.935,0,1.882,0.034,2.84,0.104s1.929,0.223,2.91,0.456L456.262,1056.687z"/>
	<path fill="#3B0140" d="M486.343,1057.668c0.515,1.918,1.414,3.273,2.7,4.067c1.285,0.796,2.979,1.192,5.083,1.192
		c1.355,0,2.875-0.164,4.559-0.491c1.683-0.326,3.341-0.817,4.979-1.473c0.653,1.217,1.227,2.665,1.718,4.348
		c0.49,1.683,0.759,3.436,0.806,5.259c-4.161,1.543-8.414,2.314-12.762,2.314c-3.365,0-6.252-0.468-8.659-1.402
		c-2.408-0.935-4.372-2.232-5.891-3.892c-1.52-1.659-2.642-3.635-3.365-5.926c-0.726-2.29-1.087-4.791-1.087-7.503
		c0-2.664,0.373-5.164,1.122-7.503c0.747-2.337,1.869-4.37,3.365-6.1s3.366-3.097,5.609-4.103c2.244-1.005,4.861-1.508,7.854-1.508
		c2.478,0,4.687,0.421,6.627,1.263c1.939,0.841,3.587,1.998,4.943,3.471c1.355,1.473,2.395,3.25,3.12,5.329
		c0.725,2.081,1.087,4.337,1.087,6.767c0,1.262-0.06,2.396-0.176,3.4c-0.117,1.006-0.222,1.836-0.315,2.489H486.343z
		 M491.953,1043.854c-1.497,0-2.782,0.468-3.857,1.402c-1.075,0.936-1.707,2.385-1.893,4.348h11.219
		c-0.094-1.636-0.596-3.003-1.508-4.102C495.003,1044.405,493.682,1043.854,491.953,1043.854z"/>
	<path fill="#3B0140" d="M523.997,1040.489c-1.029,0.234-1.999,0.386-2.91,0.456c-0.912,0.069-1.788,0.104-2.63,0.104
		c-0.981,0-1.998-0.058-3.05-0.175c-1.052-0.116-1.929-0.246-2.63-0.386l4.838-18.723c1.028-0.232,1.999-0.385,2.91-0.455
		c0.912-0.07,1.741-0.105,2.489-0.105c0.795,0,1.741,0.035,2.84,0.105c1.098,0.07,2.255,0.223,3.472,0.455L523.997,1040.489z"/>
	<path fill="#3B0140" d="M558.146,1035.791c0.373-0.093,1.145-0.187,2.313-0.28c1.168-0.094,2.36-0.141,3.576-0.141
		c1.543,0,2.98,0.047,4.313,0.141s2.255,0.188,2.77,0.28l-13.743,36.111c-0.981,0.233-1.976,0.386-2.98,0.456
		c-1.006,0.07-1.975,0.105-2.909,0.105c-0.937,0-1.894-0.035-2.875-0.105c-0.982-0.07-1.87-0.223-2.665-0.456l-13.463-36.111
		c0.514-0.093,1.438-0.187,2.77-0.28s2.77-0.141,4.313-0.141c1.215,0,2.43,0.047,3.646,0.141c1.215,0.094,2.009,0.188,2.384,0.28
		l6.381,21.737c1.075-3.6,2.114-7.245,3.12-10.938C556.1,1042.897,557.116,1039.297,558.146,1035.791z"/>
	<path fill="#3B0140" d="M584.509,1057.668c0.515,1.918,1.414,3.273,2.7,4.067c1.285,0.796,2.979,1.192,5.083,1.192
		c1.355,0,2.875-0.164,4.559-0.491c1.683-0.326,3.341-0.817,4.979-1.473c0.653,1.217,1.227,2.665,1.718,4.348
		c0.49,1.683,0.759,3.436,0.806,5.259c-4.161,1.543-8.414,2.314-12.762,2.314c-3.365,0-6.252-0.468-8.659-1.402
		c-2.408-0.935-4.372-2.232-5.891-3.892c-1.52-1.659-2.642-3.635-3.365-5.926c-0.726-2.29-1.087-4.791-1.087-7.503
		c0-2.664,0.373-5.164,1.122-7.503c0.747-2.337,1.869-4.37,3.365-6.1s3.366-3.097,5.609-4.103c2.244-1.005,4.861-1.508,7.854-1.508
		c2.478,0,4.687,0.421,6.627,1.263c1.939,0.841,3.587,1.998,4.943,3.471c1.355,1.473,2.395,3.25,3.12,5.329
		c0.725,2.081,1.087,4.337,1.087,6.767c0,1.262-0.06,2.396-0.176,3.4c-0.117,1.006-0.222,1.836-0.315,2.489H584.509z
		 M590.119,1043.854c-1.497,0-2.782,0.468-3.857,1.402c-1.075,0.936-1.707,2.385-1.893,4.348h11.219
		c-0.094-1.636-0.596-3.003-1.508-4.102C593.169,1044.405,591.848,1043.854,590.119,1043.854z"/>
	<path fill="#3B0140" d="M627.491,1035.932c0.935-0.141,2.01-0.269,3.226-0.386c1.215-0.116,2.454-0.222,3.716-0.315
		c1.263-0.094,2.489-0.164,3.682-0.211c1.192-0.046,2.231-0.07,3.12-0.07c5.843,0,10.214,0.831,13.112,2.489
		c2.898,1.66,4.348,4.242,4.348,7.749c0,1.776-0.409,3.284-1.227,4.522c-0.818,1.239-1.929,2.303-3.331,3.19
		c1.963,0.701,3.576,1.707,4.838,3.015c1.263,1.31,1.894,3.156,1.894,5.54c0,4.301-1.59,7.281-4.769,8.94
		c-3.179,1.658-7.877,2.489-14.094,2.489c-1.637,0-3.775-0.06-6.416-0.176c-2.642-0.117-5.341-0.362-8.099-0.736V1035.932z
		 M639.201,1049.675h3.436c1.776,0,2.969-0.386,3.576-1.157s0.912-1.577,0.912-2.419c0-0.794-0.315-1.53-0.947-2.209
		c-0.631-0.677-1.788-1.017-3.471-1.017c-0.515,0-1.11,0.012-1.788,0.035c-0.678,0.024-1.251,0.06-1.718,0.105V1049.675z
		 M639.201,1057.037v7.223c0.141,0,0.514,0.024,1.122,0.07c0.606,0.047,1.425,0.07,2.454,0.07c1.963,0,3.365-0.327,4.207-0.982
		c0.842-0.654,1.263-1.565,1.263-2.734c0-0.467-0.083-0.923-0.246-1.367c-0.164-0.444-0.455-0.829-0.876-1.157
		c-0.421-0.326-1.006-0.596-1.753-0.807c-0.749-0.21-1.73-0.315-2.945-0.315H639.201z"/>
	<path fill="#3B0140" d="M677.065,1057.668c0.515,1.918,1.414,3.273,2.7,4.067c1.285,0.796,2.979,1.192,5.083,1.192
		c1.355,0,2.875-0.164,4.559-0.491c1.683-0.326,3.341-0.817,4.979-1.473c0.653,1.217,1.227,2.665,1.718,4.348
		c0.49,1.683,0.759,3.436,0.806,5.259c-4.161,1.543-8.414,2.314-12.762,2.314c-3.365,0-6.252-0.468-8.659-1.402
		c-2.408-0.935-4.372-2.232-5.891-3.892c-1.52-1.659-2.642-3.635-3.365-5.926c-0.726-2.29-1.087-4.791-1.087-7.503
		c0-2.664,0.373-5.164,1.122-7.503c0.747-2.337,1.869-4.37,3.365-6.1s3.366-3.097,5.609-4.103c2.244-1.005,4.861-1.508,7.854-1.508
		c2.478,0,4.687,0.421,6.627,1.263c1.939,0.841,3.587,1.998,4.943,3.471c1.355,1.473,2.395,3.25,3.12,5.329
		c0.725,2.081,1.087,4.337,1.087,6.767c0,1.262-0.06,2.396-0.176,3.4c-0.117,1.006-0.222,1.836-0.315,2.489H677.065z
		 M682.676,1043.854c-1.497,0-2.782,0.468-3.857,1.402c-1.075,0.936-1.707,2.385-1.893,4.348h11.219
		c-0.094-1.636-0.596-3.003-1.508-4.102C685.726,1044.405,684.404,1043.854,682.676,1043.854z"/>
	<path fill="#3B0140" d="M714.789,1057.668c0.515,1.918,1.414,3.273,2.7,4.067c1.285,0.796,2.979,1.192,5.083,1.192
		c1.355,0,2.875-0.164,4.559-0.491c1.683-0.326,3.341-0.817,4.979-1.473c0.653,1.217,1.227,2.665,1.718,4.348
		c0.49,1.683,0.759,3.436,0.806,5.259c-4.161,1.543-8.414,2.314-12.762,2.314c-3.365,0-6.252-0.468-8.659-1.402
		c-2.408-0.935-4.372-2.232-5.891-3.892c-1.52-1.659-2.642-3.635-3.365-5.926c-0.726-2.29-1.087-4.791-1.087-7.503
		c0-2.664,0.373-5.164,1.122-7.503c0.747-2.337,1.869-4.37,3.365-6.1s3.366-3.097,5.609-4.103c2.244-1.005,4.861-1.508,7.854-1.508
		c2.478,0,4.687,0.421,6.627,1.263c1.939,0.841,3.587,1.998,4.943,3.471c1.355,1.473,2.395,3.25,3.12,5.329
		c0.725,2.081,1.087,4.337,1.087,6.767c0,1.262-0.06,2.396-0.176,3.4c-0.117,1.006-0.222,1.836-0.315,2.489H714.789z
		 M720.399,1043.854c-1.497,0-2.782,0.468-3.857,1.402c-1.075,0.936-1.707,2.385-1.893,4.348h11.219
		c-0.094-1.636-0.596-3.003-1.508-4.102C723.449,1044.405,722.128,1043.854,720.399,1043.854z"/>
	<path fill="#3B0140" d="M757.072,1035.09c2.056,0,4.112,0.175,6.17,0.526c2.057,0.351,3.915,1.086,5.574,2.208
		s3.016,2.735,4.067,4.839s1.578,4.885,1.578,8.344v20.966c-1.217,0.233-2.314,0.386-3.296,0.456s-1.848,0.105-2.595,0.105
		c-0.795,0-1.683-0.035-2.664-0.105c-0.982-0.07-2.081-0.223-3.296-0.456v-19.703c0-2.478-0.468-4.254-1.402-5.329
		c-0.936-1.075-2.361-1.613-4.277-1.613c-0.515,0-1.063,0.047-1.647,0.141c-0.586,0.094-0.947,0.188-1.087,0.28v26.225
		c-1.217,0.233-2.314,0.386-3.296,0.456s-1.848,0.105-2.595,0.105c-0.795,0-1.683-0.035-2.664-0.105
		c-0.982-0.07-2.081-0.223-3.296-0.456v-34.429c1.636-0.561,3.622-1.109,5.96-1.647
		C750.644,1035.359,753.565,1035.09,757.072,1035.09z"/>
	<path fill="#3B0140" d="M784.559,1060.824c1.027-0.233,1.998-0.409,2.909-0.526c0.912-0.116,1.741-0.175,2.489-0.175
		s1.671,0.059,2.771,0.175c1.098,0.117,2.255,0.34,3.471,0.666l-5.329,18.722c-1.122,0.281-2.128,0.456-3.016,0.526
		s-1.683,0.105-2.384,0.105c-0.748,0-1.555-0.048-2.419-0.141c-0.865-0.094-1.976-0.305-3.331-0.631L784.559,1060.824z"/>
</g>
<g id="fill-line4">
	<path fill="#2C0133" d="M37.163,1144.337c0-2.289,0.491-4.183,1.473-5.68c0.981-1.495,2.244-2.688,3.787-3.576
		c1.542-0.887,3.249-1.507,5.119-1.857c1.869-0.351,3.692-0.526,5.469-0.526h4.277c-0.047-0.842-0.281-1.543-0.701-2.104
		c-0.421-0.561-0.959-0.992-1.613-1.297c-0.655-0.304-1.379-0.515-2.174-0.632c-0.795-0.115-1.613-0.175-2.454-0.175
		c-1.122,0-2.431,0.129-3.927,0.386c-1.497,0.258-3.039,0.666-4.628,1.227c-0.421-0.794-0.783-1.519-1.087-2.173
		c-0.305-0.654-0.538-1.32-0.701-1.999c-0.164-0.677-0.28-1.378-0.351-2.104c-0.07-0.725-0.105-1.554-0.105-2.489
		c2.244-0.747,4.476-1.309,6.696-1.683c2.22-0.374,4.218-0.562,5.995-0.562c2.43,0,4.628,0.293,6.591,0.877
		c1.963,0.585,3.634,1.484,5.014,2.699c1.378,1.217,2.442,2.771,3.19,4.663c0.747,1.894,1.122,4.149,1.122,6.767v20.545
		c-1.777,0.516-3.927,1.029-6.451,1.543s-5.189,0.771-7.994,0.771c-2.431,0-4.663-0.223-6.696-0.666
		c-2.034-0.444-3.776-1.157-5.224-2.139c-1.449-0.982-2.583-2.279-3.401-3.892C37.571,1148.649,37.163,1146.676,37.163,1144.337z
		 M53.711,1148.264c0.421,0,1.028-0.046,1.823-0.14c0.794-0.094,1.378-0.187,1.753-0.281v-7.713H53.29
		c-1.637,0-3.015,0.351-4.137,1.052c-1.122,0.701-1.683,1.683-1.683,2.945c0,0.936,0.21,1.672,0.631,2.209
		c0.42,0.538,0.946,0.946,1.578,1.227c0.631,0.28,1.308,0.468,2.033,0.562C52.437,1148.218,53.103,1148.264,53.711,1148.264z"/>
	<path fill="#2C0133" d="M90.383,1119.234c2.057,0,4.113,0.175,6.17,0.526c2.057,0.351,3.915,1.086,5.575,2.208
		c1.659,1.122,3.015,2.735,4.067,4.839s1.578,4.885,1.578,8.344v20.966c-1.216,0.233-2.314,0.386-3.295,0.456
		c-0.982,0.07-1.847,0.105-2.595,0.105c-0.795,0-1.683-0.035-2.665-0.105c-0.981-0.07-2.081-0.223-3.295-0.456v-19.703
		c0-2.478-0.468-4.254-1.402-5.329c-0.936-1.075-2.361-1.613-4.277-1.613c-0.515,0-1.064,0.047-1.648,0.141
		c-0.585,0.094-0.947,0.188-1.087,0.28v26.225c-1.216,0.233-2.314,0.386-3.295,0.456c-0.982,0.07-1.847,0.105-2.595,0.105
		c-0.795,0-1.683-0.035-2.665-0.105c-0.981-0.07-2.081-0.223-3.295-0.456v-34.429c1.636-0.561,3.622-1.109,5.96-1.647
		C83.955,1119.504,86.877,1119.234,90.383,1119.234z"/>
	<path fill="#2C0133" d="M127.686,1119.094c3.787,0,7.023,0.445,9.711,1.333c2.688,0.889,4.896,2.139,6.626,3.751
		c1.729,1.613,2.991,3.565,3.787,5.855c0.794,2.291,1.192,4.838,1.192,7.643c0,2.945-0.41,5.609-1.227,7.994
		c-0.818,2.384-2.104,4.417-3.856,6.1c-1.753,1.684-4.021,2.98-6.802,3.892c-2.782,0.912-6.136,1.368-10.062,1.368
		c-2.291,0-4.336-0.083-6.136-0.246c-1.8-0.164-3.681-0.386-5.645-0.666v-36.041c1.963-0.233,4.043-0.456,6.241-0.667
		C123.712,1119.199,125.769,1119.094,127.686,1119.094z M127.125,1147.002c0.187,0,0.432,0.024,0.736,0.07
		c0.304,0.047,0.759,0.069,1.367,0.069c2.618,0,4.569-0.735,5.855-2.208c1.285-1.473,1.929-3.892,1.929-7.258
		c0-2.991-0.631-5.177-1.894-6.556s-3.062-2.069-5.399-2.069c-0.561,0-1.076,0.024-1.543,0.07c-0.468,0.047-0.818,0.095-1.052,0.141
		V1147.002z"/>
	<path fill="#2C0133" d="M178.592,1129.822h-10.378c-0.234-0.935-0.386-1.811-0.456-2.629c-0.07-0.817-0.105-1.602-0.105-2.35
		c0-0.747,0.035-1.519,0.105-2.313c0.07-0.795,0.222-1.659,0.456-2.595h32.605c0.233,0.936,0.386,1.8,0.456,2.595
		c0.07,0.795,0.105,1.566,0.105,2.313c0,0.748-0.035,1.532-0.105,2.35c-0.07,0.818-0.223,1.694-0.456,2.629h-10.377v26.295
		c-1.216,0.187-2.314,0.327-3.296,0.421c-0.981,0.093-1.87,0.141-2.665,0.141c-0.795,0-1.683-0.048-2.665-0.141
		c-0.981-0.094-2.058-0.234-3.225-0.421V1129.822z"/>
	<path fill="#2C0133" d="M228.586,1142.795h-10.378v13.322c-1.216,0.187-2.314,0.327-3.295,0.421
		c-0.982,0.093-1.87,0.141-2.665,0.141c-0.795,0-1.683-0.048-2.665-0.141c-0.982-0.094-2.058-0.234-3.226-0.421v-36.182
		c1.028-0.233,2.044-0.396,3.05-0.491c1.004-0.093,1.974-0.14,2.91-0.14c0.888,0,1.846,0.047,2.875,0.14
		c1.028,0.095,2.034,0.258,3.015,0.491v12.341h10.378v-12.341c1.028-0.233,2.044-0.396,3.05-0.491c1.004-0.093,1.974-0.14,2.91-0.14
		c0.888,0,1.846,0.047,2.875,0.14c1.028,0.095,2.034,0.258,3.015,0.491v36.182c-1.216,0.187-2.314,0.327-3.295,0.421
		c-0.982,0.093-1.871,0.141-2.665,0.141c-0.795,0-1.683-0.048-2.665-0.141c-0.982-0.094-2.058-0.234-3.226-0.421V1142.795z"/>
	<path fill="#2C0133" d="M258.457,1141.813c0.514,1.918,1.413,3.273,2.699,4.067c1.286,0.796,2.98,1.192,5.084,1.192
		c1.355,0,2.875-0.164,4.558-0.491c1.683-0.326,3.342-0.817,4.979-1.473c0.654,1.217,1.227,2.665,1.718,4.348
		c0.491,1.683,0.759,3.436,0.806,5.259c-4.161,1.543-8.415,2.314-12.762,2.314c-3.366,0-6.253-0.468-8.66-1.402
		c-2.408-0.935-4.372-2.232-5.89-3.892c-1.52-1.659-2.642-3.635-3.366-5.926c-0.726-2.29-1.087-4.791-1.087-7.503
		c0-2.664,0.374-5.164,1.122-7.503c0.748-2.337,1.869-4.37,3.366-6.1c1.495-1.729,3.366-3.097,5.609-4.103
		c2.244-1.005,4.861-1.508,7.854-1.508c2.477,0,4.686,0.421,6.626,1.263c1.939,0.841,3.587,1.998,4.944,3.471
		c1.355,1.473,2.395,3.25,3.12,5.329c0.724,2.081,1.087,4.337,1.087,6.767c0,1.262-0.059,2.396-0.175,3.4
		c-0.117,1.006-0.223,1.836-0.315,2.489H258.457z M264.066,1127.999c-1.497,0-2.782,0.468-3.856,1.402
		c-1.076,0.936-1.707,2.385-1.894,4.348h11.219c-0.094-1.636-0.596-3.003-1.507-4.102
		C267.116,1128.55,265.795,1127.999,264.066,1127.999z"/>
	<path fill="#2C0133" d="M316.023,1119.234c1.916,0,3.81,0.152,5.68,0.456c1.869,0.305,3.599,0.923,5.189,1.857
		c1.215-0.606,2.64-1.145,4.277-1.612c1.636-0.467,3.481-0.701,5.539-0.701c1.823,0,3.705,0.175,5.645,0.526
		c1.939,0.351,3.692,1.086,5.259,2.208c1.565,1.122,2.851,2.735,3.856,4.839c1.005,2.104,1.508,4.885,1.508,8.344v20.966
		c-1.216,0.233-2.314,0.386-3.296,0.456c-0.981,0.07-1.847,0.105-2.594,0.105c-0.795,0-1.683-0.035-2.665-0.105
		s-2.081-0.223-3.295-0.456v-19.703c0-2.478-0.421-4.254-1.262-5.329c-0.842-1.075-2.221-1.613-4.137-1.613
		c-0.655,0-1.297,0.07-1.928,0.211c-0.631,0.14-1.064,0.257-1.297,0.351c0.421,1.637,0.631,3.506,0.631,5.609v20.475
		c-1.216,0.233-2.314,0.386-3.296,0.456c-0.981,0.07-1.847,0.105-2.594,0.105c-0.795,0-1.683-0.035-2.665-0.105
		c-0.982-0.07-2.081-0.223-3.296-0.456v-19.703c0-2.478-0.397-4.254-1.192-5.329c-0.795-1.075-2.151-1.613-4.067-1.613
		c-0.515,0-1.064,0.047-1.648,0.141c-0.585,0.094-0.947,0.188-1.087,0.28v26.225c-1.216,0.233-2.314,0.386-3.295,0.456
		c-0.982,0.07-1.847,0.105-2.595,0.105c-0.795,0-1.683-0.035-2.665-0.105c-0.981-0.07-2.081-0.223-3.295-0.456v-34.429
		c1.636-0.561,3.599-1.109,5.89-1.647C309.618,1119.504,312.518,1119.234,316.023,1119.234z"/>
	<path fill="#2C0133" d="M370.646,1141.813c0.514,1.918,1.413,3.273,2.699,4.067c1.285,0.796,2.98,1.192,5.084,1.192
		c1.355,0,2.875-0.164,4.558-0.491c1.683-0.326,3.342-0.817,4.979-1.473c0.654,1.217,1.227,2.665,1.718,4.348
		c0.491,1.683,0.759,3.436,0.806,5.259c-4.161,1.543-8.415,2.314-12.762,2.314c-3.366,0-6.253-0.468-8.66-1.402
		c-2.408-0.935-4.372-2.232-5.89-3.892c-1.52-1.659-2.642-3.635-3.366-5.926c-0.726-2.29-1.087-4.791-1.087-7.503
		c0-2.664,0.374-5.164,1.122-7.503c0.748-2.337,1.869-4.37,3.366-6.1c1.495-1.729,3.366-3.097,5.609-4.103
		c2.244-1.005,4.861-1.508,7.854-1.508c2.477,0,4.686,0.421,6.626,1.263c1.939,0.841,3.587,1.998,4.944,3.471
		c1.355,1.473,2.395,3.25,3.12,5.329c0.724,2.081,1.087,4.337,1.087,6.767c0,1.262-0.059,2.396-0.175,3.4
		c-0.117,1.006-0.223,1.836-0.315,2.489H370.646z M376.256,1127.999c-1.497,0-2.782,0.468-3.856,1.402
		c-1.076,0.936-1.707,2.385-1.894,4.348h11.219c-0.094-1.636-0.596-3.003-1.507-4.102
		C379.306,1128.55,377.985,1127.999,376.256,1127.999z"/>
	<path fill="#2C0133" d="M412.788,1119.234c1.916,0,3.81,0.152,5.68,0.456c1.869,0.305,3.599,0.923,5.189,1.857
		c1.215-0.606,2.64-1.145,4.277-1.612c1.636-0.467,3.481-0.701,5.54-0.701c1.823,0,3.704,0.175,5.645,0.526
		c1.939,0.351,3.692,1.086,5.259,2.208c1.565,1.122,2.851,2.735,3.856,4.839c1.005,2.104,1.508,4.885,1.508,8.344v20.966
		c-1.216,0.233-2.314,0.386-3.296,0.456s-1.847,0.105-2.595,0.105c-0.795,0-1.683-0.035-2.664-0.105s-2.081-0.223-3.296-0.456
		v-19.703c0-2.478-0.421-4.254-1.262-5.329c-0.842-1.075-2.221-1.613-4.137-1.613c-0.655,0-1.297,0.07-1.928,0.211
		c-0.631,0.14-1.064,0.257-1.297,0.351c0.421,1.637,0.631,3.506,0.631,5.609v20.475c-1.216,0.233-2.314,0.386-3.296,0.456
		c-0.981,0.07-1.847,0.105-2.594,0.105c-0.795,0-1.683-0.035-2.665-0.105c-0.982-0.07-2.081-0.223-3.296-0.456v-19.703
		c0-2.478-0.397-4.254-1.192-5.329c-0.795-1.075-2.151-1.613-4.067-1.613c-0.515,0-1.064,0.047-1.648,0.141
		c-0.585,0.094-0.947,0.188-1.087,0.28v26.225c-1.216,0.233-2.314,0.386-3.295,0.456c-0.982,0.07-1.847,0.105-2.595,0.105
		c-0.795,0-1.683-0.035-2.665-0.105c-0.981-0.07-2.081-0.223-3.295-0.456v-34.429c1.636-0.561,3.599-1.109,5.89-1.647
		C406.383,1119.504,409.282,1119.234,412.788,1119.234z"/>
	<path fill="#2C0133" d="M455.491,1138.237c0-2.852,0.386-5.458,1.157-7.818c0.771-2.36,1.916-4.383,3.436-6.065
		c1.519-1.684,3.4-2.98,5.645-3.892c2.244-0.912,4.838-1.368,7.783-1.368c2.991,0,5.609,0.456,7.854,1.368
		c2.244,0.911,4.125,2.208,5.645,3.892c1.519,1.683,2.665,3.705,3.437,6.065c0.771,2.36,1.156,4.967,1.156,7.818
		c0,2.805-0.386,5.363-1.156,7.678c-0.771,2.313-1.918,4.302-3.437,5.96c-1.52,1.66-3.4,2.935-5.645,3.821
		c-2.244,0.888-4.862,1.333-7.854,1.333c-2.945,0-5.539-0.445-7.783-1.333c-2.244-0.887-4.126-2.161-5.645-3.821
		c-1.52-1.658-2.665-3.646-3.436-5.96C455.877,1143.601,455.491,1141.042,455.491,1138.237z M479.612,1138.237
		c0-2.991-0.503-5.282-1.508-6.872c-1.006-1.589-2.536-2.384-4.593-2.384c-2.058,0-3.576,0.795-4.558,2.384
		c-0.981,1.59-1.473,3.881-1.473,6.872c0,2.944,0.491,5.213,1.473,6.801c0.981,1.59,2.5,2.385,4.558,2.385
		c2.057,0,3.587-0.795,4.593-2.385C479.109,1143.45,479.612,1141.182,479.612,1138.237z"/>
	<path fill="#2C0133" d="M497.702,1120.076c2.196-0.281,4.476-0.515,6.837-0.701c2.359-0.187,4.593-0.281,6.696-0.281
		c5.655,0,9.897,1.064,12.727,3.19c2.828,2.128,4.242,5.108,4.242,8.94c0,1.45-0.164,2.712-0.491,3.787s-0.725,1.998-1.191,2.77
		c-0.468,0.771-0.959,1.392-1.473,1.858c-0.515,0.468-0.936,0.841-1.262,1.121l7.993,15.286c-0.936,0.187-1.976,0.327-3.12,0.421
		c-1.146,0.094-2.256,0.141-3.331,0.141c-1.309,0-2.571-0.047-3.786-0.141c-1.216-0.094-2.221-0.234-3.016-0.421l-7.783-16.548
		l0.981-0.561c1.637-0.935,2.758-1.929,3.366-2.98c0.607-1.052,0.911-2.185,0.911-3.401c0-1.215-0.362-2.208-1.086-2.979
		c-0.726-0.771-1.883-1.157-3.472-1.157c-0.889,0-1.566,0.047-2.033,0.141v27.557c-1.216,0.233-2.313,0.386-3.296,0.456
		c-0.981,0.07-1.847,0.105-2.594,0.105c-0.796,0-1.66-0.035-2.595-0.105c-0.936-0.07-2.011-0.223-3.226-0.456V1120.076z"/>
	<path fill="#2C0133" d="M548.049,1156.117c-1.217,0.187-2.314,0.327-3.296,0.421c-0.981,0.093-1.87,0.141-2.665,0.141
		s-1.683-0.048-2.664-0.141c-0.981-0.094-2.058-0.234-3.226-0.421v-36.182c1.027-0.233,2.044-0.396,3.05-0.491
		c1.005-0.093,1.975-0.14,2.91-0.14c0.888,0,1.847,0.047,2.875,0.14c1.027,0.095,2.033,0.258,3.016,0.491V1156.117z"/>
	<path fill="#2C0133" d="M566.068,1141.813c0.515,1.918,1.414,3.273,2.7,4.067c1.285,0.796,2.979,1.192,5.083,1.192
		c1.355,0,2.875-0.164,4.559-0.491c1.683-0.326,3.341-0.817,4.979-1.473c0.653,1.217,1.227,2.665,1.718,4.348
		c0.49,1.683,0.759,3.436,0.806,5.259c-4.161,1.543-8.414,2.314-12.762,2.314c-3.365,0-6.252-0.468-8.659-1.402
		c-2.408-0.935-4.372-2.232-5.891-3.892c-1.52-1.659-2.642-3.635-3.365-5.926c-0.726-2.29-1.087-4.791-1.087-7.503
		c0-2.664,0.373-5.164,1.122-7.503c0.747-2.337,1.869-4.37,3.365-6.1s3.366-3.097,5.609-4.103c2.244-1.005,4.861-1.508,7.854-1.508
		c2.478,0,4.687,0.421,6.627,1.263c1.939,0.841,3.587,1.998,4.943,3.471c1.355,1.473,2.395,3.25,3.12,5.329
		c0.725,2.081,1.087,4.337,1.087,6.767c0,1.262-0.06,2.396-0.176,3.4c-0.117,1.006-0.222,1.836-0.315,2.489H566.068z
		 M571.679,1127.999c-1.497,0-2.782,0.468-3.857,1.402c-1.075,0.936-1.707,2.385-1.893,4.348h11.219
		c-0.094-1.636-0.596-3.003-1.508-4.102C574.729,1128.55,573.407,1127.999,571.679,1127.999z"/>
	<path fill="#2C0133" d="M611.085,1133.469c1.402,0.375,2.676,0.83,3.821,1.367c1.145,0.538,2.127,1.228,2.945,2.068
		c0.817,0.842,1.46,1.87,1.928,3.086c0.467,1.216,0.701,2.688,0.701,4.417c0,1.777-0.362,3.436-1.087,4.979s-1.8,2.875-3.225,3.997
		c-1.427,1.122-3.18,2.011-5.26,2.664c-2.08,0.654-4.477,0.982-7.187,0.982c-2.244,0-4.325-0.165-6.241-0.491
		c-1.917-0.327-3.951-0.888-6.101-1.683c0.233-3.179,1.098-6.404,2.595-9.677c1.495,0.701,3.062,1.228,4.698,1.578
		c1.636,0.351,3.271,0.525,4.908,0.525c0.561,0,1.145-0.023,1.753-0.07c0.607-0.046,1.145-0.151,1.612-0.315
		c0.467-0.163,0.853-0.386,1.157-0.666c0.304-0.28,0.456-0.654,0.456-1.122c0-0.606-0.305-1.063-0.912-1.367
		c-0.607-0.304-1.309-0.572-2.104-0.807l-4.768-1.332c-2.479-0.701-4.535-1.894-6.171-3.576c-1.637-1.683-2.454-3.973-2.454-6.872
		c0-1.822,0.374-3.481,1.122-4.979c0.747-1.495,1.799-2.77,3.155-3.821c1.355-1.052,2.956-1.858,4.804-2.419
		c1.846-0.561,3.892-0.842,6.135-0.842c1.776,0,3.717,0.188,5.82,0.562s4.183,0.911,6.24,1.612
		c-0.094,1.497-0.397,3.098-0.911,4.804c-0.515,1.707-1.099,3.214-1.753,4.522c-1.263-0.514-2.782-0.981-4.558-1.402
		c-1.777-0.421-3.413-0.631-4.909-0.631c-2.197,0-3.295,0.607-3.295,1.823c0,0.515,0.256,0.911,0.771,1.191
		c0.514,0.28,1.098,0.516,1.753,0.701L611.085,1133.469z"/>
	<path fill="#2C0133" d="M677.065,1140.831l4.348-20.896c0.374-0.093,1.098-0.187,2.174-0.28c1.075-0.094,2.22-0.141,3.436-0.141
		c1.543,0,2.91,0.047,4.103,0.141c1.191,0.094,2.044,0.188,2.56,0.28l-11.36,36.111c-0.795,0.233-1.659,0.386-2.594,0.456
		c-0.936,0.07-1.87,0.105-2.805,0.105c-0.936,0-1.883-0.035-2.84-0.105c-0.959-0.07-1.953-0.223-2.98-0.456l-5.119-19.633
		c-0.888,3.132-1.788,6.428-2.699,9.887c-0.911,3.46-1.788,6.708-2.63,9.746c-0.981,0.233-1.952,0.386-2.909,0.456
		c-0.959,0.07-1.905,0.105-2.84,0.105c-0.936,0-1.87-0.035-2.805-0.105c-0.937-0.07-1.801-0.223-2.595-0.456l-11.009-36.111
		c0.514-0.093,1.413-0.187,2.699-0.28c1.285-0.094,2.7-0.141,4.242-0.141c1.215,0,2.396,0.047,3.541,0.141s1.904,0.188,2.279,0.28
		l4.558,21.457l5.049-21.457c0.794-0.233,1.671-0.386,2.629-0.456s1.904-0.104,2.84-0.104c0.935,0,1.882,0.034,2.84,0.104
		s1.929,0.223,2.91,0.456L677.065,1140.831z"/>
	<path fill="#2C0133" d="M707.146,1141.813c0.515,1.918,1.414,3.273,2.7,4.067c1.285,0.796,2.979,1.192,5.083,1.192
		c1.355,0,2.875-0.164,4.559-0.491c1.683-0.326,3.341-0.817,4.979-1.473c0.653,1.217,1.227,2.665,1.718,4.348
		c0.49,1.683,0.759,3.436,0.806,5.259c-4.161,1.543-8.414,2.314-12.762,2.314c-3.365,0-6.252-0.468-8.659-1.402
		c-2.408-0.935-4.372-2.232-5.891-3.892c-1.52-1.659-2.642-3.635-3.365-5.926c-0.726-2.29-1.087-4.791-1.087-7.503
		c0-2.664,0.373-5.164,1.122-7.503c0.747-2.337,1.869-4.37,3.365-6.1s3.366-3.097,5.609-4.103c2.244-1.005,4.861-1.508,7.854-1.508
		c2.478,0,4.687,0.421,6.627,1.263c1.939,0.841,3.587,1.998,4.943,3.471c1.355,1.473,2.395,3.25,3.12,5.329
		c0.725,2.081,1.087,4.337,1.087,6.767c0,1.262-0.06,2.396-0.176,3.4c-0.117,1.006-0.222,1.836-0.315,2.489H707.146z
		 M712.757,1127.999c-1.497,0-2.782,0.468-3.857,1.402c-1.075,0.936-1.707,2.385-1.893,4.348h11.219
		c-0.094-1.636-0.596-3.003-1.508-4.102C715.807,1128.55,714.485,1127.999,712.757,1127.999z"/>
	<path fill="#2C0133" d="M778.949,1119.936c0.373-0.093,1.145-0.187,2.313-0.28c1.168-0.094,2.36-0.141,3.576-0.141
		c1.543,0,2.98,0.047,4.313,0.141s2.255,0.188,2.77,0.28l-13.743,36.111c-0.981,0.233-1.976,0.386-2.98,0.456
		c-1.006,0.07-1.975,0.105-2.909,0.105c-0.937,0-1.894-0.035-2.875-0.105c-0.982-0.07-1.87-0.223-2.665-0.456l-13.463-36.111
		c0.514-0.093,1.438-0.187,2.77-0.28s2.77-0.141,4.313-0.141c1.215,0,2.43,0.047,3.646,0.141c1.215,0.094,2.009,0.188,2.384,0.28
		l6.381,21.737c1.075-3.6,2.114-7.245,3.12-10.938C776.903,1127.042,777.92,1123.441,778.949,1119.936z"/>
	<path fill="#2C0133" d="M805.313,1141.813c0.515,1.918,1.414,3.273,2.7,4.067c1.285,0.796,2.979,1.192,5.083,1.192
		c1.355,0,2.875-0.164,4.559-0.491c1.683-0.326,3.341-0.817,4.979-1.473c0.653,1.217,1.227,2.665,1.718,4.348
		c0.49,1.683,0.759,3.436,0.806,5.259c-4.161,1.543-8.414,2.314-12.762,2.314c-3.365,0-6.252-0.468-8.659-1.402
		c-2.408-0.935-4.372-2.232-5.891-3.892c-1.52-1.659-2.642-3.635-3.365-5.926c-0.726-2.29-1.087-4.791-1.087-7.503
		c0-2.664,0.373-5.164,1.122-7.503c0.747-2.337,1.869-4.37,3.365-6.1s3.366-3.097,5.609-4.103c2.244-1.005,4.861-1.508,7.854-1.508
		c2.478,0,4.687,0.421,6.627,1.263c1.939,0.841,3.587,1.998,4.943,3.471c1.355,1.473,2.395,3.25,3.12,5.329
		c0.725,2.081,1.087,4.337,1.087,6.767c0,1.262-0.06,2.396-0.176,3.4c-0.117,1.006-0.222,1.836-0.315,2.489H805.313z
		 M810.923,1127.999c-1.497,0-2.782,0.468-3.857,1.402c-1.075,0.936-1.707,2.385-1.893,4.348h11.219
		c-0.094-1.636-0.596-3.003-1.508-4.102C813.973,1128.55,812.651,1127.999,810.923,1127.999z"/>
	<path fill="#2C0133" d="M744.802,1124.634c-1.029,0.234-1.999,0.386-2.91,0.456c-0.912,0.069-1.788,0.104-2.63,0.104
		c-0.981,0-1.998-0.058-3.05-0.175c-1.052-0.116-1.929-0.246-2.63-0.386l4.838-18.723c1.028-0.232,1.999-0.385,2.91-0.455
		c0.912-0.07,1.741-0.105,2.489-0.105c0.795,0,1.741,0.035,2.84,0.105c1.098,0.07,2.255,0.223,3.472,0.455L744.802,1124.634z"/>
</g>
<g id="fill-line5">
	<path fill="#24012C" d="M126.423,1203.378c1.916,0,3.81,0.152,5.68,0.456c1.869,0.305,3.599,0.923,5.189,1.857
		c1.215-0.606,2.64-1.145,4.277-1.612c1.636-0.467,3.481-0.701,5.539-0.701c1.823,0,3.705,0.175,5.645,0.526
		c1.939,0.351,3.692,1.086,5.259,2.208c1.565,1.122,2.851,2.735,3.856,4.839c1.005,2.104,1.508,4.885,1.508,8.344v20.966
		c-1.216,0.233-2.314,0.386-3.296,0.456c-0.981,0.07-1.847,0.105-2.594,0.105c-0.795,0-1.683-0.035-2.665-0.105
		s-2.081-0.223-3.295-0.456v-19.703c0-2.478-0.421-4.254-1.262-5.329c-0.842-1.075-2.221-1.613-4.137-1.613
		c-0.655,0-1.297,0.07-1.928,0.211c-0.631,0.14-1.064,0.257-1.297,0.351c0.421,1.637,0.631,3.506,0.631,5.609v20.475
		c-1.216,0.233-2.314,0.386-3.296,0.456c-0.981,0.07-1.847,0.105-2.594,0.105c-0.795,0-1.683-0.035-2.665-0.105
		c-0.982-0.07-2.081-0.223-3.296-0.456v-19.703c0-2.478-0.397-4.254-1.192-5.329c-0.795-1.075-2.151-1.613-4.067-1.613
		c-0.515,0-1.064,0.047-1.648,0.141c-0.585,0.094-0.947,0.188-1.087,0.28v26.225c-1.216,0.233-2.314,0.386-3.295,0.456
		c-0.982,0.07-1.847,0.105-2.595,0.105c-0.795,0-1.683-0.035-2.665-0.105c-0.981-0.07-2.081-0.223-3.295-0.456v-34.429
		c1.636-0.561,3.599-1.109,5.89-1.647C120.018,1203.647,122.917,1203.378,126.423,1203.378z"/>
	<path fill="#24012C" d="M169.056,1228.48c0-2.289,0.491-4.183,1.473-5.68c0.981-1.495,2.244-2.688,3.787-3.576
		c1.542-0.887,3.249-1.507,5.119-1.857c1.869-0.351,3.692-0.526,5.469-0.526h4.277c-0.047-0.842-0.281-1.543-0.701-2.104
		c-0.421-0.561-0.959-0.992-1.613-1.297c-0.655-0.304-1.379-0.515-2.174-0.632c-0.795-0.115-1.613-0.175-2.454-0.175
		c-1.122,0-2.431,0.129-3.927,0.386c-1.497,0.258-3.039,0.666-4.628,1.227c-0.421-0.794-0.783-1.519-1.087-2.173
		c-0.305-0.654-0.538-1.32-0.701-1.999c-0.164-0.677-0.28-1.378-0.351-2.104c-0.07-0.725-0.105-1.554-0.105-2.489
		c2.244-0.747,4.476-1.308,6.696-1.683c2.22-0.374,4.218-0.562,5.995-0.562c2.43,0,4.628,0.293,6.591,0.877
		c1.963,0.585,3.634,1.484,5.014,2.699c1.378,1.217,2.442,2.771,3.19,4.663c0.747,1.894,1.122,4.149,1.122,6.767v20.545
		c-1.777,0.516-3.927,1.029-6.451,1.543s-5.189,0.771-7.994,0.771c-2.431,0-4.663-0.223-6.696-0.666
		c-2.034-0.444-3.776-1.157-5.224-2.139c-1.449-0.982-2.583-2.279-3.401-3.892C169.464,1232.793,169.056,1230.819,169.056,1228.48z
		 M185.604,1232.407c0.421,0,1.028-0.046,1.823-0.14c0.794-0.094,1.378-0.187,1.753-0.281v-7.713h-3.997
		c-1.637,0-3.015,0.351-4.137,1.052c-1.122,0.701-1.683,1.683-1.683,2.945c0,0.936,0.21,1.672,0.631,2.209
		c0.42,0.538,0.946,0.946,1.578,1.227c0.631,0.28,1.308,0.468,2.033,0.562C184.33,1232.361,184.996,1232.407,185.604,1232.407z"/>
	<path fill="#24012C" d="M219.962,1203.237c3.787,0,7.023,0.445,9.711,1.333c2.688,0.889,4.896,2.139,6.626,3.751
		c1.729,1.613,2.991,3.565,3.787,5.855c0.794,2.291,1.192,4.838,1.192,7.643c0,2.945-0.41,5.609-1.227,7.994
		c-0.818,2.384-2.104,4.417-3.856,6.1c-1.753,1.684-4.021,2.98-6.802,3.892c-2.782,0.912-6.136,1.368-10.062,1.368
		c-2.291,0-4.336-0.083-6.136-0.246c-1.8-0.164-3.681-0.386-5.645-0.666v-36.041c1.963-0.233,4.043-0.456,6.241-0.667
		C215.989,1203.343,218.045,1203.237,219.962,1203.237z M219.401,1231.146c0.187,0,0.432,0.024,0.736,0.07
		c0.304,0.047,0.759,0.069,1.367,0.069c2.618,0,4.569-0.735,5.855-2.208c1.285-1.473,1.929-3.892,1.929-7.258
		c0-2.991-0.631-5.177-1.894-6.556s-3.062-2.069-5.399-2.069c-0.561,0-1.076,0.024-1.543,0.07c-0.468,0.047-0.818,0.095-1.052,0.141
		V1231.146z"/>
	<path fill="#24012C" d="M257.546,1225.956c0.514,1.918,1.413,3.273,2.699,4.067c1.286,0.796,2.98,1.192,5.084,1.192
		c1.355,0,2.875-0.164,4.558-0.491c1.683-0.326,3.342-0.817,4.979-1.473c0.654,1.217,1.227,2.665,1.718,4.348
		c0.491,1.683,0.759,3.436,0.806,5.259c-4.161,1.543-8.415,2.314-12.762,2.314c-3.366,0-6.253-0.468-8.66-1.402
		c-2.408-0.935-4.372-2.232-5.89-3.892c-1.52-1.659-2.642-3.635-3.366-5.926c-0.726-2.29-1.087-4.791-1.087-7.503
		c0-2.664,0.374-5.164,1.122-7.503c0.748-2.337,1.869-4.37,3.366-6.1c1.495-1.729,3.366-3.097,5.609-4.103
		c2.244-1.005,4.861-1.508,7.854-1.508c2.477,0,4.686,0.421,6.626,1.263c1.939,0.841,3.587,1.998,4.944,3.471
		c1.355,1.473,2.395,3.25,3.12,5.329c0.724,2.081,1.087,4.337,1.087,6.767c0,1.262-0.059,2.396-0.175,3.4
		c-0.117,1.006-0.223,1.836-0.315,2.489H257.546z M263.156,1212.143c-1.497,0-2.782,0.468-3.856,1.402
		c-1.076,0.936-1.707,2.385-1.894,4.348h11.219c-0.094-1.636-0.596-3.003-1.507-4.102
		C266.206,1212.693,264.885,1212.143,263.156,1212.143z"/>
	<path fill="#24012C" d="M298.705,1228.48c0-2.289,0.491-4.183,1.473-5.68c0.981-1.495,2.244-2.688,3.787-3.576
		c1.542-0.887,3.249-1.507,5.119-1.857c1.869-0.351,3.692-0.526,5.469-0.526h4.277c-0.047-0.842-0.281-1.543-0.701-2.104
		c-0.421-0.561-0.959-0.992-1.613-1.297c-0.655-0.304-1.379-0.515-2.174-0.632c-0.795-0.115-1.613-0.175-2.454-0.175
		c-1.122,0-2.431,0.129-3.927,0.386c-1.497,0.258-3.039,0.666-4.628,1.227c-0.421-0.794-0.783-1.519-1.087-2.173
		c-0.305-0.654-0.538-1.32-0.701-1.999c-0.164-0.677-0.28-1.378-0.351-2.104c-0.07-0.725-0.105-1.554-0.105-2.489
		c2.244-0.747,4.476-1.308,6.696-1.683c2.22-0.374,4.218-0.562,5.995-0.562c2.43,0,4.628,0.293,6.591,0.877
		c1.963,0.585,3.634,1.484,5.014,2.699c1.378,1.217,2.442,2.771,3.19,4.663c0.747,1.894,1.122,4.149,1.122,6.767v20.545
		c-1.777,0.516-3.927,1.029-6.451,1.543s-5.189,0.771-7.994,0.771c-2.431,0-4.663-0.223-6.696-0.666
		c-2.034-0.444-3.776-1.157-5.224-2.139c-1.449-0.982-2.583-2.279-3.401-3.892C299.114,1232.793,298.705,1230.819,298.705,1228.48z
		 M315.253,1232.407c0.421,0,1.028-0.046,1.823-0.14c0.794-0.094,1.378-0.187,1.753-0.281v-7.713h-3.997
		c-1.637,0-3.015,0.351-4.137,1.052c-1.122,0.701-1.683,1.683-1.683,2.945c0,0.936,0.21,1.672,0.631,2.209
		c0.42,0.538,0.946,0.946,1.578,1.227c0.631,0.28,1.308,0.468,2.033,0.562C313.979,1232.361,314.646,1232.407,315.253,1232.407z"/>
	<path fill="#24012C" d="M349.051,1230.444h13.253c0.233,0.936,0.385,1.8,0.456,2.595s0.105,1.566,0.105,2.313
		c0,0.748-0.035,1.531-0.105,2.349c-0.07,0.818-0.222,1.695-0.456,2.63h-25.103l0.07-36.252c1.027-0.233,2.044-0.396,3.05-0.491
		c1.005-0.093,1.975-0.14,2.91-0.14c0.887,0,1.846,0.047,2.875,0.14c1.027,0.095,2.033,0.258,3.015,0.491L349.051,1230.444z"/>
	<path fill="#24012C" d="M365.389,1222.381c0-2.852,0.386-5.458,1.157-7.818c0.771-2.36,1.917-4.383,3.436-6.065
		c1.519-1.684,3.401-2.98,5.645-3.892c2.244-0.912,4.838-1.368,7.783-1.368c2.991,0,5.61,0.456,7.854,1.368
		c2.244,0.911,4.125,2.208,5.645,3.892c1.519,1.683,2.665,3.705,3.436,6.065s1.157,4.967,1.157,7.818
		c0,2.805-0.386,5.363-1.157,7.678c-0.771,2.313-1.917,4.302-3.436,5.96c-1.52,1.66-3.4,2.935-5.645,3.821
		c-2.244,0.888-4.862,1.333-7.854,1.333c-2.945,0-5.539-0.445-7.783-1.333c-2.244-0.887-4.126-2.161-5.645-3.821
		c-1.52-1.658-2.665-3.646-3.436-5.96C365.774,1227.744,365.389,1225.186,365.389,1222.381z M389.51,1222.381
		c0-2.991-0.503-5.282-1.508-6.872c-1.005-1.589-2.536-2.384-4.593-2.384c-2.058,0-3.576,0.795-4.558,2.384
		c-0.981,1.59-1.473,3.881-1.473,6.872c0,2.944,0.491,5.213,1.473,6.801c0.981,1.59,2.5,2.385,4.558,2.385
		c2.057,0,3.587-0.795,4.593-2.385C389.007,1227.594,389.51,1225.325,389.51,1222.381z"/>
	<path fill="#24012C" d="M422.326,1203.378c2.057,0,4.113,0.175,6.17,0.526c2.057,0.351,3.915,1.086,5.574,2.208
		s3.016,2.735,4.067,4.839s1.578,4.885,1.578,8.344v20.966c-1.217,0.233-2.314,0.386-3.296,0.456s-1.848,0.105-2.595,0.105
		c-0.795,0-1.683-0.035-2.665-0.105c-0.981-0.07-2.081-0.223-3.295-0.456v-19.703c0-2.478-0.468-4.254-1.402-5.329
		c-0.936-1.075-2.361-1.613-4.277-1.613c-0.515,0-1.064,0.047-1.648,0.141c-0.585,0.094-0.947,0.188-1.087,0.28v26.225
		c-1.216,0.233-2.314,0.386-3.295,0.456c-0.982,0.07-1.847,0.105-2.595,0.105c-0.795,0-1.683-0.035-2.665-0.105
		c-0.981-0.07-2.081-0.223-3.295-0.456v-34.429c1.636-0.561,3.622-1.109,5.96-1.647
		C415.897,1203.647,418.82,1203.378,422.326,1203.378z"/>
	<path fill="#24012C" d="M464.116,1241.173c-3.365,0-6.229-0.503-8.589-1.508c-2.361-1.005-4.29-2.372-5.785-4.103
		c-1.497-1.729-2.584-3.762-3.261-6.1c-0.678-2.337-1.017-4.839-1.017-7.503c0-2.57,0.408-5.002,1.227-7.293
		c0.817-2.29,2.034-4.277,3.646-5.96c1.613-1.683,3.611-3.016,5.995-3.997c2.385-0.981,5.142-1.473,8.274-1.473
		c1.636,0,3.436,0.188,5.399,0.562c1.963,0.375,4.112,1.028,6.451,1.963c-0.048,0.796-0.141,1.543-0.281,2.244
		c-0.14,0.701-0.315,1.414-0.525,2.139c-0.21,0.726-0.468,1.496-0.771,2.313c-0.305,0.819-0.666,1.742-1.087,2.771
		c-1.59-0.654-3.063-1.133-4.417-1.438c-1.356-0.304-2.524-0.456-3.507-0.456c-1.542,0-2.852,0.234-3.926,0.701
		c-1.076,0.468-1.94,1.099-2.595,1.894c-0.655,0.795-1.134,1.718-1.438,2.77c-0.305,1.052-0.456,2.139-0.456,3.261
		c0,3.132,0.677,5.434,2.033,6.906c1.355,1.473,3.342,2.209,5.961,2.209h1.262v-10.308c1.168-0.233,2.209-0.396,3.12-0.491
		c0.912-0.093,1.788-0.14,2.63-0.14c1.636,0,3.576,0.21,5.82,0.631v17.811c-1.356,0.515-3.25,1.076-5.68,1.683
		C470.17,1240.868,467.342,1241.173,464.116,1241.173z"/>
	<path fill="#24012C" d="M508.29,1213.966h-10.378c-0.234-0.935-0.385-1.811-0.455-2.629c-0.07-0.817-0.105-1.602-0.105-2.35
		c0-0.747,0.035-1.519,0.105-2.313s0.221-1.659,0.455-2.595h32.606c0.233,0.936,0.386,1.8,0.455,2.595
		c0.07,0.795,0.105,1.566,0.105,2.313c0,0.748-0.035,1.532-0.105,2.35c-0.069,0.818-0.222,1.694-0.455,2.629h-10.378v26.295
		c-1.216,0.187-2.314,0.327-3.296,0.421c-0.981,0.093-1.87,0.141-2.664,0.141c-0.796,0-1.684-0.048-2.665-0.141
		c-0.981-0.094-2.058-0.234-3.226-0.421V1213.966z"/>
	<path fill="#24012C" d="M558.284,1226.938h-10.377v13.322c-1.217,0.187-2.314,0.327-3.296,0.421
		c-0.981,0.093-1.87,0.141-2.665,0.141s-1.683-0.048-2.664-0.141c-0.981-0.094-2.058-0.234-3.226-0.421v-36.182
		c1.027-0.233,2.044-0.396,3.05-0.491c1.005-0.093,1.975-0.14,2.91-0.14c0.888,0,1.847,0.047,2.875,0.14
		c1.027,0.095,2.033,0.258,3.016,0.491v12.341h10.377v-12.341c1.028-0.233,2.045-0.396,3.051-0.491
		c1.005-0.093,1.975-0.14,2.91-0.14c0.887,0,1.846,0.047,2.875,0.14c1.027,0.095,2.033,0.258,3.015,0.491v36.182
		c-1.216,0.187-2.313,0.327-3.296,0.421c-0.981,0.093-1.87,0.141-2.664,0.141c-0.796,0-1.683-0.048-2.665-0.141
		c-0.981-0.094-2.058-0.234-3.226-0.421V1226.938z"/>
	<path fill="#24012C" d="M588.155,1225.956c0.515,1.918,1.414,3.273,2.7,4.067c1.285,0.796,2.979,1.192,5.083,1.192
		c1.355,0,2.875-0.164,4.559-0.491c1.683-0.326,3.341-0.817,4.979-1.473c0.653,1.217,1.227,2.665,1.718,4.348
		c0.49,1.683,0.759,3.436,0.806,5.259c-4.161,1.543-8.414,2.314-12.762,2.314c-3.365,0-6.252-0.468-8.659-1.402
		c-2.408-0.935-4.372-2.232-5.891-3.892c-1.52-1.659-2.642-3.635-3.365-5.926c-0.726-2.29-1.087-4.791-1.087-7.503
		c0-2.664,0.373-5.164,1.122-7.503c0.747-2.337,1.869-4.37,3.365-6.1s3.366-3.097,5.609-4.103c2.244-1.005,4.861-1.508,7.854-1.508
		c2.478,0,4.687,0.421,6.627,1.263c1.939,0.841,3.587,1.998,4.943,3.471c1.355,1.473,2.395,3.25,3.12,5.329
		c0.725,2.081,1.087,4.337,1.087,6.767c0,1.262-0.06,2.396-0.176,3.4c-0.117,1.006-0.222,1.836-0.315,2.489H588.155z
		 M593.766,1212.143c-1.497,0-2.782,0.468-3.857,1.402c-1.075,0.936-1.707,2.385-1.893,4.348h11.219
		c-0.094-1.636-0.596-3.003-1.508-4.102C596.815,1212.693,595.494,1212.143,593.766,1212.143z"/>
	<path fill="#24012C" d="M666.197,1224.975l4.348-20.896c0.374-0.093,1.098-0.187,2.174-0.28c1.075-0.094,2.22-0.141,3.436-0.141
		c1.543,0,2.91,0.047,4.103,0.141c1.191,0.094,2.044,0.188,2.56,0.28l-11.36,36.111c-0.795,0.233-1.659,0.386-2.594,0.456
		c-0.936,0.07-1.87,0.105-2.805,0.105c-0.936,0-1.883-0.035-2.84-0.105c-0.959-0.07-1.953-0.223-2.98-0.456l-5.119-19.633
		c-0.888,3.132-1.788,6.428-2.699,9.887c-0.911,3.46-1.788,6.708-2.63,9.746c-0.981,0.233-1.952,0.386-2.909,0.456
		c-0.959,0.07-1.905,0.105-2.84,0.105c-0.936,0-1.87-0.035-2.805-0.105c-0.937-0.07-1.801-0.223-2.595-0.456l-11.009-36.111
		c0.514-0.093,1.413-0.187,2.699-0.28c1.285-0.094,2.7-0.141,4.242-0.141c1.215,0,2.396,0.047,3.541,0.141s1.904,0.188,2.279,0.28
		l4.558,21.457l5.049-21.457c0.794-0.233,1.671-0.386,2.629-0.456s1.904-0.104,2.84-0.104c0.935,0,1.882,0.034,2.84,0.104
		s1.929,0.223,2.91,0.456L666.197,1224.975z"/>
	<path fill="#24012C" d="M684.639,1228.48c0-2.289,0.491-4.183,1.473-5.68c0.981-1.495,2.244-2.688,3.786-3.576
		c1.543-0.887,3.249-1.507,5.119-1.857c1.869-0.351,3.692-0.526,5.469-0.526h4.277c-0.047-0.842-0.28-1.543-0.701-2.104
		c-0.42-0.561-0.958-0.992-1.612-1.297c-0.655-0.304-1.38-0.515-2.174-0.632c-0.795-0.115-1.612-0.175-2.454-0.175
		c-1.122,0-2.432,0.129-3.927,0.386c-1.497,0.258-3.039,0.666-4.628,1.227c-0.421-0.794-0.783-1.519-1.087-2.173
		c-0.305-0.654-0.538-1.32-0.701-1.999c-0.164-0.677-0.28-1.378-0.351-2.104c-0.07-0.725-0.105-1.554-0.105-2.489
		c2.244-0.747,4.476-1.308,6.697-1.683c2.22-0.374,4.218-0.562,5.995-0.562c2.43,0,4.628,0.293,6.591,0.877
		c1.964,0.585,3.635,1.484,5.014,2.699c1.378,1.217,2.442,2.771,3.19,4.663c0.747,1.894,1.122,4.149,1.122,6.767v20.545
		c-1.777,0.516-3.927,1.029-6.451,1.543s-5.188,0.771-7.993,0.771c-2.432,0-4.663-0.223-6.697-0.666
		c-2.033-0.444-3.775-1.157-5.224-2.139c-1.449-0.982-2.583-2.279-3.4-3.892C685.048,1232.793,684.639,1230.819,684.639,1228.48z
		 M701.188,1232.407c0.42,0,1.027-0.046,1.822-0.14s1.379-0.187,1.753-0.281v-7.713h-3.996c-1.637,0-3.016,0.351-4.138,1.052
		s-1.683,1.683-1.683,2.945c0,0.936,0.21,1.672,0.631,2.209c0.421,0.538,0.947,0.946,1.578,1.227s1.308,0.468,2.033,0.562
		C699.913,1232.361,700.579,1232.407,701.188,1232.407z"/>
	<path fill="#24012C" d="M743.469,1204.079c0.374-0.093,1.087-0.187,2.139-0.28s2.185-0.141,3.401-0.141
		c1.542,0,2.921,0.047,4.137,0.141c1.215,0.094,2.079,0.188,2.595,0.28l-13.533,23.49v12.691c-1.217,0.187-2.314,0.327-3.296,0.421
		c-0.981,0.093-1.87,0.141-2.664,0.141c-0.796,0-1.684-0.048-2.665-0.141c-0.981-0.094-2.058-0.234-3.226-0.421v-12.691
		l-13.463-23.49c0.514-0.093,1.413-0.187,2.699-0.28c1.285-0.094,2.7-0.141,4.242-0.141c1.216,0,2.407,0.047,3.576,0.141
		c1.168,0.094,1.939,0.188,2.314,0.28l6.872,13.813L743.469,1204.079z"/>
</g>
</svg>
