<?xml version="1.0" encoding="utf-8"?>
<!-- Generator: Adobe Illustrator 20.1.0, SVG Export Plug-In . SVG Version: 6.00 Build 0)  -->
<svg version="1.1" id="Layer_1" xmlns="http://www.w3.org/2000/svg" xmlns:xlink="http://www.w3.org/1999/xlink" x="0px" y="0px"
	 viewBox="0 0 720 576" style="enable-background:new 0 0 720 576;" xml:space="preserve">
<style type="text/css">
	.st0{fill:#DBDBDB;}
	.st1{fill:#FFFFFF;}
</style>
<rect id="photo" class="st0" width="720" height="576"/>
<g id="filltext">
	<g>
		<path class="st1" d="M31.2,66.1V48.9h-2.3c-1,0-1.9-0.9-1.9-1.9c0-1,0.9-1.9,1.9-1.9h2.3v-6.7c0-1.2,0.9-2.2,2.1-2.2
			c1.2,0,2.2,1,2.2,2.2v6.7h7.4c1,0,1.9,0.9,1.9,1.9c0,1-0.9,1.9-1.9,1.9h-7.4v16.7c0,3.5,1.9,4.7,4.8,4.7c1.5,0,2.3-0.4,2.6-0.4
			c1,0,1.8,0.8,1.8,1.8c0,0.8-0.5,1.4-1.2,1.7c-1.2,0.5-2.5,0.8-4.2,0.8C34.7,74.1,31.2,71.9,31.2,66.1z"/>
		<path class="st1" d="M52,35.2c0-1.2,0.9-2.2,2.1-2.2c1.2,0,2.2,1,2.2,2.2v14.8c1.9-3.1,4.9-5.6,9.8-5.6C73,44.5,77,49.1,77,55.9
			v15.8c0,1.2-0.9,2.2-2.1,2.2c-1.2,0-2.2-0.9-2.2-2.2V57c0-5.3-2.9-8.6-7.9-8.6c-4.9,0-8.6,3.6-8.6,8.9v14.5c0,1.2-0.9,2.2-2.1,2.2
			S52,73,52,71.8V35.2z"/>
		<path class="st1" d="M98.5,74.3c-7.8,0-14.2-6-14.2-14.8v-0.1c0-8.2,5.8-14.8,13.7-14.8c8.4,0,13.2,6.9,13.2,14.5c0,1.2-0.9,2-2,2
			H88.6c0.6,6.2,5,9.7,10,9.7c3.5,0,6.1-1.4,8.2-3.3c0.3-0.3,0.7-0.5,1.2-0.5c1,0,1.9,0.8,1.9,1.8c0,0.5-0.2,1-0.7,1.4
			C106.6,72.6,103.4,74.3,98.5,74.3z M106.9,57.8c-0.4-5.2-3.4-9.7-9.1-9.7c-5,0-8.7,4.1-9.3,9.7H106.9z"/>
		<path class="st1" d="M29.7,101.5c0-1.2,0.9-2.2,2.1-2.2c1.2,0,2.2,0.9,2.2,2.2v15.6c2.3-3.4,5.7-6.3,10.9-6.3
			c6.8,0,13.6,5.4,13.6,14.8v0.1c0,9.3-6.7,14.8-13.6,14.8c-5.3,0-8.7-2.9-10.9-6.1v3.6c0,1.2-0.9,2.2-2.1,2.2s-2.2-1-2.2-2.2V101.5
			z M54.2,125.7v-0.1c0-6.7-4.6-11-10-11c-5.3,0-10.3,4.5-10.3,11v0.1c0,6.6,5,11,10.3,11C49.7,136.7,54.2,132.6,54.2,125.7z"/>
		<path class="st1" d="M78.9,140.5c-7.8,0-14.2-6-14.2-14.8v-0.1c0-8.2,5.8-14.8,13.7-14.8c8.4,0,13.2,6.9,13.2,14.5
			c0,1.2-0.9,2-2,2H68.9c0.6,6.2,5,9.7,10,9.7c3.5,0,6.1-1.4,8.2-3.3c0.3-0.3,0.7-0.5,1.2-0.5c1,0,1.9,0.8,1.9,1.8
			c0,0.5-0.2,1-0.7,1.4C86.9,138.8,83.7,140.5,78.9,140.5z M87.3,124c-0.4-5.2-3.4-9.7-9.1-9.7c-5,0-8.7,4.1-9.3,9.7H87.3z"/>
		<path class="st1" d="M97.5,136.8c-0.4-0.3-0.8-0.8-0.8-1.5c0-1,0.8-1.8,1.9-1.8c0.4,0,0.8,0.1,1,0.3c2.9,2,6,3,9,3
			c3.4,0,5.9-1.8,5.9-4.5v-0.1c0-2.9-3.4-4-7.1-5c-4.5-1.3-9.4-2.8-9.4-8.1V119c0-4.9,4.1-8.2,9.7-8.2c3,0,6.3,0.9,9.1,2.4
			c0.6,0.3,1,0.9,1,1.8c0,1-0.8,1.8-1.9,1.8c-0.4,0-0.7-0.1-0.9-0.2c-2.4-1.4-5-2.2-7.4-2.2c-3.4,0-5.5,1.8-5.5,4.1v0.1
			c0,2.7,3.5,3.8,7.3,4.9c4.4,1.3,9.2,3,9.2,8.2v0.1c0,5.4-4.5,8.6-10.2,8.6C104.7,140.4,100.6,139,97.5,136.8z"/>
		<path class="st1" d="M127.5,132.3v-17.2h-2.3c-1,0-1.9-0.9-1.9-1.9c0-1,0.9-1.9,1.9-1.9h2.3v-6.7c0-1.2,0.9-2.2,2.1-2.2
			c1.2,0,2.2,1,2.2,2.2v6.7h7.4c1,0,1.9,0.9,1.9,1.9c0,1-0.9,1.9-1.9,1.9h-7.4v16.7c0,3.5,1.9,4.7,4.8,4.7c1.5,0,2.3-0.4,2.6-0.4
			c1,0,1.8,0.8,1.8,1.8c0,0.8-0.5,1.4-1.2,1.7c-1.2,0.5-2.5,0.8-4.2,0.8C130.9,140.4,127.5,138.1,127.5,132.3z"/>
		<path class="st1" d="M31.2,198.5v-17.2h-2.3c-1,0-1.9-0.9-1.9-1.9c0-1,0.9-1.9,1.9-1.9h2.3v-6.7c0-1.2,0.9-2.2,2.1-2.2
			c1.2,0,2.2,1,2.2,2.2v6.7h7.4c1,0,1.9,0.9,1.9,1.9c0,1-0.9,1.9-1.9,1.9h-7.4V198c0,3.5,1.9,4.7,4.8,4.7c1.5,0,2.3-0.4,2.6-0.4
			c1,0,1.8,0.8,1.8,1.8c0,0.8-0.5,1.4-1.2,1.7c-1.2,0.5-2.5,0.8-4.2,0.8C34.7,206.6,31.2,204.3,31.2,198.5z"/>
		<path class="st1" d="M52,167.7c0-1.2,0.9-2.2,2.1-2.2c1.2,0,2.2,1,2.2,2.2v14.8c1.9-3.1,4.9-5.6,9.8-5.6c6.9,0,10.9,4.6,10.9,11.4
			v15.8c0,1.2-0.9,2.2-2.1,2.2c-1.2,0-2.2-0.9-2.2-2.2v-14.8c0-5.3-2.9-8.6-7.9-8.6c-4.9,0-8.6,3.6-8.6,8.9v14.5
			c0,1.2-0.9,2.2-2.1,2.2s-2.2-0.9-2.2-2.2V167.7z"/>
		<path class="st1" d="M98.5,206.7c-7.8,0-14.2-6-14.2-14.8v-0.1c0-8.2,5.8-14.8,13.7-14.8c8.4,0,13.2,6.9,13.2,14.5
			c0,1.2-0.9,2-2,2H88.6c0.6,6.2,5,9.7,10,9.7c3.5,0,6.1-1.4,8.2-3.3c0.3-0.3,0.7-0.5,1.2-0.5c1,0,1.9,0.8,1.9,1.8
			c0,0.5-0.2,1-0.7,1.4C106.6,205,103.4,206.7,98.5,206.7z M106.9,190.2c-0.4-5.2-3.4-9.7-9.1-9.7c-5,0-8.7,4.1-9.3,9.7H106.9z"/>
		<path class="st1" d="M118.7,179.4c0-1.2,0.9-2.2,2.1-2.2c1.2,0,2.2,0.9,2.2,2.2v5.4c2.1-4.7,6.2-7.6,9.8-7.6
			c1.3,0,2.1,0.9,2.1,2.2c0,1.2-0.8,2-1.9,2.2c-5.5,0.7-10,4.8-10,13v9.7c0,1.2-0.9,2.2-2.1,2.2s-2.2-0.9-2.2-2.2V179.4z"/>
		<path class="st1" d="M137.5,197.8v-0.1c0-6,5-9.2,12.2-9.2c3.6,0,6.2,0.5,8.8,1.2v-1c0-5.1-3.1-7.8-8.5-7.8
			c-2.9,0-5.3,0.7-7.4,1.6c-0.3,0.1-0.6,0.2-0.8,0.2c-1,0-1.9-0.8-1.9-1.8c0-0.9,0.6-1.5,1.2-1.8c2.8-1.2,5.7-1.9,9.3-1.9
			c4,0,7.1,1,9.2,3.1c1.9,1.9,2.9,4.7,2.9,8.3v15.6c0,1.2-0.9,2.1-2,2.1c-1.2,0-2-0.9-2-2v-2.6c-2,2.6-5.3,4.9-10.3,4.9
			C142.9,206.7,137.5,203.6,137.5,197.8z M158.5,195.6v-2.8c-2.1-0.6-4.9-1.2-8.4-1.2c-5.4,0-8.3,2.3-8.3,5.9v0.1
			c0,3.6,3.3,5.7,7.2,5.7C154.2,203.3,158.5,200.1,158.5,195.6z"/>
		<path class="st1" d="M171.6,179.4c0-1.2,0.9-2.2,2.1-2.2c1.2,0,2.2,0.9,2.2,2.2v3.9c2.3-3.4,5.7-6.3,10.9-6.3
			c6.8,0,13.6,5.4,13.6,14.8v0.1c0,9.3-6.7,14.8-13.6,14.8c-5.3,0-8.7-2.9-10.9-6.1V213c0,1.2-0.9,2.2-2.1,2.2s-2.2-0.9-2.2-2.2
			V179.4z M196.1,191.9v-0.1c0-6.7-4.6-11-10-11c-5.3,0-10.3,4.5-10.3,11v0.1c0,6.6,5,11,10.3,11
			C191.5,202.9,196.1,198.8,196.1,191.9z"/>
		<path class="st1" d="M208.2,168.6c0-1.4,1.1-2.3,2.5-2.3c1.4,0,2.5,0.9,2.5,2.3v0.7c0,1.3-1.1,2.3-2.5,2.3c-1.4,0-2.5-0.9-2.5-2.3
			V168.6z M208.6,179.4c0-1.2,0.9-2.2,2.1-2.2c1.2,0,2.2,0.9,2.2,2.2v24.8c0,1.2-0.9,2.2-2.1,2.2s-2.2-0.9-2.2-2.2V179.4z"/>
		<path class="st1" d="M221.2,203c-0.4-0.3-0.8-0.8-0.8-1.5c0-1,0.8-1.8,1.9-1.8c0.4,0,0.8,0.1,1,0.3c2.9,2,6,3,9,3
			c3.4,0,5.9-1.8,5.9-4.5v-0.1c0-2.9-3.4-4-7.1-5c-4.5-1.3-9.4-2.8-9.4-8.1v-0.1c0-4.9,4.1-8.2,9.7-8.2c3,0,6.3,0.9,9.1,2.4
			c0.6,0.3,1,0.9,1,1.8c0,1-0.8,1.8-1.9,1.8c-0.4,0-0.7-0.1-0.9-0.2c-2.4-1.4-5-2.2-7.4-2.2c-3.4,0-5.5,1.8-5.5,4.1v0.1
			c0,2.7,3.5,3.8,7.3,4.9c4.4,1.3,9.2,3,9.2,8.2v0.1c0,5.4-4.5,8.6-10.2,8.6C228.4,206.6,224.3,205.2,221.2,203z"/>
		<path class="st1" d="M251.2,198.5v-17.2h-2.3c-1,0-1.9-0.9-1.9-1.9c0-1,0.9-1.9,1.9-1.9h2.3v-6.7c0-1.2,0.9-2.2,2.1-2.2
			c1.2,0,2.2,1,2.2,2.2v6.7h7.4c1,0,1.9,0.9,1.9,1.9c0,1-0.9,1.9-1.9,1.9h-7.4V198c0,3.5,1.9,4.7,4.8,4.7c1.5,0,2.3-0.4,2.6-0.4
			c1,0,1.8,0.8,1.8,1.8c0,0.8-0.5,1.4-1.2,1.7c-1.2,0.5-2.5,0.8-4.2,0.8C254.7,206.6,251.2,204.3,251.2,198.5z"/>
		<path class="st1" d="M29.7,233.9c0-1.2,0.9-2.2,2.1-2.2c1.2,0,2.2,1,2.2,2.2v14.8c1.9-3.1,4.9-5.6,9.8-5.6
			c6.9,0,10.9,4.6,10.9,11.4v15.8c0,1.2-0.9,2.2-2.1,2.2c-1.2,0-2.2-0.9-2.2-2.2v-14.8c0-5.3-2.9-8.6-7.9-8.6
			c-4.9,0-8.6,3.6-8.6,8.9v14.5c0,1.2-0.9,2.2-2.1,2.2s-2.2-0.9-2.2-2.2V233.9z"/>
		<path class="st1" d="M61.6,264v-0.1c0-6,5-9.2,12.2-9.2c3.6,0,6.2,0.5,8.8,1.2v-1c0-5.1-3.1-7.8-8.5-7.8c-2.9,0-5.3,0.7-7.4,1.6
			c-0.3,0.1-0.6,0.2-0.8,0.2c-1,0-1.9-0.8-1.9-1.8c0-0.9,0.6-1.5,1.2-1.8c2.8-1.2,5.7-1.9,9.3-1.9c4,0,7.1,1,9.2,3.1
			c1.9,1.9,2.9,4.7,2.9,8.3v15.6c0,1.2-0.9,2.1-2,2.1c-1.2,0-2-0.9-2-2V268c-2,2.6-5.3,4.9-10.3,4.9C66.9,272.9,61.6,269.9,61.6,264
			z M82.6,261.8V259c-2.1-0.6-4.9-1.2-8.4-1.2c-5.4,0-8.3,2.3-8.3,5.9v0.1c0,3.6,3.3,5.7,7.2,5.7C78.3,269.5,82.6,266.3,82.6,261.8z
			"/>
		<path class="st1" d="M94.1,269.3c-0.4-0.3-0.8-0.8-0.8-1.5c0-1,0.8-1.8,1.9-1.8c0.4,0,0.8,0.1,1,0.3c2.9,2,6,3,9,3
			c3.4,0,5.9-1.8,5.9-4.5v-0.1c0-2.9-3.4-4-7.1-5c-4.5-1.3-9.4-2.8-9.4-8.1v-0.1c0-4.9,4.1-8.2,9.7-8.2c3,0,6.3,0.9,9.1,2.4
			c0.6,0.3,1,0.9,1,1.8c0,1-0.8,1.8-1.9,1.8c-0.4,0-0.7-0.1-0.9-0.2c-2.4-1.4-5-2.2-7.4-2.2c-3.4,0-5.5,1.8-5.5,4.1v0.1
			c0,2.7,3.5,3.8,7.3,4.9c4.4,1.3,9.2,3,9.2,8.2v0.1c0,5.4-4.5,8.6-10.2,8.6C101.4,272.8,97.2,271.5,94.1,269.3z"/>
		<path class="st1" d="M31.3,313.7H29c-1,0-1.8-0.8-1.8-1.9c0-1,0.8-1.8,1.8-1.8h2.3v-2.5c0-3.3,0.9-5.7,2.5-7.3
			c1.4-1.4,3.5-2.2,6.1-2.2c1.4,0,2.4,0.1,3.4,0.3c0.8,0.2,1.5,0.9,1.5,1.8c0,1.1-0.9,1.9-2,1.8c-0.7-0.1-1.5-0.3-2.3-0.3
			c-3.3,0-5,2-5,6.1v2.3h7.4c1,0,1.9,0.8,1.9,1.8c0,1-0.8,1.8-1.9,1.8h-7.3v22.9c0,1.2-0.9,2.2-2.1,2.2s-2.2-1-2.2-2.2V313.7z"/>
		<path class="st1" d="M74.4,336.6c0,1.2-0.9,2.2-2.1,2.2c-1.2,0-2.1-0.9-2.1-2.2v-3.1c-1.9,3.1-4.9,5.6-9.8,5.6
			c-6.9,0-10.9-4.6-10.9-11.4v-15.8c0-1.2,0.9-2.2,2.1-2.2c1.2,0,2.2,0.9,2.2,2.2v14.8c0,5.3,2.9,8.6,7.9,8.6c4.9,0,8.6-3.6,8.6-8.9
			v-14.5c0-1.2,0.9-2.2,2.1-2.2c1.2,0,2.1,0.9,2.1,2.2V336.6z"/>
		<path class="st1" d="M84,311.9c0-1.2,0.9-2.2,2.1-2.2c1.2,0,2.2,0.9,2.2,2.2v5.4c2.1-4.7,6.2-7.6,9.8-7.6c1.3,0,2.1,0.9,2.1,2.2
			c0,1.2-0.8,2-1.9,2.2c-5.5,0.7-10,4.8-10,13v9.7c0,1.2-0.9,2.2-2.1,2.2s-2.2-0.9-2.2-2.2V311.9z"/>
		<path class="st1" d="M27.6,396.4v-0.1c0-6,5-9.2,12.2-9.2c3.6,0,6.2,0.5,8.8,1.2v-1c0-5.1-3.1-7.8-8.5-7.8c-2.9,0-5.3,0.7-7.4,1.6
			c-0.3,0.1-0.6,0.2-0.8,0.2c-1,0-1.9-0.8-1.9-1.8c0-0.9,0.6-1.5,1.2-1.8c2.8-1.2,5.7-1.9,9.3-1.9c4,0,7.1,1,9.2,3.1
			c1.9,1.9,2.9,4.7,2.9,8.3v15.6c0,1.2-0.9,2.1-2,2.1c-1.2,0-2-0.9-2-2v-2.6c-2,2.6-5.3,4.9-10.3,4.9
			C32.9,405.3,27.6,402.3,27.6,396.4z M48.6,394.2v-2.8c-2.1-0.6-4.9-1.2-8.4-1.2c-5.4,0-8.3,2.3-8.3,5.9v0.1c0,3.6,3.3,5.7,7.2,5.7
			C44.3,402,48.6,398.8,48.6,394.2z"/>
		<path class="st1" d="M61.7,378.1c0-1.2,0.9-2.2,2.1-2.2c1.2,0,2.2,0.9,2.2,2.2v3.1c1.9-3.1,4.9-5.6,9.8-5.6
			c6.9,0,10.9,4.6,10.9,11.4v15.8c0,1.2-0.9,2.2-2.1,2.2c-1.2,0-2.2-0.9-2.2-2.2v-14.8c0-5.3-2.9-8.6-7.9-8.6
			c-4.9,0-8.6,3.6-8.6,8.9v14.5c0,1.2-0.9,2.2-2.1,2.2s-2.2-0.9-2.2-2.2V378.1z"/>
		<path class="st1" d="M122.8,402.8c0,1.2-0.9,2.2-2.1,2.2c-1.2,0-2.2-0.9-2.2-2.2V399c-2.3,3.4-5.7,6.3-10.9,6.3
			c-6.8,0-13.6-5.4-13.6-14.8v-0.1c0-9.3,6.8-14.8,13.6-14.8c5.3,0,8.7,2.9,10.9,6.1v-15.3c0-1.2,0.9-2.2,2.1-2.2s2.2,0.9,2.2,2.2
			V402.8z M98.4,390.4v0.1c0,6.7,4.7,11,10,11c5.3,0,10.3-4.5,10.3-11v-0.1c0-6.6-5-11-10.3-11C102.9,379.4,98.4,383.5,98.4,390.4z"
			/>
		<path class="st1" d="M31.3,446.2H29c-1,0-1.8-0.8-1.8-1.9c0-1,0.8-1.8,1.8-1.8h2.3V440c0-3.3,0.9-5.7,2.5-7.3
			c1.4-1.4,3.5-2.2,6.1-2.2c1.4,0,2.4,0.1,3.4,0.3c0.8,0.2,1.5,0.9,1.5,1.8c0,1.1-0.9,1.9-2,1.8c-0.7-0.1-1.5-0.3-2.3-0.3
			c-3.3,0-5,2-5,6.1v2.3h7.4c1,0,1.9,0.8,1.9,1.8c0,1-0.8,1.8-1.9,1.8h-7.3v22.9c0,1.2-0.9,2.2-2.1,2.2s-2.2-1-2.2-2.2V446.2z"/>
		<path class="st1" d="M47.7,456.8v-0.1c0-8.1,6.3-14.9,14.9-14.9c8.6,0,14.8,6.7,14.8,14.8v0.1c0,8.1-6.3,14.9-15,14.9
			C53.9,471.6,47.7,464.9,47.7,456.8z M73.1,456.8v-0.1c0-6.1-4.6-11.1-10.6-11.1c-6.2,0-10.4,5-10.4,11v0.1
			c0,6.1,4.5,11.1,10.5,11.1C68.8,467.8,73.1,462.8,73.1,456.8z"/>
		<path class="st1" d="M109.5,469.1c0,1.2-0.9,2.2-2.1,2.2c-1.2,0-2.1-0.9-2.1-2.2V466c-1.9,3.1-4.9,5.6-9.8,5.6
			c-6.9,0-10.9-4.6-10.9-11.4v-15.8c0-1.2,0.9-2.2,2.1-2.2c1.2,0,2.2,0.9,2.2,2.2v14.8c0,5.3,2.9,8.6,7.9,8.6c4.9,0,8.6-3.6,8.6-8.9
			v-14.5c0-1.2,0.9-2.2,2.1-2.2c1.2,0,2.1,0.9,2.1,2.2V469.1z"/>
		<path class="st1" d="M119.1,444.3c0-1.2,0.9-2.2,2.1-2.2c1.2,0,2.2,0.9,2.2,2.2v5.4c2.1-4.7,6.2-7.6,9.8-7.6
			c1.3,0,2.1,0.9,2.1,2.2c0,1.2-0.8,2-1.9,2.2c-5.5,0.7-10,4.8-10,13v9.7c0,1.2-0.9,2.2-2.1,2.2s-2.2-0.9-2.2-2.2V444.3z"/>
		<path class="st1" d="M30.1,498.7c0-1.2,0.9-2.2,2.1-2.2c1.2,0,2.2,1,2.2,2.2v36.5c0,1.2-0.9,2.2-2.1,2.2s-2.2-0.9-2.2-2.2V498.7z"
			/>
		<path class="st1" d="M56.7,537.8c-7.8,0-14.2-6-14.2-14.8v-0.1c0-8.2,5.8-14.8,13.7-14.8c8.4,0,13.2,6.9,13.2,14.5
			c0,1.2-0.9,2-2,2H46.8c0.6,6.2,5,9.7,10,9.7c3.5,0,6.1-1.4,8.2-3.3c0.3-0.3,0.7-0.5,1.2-0.5c1,0,1.9,0.8,1.9,1.8
			c0,0.5-0.2,1-0.7,1.4C64.8,536.1,61.6,537.8,56.7,537.8z M65.2,521.3c-0.4-5.2-3.4-9.7-9.1-9.7c-5,0-8.7,4.1-9.3,9.7H65.2z"/>
		<path class="st1" d="M77.6,542.7c-0.7-0.3-1.1-1-1.1-1.8c0-0.9,0.9-1.9,1.9-1.9c0.4,0,0.7,0.1,0.9,0.3c3,2,6.4,3.1,10.1,3.1
			c6.3,0,10.4-3.5,10.4-10.2v-3.4c-2.5,3.3-6,6-11.2,6c-6.8,0-13.4-5.1-13.4-13.4v-0.1c0-8.3,6.6-13.5,13.4-13.5
			c5.4,0,8.8,2.6,11.1,5.7v-3.3c0-1.2,0.9-2.2,2.1-2.2s2.2,1,2.2,2.2v21.7c0,4.4-1.3,7.8-3.6,10.1c-2.5,2.5-6.3,3.8-10.9,3.8
			C85.2,546.1,81.2,544.9,77.6,542.7z M100,521.5v-0.1c0-5.8-5.1-9.7-10.5-9.7s-9.9,3.8-9.9,9.6v0.1c0,5.7,4.6,9.7,9.9,9.7
			C94.9,531.2,100,527.3,100,521.5z"/>
		<path class="st1" d="M112,534.1c-0.4-0.3-0.8-0.8-0.8-1.5c0-1,0.8-1.8,1.9-1.8c0.4,0,0.8,0.1,1,0.3c2.9,2,6,3,9,3
			c3.4,0,5.9-1.8,5.9-4.5v-0.1c0-2.9-3.4-4-7.1-5c-4.5-1.3-9.4-2.8-9.4-8.1v-0.1c0-4.9,4.1-8.2,9.7-8.2c3,0,6.3,0.9,9.1,2.4
			c0.6,0.3,1,0.9,1,1.8c0,1-0.8,1.8-1.9,1.8c-0.4,0-0.7-0.1-0.9-0.2c-2.4-1.4-5-2.2-7.4-2.2c-3.4,0-5.5,1.8-5.5,4.1v0.1
			c0,2.7,3.5,3.8,7.3,4.9c4.4,1.3,9.2,3,9.2,8.2v0.1c0,5.4-4.5,8.6-10.2,8.6C119.2,537.7,115.1,536.3,112,534.1z"/>
	</g>
</g>
</svg>
