<?xml version="1.0" encoding="utf-8"?>
<!-- Generator: Adobe Illustrator 14.0.0, SVG Export Plug-In . SVG Version: 6.00 Build 43363)  -->
<!DOCTYPE svg PUBLIC "-//W3C//DTD SVG 1.1//EN" "http://www.w3.org/Graphics/SVG/1.1/DTD/svg11.dtd">
<svg version="1.1" id="Layer_1" xmlns="http://www.w3.org/2000/svg" xmlns:xlink="http://www.w3.org/1999/xlink" x="0px" y="0px"
	 width="1728px" height="1728px" viewBox="0 0 1728 1728" enable-background="new 0 0 1728 1728" xml:space="preserve">
<rect id="photo" fill="#D0D2D3" width="1728" height="1728"/>
<g id="fill-text" opacity="0.8">
	<g>
		<path fill="#FFFFFF" d="M1255.82,525.63c-5.021-2.859-9.945-8.165-14.773-15.918v12.01c0,0.891-0.033,1.686-0.096,2.383
			c-0.065,0.7-0.161,1.367-0.286,2.001c-0.256,1.144-0.763,2.064-1.525,2.764c-0.762,0.697-1.972,1.049-3.622,1.049
			c-1.652,0-3.082-0.605-4.289-1.811c-1.209-1.207-1.811-2.699-1.811-4.48V386.181h12.2v61.194
			c5.082-6.863,10.199-11.691,15.347-14.488c5.146-2.794,10.452-4.194,15.918-4.194c6.606,0,12.453,1.43,17.538,4.29
			c5.082,2.859,9.341,6.643,12.772,11.343c3.432,4.703,6.035,10.008,7.816,15.918c1.778,5.91,2.669,11.98,2.669,18.206
			c0,6.61-0.858,13.029-2.574,19.254c-1.716,6.228-4.321,11.724-7.815,16.49c-3.497,4.766-7.882,8.579-13.154,11.438
			c-5.275,2.859-11.408,4.29-18.396,4.29C1266.145,529.92,1260.84,528.49,1255.82,525.63z M1256.106,442.8
			c-3.813,2.543-6.833,5.814-9.055,9.817c-2.226,4.003-3.783,8.388-4.671,13.154c-0.891,4.766-1.334,9.374-1.334,13.821
			c0,4.831,0.477,9.597,1.43,14.297c0.953,4.704,2.603,8.96,4.956,12.772c2.351,3.813,5.496,6.896,9.437,9.246
			c3.938,2.353,8.895,3.527,14.869,3.527c5.592,0,10.262-1.302,14.012-3.908c3.747-2.604,6.735-5.91,8.96-9.913
			c2.223-4.003,3.813-8.388,4.766-13.154c0.954-4.766,1.431-9.246,1.431-13.44c0-4.447-0.51-9.022-1.525-13.726
			c-1.019-4.7-2.669-9.022-4.957-12.963c-2.287-3.938-5.37-7.149-9.245-9.627c-3.879-2.478-8.674-3.717-14.394-3.717
			C1264.811,438.987,1259.919,440.259,1256.106,442.8z"/>
		<path fill="#FFFFFF" d="M1345.702,483.405c0,4.957,0.793,9.627,2.383,14.012c1.588,4.385,3.813,8.197,6.673,11.438
			s6.258,5.785,10.198,7.625c3.938,1.844,8.261,2.764,12.964,2.764c3.303,0,6.576-0.349,9.817-1.048
			c3.241-0.697,6.449-1.492,9.627-2.383l2.669,8.959c-3.94,1.525-7.658,2.734-11.152,3.622c-3.497,0.888-7.339,1.334-11.533,1.334
			c-7.244,0-13.663-1.367-19.254-4.099c-5.594-2.731-10.327-6.416-14.202-11.057c-3.879-4.638-6.833-10.038-8.865-16.204
			c-2.034-6.163-3.05-12.677-3.05-19.54c0-6.481,1.049-12.74,3.146-18.777c2.097-6.035,5.052-11.343,8.864-15.918
			c3.813-4.575,8.418-8.26,13.821-11.057c5.4-2.794,11.468-4.194,18.206-4.194c6.225,0,11.914,1.334,17.062,4.003
			s9.531,6.228,13.153,10.675c3.622,4.45,6.416,9.532,8.389,15.251c1.969,5.719,2.954,11.628,2.954,17.729
			c0,2.925-0.542,4.799-1.62,5.624c-1.081,0.828-3.211,1.239-6.386,1.239H1345.702z M1362.479,441.37
			c-3.56,2.097-6.548,4.861-8.96,8.293c-2.416,3.431-4.289,7.372-5.624,11.819c-1.334,4.45-2.32,8.959-2.955,13.535h61.766
			c-0.128-4.447-0.953-8.865-2.478-13.25c-1.525-4.384-3.622-8.322-6.291-11.819c-2.669-3.494-5.91-6.321-9.723-8.483
			c-3.813-2.16-8.007-3.241-12.582-3.241C1370.419,438.224,1366.035,439.273,1362.479,441.37z"/>
		<path fill="#FFFFFF" d="M1453.89,528.395c-3.241-0.634-6.42-1.525-9.532-2.669c-3.115-1.144-6.07-2.573-8.864-4.289
			c-2.797-1.716-5.147-3.717-7.054-6.005l7.625-8.197c1.016,0.637,1.937,1.271,2.765,1.906c0.825,0.637,1.683,1.272,2.573,1.906
			c2.16,1.653,4.319,3.05,6.481,4.194c2.288,1.272,4.733,2.258,7.34,2.955c2.604,0.7,5.624,1.048,9.055,1.048
			c2.288,0,4.701-0.349,7.244-1.048c2.541-0.697,4.892-1.746,7.054-3.146c2.16-1.397,3.971-3.208,5.434-5.433
			c1.459-2.222,2.192-4.796,2.192-7.721c0-3.303-0.924-6.035-2.765-8.197c-1.844-2.16-4.099-4.066-6.768-5.719
			c-1.399-0.763-2.83-1.525-4.289-2.288c-1.463-0.763-3.083-1.459-4.861-2.097c-1.653-0.635-3.307-1.269-4.956-1.907
			c-1.653-0.634-3.369-1.269-5.147-1.906c-3.432-1.397-6.738-2.859-9.913-4.385c-3.179-1.525-5.942-3.271-8.293-5.242
			c-2.353-1.969-4.227-4.224-5.623-6.768c-1.4-2.541-2.098-5.528-2.098-8.96c0-4.066,0.953-7.688,2.859-10.866
			c1.907-3.175,4.385-5.877,7.436-8.102c3.05-2.222,6.511-3.908,10.39-5.052c3.875-1.144,7.783-1.716,11.724-1.716
			c2.031,0,4.861,0.352,8.483,1.049c3.622,0.7,7.179,1.716,10.676,3.05c3.494,1.334,6.544,2.988,9.15,4.957
			c2.604,1.972,3.908,4.29,3.908,6.958c0,1.4-0.51,2.416-1.525,3.05c-1.019,0.638-2.226,0.954-3.622,0.954
			c-0.763,0-1.972-0.444-3.622-1.334c-1.019-0.381-2.034-0.858-3.05-1.43c-1.02-0.572-2.098-1.174-3.241-1.812
			c-2.288-1.269-4.927-2.478-7.911-3.622c-2.988-1.144-6.262-1.716-9.818-1.716c-2.162,0-4.384,0.286-6.672,0.858
			c-2.287,0.572-4.385,1.495-6.291,2.764c-1.906,1.272-3.464,2.892-4.67,4.861c-1.21,1.972-1.812,4.355-1.812,7.149
			c0,2.797,0.983,5.084,2.955,6.863c1.969,1.781,4.224,3.369,6.768,4.766c3.813,2.034,8.322,3.974,13.535,5.814
			c5.209,1.844,10.133,4.069,14.773,6.672c4.639,2.606,8.579,5.719,11.819,9.341c3.241,3.622,4.861,8.292,4.861,14.012
			c0,4.45-1.048,8.388-3.146,11.819c-2.097,3.431-4.861,6.291-8.292,8.579c-3.432,2.288-7.244,4.036-11.438,5.242
			c-4.194,1.207-8.388,1.811-12.582,1.811C1460.21,529.348,1457.13,529.029,1453.89,528.395z"/>
		<path fill="#FFFFFF" d="M1545.774,440.417c-0.828,0.066-1.686,0.096-2.573,0.096c-0.891-0.125-1.844-0.191-2.859-0.191
			c-0.891,0-2.226,0-4.004,0v87.501h-11.819v-87.501h-6.862c-0.891,0-1.716,0-2.479,0s-1.525-0.125-2.288-0.381
			c-1.271-0.253-2.258-0.729-2.954-1.43c-0.7-0.697-1.049-1.746-1.049-3.146c0-1.525,0.315-2.636,0.953-3.336
			c0.635-0.697,1.65-1.174,3.05-1.43c0.635-0.253,1.335-0.381,2.098-0.381s1.587,0,2.478,0h6.863v-24.973
			c0-1.778,0.572-3.336,1.716-4.671c1.144-1.334,2.541-2.001,4.193-2.001c1.65,0,3.08,0.667,4.29,2.001
			c1.206,1.334,1.811,2.893,1.811,4.671l-0.19,24.973c1.778,0,3.146-0.03,4.099-0.095c0.953-0.063,1.937-0.096,2.955-0.096
			c0.888,0,1.745,0.033,2.573,0.096c0.825,0.065,1.62,0.161,2.383,0.286c1.397,0.256,2.479,0.763,3.241,1.525
			c0.763,0.762,1.144,1.906,1.144,3.431c0,1.4-0.381,2.449-1.144,3.146c-0.763,0.7-1.844,1.239-3.241,1.621
			C1547.395,440.259,1546.6,440.354,1545.774,440.417z"/>
	</g>
	<g>
		<path fill="#FFFFFF" d="M1196.817,642.187c-0.828,0.066-1.686,0.096-2.573,0.096c-0.891-0.125-1.844-0.191-2.859-0.191
			c-0.891,0-2.226,0-4.004,0v87.501h-11.819v-87.501h-6.862c-0.891,0-1.716,0-2.479,0s-1.525-0.125-2.288-0.381
			c-1.271-0.253-2.258-0.729-2.954-1.43c-0.7-0.697-1.049-1.746-1.049-3.146c0-1.525,0.315-2.636,0.953-3.336
			c0.635-0.697,1.65-1.174,3.05-1.43c0.635-0.253,1.335-0.381,2.098-0.381s1.587,0,2.478,0h6.863v-24.973
			c0-1.778,0.572-3.336,1.716-4.671c1.144-1.334,2.541-2.001,4.193-2.001c1.65,0,3.08,0.667,4.29,2.001
			c1.206,1.334,1.811,2.893,1.811,4.671l-0.19,24.973c1.778,0,3.146-0.03,4.099-0.095c0.953-0.063,1.937-0.096,2.955-0.096
			c0.888,0,1.745,0.033,2.573,0.096c0.825,0.065,1.62,0.161,2.383,0.286c1.397,0.256,2.479,0.763,3.241,1.525
			c0.763,0.762,1.144,1.906,1.144,3.431c0,1.4-0.381,2.449-1.144,3.146c-0.763,0.7-1.844,1.239-3.241,1.621
			C1198.438,642.029,1197.643,642.125,1196.817,642.187z"/>
		<path fill="#FFFFFF" d="M1284.507,729.975c-1.082-1.144-1.621-2.541-1.621-4.194v-58.525c0-3.557-0.667-6.958-2.001-10.199
			c-1.335-3.241-3.179-6.1-5.528-8.579c-2.354-2.478-5.118-4.414-8.293-5.814c-3.179-1.397-6.609-2.097-10.294-2.097
			c-3.56,0-6.929,0.7-10.104,2.097c-3.178,1.4-5.942,3.307-8.292,5.719c-2.354,2.416-4.227,5.213-5.624,8.388
			c-1.399,3.179-2.097,6.547-2.097,10.104v63.1h-11.819v-138.02c0-1.778,0.602-3.271,1.811-4.48
			c1.207-1.207,2.637-1.811,4.289-1.811c1.65,0,3.051,0.604,4.194,1.811c1.144,1.209,1.716,2.639,1.716,4.289v56.809
			c4.828-6.734,9.657-11.405,14.488-14.012c4.828-2.603,9.723-3.908,14.679-3.908c5.338,0,10.134,0.923,14.394,2.764
			c4.256,1.844,7.911,4.385,10.961,7.625s5.367,7.119,6.958,11.628c1.588,4.513,2.383,9.374,2.383,14.584v58.334
			c0,1.781-0.571,3.241-1.715,4.385c-1.145,1.144-2.606,1.716-4.385,1.716C1286.952,731.69,1285.585,731.118,1284.507,729.975z"/>
		<path fill="#FFFFFF" d="M1311.481,636.373c0-1.778,0.602-3.208,1.811-4.29c1.207-1.078,2.699-1.621,4.48-1.621
			c1.396,0,2.669,0.605,3.813,1.811c1.144,1.209,1.716,2.574,1.716,4.099v93.411h-11.819V636.373z M1313.769,609.112
			c-0.891-0.887-1.334-1.969-1.334-3.241c0-1.397,0.443-2.541,1.334-3.431c0.888-0.888,2.032-1.334,3.432-1.334
			c1.397,0,2.541,0.447,3.432,1.334c0.888,0.891,1.335,1.972,1.335,3.241c0,1.4-0.447,2.544-1.335,3.431
			c-0.891,0.891-2.034,1.334-3.432,1.334C1315.801,610.446,1314.656,610.002,1313.769,609.112z"/>
		<path fill="#FFFFFF" d="M1405.751,729.975c-1.082-1.144-1.621-2.541-1.621-4.194v-58.525c0-3.557-0.699-6.958-2.097-10.199
			c-1.4-3.241-3.273-6.1-5.624-8.579c-2.353-2.478-5.146-4.414-8.388-5.814c-3.24-1.397-6.643-2.097-10.199-2.097
			c-3.688,0-7.086,0.7-10.198,2.097c-3.116,1.4-5.848,3.307-8.197,5.719c-2.354,2.416-4.194,5.213-5.529,8.388
			c-1.334,3.179-2.001,6.547-2.001,10.104v62.909h-11.819v-93.411c0-1.778,0.602-3.241,1.811-4.385
			c1.207-1.144,2.699-1.716,4.48-1.716c1.649,0,2.826,0.286,3.526,0.858c0.697,0.572,1.174,1.367,1.43,2.383
			c0.382,1.144,0.572,2.416,0.572,3.813v9.532c2.287-3.432,4.638-6.196,7.054-8.293c2.412-2.097,4.828-3.717,7.244-4.861
			c2.412-1.144,4.86-1.937,7.339-2.383c2.479-0.444,4.924-0.667,7.34-0.667c5.338,0,10.166,0.891,14.488,2.669
			c4.318,1.781,8.007,4.289,11.057,7.53c3.05,3.241,5.4,7.086,7.054,11.534c1.649,4.45,2.478,9.341,2.478,14.679v58.525
			c0,1.781-0.571,3.241-1.715,4.385c-1.145,1.144-2.606,1.716-4.385,1.716C1408.196,731.69,1406.829,731.118,1405.751,729.975z"/>
		<path fill="#FFFFFF" d="M1460.939,766.291c0.125-1.844,0.316-3.655,0.572-5.433c3.432,0.763,6.862,1.144,10.294,1.144
			c6.101,0,11.277-1.048,15.537-3.145c4.256-2.097,7.721-4.957,10.39-8.579s4.638-7.816,5.909-12.582
			c1.27-4.766,1.906-9.752,1.906-14.965c0-0.763-0.032-1.716-0.095-2.859c-0.065-1.144-0.414-3.494-1.049-7.054
			c-4.45,7.244-9.216,12.296-14.298,15.155c-5.084,2.86-10.484,4.29-16.204,4.29c-6.609,0-12.486-1.367-17.633-4.099
			c-5.147-2.731-9.47-6.386-12.964-10.961c-3.497-4.575-6.133-9.818-7.911-15.728c-1.781-5.91-2.669-12.04-2.669-18.396
			c0-6.354,0.888-12.677,2.669-18.968c1.778-6.291,4.414-11.915,7.911-16.872c3.494-4.956,7.846-8.959,13.059-12.01
			c5.21-3.05,11.248-4.575,18.11-4.575c5.463,0,10.771,1.43,15.918,4.289c5.147,2.86,10.262,7.912,15.347,15.156V638.47
			c0-0.888,0-1.65,0-2.288c0-0.763,0.125-1.459,0.381-2.097c0.253-1.016,0.763-1.874,1.525-2.573
			c0.763-0.697,2.031-1.049,3.813-1.049c1.396,0,2.669,0.638,3.813,1.907c1.144,1.272,1.716,2.669,1.716,4.194v90.742
			c0,6.481-1.177,12.486-3.526,18.015c-2.354,5.528-5.595,10.324-9.723,14.393c-4.132,4.066-8.993,7.244-14.584,9.532
			c-5.594,2.288-11.629,3.432-18.11,3.432c-1.781,0-3.526-0.065-5.242-0.19c-1.716-0.128-3.401-0.381-5.052-0.763
			C1460.749,769.942,1460.812,768.131,1460.939,766.291z M1476.571,641.139c-5.719,0-10.55,1.209-14.488,3.622
			c-3.94,2.416-7.148,5.528-9.627,9.341c-2.478,3.813-4.259,8.072-5.338,12.772c-1.081,4.703-1.62,9.341-1.62,13.916
			c0,4.576,0.507,9.279,1.525,14.107c1.016,4.831,2.764,9.216,5.242,13.154c2.479,3.94,5.719,7.181,9.723,9.722
			c4.003,2.544,8.989,3.813,14.965,3.813c5.338,0,9.817-1.269,13.439-3.813c3.622-2.541,6.577-5.749,8.864-9.627
			c2.288-3.875,3.908-8.102,4.861-12.677s1.43-8.895,1.43-12.963c0-3.431-0.095-6.925-0.285-10.485
			c-0.191-3.557-0.796-7.021-1.812-10.39c-1.019-3.366-2.544-6.511-4.575-9.437c-2.034-2.922-4.894-5.4-8.578-7.435
			C1485.848,642.348,1481.272,641.139,1476.571,641.139z"/>
		<path fill="#FFFFFF" d="M1559.022,730.165c-3.241-0.634-6.42-1.525-9.532-2.669c-3.115-1.144-6.07-2.573-8.864-4.289
			c-2.797-1.716-5.147-3.717-7.054-6.005l7.625-8.197c1.016,0.637,1.937,1.271,2.765,1.906c0.825,0.637,1.683,1.272,2.573,1.906
			c2.16,1.653,4.319,3.05,6.481,4.194c2.288,1.272,4.733,2.258,7.34,2.955c2.604,0.7,5.624,1.048,9.055,1.048
			c2.288,0,4.701-0.349,7.244-1.048c2.541-0.697,4.892-1.746,7.054-3.146c2.16-1.397,3.971-3.208,5.434-5.433
			c1.459-2.222,2.192-4.796,2.192-7.721c0-3.303-0.924-6.035-2.765-8.197c-1.844-2.16-4.099-4.066-6.768-5.719
			c-1.399-0.763-2.83-1.525-4.289-2.288c-1.463-0.763-3.083-1.459-4.861-2.097c-1.653-0.635-3.307-1.269-4.956-1.907
			c-1.653-0.634-3.369-1.269-5.147-1.906c-3.432-1.397-6.738-2.859-9.913-4.385c-3.179-1.525-5.942-3.271-8.293-5.242
			c-2.353-1.969-4.227-4.224-5.623-6.768c-1.4-2.541-2.098-5.528-2.098-8.96c0-4.066,0.953-7.688,2.859-10.866
			c1.907-3.175,4.385-5.877,7.436-8.102c3.05-2.222,6.511-3.908,10.39-5.052c3.875-1.144,7.783-1.716,11.724-1.716
			c2.031,0,4.861,0.352,8.483,1.049c3.622,0.7,7.179,1.716,10.676,3.05c3.494,1.334,6.544,2.988,9.15,4.957
			c2.604,1.972,3.908,4.29,3.908,6.958c0,1.4-0.51,2.416-1.525,3.05c-1.019,0.638-2.226,0.954-3.622,0.954
			c-0.763,0-1.972-0.444-3.622-1.334c-1.019-0.381-2.034-0.858-3.05-1.43c-1.02-0.572-2.098-1.174-3.241-1.812
			c-2.288-1.269-4.927-2.478-7.911-3.622c-2.988-1.144-6.262-1.716-9.818-1.716c-2.162,0-4.384,0.286-6.672,0.858
			c-2.287,0.572-4.385,1.495-6.291,2.764c-1.906,1.272-3.464,2.892-4.67,4.861c-1.21,1.972-1.812,4.355-1.812,7.149
			c0,2.797,0.983,5.084,2.955,6.863c1.969,1.781,4.224,3.369,6.768,4.766c3.813,2.034,8.322,3.974,13.535,5.814
			c5.209,1.844,10.133,4.069,14.773,6.672c4.639,2.606,8.579,5.719,11.819,9.341c3.241,3.622,4.861,8.292,4.861,14.012
			c0,4.45-1.048,8.388-3.146,11.819c-2.097,3.431-4.861,6.291-8.292,8.579c-3.432,2.288-7.244,4.036-11.438,5.242
			c-4.194,1.207-8.388,1.811-12.582,1.811C1565.343,731.118,1562.263,730.8,1559.022,730.165z"/>
	</g>
	<g>
		<path fill="#FFFFFF" d="M1332.168,838.144c0-1.778,0.602-3.208,1.811-4.289c1.207-1.078,2.699-1.621,4.48-1.621
			c1.396,0,2.669,0.605,3.813,1.811c1.144,1.209,1.716,2.574,1.716,4.099v93.411h-11.819V838.144z M1334.455,810.883
			c-0.891-0.888-1.334-1.969-1.334-3.241c0-1.397,0.443-2.541,1.334-3.431c0.888-0.888,2.032-1.334,3.432-1.334
			c1.397,0,2.541,0.447,3.432,1.334c0.888,0.891,1.335,1.972,1.335,3.241c0,1.4-0.447,2.543-1.335,3.431
			c-0.891,0.891-2.034,1.334-3.432,1.334C1336.487,812.217,1335.343,811.773,1334.455,810.883z"/>
		<path fill="#FFFFFF" d="M1426.438,931.745c-1.082-1.144-1.621-2.54-1.621-4.193v-58.525c0-3.557-0.699-6.958-2.097-10.199
			c-1.4-3.241-3.273-6.1-5.624-8.579c-2.353-2.478-5.146-4.414-8.388-5.814c-3.24-1.397-6.643-2.097-10.199-2.097
			c-3.688,0-7.086,0.7-10.198,2.097c-3.116,1.4-5.848,3.307-8.197,5.719c-2.354,2.416-4.194,5.213-5.529,8.388
			c-1.334,3.178-2.001,6.547-2.001,10.104v62.909h-11.819v-93.411c0-1.778,0.602-3.241,1.811-4.384
			c1.207-1.144,2.699-1.716,4.48-1.716c1.649,0,2.826,0.286,3.526,0.858c0.697,0.572,1.174,1.367,1.43,2.383
			c0.382,1.144,0.572,2.416,0.572,3.813v9.532c2.287-3.432,4.638-6.196,7.054-8.293c2.412-2.097,4.828-3.717,7.244-4.861
			c2.412-1.144,4.86-1.937,7.339-2.383c2.479-0.444,4.924-0.667,7.34-0.667c5.338,0,10.166,0.891,14.488,2.669
			c4.318,1.781,8.007,4.289,11.057,7.53c3.05,3.241,5.4,7.086,7.054,11.534c1.649,4.45,2.478,9.341,2.478,14.679v58.525
			c0,1.781-0.571,3.24-1.716,4.384c-1.144,1.145-2.605,1.716-4.384,1.716C1428.883,933.461,1427.516,932.89,1426.438,931.745z"/>
	</g>
	<g>
		<path fill="#FFFFFF" d="M1291.944,994.925c0-1.778,0.539-3.271,1.62-4.48c1.078-1.206,2.508-1.811,4.289-1.811
			c1.778,0,3.208,0.604,4.29,1.811c1.078,1.21,1.62,2.702,1.62,4.48v138.4l-11.819,0.19V994.925z"/>
		<path fill="#FFFFFF" d="M1320.54,1039.914c0-1.778,0.602-3.208,1.811-4.289c1.207-1.078,2.699-1.62,4.48-1.62
			c1.396,0,2.669,0.604,3.813,1.811c1.144,1.21,1.716,2.574,1.716,4.099v93.411h-11.819V1039.914z M1322.827,1012.653
			c-0.891-0.888-1.334-1.969-1.334-3.24c0-1.397,0.443-2.541,1.334-3.432c0.888-0.888,2.032-1.335,3.432-1.335
			c1.397,0,2.541,0.447,3.432,1.335c0.888,0.891,1.335,1.972,1.335,3.24c0,1.4-0.447,2.544-1.335,3.432
			c-0.891,0.891-2.034,1.335-3.432,1.335C1324.859,1013.988,1323.715,1013.544,1322.827,1012.653z"/>
		<path fill="#FFFFFF" d="M1390.501,999.309c-1.399,0-2.734,0-4.003,0c-1.906,0-3.974,0.543-6.196,1.621
			c-2.225,1.081-3.336,3.146-3.336,6.195v28.404c1.778,0,3.208-0.029,4.289-0.095c1.079-0.063,2.127-0.096,3.146-0.096
			c1.016,0,2.032-0.029,3.051-0.095c1.016-0.063,2.031,0.032,3.05,0.285c1.906,0.257,3.366,0.763,4.385,1.525
			c1.016,0.763,1.525,1.972,1.525,3.622c0,2.925-1.973,4.575-5.91,4.957c-1.019,0.256-2.034,0.351-3.05,0.285
			c-1.019-0.063-2.035-0.095-3.051-0.095c-1.019,0-2.066-0.03-3.146-0.096c-1.081-0.063-2.511-0.095-4.289-0.095v128.106h-12.01
			v-128.106c-1.781,0-3.211,0.032-4.289,0.095c-1.081,0.065-2.067,0.096-2.955,0.096c-1.019,0-1.906,0-2.669,0
			s-1.463-0.125-2.097-0.382c-1.272-0.253-2.258-0.729-2.955-1.43c-0.7-0.696-1.049-1.936-1.049-3.717
			c0-1.525,0.349-2.604,1.049-3.241c0.697-0.635,1.745-1.078,3.146-1.334c0.635-0.254,1.334-0.382,2.097-0.382
			c0.888,0,1.778,0,2.669,0c0.888,0,1.812,0.033,2.765,0.096c0.953,0.065,2.317,0.095,4.099,0.095v-27.451
			c0-5.591,1.62-10.199,4.861-13.821c3.24-3.622,7.655-5.433,13.249-5.433h7.244c2.031,0,3.779,0.51,5.242,1.525
			c1.46,1.019,2.192,2.287,2.192,3.813s-0.256,2.606-0.763,3.24c-0.51,0.638-1.271,1.082-2.287,1.335
			C1393.36,999.118,1392.026,999.309,1390.501,999.309z"/>
		<path fill="#FFFFFF" d="M1411.28,1088.717c0,4.957,0.793,9.627,2.383,14.012c1.588,4.385,3.813,8.197,6.673,11.438
			c2.859,3.24,6.258,5.784,10.198,7.625c3.938,1.844,8.261,2.765,12.964,2.765c3.303,0,6.576-0.349,9.817-1.049
			c3.241-0.697,6.449-1.492,9.627-2.383l2.669,8.96c-3.94,1.524-7.658,2.734-11.152,3.622c-3.497,0.888-7.339,1.334-11.533,1.334
			c-7.244,0-13.663-1.367-19.254-4.099c-5.594-2.731-10.327-6.416-14.202-11.057c-3.879-4.638-6.833-10.038-8.865-16.204
			c-2.034-6.163-3.05-12.677-3.05-19.54c0-6.481,1.049-12.74,3.146-18.777c2.097-6.035,5.052-11.343,8.864-15.918
			c3.813-4.575,8.418-8.26,13.821-11.057c5.4-2.794,11.468-4.194,18.206-4.194c6.225,0,11.914,1.334,17.062,4.003
			s9.531,6.229,13.153,10.676c3.622,4.45,6.416,9.532,8.389,15.251c1.969,5.719,2.954,11.629,2.954,17.729
			c0,2.926-0.542,4.799-1.62,5.624c-1.081,0.828-3.211,1.239-6.386,1.239H1411.28z M1428.057,1046.682
			c-3.56,2.098-6.548,4.861-8.96,8.293c-2.416,3.432-4.289,7.372-5.624,11.819c-1.334,4.45-2.32,8.96-2.955,13.535h61.766
			c-0.128-4.447-0.953-8.864-2.478-13.249c-1.525-4.385-3.622-8.322-6.291-11.819c-2.669-3.494-5.91-6.321-9.723-8.483
			c-3.813-2.16-8.007-3.241-12.582-3.241C1435.997,1043.536,1431.613,1044.585,1428.057,1046.682z"/>
	</g>
	<g>
		<path fill="#FFFFFF" d="M1343.703,1315.463c-4.831,8.006-9.755,13.534-14.774,16.585c-5.021,3.05-10.327,4.575-15.918,4.575
			c-6.862,0-12.9-1.43-18.11-4.289c-5.212-2.859-9.597-6.673-13.153-11.438c-3.56-4.766-6.262-10.166-8.103-16.204
			c-1.844-6.034-2.764-12.296-2.764-18.777c0-6.226,0.953-12.358,2.859-18.396c1.906-6.034,4.671-11.405,8.293-16.108
			c3.622-4.7,8.036-8.483,13.249-11.343c5.21-2.859,11.119-4.289,17.729-4.289c5.338,0,10.515,1.271,15.537,3.813
			c5.019,2.544,10.134,7.054,15.346,13.535v-10.676c0.254-1.65,0.507-2.859,0.763-3.622c0.253-0.888,0.763-1.62,1.525-2.192
			c0.763-0.571,2.097-0.857,4.003-0.857c1.397,0,2.669,0.604,3.813,1.811c1.145,1.21,1.716,2.574,1.716,4.099v93.983h-12.01
			V1315.463z M1300.429,1249.313c-3.94,2.543-7.148,5.752-9.627,9.627c-2.478,3.878-4.259,8.197-5.338,12.963
			c-1.081,4.766-1.62,9.374-1.62,13.821c0,4.45,0.477,9.088,1.43,13.916c0.953,4.831,2.604,9.278,4.957,13.345
			c2.35,4.068,5.463,7.405,9.341,10.008c3.875,2.606,8.674,3.908,14.393,3.908c6.226,0,11.343-1.334,15.347-4.003
			c4.003-2.669,7.083-6.035,9.245-10.104c2.16-4.066,3.652-8.608,4.48-13.631c0.825-5.019,1.239-9.88,1.239-14.583
			c0-4.447-0.447-8.99-1.335-13.631c-0.891-4.638-2.448-8.832-4.67-12.582c-2.226-3.747-5.213-6.83-8.96-9.246
			c-3.75-2.412-8.549-3.622-14.394-3.622C1309.198,1245.499,1304.367,1246.771,1300.429,1249.313z"/>
		<path fill="#FFFFFF" d="M1404.609,1249.407c-1.591,0.7-3.273,1.558-5.052,2.574c-1.907,1.144-3.751,2.543-5.528,4.193
			c-1.781,1.653-3.402,3.75-4.861,6.291c-1.463,2.544-2.606,5.624-3.432,9.246c-0.828,3.622-1.239,7.911-1.239,12.868v50.518
			l-12.01,0.19v-93.22c0-1.65,0.571-3.051,1.716-4.194c1.144-1.144,2.603-1.716,4.384-1.716c1.65,0,3.08,0.477,4.29,1.43
			c1.206,0.953,1.811,2.13,1.811,3.527c0,0.762-0.032,1.462-0.095,2.097c-0.065,0.638-0.161,1.62-0.286,2.955
			c-0.128,1.334-0.286,3.306-0.477,5.909c-0.19,2.606-0.477,6.324-0.858,11.152c1.906-5.719,3.813-10.356,5.72-13.916
			c1.906-3.557,3.779-6.354,5.623-8.389c1.841-2.031,3.685-3.431,5.528-4.193c1.841-0.763,3.652-1.144,5.434-1.144
			c2.031,0,3.747,0.637,5.147,1.906c1.396,1.271,2.097,2.859,2.097,4.766s-1.144,3.497-3.432,4.766
			C1407.689,1247.915,1406.196,1248.711,1404.609,1249.407z"/>
		<path fill="#FFFFFF" d="M1427.008,1290.489c0,4.957,0.793,9.627,2.383,14.012c1.588,4.385,3.813,8.197,6.673,11.438
			c2.859,3.24,6.258,5.784,10.198,7.625c3.938,1.844,8.261,2.765,12.964,2.765c3.303,0,6.576-0.349,9.817-1.049
			c3.241-0.697,6.449-1.492,9.627-2.383l2.669,8.96c-3.94,1.524-7.658,2.734-11.152,3.622c-3.497,0.888-7.339,1.334-11.533,1.334
			c-7.244,0-13.663-1.367-19.254-4.099c-5.594-2.731-10.327-6.416-14.202-11.057c-3.879-4.638-6.833-10.038-8.865-16.204
			c-2.034-6.163-3.05-12.677-3.05-19.54c0-6.481,1.049-12.74,3.146-18.777c2.097-6.035,5.052-11.343,8.864-15.918
			c3.813-4.575,8.418-8.26,13.821-11.057c5.4-2.794,11.468-4.194,18.206-4.194c6.225,0,11.914,1.334,17.062,4.003
			s9.531,6.229,13.153,10.676c3.622,4.45,6.416,9.532,8.389,15.251c1.969,5.719,2.954,11.629,2.954,17.729
			c0,2.926-0.542,4.799-1.62,5.624c-1.081,0.828-3.211,1.239-6.386,1.239H1427.008z M1443.784,1248.454
			c-3.56,2.098-6.548,4.861-8.96,8.293c-2.416,3.432-4.289,7.372-5.624,11.819c-1.334,4.45-2.32,8.96-2.955,13.535h61.766
			c-0.128-4.447-0.953-8.864-2.478-13.249c-1.525-4.385-3.622-8.322-6.291-11.819c-2.669-3.494-5.91-6.321-9.723-8.483
			c-3.813-2.16-8.007-3.241-12.582-3.241C1451.725,1245.309,1447.341,1246.357,1443.784,1248.454z"/>
	</g>
	<g>
		<path fill="#FFFFFF" d="M1278.314,1402.852c-1.399,0-2.734,0-4.003,0c-1.906,0-3.974,0.543-6.196,1.621
			c-2.225,1.081-3.336,3.146-3.336,6.195v28.404c1.778,0,3.208-0.029,4.289-0.095c1.079-0.063,2.127-0.096,3.146-0.096
			c1.017,0,2.032-0.029,3.051-0.095c1.016-0.063,2.031,0.032,3.05,0.285c1.906,0.257,3.366,0.763,4.385,1.525
			c1.016,0.763,1.525,1.972,1.525,3.622c0,2.925-1.973,4.575-5.91,4.957c-1.019,0.256-2.034,0.351-3.05,0.285
			c-1.019-0.063-2.034-0.095-3.051-0.095c-1.019,0-2.066-0.03-3.146-0.096c-1.081-0.063-2.511-0.095-4.289-0.095v128.106h-12.01
			v-128.106c-1.781,0-3.211,0.032-4.289,0.095c-1.081,0.065-2.067,0.096-2.955,0.096c-1.019,0-1.906,0-2.669,0
			s-1.463-0.125-2.097-0.382c-1.272-0.253-2.258-0.729-2.955-1.43c-0.7-0.696-1.049-1.936-1.049-3.717
			c0-1.525,0.349-2.604,1.049-3.241c0.697-0.635,1.745-1.078,3.146-1.334c0.635-0.254,1.334-0.382,2.097-0.382
			c0.888,0,1.778,0,2.669,0c0.888,0,1.812,0.033,2.765,0.096c0.953,0.065,2.317,0.095,4.099,0.095v-27.451
			c0-5.591,1.62-10.199,4.861-13.821c3.24-3.622,7.655-5.433,13.249-5.433h7.244c2.031,0,3.779,0.51,5.242,1.525
			c1.46,1.019,2.192,2.287,2.192,3.813s-0.256,2.606-0.763,3.24c-0.51,0.638-1.271,1.082-2.287,1.335
			C1281.174,1402.661,1279.84,1402.852,1278.314,1402.852z"/>
		<path fill="#FFFFFF" d="M1329.308,1451.178c-1.591,0.7-3.273,1.558-5.052,2.574c-1.907,1.144-3.751,2.543-5.528,4.193
			c-1.781,1.653-3.402,3.75-4.861,6.291c-1.463,2.544-2.606,5.624-3.432,9.246c-0.828,3.622-1.239,7.911-1.239,12.868v50.518
			l-12.01,0.19v-93.22c0-1.65,0.571-3.051,1.716-4.194c1.144-1.144,2.603-1.716,4.384-1.716c1.65,0,3.08,0.477,4.29,1.43
			c1.206,0.953,1.811,2.13,1.811,3.527c0,0.762-0.032,1.462-0.095,2.097c-0.066,0.638-0.161,1.62-0.286,2.955
			c-0.128,1.334-0.286,3.306-0.477,5.909c-0.19,2.606-0.477,6.324-0.858,11.152c1.906-5.719,3.813-10.356,5.72-13.916
			c1.906-3.557,3.779-6.354,5.623-8.389c1.841-2.031,3.685-3.431,5.528-4.193c1.841-0.763,3.652-1.144,5.434-1.144
			c2.031,0,3.747,0.637,5.147,1.906c1.396,1.271,2.097,2.859,2.097,4.766s-1.144,3.497-3.432,4.766
			C1332.388,1449.686,1330.895,1450.481,1329.308,1451.178z"/>
		<path fill="#FFFFFF" d="M1351.706,1492.26c0,4.957,0.793,9.627,2.383,14.012c1.588,4.385,3.813,8.197,6.673,11.438
			c2.859,3.24,6.258,5.784,10.198,7.625c3.938,1.844,8.261,2.765,12.964,2.765c3.303,0,6.576-0.349,9.817-1.049
			c3.241-0.697,6.449-1.492,9.627-2.383l2.669,8.96c-3.94,1.524-7.658,2.734-11.152,3.622c-3.497,0.888-7.339,1.334-11.533,1.334
			c-7.244,0-13.663-1.367-19.254-4.099c-5.594-2.731-10.327-6.416-14.202-11.057c-3.879-4.638-6.833-10.038-8.865-16.204
			c-2.034-6.163-3.05-12.677-3.05-19.54c0-6.481,1.049-12.74,3.146-18.777c2.097-6.035,5.052-11.343,8.864-15.918
			c3.813-4.575,8.418-8.26,13.821-11.057c5.4-2.794,11.468-4.194,18.206-4.194c6.225,0,11.914,1.334,17.062,4.003
			s9.531,6.229,13.153,10.676c3.622,4.45,6.416,9.532,8.389,15.251c1.969,5.719,2.954,11.629,2.954,17.729
			c0,2.926-0.542,4.799-1.62,5.624c-1.081,0.828-3.211,1.239-6.386,1.239H1351.706z M1368.482,1450.225
			c-3.56,2.098-6.548,4.861-8.96,8.293c-2.416,3.432-4.289,7.372-5.624,11.819c-1.334,4.45-2.32,8.96-2.955,13.535h61.766
			c-0.128-4.447-0.953-8.864-2.478-13.249c-1.525-4.385-3.622-8.322-6.291-11.819c-2.669-3.494-5.91-6.321-9.723-8.483
			c-3.813-2.16-8.007-3.241-12.582-3.241C1376.423,1447.079,1372.039,1448.128,1368.482,1450.225z"/>
		<path fill="#FFFFFF" d="M1454.267,1492.26c0,4.957,0.793,9.627,2.383,14.012c1.588,4.385,3.813,8.197,6.673,11.438
			c2.859,3.24,6.258,5.784,10.198,7.625c3.938,1.844,8.261,2.765,12.964,2.765c3.303,0,6.576-0.349,9.817-1.049
			c3.241-0.697,6.449-1.492,9.627-2.383l2.669,8.96c-3.94,1.524-7.658,2.734-11.152,3.622c-3.497,0.888-7.339,1.334-11.533,1.334
			c-7.244,0-13.663-1.367-19.254-4.099c-5.594-2.731-10.327-6.416-14.202-11.057c-3.879-4.638-6.833-10.038-8.865-16.204
			c-2.034-6.163-3.05-12.677-3.05-19.54c0-6.481,1.049-12.74,3.146-18.777c2.097-6.035,5.052-11.343,8.864-15.918
			c3.813-4.575,8.418-8.26,13.821-11.057c5.4-2.794,11.468-4.194,18.206-4.194c6.225,0,11.914,1.334,17.062,4.003
			s9.531,6.229,13.153,10.676c3.622,4.45,6.416,9.532,8.389,15.251c1.969,5.719,2.954,11.629,2.954,17.729
			c0,2.926-0.542,4.799-1.62,5.624c-1.081,0.828-3.211,1.239-6.386,1.239H1454.267z M1471.043,1450.225
			c-3.56,2.098-6.548,4.861-8.96,8.293c-2.416,3.432-4.289,7.372-5.624,11.819c-1.334,4.45-2.32,8.96-2.955,13.535h61.766
			c-0.128-4.447-0.953-8.864-2.478-13.249c-1.525-4.385-3.622-8.322-6.291-11.819c-2.669-3.494-5.91-6.321-9.723-8.483
			c-3.813-2.16-8.007-3.241-12.582-3.241C1478.983,1447.079,1474.6,1448.128,1471.043,1450.225z"/>
	</g>
	<g>
		<path fill="#FFFFFF" d="M1300.048,238.646c-0.828,0.066-1.686,0.096-2.573,0.096c-0.891-0.125-1.844-0.191-2.859-0.191
			c-0.891,0-2.226,0-4.004,0v87.501h-11.819V238.55h-6.862c-0.891,0-1.716,0-2.479,0s-1.525-0.125-2.288-0.381
			c-1.271-0.253-2.258-0.729-2.954-1.43c-0.7-0.697-1.049-1.746-1.049-3.146c0-1.525,0.315-2.636,0.953-3.336
			c0.635-0.697,1.65-1.174,3.05-1.43c0.635-0.253,1.335-0.381,2.098-0.381s1.587,0,2.478,0h6.863v-24.973
			c0-1.778,0.572-3.336,1.716-4.671c1.144-1.334,2.541-2.001,4.193-2.001c1.65,0,3.08,0.667,4.29,2.001
			c1.206,1.334,1.811,2.893,1.811,4.671l-0.19,24.973c1.778,0,3.146-0.03,4.099-0.095c0.953-0.063,1.937-0.096,2.955-0.096
			c0.888,0,1.745,0.033,2.573,0.096c0.825,0.065,1.62,0.161,2.383,0.286c1.397,0.256,2.479,0.763,3.241,1.525
			c0.763,0.762,1.144,1.906,1.144,3.431c0,1.4-0.381,2.449-1.144,3.146c-0.763,0.7-1.844,1.239-3.241,1.621
			C1301.668,238.488,1300.873,238.583,1300.048,238.646z"/>
		<path fill="#FFFFFF" d="M1387.737,326.433c-1.082-1.144-1.621-2.541-1.621-4.194v-58.525c0-3.557-0.667-6.958-2.001-10.199
			c-1.335-3.241-3.179-6.1-5.528-8.579c-2.354-2.478-5.118-4.414-8.293-5.814c-3.179-1.397-6.609-2.097-10.294-2.097
			c-3.56,0-6.929,0.7-10.104,2.097c-3.178,1.4-5.942,3.307-8.292,5.719c-2.354,2.416-4.227,5.213-5.624,8.388
			c-1.399,3.178-2.097,6.547-2.097,10.104v63.1h-11.819v-138.02c0-1.778,0.602-3.271,1.811-4.48
			c1.207-1.207,2.637-1.811,4.289-1.811c1.65,0,3.051,0.604,4.194,1.811c1.144,1.209,1.716,2.639,1.716,4.289v56.809
			c4.828-6.734,9.657-11.405,14.488-14.011c4.828-2.604,9.723-3.908,14.679-3.908c5.338,0,10.134,0.923,14.394,2.764
			c4.256,1.844,7.911,4.385,10.961,7.625s5.367,7.119,6.958,11.628c1.588,4.513,2.383,9.374,2.383,14.584v58.334
			c0,1.781-0.571,3.241-1.715,4.385c-1.145,1.144-2.606,1.716-4.385,1.716C1390.183,328.149,1388.815,327.577,1387.737,326.433z"/>
		<path fill="#FFFFFF" d="M1428.438,281.634c0,4.957,0.793,9.627,2.383,14.012c1.588,4.385,3.813,8.197,6.673,11.438
			s6.258,5.785,10.198,7.625c3.938,1.844,8.261,2.764,12.964,2.764c3.303,0,6.576-0.349,9.817-1.048
			c3.241-0.697,6.449-1.492,9.627-2.383l2.669,8.959c-3.94,1.525-7.658,2.734-11.152,3.622c-3.497,0.888-7.339,1.334-11.533,1.334
			c-7.244,0-13.663-1.367-19.254-4.099c-5.594-2.731-10.327-6.416-14.202-11.057c-3.879-4.638-6.833-10.038-8.865-16.204
			c-2.034-6.163-3.05-12.677-3.05-19.54c0-6.481,1.049-12.74,3.146-18.777c2.097-6.035,5.052-11.343,8.864-15.918
			c3.813-4.576,8.418-8.26,13.821-11.057c5.4-2.794,11.468-4.194,18.206-4.194c6.225,0,11.914,1.334,17.062,4.003
			s9.531,6.228,13.153,10.675c3.622,4.45,6.416,9.532,8.389,15.251c1.969,5.719,2.954,11.629,2.954,17.729
			c0,2.925-0.542,4.799-1.62,5.624c-1.081,0.828-3.211,1.239-6.386,1.239H1428.438z M1445.214,239.599
			c-3.56,2.097-6.548,4.861-8.96,8.293c-2.416,3.431-4.289,7.372-5.624,11.819c-1.334,4.45-2.32,8.96-2.955,13.535h61.766
			c-0.128-4.447-0.953-8.865-2.478-13.25c-1.525-4.384-3.622-8.322-6.291-11.819c-2.669-3.494-5.91-6.321-9.723-8.483
			c-3.813-2.16-8.007-3.241-12.582-3.241C1453.154,236.453,1448.771,237.502,1445.214,239.599z"/>
	</g>
</g>
</svg>
