<?xml version="1.0" encoding="utf-8"?>
<!-- Generator: Adobe Illustrator 20.1.0, SVG Export Plug-In . SVG Version: 6.00 Build 0)  -->
<svg version="1.1" id="Layer_1" xmlns="http://www.w3.org/2000/svg" xmlns:xlink="http://www.w3.org/1999/xlink" x="0px" y="0px"
	 viewBox="0 0 1296 864" style="enable-background:new 0 0 1296 864;" xml:space="preserve">
<style type="text/css">
	.st0{fill:#DBDBDB;}
	.st1{fill:#FFFFFF;}
</style>
<rect id="photo" class="st0" width="1296" height="864"/>
<g id="filltext">
	<g>
		<path class="st1" d="M33.5,87.7V61.1h-3.6c-1.5,0-2.9-1.4-2.9-2.9c0-1.6,1.4-2.9,2.9-2.9h3.6V44.9c0-1.8,1.4-3.3,3.2-3.3
			c1.8,0,3.3,1.5,3.3,3.3v10.4h11.4c1.6,0,3,1.4,3,2.9c0,1.6-1.4,2.9-3,2.9H40.1v25.8c0,5.4,3,7.3,7.4,7.3c2.3,0,3.5-0.6,4-0.6
			c1.5,0,2.8,1.3,2.8,2.8c0,1.2-0.8,2.1-1.9,2.6c-1.9,0.8-3.9,1.2-6.5,1.2C38.9,100.2,33.5,96.7,33.5,87.7z"/>
		<path class="st1" d="M65.7,40c0-1.8,1.5-3.3,3.2-3.3c1.9,0,3.3,1.5,3.3,3.3v23c2.9-4.8,7.5-8.6,15.1-8.6
			c10.7,0,16.9,7.2,16.9,17.7v24.5c0,1.9-1.5,3.3-3.2,3.3c-1.9,0-3.3-1.5-3.3-3.3V73.6c0-8.2-4.4-13.3-12.2-13.3
			c-7.6,0-13.2,5.5-13.2,13.8v22.4c0,1.9-1.4,3.3-3.2,3.3c-1.9,0-3.3-1.5-3.3-3.3V40z"/>
		<path class="st1" d="M137.6,100.4c-12.1,0-22-9.3-22-23v-0.2c0-12.7,9-23,21.2-23c13.1,0,20.5,10.7,20.5,22.4
			c0,1.8-1.5,3.1-3.1,3.1h-31.9c0.9,9.6,7.7,14.9,15.5,14.9c5.5,0,9.5-2.1,12.7-5.1c0.5-0.4,1.1-0.8,1.9-0.8c1.6,0,2.9,1.3,2.9,2.8
			c0,0.8-0.3,1.5-1,2.1C150.1,97.8,145.1,100.4,137.6,100.4z M150.7,74.9c-0.7-8-5.3-15-14.1-15c-7.7,0-13.5,6.4-14.3,15H150.7z"/>
		<path class="st1" d="M31.2,142.5c0-1.9,1.5-3.3,3.2-3.3c1.9,0,3.3,1.5,3.3,3.3v24.2c3.6-5.3,8.8-9.8,16.9-9.8
			c10.6,0,21.1,8.4,21.1,22.9v0.2c0,14.4-10.4,23-21.1,23c-8.2,0-13.5-4.4-16.9-9.4v5.5c0,1.8-1.4,3.3-3.2,3.3s-3.3-1.5-3.3-3.3
			V142.5z M69.1,179.9v-0.2c0-10.4-7.2-17.1-15.5-17.1c-8.2,0-16,6.9-16,17v0.2c0,10.2,7.8,17.1,16,17.1
			C62.1,196.9,69.1,190.6,69.1,179.9z"/>
		<path class="st1" d="M107.2,202.9c-12.1,0-22-9.3-22-23v-0.2c0-12.7,9-23,21.2-23c13.1,0,20.5,10.7,20.5,22.4
			c0,1.8-1.5,3.1-3.1,3.1H91.9c0.9,9.6,7.7,14.9,15.5,14.9c5.5,0,9.5-2.1,12.7-5.1c0.5-0.4,1.1-0.8,1.9-0.8c1.6,0,2.9,1.3,2.9,2.8
			c0,0.8-0.3,1.5-1,2.1C119.7,200.3,114.7,202.9,107.2,202.9z M120.3,177.4c-0.7-8-5.3-15-14.1-15c-7.7,0-13.5,6.4-14.3,15H120.3z"
			/>
		<path class="st1" d="M136.1,197.2c-0.6-0.4-1.2-1.3-1.2-2.4c0-1.5,1.3-2.8,2.9-2.8c0.6,0,1.2,0.2,1.6,0.5c4.5,3.1,9.2,4.7,14,4.7
			c5.3,0,9.1-2.7,9.1-7V190c0-4.4-5.2-6.1-11-7.8c-6.9-2-14.6-4.4-14.6-12.5v-0.2c0-7.6,6.3-12.6,15-12.6c4.7,0,9.8,1.5,14.1,3.8
			c0.9,0.5,1.6,1.5,1.6,2.7c0,1.5-1.3,2.8-2.9,2.8c-0.6,0-1.1-0.2-1.5-0.3c-3.8-2.1-7.8-3.4-11.5-3.4c-5.2,0-8.5,2.7-8.5,6.4v0.2
			c0,4.2,5.5,5.8,11.4,7.6c6.8,2,14.2,4.7,14.2,12.6v0.2c0,8.4-6.9,13.2-15.7,13.2C147.3,202.7,140.9,200.6,136.1,197.2z"/>
		<path class="st1" d="M182.4,190.2v-26.6h-3.6c-1.5,0-2.9-1.4-2.9-2.9c0-1.6,1.4-2.9,2.9-2.9h3.6v-10.4c0-1.8,1.4-3.3,3.2-3.3
			c1.8,0,3.3,1.5,3.3,3.3v10.4h11.4c1.6,0,3,1.4,3,2.9c0,1.6-1.4,2.9-3,2.9H189v25.8c0,5.4,3,7.3,7.4,7.3c2.3,0,3.5-0.6,4-0.6
			c1.5,0,2.8,1.3,2.8,2.8c0,1.2-0.8,2.1-1.9,2.6c-1.9,0.8-3.9,1.2-6.5,1.2C187.8,202.7,182.4,199.2,182.4,190.2z"/>
		<path class="st1" d="M33.5,292.7V266h-3.6c-1.5,0-2.9-1.4-2.9-2.9c0-1.6,1.4-2.9,2.9-2.9h3.6v-10.4c0-1.8,1.4-3.3,3.2-3.3
			c1.8,0,3.3,1.5,3.3,3.3v10.4h11.4c1.6,0,3,1.4,3,2.9c0,1.6-1.4,2.9-3,2.9H40.1v25.8c0,5.4,3,7.3,7.4,7.3c2.3,0,3.5-0.6,4-0.6
			c1.5,0,2.8,1.3,2.8,2.8c0,1.2-0.8,2.1-1.9,2.6c-1.9,0.8-3.9,1.2-6.5,1.2C38.9,305.1,33.5,301.6,33.5,292.7z"/>
		<path class="st1" d="M65.7,244.9c0-1.8,1.5-3.3,3.2-3.3c1.9,0,3.3,1.5,3.3,3.3v23c2.9-4.8,7.5-8.6,15.1-8.6
			c10.7,0,16.9,7.2,16.9,17.7v24.5c0,1.9-1.5,3.3-3.2,3.3c-1.9,0-3.3-1.5-3.3-3.3v-22.9c0-8.2-4.4-13.3-12.2-13.3
			c-7.6,0-13.2,5.5-13.2,13.8v22.4c0,1.9-1.4,3.3-3.2,3.3c-1.9,0-3.3-1.5-3.3-3.3V244.9z"/>
		<path class="st1" d="M137.6,305.4c-12.1,0-22-9.3-22-23v-0.2c0-12.7,9-23,21.2-23c13.1,0,20.5,10.7,20.5,22.4
			c0,1.8-1.5,3.1-3.1,3.1h-31.9c0.9,9.6,7.7,14.9,15.5,14.9c5.5,0,9.5-2.1,12.7-5.1c0.5-0.4,1.1-0.8,1.9-0.8c1.6,0,2.9,1.3,2.9,2.8
			c0,0.8-0.3,1.5-1,2.1C150.1,302.7,145.1,305.4,137.6,305.4z M150.7,279.8c-0.7-8-5.3-15-14.1-15c-7.7,0-13.5,6.4-14.3,15H150.7z"
			/>
		<path class="st1" d="M168.9,263.1c0-1.8,1.5-3.3,3.2-3.3c1.9,0,3.3,1.5,3.3,3.3v8.3c3.2-7.3,9.6-11.8,15.2-11.8
			c2,0,3.2,1.5,3.2,3.3c0,1.8-1.2,3.1-2.9,3.3c-8.5,1-15.5,7.4-15.5,20.2v15c0,1.8-1.4,3.3-3.2,3.3s-3.3-1.5-3.3-3.3V263.1z"/>
		<path class="st1" d="M198,291.5v-0.2c0-9.3,7.7-14.3,18.9-14.3c5.6,0,9.6,0.8,13.6,1.9v-1.5c0-7.9-4.9-12-13.1-12
			c-4.4,0-8.2,1-11.4,2.5c-0.4,0.2-0.9,0.3-1.2,0.3c-1.5,0-2.9-1.3-2.9-2.8c0-1.4,0.9-2.4,1.8-2.7c4.4-1.9,8.8-3,14.4-3
			c6.2,0,11,1.6,14.3,4.9c3,3,4.5,7.3,4.5,12.9v24.2c0,1.9-1.4,3.2-3.2,3.2c-1.9,0-3.2-1.4-3.2-3.1v-4c-3.1,4-8.2,7.6-16,7.6
			C206.3,305.3,198,300.6,198,291.5z M230.5,288.1v-4.3c-3.2-0.9-7.6-1.9-13-1.9c-8.3,0-12.9,3.6-12.9,9.1v0.2
			c0,5.5,5.1,8.8,11.1,8.8C223.9,300.1,230.5,295.1,230.5,288.1z"/>
		<path class="st1" d="M250.8,263.1c0-1.9,1.5-3.3,3.2-3.3c1.9,0,3.3,1.5,3.3,3.3v6c3.6-5.3,8.8-9.8,16.9-9.8
			c10.6,0,21.1,8.4,21.1,22.9v0.2c0,14.4-10.4,23-21.1,23c-8.2,0-13.5-4.4-16.9-9.4v19.2c0,1.9-1.4,3.3-3.2,3.3s-3.3-1.5-3.3-3.3
			V263.1z M288.6,282.4v-0.2c0-10.4-7.2-17.1-15.5-17.1c-8.2,0-16,6.9-16,17v0.2c0,10.2,7.8,17.1,16,17.1
			C281.6,299.4,288.6,293.1,288.6,282.4z"/>
		<path class="st1" d="M307.5,246.4c0-2.1,1.7-3.5,3.8-3.5c2.2,0,3.9,1.4,3.9,3.5v1.1c0,2-1.7,3.5-3.9,3.5c-2.1,0-3.8-1.5-3.8-3.5
			V246.4z M308,263.1c0-1.8,1.5-3.3,3.2-3.3c1.9,0,3.3,1.5,3.3,3.3v38.3c0,1.9-1.4,3.3-3.2,3.3c-1.9,0-3.3-1.5-3.3-3.3V263.1z"/>
		<path class="st1" d="M327.5,299.7c-0.6-0.4-1.2-1.3-1.2-2.4c0-1.5,1.3-2.8,2.9-2.8c0.6,0,1.2,0.2,1.6,0.5c4.5,3.1,9.2,4.7,14,4.7
			c5.3,0,9.1-2.7,9.1-7v-0.2c0-4.4-5.2-6.1-11-7.8c-6.9-2-14.6-4.4-14.6-12.5v-0.2c0-7.6,6.3-12.6,15-12.6c4.7,0,9.8,1.5,14.1,3.8
			c0.9,0.5,1.6,1.5,1.6,2.7c0,1.5-1.3,2.8-2.9,2.8c-0.6,0-1.1-0.2-1.5-0.3c-3.8-2.1-7.8-3.4-11.5-3.4c-5.2,0-8.5,2.7-8.5,6.4v0.2
			c0,4.2,5.5,5.8,11.4,7.6c6.8,2,14.2,4.7,14.2,12.6v0.2c0,8.4-6.9,13.2-15.7,13.2C338.7,305.2,332.3,303.1,327.5,299.7z"/>
		<path class="st1" d="M373.9,292.7V266h-3.6c-1.5,0-2.9-1.4-2.9-2.9c0-1.6,1.4-2.9,2.9-2.9h3.6v-10.4c0-1.8,1.4-3.3,3.2-3.3
			c1.8,0,3.3,1.5,3.3,3.3v10.4h11.4c1.6,0,3,1.4,3,2.9c0,1.6-1.4,2.9-3,2.9h-11.4v25.8c0,5.4,3,7.3,7.4,7.3c2.3,0,3.5-0.6,4-0.6
			c1.5,0,2.8,1.3,2.8,2.8c0,1.2-0.8,2.1-1.9,2.6c-1.9,0.8-3.9,1.2-6.5,1.2C379.3,305.1,373.9,301.6,373.9,292.7z"/>
		<path class="st1" d="M31.2,347.4c0-1.8,1.5-3.3,3.2-3.3c1.9,0,3.3,1.5,3.3,3.3v23c2.9-4.8,7.5-8.6,15.1-8.6
			c10.7,0,16.9,7.2,16.9,17.7v24.5c0,1.9-1.5,3.3-3.2,3.3c-1.9,0-3.3-1.5-3.3-3.3V381c0-8.2-4.4-13.3-12.2-13.3
			c-7.6,0-13.2,5.5-13.2,13.8v22.4c0,1.9-1.4,3.3-3.2,3.3s-3.3-1.5-3.3-3.3V347.4z"/>
		<path class="st1" d="M80.5,394v-0.2c0-9.3,7.7-14.3,18.9-14.3c5.6,0,9.6,0.8,13.6,1.9v-1.5c0-7.9-4.9-12-13.1-12
			c-4.4,0-8.2,1-11.4,2.5c-0.4,0.2-0.9,0.3-1.2,0.3c-1.5,0-2.9-1.3-2.9-2.8c0-1.4,0.9-2.4,1.8-2.7c4.4-1.9,8.8-3,14.4-3
			c6.2,0,11,1.6,14.3,4.9c3,3,4.5,7.3,4.5,12.9V404c0,1.9-1.4,3.2-3.2,3.2c-1.9,0-3.2-1.4-3.2-3.1v-4c-3.1,4-8.2,7.6-16,7.6
			C88.8,407.8,80.5,403.1,80.5,394z M113,390.6v-4.3c-3.2-0.9-7.6-1.9-13-1.9c-8.3,0-12.9,3.6-12.9,9.1v0.2c0,5.5,5.1,8.8,11.1,8.8
			C106.4,402.5,113,397.6,113,390.6z"/>
		<path class="st1" d="M130.9,402.1c-0.6-0.4-1.2-1.3-1.2-2.4c0-1.5,1.3-2.8,2.9-2.8c0.6,0,1.2,0.2,1.6,0.5c4.5,3.1,9.2,4.7,14,4.7
			c5.3,0,9.1-2.7,9.1-7v-0.2c0-4.4-5.2-6.1-11-7.8c-6.9-2-14.6-4.4-14.6-12.5v-0.2c0-7.6,6.3-12.6,15-12.6c4.7,0,9.8,1.5,14.1,3.8
			c0.9,0.5,1.6,1.5,1.6,2.7c0,1.5-1.3,2.8-2.9,2.8c-0.6,0-1.1-0.2-1.5-0.3c-3.8-2.1-7.8-3.4-11.5-3.4c-5.2,0-8.5,2.7-8.5,6.4v0.2
			c0,4.2,5.5,5.8,11.4,7.6c6.8,2,14.2,4.7,14.2,12.6v0.2c0,8.4-6.9,13.2-15.7,13.2C142.1,407.7,135.7,405.5,130.9,402.1z"/>
		<path class="st1" d="M33.7,470.9h-3.6c-1.6,0-2.8-1.3-2.8-2.9c0-1.5,1.3-2.8,2.8-2.8h3.6v-3.8c0-5,1.4-8.9,3.8-11.4
			c2.2-2.2,5.5-3.4,9.5-3.4c2.1,0,3.8,0.2,5.2,0.5c1.3,0.3,2.4,1.4,2.4,2.8c0,1.7-1.5,3-3.2,2.8c-1.1-0.2-2.3-0.4-3.6-0.4
			c-5.1,0-7.7,3.1-7.7,9.4v3.6h11.4c1.6,0,2.9,1.2,2.9,2.8c0,1.5-1.3,2.8-2.9,2.8H40.3v35.4c0,1.8-1.4,3.3-3.2,3.3
			c-1.9,0-3.3-1.5-3.3-3.3V470.9z"/>
		<path class="st1" d="M100.4,506.4c0,1.8-1.4,3.3-3.2,3.3c-1.8,0-3.2-1.5-3.2-3.3v-4.8c-3,4.8-7.5,8.6-15.1,8.6
			c-10.7,0-16.9-7.2-16.9-17.7V468c0-1.9,1.4-3.3,3.2-3.3c1.8,0,3.3,1.5,3.3,3.3v22.9c0,8.2,4.4,13.3,12.2,13.3
			c7.5,0,13.2-5.6,13.2-13.8V468c0-1.9,1.4-3.3,3.2-3.3c1.8,0,3.2,1.5,3.2,3.3V506.4z"/>
		<path class="st1" d="M115.2,468c0-1.8,1.5-3.3,3.2-3.3c1.9,0,3.3,1.5,3.3,3.3v8.3c3.2-7.3,9.6-11.8,15.2-11.8c2,0,3.2,1.5,3.2,3.3
			c0,1.8-1.2,3.1-2.9,3.3c-8.5,1-15.5,7.4-15.5,20.2v15c0,1.8-1.4,3.3-3.2,3.3c-1.9,0-3.3-1.5-3.3-3.3V468z"/>
		<path class="st1" d="M27.9,598.9v-0.2c0-9.3,7.7-14.3,18.9-14.3c5.6,0,9.6,0.8,13.6,1.9v-1.5c0-7.9-4.9-12-13.1-12
			c-4.4,0-8.2,1-11.4,2.5c-0.4,0.2-0.9,0.3-1.2,0.3c-1.5,0-2.9-1.3-2.9-2.8c0-1.4,0.9-2.4,1.8-2.7c4.4-1.9,8.8-3,14.4-3
			c6.2,0,11,1.6,14.3,4.9c3,3,4.5,7.3,4.5,12.9v24.2c0,1.9-1.4,3.2-3.2,3.2c-1.9,0-3.2-1.4-3.2-3.1v-4c-3.1,4-8.2,7.6-16,7.6
			C36.2,612.7,27.9,608,27.9,598.9z M60.4,595.5v-4.3c-3.2-0.9-7.6-1.9-13-1.9c-8.3,0-12.9,3.6-12.9,9.1v0.2c0,5.5,5.1,8.8,11.1,8.8
			C53.8,607.5,60.4,602.5,60.4,595.5z"/>
		<path class="st1" d="M80.7,570.5c0-1.8,1.5-3.3,3.2-3.3c1.9,0,3.3,1.5,3.3,3.3v4.8c2.9-4.8,7.5-8.6,15.1-8.6
			c10.7,0,16.9,7.2,16.9,17.7v24.5c0,1.9-1.5,3.3-3.2,3.3c-1.9,0-3.3-1.5-3.3-3.3V586c0-8.2-4.4-13.3-12.2-13.3
			c-7.6,0-13.2,5.6-13.2,13.8v22.4c0,1.9-1.4,3.3-3.2,3.3s-3.3-1.5-3.3-3.3V570.5z"/>
		<path class="st1" d="M175.3,608.8c0,1.9-1.5,3.3-3.2,3.3c-1.9,0-3.3-1.5-3.3-3.3v-6c-3.6,5.3-8.8,9.8-16.9,9.8
			c-10.6,0-21.1-8.4-21.1-22.9v-0.2c0-14.4,10.5-23,21.1-23c8.2,0,13.5,4.4,16.9,9.4v-23.7c0-1.9,1.4-3.3,3.2-3.3s3.3,1.5,3.3,3.3
			V608.8z M137.4,589.5v0.2c0,10.4,7.3,17.1,15.5,17.1c8.2,0,16-6.9,16-17.1v-0.2c0-10.2-7.8-17-16-17
			C144.4,572.6,137.4,578.9,137.4,589.5z"/>
		<path class="st1" d="M33.7,675.9h-3.6c-1.6,0-2.8-1.3-2.8-2.9c0-1.5,1.3-2.8,2.8-2.8h3.6v-3.8c0-5,1.4-8.9,3.8-11.4
			c2.2-2.2,5.5-3.4,9.5-3.4c2.1,0,3.8,0.2,5.2,0.5c1.3,0.3,2.4,1.4,2.4,2.8c0,1.7-1.5,3-3.2,2.8c-1.1-0.2-2.3-0.4-3.6-0.4
			c-5.1,0-7.7,3.1-7.7,9.4v3.6h11.4c1.6,0,2.9,1.2,2.9,2.8c0,1.5-1.3,2.8-2.9,2.8H40.3v35.4c0,1.8-1.4,3.3-3.2,3.3
			c-1.9,0-3.3-1.5-3.3-3.3V675.9z"/>
		<path class="st1" d="M59,692.3v-0.2c0-12.5,9.7-23.1,23.1-23.1c13.2,0,23,10.4,23,22.9v0.2c0,12.5-9.8,23.1-23.1,23.1
			C68.6,715.2,59,704.8,59,692.3z M98.3,692.3v-0.2c0-9.5-7.1-17.2-16.4-17.2c-9.6,0-16.1,7.8-16.1,17.1v0.2c0,9.5,7,17.2,16.3,17.2
			C91.6,709.3,98.3,701.7,98.3,692.3z"/>
		<path class="st1" d="M154.7,711.3c0,1.8-1.4,3.3-3.2,3.3c-1.8,0-3.2-1.5-3.2-3.3v-4.8c-3,4.8-7.5,8.6-15.1,8.6
			c-10.7,0-16.9-7.2-16.9-17.7V673c0-1.9,1.4-3.3,3.2-3.3c1.8,0,3.3,1.5,3.3,3.3v22.9c0,8.2,4.4,13.3,12.2,13.3
			c7.5,0,13.2-5.5,13.2-13.8V673c0-1.9,1.4-3.3,3.2-3.3c1.8,0,3.2,1.5,3.2,3.3V711.3z"/>
		<path class="st1" d="M169.5,673c0-1.8,1.5-3.3,3.2-3.3c1.9,0,3.3,1.5,3.3,3.3v8.3c3.2-7.3,9.6-11.8,15.2-11.8c2,0,3.2,1.5,3.2,3.3
			c0,1.8-1.2,3.1-2.9,3.3c-8.5,1-15.5,7.4-15.5,20.2v15c0,1.8-1.4,3.3-3.2,3.3s-3.3-1.5-3.3-3.3V673z"/>
		<path class="st1" d="M31.8,757.2c0-1.8,1.5-3.3,3.2-3.3c1.9,0,3.3,1.5,3.3,3.3v56.5c0,1.9-1.4,3.3-3.2,3.3s-3.3-1.5-3.3-3.3V757.2
			z"/>
		<path class="st1" d="M73,817.7c-12.1,0-22-9.3-22-23v-0.2c0-12.7,9-23,21.2-23c13.1,0,20.5,10.7,20.5,22.4c0,1.8-1.5,3.1-3.1,3.1
			H57.6c0.9,9.6,7.7,14.9,15.5,14.9c5.5,0,9.5-2.1,12.7-5.1c0.5-0.4,1.1-0.8,1.9-0.8c1.6,0,2.9,1.3,2.9,2.8c0,0.8-0.3,1.5-1,2.1
			C85.4,815,80.5,817.7,73,817.7z M86,792.2c-0.7-8-5.3-15-14.1-15c-7.7,0-13.5,6.4-14.3,15H86z"/>
		<path class="st1" d="M105.3,825.3c-1-0.5-1.7-1.5-1.7-2.7c0-1.5,1.5-2.9,3-2.9c0.6,0,1,0.2,1.5,0.4c4.6,3.1,9.9,4.8,15.6,4.8
			c9.7,0,16.1-5.4,16.1-15.7V804c-3.8,5.1-9.2,9.3-17.3,9.3c-10.6,0-20.7-7.9-20.7-20.7v-0.2c0-12.9,10.2-20.8,20.7-20.8
			c8.3,0,13.7,4.1,17.2,8.9v-5c0-1.8,1.4-3.3,3.2-3.3s3.3,1.5,3.3,3.3V809c0,6.8-2,12-5.6,15.6c-3.9,3.9-9.8,5.9-16.8,5.9
			C117,830.5,110.9,828.7,105.3,825.3z M139.9,792.5v-0.2c0-9.1-7.9-14.9-16.2-14.9s-15.3,5.8-15.3,14.9v0.2c0,8.9,7.1,15,15.3,15
			C132.1,807.4,139.9,801.4,139.9,792.5z"/>
		<path class="st1" d="M158.5,812c-0.6-0.4-1.2-1.3-1.2-2.4c0-1.5,1.3-2.8,2.9-2.8c0.6,0,1.2,0.2,1.6,0.5c4.5,3.1,9.2,4.7,14,4.7
			c5.3,0,9.1-2.7,9.1-7v-0.2c0-4.4-5.2-6.1-11-7.8c-6.9-2-14.6-4.4-14.6-12.5v-0.2c0-7.6,6.3-12.6,15-12.6c4.7,0,9.8,1.5,14.1,3.8
			c0.9,0.5,1.6,1.5,1.6,2.7c0,1.5-1.3,2.8-2.9,2.8c-0.6,0-1.1-0.2-1.5-0.3c-3.8-2.1-7.8-3.4-11.5-3.4c-5.2,0-8.5,2.7-8.5,6.4v0.2
			c0,4.2,5.5,5.8,11.4,7.6c6.8,2,14.2,4.7,14.2,12.6v0.2c0,8.4-6.9,13.2-15.7,13.2C169.7,817.5,163.3,815.4,158.5,812z"/>
	</g>
</g>
</svg>
