<?xml version="1.0" encoding="utf-8"?>
<!-- Generator: Adobe Illustrator 14.0.0, SVG Export Plug-In . SVG Version: 6.00 Build 43363)  -->
<!DOCTYPE svg PUBLIC "-//W3C//DTD SVG 1.1//EN" "http://www.w3.org/Graphics/SVG/1.1/DTD/svg11.dtd">
<svg version="1.1" id="Layer_1" xmlns="http://www.w3.org/2000/svg" xmlns:xlink="http://www.w3.org/1999/xlink" x="0px" y="0px"
	 width="720px" height="576px" viewBox="0 0 720 576" enable-background="new 0 0 720 576" xml:space="preserve">
<rect id="photo" fill="#D0D2D3" width="720" height="576"/>
<rect id="fill-shadow" x="430" opacity="0.75" fill="#FFFFFF" width="290" height="576"/>
<g id="fill-dr-seuss">
	<g>
		<path fill="#929497" d="M563.381,528.506v1.639h-8.194v-1.639H563.381z"/>
		<path fill="#929497" d="M565.839,535.882v-0.493c2.185,0,3.276-0.382,3.276-1.146v-18.026c0-0.766-1.092-1.148-3.276-1.148v-0.49
			c5.464-0.273,9.778-0.137,12.946,0.409c5.571,1.365,8.357,4.779,8.357,10.241c0,5.463-2.786,8.877-8.357,10.243
			C575.617,536.018,571.303,536.155,565.839,535.882z M571.576,535.226c8.737,0,13.108-3.331,13.108-9.997
			c0-6.663-4.371-9.996-13.108-9.996V535.226z"/>
		<path fill="#929497" d="M591.566,526.212c0-0.436-0.219-0.75-0.653-0.941c-0.438-0.191-1.039-0.315-1.805-0.37v-0.49
			c0.875-0.11,1.667-0.37,2.376-0.778c0.711-0.41,1.229-0.806,1.557-1.188h0.492v3.768c0.875-2.622,2.049-3.933,3.522-3.933
			c1.478,0,2.213,0.438,2.213,1.311c0,0.875-0.192,1.394-0.574,1.557c-0.382,0.165-0.818,0.082-1.31-0.246
			c-0.491-0.327-1.066-0.519-1.721-0.573c-0.656-0.053-1.366,0.847-2.131,2.705v7.211c0,0.764,0.818,1.146,2.457,1.146v0.493
			c-1.145,0-2.006-0.028-2.578-0.083c-0.575-0.054-1.149-0.054-1.723,0c-0.572,0.055-1.434,0.083-2.581,0.083v-0.493
			c1.639,0,2.458-0.382,2.458-1.146V526.212z"/>
		<path fill="#929497" d="M602.384,535.882c-0.328-0.329-0.493-0.711-0.493-1.148c0-0.436,0.165-0.818,0.493-1.147
			c0.326-0.326,0.708-0.49,1.146-0.49c0.437,0,0.819,0.164,1.146,0.49c0.328,0.329,0.492,0.712,0.492,1.147
			c0,0.438-0.164,0.819-0.492,1.148c-0.327,0.327-0.71,0.49-1.146,0.49C603.092,536.372,602.71,536.209,602.384,535.882z"/>
		<path fill="#929497" d="M618.279,529.161c0.437,3.169,1.543,5.122,3.317,5.859c1.776,0.738,3.524,0.738,5.244,0
			c1.722-0.737,2.582-2.15,2.582-4.235c0-2.087-2.021-3.666-6.064-4.736c-4.042-1.071-6.063-2.756-6.063-5.056
			c0-2.301,0.492-4.026,1.474-5.178c0.984-1.154,2.705-1.729,5.162-1.729c1.857,0,3.265,0.272,4.221,0.82
			c0.957,0.545,1.761,0.818,2.417,0.818v4.587h-0.983c-0.328-2.784-1.352-4.479-3.073-5.079c-1.721-0.6-3.395-0.595-5.022,0.017
			c-1.627,0.612-2.441,1.868-2.441,3.77c0,1.9,2.029,3.389,6.089,4.467c4.058,1.074,6.087,2.849,6.087,5.315
			c0,2.471-0.605,4.349-1.819,5.637c-1.212,1.29-2.87,1.935-4.973,1.935c-2.104,0-3.654-0.354-4.654-1.063
			c-1.001-0.712-1.827-1.065-2.482-1.065v-5.082H618.279z"/>
		<path fill="#929497" d="M636.306,534.333c-1.203-1.36-1.804-3.03-1.804-5.007c0-2.186,0.711-3.906,2.131-5.163
			c1.419-1.255,2.841-1.884,4.26-1.884c1.859,0,3.306,0.519,4.344,1.557s1.557,2.321,1.557,3.853h-10.326
			c0,2.401,0.466,4.123,1.396,5.16c0.928,1.038,1.939,1.557,3.03,1.557c1.64,0,3.441-0.872,5.408-2.622l0.492,0.328
			c-1.858,2.841-3.934,4.261-6.228,4.261C638.927,536.372,637.507,535.692,636.306,534.333z M644.662,527.032
			c0-1.095-0.343-2.049-1.03-2.869c-0.689-0.818-1.492-1.229-2.41-1.229c-1.639,0-2.841,0.438-3.605,1.311
			c-0.765,0.874-1.149,1.804-1.149,2.787H644.662z"/>
		<path fill="#929497" d="M650.563,525.884c0-0.765-0.204-1.228-0.614-1.393c-0.411-0.164-0.916-0.246-1.517-0.246v-0.49
			c0.819-0.11,1.462-0.247,1.927-0.41c0.464-0.165,1.022-0.464,1.679-0.9h0.492v7.7c0,1.967,0.322,3.225,0.966,3.771
			c0.645,0.546,1.578,0.818,2.802,0.818c1.093,0,2.188-0.765,3.279-2.294v-6.556c0-0.765-0.206-1.228-0.615-1.393
			c-0.41-0.164-0.916-0.246-1.516-0.246v-0.49c0.818-0.11,1.461-0.247,1.925-0.41c0.464-0.165,1.026-0.464,1.68-0.9h0.491v11.142
			c0,0.875,0.821,1.312,2.46,1.312v0.491c-0.82,0.11-1.545,0.219-2.172,0.327c-0.63,0.111-1.218,0.328-1.761,0.656h-0.492v-3.112
			c-1.433,2.075-2.962,3.112-4.59,3.112c-1.092,0-2.104-0.354-3.032-1.063c-0.929-0.712-1.392-1.886-1.392-3.525V525.884z"/>
		<path fill="#929497" d="M665.968,535.389v-3.769h0.654c0.218,1.749,0.94,2.896,2.162,3.441c0.744,0.327,1.444,0.491,2.1,0.491
			c0.414,0,0.84-0.081,1.278-0.244c1.005-0.385,1.506-1.188,1.506-2.419c0-1.229-1.283-2.184-3.851-2.868
			c-2.566-0.682-3.85-1.788-3.85-3.316c0-1.531,0.354-2.623,1.063-3.278c0.712-0.655,1.831-0.982,3.359-0.982
			c1.53,0,2.568,0.163,3.114,0.49s1.038,0.492,1.475,0.492v2.95h-0.656c-0.217-1.749-0.917-2.787-2.097-3.115
			c-0.394-0.108-0.979-0.163-1.754-0.163c-0.774,0-1.25,0.026-1.426,0.081c-0.961,0.274-1.441,0.972-1.441,2.091
			s1.283,2.021,3.851,2.702c2.568,0.685,3.851,1.844,3.851,3.483s-0.423,2.842-1.269,3.605c-0.847,0.766-1.94,1.147-3.278,1.147
			s-2.362-0.137-3.073-0.41C666.977,535.525,666.402,535.389,665.968,535.389z"/>
		<path fill="#929497" d="M678.586,535.389v-3.769h0.654c0.219,1.749,0.94,2.896,2.164,3.441c0.742,0.327,1.44,0.491,2.097,0.491
			c0.416,0,0.842-0.081,1.278-0.244c1.006-0.385,1.508-1.188,1.508-2.419c0-1.229-1.284-2.184-3.851-2.868
			c-2.567-0.682-3.851-1.788-3.851-3.316c0-1.531,0.354-2.623,1.064-3.278s1.829-0.982,3.36-0.982c1.529,0,2.567,0.163,3.112,0.49
			c0.547,0.327,1.039,0.492,1.475,0.492v2.95h-0.654c-0.22-1.749-0.918-2.787-2.099-3.115c-0.394-0.108-0.978-0.163-1.753-0.163
			c-0.776,0-1.252,0.026-1.425,0.081c-0.962,0.274-1.443,0.972-1.443,2.091s1.284,2.021,3.853,2.702
			c2.566,0.685,3.85,1.844,3.85,3.483s-0.425,2.842-1.271,3.605c-0.846,0.766-1.938,1.147-3.277,1.147
			c-1.337,0-2.363-0.137-3.072-0.41C679.596,535.525,679.021,535.389,678.586,535.389z"/>
	</g>
</g>
<g id="fill-plain-lines">
	<g>
		<path fill="#404041" d="M474.227,79.417v-0.579c2.572,0,3.86-0.45,3.86-1.351V55.105h-4.825c-1.544,0-2.636,0.257-3.279,0.771
			c-0.644,0.515-1.223,1.577-1.737,3.185h-0.771c0.385-1.865,0.578-3.441,0.578-4.728h22.963c0,1.287,0.192,2.862,0.579,4.728
			h-0.772c-0.516-1.608-1.093-2.67-1.736-3.185c-0.644-0.514-1.738-0.771-3.28-0.771h-4.824v22.383c0,0.9,1.286,1.351,3.859,1.351
			v0.579c-1.775,0-3.104-0.031-3.984-0.096c-0.881-0.064-1.763-0.064-2.644,0C477.33,79.386,476.002,79.417,474.227,79.417z"/>
		<path fill="#404041" d="M495.452,56.842c0-0.901-0.307-1.447-0.917-1.64c-0.612-0.193-1.27-0.29-1.978-0.29v-0.579
			c0.965-0.129,1.817-0.354,2.556-0.676c0.74-0.321,1.432-0.739,2.075-1.254h0.578v14.665c1.685-2.444,3.486-3.666,5.402-3.666
			c1.288,0,2.477,0.418,3.571,1.254c1.093,0.836,1.64,2.219,1.64,4.149v8.683c0,0.9,0.966,1.351,2.894,1.351v0.579
			c-1.351,0-2.362-0.031-3.039-0.096c-0.675-0.064-1.35-0.064-2.024,0c-0.677,0.065-1.688,0.096-3.041,0.096v-0.579
			c1.931,0,2.895-0.45,2.895-1.351v-6.754c0-2.315-0.379-3.794-1.138-4.437c-0.76-0.644-1.858-0.966-3.299-0.966
			c-1.286,0-2.573,0.901-3.86,2.702v9.455c0,0.9,0.965,1.351,2.894,1.351v0.579c-1.349,0-2.363-0.031-3.037-0.096
			c-0.676-0.064-1.351-0.064-2.027,0c-0.674,0.065-1.688,0.096-3.038,0.096v-0.579c1.931,0,2.895-0.45,2.895-1.351V56.842z"/>
		<path fill="#404041" d="M515.326,77.594c-1.415-1.602-2.122-3.566-2.122-5.894c0-2.573,0.837-4.6,2.509-6.079
			c1.673-1.479,3.345-2.219,5.016-2.219c2.188,0,3.892,0.611,5.114,1.833c1.221,1.222,1.831,2.733,1.831,4.534H515.52
			c0,2.83,0.547,4.856,1.64,6.079c1.094,1.222,2.284,1.832,3.569,1.832c1.93,0,4.052-1.029,6.369-3.087l0.576,0.386
			c-2.185,3.345-4.629,5.017-7.332,5.017C518.414,79.997,516.741,79.195,515.326,77.594z M525.166,68.998
			c0-1.286-0.405-2.412-1.215-3.376s-1.756-1.448-2.836-1.448c-1.93,0-3.345,0.515-4.247,1.544c-0.899,1.029-1.349,2.123-1.349,3.28
			H525.166z"/>
		<path fill="#404041" d="M545.042,67.069c1.685-2.444,3.485-3.666,5.402-3.666c1.286,0,2.476,0.418,3.569,1.254
			c0.772,0.592,1.274,1.459,1.505,2.605c1.775-2.573,3.622-3.859,5.538-3.859c1.285,0,2.476,0.418,3.568,1.254
			c1.095,0.836,1.641,2.219,1.641,4.149v8.683c0,0.9,0.967,1.351,2.896,1.351v0.579c-1.352,0-2.364-0.031-3.039-0.096
			c-0.676-0.064-1.351-0.064-2.027,0c-0.674,0.065-1.686,0.096-3.038,0.096v-0.579c1.929,0,2.895-0.45,2.895-1.351v-6.754
			c0-2.392-0.379-3.891-1.139-4.496c-0.759-0.604-1.859-0.907-3.298-0.907c-1.288,0-2.588,0.92-3.899,2.76
			c0.025,0.218,0.038,0.456,0.038,0.714v8.683c0,0.9,0.966,1.351,2.895,1.351v0.579c-1.35,0-2.363-0.031-3.038-0.096
			c-0.675-0.064-1.353-0.064-2.026,0c-0.675,0.065-1.688,0.096-3.039,0.096v-0.579c1.93,0,2.895-0.45,2.895-1.351v-6.754
			c0-2.392-0.38-3.891-1.138-4.496c-0.76-0.604-1.86-0.907-3.301-0.907c-1.287,0-2.573,0.901-3.858,2.702v9.455
			c0,0.9,0.964,1.351,2.895,1.351v0.579c-1.353,0-2.363-0.031-3.04-0.096c-0.675-0.064-1.351-0.064-2.026,0
			c-0.674,0.065-1.688,0.096-3.038,0.096v-0.579c1.929,0,2.896-0.45,2.896-1.351v-9.455c0-0.514-0.259-0.884-0.773-1.108
			c-0.514-0.226-1.223-0.371-2.122-0.436v-0.578c1.028-0.129,1.961-0.434,2.797-0.917s1.446-0.948,1.833-1.398h0.58V67.069z"/>
		<path fill="#404041" d="M573.407,77.584c-1.673-1.607-2.51-3.57-2.51-5.884c0-2.316,0.837-4.277,2.51-5.886
			c1.672-1.608,3.729-2.412,6.172-2.412c2.445,0,4.504,0.803,6.177,2.412c1.671,1.608,2.507,3.569,2.507,5.886
			c0,2.314-0.836,4.277-2.507,5.884c-1.673,1.609-3.731,2.412-6.177,2.412C577.137,79.997,575.079,79.193,573.407,77.584z
			 M573.502,71.7c0,2.135,0.58,3.922,1.737,5.363s2.604,2.161,4.34,2.161c1.739,0,3.186-0.719,4.343-2.161
			c1.158-1.441,1.737-3.229,1.737-5.363c0-2.136-0.579-3.924-1.737-5.364c-1.157-1.441-2.604-2.162-4.343-2.162
			c-1.735,0-3.183,0.721-4.34,2.162C574.082,67.776,573.502,69.564,573.502,71.7z"/>
		<path fill="#404041" d="M593.279,68.033c0-0.514-0.256-0.884-0.77-1.108c-0.516-0.226-1.223-0.371-2.125-0.436v-0.578
			c1.03-0.129,1.964-0.434,2.8-0.917s1.448-0.948,1.834-1.398h0.576v4.438c1.03-3.087,2.413-4.63,4.149-4.63
			c1.737,0,2.605,0.514,2.605,1.543c0,1.03-0.225,1.64-0.675,1.833c-0.451,0.193-0.966,0.097-1.544-0.29
			c-0.58-0.385-1.255-0.61-2.026-0.675s-1.608,0.997-2.51,3.184v8.49c0,0.9,0.967,1.351,2.895,1.351v0.579
			c-1.35,0-2.363-0.031-3.039-0.096c-0.674-0.064-1.349-0.064-2.025,0c-0.676,0.065-1.687,0.096-3.04,0.096v-0.579
			c1.932,0,2.895-0.45,2.895-1.351V68.033z"/>
		<path fill="#404041" d="M606.786,77.594c-1.414-1.602-2.122-3.566-2.122-5.894c0-2.573,0.836-4.6,2.508-6.079
			c1.673-1.479,3.346-2.219,5.018-2.219c2.187,0,3.891,0.611,5.114,1.833c1.222,1.222,1.834,2.733,1.834,4.534H606.98
			c0,2.83,0.546,4.856,1.64,6.079c1.093,1.222,2.283,1.832,3.569,1.832c1.931,0,4.054-1.029,6.368-3.087l0.58,0.386
			c-2.189,3.345-4.633,5.017-7.334,5.017C609.875,79.997,608.202,79.195,606.786,77.594z M616.628,68.998
			c0-1.286-0.404-2.412-1.217-3.376c-0.809-0.965-1.755-1.448-2.835-1.448c-1.929,0-3.346,0.515-4.245,1.544
			c-0.901,1.029-1.351,2.123-1.351,3.28H616.628z"/>
		<path fill="#404041" d="M630.714,65.332v-0.964c1.287,0,2.349-0.482,3.185-1.447c0.836-0.965,1.446-2.219,1.832-3.763h0.771v4.824
			h4.439v1.351h-4.439v11.134c0,1.197,0.58,1.795,1.738,1.795c1.156,0,2.218-0.483,3.183-1.447l0.483,0.482
			c-1.157,1.673-2.443,2.509-3.859,2.509s-2.443-0.321-3.087-0.965c-0.643-0.644-0.965-1.756-0.965-3.338V65.332H630.714z"/>
		<path fill="#404041" d="M645.572,56.842c0-0.901-0.308-1.447-0.918-1.64c-0.612-0.193-1.27-0.29-1.977-0.29v-0.579
			c0.965-0.129,1.814-0.354,2.557-0.676c0.739-0.321,1.43-0.739,2.072-1.254h0.58v14.665c1.685-2.444,3.485-3.666,5.401-3.666
			c1.287,0,2.477,0.418,3.57,1.254c1.095,0.836,1.641,2.219,1.641,4.149v8.683c0,0.9,0.966,1.351,2.894,1.351v0.579
			c-1.35,0-2.364-0.031-3.039-0.096c-0.674-0.064-1.35-0.064-2.025,0c-0.675,0.065-1.688,0.096-3.04,0.096v-0.579
			c1.932,0,2.895-0.45,2.895-1.351v-6.754c0-2.315-0.378-3.794-1.138-4.437c-0.759-0.644-1.858-0.966-3.299-0.966
			c-1.285,0-2.574,0.901-3.859,2.702v9.455c0,0.9,0.965,1.351,2.895,1.351v0.579c-1.351,0-2.364-0.031-3.039-0.096
			c-0.676-0.064-1.351-0.064-2.027,0c-0.674,0.065-1.687,0.096-3.037,0.096v-0.579c1.928,0,2.895-0.45,2.895-1.351V56.842z"/>
		<path fill="#404041" d="M663.323,76.91c0-1.93,2.894-3.988,8.683-6.175v-3.048c0-2.084-0.837-3.126-2.509-3.126
			s-2.797,0.901-3.376,2.702s-1.189,2.701-1.834,2.701c-0.643,0-0.964-0.321-0.964-0.965s0.803-1.736,2.412-3.28
			c1.608-1.544,3.056-2.315,4.341-2.315c1.287,0,2.315,0.414,3.088,1.244s1.157,1.804,1.157,2.923v10.497
			c0,0.772,0.707,0.579,2.123-0.579l0.387,0.386c-0.682,1.286-1.648,1.93-2.895,1.93c-1.029,0-1.673-0.58-1.931-1.737
			c-1.287,1.157-2.951,1.737-4.997,1.737C664.552,79.804,663.323,78.839,663.323,76.91z M665.832,76.33
			c0,1.544,0.707,2.316,2.122,2.316s2.765-0.451,4.052-1.351v-5.789C667.891,73.179,665.832,74.787,665.832,76.33z"/>
		<path fill="#404041" d="M677.987,65.332v-0.964c1.286,0,2.348-0.482,3.185-1.447c0.836-0.965,1.446-2.219,1.832-3.763h0.772v4.824
			h4.437v1.351h-4.437v11.134c0,1.197,0.579,1.795,1.735,1.795c1.158,0,2.221-0.483,3.185-1.447l0.482,0.482
			c-1.157,1.673-2.445,2.509-3.859,2.509s-2.443-0.321-3.085-0.965c-0.645-0.644-0.967-1.756-0.967-3.338V65.332H677.987z"/>
	</g>
	<g>
		<path fill="#404041" d="M467.346,178.09v-0.882c1.176,0,2.146-0.44,2.908-1.322c0.766-0.882,1.323-2.028,1.677-3.439h0.706v4.409
			h4.057v1.235h-4.057v10.176c0,1.093,0.529,1.64,1.586,1.64c1.06,0,2.028-0.441,2.911-1.322l0.441,0.441
			c-1.06,1.528-2.234,2.292-3.528,2.292s-2.232-0.294-2.82-0.882c-0.589-0.587-0.882-1.605-0.882-3.051v-9.294H467.346z"/>
		<path fill="#404041" d="M480.924,170.33c0-0.823-0.278-1.323-0.836-1.5c-0.559-0.176-1.162-0.264-1.809-0.264v-0.53
			c0.882-0.117,1.662-0.323,2.338-0.618c0.677-0.292,1.308-0.676,1.896-1.146h0.528v13.403c1.54-2.233,3.187-3.35,4.938-3.35
			c1.176,0,2.264,0.382,3.265,1.146c0.997,0.765,1.498,2.028,1.498,3.792v7.937c0,0.823,0.881,1.234,2.645,1.234v0.53
			c-1.234,0-2.16-0.029-2.776-0.088c-0.619-0.058-1.236-0.058-1.853,0c-0.617,0.059-1.544,0.088-2.778,0.088v-0.53
			c1.763,0,2.646-0.411,2.646-1.234v-6.173c0-2.117-0.347-3.468-1.041-4.056c-0.691-0.588-1.698-0.882-3.016-0.882
			c-1.177,0-2.352,0.823-3.527,2.469v8.642c0,0.823,0.883,1.234,2.646,1.234v0.53c-1.234,0-2.161-0.029-2.777-0.088
			c-0.618-0.058-1.235-0.058-1.852,0c-0.618,0.059-1.544,0.088-2.779,0.088v-0.53c1.764,0,2.645-0.411,2.645-1.234V170.33z"/>
		<path fill="#404041" d="M499.091,189.298c-1.293-1.464-1.939-3.26-1.939-5.388c0-2.352,0.764-4.204,2.292-5.555
			c1.53-1.352,3.059-2.028,4.586-2.028c1.999,0,3.558,0.558,4.674,1.675c1.118,1.117,1.676,2.498,1.676,4.145h-11.11
			c0,2.586,0.498,4.439,1.497,5.555c1.002,1.117,2.088,1.676,3.264,1.676c1.764,0,3.704-0.94,5.82-2.822l0.529,0.353
			c-1.999,3.057-4.232,4.585-6.701,4.585C501.913,191.494,500.385,190.762,499.091,189.298z M508.086,181.442
			c0-1.177-0.371-2.205-1.11-3.087c-0.741-0.882-1.605-1.323-2.594-1.323c-1.765,0-3.057,0.471-3.88,1.411
			c-0.824,0.941-1.233,1.94-1.233,3H508.086z"/>
		<path fill="#404041" d="M526.25,179.677c1.541-2.233,3.188-3.35,4.939-3.35c1.176,0,2.263,0.382,3.262,1.146
			c0.706,0.541,1.164,1.335,1.377,2.381c1.623-2.351,3.309-3.527,5.06-3.527c1.177,0,2.266,0.382,3.265,1.146
			c0.998,0.765,1.499,2.028,1.499,3.792v7.937c0,0.823,0.881,1.234,2.645,1.234v0.53c-1.234,0-2.161-0.029-2.776-0.088
			c-0.619-0.058-1.235-0.058-1.853,0c-0.617,0.059-1.544,0.088-2.779,0.088v-0.53c1.765,0,2.646-0.411,2.646-1.234v-6.173
			c0-2.187-0.347-3.557-1.041-4.109c-0.692-0.552-1.698-0.829-3.015-0.829c-1.177,0-2.364,0.841-3.563,2.521
			c0.024,0.2,0.036,0.418,0.036,0.653v7.937c0,0.823,0.882,1.234,2.645,1.234v0.53c-1.234,0-2.16-0.029-2.776-0.088
			c-0.617-0.058-1.235-0.058-1.851,0c-0.619,0.059-1.546,0.088-2.779,0.088v-0.53c1.764,0,2.645-0.411,2.645-1.234v-6.173
			c0-2.187-0.346-3.557-1.039-4.109c-0.694-0.552-1.699-0.829-3.018-0.829c-1.176,0-2.352,0.823-3.527,2.469v8.642
			c0,0.823,0.882,1.234,2.645,1.234v0.53c-1.232,0-2.158-0.029-2.776-0.088c-0.616-0.058-1.235-0.058-1.851,0
			c-0.617,0.059-1.544,0.088-2.778,0.088v-0.53c1.764,0,2.646-0.411,2.646-1.234v-8.642c0-0.47-0.236-0.808-0.706-1.015
			c-0.47-0.205-1.117-0.337-1.94-0.396v-0.529c0.94-0.118,1.792-0.397,2.557-0.838s1.322-0.866,1.676-1.278h0.528V179.677z"/>
		<path fill="#404041" d="M552.177,189.289c-1.528-1.47-2.292-3.262-2.292-5.379c0-2.116,0.764-3.909,2.292-5.379
			s3.41-2.205,5.644-2.205c2.234,0,4.115,0.734,5.644,2.205s2.292,3.263,2.292,5.379c0,2.117-0.764,3.909-2.292,5.379
			s-3.409,2.205-5.644,2.205C555.587,191.494,553.705,190.759,552.177,189.289z M552.266,183.91c0,1.952,0.528,3.586,1.587,4.903
			c1.057,1.316,2.381,1.975,3.968,1.975s2.91-0.658,3.967-1.975c1.061-1.317,1.588-2.951,1.588-4.903
			c0-1.952-0.527-3.586-1.588-4.902c-1.057-1.318-2.38-1.976-3.967-1.976s-2.911,0.658-3.968,1.976
			C552.794,180.324,552.266,181.958,552.266,183.91z"/>
		<path fill="#404041" d="M570.343,180.559c0-0.47-0.236-0.808-0.706-1.015c-0.47-0.205-1.116-0.337-1.939-0.396v-0.529
			c0.939-0.118,1.792-0.397,2.556-0.838c0.766-0.441,1.323-0.866,1.676-1.278h0.529v4.056c0.94-2.822,2.203-4.232,3.792-4.232
			c1.588,0,2.381,0.47,2.381,1.411c0,0.941-0.205,1.5-0.616,1.676c-0.413,0.176-0.883,0.088-1.412-0.265
			c-0.528-0.352-1.146-0.559-1.851-0.617c-0.706-0.06-1.47,0.911-2.294,2.911v7.759c0,0.823,0.881,1.234,2.645,1.234v0.53
			c-1.233,0-2.159-0.029-2.777-0.088c-0.615-0.058-1.234-0.058-1.851,0c-0.617,0.059-1.544,0.088-2.777,0.088v-0.53
			c1.764,0,2.646-0.411,2.646-1.234V180.559z"/>
		<path fill="#404041" d="M582.687,189.298c-1.293-1.464-1.939-3.26-1.939-5.388c0-2.352,0.765-4.204,2.293-5.555
			c1.528-1.352,3.058-2.028,4.586-2.028c1.999,0,3.556,0.558,4.673,1.675c1.116,1.117,1.676,2.498,1.676,4.145h-11.109
			c0,2.586,0.5,4.439,1.497,5.555c1.001,1.117,2.089,1.676,3.264,1.676c1.764,0,3.704-0.94,5.819-2.822l0.529,0.353
			c-1.998,3.057-4.232,4.585-6.7,4.585C585.51,191.494,583.981,190.762,582.687,189.298z M591.684,181.442
			c0-1.177-0.372-2.205-1.112-3.087c-0.741-0.882-1.604-1.323-2.594-1.323c-1.765,0-3.056,0.471-3.878,1.411
			c-0.825,0.941-1.234,1.94-1.234,3H591.684z"/>
		<path fill="#404041" d="M604.559,178.09v-0.882c1.176,0,2.145-0.44,2.908-1.322c0.766-0.882,1.322-2.028,1.675-3.439h0.707v4.409
			h4.056v1.235h-4.056v10.176c0,1.093,0.529,1.64,1.587,1.64s2.029-0.441,2.909-1.322l0.441,0.441
			c-1.059,1.528-2.234,2.292-3.526,2.292c-1.296,0-2.234-0.294-2.823-0.882c-0.588-0.587-0.883-1.605-0.883-3.051v-9.294H604.559z"
			/>
		<path fill="#404041" d="M618.138,170.33c0-0.823-0.279-1.323-0.84-1.5c-0.557-0.176-1.16-0.264-1.807-0.264v-0.53
			c0.881-0.117,1.66-0.323,2.337-0.618c0.678-0.292,1.31-0.676,1.896-1.146h0.529v13.403c1.54-2.233,3.186-3.35,4.938-3.35
			c1.177,0,2.265,0.382,3.262,1.146c1.001,0.765,1.501,2.028,1.501,3.792v7.937c0,0.823,0.882,1.234,2.646,1.234v0.53
			c-1.234,0-2.162-0.029-2.778-0.088c-0.618-0.058-1.234-0.058-1.853,0c-0.616,0.059-1.542,0.088-2.777,0.088v-0.53
			c1.764,0,2.646-0.411,2.646-1.234v-6.173c0-2.117-0.347-3.468-1.04-4.056c-0.694-0.588-1.699-0.882-3.016-0.882
			c-1.177,0-2.352,0.823-3.527,2.469v8.642c0,0.823,0.882,1.234,2.645,1.234v0.53c-1.234,0-2.159-0.029-2.776-0.088
			c-0.618-0.058-1.236-0.058-1.853,0c-0.618,0.059-1.543,0.088-2.778,0.088v-0.53c1.764,0,2.646-0.411,2.646-1.234V170.33z"/>
		<path fill="#404041" d="M638.419,189.201c0,0.823,0.882,1.234,2.646,1.234v0.53c-1.235,0-2.161-0.029-2.777-0.088
			c-0.619-0.058-1.234-0.058-1.854,0c-0.616,0.059-1.543,0.088-2.778,0.088v-0.53c1.765,0,2.647-0.411,2.647-1.234v-8.642
			c0-0.47-0.236-0.808-0.706-1.015c-0.47-0.205-1.118-0.337-1.941-0.396v-0.529c0.942-0.118,1.795-0.397,2.56-0.838
			c0.763-0.441,1.322-0.866,1.676-1.278h0.528V189.201z M635.563,169.8c0-0.412,0.154-0.773,0.465-1.084
			c0.313-0.312,0.675-0.468,1.085-0.468c0.412,0,0.773,0.156,1.083,0.468c0.313,0.311,0.47,0.672,0.47,1.084
			c0,0.413-0.156,0.774-0.47,1.085c-0.31,0.312-0.671,0.468-1.083,0.468c-0.41,0-0.772-0.156-1.085-0.468
			C635.718,170.575,635.563,170.213,635.563,169.8z"/>
		<path fill="#404041" d="M647.061,179.677c1.541-2.233,3.186-3.35,4.938-3.35c1.175,0,2.264,0.382,3.264,1.146
			c0.997,0.765,1.499,2.028,1.499,3.792v7.937c0,0.823,0.882,1.234,2.645,1.234v0.53c-1.235,0-2.16-0.029-2.777-0.088
			c-0.617-0.058-1.234-0.058-1.851,0c-0.619,0.059-1.545,0.088-2.779,0.088v-0.53c1.763,0,2.645-0.411,2.645-1.234v-6.173
			c0-2.117-0.346-3.468-1.04-4.056c-0.693-0.588-1.698-0.882-3.016-0.882c-1.176,0-2.353,0.823-3.527,2.469v8.642
			c0,0.823,0.883,1.234,2.645,1.234v0.53c-1.233,0-2.16-0.029-2.776-0.088c-0.616-0.058-1.235-0.058-1.852,0
			c-0.618,0.059-1.544,0.088-2.777,0.088v-0.53c1.764,0,2.645-0.411,2.645-1.234v-8.642c0-0.47-0.236-0.808-0.705-1.015
			c-0.47-0.205-1.116-0.337-1.939-0.396v-0.529c0.94-0.118,1.792-0.397,2.557-0.838c0.766-0.441,1.322-0.866,1.676-1.278h0.528
			V179.677z"/>
		<path fill="#404041" d="M662.362,198.813c-1.501-0.882-2.249-1.97-2.249-3.263c0-1.293,1.351-2.586,4.056-3.879
			c-2.117-0.824-3.175-1.734-3.175-2.734c0-0.999,1.471-1.616,4.409-1.853c-0.813-0.234-1.632-0.821-2.462-1.764
			c-0.827-0.939-1.242-2.086-1.242-3.438c0-1.552,0.563-2.866,1.692-3.942c1.13-1.076,2.506-1.613,4.127-1.613
			c1.282,0,2.398,0.329,3.353,0.987c1.351,0.519,2.762,0.542,4.23,0.071v1.939c-1.339-0.011-2.238-0.182-2.697-0.511
			c0.611,0.858,0.923,1.881,0.935,3.068c0,1.54-0.559,2.851-1.674,3.933c-1.118,1.082-2.499,1.623-4.146,1.623
			c-3.056,0-4.585,0.471-4.585,1.411c0,0.941,1.735,1.411,5.204,1.411c3.468,0,5.642,0.47,6.523,1.411
			c0.882,0.94,1.323,2.086,1.323,3.439c0,1.352-0.748,2.527-2.249,3.527c-1.498,1-3.394,1.499-5.687,1.499
			S663.859,199.695,662.362,198.813z M662.228,195.55c0,1.293,0.618,2.264,1.854,2.911c1.233,0.646,2.556,0.97,3.968,0.97
			c1.41,0,2.85-0.382,4.32-1.146c1.47-0.765,2.205-1.823,2.205-3.175c0-1.353-0.817-2.146-2.451-2.381
			c-1.634-0.236-4.145-0.353-7.532-0.353C663.017,193.198,662.228,194.257,662.228,195.55z M664.805,185.374
			c0.656,0.905,1.569,1.358,2.733,1.358c1.163,0,2.069-0.453,2.715-1.358c0.646-0.905,0.972-2.07,0.972-3.492
			c0-1.434-0.326-2.602-0.972-3.501c-0.646-0.899-1.559-1.349-2.734-1.349c-1.152,0-2.058,0.45-2.714,1.349
			c-0.66,0.899-0.989,2.067-0.989,3.501C663.815,183.304,664.145,184.469,664.805,185.374z"/>
		<path fill="#404041" d="M677.748,190.435v-4.056h0.706c0.233,1.881,1.011,3.116,2.327,3.704c0.799,0.352,1.553,0.529,2.257,0.529
			c0.447,0,0.905-0.088,1.377-0.265c1.081-0.411,1.622-1.278,1.622-2.601c0-1.323-1.383-2.352-4.145-3.087
			c-2.765-0.734-4.145-1.925-4.145-3.571c0-1.646,0.383-2.821,1.146-3.527c0.763-0.706,1.97-1.058,3.615-1.058
			s2.764,0.176,3.352,0.529c0.588,0.353,1.117,0.529,1.587,0.529v3.175h-0.705c-0.236-1.882-0.988-2.999-2.259-3.351
			c-0.422-0.118-1.053-0.177-1.887-0.177c-0.835,0-1.347,0.03-1.533,0.088c-1.035,0.294-1.554,1.043-1.554,2.248
			c0,1.206,1.383,2.176,4.146,2.911c2.762,0.735,4.144,1.984,4.144,3.748c0,1.764-0.456,3.058-1.366,3.88
			c-0.911,0.823-2.087,1.234-3.527,1.234c-1.442,0-2.543-0.147-3.307-0.44C678.835,190.583,678.22,190.435,677.748,190.435z"/>
	</g>
	<g>
		<path fill="#404041" d="M471.466,289.879v-0.587c2.606,0,3.909-0.457,3.909-1.368v-22.67h-4.887c-1.563,0-2.67,0.261-3.321,0.782
			c-0.652,0.521-1.238,1.596-1.759,3.224h-0.783c0.392-1.889,0.588-3.484,0.588-4.788h23.256c0,1.304,0.195,2.899,0.585,4.788
			h-0.781c-0.521-1.628-1.107-2.703-1.758-3.224c-0.651-0.521-1.759-0.782-3.322-0.782h-4.887v22.67
			c0,0.911,1.304,1.368,3.908,1.368v0.587c-1.797,0-3.144-0.033-4.036-0.099c-0.891-0.065-1.784-0.065-2.676,0
			C474.608,289.846,473.264,289.879,471.466,289.879z"/>
		<path fill="#404041" d="M492.962,267.013c0-0.912-0.308-1.466-0.927-1.662c-0.619-0.196-1.287-0.294-2.003-0.294v-0.586
			c0.977-0.13,1.84-0.357,2.589-0.684c0.748-0.325,1.449-0.749,2.102-1.27h0.586v14.852c1.706-2.475,3.531-3.713,5.472-3.713
			c1.304,0,2.509,0.423,3.616,1.27c1.106,0.848,1.66,2.248,1.66,4.203v8.795c0,0.911,0.979,1.368,2.933,1.368v0.587
			c-1.368,0-2.396-0.033-3.078-0.099c-0.685-0.065-1.369-0.065-2.053,0s-1.71,0.099-3.078,0.099v-0.587
			c1.954,0,2.932-0.457,2.932-1.368v-6.841c0-2.345-0.385-3.843-1.153-4.495s-1.883-0.976-3.342-0.976
			c-1.304,0-2.605,0.911-3.908,2.735v9.577c0,0.911,0.977,1.368,2.932,1.368v0.587c-1.367,0-2.396-0.033-3.078-0.099
			c-0.685-0.065-1.369-0.065-2.053,0s-1.71,0.099-3.077,0.099v-0.587c1.954,0,2.93-0.457,2.93-1.368V267.013z"/>
		<path fill="#404041" d="M513.093,288.031c-1.435-1.623-2.149-3.612-2.149-5.971c0-2.605,0.847-4.657,2.54-6.156
			c1.692-1.498,3.387-2.248,5.08-2.248c2.216,0,3.942,0.619,5.179,1.856c1.239,1.238,1.858,2.77,1.858,4.592h-12.313
			c0,2.867,0.555,4.919,1.662,6.157c1.106,1.238,2.313,1.856,3.614,1.856c1.956,0,4.105-1.042,6.451-3.126l0.586,0.391
			c-2.216,3.388-4.69,5.082-7.427,5.082C516.221,290.465,514.525,289.653,513.093,288.031z M523.06,279.324
			c0-1.301-0.409-2.442-1.23-3.419c-0.822-0.978-1.78-1.465-2.872-1.465c-1.956,0-3.389,0.521-4.302,1.562
			c-0.911,1.043-1.368,2.151-1.368,3.322H523.06z"/>
		<path fill="#404041" d="M543.188,277.37c1.707-2.475,3.532-3.713,5.473-3.713c1.304,0,2.509,0.423,3.615,1.27
			c0.782,0.6,1.291,1.479,1.524,2.639c1.799-2.606,3.669-3.909,5.609-3.909c1.304,0,2.508,0.423,3.615,1.27
			c1.106,0.848,1.661,2.248,1.661,4.203v8.795c0,0.911,0.979,1.368,2.933,1.368v0.587c-1.369,0-2.395-0.033-3.079-0.099
			c-0.684-0.065-1.368-0.065-2.051,0c-0.686,0.065-1.711,0.099-3.079,0.099v-0.587c1.954,0,2.932-0.457,2.932-1.368v-6.841
			c0-2.423-0.384-3.94-1.152-4.553c-0.769-0.612-1.885-0.917-3.343-0.917c-1.303,0-2.618,0.931-3.948,2.794
			c0.026,0.222,0.04,0.462,0.04,0.723v8.795c0,0.911,0.978,1.368,2.931,1.368v0.587c-1.367,0-2.394-0.033-3.078-0.099
			c-0.684-0.065-1.367-0.065-2.052,0s-1.71,0.099-3.078,0.099v-0.587c1.955,0,2.932-0.457,2.932-1.368v-6.841
			c0-2.423-0.385-3.94-1.153-4.553c-0.769-0.612-1.883-0.917-3.342-0.917c-1.304,0-2.605,0.911-3.909,2.735v9.577
			c0,0.911,0.979,1.368,2.933,1.368v0.587c-1.367,0-2.396-0.033-3.078-0.099c-0.685-0.065-1.369-0.065-2.053,0
			s-1.708,0.099-3.077,0.099v-0.587c1.954,0,2.931-0.457,2.931-1.368v-9.577c0-0.521-0.261-0.896-0.781-1.124
			s-1.238-0.375-2.149-0.44v-0.586c1.043-0.131,1.986-0.44,2.834-0.929c0.846-0.488,1.465-0.96,1.855-1.416h0.586V277.37z"/>
		<path fill="#404041" d="M571.916,288.021c-1.693-1.628-2.54-3.615-2.54-5.961c0-2.345,0.847-4.332,2.54-5.96
			c1.694-1.628,3.779-2.443,6.254-2.443c2.476,0,4.562,0.815,6.255,2.443s2.54,3.615,2.54,5.96c0,2.346-0.847,4.333-2.54,5.961
			s-3.779,2.444-6.255,2.444C575.695,290.465,573.61,289.649,571.916,288.021z M572.016,282.06c0,2.163,0.586,3.975,1.758,5.434
			c1.173,1.459,2.639,2.188,4.396,2.188c1.759,0,3.226-0.729,4.398-2.188c1.172-1.459,1.758-3.271,1.758-5.434
			c0-2.161-0.586-3.974-1.758-5.433c-1.173-1.459-2.64-2.188-4.398-2.188c-1.758,0-3.224,0.729-4.396,2.188
			C572.602,278.086,572.016,279.899,572.016,282.06z"/>
		<path fill="#404041" d="M592.046,278.348c0-0.521-0.26-0.896-0.781-1.124s-1.238-0.375-2.15-0.44v-0.586
			c1.044-0.131,1.987-0.44,2.833-0.929c0.848-0.488,1.466-0.96,1.858-1.416h0.586v4.495c1.041-3.127,2.443-4.691,4.2-4.691
			c1.76,0,2.64,0.522,2.64,1.564c0,1.043-0.228,1.661-0.685,1.856c-0.456,0.196-0.977,0.098-1.563-0.293
			c-0.586-0.391-1.271-0.619-2.054-0.684c-0.781-0.065-1.629,1.009-2.539,3.224v8.601c0,0.911,0.978,1.368,2.932,1.368v0.587
			c-1.368,0-2.396-0.033-3.079-0.099s-1.367-0.065-2.052,0s-1.709,0.099-3.078,0.099v-0.587c1.954,0,2.932-0.457,2.932-1.368
			V278.348z"/>
		<path fill="#404041" d="M605.726,288.031c-1.433-1.623-2.15-3.612-2.15-5.971c0-2.605,0.848-4.657,2.543-6.156
			c1.692-1.498,3.386-2.248,5.079-2.248c2.215,0,3.941,0.619,5.179,1.856s1.858,2.77,1.858,4.592h-12.313
			c0,2.867,0.555,4.919,1.661,6.157c1.107,1.238,2.312,1.856,3.615,1.856c1.953,0,4.104-1.042,6.45-3.126l0.587,0.391
			c-2.217,3.388-4.69,5.082-7.427,5.082C608.854,290.465,607.158,289.653,605.726,288.031z M615.692,279.324
			c0-1.301-0.409-2.442-1.232-3.419c-0.819-0.978-1.776-1.465-2.871-1.465c-1.955,0-3.388,0.521-4.299,1.562
			c-0.913,1.043-1.369,2.151-1.369,3.322H615.692z"/>
		<path fill="#404041" d="M629.959,275.612v-0.978c1.303,0,2.378-0.489,3.225-1.466c0.846-0.978,1.465-2.248,1.856-3.811h0.782
			v4.885h4.495v1.369h-4.495v11.275c0,1.212,0.587,1.818,1.759,1.818c1.171,0,2.247-0.488,3.225-1.466l0.488,0.488
			c-1.173,1.694-2.476,2.54-3.909,2.54c-1.433,0-2.477-0.324-3.126-0.976c-0.651-0.652-0.979-1.779-0.979-3.382v-10.298H629.959z"/>
		<path fill="#404041" d="M645.008,267.013c0-0.912-0.311-1.466-0.93-1.662c-0.618-0.196-1.286-0.294-2.004-0.294v-0.586
			c0.979-0.13,1.842-0.357,2.591-0.684c0.75-0.325,1.449-0.749,2.102-1.27h0.586v14.852c1.706-2.475,3.53-3.713,5.472-3.713
			c1.303,0,2.508,0.423,3.616,1.27c1.107,0.848,1.661,2.248,1.661,4.203v8.795c0,0.911,0.976,1.368,2.931,1.368v0.587
			c-1.368,0-2.394-0.033-3.077-0.099c-0.685-0.065-1.368-0.065-2.053,0c-0.683,0.065-1.711,0.099-3.078,0.099v-0.587
			c1.954,0,2.932-0.457,2.932-1.368v-6.841c0-2.345-0.385-3.843-1.153-4.495s-1.881-0.976-3.341-0.976
			c-1.303,0-2.606,0.911-3.909,2.735v9.577c0,0.911,0.977,1.368,2.931,1.368v0.587c-1.368,0-2.393-0.033-3.078-0.099
			c-0.684-0.065-1.367-0.065-2.051,0c-0.685,0.065-1.711,0.099-3.08,0.099v-0.587c1.956,0,2.934-0.457,2.934-1.368V267.013z"/>
		<path fill="#404041" d="M662.986,287.337c0-1.954,2.933-4.039,8.794-6.254v-3.088c0-2.111-0.847-3.166-2.539-3.166
			c-1.695,0-2.834,0.912-3.421,2.736c-0.586,1.823-1.205,2.735-1.856,2.735s-0.978-0.325-0.978-0.978
			c0-0.65,0.814-1.758,2.442-3.322c1.629-1.562,3.095-2.345,4.397-2.345c1.304,0,2.346,0.42,3.128,1.261
			c0.781,0.841,1.173,1.828,1.173,2.96v10.631c0,0.783,0.716,0.586,2.149-0.585l0.391,0.39c-0.691,1.304-1.667,1.954-2.932,1.954
			c-1.042,0-1.694-0.586-1.955-1.758c-1.302,1.172-2.988,1.758-5.061,1.758C664.23,290.268,662.986,289.292,662.986,287.337z
			 M665.527,286.751c0,1.563,0.715,2.345,2.15,2.345c1.434,0,2.801-0.456,4.103-1.368v-5.862
			C667.612,283.559,665.527,285.188,665.527,286.751z"/>
		<path fill="#404041" d="M677.838,275.612v-0.978c1.304,0,2.378-0.489,3.226-1.466c0.847-0.978,1.466-2.248,1.857-3.811h0.782
			v4.885h4.494v1.369h-4.494v11.275c0,1.212,0.585,1.818,1.758,1.818c1.172,0,2.247-0.488,3.225-1.466l0.488,0.488
			c-1.173,1.694-2.476,2.54-3.909,2.54s-2.476-0.324-3.126-0.976c-0.651-0.652-0.979-1.779-0.979-3.382v-10.298H677.838z"/>
	</g>
	<g>
		<path fill="#404041" d="M465.199,385.519v-0.889c1.184,0,2.16-0.444,2.93-1.332c0.769-0.888,1.333-2.042,1.688-3.464h0.71v4.441
			h4.086v1.243h-4.086v10.251c0,1.102,0.533,1.651,1.6,1.651s2.042-0.443,2.931-1.332l0.444,0.443
			c-1.065,1.541-2.251,2.311-3.553,2.311c-1.303,0-2.251-0.297-2.844-0.89c-0.592-0.592-0.887-1.616-0.887-3.072v-9.362H465.199z"/>
		<path fill="#404041" d="M478.878,377.702c0-0.829-0.282-1.331-0.846-1.509c-0.563-0.178-1.168-0.268-1.821-0.268v-0.533
			c0.889-0.117,1.673-0.324,2.354-0.621c0.683-0.296,1.319-0.681,1.91-1.155h0.533v13.502c1.552-2.249,3.21-3.375,4.975-3.375
			c1.184,0,2.278,0.385,3.286,1.153c1.007,0.771,1.511,2.045,1.511,3.821v7.992c0,0.829,0.888,1.243,2.664,1.243v0.534
			c-1.244,0-2.177-0.029-2.798-0.089c-0.622-0.061-1.244-0.061-1.865,0c-0.622,0.06-1.555,0.089-2.798,0.089v-0.534
			c1.776,0,2.664-0.414,2.664-1.243v-6.218c0-2.131-0.35-3.493-1.048-4.084c-0.698-0.594-1.712-0.89-3.037-0.89
			c-1.185,0-2.369,0.83-3.554,2.486v8.705c0,0.829,0.889,1.243,2.665,1.243v0.534c-1.243,0-2.176-0.029-2.797-0.089
			c-0.622-0.061-1.243-0.061-1.866,0c-0.621,0.06-1.556,0.089-2.799,0.089v-0.534c1.777,0,2.667-0.414,2.667-1.243V377.702z"/>
		<path fill="#404041" d="M497.175,396.81c-1.304-1.476-1.954-3.284-1.954-5.429c0-2.369,0.77-4.233,2.308-5.596
			c1.54-1.362,3.08-2.042,4.62-2.042c2.015,0,3.584,0.563,4.707,1.686c1.126,1.127,1.688,2.52,1.688,4.176h-11.191
			c0,2.605,0.503,4.471,1.51,5.597c1.006,1.124,2.103,1.688,3.286,1.688c1.777,0,3.73-0.949,5.862-2.843l0.533,0.355
			c-2.013,3.078-4.265,4.618-6.751,4.618C500.017,399.021,498.479,398.283,497.175,396.81z M506.234,388.895
			c0-1.184-0.373-2.222-1.12-3.109c-0.746-0.889-1.616-1.331-2.61-1.331c-1.776,0-3.079,0.473-3.909,1.42
			c-0.829,0.948-1.242,1.954-1.242,3.021H506.234z"/>
		<path fill="#404041" d="M524.532,387.118c1.55-2.249,3.209-3.375,4.974-3.375c1.185,0,2.28,0.385,3.287,1.153
			c0.711,0.545,1.172,1.346,1.386,2.398c1.634-2.368,3.333-3.552,5.098-3.552c1.184,0,2.279,0.385,3.285,1.153
			c1.007,0.771,1.512,2.045,1.512,3.821v7.992c0,0.829,0.888,1.243,2.665,1.243v0.534c-1.244,0-2.177-0.029-2.799-0.089
			c-0.621-0.061-1.243-0.061-1.865,0c-0.621,0.06-1.555,0.089-2.798,0.089v-0.534c1.777,0,2.664-0.414,2.664-1.243v-6.218
			c0-2.202-0.351-3.582-1.048-4.137c-0.698-0.558-1.712-0.837-3.037-0.837c-1.184,0-2.381,0.848-3.59,2.541
			c0.024,0.201,0.037,0.421,0.037,0.658v7.992c0,0.829,0.888,1.243,2.664,1.243v0.534c-1.245,0-2.176-0.029-2.797-0.089
			c-0.622-0.061-1.244-0.061-1.866,0c-0.621,0.06-1.555,0.089-2.798,0.089v-0.534c1.776,0,2.665-0.414,2.665-1.243v-6.218
			c0-2.202-0.349-3.582-1.049-4.137c-0.699-0.558-1.71-0.837-3.037-0.837c-1.185,0-2.369,0.83-3.553,2.486v8.705
			c0,0.829,0.888,1.243,2.664,1.243v0.534c-1.243,0-2.177-0.029-2.799-0.089c-0.622-0.061-1.243-0.061-1.865,0
			c-0.621,0.06-1.554,0.089-2.797,0.089v-0.534c1.776,0,2.664-0.414,2.664-1.243v-8.705c0-0.474-0.236-0.813-0.71-1.02
			c-0.474-0.207-1.125-0.341-1.954-0.401v-0.532c0.948-0.118,1.805-0.398,2.575-0.843c0.771-0.446,1.332-0.874,1.688-1.288h0.533
			V387.118z"/>
		<path fill="#404041" d="M550.646,396.799c-1.54-1.48-2.309-3.286-2.309-5.418s0.769-3.937,2.309-5.418
			c1.539-1.48,3.433-2.22,5.685-2.22c2.25,0,4.146,0.739,5.685,2.22c1.54,1.481,2.31,3.286,2.31,5.418s-0.77,3.938-2.31,5.418
			c-1.538,1.481-3.435,2.222-5.685,2.222C554.078,399.021,552.185,398.28,550.646,396.799z M550.733,391.381
			c0,1.966,0.532,3.612,1.6,4.939c1.066,1.326,2.398,1.989,3.997,1.989s2.931-0.663,3.998-1.989
			c1.063-1.327,1.598-2.974,1.598-4.939c0-1.965-0.534-3.613-1.598-4.938c-1.067-1.327-2.399-1.989-3.998-1.989
			s-2.931,0.662-3.997,1.989C551.266,387.768,550.733,389.416,550.733,391.381z"/>
		<path fill="#404041" d="M568.942,388.005c0-0.474-0.236-0.813-0.711-1.02c-0.474-0.207-1.124-0.341-1.953-0.401v-0.532
			c0.946-0.118,1.805-0.398,2.575-0.843c0.77-0.446,1.332-0.874,1.688-1.288h0.532v4.084c0.947-2.841,2.221-4.262,3.82-4.262
			c1.598,0,2.397,0.474,2.397,1.421s-0.208,1.509-0.621,1.688c-0.416,0.176-0.891,0.089-1.422-0.269
			c-0.532-0.354-1.153-0.562-1.864-0.621c-0.713-0.059-1.481,0.918-2.311,2.932v7.815c0,0.829,0.888,1.243,2.664,1.243v0.534
			c-1.242,0-2.174-0.029-2.797-0.089c-0.621-0.061-1.243-0.061-1.864,0c-0.622,0.06-1.556,0.089-2.799,0.089v-0.534
			c1.776,0,2.664-0.414,2.664-1.243V388.005z"/>
		<path fill="#404041" d="M581.378,396.81c-1.302-1.476-1.955-3.284-1.955-5.429c0-2.369,0.771-4.233,2.312-5.596
			c1.539-1.362,3.077-2.042,4.617-2.042c2.014,0,3.582,0.563,4.708,1.686c1.125,1.127,1.688,2.52,1.688,4.176h-11.19
			c0,2.605,0.502,4.471,1.51,5.597c1.006,1.124,2.102,1.688,3.285,1.688c1.777,0,3.731-0.949,5.864-2.843l0.531,0.355
			c-2.013,3.078-4.262,4.618-6.749,4.618C584.221,399.021,582.681,398.283,581.378,396.81z M590.438,388.895
			c0-1.184-0.372-2.222-1.119-3.109c-0.745-0.889-1.617-1.331-2.611-1.331c-1.776,0-3.08,0.473-3.908,1.42
			c-0.829,0.948-1.243,1.954-1.243,3.021H590.438z"/>
		<path fill="#404041" d="M608.379,385.519c1.186-1.184,2.814-1.775,4.886-1.775c2.073,0,3.761,0.68,5.063,2.042
			c1.303,1.362,1.955,3.227,1.955,5.596c0,2.368-0.652,4.234-1.955,5.597c-1.302,1.36-2.989,2.043-5.063,2.043
			c-2.071,0-3.7-0.415-4.886-1.244v8.349c0,0.83,0.89,1.244,2.667,1.244v0.532c-1.244,0-2.177-0.029-2.799-0.088
			c-0.622-0.06-1.244-0.06-1.866,0c-0.621,0.059-1.553,0.088-2.797,0.088v-0.532c1.777,0,2.664-0.414,2.664-1.244v-18.12
			c0-0.474-0.236-0.813-0.71-1.02c-0.473-0.207-1.127-0.341-1.954-0.401v-0.532c0.947-0.118,1.806-0.398,2.576-0.843
			c0.77-0.446,1.331-0.874,1.688-1.288h0.531V385.519z M608.379,395.112c0,0.71,0.444,1.42,1.334,2.132
			c0.888,0.709,2.013,1.065,3.376,1.065c1.36,0,2.485-0.651,3.374-1.954s1.332-2.782,1.332-4.44c0-2.37-0.68-4.147-2.043-5.331
			c-1.361-1.184-2.635-1.715-3.819-1.598c-1.184,0.119-2.368,0.532-3.554,1.243V395.112z"/>
		<path fill="#404041" d="M624.545,377.702c0-0.829-0.28-1.331-0.844-1.509c-0.562-0.178-1.17-0.268-1.819-0.268v-0.533
			c0.886-0.117,1.672-0.324,2.354-0.621c0.68-0.296,1.316-0.681,1.909-1.155h0.534v23.094c0,0.829,0.888,1.243,2.663,1.243v0.534
			c-1.243,0-2.177-0.029-2.798-0.089c-0.622-0.061-1.244-0.061-1.866,0c-0.621,0.06-1.553,0.089-2.796,0.089v-0.534
			c1.776,0,2.663-0.414,2.663-1.243V377.702z"/>
		<path fill="#404041" d="M631.12,396.178c0-1.775,2.664-3.672,7.992-5.686v-2.807c0-1.918-0.769-2.877-2.308-2.877
			c-1.541,0-2.575,0.829-3.109,2.486c-0.533,1.659-1.096,2.487-1.688,2.487c-0.593,0-0.888-0.296-0.888-0.888
			c0-0.593,0.739-1.6,2.219-3.021c1.48-1.42,2.812-2.131,3.998-2.131c1.184,0,2.132,0.382,2.842,1.145
			c0.71,0.766,1.066,1.66,1.066,2.691v9.665c0,0.709,0.65,0.532,1.954-0.534l0.355,0.355c-0.629,1.185-1.517,1.777-2.666,1.777
			c-0.946,0-1.539-0.533-1.776-1.599c-1.185,1.065-2.717,1.599-4.601,1.599C632.251,398.843,631.12,397.953,631.12,396.178z
			 M633.428,395.646c0,1.419,0.652,2.13,1.954,2.13c1.303,0,2.546-0.415,3.73-1.244v-5.328
			C635.324,392.742,633.428,394.223,633.428,395.646z"/>
		<path fill="#404041" d="M647.463,396.81c-1.304-1.476-1.954-3.341-1.954-5.597c0-2.257,0.739-4.065,2.219-5.428
			c1.481-1.362,3.051-2.042,4.709-2.042c2.015,0,3.464,0.414,4.353,1.243c0.889,0.828,1.063,1.481,0.532,1.955
			c-0.532,0.473-1.185,0.177-1.955-0.89c-0.769-1.065-1.628-1.598-2.575-1.598c-1.776,0-3.05,0.71-3.819,2.13
			c-0.77,1.421-1.155,3.021-1.155,4.797c0,1.777,0.504,3.169,1.512,4.175c1.006,1.006,2.102,1.51,3.286,1.51
			c1.777,0,3.67-1.006,5.685-3.019l0.533,0.355c-2.014,3.078-4.265,4.618-6.751,4.618
			C650.304,399.021,648.766,398.283,647.463,396.81z"/>
		<path fill="#404041" d="M663.096,396.81c-1.304-1.476-1.954-3.284-1.954-5.429c0-2.369,0.77-4.233,2.309-5.596
			s3.08-2.042,4.62-2.042c2.013,0,3.582,0.563,4.707,1.686c1.124,1.127,1.688,2.52,1.688,4.176h-11.192
			c0,2.605,0.503,4.471,1.511,5.597c1.005,1.124,2.101,1.688,3.287,1.688c1.775,0,3.729-0.949,5.861-2.843l0.533,0.355
			c-2.014,3.078-4.264,4.618-6.751,4.618C665.937,399.021,664.397,398.283,663.096,396.81z M672.155,388.895
			c0-1.184-0.373-2.222-1.12-3.109c-0.746-0.889-1.617-1.331-2.611-1.331c-1.777,0-3.079,0.473-3.908,1.42
			c-0.828,0.948-1.243,1.954-1.243,3.021H672.155z"/>
		<path fill="#404041" d="M677.662,397.953v-4.084h0.71c0.237,1.893,1.019,3.138,2.346,3.73c0.804,0.354,1.562,0.533,2.273,0.533
			c0.45,0,0.912-0.09,1.386-0.269c1.09-0.413,1.633-1.287,1.633-2.619s-1.391-2.368-4.174-3.108s-4.174-1.938-4.174-3.599
			c0-1.657,0.385-2.842,1.154-3.552c0.77-0.711,1.982-1.065,3.643-1.065c1.657,0,2.781,0.177,3.375,0.533
			c0.593,0.354,1.125,0.532,1.6,0.532v3.198h-0.713c-0.237-1.896-0.994-3.021-2.272-3.376c-0.428-0.118-1.062-0.179-1.9-0.179
			c-0.843,0-1.356,0.029-1.546,0.09c-1.042,0.296-1.563,1.051-1.563,2.266c0,1.212,1.392,2.19,4.175,2.931
			c2.782,0.74,4.174,1.999,4.174,3.774c0,1.776-0.458,3.079-1.376,3.909c-0.919,0.828-2.104,1.243-3.554,1.243
			c-1.449,0-2.562-0.148-3.331-0.444C678.756,398.102,678.136,397.953,677.662,397.953z"/>
	</g>
</g>
<g id="fill-colored-lines">
	<g>
		<path fill="#007E85" d="M471.639,116.792c-0.582-1.405-2.377-2.107-5.387-2.107v-0.903c2.207,0,3.862,0.05,4.965,0.151
			c1.104,0.1,2.208,0.1,3.31,0c1.105-0.101,2.761-0.151,4.967-0.151v0.903c-3.009,0-4.223,0.702-3.642,2.107l7.254,17.456
			l7.042-17.456c0.521-1.405-0.724-2.107-3.73-2.107v-0.903c1.764,0,3.085,0.05,3.957,0.151c0.872,0.1,1.746,0.1,2.618,0
			c0.872-0.101,2.192-0.151,3.958-0.151v0.903c-3.011,0-4.777,0.702-5.297,2.107l-12.761,31.601
			c-0.903,2.207-1.856,3.511-2.859,3.912c-1.004,0.401-1.957,0.603-2.86,0.603c-0.802,0-1.554-0.251-2.257-0.752
			c-0.702-0.501-0.802-1.354-0.3-2.559c0.501-1.204,1.604-1.53,3.312-0.978c1.704,0.552,3.177-0.327,4.422-2.634l2.95-7.223
			L471.639,116.792z"/>
		<path fill="#007E85" d="M502.066,135c-2.608-2.508-3.913-5.567-3.913-9.18c0-3.611,1.305-6.67,3.913-9.179
			c2.606-2.509,5.817-3.763,9.63-3.763c3.812,0,7.023,1.254,9.631,3.763c2.607,2.508,3.912,5.567,3.912,9.179
			c0,3.612-1.305,6.671-3.912,9.18c-2.607,2.508-5.819,3.762-9.631,3.762C507.884,138.762,504.673,137.507,502.066,135z
			 M502.218,125.82c0,3.331,0.901,6.121,2.708,8.367c1.804,2.247,4.063,3.371,6.771,3.371c2.708,0,4.967-1.125,6.772-3.371
			c1.805-2.247,2.707-5.036,2.707-8.367c0-3.33-0.902-6.12-2.707-8.366c-1.806-2.248-4.064-3.371-6.772-3.371
			c-2.707,0-4.967,1.124-6.771,3.371C503.119,119.7,502.218,122.49,502.218,125.82z"/>
		<path fill="#007E85" d="M531.861,119.5c0-1.405-0.377-2.258-1.13-2.559c-0.751-0.301-1.679-0.452-2.784-0.452v-0.902
			c1.506-0.201,2.686-0.451,3.537-0.752c0.853-0.301,1.881-0.853,3.085-1.655h0.904v14.146c0,3.611,0.59,5.919,1.774,6.922
			c1.184,1.004,2.899,1.505,5.146,1.505c2.007,0,4.013-1.404,6.02-4.213V119.5c0-1.405-0.377-2.258-1.129-2.559
			c-0.753-0.301-1.683-0.452-2.783-0.452v-0.902c1.504-0.201,2.683-0.451,3.535-0.752c0.854-0.301,1.882-0.853,3.086-1.655h0.902
			v20.465c0,1.606,1.505,2.408,4.515,2.408v0.903c-1.506,0.201-2.835,0.401-3.987,0.603c-1.154,0.2-2.233,0.602-3.235,1.204h-0.903
			v-5.719c-2.629,3.813-5.438,5.719-8.429,5.719c-2.005,0-3.861-0.653-5.565-1.956c-1.705-1.304-2.559-3.461-2.559-6.471V119.5z"/>
		<path fill="#007E85" d="M577.907,120.102c0-0.802-0.4-1.379-1.202-1.73c-0.803-0.351-1.908-0.577-3.312-0.677v-0.902
			c1.605-0.2,3.06-0.677,4.365-1.43c1.303-0.752,2.257-1.479,2.858-2.182h0.902v6.922c1.605-4.815,3.763-7.223,6.471-7.223
			c2.709,0,4.063,0.803,4.063,2.408c0,1.605-0.351,2.559-1.054,2.86c-0.703,0.3-1.506,0.15-2.407-0.452
			c-0.902-0.602-1.957-0.952-3.16-1.053c-1.205-0.1-2.509,1.556-3.913,4.965v13.243c0,1.404,1.506,2.106,4.514,2.106v0.903
			c-2.104,0-3.686-0.05-4.738-0.15c-1.055-0.1-2.107-0.1-3.16,0c-1.055,0.1-2.635,0.15-4.741,0.15v-0.903
			c3.01,0,4.514-0.702,4.514-2.106V120.102z"/>
		<path fill="#007E85" d="M598.975,135.015c-2.206-2.498-3.311-5.563-3.311-9.195c0-4.013,1.306-7.172,3.913-9.479
			c2.607-2.308,5.217-3.462,7.826-3.462c3.408,0,6.068,0.954,7.975,2.86c1.907,1.906,2.859,4.263,2.859,7.072h-18.961
			c0,4.415,0.853,7.575,2.558,9.481c1.706,1.906,3.561,2.859,5.569,2.859c3.009,0,6.32-1.605,9.931-4.815l0.903,0.602
			c-3.413,5.217-7.224,7.825-11.438,7.825C603.791,138.762,601.182,137.513,598.975,135.015z M614.324,121.606
			c0-2.006-0.632-3.762-1.896-5.266c-1.265-1.505-2.738-2.258-4.425-2.258c-3.009,0-5.217,0.803-6.622,2.407
			c-1.402,1.606-2.105,3.311-2.105,5.117H614.324z"/>
		<path fill="#007E85" d="M623.053,133.947c0-3.01,4.514-6.22,13.543-9.631v-4.756c0-3.25-1.304-4.875-3.913-4.875
			c-2.608,0-4.364,1.404-5.267,4.213c-0.903,2.809-1.856,4.214-2.858,4.214c-1.004,0-1.505-0.502-1.505-1.505
			s1.253-2.708,3.762-5.117c2.508-2.407,4.766-3.611,6.771-3.611s3.612,0.648,4.815,1.941c1.204,1.294,1.807,2.814,1.807,4.56
			v16.372c0,1.204,1.103,0.903,3.311-0.903l0.601,0.602c-1.063,2.006-2.567,3.009-4.514,3.009c-1.604,0-2.607-0.902-3.01-2.708
			c-2.006,1.806-4.604,2.708-7.795,2.708C624.968,138.46,623.053,136.956,623.053,133.947z M626.965,133.042
			c0,2.409,1.104,3.612,3.311,3.612c2.207,0,4.314-0.702,6.32-2.107v-9.028C630.174,128.128,626.965,130.635,626.965,133.042z"/>
		<path fill="#007E85" d="M650.741,135.3c-2.208-2.307-3.311-5.467-3.311-9.48c0-4.013,1.103-7.172,3.311-9.479
			c2.206-2.308,5.065-3.462,8.577-3.462c3.51,0,6.27,1.004,8.277,3.01v-13.242c0-1.405-0.478-2.258-1.432-2.559
			c-0.953-0.301-1.981-0.451-3.084-0.451v-0.904c1.504-0.2,2.833-0.551,3.986-1.052c1.154-0.502,2.233-1.154,3.237-1.957h0.902
			v37.921c0,1.606,1.505,2.408,4.516,2.408v0.903c-1.507,0.201-2.836,0.401-3.988,0.603c-1.155,0.2-2.233,0.602-3.235,1.204h-0.902
			v-3.01c-2.008,2.006-4.768,3.01-8.277,3.01C655.807,138.762,652.947,137.608,650.741,135.3z M655.105,133.947
			c2.307,2.006,4.464,2.909,6.47,2.708c2.007-0.2,4.013-0.903,6.021-2.107v-14.145c0-1.204-0.754-2.558-2.258-4.063
			c-1.506-1.505-3.412-2.258-5.72-2.258s-4.212,1.104-5.718,3.311c-1.505,2.207-2.256,4.715-2.256,7.524
			C651.645,128.931,652.798,131.94,655.105,133.947z"/>
		<path fill="#007E85" d="M680.836,137.858c-0.602-0.602-0.902-1.304-0.902-2.106s0.301-1.505,0.902-2.107
			c0.603-0.603,1.306-0.902,2.108-0.902c0.802,0,1.504,0.299,2.105,0.902c0.602,0.602,1.004,1.304,1.204,2.107
			s0.301,1.505,0.301,2.106c0,0.602-0.101,1.354-0.301,2.257s-0.803,1.931-1.806,3.085c-1.005,1.153-2.508,2.182-4.515,3.084v-0.902
			c2.007-1.404,3.21-2.458,3.611-3.16c0.401-0.703,0.702-1.455,0.903-2.257c0.201-0.803-0.201-1.204-1.205-1.204
			C682.24,138.762,681.438,138.46,680.836,137.858z"/>
	</g>
	<g>
		<path fill="#007E85" d="M470.979,225.249c-0.363-0.875-1.482-1.313-3.359-1.313v-0.564c1.377,0,2.408,0.032,3.098,0.094
			c0.688,0.063,1.376,0.063,2.065,0c0.688-0.062,1.721-0.094,3.099-0.094v0.564c-1.878,0-2.635,0.438-2.271,1.313l4.523,10.891
			l4.396-10.891c0.325-0.875-0.452-1.313-2.329-1.313v-0.564c1.101,0,1.924,0.032,2.468,0.094c0.546,0.063,1.091,0.063,1.635,0
			c0.544-0.062,1.369-0.094,2.469-0.094v0.564c-1.878,0-2.979,0.438-3.304,1.313l-7.962,19.716c-0.563,1.377-1.158,2.19-1.784,2.442
			c-0.626,0.25-1.221,0.375-1.783,0.375c-0.501,0-0.973-0.156-1.409-0.469c-0.438-0.313-0.501-0.845-0.187-1.596
			c0.312-0.752,0.999-0.955,2.064-0.61c1.064,0.344,1.983-0.204,2.761-1.644l1.84-4.506L470.979,225.249z"/>
		<path fill="#007E85" d="M489.964,236.61c-1.627-1.565-2.44-3.474-2.44-5.728s0.813-4.162,2.44-5.727
			c1.628-1.564,3.632-2.347,6.009-2.347c2.378,0,4.382,0.783,6.01,2.347c1.627,1.565,2.44,3.474,2.44,5.727s-0.813,4.162-2.44,5.728
			c-1.628,1.564-3.632,2.347-6.01,2.347C493.596,238.957,491.592,238.175,489.964,236.61z M490.058,230.883
			c0,2.078,0.563,3.818,1.69,5.22c1.126,1.402,2.535,2.103,4.225,2.103c1.69,0,3.098-0.701,4.224-2.103
			c1.128-1.402,1.69-3.142,1.69-5.22c0-2.078-0.563-3.818-1.69-5.22c-1.126-1.402-2.533-2.103-4.224-2.103
			c-1.689,0-3.099,0.701-4.225,2.103C490.621,227.065,490.058,228.805,490.058,230.883z"/>
		<path fill="#007E85" d="M508.553,226.94c0-0.877-0.234-1.409-0.704-1.596c-0.47-0.188-1.049-0.282-1.736-0.282v-0.563
			c0.938-0.125,1.674-0.281,2.206-0.469c0.532-0.188,1.173-0.532,1.925-1.032h0.563v8.825c0,2.253,0.368,3.692,1.108,4.318
			c0.737,0.626,1.809,0.939,3.211,0.939c1.251,0,2.503-0.876,3.755-2.629v-7.51c0-0.877-0.235-1.409-0.704-1.596
			c-0.47-0.188-1.048-0.282-1.738-0.282v-0.563c0.939-0.125,1.674-0.281,2.207-0.469c0.531-0.188,1.174-0.532,1.926-1.032h0.563
			v12.768c0,1.001,0.938,1.502,2.816,1.502v0.563c-0.938,0.125-1.769,0.251-2.487,0.375c-0.721,0.125-1.394,0.375-2.019,0.751
			h-0.563v-3.568c-1.64,2.379-3.393,3.568-5.258,3.568c-1.253,0-2.41-0.407-3.474-1.22c-1.065-0.814-1.597-2.16-1.597-4.038V226.94z
			"/>
		<path fill="#007E85" d="M536.513,225.249c-0.363-0.875-1.483-1.313-3.362-1.313v-0.564c1.204,0,2.107,0.032,2.715,0.094
			c0.605,0.063,1.211,0.063,1.812,0c0.6-0.062,1.502-0.094,2.702-0.094v0.564c-1.187,0-1.602,0.438-1.237,1.313l4.524,10.891
			l2.911-7.267l-1.615-3.625c-0.363-0.875-1.14-1.313-2.329-1.313v-0.564c1.376,0,2.41,0.032,3.1,0.094
			c0.688,0.063,1.377,0.063,2.065,0c0.688-0.062,1.721-0.094,3.097-0.094v0.564c-2.564,0-3.666,0.438-3.304,1.313l4.656,10.573
			l4.262-10.573c0.327-0.875-0.793-1.313-3.359-1.313v-0.564c1.265,0,2.216,0.032,2.854,0.094c0.639,0.063,1.274,0.063,1.907,0
			c0.631-0.062,1.579-0.094,2.844-0.094v0.564c-1.877,0-2.979,0.438-3.307,1.313l-5.519,13.708h-0.938l-3.926-8.919l-3.587,8.919
			h-0.938L536.513,225.249z"/>
		<path fill="#007E85" d="M566.012,236.516c0,0.877,0.938,1.314,2.817,1.314v0.563c-1.315,0-2.302-0.031-2.96-0.094
			c-0.656-0.062-1.313-0.062-1.969,0c-0.658,0.063-1.645,0.094-2.96,0.094v-0.563c1.878,0,2.816-0.438,2.816-1.314v-9.201
			c0-0.501-0.251-0.861-0.75-1.08c-0.501-0.219-1.189-0.36-2.066-0.422v-0.564c1.003-0.125,1.909-0.421,2.724-0.892
			c0.813-0.47,1.408-0.922,1.784-1.36h0.563V236.516z M562.97,215.861c0-0.438,0.164-0.823,0.498-1.154
			c0.331-0.332,0.716-0.498,1.154-0.498c0.438,0,0.822,0.166,1.155,0.498c0.33,0.332,0.497,0.716,0.497,1.154
			c0,0.439-0.167,0.824-0.497,1.155c-0.333,0.332-0.718,0.498-1.155,0.498c-0.438,0-0.823-0.166-1.154-0.498
			C563.134,216.685,562.97,216.3,562.97,215.861z"/>
		<path fill="#007E85" d="M572.396,216.424c0-0.876-0.297-1.409-0.892-1.596c-0.595-0.188-1.237-0.281-1.925-0.281v-0.563
			c0.938-0.125,1.768-0.344,2.488-0.657c0.719-0.313,1.392-0.721,2.018-1.221h0.564v24.41c0,0.877,0.939,1.314,2.815,1.314v0.563
			c-1.313,0-2.3-0.031-2.957-0.094c-0.657-0.062-1.314-0.062-1.972,0c-0.656,0.063-1.643,0.094-2.957,0.094v-0.563
			c1.877,0,2.816-0.438,2.816-1.314V216.424z"/>
		<path fill="#007E85" d="M581.033,216.424c0-0.876-0.298-1.409-0.892-1.596c-0.596-0.188-1.236-0.281-1.925-0.281v-0.563
			c0.938-0.125,1.769-0.344,2.487-0.657c0.72-0.313,1.394-0.721,2.019-1.221h0.563v24.41c0,0.877,0.938,1.314,2.816,1.314v0.563
			c-1.313,0-2.3-0.031-2.957-0.094c-0.657-0.062-1.315-0.062-1.973,0c-0.656,0.063-1.642,0.094-2.956,0.094v-0.563
			c1.878,0,2.816-0.438,2.816-1.314V216.424z"/>
		<path fill="#007E85" d="M599.06,216.424c0-0.876-0.299-1.409-0.892-1.596c-0.595-0.188-1.237-0.281-1.927-0.281v-0.563
			c0.94-0.125,1.77-0.344,2.488-0.657c0.72-0.313,1.394-0.721,2.02-1.221h0.564v18.777l7.229-5.634
			c1.188-0.875,0.844-1.313-1.033-1.313v-0.564c1.127,0,1.972,0.032,2.534,0.094c0.563,0.063,1.128,0.063,1.691,0
			c0.563-0.062,1.407-0.094,2.533-0.094v0.564c-1.876,0-3.41,0.438-4.6,1.313l-4.788,3.756l6.665,7.511
			c0.939,0.877,2.349,1.314,4.227,1.314v0.563c-1.379,0-2.411-0.031-3.099-0.094c-0.688-0.062-1.378-0.062-2.066,0
			c-0.688,0.063-1.72,0.094-3.098,0.094v-0.563c1.877,0,2.348-0.438,1.409-1.314l-5.54-6.309l-2.064,1.615v4.694
			c0,0.877,0.939,1.314,2.815,1.314v0.563c-1.314,0-2.3-0.031-2.959-0.094c-0.656-0.062-1.313-0.062-1.969,0
			c-0.658,0.063-1.645,0.094-2.96,0.094v-0.563c1.879,0,2.818-0.438,2.818-1.314V216.424z"/>
		<path fill="#007E85" d="M621.779,226.376c1.641-2.378,3.393-3.567,5.258-3.567c1.251,0,2.41,0.407,3.474,1.22
			c1.063,0.814,1.596,2.159,1.596,4.037v8.45c0,0.877,0.938,1.314,2.816,1.314v0.563c-1.315,0-2.299-0.031-2.956-0.094
			c-0.658-0.062-1.316-0.062-1.973,0c-0.658,0.063-1.643,0.094-2.957,0.094v-0.563c1.878,0,2.818-0.438,2.818-1.314v-6.572
			c0-2.253-0.372-3.693-1.109-4.318c-0.739-0.626-1.81-0.94-3.211-0.94c-1.253,0-2.505,0.876-3.756,2.629v9.201
			c0,0.877,0.939,1.314,2.816,1.314v0.563c-1.314,0-2.301-0.031-2.958-0.094c-0.655-0.062-1.313-0.062-1.971,0
			c-0.657,0.063-1.644,0.094-2.958,0.094v-0.563c1.878,0,2.816-0.438,2.816-1.314v-9.201c0-0.501-0.25-0.861-0.75-1.08
			c-0.501-0.219-1.19-0.36-2.066-0.422v-0.564c1.002-0.125,1.91-0.421,2.725-0.892c0.813-0.47,1.407-0.922,1.783-1.36h0.563V226.376
			z"/>
		<path fill="#007E85" d="M639.055,236.61c-1.628-1.565-2.441-3.474-2.441-5.728s0.813-4.162,2.441-5.727
			c1.628-1.564,3.629-2.347,6.008-2.347s4.381,0.783,6.009,2.347c1.627,1.565,2.441,3.474,2.441,5.727s-0.814,4.162-2.441,5.728
			c-1.628,1.564-3.63,2.347-6.009,2.347S640.683,238.175,639.055,236.61z M639.148,230.883c0,2.078,0.563,3.818,1.689,5.22
			s2.535,2.103,4.225,2.103c1.69,0,3.099-0.701,4.225-2.103c1.128-1.402,1.69-3.142,1.69-5.22c0-2.078-0.563-3.818-1.69-5.22
			c-1.126-1.402-2.534-2.103-4.225-2.103c-1.689,0-3.098,0.701-4.225,2.103S639.148,228.805,639.148,230.883z"/>
		<path fill="#007E85" d="M657.625,225.249c-0.362-0.875-1.484-1.313-3.361-1.313v-0.564c1.202,0,2.106,0.032,2.713,0.094
			c0.607,0.063,1.211,0.063,1.813,0c0.602-0.062,1.502-0.094,2.703-0.094v0.564c-1.188,0-1.603,0.438-1.239,1.313l4.526,10.891
			l2.909-7.267l-1.614-3.625c-0.363-0.875-1.14-1.313-2.328-1.313v-0.564c1.376,0,2.409,0.032,3.098,0.094
			c0.688,0.063,1.377,0.063,2.065,0c0.688-0.062,1.721-0.094,3.099-0.094v0.564c-2.566,0-3.667,0.438-3.304,1.313l4.657,10.573
			l4.261-10.573c0.326-0.875-0.795-1.313-3.36-1.313v-0.564c1.264,0,2.216,0.032,2.853,0.094c0.64,0.063,1.275,0.063,1.907,0
			c0.632-0.062,1.58-0.094,2.844-0.094v0.564c-1.877,0-2.979,0.438-3.305,1.313l-5.52,13.708h-0.938l-3.926-8.919l-3.587,8.919
			h-0.938L657.625,225.249z"/>
		<path fill="#007E85" d="M684.119,238.394c-0.375-0.375-0.563-0.813-0.563-1.314s0.188-0.939,0.563-1.314
			c0.375-0.376,0.814-0.564,1.313-0.564c0.501,0,0.939,0.188,1.315,0.564c0.375,0.375,0.563,0.814,0.563,1.314
			s-0.188,0.939-0.563,1.314c-0.376,0.375-0.814,0.563-1.315,0.563C684.934,238.957,684.494,238.769,684.119,238.394z"/>
	</g>
	<g>
		<path fill="#007E85" d="M468.303,330.071c-0.556-1.34-2.267-2.008-5.136-2.008v-0.86c2.103,0,3.681,0.048,4.734,0.143
			c1.051,0.096,2.104,0.096,3.155,0c1.051-0.095,2.632-0.143,4.735-0.143v0.86c-2.87,0-4.028,0.668-3.472,2.008l6.914,16.644
			l6.715-16.644c0.498-1.34-0.688-2.008-3.558-2.008v-0.86c1.684,0,2.941,0.048,3.772,0.143c0.832,0.096,1.665,0.096,2.496,0
			c0.832-0.095,2.091-0.143,3.773-0.143v0.86c-2.869,0-4.552,0.668-5.05,2.008l-12.167,30.128c-0.859,2.105-1.769,3.349-2.725,3.732
			c-0.958,0.382-1.865,0.574-2.726,0.574c-0.767,0-1.483-0.24-2.152-0.72c-0.672-0.479-0.767-1.291-0.288-2.438
			c0.479-1.149,1.53-1.458,3.156-0.934c1.625,0.525,3.031-0.311,4.219-2.51l2.812-6.887L468.303,330.071z"/>
		<path fill="#007E85" d="M497.313,347.432c-2.486-2.391-3.729-5.309-3.729-8.752s1.243-6.361,3.729-8.752
			c2.486-2.392,5.548-3.587,9.182-3.587c3.635,0,6.695,1.195,9.183,3.587c2.487,2.391,3.73,5.309,3.73,8.752
			s-1.243,6.361-3.73,8.752c-2.487,2.392-5.548,3.587-9.183,3.587C502.86,351.019,499.799,349.823,497.313,347.432z M497.455,338.68
			c0,3.175,0.861,5.835,2.583,7.978c1.722,2.142,3.874,3.213,6.456,3.213c2.583,0,4.734-1.071,6.457-3.213
			c1.723-2.143,2.582-4.803,2.582-7.978s-0.859-5.834-2.582-7.978c-1.723-2.142-3.874-3.214-6.457-3.214
			c-2.582,0-4.734,1.072-6.456,3.214C498.316,332.846,497.455,335.505,497.455,338.68z"/>
		<path fill="#007E85" d="M525.719,332.653c0-1.337-0.357-2.151-1.074-2.439c-0.719-0.286-1.604-0.43-2.656-0.43v-0.86
			c1.436-0.192,2.56-0.43,3.373-0.718c0.813-0.287,1.793-0.813,2.941-1.577h0.86v13.484c0,3.445,0.564,5.646,1.693,6.602
			c1.127,0.956,2.764,1.435,4.907,1.435c1.912,0,3.824-1.341,5.738-4.018v-11.479c0-1.337-0.359-2.151-1.078-2.439
			c-0.716-0.286-1.602-0.43-2.653-0.43v-0.86c1.435-0.192,2.56-0.43,3.372-0.718c0.813-0.287,1.793-0.813,2.942-1.577h0.86v19.511
			c0,1.531,1.436,2.296,4.304,2.296v0.86c-1.435,0.193-2.702,0.383-3.802,0.574c-1.101,0.191-2.129,0.575-3.085,1.148h-0.86v-5.453
			c-2.507,3.636-5.184,5.453-8.035,5.453c-1.914,0-3.683-0.622-5.308-1.865c-1.627-1.243-2.44-3.299-2.44-6.169V332.653z"/>
		<path fill="#007E85" d="M569.048,316.584c0-1.337-0.455-2.151-1.361-2.438c-0.91-0.287-1.891-0.432-2.941-0.432v-0.859
			c1.434-0.191,2.7-0.525,3.802-1.005c1.099-0.479,2.127-1.1,3.086-1.865h0.858v37.303c0,1.339,1.436,2.008,4.306,2.008v0.862
			c-2.01,0-3.516-0.049-4.521-0.143c-1.004-0.099-2.009-0.099-3.012,0c-1.005,0.094-2.512,0.143-4.52,0.143v-0.862
			c2.869,0,4.303-0.669,4.303-2.008V316.584z"/>
		<path fill="#007E85" d="M582.822,347.446c-2.104-2.382-3.156-5.304-3.156-8.767c0-3.825,1.243-6.839,3.73-9.038
			c2.486-2.2,4.973-3.301,7.461-3.301c3.25,0,5.785,0.91,7.603,2.727c1.816,1.817,2.727,4.064,2.727,6.743h-18.079
			c0,4.208,0.813,7.222,2.439,9.039c1.627,1.818,3.396,2.725,5.311,2.725c2.869,0,6.026-1.529,9.468-4.59l0.861,0.574
			c-3.252,4.974-6.888,7.46-10.904,7.46C587.411,351.019,584.926,349.828,582.822,347.446z M597.456,334.663
			c0-1.913-0.603-3.588-1.808-5.021c-1.205-1.436-2.61-2.153-4.219-2.153c-2.868,0-4.974,0.767-6.313,2.296
			c-1.34,1.532-2.01,3.157-2.01,4.879H597.456z"/>
		<path fill="#007E85" d="M605.778,346.428c0-2.869,4.304-5.93,12.911-9.184v-4.534c0-3.097-1.243-4.646-3.731-4.646
			c-2.486,0-4.16,1.338-5.021,4.017c-0.859,2.677-1.77,4.018-2.726,4.018c-0.957,0-1.434-0.479-1.434-1.435
			c0-0.957,1.194-2.583,3.585-4.879c2.392-2.296,4.543-3.443,6.457-3.443c1.913,0,3.443,0.618,4.591,1.851
			c1.147,1.233,1.723,2.684,1.723,4.349v15.609c0,1.146,1.052,0.86,3.154-0.861l0.576,0.574c-1.017,1.913-2.451,2.869-4.306,2.869
			c-1.531,0-2.487-0.861-2.869-2.582c-1.912,1.721-4.39,2.582-7.432,2.582C607.603,350.731,605.778,349.296,605.778,346.428z
			 M609.508,345.565c0,2.297,1.053,3.444,3.155,3.444c2.104,0,4.114-0.669,6.026-2.008v-8.609
			C612.568,340.88,609.508,343.271,609.508,345.565z"/>
		<path fill="#007E85" d="M632.463,333.229c0-0.767-0.383-1.316-1.148-1.65c-0.766-0.336-1.816-0.551-3.155-0.646v-0.861
			c1.529-0.191,2.917-0.646,4.16-1.362c1.243-0.718,2.152-1.411,2.726-2.08h0.861v6.601c1.53-4.593,3.588-6.889,6.168-6.889
			c2.584,0,3.877,0.766,3.877,2.296s-0.338,2.438-1.007,2.728c-0.668,0.284-1.435,0.143-2.294-0.432
			c-0.861-0.573-1.865-0.909-3.015-1.005c-1.147-0.096-2.392,1.482-3.729,4.735v12.625c0,1.339,1.435,2.008,4.304,2.008v0.862
			c-2.009,0-3.515-0.049-4.52-0.143c-1.004-0.099-2.009-0.099-3.012,0c-1.005,0.094-2.511,0.143-4.52,0.143v-0.862
			c2.869,0,4.304-0.669,4.304-2.008V333.229z"/>
		<path fill="#007E85" d="M656.28,331.794c2.505-3.634,5.183-5.453,8.033-5.453c1.913,0,3.683,0.622,5.309,1.865
			c1.626,1.244,2.438,3.301,2.438,6.17v12.912c0,1.339,1.436,2.008,4.306,2.008v0.862c-2.011,0-3.515-0.049-4.52-0.143
			c-1.006-0.099-2.01-0.099-3.014,0c-1.004,0.094-2.511,0.143-4.52,0.143v-0.862c2.87,0,4.304-0.669,4.304-2.008v-10.044
			c0-3.441-0.564-5.642-1.691-6.601c-1.13-0.954-2.766-1.434-4.907-1.434c-1.913,0-3.826,1.341-5.738,4.02v14.059
			c0,1.339,1.436,2.008,4.304,2.008v0.862c-2.009,0-3.516-0.049-4.519-0.143c-1.005-0.099-2.011-0.099-3.015,0
			c-1.004,0.094-2.511,0.143-4.52,0.143v-0.862c2.869,0,4.305-0.669,4.305-2.008v-14.059c0-0.767-0.383-1.316-1.147-1.65
			c-0.766-0.336-1.816-0.551-3.157-0.646v-0.861c1.532-0.191,2.918-0.646,4.162-1.362c1.242-0.718,2.153-1.411,2.726-2.08h0.861
			V331.794z"/>
		<path fill="#007E85" d="M681.243,350.158c-0.575-0.574-0.862-1.243-0.862-2.009s0.287-1.435,0.862-2.01
			c0.572-0.574,1.243-0.86,2.008-0.86c0.766,0,1.436,0.286,2.011,0.86c0.572,0.575,0.955,1.244,1.146,2.01
			c0.191,0.766,0.288,1.435,0.288,2.009c0,0.573-0.097,1.292-0.288,2.151c-0.19,0.86-0.764,1.842-1.721,2.94
			c-0.957,1.101-2.393,2.081-4.306,2.942v-0.861c1.913-1.339,3.063-2.343,3.445-3.011c0.383-0.673,0.668-1.389,0.86-2.154
			c0.192-0.764-0.192-1.147-1.148-1.147S681.815,350.731,681.243,350.158z"/>
	</g>
	<g>
		<path fill="#007E85" d="M464.356,436.697c-0.613-1.48-2.504-2.221-5.677-2.221v-0.952c2.326,0,4.07,0.054,5.233,0.159
			c1.163,0.106,2.326,0.106,3.489,0c1.162-0.105,2.907-0.159,5.232-0.159v0.952c-3.172,0-4.45,0.74-3.838,2.221l7.644,18.394
			l7.422-18.394c0.549-1.48-0.761-2.221-3.933-2.221v-0.952c1.859,0,3.251,0.054,4.171,0.159c0.918,0.106,1.839,0.106,2.758,0
			c0.919-0.105,2.311-0.159,4.171-0.159v0.952c-3.172,0-5.031,0.74-5.583,2.221L472,469.998c-0.951,2.325-1.955,3.697-3.012,4.121
			c-1.058,0.423-2.063,0.635-3.014,0.635c-0.846,0-1.639-0.266-2.378-0.792c-0.741-0.528-0.847-1.429-0.317-2.697
			c0.528-1.267,1.69-1.612,3.488-1.028c1.797,0.58,3.351-0.345,4.662-2.777l3.108-7.61L464.356,436.697z"/>
		<path fill="#007E85" d="M496.421,455.884c-2.747-2.643-4.124-5.867-4.124-9.673s1.377-7.03,4.124-9.673
			c2.748-2.642,6.132-3.965,10.15-3.965c4.015,0,7.398,1.323,10.147,3.965c2.749,2.643,4.123,5.867,4.123,9.673
			s-1.374,7.03-4.123,9.673c-2.749,2.642-6.133,3.965-10.147,3.965C502.553,459.849,499.169,458.525,496.421,455.884z
			 M496.579,446.211c0,3.51,0.951,6.448,2.854,8.816c1.904,2.368,4.281,3.553,7.138,3.553c2.854,0,5.232-1.185,7.133-3.553
			c1.905-2.368,2.856-5.307,2.856-8.816s-0.951-6.448-2.856-8.816c-1.9-2.368-4.279-3.553-7.133-3.553
			c-2.856,0-5.233,1.185-7.138,3.553C497.53,439.763,496.579,442.701,496.579,446.211z"/>
		<path fill="#007E85" d="M527.819,439.55c0-1.479-0.396-2.378-1.189-2.694c-0.793-0.317-1.772-0.477-2.935-0.477v-0.951
			c1.586-0.211,2.827-0.476,3.728-0.792c0.897-0.318,1.98-0.897,3.25-1.745h0.951v14.906c0,3.806,0.624,6.237,1.871,7.294
			c1.247,1.058,3.055,1.586,5.424,1.586c2.114,0,4.229-1.479,6.343-4.439V439.55c0-1.479-0.396-2.378-1.188-2.694
			c-0.794-0.317-1.772-0.477-2.935-0.477v-0.951c1.586-0.211,2.828-0.476,3.727-0.792c0.897-0.318,1.981-0.897,3.251-1.745h0.951
			v21.566c0,1.691,1.586,2.537,4.758,2.537v0.952c-1.586,0.21-2.987,0.422-4.202,0.634c-1.217,0.211-2.353,0.635-3.41,1.269h-0.951
			v-6.025c-2.77,4.017-5.73,6.025-8.881,6.025c-2.114,0-4.07-0.688-5.866-2.062c-1.798-1.375-2.695-3.646-2.695-6.819V439.55z"/>
		<path fill="#007E85" d="M559.217,424.645c-0.635-0.634-0.952-1.373-0.952-2.22c0-0.846,0.317-1.585,0.952-2.219
			c0.634-0.636,1.372-0.952,2.22-0.952c0.845,0,1.585,0.316,2.22,0.952c0.635,0.634,1.058,1.373,1.269,2.219
			c0.211,0.847,0.318,1.586,0.318,2.22c0,0.635-0.107,1.429-0.318,2.379c-0.211,0.951-0.845,2.035-1.903,3.252
			c-1.057,1.213-2.643,2.298-4.757,3.249v-0.951c2.114-1.48,3.383-2.59,3.806-3.33c0.424-0.738,0.74-1.531,0.951-2.378
			c0.213-0.848-0.211-1.269-1.269-1.269S559.851,425.279,559.217,424.645z"/>
		<path fill="#007E85" d="M573.805,421.79c0-1.48-0.501-2.378-1.506-2.695c-1.006-0.317-2.09-0.475-3.251-0.475v-0.952
			c1.585-0.212,2.985-0.581,4.202-1.111c1.217-0.527,2.352-1.215,3.409-2.06h0.952v41.229c0,1.479,1.585,2.221,4.757,2.221v0.95
			c-2.22,0-3.886-0.054-4.995-0.158c-1.11-0.106-2.221-0.106-3.33,0c-1.11,0.104-2.775,0.158-4.995,0.158v-0.95
			c3.172,0,4.757-0.741,4.757-2.221V421.79z"/>
		<path fill="#007E85" d="M588.394,421.79c0-1.48-0.503-2.378-1.506-2.695c-1.005-0.317-2.088-0.475-3.251-0.475v-0.952
			c1.585-0.212,2.984-0.581,4.201-1.111c1.216-0.527,2.354-1.215,3.41-2.06h0.951v41.229c0,1.479,1.587,2.221,4.757,2.221v0.95
			c-2.22,0-3.885-0.054-4.994-0.158c-1.11-0.106-2.221-0.106-3.33,0c-1.11,0.104-2.776,0.158-4.995,0.158v-0.95
			c3.172,0,4.757-0.741,4.757-2.221V421.79z"/>
		<path fill="#007E85" d="M618.126,473.01c-2.694-1.587-4.044-3.542-4.044-5.867s2.433-4.651,7.296-6.978
			c-3.807-1.479-5.709-3.119-5.709-4.916s2.644-2.906,7.928-3.329c-1.459-0.423-2.933-1.479-4.423-3.172
			c-1.492-1.691-2.237-3.752-2.237-6.184c0-2.791,1.017-5.153,3.045-7.088c2.029-1.937,4.505-2.903,7.421-2.903
			c2.306,0,4.313,0.592,6.025,1.775c2.432,0.932,4.971,0.973,7.612,0.128v3.488c-2.41-0.021-4.028-0.327-4.853-0.919
			c1.1,1.543,1.66,3.384,1.682,5.519c0,2.77-1.006,5.126-3.014,7.071c-2.008,1.946-4.492,2.918-7.453,2.918
			c-5.496,0-8.246,0.846-8.246,2.537c0,1.693,3.12,2.537,9.356,2.537s10.148,0.846,11.734,2.537c1.587,1.692,2.38,3.752,2.38,6.185
			c0,2.431-1.35,4.545-4.046,6.344c-2.694,1.795-6.104,2.696-10.227,2.696S620.822,474.596,618.126,473.01z M617.889,467.143
			c0,2.325,1.109,4.071,3.331,5.233c2.219,1.161,4.598,1.743,7.135,1.743s5.128-0.686,7.77-2.062
			c2.644-1.373,3.964-3.277,3.964-5.708c0-2.433-1.469-3.858-4.408-4.282c-2.938-0.422-7.452-0.634-13.542-0.634
			C619.305,462.913,617.889,464.817,617.889,467.143z M622.52,448.843c1.184,1.629,2.821,2.442,4.917,2.442
			c2.091,0,3.719-0.813,4.883-2.442c1.163-1.628,1.742-3.721,1.742-6.278c0-2.58-0.579-4.679-1.742-6.295
			c-1.164-1.618-2.803-2.428-4.917-2.428c-2.071,0-3.699,0.81-4.883,2.428c-1.187,1.616-1.776,3.715-1.776,6.295
			C620.743,445.122,621.333,447.215,622.52,448.843z"/>
		<path fill="#007E85" d="M648.969,455.884c-2.748-2.643-4.124-5.867-4.124-9.673s1.376-7.03,4.124-9.673
			c2.748-2.642,6.132-3.965,10.15-3.965c4.016,0,7.399,1.323,10.148,3.965c2.748,2.643,4.121,5.867,4.121,9.673
			s-1.373,7.03-4.121,9.673c-2.749,2.642-6.133,3.965-10.148,3.965C655.101,459.849,651.717,458.525,648.969,455.884z
			 M649.128,446.211c0,3.51,0.95,6.448,2.854,8.816c1.903,2.368,4.28,3.553,7.137,3.553c2.853,0,5.232-1.185,7.134-3.553
			c1.904-2.368,2.856-5.307,2.856-8.816s-0.952-6.448-2.856-8.816c-1.901-2.368-4.281-3.553-7.134-3.553
			c-2.856,0-5.233,1.185-7.137,3.553C650.078,439.763,649.128,442.701,649.128,446.211z"/>
		<path fill="#007E85" d="M680.368,458.896c-0.635-0.634-0.952-1.374-0.952-2.22c0-0.845,0.317-1.586,0.952-2.22
			c0.634-0.634,1.373-0.951,2.218-0.951c0.846,0,1.586,0.317,2.222,0.951c0.635,0.634,0.952,1.375,0.952,2.22
			c0,0.846-0.317,1.586-0.952,2.22c-0.636,0.636-1.376,0.952-2.222,0.952C681.741,459.849,681.002,459.532,680.368,458.896z"/>
	</g>
</g>
</svg>
