<?xml version="1.0" encoding="utf-8"?>
<!-- Generator: Adobe Illustrator 14.0.0, SVG Export Plug-In . SVG Version: 6.00 Build 43363)  -->
<!DOCTYPE svg PUBLIC "-//W3C//DTD SVG 1.1//EN" "http://www.w3.org/Graphics/SVG/1.1/DTD/svg11.dtd">
<svg version="1.1" id="Layer_1" xmlns="http://www.w3.org/2000/svg" xmlns:xlink="http://www.w3.org/1999/xlink" x="0px" y="0px"
	 width="1296px" height="864px" viewBox="0 0 1296 864" enable-background="new 0 0 1296 864" xml:space="preserve">
<rect id="photo" fill="#D0D2D3" width="1296" height="864"/>
<rect id="fill-shadow" x="843.082" opacity="0.75" fill="#FFFFFF" width="452.918" height="864"/>
<g id="fill-dr-seuss">
	<g>
		<path fill="#929497" d="M1049.633,805.671v2.549h-12.742v-2.549H1049.633z"/>
		<path fill="#929497" d="M1053.456,817.14v-0.765c3.397,0,5.097-0.595,5.097-1.784v-28.033c0-1.189-1.699-1.784-5.097-1.784v-0.765
			c8.495-0.424,15.206-0.212,20.133,0.638c8.665,2.124,12.998,7.433,12.998,15.928s-4.333,13.805-12.998,15.929
			C1068.662,817.352,1061.951,817.564,1053.456,817.14z M1062.376,816.12c13.592,0,20.388-5.182,20.388-15.546
			c0-10.363-6.796-15.546-20.388-15.546V816.12z"/>
		<path fill="#929497" d="M1093.467,802.104c0-0.68-0.34-1.168-1.019-1.466c-0.681-0.297-1.615-0.488-2.804-0.573V799.3
			c1.359-0.169,2.591-0.573,3.695-1.21c1.104-0.638,1.911-1.253,2.421-1.848h0.765v5.861c1.359-4.078,3.186-6.116,5.479-6.116
			s3.44,0.68,3.44,2.038c0,1.36-0.298,2.167-0.893,2.422s-1.273,0.127-2.038-0.383s-1.657-0.807-2.676-0.892
			c-1.02-0.085-2.124,1.316-3.313,4.205v11.213c0,1.189,1.274,1.784,3.823,1.784v0.765c-1.784,0-3.122-0.042-4.015-0.127
			c-0.892-0.085-1.784-0.085-2.676,0s-2.229,0.127-4.014,0.127v-0.765c2.549,0,3.822-0.595,3.822-1.784V802.104z"/>
		<path fill="#929497" d="M1110.288,817.14c-0.51-0.51-0.765-1.104-0.765-1.784c0-0.679,0.255-1.274,0.765-1.784
			c0.509-0.509,1.104-0.764,1.783-0.764s1.274,0.255,1.784,0.764c0.51,0.51,0.765,1.105,0.765,1.784c0,0.68-0.255,1.274-0.765,1.784
			s-1.104,0.765-1.784,0.765S1110.797,817.649,1110.288,817.14z"/>
		<path fill="#929497" d="M1135.008,806.69c0.68,4.928,2.4,7.965,5.161,9.111s5.479,1.146,8.155,0s4.014-3.343,4.014-6.588
			s-3.144-5.7-9.43-7.365s-9.429-4.285-9.429-7.862c0-3.576,0.765-6.261,2.293-8.053c1.529-1.793,4.205-2.689,8.028-2.689
			c2.888,0,5.075,0.425,6.563,1.274c1.486,0.85,2.739,1.274,3.759,1.274v7.136h-1.529c-0.51-4.332-2.103-6.966-4.778-7.9
			s-5.279-0.926-7.812,0.025c-2.531,0.952-3.797,2.905-3.797,5.861c0,2.957,3.155,5.271,9.468,6.945
			c6.312,1.674,9.468,4.431,9.468,8.27c0,3.84-0.943,6.763-2.829,8.767c-1.886,2.006-4.464,3.008-7.734,3.008
			c-3.271,0-5.684-0.553-7.238-1.656c-1.555-1.104-2.842-1.657-3.86-1.657v-7.9H1135.008z"/>
		<path fill="#929497" d="M1163.041,814.731c-1.869-2.115-2.803-4.711-2.803-7.786c0-3.397,1.104-6.073,3.313-8.027
			s4.418-2.931,6.626-2.931c2.889,0,5.14,0.807,6.754,2.421s2.421,3.61,2.421,5.989h-16.056c0,3.737,0.723,6.413,2.167,8.027
			c1.443,1.614,3.016,2.421,4.714,2.421c2.549,0,5.353-1.358,8.41-4.077l0.765,0.51c-2.889,4.417-6.116,6.626-9.684,6.626
			C1167.119,817.904,1164.91,816.847,1163.041,814.731z M1176.039,803.378c0-1.699-0.535-3.186-1.605-4.46s-2.319-1.911-3.747-1.911
			c-2.548,0-4.417,0.68-5.606,2.038c-1.189,1.359-1.784,2.804-1.784,4.333H1176.039z"/>
		<path fill="#929497" d="M1185.214,801.594c0-1.189-0.319-1.911-0.956-2.166c-0.638-0.255-1.423-0.383-2.357-0.383v-0.765
			c1.274-0.169,2.272-0.382,2.994-0.637c0.723-0.255,1.593-0.722,2.612-1.401h0.765v11.978c0,3.059,0.501,5.013,1.504,5.861
			c1.002,0.851,2.455,1.274,4.357,1.274c1.699,0,3.398-1.188,5.098-3.567v-10.194c0-1.189-0.318-1.911-0.956-2.166
			c-0.637-0.255-1.423-0.383-2.357-0.383v-0.765c1.274-0.169,2.272-0.382,2.995-0.637c0.722-0.255,1.593-0.722,2.611-1.401h0.765
			v17.329c0,1.36,1.274,2.039,3.823,2.039v0.765c-1.274,0.17-2.4,0.34-3.377,0.51c-0.978,0.17-1.891,0.51-2.739,1.02h-0.765v-4.842
			c-2.227,3.228-4.604,4.842-7.136,4.842c-1.699,0-3.271-0.553-4.715-1.656c-1.444-1.104-2.166-2.932-2.166-5.479V801.594z"/>
		<path fill="#929497" d="M1209.17,816.375v-5.861h1.02c0.339,2.719,1.461,4.502,3.363,5.352c1.155,0.51,2.243,0.765,3.263,0.765
			c0.646,0,1.308-0.127,1.987-0.382c1.563-0.595,2.345-1.848,2.345-3.76c0-1.911-1.996-3.397-5.989-4.46
			c-3.992-1.062-5.988-2.781-5.988-5.16s0.552-4.078,1.656-5.098c1.104-1.019,2.846-1.528,5.225-1.528
			c2.378,0,3.992,0.255,4.842,0.765c0.85,0.509,1.614,0.764,2.294,0.764v4.588h-1.02c-0.34-2.719-1.427-4.333-3.262-4.843
			c-0.612-0.169-1.521-0.254-2.728-0.254s-1.945,0.042-2.217,0.127c-1.495,0.425-2.243,1.508-2.243,3.249
			c0,1.742,1.996,3.144,5.989,4.205c3.992,1.063,5.989,2.867,5.989,5.416s-0.659,4.418-1.976,5.606
			c-1.316,1.189-3.016,1.784-5.097,1.784s-3.674-0.213-4.778-0.637C1210.741,816.588,1209.849,816.375,1209.17,816.375z"/>
		<path fill="#929497" d="M1228.794,816.375v-5.861h1.02c0.339,2.719,1.461,4.502,3.363,5.352c1.155,0.51,2.243,0.765,3.263,0.765
			c0.646,0,1.308-0.127,1.987-0.382c1.563-0.595,2.345-1.848,2.345-3.76c0-1.911-1.996-3.397-5.989-4.46
			c-3.992-1.062-5.988-2.781-5.988-5.16s0.552-4.078,1.656-5.098c1.104-1.019,2.846-1.528,5.225-1.528
			c2.378,0,3.992,0.255,4.842,0.765c0.85,0.509,1.614,0.764,2.294,0.764v4.588h-1.02c-0.34-2.719-1.427-4.333-3.262-4.843
			c-0.612-0.169-1.521-0.254-2.728-0.254s-1.945,0.042-2.217,0.127c-1.495,0.425-2.243,1.508-2.243,3.249
			c0,1.742,1.996,3.144,5.989,4.205c3.992,1.063,5.989,2.867,5.989,5.416s-0.659,4.418-1.976,5.606
			c-1.316,1.189-3.016,1.784-5.097,1.784s-3.674-0.213-4.778-0.637C1230.365,816.588,1229.473,816.375,1228.794,816.375z"/>
	</g>
</g>
<g id="fill-plain-lines">
	<g>
		<path fill="#404041" d="M910.985,107.271v-0.9c4.001,0,6.002-0.7,6.002-2.101V69.461h-7.502c-2.4,0-4.101,0.4-5.102,1.201
			c-1,0.8-1.9,2.451-2.7,4.951h-1.2c0.6-2.9,0.9-5.351,0.9-7.352h35.709c0,2.001,0.3,4.452,0.899,7.352h-1.2
			c-0.8-2.5-1.7-4.151-2.7-4.951c-1.001-0.8-2.701-1.201-5.102-1.201h-7.502v34.809c0,1.401,2,2.101,6.002,2.101v0.9
			c-2.761,0-4.827-0.05-6.197-0.15s-2.74-0.1-4.11,0C915.812,107.221,913.746,107.271,910.985,107.271z"/>
		<path fill="#404041" d="M943.994,72.162c0-1.4-0.476-2.25-1.426-2.55c-0.95-0.3-1.976-0.45-3.075-0.45v-0.9
			c1.5-0.2,2.825-0.55,3.976-1.05c1.15-0.5,2.226-1.15,3.226-1.95h0.9v22.806c2.62-3.801,5.421-5.702,8.402-5.702
			c2,0,3.851,0.65,5.551,1.951s2.551,3.451,2.551,6.452v13.503c0,1.401,1.501,2.101,4.501,2.101v0.9c-2.101,0-3.676-0.05-4.726-0.15
			c-1.051-0.1-2.101-0.1-3.151,0c-1.05,0.1-2.625,0.15-4.726,0.15v-0.9c3,0,4.501-0.7,4.501-2.101V93.768
			c0-3.601-0.591-5.901-1.771-6.902c-1.181-1-2.891-1.5-5.131-1.5c-2.001,0-4.002,1.4-6.002,4.201v14.704
			c0,1.401,1.5,2.101,4.501,2.101v0.9c-2.101,0-3.676-0.05-4.726-0.15c-1.051-0.1-2.101-0.1-3.151,0
			c-1.05,0.1-2.626,0.15-4.726,0.15v-0.9c3,0,4.501-0.7,4.501-2.101V72.162z"/>
		<path fill="#404041" d="M974.901,104.435c-2.2-2.49-3.301-5.546-3.301-9.167c0-4.001,1.301-7.152,3.901-9.452
			s5.201-3.451,7.802-3.451c3.4,0,6.051,0.951,7.952,2.851c1.9,1.901,2.851,4.251,2.851,7.052h-18.904
			c0,4.401,0.85,7.552,2.55,9.453c1.7,1.901,3.551,2.851,5.552,2.851c3.001,0,6.302-1.6,9.902-4.801l0.9,0.6
			c-3.401,5.202-7.202,7.802-11.403,7.802C979.703,108.171,977.102,106.926,974.901,104.435z M990.205,91.067
			c0-2-0.63-3.751-1.891-5.251c-1.26-1.5-2.73-2.251-4.41-2.251c-3.001,0-5.202,0.801-6.603,2.401c-1.4,1.601-2.1,3.301-2.1,5.101
			H990.205z"/>
		<path fill="#404041" d="M1021.113,88.066c2.62-3.801,5.421-5.702,8.402-5.702c2,0,3.851,0.65,5.551,1.951
			c1.2,0.92,1.98,2.271,2.341,4.051c2.761-4,5.631-6.001,8.612-6.001c2,0,3.851,0.65,5.551,1.951s2.551,3.451,2.551,6.452v13.503
			c0,1.401,1.501,2.101,4.501,2.101v0.9c-2.101,0-3.676-0.05-4.726-0.15c-1.051-0.1-2.101-0.1-3.151,0
			c-1.05,0.1-2.625,0.15-4.726,0.15v-0.9c3.001,0,4.501-0.7,4.501-2.101V93.768c0-3.721-0.591-6.051-1.771-6.992
			c-1.181-0.94-2.891-1.41-5.131-1.41c-2.001,0-4.021,1.43-6.062,4.291c0.039,0.34,0.06,0.71,0.06,1.11v13.503
			c0,1.401,1.5,2.101,4.501,2.101v0.9c-2.101,0-3.676-0.05-4.726-0.15c-1.051-0.1-2.101-0.1-3.151,0
			c-1.05,0.1-2.626,0.15-4.726,0.15v-0.9c3,0,4.501-0.7,4.501-2.101V93.768c0-3.721-0.591-6.051-1.771-6.992
			c-1.181-0.94-2.892-1.41-5.132-1.41c-2,0-4.001,1.4-6.001,4.201v14.704c0,1.401,1.5,2.101,4.501,2.101v0.9
			c-2.101,0-3.676-0.05-4.727-0.15c-1.05-0.1-2.101-0.1-3.15,0s-2.626,0.15-4.727,0.15v-0.9c3.001,0,4.502-0.7,4.502-2.101V89.566
			c0-0.8-0.4-1.375-1.201-1.725c-0.8-0.35-1.9-0.575-3.301-0.675v-0.9c1.601-0.2,3.051-0.675,4.352-1.425
			c1.3-0.75,2.25-1.475,2.851-2.175h0.9V88.066z"/>
		<path fill="#404041" d="M1065.225,104.42c-2.602-2.5-3.901-5.551-3.901-9.152s1.3-6.651,3.901-9.152
			c2.6-2.5,5.801-3.751,9.602-3.751s7.002,1.25,9.603,3.751c2.601,2.501,3.901,5.551,3.901,9.152s-1.301,6.652-3.901,9.152
			c-2.601,2.501-5.802,3.751-9.603,3.751S1067.824,106.921,1065.225,104.42z M1065.374,95.268c0,3.321,0.9,6.102,2.701,8.342
			c1.8,2.241,4.051,3.361,6.751,3.361c2.701,0,4.951-1.12,6.752-3.361c1.801-2.24,2.701-5.021,2.701-8.342
			c0-3.32-0.9-6.102-2.701-8.342c-1.801-2.24-4.051-3.361-6.752-3.361c-2.7,0-4.951,1.121-6.751,3.361
			C1066.274,89.167,1065.374,91.948,1065.374,95.268z"/>
		<path fill="#404041" d="M1096.132,89.566c0-0.8-0.4-1.375-1.2-1.725s-1.9-0.575-3.301-0.675v-0.9
			c1.601-0.2,3.051-0.675,4.352-1.425c1.3-0.75,2.25-1.475,2.851-2.175h0.9v6.901c1.6-4.801,3.751-7.202,6.451-7.202
			s4.051,0.8,4.051,2.401s-0.35,2.55-1.05,2.851c-0.701,0.3-1.501,0.15-2.4-0.45c-0.9-0.6-1.951-0.95-3.151-1.05
			c-1.2-0.1-2.501,1.551-3.9,4.951v13.203c0,1.401,1.5,2.101,4.501,2.101v0.9c-2.101,0-3.676-0.05-4.727-0.15
			c-1.05-0.1-2.101-0.1-3.15,0c-1.051,0.1-2.626,0.15-4.727,0.15v-0.9c3.001,0,4.501-0.7,4.501-2.101V89.566z"/>
		<path fill="#404041" d="M1117.137,104.435c-2.2-2.49-3.301-5.546-3.301-9.167c0-4.001,1.301-7.152,3.901-9.452
			s5.201-3.451,7.802-3.451c3.4,0,6.051,0.951,7.952,2.851c1.9,1.901,2.851,4.251,2.851,7.052h-18.904
			c0,4.401,0.85,7.552,2.55,9.453c1.7,1.901,3.551,2.851,5.552,2.851c3.001,0,6.302-1.6,9.902-4.801l0.9,0.6
			c-3.401,5.202-7.202,7.802-11.403,7.802C1121.938,108.171,1119.337,106.926,1117.137,104.435z M1132.44,91.067
			c0-2-0.63-3.751-1.891-5.251c-1.26-1.5-2.73-2.251-4.41-2.251c-3.001,0-5.202,0.801-6.603,2.401c-1.4,1.601-2.1,3.301-2.1,5.101
			H1132.44z"/>
		<path fill="#404041" d="M1154.347,85.366v-1.5c2,0,3.65-0.75,4.951-2.25c1.3-1.5,2.25-3.451,2.851-5.852h1.2v7.502h6.901v2.101
			h-6.901v17.314c0,1.861,0.9,2.791,2.7,2.791c1.801,0,3.451-0.75,4.951-2.25l0.751,0.75c-1.801,2.601-3.802,3.901-6.002,3.901
			c-2.201,0-3.801-0.5-4.801-1.5c-1.001-1-1.501-2.73-1.501-5.191V85.366H1154.347z"/>
		<path fill="#404041" d="M1177.452,72.162c0-1.4-0.476-2.25-1.426-2.55c-0.95-0.3-1.976-0.45-3.075-0.45v-0.9
			c1.5-0.2,2.825-0.55,3.976-1.05c1.15-0.5,2.226-1.15,3.226-1.95h0.9v22.806c2.62-3.801,5.421-5.702,8.402-5.702
			c2,0,3.851,0.65,5.551,1.951s2.551,3.451,2.551,6.452v13.503c0,1.401,1.501,2.101,4.501,2.101v0.9c-2.101,0-3.676-0.05-4.726-0.15
			c-1.051-0.1-2.101-0.1-3.151,0c-1.05,0.1-2.625,0.15-4.726,0.15v-0.9c3,0,4.501-0.7,4.501-2.101V93.768
			c0-3.601-0.591-5.901-1.771-6.902c-1.181-1-2.891-1.5-5.131-1.5c-2.001,0-4.002,1.4-6.002,4.201v14.704
			c0,1.401,1.5,2.101,4.501,2.101v0.9c-2.101,0-3.676-0.05-4.726-0.15c-1.051-0.1-2.101-0.1-3.151,0
			c-1.05,0.1-2.626,0.15-4.726,0.15v-0.9c3,0,4.501-0.7,4.501-2.101V72.162z"/>
		<path fill="#404041" d="M1205.059,103.37c0-3.001,4.501-6.201,13.504-9.603v-4.741c0-3.241-1.301-4.861-3.901-4.861
			s-4.351,1.401-5.251,4.201c-0.9,2.801-1.851,4.201-2.851,4.201c-1.001,0-1.501-0.5-1.501-1.5c0-1,1.25-2.701,3.751-5.101
			c2.501-2.401,4.751-3.601,6.752-3.601c2,0,3.601,0.645,4.801,1.936s1.801,2.806,1.801,4.546v16.324c0,1.2,1.1,0.9,3.301-0.9
			l0.601,0.601c-1.061,2-2.562,3-4.502,3c-1.601,0-2.601-0.9-3-2.701c-2.001,1.8-4.592,2.701-7.772,2.701
			C1206.969,107.871,1205.059,106.371,1205.059,103.37z M1208.96,102.47c0,2.401,1.1,3.601,3.301,3.601c2.2,0,4.301-0.7,6.302-2.101
			v-9.002C1212.16,97.569,1208.96,100.069,1208.96,102.47z"/>
		<path fill="#404041" d="M1227.864,85.366v-1.5c2,0,3.65-0.75,4.951-2.25c1.3-1.5,2.25-3.451,2.851-5.852h1.2v7.502h6.901v2.101
			h-6.901v17.314c0,1.861,0.9,2.791,2.7,2.791c1.801,0,3.451-0.75,4.951-2.25l0.751,0.75c-1.801,2.601-3.802,3.901-6.002,3.901
			c-2.201,0-3.801-0.5-4.801-1.5c-1.001-1-1.501-2.73-1.501-5.191V85.366H1227.864z"/>
	</g>
	<g>
		<path fill="#404041" d="M900.284,260.721v-1.372c1.828,0,3.337-0.686,4.525-2.057c1.188-1.372,2.057-3.154,2.605-5.349h1.097
			v6.857h6.309v1.92h-6.309v15.826c0,1.7,0.823,2.551,2.469,2.551s3.154-0.686,4.525-2.057l0.686,0.686
			c-1.646,2.377-3.474,3.565-5.485,3.565s-3.474-0.457-4.388-1.371c-0.915-0.914-1.372-2.496-1.372-4.745v-14.454H900.284z"/>
		<path fill="#404041" d="M921.403,248.653c0-1.28-0.435-2.057-1.304-2.332c-0.868-0.274-1.806-0.411-2.811-0.411v-0.823
			c1.371-0.182,2.582-0.502,3.634-0.96c1.052-0.457,2.034-1.051,2.948-1.783h0.823v20.845c2.395-3.474,4.955-5.211,7.68-5.211
			c1.828,0,3.52,0.594,5.074,1.783c1.554,1.189,2.331,3.154,2.331,5.897V278c0,1.28,1.371,1.92,4.114,1.92v0.823
			c-1.92,0-3.36-0.045-4.32-0.137c-0.96-0.091-1.92-0.091-2.88,0c-0.96,0.092-2.399,0.137-4.319,0.137v-0.823
			c2.742,0,4.114-0.64,4.114-1.92v-9.6c0-3.292-0.54-5.394-1.618-6.308c-1.079-0.915-2.643-1.372-4.69-1.372
			c-1.829,0-3.657,1.28-5.485,3.84V278c0,1.28,1.371,1.92,4.114,1.92v0.823c-1.92,0-3.36-0.045-4.32-0.137
			c-0.96-0.091-1.92-0.091-2.88,0c-0.96,0.092-2.399,0.137-4.319,0.137v-0.823c2.742,0,4.114-0.64,4.114-1.92V248.653z"/>
		<path fill="#404041" d="M949.653,278.151c-2.012-2.276-3.017-5.069-3.017-8.379c0-3.657,1.188-6.537,3.565-8.64
			s4.754-3.154,7.131-3.154c3.108,0,5.531,0.869,7.269,2.605c1.737,1.737,2.605,3.886,2.605,6.445h-17.279
			c0,4.023,0.777,6.903,2.331,8.64c1.555,1.737,3.246,2.606,5.074,2.606c2.743,0,5.76-1.463,9.051-4.389l0.823,0.549
			c-3.108,4.754-6.582,7.131-10.422,7.131C954.042,281.566,951.665,280.428,949.653,278.151z M963.642,265.933
			c0-1.829-0.576-3.429-1.728-4.8c-1.152-1.372-2.496-2.057-4.032-2.057c-2.743,0-4.755,0.731-6.034,2.194
			c-1.28,1.463-1.92,3.017-1.92,4.663H963.642z"/>
		<path fill="#404041" d="M991.891,263.189c2.396-3.474,4.955-5.211,7.68-5.211c1.828,0,3.521,0.594,5.074,1.783
			c1.098,0.841,1.811,2.076,2.14,3.703c2.523-3.657,5.146-5.485,7.871-5.485c1.829,0,3.521,0.594,5.074,1.783
			c1.555,1.189,2.332,3.154,2.332,5.897V278c0,1.28,1.371,1.92,4.113,1.92v0.823c-1.92,0-3.359-0.045-4.319-0.137
			c-0.96-0.091-1.92-0.091-2.88,0c-0.96,0.092-2.4,0.137-4.32,0.137v-0.823c2.743,0,4.114-0.64,4.114-1.92v-9.6
			c0-3.401-0.539-5.531-1.618-6.391c-1.079-0.859-2.643-1.289-4.689-1.289c-1.829,0-3.676,1.308-5.541,3.922
			c0.037,0.312,0.055,0.649,0.055,1.015V278c0,1.28,1.372,1.92,4.114,1.92v0.823c-1.92,0-3.359-0.045-4.319-0.137
			c-0.96-0.091-1.92-0.091-2.88,0c-0.96,0.092-2.4,0.137-4.32,0.137v-0.823c2.743,0,4.114-0.64,4.114-1.92v-9.6
			c0-3.401-0.539-5.531-1.618-6.391c-1.079-0.859-2.643-1.289-4.689-1.289c-1.829,0-3.658,1.28-5.486,3.84V278
			c0,1.28,1.372,1.92,4.114,1.92v0.823c-1.92,0-3.359-0.045-4.319-0.137c-0.96-0.091-1.92-0.091-2.88,0
			c-0.96,0.092-2.4,0.137-4.32,0.137v-0.823c2.743,0,4.114-0.64,4.114-1.92v-13.439c0-0.731-0.366-1.257-1.097-1.577
			c-0.731-0.32-1.737-0.525-3.018-0.617v-0.823c1.463-0.183,2.788-0.617,3.978-1.303c1.188-0.686,2.057-1.348,2.605-1.988h0.822
			V263.189z"/>
		<path fill="#404041" d="M1032.209,278.138c-2.377-2.286-3.565-5.074-3.565-8.365c0-3.292,1.188-6.08,3.565-8.366
			c2.377-2.285,5.303-3.428,8.777-3.428c3.474,0,6.399,1.143,8.776,3.428c2.377,2.286,3.565,5.074,3.565,8.366
			c0,3.291-1.188,6.08-3.565,8.365s-5.303,3.428-8.776,3.428C1037.512,281.566,1034.586,280.423,1032.209,278.138z
			 M1032.347,269.772c0,3.035,0.822,5.577,2.468,7.625c1.646,2.048,3.703,3.072,6.172,3.072c2.468,0,4.525-1.023,6.171-3.072
			c1.646-2.047,2.468-4.589,2.468-7.625s-0.822-5.577-2.468-7.625s-3.703-3.072-6.171-3.072c-2.469,0-4.526,1.024-6.172,3.072
			S1032.347,266.737,1032.347,269.772z"/>
		<path fill="#404041" d="M1060.459,264.561c0-0.731-0.366-1.257-1.097-1.577c-0.731-0.32-1.737-0.525-3.018-0.617v-0.823
			c1.463-0.183,2.789-0.617,3.978-1.303s2.057-1.348,2.605-1.988h0.823v6.308c1.462-4.388,3.428-6.583,5.896-6.583
			s3.703,0.731,3.703,2.194s-0.32,2.331-0.96,2.605c-0.641,0.274-1.372,0.137-2.194-0.412c-0.823-0.548-1.783-0.868-2.88-0.96
			c-1.098-0.091-2.286,1.417-3.565,4.526V278c0,1.28,1.371,1.92,4.113,1.92v0.823c-1.92,0-3.359-0.045-4.319-0.137
			c-0.96-0.091-1.92-0.091-2.88,0c-0.96,0.092-2.4,0.137-4.32,0.137v-0.823c2.743,0,4.114-0.64,4.114-1.92V264.561z"/>
		<path fill="#404041" d="M1079.658,278.151c-2.012-2.276-3.017-5.069-3.017-8.379c0-3.657,1.188-6.537,3.565-8.64
			s4.754-3.154,7.131-3.154c3.108,0,5.531,0.869,7.269,2.605c1.737,1.737,2.605,3.886,2.605,6.445h-17.279
			c0,4.023,0.777,6.903,2.331,8.64c1.555,1.737,3.246,2.606,5.074,2.606c2.743,0,5.76-1.463,9.051-4.389l0.823,0.549
			c-3.108,4.754-6.582,7.131-10.422,7.131C1084.047,281.566,1081.67,280.428,1079.658,278.151z M1093.646,265.933
			c0-1.829-0.576-3.429-1.728-4.8c-1.152-1.372-2.496-2.057-4.032-2.057c-2.743,0-4.755,0.731-6.034,2.194
			c-1.28,1.463-1.92,3.017-1.92,4.663H1093.646z"/>
		<path fill="#404041" d="M1113.669,260.721v-1.372c1.828,0,3.337-0.686,4.525-2.057c1.188-1.372,2.057-3.154,2.605-5.349h1.097
			v6.857h6.309v1.92h-6.309v15.826c0,1.7,0.823,2.551,2.469,2.551s3.154-0.686,4.525-2.057l0.686,0.686
			c-1.646,2.377-3.474,3.565-5.485,3.565s-3.474-0.457-4.388-1.371c-0.915-0.914-1.372-2.496-1.372-4.745v-14.454H1113.669z"/>
		<path fill="#404041" d="M1134.788,248.653c0-1.28-0.435-2.057-1.304-2.332c-0.868-0.274-1.806-0.411-2.811-0.411v-0.823
			c1.371-0.182,2.582-0.502,3.634-0.96c1.052-0.457,2.034-1.051,2.948-1.783h0.823v20.845c2.395-3.474,4.955-5.211,7.68-5.211
			c1.828,0,3.52,0.594,5.074,1.783c1.554,1.189,2.331,3.154,2.331,5.897V278c0,1.28,1.371,1.92,4.114,1.92v0.823
			c-1.92,0-3.36-0.045-4.32-0.137c-0.96-0.091-1.92-0.091-2.88,0c-0.96,0.092-2.399,0.137-4.319,0.137v-0.823
			c2.742,0,4.114-0.64,4.114-1.92v-9.6c0-3.292-0.54-5.394-1.618-6.308c-1.079-0.915-2.643-1.372-4.69-1.372
			c-1.829,0-3.657,1.28-5.485,3.84V278c0,1.28,1.371,1.92,4.114,1.92v0.823c-1.92,0-3.36-0.045-4.32-0.137
			c-0.96-0.091-1.92-0.091-2.88,0c-0.96,0.092-2.399,0.137-4.319,0.137v-0.823c2.742,0,4.114-0.64,4.114-1.92V248.653z"/>
		<path fill="#404041" d="M1166.329,278c0,1.28,1.371,1.92,4.113,1.92v0.823c-1.92,0-3.359-0.045-4.319-0.137
			c-0.96-0.091-1.92-0.091-2.88,0c-0.96,0.092-2.4,0.137-4.32,0.137v-0.823c2.743,0,4.114-0.64,4.114-1.92v-13.439
			c0-0.731-0.366-1.257-1.097-1.577c-0.731-0.32-1.737-0.525-3.018-0.617v-0.823c1.463-0.183,2.789-0.617,3.978-1.303
			s2.057-1.348,2.605-1.988h0.823V278z M1161.886,247.831c0-0.64,0.242-1.202,0.727-1.687c0.484-0.484,1.047-0.727,1.687-0.727
			s1.202,0.243,1.687,0.727c0.484,0.485,0.728,1.047,0.728,1.687s-0.243,1.202-0.728,1.687c-0.484,0.485-1.047,0.727-1.687,0.727
			s-1.202-0.242-1.687-0.727C1162.128,249.033,1161.886,248.471,1161.886,247.831z"/>
		<path fill="#404041" d="M1179.769,263.189c2.396-3.474,4.955-5.211,7.68-5.211c1.828,0,3.521,0.594,5.074,1.783
			c1.554,1.189,2.331,3.154,2.331,5.897V278c0,1.28,1.372,1.92,4.114,1.92v0.823c-1.92,0-3.359-0.045-4.319-0.137
			c-0.96-0.091-1.92-0.091-2.88,0c-0.96,0.092-2.4,0.137-4.32,0.137v-0.823c2.743,0,4.114-0.64,4.114-1.92v-9.6
			c0-3.292-0.539-5.394-1.618-6.308s-2.643-1.372-4.689-1.372c-1.829,0-3.658,1.28-5.486,3.84V278c0,1.28,1.372,1.92,4.114,1.92
			v0.823c-1.92,0-3.359-0.045-4.319-0.137c-0.96-0.091-1.92-0.091-2.88,0c-0.96,0.092-2.4,0.137-4.32,0.137v-0.823
			c2.743,0,4.114-0.64,4.114-1.92v-13.439c0-0.731-0.366-1.257-1.097-1.577c-0.731-0.32-1.737-0.525-3.018-0.617v-0.823
			c1.463-0.183,2.788-0.617,3.978-1.303c1.188-0.686,2.057-1.348,2.605-1.988h0.822V263.189z"/>
		<path fill="#404041" d="M1203.563,292.948c-2.332-1.371-3.497-3.063-3.497-5.074c0-2.012,2.103-4.023,6.308-6.034
			c-3.291-1.28-4.937-2.697-4.937-4.251c0-1.554,2.285-2.514,6.856-2.88c-1.262-0.365-2.537-1.279-3.826-2.743
			c-1.289-1.462-1.934-3.245-1.934-5.348c0-2.414,0.878-4.457,2.634-6.13c1.755-1.673,3.895-2.51,6.418-2.51
			c1.992,0,3.729,0.512,5.211,1.536c2.103,0.805,4.297,0.841,6.582,0.11v3.017c-2.084-0.018-3.482-0.283-4.196-0.795
			c0.951,1.335,1.436,2.926,1.454,4.772c0,2.396-0.869,4.434-2.605,6.116c-1.737,1.683-3.886,2.523-6.445,2.523
			c-4.755,0-7.132,0.731-7.132,2.194c0,1.463,2.697,2.194,8.092,2.194c5.394,0,8.776,0.731,10.147,2.194
			c1.372,1.462,2.058,3.245,2.058,5.348c0,2.103-1.166,3.931-3.497,5.485s-5.28,2.332-8.846,2.332S1205.894,294.32,1203.563,292.948
			z M1203.356,287.875c0,2.011,0.96,3.52,2.88,4.525c1.92,1.005,3.977,1.508,6.171,1.508s4.434-0.594,6.72-1.783
			c2.286-1.189,3.429-2.834,3.429-4.937c0-2.103-1.271-3.337-3.813-3.703c-2.542-0.366-6.445-0.548-11.712-0.548
			C1204.581,284.217,1203.356,285.863,1203.356,287.875z M1207.36,272.049c1.024,1.408,2.441,2.112,4.252,2.112
			c1.81,0,3.218-0.704,4.224-2.112c1.005-1.408,1.509-3.218,1.509-5.431c0-2.23-0.504-4.045-1.509-5.444
			c-1.006-1.399-2.423-2.098-4.251-2.098c-1.793,0-3.2,0.699-4.225,2.098c-1.023,1.399-1.535,3.214-1.535,5.444
			C1205.825,268.831,1206.337,270.641,1207.36,272.049z"/>
		<path fill="#404041" d="M1227.492,279.92v-6.309h1.097c0.365,2.926,1.572,4.846,3.62,5.76c1.243,0.549,2.414,0.823,3.511,0.823
			c0.695,0,1.408-0.137,2.14-0.412c1.682-0.64,2.523-1.988,2.523-4.045s-2.149-3.657-6.445-4.8
			c-4.298-1.143-6.445-2.994-6.445-5.554c0-2.56,0.594-4.388,1.782-5.485s3.063-1.646,5.623-1.646c2.56,0,4.296,0.274,5.211,0.823
			c0.914,0.548,1.737,0.823,2.469,0.823v4.937h-1.098c-0.366-2.925-1.536-4.663-3.511-5.211c-0.658-0.183-1.637-0.274-2.935-0.274
			c-1.299,0-2.094,0.046-2.386,0.137c-1.609,0.458-2.414,1.623-2.414,3.497c0,1.875,2.148,3.383,6.445,4.525
			c4.297,1.143,6.445,3.086,6.445,5.829s-0.708,4.754-2.125,6.034c-1.418,1.28-3.246,1.92-5.485,1.92
			c-2.24,0-3.955-0.229-5.143-0.686C1229.183,280.149,1228.223,279.92,1227.492,279.92z"/>
	</g>
	<g>
		<path fill="#404041" d="M906.692,434.568v-0.912c4.053,0,6.078-0.709,6.078-2.127v-35.255h-7.598
			c-2.432,0-4.153,0.405-5.167,1.215c-1.013,0.811-1.925,2.482-2.734,5.015h-1.216c0.607-2.938,0.911-5.42,0.911-7.446h36.167
			c0,2.026,0.304,4.508,0.912,7.446h-1.216c-0.811-2.533-1.723-4.204-2.735-5.015c-1.014-0.81-2.735-1.215-5.167-1.215h-7.598
			v35.255c0,1.418,2.025,2.127,6.078,2.127v0.912c-2.796,0-4.889-0.051-6.276-0.152c-1.388-0.101-2.775-0.101-4.163,0
			C911.58,434.518,909.488,434.568,906.692,434.568z"/>
		<path fill="#404041" d="M940.124,399.009c0-1.418-0.481-2.28-1.444-2.583c-0.962-0.304-2.001-0.456-3.115-0.456v-0.912
			c1.521-0.202,2.862-0.557,4.027-1.064c1.165-0.506,2.254-1.165,3.268-1.975h0.911v23.098c2.654-3.849,5.491-5.774,8.51-5.774
			c2.026,0,3.9,0.659,5.623,1.976c1.722,1.317,2.583,3.495,2.583,6.534v13.677c0,1.418,1.52,2.127,4.559,2.127v0.912
			c-2.127,0-3.723-0.051-4.786-0.152c-1.064-0.101-2.128-0.101-3.191,0c-1.063,0.102-2.659,0.152-4.787,0.152v-0.912
			c3.039,0,4.56-0.709,4.56-2.127v-10.638c0-3.646-0.599-5.977-1.794-6.99s-2.928-1.52-5.196-1.52c-2.026,0-4.053,1.418-6.079,4.254
			v14.893c0,1.418,1.52,2.127,4.559,2.127v0.912c-2.127,0-3.723-0.051-4.786-0.152c-1.063-0.101-2.128-0.101-3.191,0
			c-1.063,0.102-2.659,0.152-4.787,0.152v-0.912c3.04,0,4.56-0.709,4.56-2.127V399.009z"/>
		<path fill="#404041" d="M971.428,431.696c-2.229-2.522-3.343-5.617-3.343-9.285c0-4.052,1.316-7.243,3.951-9.573
			c2.633-2.33,5.268-3.495,7.901-3.495c3.444,0,6.129,0.963,8.054,2.887c1.925,1.925,2.888,4.306,2.888,7.142h-19.147
			c0,4.458,0.861,7.649,2.584,9.574c1.722,1.925,3.596,2.887,5.622,2.887c3.039,0,6.383-1.621,10.029-4.862l0.912,0.607
			c-3.445,5.269-7.294,7.903-11.549,7.903C976.291,435.48,973.656,434.219,971.428,431.696z M986.928,418.156
			c0-2.025-0.638-3.799-1.915-5.318c-1.276-1.52-2.766-2.279-4.467-2.279c-3.04,0-5.269,0.811-6.687,2.431
			c-1.419,1.622-2.128,3.343-2.128,5.167H986.928z"/>
		<path fill="#404041" d="M1018.231,415.117c2.654-3.849,5.49-5.774,8.51-5.774c2.025,0,3.9,0.659,5.622,1.976
			c1.216,0.932,2.006,2.3,2.371,4.103c2.796-4.052,5.703-6.079,8.723-6.079c2.025,0,3.9,0.659,5.622,1.976
			c1.722,1.317,2.584,3.495,2.584,6.534v13.677c0,1.418,1.52,2.127,4.559,2.127v0.912c-2.128,0-3.724-0.051-4.787-0.152
			c-1.063-0.101-2.127-0.101-3.191,0c-1.063,0.102-2.659,0.152-4.786,0.152v-0.912c3.039,0,4.559-0.709,4.559-2.127v-10.638
			c0-3.769-0.598-6.128-1.793-7.081c-1.196-0.952-2.929-1.428-5.197-1.428c-2.026,0-4.072,1.449-6.14,4.346
			c0.041,0.345,0.062,0.719,0.062,1.124v13.677c0,1.418,1.52,2.127,4.559,2.127v0.912c-2.128,0-3.723-0.051-4.787-0.152
			c-1.063-0.101-2.127-0.101-3.19,0c-1.064,0.102-2.66,0.152-4.787,0.152v-0.912c3.039,0,4.559-0.709,4.559-2.127v-10.638
			c0-3.769-0.598-6.128-1.793-7.081c-1.195-0.952-2.928-1.428-5.197-1.428c-2.026,0-4.053,1.418-6.078,4.254v14.893
			c0,1.418,1.52,2.127,4.559,2.127v0.912c-2.127,0-3.723-0.051-4.787-0.152c-1.063-0.101-2.127-0.101-3.19,0
			c-1.064,0.102-2.659,0.152-4.787,0.152v-0.912c3.039,0,4.559-0.709,4.559-2.127v-14.893c0-0.81-0.405-1.393-1.216-1.747
			s-1.925-0.583-3.343-0.684v-0.912c1.621-0.202,3.09-0.684,4.407-1.444c1.316-0.76,2.279-1.494,2.887-2.203h0.912V415.117z"/>
		<path fill="#404041" d="M1062.908,431.68c-2.634-2.532-3.95-5.622-3.95-9.27c0-3.646,1.316-6.736,3.95-9.269
			s5.876-3.799,9.726-3.799s7.092,1.267,9.726,3.799s3.951,5.623,3.951,9.269c0,3.647-1.317,6.737-3.951,9.27
			c-2.634,2.534-5.876,3.8-9.726,3.8S1065.542,434.214,1062.908,431.68z M1063.061,422.411c0,3.364,0.912,6.181,2.735,8.449
			c1.823,2.27,4.103,3.405,6.838,3.405s5.015-1.135,6.839-3.405c1.823-2.269,2.734-5.085,2.734-8.449
			c0-3.362-0.911-6.179-2.734-8.449c-1.824-2.269-4.104-3.404-6.839-3.404s-5.015,1.135-6.838,3.404
			C1063.973,416.231,1063.061,419.048,1063.061,422.411z"/>
		<path fill="#404041" d="M1094.212,416.636c0-0.81-0.405-1.393-1.216-1.747s-1.925-0.583-3.343-0.684v-0.912
			c1.621-0.202,3.09-0.684,4.406-1.444c1.317-0.76,2.28-1.494,2.888-2.203h0.912v6.99c1.62-4.862,3.799-7.294,6.534-7.294
			s4.103,0.811,4.103,2.432s-0.354,2.583-1.063,2.887c-0.71,0.304-1.52,0.152-2.432-0.456c-0.911-0.608-1.976-0.962-3.191-1.063
			c-1.215-0.102-2.532,1.57-3.95,5.014v13.373c0,1.418,1.52,2.127,4.559,2.127v0.912c-2.128,0-3.723-0.051-4.787-0.152
			c-1.063-0.101-2.127-0.101-3.19,0c-1.064,0.102-2.66,0.152-4.787,0.152v-0.912c3.039,0,4.559-0.709,4.559-2.127V416.636z"/>
		<path fill="#404041" d="M1115.486,431.696c-2.229-2.522-3.343-5.617-3.343-9.285c0-4.052,1.316-7.243,3.951-9.573
			c2.633-2.33,5.268-3.495,7.901-3.495c3.444,0,6.129,0.963,8.054,2.887c1.925,1.925,2.888,4.306,2.888,7.142h-19.147
			c0,4.458,0.861,7.649,2.584,9.574c1.722,1.925,3.596,2.887,5.622,2.887c3.039,0,6.383-1.621,10.029-4.862l0.912,0.607
			c-3.445,5.269-7.294,7.903-11.549,7.903C1120.35,435.48,1117.715,434.219,1115.486,431.696z M1130.986,418.156
			c0-2.025-0.638-3.799-1.915-5.318c-1.276-1.52-2.766-2.279-4.467-2.279c-3.04,0-5.269,0.811-6.687,2.431
			c-1.419,1.622-2.128,3.343-2.128,5.167H1130.986z"/>
		<path fill="#404041" d="M1153.172,412.382v-1.52c2.026,0,3.698-0.76,5.015-2.279c1.317-1.52,2.28-3.495,2.888-5.926h1.216v7.598
			h6.99v2.127h-6.99v17.536c0,1.885,0.912,2.827,2.735,2.827s3.495-0.76,5.015-2.279l0.76,0.76c-1.823,2.634-3.85,3.951-6.078,3.951
			c-2.229,0-3.851-0.506-4.863-1.52c-1.014-1.013-1.52-2.766-1.52-5.258v-16.016H1153.172z"/>
		<path fill="#404041" d="M1176.575,399.009c0-1.418-0.481-2.28-1.444-2.583c-0.962-0.304-2.001-0.456-3.115-0.456v-0.912
			c1.521-0.202,2.862-0.557,4.027-1.064c1.165-0.506,2.254-1.165,3.268-1.975h0.911v23.098c2.654-3.849,5.491-5.774,8.51-5.774
			c2.026,0,3.9,0.659,5.623,1.976c1.722,1.317,2.583,3.495,2.583,6.534v13.677c0,1.418,1.52,2.127,4.559,2.127v0.912
			c-2.127,0-3.723-0.051-4.786-0.152c-1.064-0.101-2.128-0.101-3.191,0c-1.063,0.102-2.659,0.152-4.787,0.152v-0.912
			c3.039,0,4.56-0.709,4.56-2.127v-10.638c0-3.646-0.599-5.977-1.794-6.99s-2.928-1.52-5.196-1.52c-2.026,0-4.053,1.418-6.079,4.254
			v14.893c0,1.418,1.52,2.127,4.559,2.127v0.912c-2.127,0-3.723-0.051-4.786-0.152c-1.063-0.101-2.128-0.101-3.191,0
			c-1.063,0.102-2.659,0.152-4.787,0.152v-0.912c3.04,0,4.56-0.709,4.56-2.127V399.009z"/>
		<path fill="#404041" d="M1204.536,430.617c0-3.039,4.559-6.28,13.676-9.726v-4.802c0-3.282-1.317-4.923-3.95-4.923
			c-2.635,0-4.407,1.418-5.319,4.255c-0.911,2.836-1.874,4.254-2.887,4.254c-1.014,0-1.52-0.506-1.52-1.52
			c0-1.013,1.266-2.735,3.799-5.167c2.532-2.431,4.812-3.647,6.838-3.647s3.647,0.653,4.863,1.96
			c1.216,1.307,1.823,2.842,1.823,4.604v16.533c0,1.216,1.114,0.913,3.343-0.911l0.608,0.607c-1.074,2.027-2.594,3.04-4.559,3.04
			c-1.622,0-2.635-0.911-3.04-2.736c-2.026,1.825-4.649,2.736-7.871,2.736C1206.471,435.176,1204.536,433.656,1204.536,430.617z
			 M1208.487,429.706c0,2.431,1.113,3.647,3.343,3.647c2.229,0,4.355-0.709,6.382-2.127v-9.118
			C1211.729,424.742,1208.487,427.274,1208.487,429.706z"/>
		<path fill="#404041" d="M1227.633,412.382v-1.52c2.026,0,3.698-0.76,5.015-2.279c1.317-1.52,2.28-3.495,2.888-5.926h1.216v7.598
			h6.99v2.127h-6.99v17.536c0,1.885,0.912,2.827,2.735,2.827s3.495-0.76,5.015-2.279l0.76,0.76c-1.823,2.634-3.85,3.951-6.078,3.951
			c-2.229,0-3.851-0.506-4.863-1.52c-1.014-1.013-1.52-2.766-1.52-5.258v-16.016H1227.633z"/>
	</g>
	<g>
		<path fill="#404041" d="M896.945,583.305v-1.382c1.841,0,3.36-0.69,4.559-2.072c1.196-1.381,2.071-3.177,2.624-5.387h1.105v6.906
			h6.354v1.935h-6.354v15.94c0,1.713,0.828,2.569,2.486,2.569c1.657,0,3.177-0.691,4.558-2.072l0.691,0.69
			c-1.658,2.395-3.5,3.592-5.525,3.592c-2.026,0-3.5-0.461-4.421-1.382s-1.381-2.514-1.381-4.779v-14.559H896.945z"/>
		<path fill="#404041" d="M918.217,571.148c0-1.289-0.438-2.071-1.313-2.348s-1.818-0.415-2.831-0.415v-0.828
			c1.381-0.185,2.601-0.507,3.66-0.967c1.059-0.461,2.049-1.06,2.97-1.796h0.829v20.996c2.412-3.499,4.991-5.249,7.735-5.249
			c1.842,0,3.545,0.599,5.111,1.796c1.564,1.197,2.348,3.177,2.348,5.939v12.432c0,1.289,1.382,1.934,4.145,1.934v0.829
			c-1.935,0-3.385-0.046-4.352-0.138c-0.967-0.093-1.934-0.093-2.9,0c-0.968,0.092-2.418,0.138-4.352,0.138v-0.829
			c2.763,0,4.144-0.645,4.144-1.934v-9.669c0-3.315-0.543-5.434-1.63-6.354s-2.661-1.381-4.724-1.381
			c-1.842,0-3.684,1.289-5.525,3.867v13.537c0,1.289,1.381,1.934,4.144,1.934v0.829c-1.934,0-3.384-0.046-4.351-0.138
			c-0.967-0.093-1.934-0.093-2.901,0c-0.967,0.092-2.417,0.138-4.351,0.138v-0.829c2.763,0,4.144-0.645,4.144-1.934V571.148z"/>
		<path fill="#404041" d="M946.673,600.861c-2.026-2.293-3.039-5.106-3.039-8.44c0-3.684,1.197-6.584,3.592-8.702
			c2.394-2.118,4.788-3.177,7.183-3.177c3.131,0,5.571,0.875,7.321,2.624c1.749,1.75,2.624,3.914,2.624,6.492h-17.404
			c0,4.053,0.782,6.953,2.349,8.702c1.564,1.75,3.269,2.625,5.11,2.625c2.763,0,5.802-1.474,9.117-4.42l0.828,0.552
			c-3.131,4.789-6.63,7.184-10.498,7.184C951.093,604.301,948.698,603.154,946.673,600.861z M960.763,588.554
			c0-1.842-0.58-3.454-1.741-4.835c-1.16-1.381-2.514-2.072-4.061-2.072c-2.763,0-4.789,0.737-6.078,2.21
			c-1.289,1.475-1.934,3.039-1.934,4.697H960.763z"/>
		<path fill="#404041" d="M989.218,585.791c2.412-3.499,4.99-5.249,7.735-5.249c1.841,0,3.545,0.599,5.11,1.796
			c1.105,0.847,1.823,2.09,2.155,3.729c2.541-3.684,5.185-5.525,7.929-5.525c1.842,0,3.545,0.599,5.11,1.796
			s2.349,3.177,2.349,5.939v12.432c0,1.289,1.382,1.934,4.145,1.934v0.829c-1.935,0-3.385-0.046-4.352-0.138
			c-0.967-0.093-1.934-0.093-2.9,0c-0.968,0.092-2.418,0.138-4.352,0.138v-0.829c2.763,0,4.144-0.645,4.144-1.934v-9.669
			c0-3.426-0.543-5.571-1.63-6.438c-1.087-0.865-2.661-1.298-4.724-1.298c-1.842,0-3.702,1.316-5.581,3.95
			c0.037,0.313,0.056,0.654,0.056,1.022v12.432c0,1.289,1.381,1.934,4.144,1.934v0.829c-1.934,0-3.384-0.046-4.351-0.138
			c-0.967-0.093-1.935-0.093-2.901,0c-0.967,0.092-2.417,0.138-4.351,0.138v-0.829c2.763,0,4.144-0.645,4.144-1.934v-9.669
			c0-3.426-0.543-5.571-1.63-6.438c-1.087-0.865-2.661-1.298-4.724-1.298c-1.843,0-3.685,1.289-5.525,3.867v13.537
			c0,1.289,1.381,1.934,4.144,1.934v0.829c-1.934,0-3.384-0.046-4.352-0.138c-0.967-0.093-1.934-0.093-2.9,0
			c-0.967,0.092-2.417,0.138-4.352,0.138v-0.829c2.763,0,4.145-0.645,4.145-1.934v-13.537c0-0.736-0.369-1.266-1.105-1.588
			s-1.75-0.529-3.039-0.622v-0.829c1.474-0.184,2.809-0.621,4.006-1.312c1.197-0.691,2.072-1.358,2.625-2.003h0.829V585.791z"/>
		<path fill="#404041" d="M1029.828,600.847c-2.395-2.302-3.592-5.11-3.592-8.426s1.197-6.123,3.592-8.426
			c2.394-2.302,5.341-3.453,8.841-3.453c3.499,0,6.445,1.151,8.84,3.453c2.395,2.303,3.592,5.11,3.592,8.426
			s-1.197,6.124-3.592,8.426c-2.395,2.303-5.341,3.454-8.84,3.454C1035.169,604.301,1032.222,603.149,1029.828,600.847z
			 M1029.966,592.421c0,3.058,0.829,5.618,2.486,7.681c1.658,2.063,3.729,3.094,6.217,3.094c2.486,0,4.558-1.031,6.216-3.094
			c1.657-2.063,2.486-4.623,2.486-7.681c0-3.057-0.829-5.617-2.486-7.68c-1.658-2.063-3.729-3.095-6.216-3.095
			c-2.487,0-4.559,1.032-6.217,3.095C1030.795,586.804,1029.966,589.364,1029.966,592.421z"/>
		<path fill="#404041" d="M1058.283,587.172c0-0.736-0.368-1.266-1.105-1.588c-0.736-0.322-1.75-0.529-3.038-0.622v-0.829
			c1.473-0.184,2.808-0.621,4.006-1.312c1.196-0.691,2.071-1.358,2.624-2.003h0.829v6.354c1.473-4.42,3.453-6.63,5.939-6.63
			s3.729,0.736,3.729,2.21s-0.322,2.348-0.967,2.624s-1.382,0.139-2.21-0.414c-0.829-0.553-1.796-0.875-2.901-0.967
			c-1.104-0.092-2.302,1.428-3.591,4.559v12.155c0,1.289,1.381,1.934,4.144,1.934v0.829c-1.934,0-3.384-0.046-4.351-0.138
			c-0.968-0.093-1.935-0.093-2.901,0c-0.967,0.092-2.417,0.138-4.351,0.138v-0.829c2.763,0,4.144-0.645,4.144-1.934V587.172z"/>
		<path fill="#404041" d="M1077.622,600.861c-2.026-2.293-3.039-5.106-3.039-8.44c0-3.684,1.197-6.584,3.592-8.702
			c2.394-2.118,4.788-3.177,7.183-3.177c3.131,0,5.571,0.875,7.321,2.624c1.749,1.75,2.624,3.914,2.624,6.492h-17.404
			c0,4.053,0.782,6.953,2.349,8.702c1.564,1.75,3.269,2.625,5.11,2.625c2.763,0,5.802-1.474,9.117-4.42l0.828,0.552
			c-3.131,4.789-6.63,7.184-10.498,7.184C1082.042,604.301,1079.647,603.154,1077.622,600.861z M1091.712,588.554
			c0-1.842-0.58-3.454-1.741-4.835c-1.16-1.381-2.514-2.072-4.061-2.072c-2.763,0-4.789,0.737-6.078,2.21
			c-1.289,1.475-1.934,3.039-1.934,4.697H1091.712z"/>
		<path fill="#404041" d="M1119.614,583.305c1.842-1.842,4.374-2.763,7.597-2.763c3.224,0,5.848,1.059,7.874,3.177
			c2.025,2.118,3.039,5.019,3.039,8.702s-1.014,6.585-3.039,8.702c-2.026,2.118-4.65,3.178-7.874,3.178
			c-3.223,0-5.755-0.646-7.597-1.935v12.984c0,1.289,1.381,1.935,4.144,1.935v0.828c-1.934,0-3.384-0.046-4.351-0.138
			c-0.967-0.093-1.935-0.093-2.901,0c-0.967,0.092-2.417,0.138-4.351,0.138v-0.828c2.763,0,4.144-0.646,4.144-1.935v-28.179
			c0-0.736-0.368-1.266-1.104-1.588c-0.737-0.322-1.75-0.529-3.039-0.622v-0.829c1.473-0.184,2.808-0.621,4.006-1.312
			c1.196-0.691,2.071-1.358,2.624-2.003h0.829V583.305z M1119.614,598.223c0,1.105,0.69,2.21,2.072,3.315
			c1.381,1.104,3.131,1.657,5.249,1.657c2.117,0,3.867-1.013,5.249-3.039c1.381-2.025,2.071-4.327,2.071-6.906
			c0-3.684-1.059-6.446-3.177-8.288s-4.099-2.67-5.939-2.486c-1.842,0.185-3.684,0.829-5.525,1.934V598.223z"/>
		<path fill="#404041" d="M1144.754,571.148c0-1.289-0.438-2.071-1.313-2.348s-1.818-0.415-2.831-0.415v-0.828
			c1.381-0.185,2.601-0.507,3.66-0.967c1.059-0.461,2.049-1.06,2.97-1.796h0.829v35.914c0,1.289,1.381,1.934,4.144,1.934v0.829
			c-1.934,0-3.384-0.046-4.351-0.138c-0.967-0.093-1.934-0.093-2.901,0c-0.967,0.092-2.417,0.138-4.351,0.138v-0.829
			c2.763,0,4.144-0.645,4.144-1.934V571.148z"/>
		<path fill="#404041" d="M1154.977,599.88c0-2.763,4.145-5.709,12.432-8.84v-4.365c0-2.983-1.197-4.476-3.591-4.476
			c-2.395,0-4.006,1.289-4.835,3.868c-0.829,2.578-1.704,3.867-2.624,3.867c-0.922,0-1.382-0.46-1.382-1.381
			s1.151-2.486,3.453-4.697c2.303-2.21,4.374-3.314,6.216-3.314s3.315,0.594,4.421,1.781c1.104,1.188,1.657,2.583,1.657,4.186
			v15.029c0,1.104,1.013,0.828,3.039-0.829l0.553,0.553c-0.977,1.842-2.358,2.763-4.145,2.763c-1.474,0-2.395-0.829-2.763-2.486
			c-1.842,1.657-4.227,2.486-7.155,2.486C1156.735,604.024,1154.977,602.643,1154.977,599.88z M1158.568,599.052
			c0,2.21,1.013,3.314,3.039,3.314c2.025,0,3.959-0.645,5.801-1.934v-8.288C1161.515,594.539,1158.568,596.842,1158.568,599.052z"/>
		<path fill="#404041" d="M1180.393,600.861c-2.026-2.293-3.039-5.194-3.039-8.703c0-3.508,1.151-6.321,3.453-8.439
			c2.303-2.118,4.743-3.177,7.321-3.177c3.131,0,5.388,0.645,6.769,1.934c1.382,1.289,1.657,2.303,0.829,3.039
			c-0.829,0.736-1.842,0.276-3.039-1.382c-1.197-1.657-2.532-2.486-4.006-2.486c-2.763,0-4.743,1.105-5.939,3.315
			c-1.197,2.21-1.796,4.696-1.796,7.459s0.782,4.927,2.349,6.492c1.564,1.565,3.269,2.349,5.11,2.349
			c2.763,0,5.709-1.565,8.841-4.696l0.828,0.552c-3.131,4.789-6.63,7.184-10.498,7.184
			C1184.813,604.301,1182.419,603.154,1180.393,600.861z"/>
		<path fill="#404041" d="M1204.704,600.861c-2.026-2.293-3.039-5.106-3.039-8.44c0-3.684,1.197-6.584,3.592-8.702
			c2.394-2.118,4.788-3.177,7.183-3.177c3.131,0,5.571,0.875,7.321,2.624c1.749,1.75,2.624,3.914,2.624,6.492h-17.404
			c0,4.053,0.782,6.953,2.349,8.702c1.564,1.75,3.269,2.625,5.11,2.625c2.763,0,5.802-1.474,9.117-4.42l0.828,0.552
			c-3.131,4.789-6.63,7.184-10.498,7.184C1209.124,604.301,1206.729,603.154,1204.704,600.861z M1218.794,588.554
			c0-1.842-0.58-3.454-1.741-4.835c-1.16-1.381-2.514-2.072-4.061-2.072c-2.763,0-4.789,0.737-6.078,2.21
			c-1.289,1.475-1.934,3.039-1.934,4.697H1218.794z"/>
		<path fill="#404041" d="M1227.357,602.643v-6.354h1.105c0.368,2.946,1.583,4.881,3.646,5.802c1.252,0.552,2.431,0.828,3.536,0.828
			c0.699,0,1.418-0.138,2.154-0.414c1.694-0.645,2.542-2.003,2.542-4.075s-2.164-3.684-6.492-4.834
			c-4.328-1.151-6.492-3.016-6.492-5.595c0-2.578,0.599-4.42,1.796-5.525c1.196-1.105,3.084-1.657,5.663-1.657
			c2.578,0,4.328,0.276,5.249,0.828c0.921,0.553,1.75,0.829,2.486,0.829v4.973h-1.104c-0.369-2.946-1.548-4.696-3.536-5.249
			c-0.663-0.184-1.649-0.276-2.956-0.276c-1.309,0-2.109,0.046-2.404,0.139c-1.62,0.46-2.431,1.635-2.431,3.522
			s2.164,3.407,6.492,4.558c4.328,1.151,6.492,3.108,6.492,5.871s-0.714,4.789-2.141,6.078c-1.428,1.289-3.27,1.934-5.525,1.934
			c-2.257,0-3.983-0.23-5.181-0.69C1229.061,602.873,1228.094,602.643,1227.357,602.643z"/>
	</g>
</g>
<g id="fill-colored-lines">
	<g>
		<path fill="#007E85" d="M906.961,165.393c-0.905-2.184-3.697-3.276-8.378-3.276v-1.404c3.433,0,6.007,0.079,7.723,0.234
			c1.716,0.156,3.433,0.156,5.148,0c1.716-0.156,4.29-0.234,7.723-0.234v1.404c-4.681,0-6.568,1.093-5.663,3.276l11.279,27.146
			l10.952-27.146c0.812-2.184-1.123-3.276-5.804-3.276v-1.404c2.746,0,4.798,0.079,6.155,0.234c1.357,0.156,2.715,0.156,4.072,0
			c1.356-0.156,3.408-0.234,6.154-0.234v1.404c-4.681,0-7.427,1.093-8.237,3.276l-19.845,49.144
			c-1.404,3.432-2.887,5.46-4.446,6.084c-1.562,0.624-3.043,0.936-4.447,0.936c-1.248,0-2.418-0.391-3.51-1.17
			c-1.093-0.78-1.248-2.106-0.468-3.979c0.779-1.872,2.496-2.379,5.148-1.521c2.651,0.858,4.944-0.507,6.88-4.095l4.587-11.233
			L906.961,165.393z"/>
		<path fill="#007E85" d="M954.279,193.709c-4.056-3.9-6.084-8.659-6.084-14.275c0-5.616,2.028-10.375,6.084-14.275
			c4.057-3.9,9.049-5.851,14.978-5.851c5.928,0,10.921,1.95,14.978,5.851c4.056,3.9,6.084,8.659,6.084,14.275
			c0,5.617-2.028,10.375-6.084,14.275c-4.057,3.901-9.05,5.851-14.978,5.851C963.328,199.56,958.336,197.61,954.279,193.709z
			 M954.514,179.434c0,5.18,1.404,9.518,4.213,13.012c2.808,3.495,6.318,5.242,10.53,5.242c4.213,0,7.723-1.747,10.531-5.242
			c2.808-3.494,4.212-7.832,4.212-13.012c0-5.179-1.404-9.517-4.212-13.011c-2.809-3.494-6.318-5.242-10.531-5.242
			c-4.212,0-7.723,1.748-10.53,5.242C955.918,169.917,954.514,174.254,954.514,179.434z"/>
		<path fill="#007E85" d="M1000.615,169.605c0-2.184-0.585-3.51-1.755-3.979c-1.17-0.468-2.614-0.702-4.329-0.702v-1.404
			c2.34-0.312,4.173-0.702,5.499-1.17c1.326-0.468,2.925-1.326,4.798-2.574h1.403v21.998c0,5.616,0.92,9.205,2.762,10.765
			c1.841,1.561,4.509,2.34,8.004,2.34c3.119,0,6.24-2.184,9.36-6.552v-18.722c0-2.184-0.585-3.51-1.755-3.979
			c-1.17-0.468-2.614-0.702-4.329-0.702v-1.404c2.34-0.312,4.173-0.702,5.499-1.17c1.326-0.468,2.925-1.326,4.798-2.574h1.403
			v31.827c0,2.497,2.341,3.745,7.021,3.745v1.404c-2.34,0.313-4.407,0.625-6.201,0.936c-1.795,0.313-3.472,0.937-5.031,1.873h-1.404
			v-8.893c-4.088,5.929-8.456,8.893-13.105,8.893c-3.12,0-6.007-1.015-8.658-3.042c-2.652-2.028-3.979-5.382-3.979-10.063V169.605z"
			/>
		<path fill="#007E85" d="M1072.226,170.541c0-1.248-0.624-2.145-1.872-2.691c-1.248-0.545-2.965-0.896-5.148-1.053v-1.404
			c2.496-0.312,4.758-1.053,6.787-2.223c2.027-1.17,3.51-2.301,4.446-3.394h1.403v10.765c2.496-7.489,5.851-11.233,10.063-11.233
			c4.212,0,6.318,1.248,6.318,3.744c0,2.497-0.546,3.979-1.638,4.446c-1.093,0.468-2.341,0.234-3.745-0.702
			c-1.403-0.936-3.042-1.481-4.914-1.638c-1.872-0.156-3.9,2.418-6.085,7.723v20.594c0,2.184,2.341,3.276,7.021,3.276v1.404
			c-3.276,0-5.734-0.078-7.372-0.234c-1.638-0.156-3.276-0.156-4.914,0c-1.639,0.156-4.096,0.234-7.372,0.234v-1.404
			c4.681,0,7.021-1.092,7.021-3.276V170.541z"/>
		<path fill="#007E85" d="M1104.988,193.732c-3.433-3.885-5.148-8.651-5.148-14.299c0-6.24,2.028-11.155,6.085-14.743
			c4.056-3.588,8.112-5.382,12.169-5.382c5.304,0,9.438,1.482,12.403,4.446c2.964,2.965,4.446,6.631,4.446,10.999h-29.487
			c0,6.865,1.326,11.779,3.979,14.743c2.652,2.965,5.538,4.446,8.659,4.446c4.681,0,9.829-2.496,15.445-7.489l1.404,0.936
			c-5.306,8.113-11.233,12.169-17.786,12.169C1112.478,199.56,1108.421,197.617,1104.988,193.732z M1128.858,172.881
			c0-3.12-0.982-5.851-2.948-8.191s-4.26-3.51-6.881-3.51c-4.68,0-8.113,1.249-10.297,3.744c-2.184,2.497-3.276,5.148-3.276,7.957
			H1128.858z"/>
		<path fill="#007E85" d="M1142.432,192.071c0-4.681,7.021-9.672,21.062-14.978v-7.395c0-5.055-2.028-7.582-6.084-7.582
			c-4.057,0-6.787,2.185-8.19,6.553c-1.404,4.369-2.887,6.552-4.446,6.552c-1.562,0-2.341-0.779-2.341-2.34
			c0-1.56,1.95-4.212,5.851-7.957c3.9-3.744,7.41-5.616,10.531-5.616c3.119,0,5.616,1.006,7.488,3.019
			c1.872,2.013,2.809,4.376,2.809,7.091v25.461c0,1.872,1.716,1.404,5.148-1.404l0.936,0.936c-1.654,3.12-3.994,4.68-7.021,4.68
			c-2.496,0-4.057-1.404-4.681-4.212c-3.12,2.808-7.16,4.212-12.122,4.212C1145.411,199.091,1142.432,196.751,1142.432,192.071z
			 M1148.517,190.667c0,3.745,1.716,5.617,5.148,5.617c3.432,0,6.708-1.092,9.828-3.276v-14.041
			C1153.508,183.022,1148.517,186.922,1148.517,190.667z"/>
		<path fill="#007E85" d="M1185.491,194.177c-3.433-3.587-5.148-8.502-5.148-14.743c0-6.24,1.716-11.155,5.148-14.743
			c3.432-3.588,7.878-5.382,13.339-5.382c5.46,0,9.751,1.561,12.871,4.68v-20.594c0-2.184-0.741-3.51-2.223-3.978
			c-1.482-0.468-3.082-0.702-4.798-0.702v-1.404c2.34-0.312,4.407-0.858,6.201-1.638c1.794-0.779,3.472-1.794,5.032-3.042h1.403
			v58.973c0,2.497,2.341,3.745,7.021,3.745v1.404c-2.341,0.313-4.408,0.625-6.202,0.936c-1.795,0.313-3.472,0.937-5.031,1.873
			h-1.404v-4.681c-3.12,3.121-7.411,4.681-12.871,4.681C1193.369,199.56,1188.923,197.766,1185.491,194.177z M1192.277,192.071
			c3.588,3.121,6.942,4.524,10.063,4.212c3.119-0.312,6.24-1.404,9.36-3.276v-21.998c0-1.872-1.17-3.978-3.51-6.318
			c-2.341-2.34-5.306-3.51-8.894-3.51s-6.552,1.716-8.893,5.148c-2.34,3.433-3.51,7.333-3.51,11.701
			C1186.896,184.271,1188.689,188.951,1192.277,192.071z"/>
		<path fill="#007E85" d="M1232.295,198.155c-0.936-0.936-1.404-2.028-1.404-3.276c0-1.248,0.469-2.34,1.404-3.276
			c0.937-0.936,2.028-1.404,3.276-1.404s2.34,0.468,3.276,1.404c0.936,0.936,1.56,2.029,1.872,3.276
			c0.312,1.249,0.468,2.34,0.468,3.276s-0.156,2.106-0.468,3.51c-0.313,1.404-1.248,3.003-2.809,4.797
			c-1.561,1.794-3.9,3.394-7.021,4.797v-1.404c3.12-2.185,4.992-3.823,5.617-4.915c0.623-1.093,1.092-2.263,1.403-3.51
			c0.312-1.249-0.312-1.872-1.872-1.872S1233.231,199.091,1232.295,198.155z"/>
	</g>
	<g>
		<path fill="#007E85" d="M905.937,334.062c-0.564-1.362-2.307-2.044-5.227-2.044v-0.876c2.142,0,3.747,0.049,4.818,0.146
			c1.07,0.098,2.141,0.098,3.212,0c1.07-0.097,2.677-0.146,4.818-0.146v0.876c-2.92,0-4.099,0.682-3.533,2.044l7.037,16.937
			l6.833-16.937c0.506-1.362-0.701-2.044-3.621-2.044v-0.876c1.713,0,2.993,0.049,3.84,0.146c0.848,0.098,1.694,0.098,2.541,0
			c0.847-0.097,2.127-0.146,3.84-0.146v0.876c-2.92,0-4.634,0.682-5.14,2.044l-12.381,30.661c-0.876,2.142-1.801,3.407-2.774,3.796
			c-0.974,0.389-1.898,0.584-2.774,0.584c-0.778,0-1.509-0.244-2.189-0.73c-0.682-0.487-0.779-1.314-0.292-2.482
			c0.486-1.168,1.557-1.485,3.212-0.949c1.654,0.535,3.085-0.317,4.293-2.555l2.861-7.008L905.937,334.062z"/>
		<path fill="#007E85" d="M935.459,351.729c-2.53-2.434-3.796-5.402-3.796-8.907c0-3.504,1.266-6.473,3.796-8.906
			c2.531-2.433,5.646-3.65,9.345-3.65c3.698,0,6.813,1.217,9.345,3.65c2.53,2.434,3.796,5.402,3.796,8.906
			c0,3.504-1.266,6.473-3.796,8.907c-2.531,2.434-5.646,3.65-9.345,3.65C941.104,355.378,937.99,354.162,935.459,351.729z
			 M935.605,342.822c0,3.232,0.876,5.938,2.628,8.118c1.752,2.181,3.942,3.271,6.57,3.271s4.818-1.09,6.57-3.271
			c1.752-2.18,2.628-4.886,2.628-8.118c0-3.231-0.876-5.937-2.628-8.118c-1.752-2.18-3.942-3.271-6.57-3.271s-4.818,1.09-6.57,3.271
			C936.481,336.885,935.605,339.591,935.605,342.822z"/>
		<path fill="#007E85" d="M964.368,336.69c0-1.363-0.364-2.19-1.095-2.482s-1.631-0.438-2.701-0.438v-0.876
			c1.46-0.194,2.604-0.438,3.432-0.73c0.827-0.292,1.824-0.827,2.992-1.606h0.877v13.725c0,3.504,0.573,5.743,1.723,6.716
			c1.148,0.974,2.813,1.46,4.993,1.46c1.946,0,3.894-1.363,5.84-4.088v-11.68c0-1.363-0.364-2.19-1.095-2.482
			c-0.729-0.292-1.631-0.438-2.701-0.438v-0.876c1.46-0.194,2.604-0.438,3.432-0.73c0.827-0.292,1.825-0.827,2.993-1.606h0.876
			v19.856c0,1.558,1.46,2.336,4.38,2.336v0.876c-1.46,0.195-2.75,0.39-3.869,0.584c-1.12,0.195-2.166,0.584-3.14,1.168h-0.876
			v-5.548c-2.55,3.699-5.275,5.548-8.176,5.548c-1.947,0-3.748-0.633-5.402-1.898c-1.655-1.265-2.482-3.358-2.482-6.278V336.69z"/>
		<path fill="#007E85" d="M1007.849,334.062c-0.564-1.362-2.307-2.044-5.227-2.044v-0.876c1.869,0,3.275,0.049,4.22,0.146
			c0.943,0.098,1.883,0.098,2.817,0c0.935-0.097,2.336-0.146,4.205-0.146v0.876c-1.85,0-2.492,0.682-1.927,2.044l7.037,16.937
			l4.526-11.301l-2.512-5.636c-0.564-1.362-1.771-2.044-3.621-2.044v-0.876c2.142,0,3.748,0.049,4.818,0.146
			c1.07,0.098,2.142,0.098,3.213,0c1.07-0.097,2.676-0.146,4.817-0.146v0.876c-3.99,0-5.704,0.682-5.139,2.044l7.241,16.44
			l6.629-16.44c0.506-1.362-1.236-2.044-5.227-2.044v-0.876c1.966,0,3.445,0.049,4.438,0.146c0.992,0.098,1.98,0.098,2.964,0
			c0.982-0.097,2.457-0.146,4.424-0.146v0.876c-2.92,0-4.634,0.682-5.14,2.044l-8.585,21.317h-1.46l-6.104-13.871l-5.577,13.871
			h-1.46L1007.849,334.062z"/>
		<path fill="#007E85" d="M1053.725,351.583c0,1.363,1.46,2.044,4.38,2.044v0.876c-2.044,0-3.577-0.048-4.6-0.146
			c-1.021-0.097-2.044-0.097-3.065,0c-1.022,0.098-2.556,0.146-4.6,0.146v-0.876c2.92,0,4.38-0.681,4.38-2.044v-14.309
			c0-0.779-0.39-1.338-1.168-1.679c-0.778-0.34-1.85-0.56-3.212-0.657v-0.876c1.558-0.194,2.969-0.657,4.234-1.387
			c1.265-0.73,2.19-1.435,2.774-2.117h0.876V351.583z M1048.993,319.461c0-0.681,0.258-1.28,0.774-1.796
			c0.516-0.516,1.114-0.774,1.796-0.774c0.681,0,1.279,0.258,1.796,0.774c0.516,0.516,0.773,1.115,0.773,1.796
			c0,0.682-0.258,1.28-0.773,1.796c-0.517,0.516-1.115,0.774-1.796,0.774c-0.682,0-1.28-0.258-1.796-0.774
			C1049.251,320.741,1048.993,320.143,1048.993,319.461z"/>
		<path fill="#007E85" d="M1063.652,320.337c0-1.362-0.462-2.19-1.387-2.482s-1.923-0.438-2.993-0.438v-0.876
			c1.46-0.194,2.75-0.535,3.869-1.022c1.119-0.486,2.165-1.12,3.14-1.898h0.876v37.962c0,1.363,1.46,2.044,4.38,2.044v0.876
			c-2.044,0-3.577-0.048-4.6-0.146c-1.021-0.097-2.044-0.097-3.065,0c-1.022,0.098-2.556,0.146-4.6,0.146v-0.876
			c2.92,0,4.38-0.681,4.38-2.044V320.337z"/>
		<path fill="#007E85" d="M1077.085,320.337c0-1.362-0.462-2.19-1.387-2.482s-1.923-0.438-2.993-0.438v-0.876
			c1.46-0.194,2.75-0.535,3.869-1.022c1.119-0.486,2.165-1.12,3.14-1.898h0.876v37.962c0,1.363,1.46,2.044,4.38,2.044v0.876
			c-2.044,0-3.577-0.048-4.6-0.146c-1.021-0.097-2.044-0.097-3.065,0c-1.022,0.098-2.556,0.146-4.6,0.146v-0.876
			c2.92,0,4.38-0.681,4.38-2.044V320.337z"/>
		<path fill="#007E85" d="M1105.118,320.337c0-1.362-0.462-2.19-1.387-2.482s-1.923-0.438-2.993-0.438v-0.876
			c1.46-0.194,2.75-0.535,3.869-1.022c1.119-0.486,2.165-1.12,3.14-1.898h0.876v29.201l11.242-8.76
			c1.849-1.362,1.313-2.044-1.606-2.044v-0.876c1.752,0,3.066,0.049,3.942,0.146c0.876,0.098,1.752,0.098,2.628,0
			c0.876-0.097,2.19-0.146,3.942-0.146v0.876c-2.92,0-5.305,0.682-7.154,2.044l-7.446,5.84l10.366,11.681
			c1.46,1.363,3.65,2.044,6.57,2.044v0.876c-2.142,0-3.748-0.048-4.818-0.146c-1.07-0.097-2.142-0.097-3.212,0
			c-1.07,0.098-2.677,0.146-4.818,0.146v-0.876c2.92,0,3.65-0.681,2.19-2.044l-8.614-9.812l-3.212,2.512v7.3
			c0,1.363,1.46,2.044,4.38,2.044v0.876c-2.044,0-3.577-0.048-4.6-0.146c-1.021-0.097-2.044-0.097-3.065,0
			c-1.022,0.098-2.556,0.146-4.6,0.146v-0.876c2.92,0,4.38-0.681,4.38-2.044V320.337z"/>
		<path fill="#007E85" d="M1140.452,335.813c2.55-3.698,5.275-5.548,8.176-5.548c1.946,0,3.747,0.633,5.402,1.898
			c1.654,1.266,2.482,3.358,2.482,6.278v13.141c0,1.363,1.46,2.044,4.38,2.044v0.876c-2.044,0-3.577-0.048-4.6-0.146
			c-1.021-0.097-2.044-0.097-3.065,0c-1.022,0.098-2.556,0.146-4.6,0.146v-0.876c2.92,0,4.381-0.681,4.381-2.044v-10.221
			c0-3.504-0.575-5.743-1.724-6.716c-1.148-0.973-2.813-1.46-4.993-1.46c-1.947,0-3.894,1.363-5.84,4.088v14.309
			c0,1.363,1.46,2.044,4.38,2.044v0.876c-2.044,0-3.577-0.048-4.6-0.146c-1.021-0.097-2.044-0.097-3.065,0
			c-1.022,0.098-2.556,0.146-4.6,0.146v-0.876c2.92,0,4.38-0.681,4.38-2.044v-14.309c0-0.779-0.39-1.338-1.168-1.679
			c-0.778-0.34-1.85-0.56-3.212-0.657v-0.876c1.558-0.194,2.969-0.657,4.234-1.387c1.265-0.73,2.19-1.435,2.774-2.117h0.876V335.813
			z"/>
		<path fill="#007E85" d="M1167.316,351.729c-2.53-2.434-3.796-5.402-3.796-8.907c0-3.504,1.266-6.473,3.796-8.906
			c2.531-2.433,5.646-3.65,9.345-3.65c3.698,0,6.813,1.217,9.345,3.65c2.53,2.434,3.796,5.402,3.796,8.906
			c0,3.504-1.266,6.473-3.796,8.907c-2.531,2.434-5.646,3.65-9.345,3.65C1172.962,355.378,1169.848,354.162,1167.316,351.729z
			 M1167.463,342.822c0,3.232,0.876,5.938,2.628,8.118c1.752,2.181,3.942,3.271,6.57,3.271s4.818-1.09,6.57-3.271
			c1.752-2.18,2.628-4.886,2.628-8.118c0-3.231-0.876-5.937-2.628-8.118c-1.752-2.18-3.942-3.271-6.57-3.271s-4.818,1.09-6.57,3.271
			C1168.339,336.885,1167.463,339.591,1167.463,342.822z"/>
		<path fill="#007E85" d="M1196.196,334.062c-0.564-1.362-2.307-2.044-5.227-2.044v-0.876c1.869,0,3.275,0.049,4.22,0.146
			c0.943,0.098,1.883,0.098,2.817,0c0.935-0.097,2.336-0.146,4.205-0.146v0.876c-1.85,0-2.492,0.682-1.927,2.044l7.037,16.937
			l4.526-11.301l-2.512-5.636c-0.564-1.362-1.771-2.044-3.621-2.044v-0.876c2.142,0,3.748,0.049,4.818,0.146
			c1.07,0.098,2.142,0.098,3.213,0c1.07-0.097,2.676-0.146,4.817-0.146v0.876c-3.99,0-5.704,0.682-5.139,2.044l7.241,16.44
			l6.629-16.44c0.506-1.362-1.236-2.044-5.227-2.044v-0.876c1.966,0,3.445,0.049,4.438,0.146c0.992,0.098,1.98,0.098,2.964,0
			c0.982-0.097,2.457-0.146,4.424-0.146v0.876c-2.92,0-4.634,0.682-5.14,2.044l-8.585,21.317h-1.46l-6.104-13.871l-5.577,13.871
			h-1.46L1196.196,334.062z"/>
		<path fill="#007E85" d="M1237.399,354.502c-0.584-0.584-0.876-1.265-0.876-2.044c0-0.778,0.292-1.46,0.876-2.044
			c0.584-0.584,1.266-0.876,2.044-0.876c0.779,0,1.461,0.292,2.045,0.876c0.584,0.584,0.876,1.266,0.876,2.044
			c0,0.779-0.292,1.46-0.876,2.044s-1.266,0.876-2.045,0.876C1238.665,355.378,1237.983,355.086,1237.399,354.502z"/>
	</g>
	<g>
		<path fill="#007E85" d="M901.772,497.074c-0.863-2.082-3.525-3.123-7.988-3.123v-1.338c3.272,0,5.727,0.074,7.363,0.223
			c1.636,0.148,3.272,0.148,4.908,0s4.091-0.223,7.363-0.223v1.338c-4.463,0-6.263,1.041-5.399,3.123l10.754,25.883l10.442-25.883
			c0.773-2.082-1.071-3.123-5.533-3.123v-1.338c2.617,0,4.574,0.074,5.868,0.223s2.588,0.148,3.882,0s3.25-0.223,5.868-0.223v1.338
			c-4.462,0-7.08,1.041-7.854,3.123l-18.921,46.855c-1.339,3.273-2.752,5.207-4.239,5.803c-1.488,0.594-2.9,0.893-4.239,0.893
			c-1.19,0-2.306-0.373-3.347-1.117c-1.042-0.744-1.19-2.008-0.446-3.793c0.743-1.785,2.38-2.268,4.908-1.449
			c2.528,0.816,4.715-0.484,6.561-3.904l4.373-10.711L901.772,497.074z"/>
		<path fill="#007E85" d="M946.887,524.072c-3.867-3.719-5.801-8.256-5.801-13.609c0-5.355,1.934-9.893,5.801-13.611
			s8.627-5.578,14.279-5.578s10.412,1.859,14.28,5.578c3.867,3.719,5.801,8.256,5.801,13.611c0,5.354-1.934,9.891-5.801,13.609
			c-3.868,3.719-8.628,5.578-14.28,5.578S950.754,527.791,946.887,524.072z M947.109,510.463c0,4.938,1.339,9.074,4.017,12.404
			c2.678,3.332,6.024,4.998,10.04,4.998c4.017,0,7.363-1.666,10.041-4.998c2.678-3.33,4.016-7.467,4.016-12.404
			s-1.338-9.074-4.016-12.406s-6.024-4.998-10.041-4.998c-4.016,0-7.362,1.666-10.04,4.998S947.109,505.525,947.109,510.463z"/>
		<path fill="#007E85" d="M991.064,501.092c0-2.082-0.558-3.348-1.673-3.793c-1.116-0.447-2.492-0.67-4.128-0.67v-1.338
			c2.231-0.299,3.979-0.67,5.243-1.117c1.265-0.445,2.789-1.264,4.574-2.453h1.339v20.973c0,5.355,0.877,8.777,2.633,10.264
			c1.755,1.488,4.298,2.23,7.631,2.23c2.974,0,5.949-2.082,8.925-6.246v-17.85c0-2.082-0.559-3.348-1.674-3.793
			c-1.115-0.447-2.492-0.67-4.128-0.67v-1.338c2.231-0.299,3.979-0.67,5.243-1.117c1.265-0.445,2.789-1.264,4.574-2.453h1.339
			v30.344c0,2.381,2.231,3.57,6.693,3.57v1.338c-2.231,0.299-4.202,0.596-5.912,0.893c-1.711,0.299-3.311,0.893-4.798,1.785h-1.338
			v-8.479c-3.898,5.652-8.063,8.479-12.495,8.479c-2.976,0-5.728-0.967-8.256-2.9s-3.793-5.131-3.793-9.594V501.092z"/>
		<path fill="#007E85" d="M1058.447,476.102c0-2.082-0.707-3.346-2.119-3.793c-1.414-0.445-2.938-0.67-4.574-0.67v-1.338
			c2.231-0.297,4.201-0.818,5.912-1.563c1.711-0.742,3.31-1.709,4.798-2.9h1.339v58.012c0,2.082,2.23,3.123,6.693,3.123v1.34
			c-3.124,0-5.467-0.074-7.028-0.223c-1.562-0.15-3.124-0.15-4.686,0c-1.562,0.148-3.904,0.223-7.028,0.223v-1.34
			c4.462,0,6.693-1.041,6.693-3.123V476.102z"/>
		<path fill="#007E85" d="M1079.867,524.096c-3.272-3.705-4.908-8.248-4.908-13.633c0-5.949,1.933-10.635,5.801-14.057
			c3.867-3.422,7.734-5.133,11.603-5.133c5.057,0,8.998,1.414,11.825,4.24c2.826,2.826,4.239,6.322,4.239,10.486h-28.113
			c0,6.545,1.264,11.23,3.793,14.057c2.528,2.826,5.28,4.238,8.256,4.238c4.462,0,9.371-2.379,14.726-7.139l1.339,0.893
			c-5.058,7.734-10.71,11.602-16.957,11.602C1087.007,529.65,1083.14,527.799,1079.867,524.096z M1102.626,504.215
			c0-2.975-0.938-5.578-2.812-7.809c-1.874-2.232-4.061-3.348-6.56-3.348c-4.463,0-7.735,1.191-9.817,3.57
			c-2.083,2.381-3.124,4.908-3.124,7.586H1102.626z"/>
		<path fill="#007E85" d="M1115.566,522.512c0-4.463,6.693-9.223,20.08-14.281v-7.051c0-4.818-1.934-7.229-5.801-7.229
			s-6.471,2.082-7.81,6.248c-1.338,4.164-2.752,6.246-4.239,6.246s-2.23-0.742-2.23-2.23c0-1.486,1.858-4.016,5.577-7.586
			s7.065-5.355,10.041-5.355c2.975,0,5.354,0.961,7.14,2.879s2.678,4.172,2.678,6.76v24.275c0,1.785,1.636,1.34,4.908-1.338
			l0.893,0.893c-1.577,2.975-3.809,4.463-6.693,4.463c-2.381,0-3.868-1.34-4.463-4.018c-2.975,2.678-6.827,4.018-11.558,4.018
			C1118.406,529.205,1115.566,526.973,1115.566,522.512z M1121.367,521.172c0,3.57,1.636,5.355,4.908,5.355s6.396-1.041,9.371-3.123
			v-13.389C1126.127,513.883,1121.367,517.602,1121.367,521.172z"/>
		<path fill="#007E85" d="M1157.066,501.984c0-1.189-0.596-2.045-1.785-2.566c-1.19-0.52-2.826-0.855-4.908-1.004v-1.34
			c2.38-0.297,4.536-1.004,6.471-2.119c1.933-1.115,3.347-2.193,4.239-3.234h1.338v10.264c2.38-7.141,5.578-10.711,9.595-10.711
			c4.016,0,6.024,1.191,6.024,3.57c0,2.381-0.521,3.793-1.563,4.24c-1.041,0.445-2.23,0.223-3.569-0.67s-2.9-1.412-4.686-1.563
			c-1.785-0.148-3.72,2.307-5.802,7.363v19.635c0,2.082,2.231,3.123,6.694,3.123v1.34c-3.124,0-5.467-0.074-7.028-0.223
			c-1.563-0.15-3.124-0.15-4.686,0c-1.563,0.148-3.905,0.223-7.028,0.223v-1.34c4.462,0,6.693-1.041,6.693-3.123V501.984z"/>
		<path fill="#007E85" d="M1194.104,499.752c3.897-5.65,8.063-8.479,12.495-8.479c2.975,0,5.727,0.967,8.256,2.9
			c2.528,1.936,3.793,5.133,3.793,9.596v20.08c0,2.082,2.23,3.123,6.693,3.123v1.34c-3.124,0-5.467-0.074-7.028-0.223
			c-1.562-0.15-3.124-0.15-4.686,0c-1.562,0.148-3.904,0.223-7.028,0.223v-1.34c4.463,0,6.693-1.041,6.693-3.123V508.23
			c0-5.354-0.878-8.775-2.633-10.264c-1.756-1.486-4.299-2.23-7.631-2.23c-2.975,0-5.95,2.082-8.925,6.248v21.865
			c0,2.082,2.231,3.123,6.694,3.123v1.34c-3.124,0-5.467-0.074-7.028-0.223c-1.563-0.15-3.124-0.15-4.686,0
			c-1.563,0.148-3.905,0.223-7.028,0.223v-1.34c4.462,0,6.693-1.041,6.693-3.123v-21.865c0-1.189-0.596-2.045-1.785-2.566
			c-1.19-0.52-2.826-0.855-4.908-1.004v-1.34c2.38-0.297,4.536-1.004,6.471-2.119c1.933-1.115,3.347-2.193,4.239-3.234h1.338
			V499.752z"/>
		<path fill="#007E85" d="M1232.927,528.313c-0.893-0.893-1.339-1.934-1.339-3.125c0-1.189,0.446-2.23,1.339-3.123
			s1.934-1.338,3.124-1.338c1.189,0,2.231,0.445,3.124,1.338c0.892,0.893,1.487,1.934,1.784,3.123
			c0.298,1.191,0.446,2.232,0.446,3.125s-0.148,2.008-0.446,3.346c-0.297,1.34-1.189,2.863-2.677,4.574
			c-1.488,1.711-3.72,3.236-6.694,4.574v-1.338c2.975-2.084,4.76-3.645,5.355-4.686c0.595-1.043,1.041-2.158,1.339-3.348
			c0.297-1.189-0.298-1.785-1.785-1.785C1235.009,529.65,1233.819,529.205,1232.927,528.313z"/>
	</g>
	<g>
		<path fill="#007E85" d="M895.637,662.894c-0.954-2.302-3.896-3.453-8.828-3.453v-1.479c3.616,0,6.329,0.082,8.138,0.247
			c1.808,0.164,3.617,0.164,5.426,0c1.808-0.165,4.521-0.247,8.138-0.247v1.479c-4.932,0-6.922,1.151-5.968,3.453l11.887,28.605
			l11.541-28.605c0.854-2.302-1.184-3.453-6.116-3.453v-1.479c2.894,0,5.056,0.082,6.486,0.247c1.43,0.164,2.86,0.164,4.291,0
			c1.43-0.165,3.592-0.247,6.485-0.247v1.479c-4.933,0-7.826,1.151-8.681,3.453l-20.912,51.787
			c-1.479,3.616-3.042,5.753-4.686,6.411c-1.645,0.658-3.206,0.986-4.686,0.986c-1.315,0-2.549-0.411-3.699-1.232
			c-1.151-0.822-1.315-2.22-0.493-4.192c0.821-1.973,2.63-2.508,5.426-1.603c2.794,0.903,5.211-0.535,7.25-4.316l4.833-11.837
			L895.637,662.894z"/>
		<path fill="#007E85" d="M945.501,692.732c-4.274-4.109-6.412-9.124-6.412-15.043s2.138-10.933,6.412-15.043
			c4.274-4.109,9.535-6.165,15.783-6.165c6.246,0,11.508,2.056,15.782,6.165c4.274,4.11,6.412,9.124,6.412,15.043
			s-2.138,10.934-6.412,15.043c-4.274,4.11-9.536,6.165-15.782,6.165C955.036,698.897,949.775,696.843,945.501,692.732z
			 M945.748,677.689c0,5.458,1.479,10.029,4.438,13.711c2.959,3.684,6.658,5.524,11.098,5.524c4.438,0,8.138-1.841,11.097-5.524
			c2.96-3.682,4.439-8.253,4.439-13.711s-1.479-10.028-4.439-13.711c-2.959-3.683-6.658-5.524-11.097-5.524
			c-4.439,0-8.139,1.842-11.098,5.524S945.748,672.231,945.748,677.689z"/>
		<path fill="#007E85" d="M994.329,667.332c0-2.301-0.617-3.699-1.85-4.192c-1.233-0.493-2.755-0.74-4.563-0.74v-1.479
			c2.466-0.328,4.397-0.739,5.795-1.232s3.083-1.397,5.056-2.713h1.479v23.181c0,5.919,0.97,9.7,2.91,11.344
			c1.939,1.645,4.751,2.467,8.434,2.467c3.288,0,6.576-2.302,9.864-6.905v-19.729c0-2.301-0.616-3.699-1.849-4.192
			c-1.233-0.493-2.755-0.74-4.563-0.74v-1.479c2.466-0.328,4.397-0.739,5.795-1.232s3.083-1.397,5.056-2.713h1.479v33.538
			c0,2.631,2.466,3.946,7.398,3.946v1.479c-2.466,0.329-4.645,0.658-6.535,0.986c-1.892,0.329-3.658,0.986-5.302,1.973h-1.48v-9.371
			c-4.308,6.248-8.91,9.371-13.81,9.371c-3.288,0-6.33-1.068-9.124-3.206c-2.796-2.137-4.192-5.672-4.192-10.604V667.332z"/>
		<path fill="#007E85" d="M1043.157,644.151c-0.986-0.986-1.479-2.137-1.479-3.452s0.493-2.467,1.479-3.453s2.137-1.479,3.452-1.479
			c1.314,0,2.466,0.493,3.452,1.479c0.987,0.986,1.645,2.138,1.974,3.453c0.328,1.315,0.493,2.466,0.493,3.452
			s-0.165,2.22-0.493,3.699c-0.329,1.479-1.315,3.164-2.96,5.056c-1.645,1.89-4.11,3.575-7.397,5.055v-1.479
			c3.287-2.302,5.26-4.028,5.918-5.179c0.657-1.151,1.15-2.384,1.479-3.699s-0.329-1.973-1.973-1.973
			C1045.458,645.631,1044.144,645.138,1043.157,644.151z"/>
		<path fill="#007E85" d="M1065.845,639.712c0-2.301-0.781-3.699-2.343-4.192c-1.563-0.493-3.248-0.739-5.056-0.739v-1.479
			c2.466-0.329,4.644-0.904,6.535-1.727c1.891-0.821,3.657-1.891,5.302-3.206h1.479v64.118c0,2.302,2.467,3.452,7.398,3.452v1.479
			c-3.452,0-6.042-0.082-7.768-0.247c-1.727-0.164-3.453-0.164-5.179,0c-1.727,0.165-4.316,0.247-7.769,0.247v-1.479
			c4.933,0,7.398-1.15,7.398-3.452V639.712z"/>
		<path fill="#007E85" d="M1088.532,639.712c0-2.301-0.781-3.699-2.343-4.192c-1.563-0.493-3.248-0.739-5.056-0.739v-1.479
			c2.466-0.329,4.644-0.904,6.535-1.727c1.891-0.821,3.657-1.891,5.302-3.206h1.479v64.118c0,2.302,2.467,3.452,7.398,3.452v1.479
			c-3.452,0-6.042-0.082-7.768-0.247c-1.727-0.164-3.453-0.164-5.179,0c-1.727,0.165-4.316,0.247-7.769,0.247v-1.479
			c4.933,0,7.398-1.15,7.398-3.452V639.712z"/>
		<path fill="#007E85" d="M1134.771,719.366c-4.191-2.467-6.288-5.508-6.288-9.125s3.781-7.233,11.344-10.851
			c-5.918-2.301-8.878-4.85-8.878-7.645c0-2.794,4.11-4.521,12.331-5.179c-2.27-0.657-4.563-2.301-6.881-4.933
			c-2.318-2.63-3.477-5.836-3.477-9.617c0-4.341,1.578-8.015,4.734-11.023s7.004-4.513,11.541-4.513
			c3.584,0,6.708,0.921,9.371,2.762c3.781,1.447,7.727,1.513,11.837,0.197v5.426c-3.748-0.032-6.264-0.51-7.546-1.431
			c1.709,2.4,2.581,5.262,2.614,8.582c0,4.308-1.563,7.974-4.686,10.999c-3.124,3.025-6.987,4.537-11.591,4.537
			c-8.55,0-12.823,1.315-12.823,3.945c0,2.632,4.85,3.946,14.55,3.946c9.699,0,15.782,1.315,18.249,3.945
			c2.466,2.631,3.699,5.836,3.699,9.618c0,3.78-2.097,7.068-6.289,9.864c-4.192,2.794-9.494,4.192-15.906,4.192
			C1144.266,723.065,1138.963,721.832,1134.771,719.366z M1134.401,710.241c0,3.617,1.726,6.33,5.179,8.139
			c3.452,1.808,7.151,2.712,11.097,2.712c3.946,0,7.974-1.068,12.084-3.205c4.11-2.139,6.165-5.098,6.165-8.878
			c0-3.782-2.285-6.001-6.855-6.659c-4.57-0.657-11.591-0.986-21.061-0.986C1136.604,703.665,1134.401,706.624,1134.401,710.241z
			 M1141.602,681.783c1.842,2.532,4.39,3.798,7.646,3.798c3.255,0,5.786-1.266,7.595-3.798c1.809-2.531,2.713-5.787,2.713-9.766
			c0-4.012-0.904-7.275-2.713-9.79c-1.809-2.516-4.356-3.773-7.645-3.773c-3.223,0-5.754,1.258-7.596,3.773
			c-1.842,2.515-2.762,5.778-2.762,9.79C1138.84,675.996,1139.76,679.252,1141.602,681.783z"/>
		<path fill="#007E85" d="M1182.736,692.732c-4.274-4.109-6.412-9.124-6.412-15.043s2.138-10.933,6.412-15.043
			c4.274-4.109,9.535-6.165,15.783-6.165c6.246,0,11.508,2.056,15.782,6.165c4.274,4.11,6.412,9.124,6.412,15.043
			s-2.138,10.934-6.412,15.043c-4.274,4.11-9.536,6.165-15.782,6.165C1192.271,698.897,1187.011,696.843,1182.736,692.732z
			 M1182.983,677.689c0,5.458,1.479,10.029,4.438,13.711c2.959,3.684,6.658,5.524,11.098,5.524c4.438,0,8.138-1.841,11.097-5.524
			c2.96-3.682,4.439-8.253,4.439-13.711s-1.479-10.028-4.439-13.711c-2.959-3.683-6.658-5.524-11.097-5.524
			c-4.439,0-8.139,1.842-11.098,5.524S1182.983,672.231,1182.983,677.689z"/>
		<path fill="#007E85" d="M1231.564,697.418c-0.986-0.986-1.479-2.137-1.479-3.452s0.493-2.467,1.479-3.453s2.137-1.479,3.452-1.479
			c1.314,0,2.466,0.493,3.452,1.479c0.987,0.986,1.48,2.138,1.48,3.453s-0.493,2.466-1.48,3.452
			c-0.986,0.986-2.138,1.479-3.452,1.479C1233.701,698.897,1232.551,698.404,1231.564,697.418z"/>
	</g>
</g>
</svg>
