<?xml version="1.0" encoding="utf-8"?>
<!-- Generator: Adobe Illustrator 14.0.0, SVG Export Plug-In . SVG Version: 6.00 Build 43363)  -->
<!DOCTYPE svg PUBLIC "-//W3C//DTD SVG 1.1//EN" "http://www.w3.org/Graphics/SVG/1.1/DTD/svg11.dtd">
<svg version="1.1" id="Layer_1" xmlns="http://www.w3.org/2000/svg" xmlns:xlink="http://www.w3.org/1999/xlink" x="0px" y="0px"
	 width="1296px" height="864px" viewBox="0 0 1296 864" enable-background="new 0 0 1296 864" xml:space="preserve">
<g id="fill-everything">
	<g>
		<path fill="#A3836E" d="M340.256,727.479c-3.809,0.19-5.904-0.381-8.761-0.762c1.524,9.522,0.19,14.093-2.095,20.188
			c-5.713,16.949-28.757,26.281-30.852-1.904c-0.381-4.381-0.381-8.951-0.19-9.713c-4.38,9.522-15.998,31.614-28.376,27.614
			c-11.236-3.618,4-35.042,8.189-41.326c3.618-5.523,12.76-4.762,9.712-1.143c-8.951,9.903-17.14,36.565-13.141,38.66
			c4,1.904,14.283-9.142,22.473-27.424c0.762-1.904,0.381-4.19,0.19-5.523c0.381-4.38,10.093-5.142,9.712-1.333
			c-0.762,7.809-3.809,27.614,0.571,33.328c4.571,5.522,14.284-2.095,17.902-14.854c1.143-4.381,1.524-9.142,0.762-13.331
			c-3.428-4.952-5.142-7.047-3.619-10.665c0.762-1.715,7.427-3.048,8.76,0.571c1.714,3.999,11.617,4.761,18.283,3.809
			C353.968,723.289,345.208,727.098,340.256,727.479z"/>
		<path fill="#A3836E" d="M347.111,759.093c-2.666-2.476-4.952-8.761-3.618-17.141c1.333-7.046,6.285-17.711,13.141-24.377
			c5.333-5.142,12.76-6.284,19.425-2.095c5.713,3.619,3.809,11.236-0.571,17.331h3.809c3.238,0-1.714,1.714-5.904,2.666
			c-1.143,1.333-2.476,2.666-3.809,3.618c-3.619,2.666-3.428,0.571-1.904-0.952l1.904-2.095c-7.618,0.571-9.903,0.19-16.378,1.333
			c-1.143,2.856-1.904,6.285-2.095,9.903c-0.571,9.903,5.904,12.379,10.855,11.617c10.093-1.714,19.997-10.284,23.615-14.093
			c1.143-1.143,2.667-0.381,0.572,2.095C379.487,754.713,357.967,768.996,347.111,759.093z M363.299,722.908
			c-2.476,2.285-5.713,5.713-8.189,10.475c7.046-0.19,10.855-0.381,16.378-0.381c1.333-2.666,2.476-5.333,2.857-6.856
			C377.011,714.528,368.061,718.147,363.299,722.908z"/>
		<path fill="#A3836E" d="M499.083,689.009c-16.568,12.76-43.421,21.14-64.941,27.995c-2.667,7.237-5.142,21.901-6.475,30.472
			c4.57-7.047,9.712-12.76,15.807-20.949c1.143-4.951,9.332-12.569,7.809-3.618c-1.143,7.237-2.286,15.235-2.286,20.568
			c0,11.236,2.286,15.426,10.284,9.521c5.523-3.999,10.665-11.427,11.617-12.379c0.571-0.571,0.952,1.143,0.952,1.143
			c-0.571,1.524-15.807,23.234-25.9,18.093c-7.428-3.618-3.809-27.424-3.619-27.614c0-0.952-9.522,11.427-15.045,18.473
			c-0.572,8.189-6.856,11.427-6.856,9.522c-0.381-7.237,4.19-33.899,7.047-41.326c-4.38,1.143-6.094,2.856-6.285,4.761
			c-0.381,2.666-2.286,3.047-2.095,0c0.19-4.189,5.904-7.047,9.713-8.189c6.094-19.996,19.235-44.183,35.613-56.562
			c5.523-4.381,11.808-7.237,17.902-8.57c10.665-2.285,22.091,1.714,26.281,12.379C512.224,672.44,507.843,682.344,499.083,689.009z
			 M481.562,656.062c-31.042,6.095-38.66,36.565-46.659,57.705c16.378-4.57,49.706-19.806,62.847-29.709
			c5.904-4.571,11.998-11.808,9.142-19.235C503.272,655.3,490.132,654.348,481.562,656.062z"/>
		<path fill="#A3836E" d="M501.937,760.235c-7.808-2.666-7.046-19.235-7.046-19.426c0-0.571-11.808,21.33-20.377,20.188
			c-12.76-1.904-3.809-27.614,10.474-41.136c7.428-6.856,16.188-10.475,24.377-6.285c4.761,2.666,4,9.903-0.381,10.665
			c4.19-7.428-3.809-11.808-13.521-3.428c-7.618,6.475-15.807,17.901-19.235,26.091c-3.619,9.332-2.285,14.283,6.475,5.713
			c4.19-3.999,9.522-11.808,14.093-18.473c3.238-4.38,6.285-6.095,6.094,0.19c-0.381,5.142-0.571,10.665,0,14.474
			c1.524,7.809,4.19,10.665,11.427,6.666c5.142-2.857,9.332-7.999,10.094-8.761c0.571-0.381,1.333,0.762,1.333,0.762
			C525.171,748.618,512.602,763.663,501.937,760.235z"/>
		<path fill="#A3836E" d="M567.069,726.717c-2.667,0.762-6.094,0.381-8.57-1.143c0,3.428-4.952,13.902-11.998,21.521
			c-9.903,10.855-17.711,14.664-23.996,13.141c-10.093-2.095,4-28.376,2.667-33.899c-0.381-1.523-1.524-3.999-2.667-4.38
			s0-2.856,2.286-6.285c1.143-1.904,9.522-0.571,9.522,1.143c0,7.809-10.284,36.756-6.285,39.042
			c3.047,1.904,10.094-3.81,16.378-11.236c5.904-7.237,11.046-15.998,11.617-20.759c-5.904-6.666-4.571-14.474-1.714-15.045
			c7.428-1.143,4.761,14.093,4.761,14.093c5.904,3.428,9.332-0.19,9.332-0.19C570.497,723.099,569.354,725.955,567.069,726.717z"/>
		<path fill="#A3836E" d="M567.449,759.093c-2.666-2.476-4.952-8.761-3.618-17.141c1.333-7.046,6.285-17.711,13.141-24.377
			c5.333-5.142,12.76-6.284,19.425-2.095c5.713,3.619,3.809,11.236-0.571,17.331h3.809c3.238,0-1.714,1.714-5.904,2.666
			c-1.143,1.333-2.476,2.666-3.809,3.618c-3.619,2.666-3.428,0.571-1.904-0.952l1.904-2.095c-7.618,0.571-9.903,0.19-16.378,1.333
			c-1.143,2.856-1.904,6.285-2.095,9.903c-0.571,9.903,5.904,12.379,10.855,11.617c10.093-1.714,19.997-10.284,23.615-14.093
			c1.143-1.143,2.667-0.381,0.572,2.095C599.825,754.713,578.305,768.996,567.449,759.093z M583.637,722.908
			c-2.476,2.285-5.713,5.713-8.189,10.475c7.046-0.19,10.855-0.381,16.378-0.381c1.333-2.666,2.476-5.333,2.857-6.856
			C597.349,714.528,588.398,718.147,583.637,722.908z"/>
		<path fill="#A3836E" d="M645.337,759.093c-2.666-2.476-4.952-8.761-3.618-17.141c1.333-7.046,6.285-17.711,13.14-24.377
			c5.333-5.142,12.76-6.284,19.426-2.095c5.713,3.619,3.809,11.236-0.571,17.331h3.809c3.237,0-1.714,1.714-5.903,2.666
			c-1.143,1.333-2.476,2.666-3.81,3.618c-3.618,2.666-3.428,0.571-1.904-0.952l1.904-2.095c-7.617,0.571-9.902,0.19-16.378,1.333
			c-1.143,2.856-1.904,6.285-2.095,9.903c-0.571,9.903,5.903,12.379,10.855,11.617c10.094-1.714,19.996-10.284,23.615-14.093
			c1.143-1.143,2.666-0.381,0.571,2.095C677.713,754.713,656.192,768.996,645.337,759.093z M661.525,722.908
			c-2.476,2.285-5.714,5.713-8.189,10.475c7.047-0.19,10.855-0.381,16.379-0.381c1.333-2.666,2.476-5.333,2.856-6.856
			C675.237,714.528,666.286,718.147,661.525,722.908z"/>
		<path fill="#A3836E" d="M732.94,726.717c-2.666,0.762-6.094,0.381-8.569-1.143c0,3.428-4.952,13.902-11.998,21.521
			c-9.903,10.855-17.712,14.664-23.996,13.141c-10.094-2.095,3.999-28.376,2.666-33.899c-0.381-1.523-1.523-3.999-2.666-4.38
			s0-2.856,2.285-6.285c1.143-1.904,9.522-0.571,9.522,1.143c0,7.809-10.284,36.756-6.285,39.042
			c3.047,1.904,10.094-3.81,16.378-11.236c5.904-7.237,11.046-15.998,11.617-20.759c-5.903-6.666-4.57-14.474-1.714-15.045
			c7.428-1.143,4.762,14.093,4.762,14.093c5.903,3.428,9.331-0.19,9.331-0.19C736.369,723.099,735.226,725.955,732.94,726.717z"/>
		<path fill="#A3836E" d="M733.321,759.093c-2.667-2.476-4.952-8.761-3.619-17.141c1.333-7.046,6.285-17.711,13.141-24.377
			c5.333-5.142,12.76-6.284,19.426-2.095c5.713,3.619,3.809,11.236-0.571,17.331h3.809c3.238,0-1.714,1.714-5.903,2.666
			c-1.143,1.333-2.476,2.666-3.81,3.618c-3.618,2.666-3.428,0.571-1.904-0.952l1.904-2.095c-7.617,0.571-9.902,0.19-16.378,1.333
			c-1.143,2.856-1.904,6.285-2.095,9.903c-0.571,9.903,5.903,12.379,10.855,11.617c10.094-1.714,19.996-10.284,23.615-14.093
			c1.143-1.143,2.666-0.381,0.571,2.095C765.696,754.713,744.176,768.996,733.321,759.093z M749.509,722.908
			c-2.476,2.285-5.714,5.713-8.189,10.475c7.047-0.19,10.855-0.381,16.379-0.381c1.333-2.666,2.476-5.333,2.856-6.856
			C763.221,714.528,754.27,718.147,749.509,722.908z"/>
		<path fill="#A3836E" d="M784.739,737.191c-4.951,7.618-8.379,18.093-9.521,21.901c-0.572,2.285-3.81,1.714-3.429-0.381
			c1.714-7.047,4.762-34.471,4.952-39.612c0.381-4.952,11.427-7.237,9.902-2.286c-0.952,2.857-4.761,18.474-6.094,21.33
			c5.713-9.903,17.33-23.234,22.663-23.044c8.188,0,8.188,14.474,5.142,8.57C803.784,714.528,792.929,724.622,784.739,737.191z"/>
		<path fill="#A3836E" d="M836.157,761.568c4.38-0.952,6.094-2.476,6.475-4.57c0.571-2.476,2.667-2.856,2.285,0.19
			c-0.571,4.189-6.284,6.855-10.283,7.808c-7.047,19.616-21.521,43.041-38.471,54.658c-5.903,3.999-12.188,6.475-18.282,7.427
			c-10.855,1.715-21.901-2.666-25.52-13.712c-3.237-9.902,1.523-19.615,10.665-25.9c17.33-11.617,44.563-18.663,66.465-24.377
			c2.856-7.236,5.904-26.091,7.618-34.471c-4.952,8.951-9.903,16.569-16.569,24.377c-1.333,4.952-9.902,12.188-7.998,3.238
			c1.523-6.666,7.808-34.852-5.523-26.281c-2.285,1.523-2.856-0.382-0.381-2.286c4-3.047,8.38-4.761,11.808-2.856
			c6.095,3.428,2.477,22.854,2.285,23.044c0,0.952,11.808-15.235,16.95-22.473c1.143-8.189,7.809-6.665,7.809-4.761
			C845.489,727.859,839.395,754.332,836.157,761.568z M764.169,792.802c-6.095,3.999-12.569,11.046-10.094,18.663
			c3.237,9.522,16.188,11.236,24.948,10.094c31.233-4.38,40.374-34.471,49.516-55.42
			C811.971,769.948,777.881,783.47,764.169,792.802z"/>
		<path fill="#A3836E" d="M869.674,718.719c0,0-6.666,16.378-8.761,27.424c-3.047,16.188,6.856,10.855,16.378,5.713
			c5.523-3.047,12.188-10.665,12.379-7.617c0,2.666-17.33,17.14-27.233,16.949c-7.046-0.381-10.094-1.904-7.618-15.807
			c1.524-8.38,8.951-26.472,8.57-26.472c-3.428,0-11.427,1.333-14.093,1.714c-0.952,0.19-1.714-3.81,0.571-4.762
			s10.284-1.333,14.854-1.523c0,0,5.904-20.187,8.761-26.091c1.904-4.189,8.189,4.189,6.666,7.428l-9.332,18.663
			c7.617-0.381,19.425,0.19,19.425,1.523C890.241,716.813,872.721,717.767,869.674,718.719z"/>
		<path fill="#A3836E" d="M961.848,689.009c-16.569,12.76-43.422,21.14-64.942,27.995c-2.666,7.237-5.142,21.901-6.475,30.472
			c4.57-7.047,9.713-12.76,15.807-20.949c1.143-4.951,9.332-12.569,7.809-3.618c-1.143,7.237-2.285,15.235-2.285,20.568
			c0,11.236,2.285,15.426,10.283,9.521c5.523-3.999,10.665-11.427,11.617-12.379c0.571-0.571,0.952,1.143,0.952,1.143
			c-0.571,1.524-15.807,23.234-25.9,18.093c-7.427-3.618-3.809-27.424-3.618-27.614c0-0.952-9.522,11.427-15.045,18.473
			c-0.571,8.189-6.856,11.427-6.856,9.522c-0.381-7.237,4.19-33.899,7.047-41.326c-4.381,1.143-6.095,2.856-6.285,4.761
			c-0.381,2.666-2.285,3.047-2.095,0c0.19-4.189,5.904-7.047,9.713-8.189c6.094-19.996,19.234-44.183,35.613-56.562
			c5.522-4.381,11.808-7.237,17.901-8.57c10.665-2.285,22.092,1.714,26.281,12.379C974.988,672.44,970.607,682.344,961.848,689.009z
			 M944.326,656.062c-31.042,6.095-38.66,36.565-46.659,57.705c16.379-4.57,49.706-19.806,62.848-29.709
			c5.903-4.571,11.998-11.808,9.141-19.235C966.037,655.3,952.896,654.348,944.326,656.062z"/>
		<path fill="#A3836E" d="M948.323,755.284c-11.046,8.188-18.283,6.665-16.569-10.665c0.762-7.618,5.523-22.854,6.285-25.52
			c0.381-1.905,8.189-2.096,8.189,0.762c0,1.904-1.905,8.95-4.762,9.521c-0.952,0.19-1.904,8.57-2.856,16.379
			c-1.143,7.617,0,14.093,8.761,6.855c3.237-2.666,9.331-7.046,11.617-9.712c0.952-0.762,1.904-0.19,1.333,0.952
			C959.179,745.762,953.846,751.284,948.323,755.284z M947.752,709.577c-2.476,0.571-7.047-1.143-5.714-2.285
			c5.904-4.952,12.188-6.666,12.188-4.762C954.227,703.673,950.418,708.815,947.752,709.577z"/>
		<path fill="#A3836E" d="M1003.552,760.235c-2.095,2.285-7.428,5.713-12.76,4.761c-15.616-2.666-2.476-36.756-1.714-40.564
			c-5.333,6.856-22.092,24.187-23.996,29.519c-2.095,5.714-9.142,7.999-8.189,4.381c0.952-4.189,6.856-21.521,5.333-35.042
			c-0.571-5.714,11.046-9.903,9.712-3.618c-1.333,6.475-4.57,25.52-5.522,27.043c7.618-6.856,19.235-22.663,24.187-30.472
			c1.333-2.285,7.999-1.333,8.38,0.571c0.762,2.667-2.857,8.951-5.523,19.997c-2.856,11.808-4.951,26.472,0.571,25.9
			c4.762-0.571,9.142-5.142,10.665-7.046C1005.837,754.522,1006.027,757.76,1003.552,760.235z"/>
		<path fill="#A3836E" d="M1039.544,754.713c2.666,22.091-1.523,47.039-17.711,64.37c-5.714,6.094-12.569,10.855-19.997,13.902
			c-12.76,5.332-29.138,4.761-38.851-4.951c-8.761-8.761-7.047-20.188,1.523-29.52c16.568-17.711,46.088-29.899,69.894-44.755
			c-0.952-4.761-1.904-11.808-3.238-12.95c0-0.571-11.808,21.33-20.377,20.188c-12.76-1.904-3.81-27.614,10.665-41.136
			c7.236-6.856,16.188-10.475,24.187-6.285c4.761,2.666,3.999,9.903-0.381,10.665c4.38-7.428-3.81-11.808-13.522-3.428
			c-7.617,6.475-15.807,17.901-19.044,26.091c-3.809,9.332-2.476,14.283,6.284,5.713c4.19-3.999,9.522-11.808,14.094-18.473
			c3.237-4.38,6.284-6.095,6.094,0.19c-0.19,2.856-0.19,11.427,0.19,16.378c4.38-2.856,7.999-5.903,11.617-9.142
			c4.761-4.189,2.856,0,0.381,2.667C1047.924,747.666,1043.733,752.046,1039.544,754.713z M968.317,803.276
			c-5.903,6.284-10.855,15.426-3.999,22.281c8.57,8.38,25.71,5.714,36.375,1.333c7.999-3.047,15.426-7.998,21.521-14.474
			c14.283-15.426,15.997-35.994,12.76-55.229C1016.881,768.044,981.268,789.183,968.317,803.276z"/>
	</g>
</g>
<rect id="photo1" x="41.298" y="94.117" fill="#D0D2D3" width="229.666" height="385.289"/>
<rect id="photo2" x="287.424" y="140.729" fill="#D0D2D3" width="229.666" height="385.289"/>
<rect id="photo3" x="533.549" y="47.505" fill="#D0D2D3" width="229.666" height="385.289"/>
<rect id="photo4" x="779.674" y="174.91" fill="#D0D2D3" width="229.665" height="385.289"/>
<rect id="photo5" x="1025.8" y="94.117" fill="#D0D2D3" width="229.665" height="385.29"/>
<g id="fill-when">
	<path fill="#404041" d="M154.826,624.92h17.004v3.112h-7.391c-3.483,6.946-6.929,13.801-10.336,20.561
		c-3.409,6.763-6.818,13.615-10.225,20.562l-15.115-30.342l-15.115,30.342c-3.483-6.946-6.929-13.799-10.336-20.562
		c-3.409-6.76-6.854-13.614-10.336-20.561h-8.28v-3.112h18.783v3.112h-7.391c2.907,5.909,5.835,11.8,8.78,17.671
		c2.945,5.873,5.871,11.726,8.78,17.561c2.074-4.371,4.168-8.705,6.28-13.004c2.111-4.296,4.24-8.594,6.39-12.892
		c-0.667-1.537-1.316-3.074-1.945-4.612c-0.63-1.539-1.242-3.112-1.833-4.724h-7.613v-3.112h19.227v3.112h-7.724
		c2.89,5.909,5.796,11.8,8.725,17.671c2.926,5.873,5.834,11.726,8.724,17.561c2.834-5.982,5.705-11.873,8.613-17.671
		c2.907-5.797,5.853-11.651,8.836-17.561h-6.502V624.92z"/>
	<path fill="#404041" d="M207.728,663.485h8.78v-26.621c-0.147-2.577-1.089-4.786-2.824-6.627s-4.152-2.835-7.25-2.983
		c-2.362,0-4.631,0.388-6.809,1.16c-2.178,0.774-4.096,1.86-5.756,3.26s-2.972,3.073-3.93,5.025s-1.438,4.069-1.438,6.351v20.436
		h8.668v3.112h-20.45v-3.112h8.669v-77.131h-8.113v-3.111H188.5v47.567l-0.333,5.002c1.556-3.557,3.945-6.391,7.168-8.503
		c3.223-2.111,6.946-3.167,11.169-3.167c4.001,0,7.149,1.146,9.447,3.437c2.296,2.29,3.518,5.282,3.667,8.977v26.93h8.669v3.112
		h-20.561V663.485z"/>
	<path fill="#404041" d="M273.966,638.701c-6.001,2.445-12.003,4.854-18.004,7.225c-6.001,2.372-12.003,4.779-18.005,7.224
		c1.407,3.335,3.612,6.021,6.613,8.058c3.001,2.039,6.463,3.057,10.392,3.057c2.518,0,4.852-0.444,7.002-1.334
		c2.148-0.889,4.074-2.111,5.779-3.667c0.295,0.371,0.592,0.741,0.889,1.111c0.295,0.371,0.628,0.741,1,1.111
		c-1.928,1.853-4.131,3.298-6.613,4.334c-2.483,1.037-5.168,1.557-8.058,1.557c-3.039,0-5.873-0.575-8.502-1.723
		c-2.631-1.148-4.909-2.686-6.835-4.612c-1.927-1.926-3.464-4.204-4.612-6.835c-1.149-2.63-1.723-5.464-1.723-8.503
		c0-2.962,0.573-5.779,1.723-8.446c1.148-2.667,2.685-4.963,4.612-6.891c1.926-1.926,4.205-3.463,6.835-4.612
		c2.629-1.147,5.463-1.723,8.502-1.723c4.446,0,8.353,1.372,11.725,4.112C270.057,630.886,272.483,634.405,273.966,638.701z
		 M254.961,627.144c-3.039,0-5.817,0.658-8.335,1.973c-2.52,1.314-4.612,3.03-6.279,5.148c-1.667,2.119-2.834,4.563-3.501,7.339
		s-0.63,5.586,0.111,8.435c5.557-2.223,11.058-4.427,16.504-6.613c5.446-2.185,10.947-4.39,16.504-6.612
		c-1.408-2.865-3.428-5.192-6.057-6.983C261.277,628.039,258.295,627.144,254.961,627.144z"/>
	<path fill="#404041" d="M310.196,663.485h8.78v-26.621c-0.147-2.577-1.089-4.786-2.824-6.627s-4.152-2.835-7.25-2.983
		c-2.362,0-4.631,0.388-6.809,1.16c-2.178,0.774-4.096,1.86-5.756,3.26s-2.972,3.073-3.93,5.025s-1.438,4.069-1.438,6.351v20.436
		h8.668v3.112h-20.45v-3.112h8.669v-35.453h-8.113v-3.112h10.447l0.222,4.891c0,1.111,0.037,2.111,0.111,3.001
		c0.073,0.889,0.111,1.889,0.111,3.001c1.481-3.557,3.852-6.391,7.113-8.503c3.259-2.111,7.002-3.167,11.225-3.167
		c4.001,0,7.149,1.146,9.447,3.437c2.296,2.29,3.518,5.282,3.667,8.977v26.93h8.669v3.112h-20.561V663.485z"/>
	<path fill="#404041" d="M436.56,624.92h17.004v3.112h-7.391c-3.483,6.946-6.929,13.801-10.336,20.561
		c-3.409,6.763-6.818,13.615-10.225,20.562l-15.115-30.342l-15.115,30.342c-3.483-6.946-6.929-13.799-10.336-20.562
		c-3.409-6.76-6.854-13.614-10.336-20.561h-8.28v-3.112h18.783v3.112h-7.391c2.907,5.909,5.835,11.8,8.78,17.671
		c2.945,5.873,5.871,11.726,8.78,17.561c2.074-4.371,4.168-8.705,6.28-13.004c2.111-4.296,4.24-8.594,6.39-12.892
		c-0.667-1.537-1.316-3.074-1.945-4.612c-0.63-1.539-1.242-3.112-1.833-4.724h-7.613v-3.112h19.227v3.112h-7.724
		c2.89,5.909,5.796,11.8,8.725,17.671c2.926,5.873,5.834,11.726,8.724,17.561c2.834-5.982,5.705-11.873,8.613-17.671
		c2.907-5.797,5.853-11.651,8.836-17.561h-6.502V624.92z"/>
	<path fill="#404041" d="M499.13,638.701c-6.001,2.445-12.003,4.854-18.004,7.225c-6.001,2.372-12.003,4.779-18.005,7.224
		c1.407,3.335,3.612,6.021,6.613,8.058c3.001,2.039,6.463,3.057,10.392,3.057c2.518,0,4.852-0.444,7.002-1.334
		c2.148-0.889,4.074-2.111,5.779-3.667c0.295,0.371,0.592,0.741,0.889,1.111c0.295,0.371,0.628,0.741,1,1.111
		c-1.928,1.853-4.131,3.298-6.613,4.334c-2.483,1.037-5.168,1.557-8.058,1.557c-3.039,0-5.873-0.575-8.502-1.723
		c-2.631-1.148-4.909-2.686-6.835-4.612c-1.927-1.926-3.464-4.204-4.612-6.835c-1.149-2.63-1.723-5.464-1.723-8.503
		c0-2.962,0.573-5.779,1.723-8.446c1.148-2.667,2.685-4.963,4.612-6.891c1.926-1.926,4.205-3.463,6.835-4.612
		c2.629-1.147,5.463-1.723,8.502-1.723c4.446,0,8.353,1.372,11.725,4.112C495.221,630.886,497.647,634.405,499.13,638.701z
		 M480.125,627.144c-3.039,0-5.817,0.658-8.335,1.973c-2.52,1.314-4.612,3.03-6.279,5.148c-1.667,2.119-2.834,4.563-3.501,7.339
		s-0.63,5.586,0.111,8.435c5.557-2.223,11.058-4.427,16.504-6.613c5.446-2.185,10.947-4.39,16.504-6.612
		c-1.408-2.865-3.428-5.192-6.057-6.983C486.441,628.039,483.459,627.144,480.125,627.144z"/>
	<path fill="#404041" d="M565.922,663.485h8.78v-26.621c-0.147-2.577-1.089-4.786-2.824-6.627s-4.152-2.835-7.25-2.983
		c-2.362,0-4.631,0.388-6.809,1.16c-2.178,0.774-4.096,1.86-5.756,3.26s-2.972,3.073-3.93,5.025s-1.438,4.069-1.438,6.351v20.436
		h8.668v3.112h-20.45v-3.112h8.669v-77.131h-8.113v-3.111h11.225v47.567l-0.333,5.002c1.556-3.557,3.945-6.391,7.168-8.503
		c3.223-2.111,6.946-3.167,11.169-3.167c4.001,0,7.149,1.146,9.447,3.437c2.296,2.29,3.518,5.282,3.667,8.977v26.93h8.669v3.112
		h-20.561V663.485z"/>
	<path fill="#404041" d="M591.483,645.703c0-2.962,0.556-5.76,1.667-8.391c1.111-2.629,2.648-4.927,4.612-6.891
		c1.962-1.963,4.26-3.519,6.891-4.668c2.629-1.147,5.463-1.723,8.502-1.723c2.223,0,4.334,0.316,6.335,0.944
		c2,0.631,3.834,1.501,5.501,2.612s3.112,2.408,4.334,3.89c1.223,1.483,2.167,3.039,2.834,4.668c0-1.852,0.037-3.704,0.111-5.557
		c0.073-1.852,0.184-3.741,0.333-5.669h2.333v38.565h8.225v3.112h-11.003v-5.224v-6.112c-0.667,1.63-1.594,3.187-2.778,4.668
		c-1.186,1.482-2.612,2.778-4.279,3.89c-1.667,1.111-3.501,1.983-5.501,2.611c-2,0.629-4.15,0.945-6.446,0.945
		c-3.039,0-5.873-0.575-8.502-1.723c-2.631-1.148-4.929-2.686-6.891-4.612c-1.964-1.926-3.501-4.204-4.612-6.835
		C592.04,651.576,591.483,648.742,591.483,645.703z M594.596,645.759c0,2.586,0.481,5.005,1.445,7.259
		c0.962,2.254,2.278,4.211,3.945,5.873s3.629,2.974,5.89,3.934c2.259,0.96,4.686,1.439,7.28,1.439c2.593,0,5.038-0.479,7.335-1.439
		c2.295-0.96,4.296-2.271,6.001-3.934c1.704-1.662,3.037-3.619,4.001-5.873c0.962-2.254,1.445-4.673,1.445-7.259
		c0-2.584-0.483-5.003-1.445-7.257c-0.964-2.254-2.297-4.23-4.001-5.929c-1.706-1.698-3.706-3.028-6.001-3.988
		c-2.298-0.961-4.743-1.441-7.335-1.441c-2.594,0-5.021,0.48-7.28,1.441c-2.261,0.96-4.223,2.29-5.89,3.988
		s-2.983,3.675-3.945,5.929C595.077,640.756,594.596,643.175,594.596,645.759z"/>
	<path fill="#404041" d="M648.164,624.92h19.004v3.112H659.5c3.001,5.835,6.002,11.688,9.002,17.561
		c3.001,5.872,5.93,11.763,8.78,17.671c2.608-5.54,5.423-11.3,8.443-17.282c3.02-5.982,6.095-11.965,9.228-17.949h-6.445v-3.112
		h17.338v3.112h-7.78c-3.483,6.946-6.946,13.801-10.392,20.561c-3.445,6.763-6.91,13.615-10.392,20.562
		c-3.556-6.946-7.058-13.799-10.503-20.562c-3.445-6.76-6.909-13.614-10.391-20.561h-8.225V624.92z"/>
	<path fill="#404041" d="M751.521,638.701c-6.001,2.445-12.002,4.854-18.004,7.225c-6.002,2.372-12.004,4.779-18.005,7.224
		c1.407,3.335,3.612,6.021,6.612,8.058c3.002,2.039,6.464,3.057,10.393,3.057c2.518,0,4.852-0.444,7.002-1.334
		c2.147-0.889,4.073-2.111,5.779-3.667c0.295,0.371,0.592,0.741,0.889,1.111c0.295,0.371,0.629,0.741,1,1.111
		c-1.928,1.853-4.131,3.298-6.613,4.334c-2.482,1.037-5.168,1.557-8.057,1.557c-3.039,0-5.873-0.575-8.502-1.723
		c-2.631-1.148-4.91-2.686-6.836-4.612c-1.928-1.926-3.465-4.204-4.612-6.835c-1.149-2.63-1.723-5.464-1.723-8.503
		c0-2.962,0.573-5.779,1.723-8.446c1.147-2.667,2.685-4.963,4.612-6.891c1.926-1.926,4.205-3.463,6.836-4.612
		c2.629-1.147,5.463-1.723,8.502-1.723c4.445,0,8.353,1.372,11.725,4.112C747.613,630.886,750.039,634.405,751.521,638.701z
		 M732.518,627.144c-3.039,0-5.818,0.658-8.336,1.973c-2.52,1.314-4.612,3.03-6.279,5.148c-1.667,2.119-2.834,4.563-3.501,7.339
		s-0.63,5.586,0.111,8.435c5.557-2.223,11.058-4.427,16.504-6.613c5.446-2.185,10.947-4.39,16.505-6.612
		c-1.408-2.865-3.428-5.192-6.058-6.983C738.833,628.039,735.852,627.144,732.518,627.144z"/>
	<path fill="#404041" d="M827.983,638.701c-6.001,2.445-12.003,4.854-18.005,7.225c-6.001,2.372-12.003,4.779-18.004,7.224
		c1.406,3.335,3.611,6.021,6.612,8.058c3.001,2.039,6.464,3.057,10.392,3.057c2.518,0,4.852-0.444,7.002-1.334
		c2.148-0.889,4.074-2.111,5.779-3.667c0.295,0.371,0.592,0.741,0.889,1.111c0.295,0.371,0.629,0.741,1,1.111
		c-1.928,1.853-4.131,3.298-6.612,4.334c-2.483,1.037-5.168,1.557-8.058,1.557c-3.039,0-5.873-0.575-8.502-1.723
		c-2.631-1.148-4.909-2.686-6.836-4.612c-1.927-1.926-3.464-4.204-4.611-6.835c-1.15-2.63-1.723-5.464-1.723-8.503
		c0-2.962,0.572-5.779,1.723-8.446c1.147-2.667,2.685-4.963,4.611-6.891c1.927-1.926,4.205-3.463,6.836-4.612
		c2.629-1.147,5.463-1.723,8.502-1.723c4.445,0,8.354,1.372,11.725,4.112C824.074,630.886,826.5,634.405,827.983,638.701z
		 M808.979,627.144c-3.039,0-5.817,0.658-8.336,1.973c-2.52,1.314-4.611,3.03-6.279,5.148c-1.666,2.119-2.834,4.563-3.5,7.339
		c-0.668,2.775-0.631,5.586,0.111,8.435c5.557-2.223,11.058-4.427,16.504-6.613c5.445-2.185,10.947-4.39,16.504-6.612
		c-1.408-2.865-3.428-5.192-6.057-6.983C815.295,628.039,812.313,627.144,808.979,627.144z"/>
	<path fill="#404041" d="M833.205,645.703c0-2.962,0.557-5.76,1.668-8.391c1.111-2.629,2.647-4.927,4.611-6.891
		c1.963-1.963,4.26-3.519,6.891-4.668c2.629-1.147,5.463-1.723,8.502-1.723c2.223,0,4.335,0.316,6.336,0.944
		c2,0.631,3.834,1.501,5.501,2.612s3.112,2.408,4.335,3.89c1.223,1.483,2.166,3.039,2.834,4.668c0-1.852,0.036-3.704,0.111-5.557
		c0.072-1.852,0.184-3.741,0.333-5.669h2.333v38.565h8.225v3.112h-11.002v-5.224v-6.112c-0.668,1.63-1.595,3.187-2.779,4.668
		c-1.186,1.482-2.611,2.778-4.278,3.89s-3.501,1.983-5.501,2.611c-2.001,0.629-4.15,0.945-6.447,0.945
		c-3.039,0-5.873-0.575-8.502-1.723c-2.631-1.148-4.928-2.686-6.891-4.612c-1.964-1.926-3.5-4.204-4.611-6.835
		C833.762,651.576,833.205,648.742,833.205,645.703z M836.317,645.759c0,2.586,0.481,5.005,1.444,7.259s2.279,4.211,3.945,5.873
		c1.668,1.662,3.63,2.974,5.891,3.934c2.26,0.96,4.686,1.439,7.279,1.439s5.038-0.479,7.336-1.439
		c2.295-0.96,4.296-2.271,6.002-3.934c1.703-1.662,3.037-3.619,4-5.873s1.445-4.673,1.445-7.259c0-2.584-0.482-5.003-1.445-7.257
		s-2.297-4.23-4-5.929c-1.706-1.698-3.707-3.028-6.002-3.988c-2.298-0.961-4.742-1.441-7.336-1.441s-5.02,0.48-7.279,1.441
		c-2.261,0.96-4.223,2.29-5.891,3.988c-1.666,1.698-2.982,3.675-3.945,5.929S836.317,643.175,836.317,645.759z"/>
	<path fill="#404041" d="M925.339,662.597c-1.927,1.483-4.057,2.65-6.391,3.501c-2.333,0.851-4.798,1.278-7.391,1.278
		c-3.039,0-5.873-0.575-8.502-1.723c-2.631-1.148-4.909-2.686-6.835-4.612c-1.928-1.926-3.465-4.204-4.613-6.835
		c-1.148-2.63-1.723-5.464-1.723-8.503c0-2.962,0.574-5.779,1.723-8.446s2.686-4.963,4.613-6.891
		c1.926-1.926,4.204-3.463,6.835-4.612c2.629-1.147,5.463-1.723,8.502-1.723c2.667,0,5.168,0.427,7.502,1.278
		c2.334,0.853,4.427,2.02,6.279,3.501v10.336h-3.112v-8.479c-1.545-1.102-3.217-1.963-5.018-2.588
		c-1.803-0.623-3.732-0.936-5.792-0.936c-2.573,0-4.981,0.48-7.224,1.441c-2.244,0.96-4.192,2.29-5.848,3.988
		c-1.654,1.698-2.961,3.675-3.916,5.929s-1.432,4.673-1.432,7.257c0,2.586,0.48,5.005,1.444,7.259
		c0.962,2.254,2.278,4.211,3.945,5.873s3.63,2.974,5.89,3.934s4.686,1.439,7.28,1.439c2.296,0,4.427-0.351,6.391-1.056
		c1.962-0.703,3.76-1.685,5.39-2.945L925.339,662.597z"/>
	<path fill="#404041" d="M961.348,663.485h8.779v-26.621c-0.147-2.577-1.089-4.786-2.824-6.627c-1.734-1.841-4.151-2.835-7.25-2.983
		c-2.361,0-4.631,0.388-6.809,1.16c-2.178,0.774-4.096,1.86-5.756,3.26s-2.973,3.073-3.931,5.025s-1.438,4.069-1.438,6.351v20.436
		h8.669v3.112h-20.45v-3.112h8.669v-77.131h-8.113v-3.111h11.226v47.567l-0.333,5.002c1.555-3.557,3.945-6.391,7.168-8.503
		c3.223-2.111,6.946-3.167,11.17-3.167c4,0,7.148,1.146,9.446,3.437c2.296,2.29,3.519,5.282,3.667,8.977v26.93h8.67v3.112h-20.561
		V663.485z"/>
	<path fill="#404041" d="M1017.582,645.703c0-2.962,0.556-5.779,1.667-8.446s2.648-4.982,4.612-6.946
		c1.963-1.962,4.26-3.519,6.891-4.668c2.629-1.147,5.463-1.723,8.502-1.723c3.037,0,5.891,0.575,8.559,1.723
		c2.667,1.149,4.981,2.706,6.945,4.668c1.963,1.964,3.519,4.279,4.668,6.946c1.148,2.667,1.723,5.484,1.723,8.446
		c0,3.039-0.574,5.873-1.723,8.503c-1.149,2.631-2.705,4.909-4.668,6.835c-1.964,1.927-4.278,3.464-6.945,4.612
		c-2.668,1.147-5.521,1.723-8.559,1.723c-3.039,0-5.873-0.575-8.502-1.723c-2.631-1.148-4.928-2.686-6.891-4.612
		c-1.964-1.926-3.501-4.204-4.612-6.835C1018.138,651.576,1017.582,648.742,1017.582,645.703z M1020.693,645.703
		c0,2.595,0.483,5.021,1.449,7.28c0.965,2.261,2.285,4.223,3.957,5.89c1.672,1.668,3.642,2.983,5.908,3.946
		c2.266,0.963,4.701,1.444,7.303,1.444c2.524,0,4.939-0.481,7.244-1.444c2.303-0.963,4.291-2.278,5.963-3.946
		c1.673-1.667,3.01-3.629,4.014-5.89c1.004-2.26,1.506-4.686,1.506-7.28c0-2.593-0.502-5.019-1.506-7.279
		c-1.004-2.26-2.341-4.24-4.014-5.946c-1.672-1.703-3.66-3.037-5.963-4.001c-2.305-0.962-4.72-1.444-7.244-1.444
		c-2.602,0-5.037,0.482-7.303,1.444c-2.267,0.964-4.236,2.298-5.908,4.001c-1.672,1.706-2.992,3.687-3.957,5.946
		C1021.177,640.685,1020.693,643.11,1020.693,645.703z"/>
	<path fill="#404041" d="M1075.93,597.803h3.112v27.117h13.448v3.112h-13.448v35.453h9.335v3.112h-12.447v-38.565h-9.78v-3.112h9.78
		V597.803z"/>
	<path fill="#404041" d="M1128.498,663.485h8.779v-26.621c-0.146-2.577-1.088-4.786-2.823-6.627s-4.151-2.835-7.25-2.983
		c-2.362,0-4.632,0.388-6.81,1.16c-2.178,0.774-4.096,1.86-5.756,3.26s-2.972,3.073-3.93,5.025
		c-0.959,1.952-1.438,4.069-1.438,6.351v20.436h8.668v3.112h-20.449v-3.112h8.668v-77.131h-8.112v-3.111h11.226v47.567l-0.334,5.002
		c1.556-3.557,3.945-6.391,7.168-8.503c3.224-2.111,6.947-3.167,11.17-3.167c4.001,0,7.149,1.146,9.447,3.437
		c2.295,2.29,3.518,5.282,3.667,8.977v26.93h8.669v3.112h-20.561V663.485z"/>
	<path fill="#404041" d="M1194.736,638.701c-6.001,2.445-12.002,4.854-18.004,7.225c-6.002,2.372-12.004,4.779-18.005,7.224
		c1.407,3.335,3.612,6.021,6.612,8.058c3.002,2.039,6.464,3.057,10.393,3.057c2.518,0,4.852-0.444,7.002-1.334
		c2.147-0.889,4.073-2.111,5.779-3.667c0.295,0.371,0.592,0.741,0.889,1.111c0.295,0.371,0.629,0.741,1,1.111
		c-1.928,1.853-4.131,3.298-6.613,4.334c-2.482,1.037-5.168,1.557-8.057,1.557c-3.039,0-5.873-0.575-8.502-1.723
		c-2.631-1.148-4.91-2.686-6.836-4.612c-1.928-1.926-3.465-4.204-4.612-6.835c-1.149-2.63-1.723-5.464-1.723-8.503
		c0-2.962,0.573-5.779,1.723-8.446c1.147-2.667,2.685-4.963,4.612-6.891c1.926-1.926,4.205-3.463,6.836-4.612
		c2.629-1.147,5.463-1.723,8.502-1.723c4.445,0,8.353,1.372,11.725,4.112C1190.828,630.886,1193.254,634.405,1194.736,638.701z
		 M1175.732,627.144c-3.039,0-5.818,0.658-8.336,1.973c-2.52,1.314-4.612,3.03-6.279,5.148c-1.667,2.119-2.834,4.563-3.501,7.339
		s-0.63,5.586,0.111,8.435c5.557-2.223,11.058-4.427,16.504-6.613c5.446-2.185,10.947-4.39,16.505-6.612
		c-1.408-2.865-3.428-5.192-6.058-6.983C1182.048,628.039,1179.066,627.144,1175.732,627.144z"/>
	<path fill="#404041" d="M1199.959,663.485h8.669v-35.453h-8.112v-3.112h10.446l0.222,4.891c0,1.111,0.037,2.111,0.111,3.001
		c0.073,0.889,0.111,1.889,0.111,3.001c1.629-3.63,4.094-6.464,7.391-8.503c3.297-2.037,6.836-3.093,10.614-3.167l-0.111,3.111
		c-2.372,0.075-4.632,0.518-6.779,1.327c-2.149,0.81-4.021,1.914-5.612,3.313c-1.594,1.399-2.854,3.057-3.779,4.97
		c-0.927,1.916-1.389,3.977-1.389,6.186v20.436h8.668v3.112h-20.449V663.485z"/>
</g>
</svg>
