<?xml version="1.0" encoding="utf-8"?>
<!-- Generator: Adobe Illustrator 20.1.0, SVG Export Plug-In . SVG Version: 6.00 Build 0)  -->
<svg version="1.1" xmlns="http://www.w3.org/2000/svg" xmlns:xlink="http://www.w3.org/1999/xlink" x="0px" y="0px"
	 viewBox="0 0 864 864" style="enable-background:new 0 0 864 864;" xml:space="preserve">
<style type="text/css">
	.st0{fill:#F1F2F2;}
	.st1{fill:#FFFFFF;}
	.st2{fill:#A7A9AC;}
</style>
<g id="Layer_2">
	<path id="fill" class="st0" d="M427.6,753.1c0,0,241-225.2,309.5-309.5c73.1-90,44.1-216.5-23.9-266.5s-168.1-37.4-215.3-8
		c-48,30-70.3,95.3-70.3,95.3s-23.9-65.5-70.3-95.3c-46.9-30-147.3-42-215.3,8s-97,176.6-23.9,266.5
		C186.6,527.9,427.6,753.1,427.6,753.1z"/>
</g>
<g id="Layer_1">
	<g>
		
			<rect x="123.6" y="167" transform="matrix(0.9864 0.1641 -0.1641 0.9864 40.2346 -26.6984)" class="st1" width="116.3" height="126.5"/>
		
			<rect id="photo_19_" x="129.6" y="171.9" transform="matrix(0.9864 0.1641 -0.1641 0.9864 39.384 -26.9131)" class="st2" width="106" height="106"/>
	</g>
	<g>
		
			<rect x="86" y="268.4" transform="matrix(0.9996 -2.781982e-02 2.781982e-02 0.9996 -9.1711 4.1373)" class="st1" width="116.3" height="126.5"/>
		
			<rect id="photo_18_" x="90.9" y="273.3" transform="matrix(0.9996 -2.781982e-02 2.781982e-02 0.9996 -9.023 4.1311)" class="st2" width="106" height="106"/>
	</g>
	<g>
		
			<rect x="242.1" y="144.8" transform="matrix(0.9996 -2.781982e-02 2.781982e-02 0.9996 -5.6717 8.4326)" class="st1" width="116.3" height="126.5"/>
		
			<rect id="photo_17_" x="247.1" y="149.7" transform="matrix(0.9996 -2.781982e-02 2.781982e-02 0.9996 -5.5236 8.4264)" class="st2" width="106" height="106"/>
	</g>
	<g>
		
			<rect x="201.3" y="259.9" transform="matrix(0.9977 6.799548e-02 -6.799548e-02 0.9977 22.5715 -16.8927)" class="st1" width="116.3" height="126.5"/>
		
			<rect id="photo_16_" x="206.8" y="264.8" transform="matrix(0.9977 6.799548e-02 -6.799548e-02 0.9977 22.2108 -16.9297)" class="st2" width="106" height="106"/>
	</g>
	<g>
		
			<rect x="313.8" y="225.3" transform="matrix(0.9957 -9.227901e-02 9.227901e-02 0.9957 -25.0356 35.5517)" class="st1" width="116.3" height="126.5"/>
		
			<rect id="photo_15_" x="318.4" y="230.2" transform="matrix(0.9957 -9.227901e-02 9.227901e-02 0.9957 -24.5481 35.4837)" class="st2" width="106" height="106"/>
	</g>
	<g>
		
			<rect x="137.5" y="373.1" transform="matrix(0.9957 -9.227901e-02 9.227901e-02 0.9957 -39.4322 19.9208)" class="st1" width="116.3" height="126.5"/>
		
			<rect id="photo_14_" x="142.2" y="378" transform="matrix(0.9957 -9.227901e-02 9.227901e-02 0.9957 -38.9447 19.8528)" class="st2" width="106" height="106"/>
	</g>
	<g>
		
			<rect x="205.3" y="445" transform="matrix(0.9866 0.1634 -0.1634 0.9866 86.5774 -36.2044)" class="st1" width="116.3" height="126.5"/>
		
			<rect id="photo_13_" x="211.3" y="450" transform="matrix(0.9866 0.1634 -0.1634 0.9866 85.7302 -36.4173)" class="st2" width="106" height="106"/>
	</g>
	<g>
		
			<rect x="384" y="344.9" transform="matrix(0.9866 0.1634 -0.1634 0.9866 72.6268 -66.755)" class="st1" width="116.3" height="126.5"/>
		
			<rect id="photo_12_" x="390" y="349.9" transform="matrix(0.9866 0.1634 -0.1634 0.9866 71.7797 -66.9679)" class="st2" width="106" height="106"/>
	</g>
	<g>
		
			<rect x="424.4" y="225.3" transform="matrix(0.9928 0.1194 -0.1194 0.9928 37.8948 -55.5443)" class="st1" width="116.3" height="126.5"/>
		
			<rect id="photo_11_" x="430.1" y="230.2" transform="matrix(0.9928 0.1194 -0.1194 0.9928 37.2678 -55.6581)" class="st2" width="106" height="106"/>
	</g>
	<g>
		
			<rect x="508.2" y="154.8" transform="matrix(0.9999 1.119841e-02 -1.119841e-02 0.9999 2.4776 -6.328)" class="st1" width="116.3" height="126.5"/>
		
			<rect id="photo_10_" x="513.3" y="159.7" transform="matrix(0.9999 1.119841e-02 -1.119841e-02 0.9999 2.4179 -6.329)" class="st2" width="106" height="106"/>
	</g>
	<g>
		
			<rect x="617.6" y="172.2" transform="matrix(0.9746 0.2239 -0.2239 0.9746 69.8571 -145.3154)" class="st1" width="116.3" height="126.5"/>
		
			<rect id="photo_9_" x="623.9" y="177.2" transform="matrix(0.9746 0.2239 -0.2239 0.9746 68.7247 -145.7142)" class="st2" width="106" height="106"/>
	</g>
	<g>
		
			<rect x="648.3" y="285" transform="matrix(0.9986 5.381425e-02 -5.381425e-02 0.9986 19.7645 -37.5124)" class="st1" width="116.3" height="126.5"/>
		
			<rect id="photo_8_" x="653.7" y="289.9" transform="matrix(0.9986 5.381425e-02 -5.381425e-02 0.9986 19.4785 -37.5355)" class="st2" width="106" height="106"/>
	</g>
	<g>
		
			<rect x="530.7" y="278.7" transform="matrix(0.9789 -0.2041 0.2041 0.9789 -57.3897 127.3915)" class="st1" width="116.3" height="126.5"/>
		
			<rect id="photo_7_" x="534.8" y="283.7" transform="matrix(0.9789 -0.2041 0.2041 0.9789 -56.3479 127.0597)" class="st2" width="106" height="106"/>
	</g>
	<g>
		
			<rect x="483.8" y="373.1" transform="matrix(0.9998 -2.107397e-02 2.107397e-02 0.9998 -9.0756 11.5181)" class="st1" width="116.3" height="126.5"/>
		
			<rect id="photo_6_" x="488.8" y="378" transform="matrix(0.9998 -2.107397e-02 2.107397e-02 0.9998 -8.9633 11.5146)" class="st2" width="106" height="106"/>
	</g>
	<g>
		
			<rect x="363.7" y="467.4" transform="matrix(0.9998 -2.107397e-02 2.107397e-02 0.9998 -11.0884 9.0087)" class="st1" width="116.3" height="126.5"/>
		
			<rect id="photo_5_" x="368.8" y="472.3" transform="matrix(0.9998 -2.107397e-02 2.107397e-02 0.9998 -10.9762 9.0051)" class="st2" width="106" height="106"/>
	</g>
	<g>
		
			<rect x="489" y="498.2" transform="matrix(0.988 0.1544 -0.1544 0.988 93.2665 -77.7575)" class="st1" width="116.3" height="126.5"/>
		
			<rect id="photo_4_" x="495" y="503.2" transform="matrix(0.988 0.1544 -0.1544 0.988 92.4634 -77.9477)" class="st2" width="106" height="106"/>
	</g>
	<g>
		
			<rect x="595.7" y="402.5" transform="matrix(0.9845 0.1752 -0.1752 0.9845 91.7449 -107.3713)" class="st1" width="116.3" height="126.5"/>
		
			<rect id="photo_3_" x="601.8" y="407.5" transform="matrix(0.9845 0.1752 -0.1752 0.9845 90.84 -107.6161)" class="st2" width="106" height="106"/>
	</g>
	<g>
		
			<rect x="278.9" y="372" transform="matrix(0.9841 -0.1774 0.1774 0.9841 -71.8605 66.7033)" class="st1" width="116.3" height="126.5"/>
		
			<rect id="photo_2_" x="283.1" y="377" transform="matrix(0.9841 -0.1774 0.1774 0.9841 -70.9453 66.4524)" class="st2" width="106" height="106"/>
	</g>
	<g>
		
			<rect x="377" y="597.4" transform="matrix(0.9285 0.3714 -0.3714 0.9285 276.4568 -114.3604)" class="st1" width="116.3" height="126.5"/>
		
			<rect id="photo_1_" x="384.1" y="602.7" transform="matrix(0.9285 0.3714 -0.3714 0.9285 274.7611 -115.449)" class="st2" width="106" height="106"/>
	</g>
	<g id="grp">
		
			<rect x="264.5" y="543.4" transform="matrix(0.9965 8.381621e-02 -8.381621e-02 0.9965 51.9799 -24.9116)" class="st1" width="116.3" height="126.5"/>
		
			<rect id="photo" x="270.1" y="548.3" transform="matrix(0.9965 8.381621e-02 -8.381621e-02 0.9965 51.5364 -24.9677)" class="st2" width="106" height="106"/>
	</g>
</g>
</svg>
