<?xml version="1.0" encoding="utf-8"?>
<!-- Generator: Adobe Illustrator 14.0.0, SVG Export Plug-In . SVG Version: 6.00 Build 43363)  -->
<!DOCTYPE svg PUBLIC "-//W3C//DTD SVG 1.1//EN" "http://www.w3.org/Graphics/SVG/1.1/DTD/svg11.dtd">
<svg version="1.1" id="Layer_1" xmlns="http://www.w3.org/2000/svg" xmlns:xlink="http://www.w3.org/1999/xlink" x="0px" y="0px"
	 width="720px" height="576px" viewBox="0 0 720 576" enable-background="new 0 0 720 576" xml:space="preserve">
<path id="photo-yellowstone" fill="#D0D2D3" d="M42.929,42.013l14.456,22.188l14.456-22.188h18.994l-25.55,38.241v31.097H49.484
	V80.253l-25.55-38.241H42.929z M133.029,55.88h-23.869v13.784h22.86v13.868h-22.86v13.951h23.869v13.868H93.36V42.013h39.669V55.88z
	 M157.91,97.482h23.869v13.868h-39.669V42.013h15.8V97.482z M205.398,97.482h23.869v13.868h-39.669V42.013h15.8V97.482z
	 M268.939,40.752c19.247,0,34.879,15.632,34.879,35.887c0,20.255-14.96,35.972-34.879,35.972c-20.507,0-34.963-15.716-34.963-35.972
	C233.976,56.384,249.86,40.752,268.939,40.752z M268.939,97.314c12.607,0,17.817-10.337,17.817-20.675
	c0-10.337-5.547-20.675-17.817-20.675c-12.187,0-17.902,10.337-17.902,20.675C251.037,86.977,255.996,97.314,268.939,97.314z
	 M350.216,72.437l-11.094,38.913h-17.566l-19.75-69.337h17.565l11.851,47.57h0.42l12.606-47.57h11.935l12.606,47.57h0.421
	l11.85-47.57h17.482l-19.751,69.337h-17.481L350.216,72.437z M449.396,47.308l-6.388,12.606c0,0-6.892-4.791-14.035-4.791
	c-5.379,0-8.237,2.438-8.237,6.22c0,3.866,6.556,6.639,14.456,10.001c7.732,3.277,16.221,9.833,16.221,18.91
	c0,16.557-12.606,22.356-26.138,22.356c-16.221,0-26.055-9.161-26.055-9.161l7.9-13.279c0,0,9.245,7.816,16.978,7.816
	c3.446,0,10.001-0.336,10.001-6.808c0-5.042-7.396-7.312-15.632-11.43c-8.32-4.118-13.195-10.59-13.195-17.817
	c0-12.943,11.43-21.18,22.608-21.18C440.487,40.752,449.396,47.308,449.396,47.308z M450.41,42.013h48.746V55.88h-16.473v55.47
	h-15.801V55.88H450.41V42.013z M534.037,40.752c19.247,0,34.879,15.632,34.879,35.887c0,20.255-14.96,35.972-34.879,35.972
	c-20.507,0-34.963-15.716-34.963-35.972C499.074,56.384,514.959,40.752,534.037,40.752z M534.037,97.314
	c12.607,0,17.818-10.337,17.818-20.675c0-10.337-5.547-20.675-17.818-20.675c-12.187,0-17.901,10.337-17.901,20.675
	C516.136,86.977,521.095,97.314,534.037,97.314z M591.697,111.35h-15.8V42.013h15.8l27.567,43.031h0.168V42.013h15.801v69.337
	h-15.801l-27.566-43.031h-0.169V111.35z M684.992,55.88h-23.869v13.784h22.861v13.868h-22.861v13.951h23.869v13.868h-39.669V42.013
	h39.669V55.88z"/>
<g id="fill-text">
	<path d="M168.974,527.439v11.081h-0.592v-11.081c-1.861-3.102-3.715-6.189-5.562-9.263c-1.847-3.073-3.701-6.161-5.562-9.263h0.719
		c1.692,2.848,3.397,5.675,5.118,8.48c1.72,2.806,3.412,5.646,5.076,8.522l0.55,1.1c0.084-0.197,0.162-0.381,0.232-0.55
		c0.07-0.17,0.148-0.353,0.233-0.55l10.151-17.003h0.719L168.974,527.439z"/>
	<path d="M190.29,536.575c-0.733,0.677-1.586,1.213-2.559,1.607s-2.009,0.592-3.109,0.592c-1.156,0-2.228-0.212-3.214-0.635
		c-0.987-0.423-1.854-1.008-2.601-1.755c-0.748-0.747-1.333-1.614-1.755-2.602c-0.423-0.986-0.634-2.058-0.634-3.214
		c0-1.128,0.211-2.199,0.634-3.215c0.423-1.015,1.008-1.896,1.755-2.644c0.747-0.747,1.614-1.339,2.601-1.776
		c0.987-0.437,2.058-0.655,3.214-0.655c1.748,0,3.221,0.501,4.42,1.501c1.198,1.002,2.107,2.263,2.728,3.786
		c-1.072,0.423-2.214,0.881-3.426,1.374c-1.213,0.494-2.439,0.994-3.68,1.502c-1.241,0.507-2.474,1.008-3.701,1.501
		c-1.227,0.494-2.376,0.967-3.447,1.417c0.564,1.438,1.48,2.602,2.749,3.489c1.269,0.889,2.721,1.333,4.356,1.333
		c1.015,0,1.967-0.176,2.855-0.529c0.888-0.353,1.671-0.853,2.348-1.501L190.29,536.575z M190.967,527.27
		c-0.592-1.269-1.417-2.312-2.474-3.129c-1.057-0.818-2.347-1.227-3.87-1.227c-1.072,0-2.066,0.197-2.981,0.592
		c-0.917,0.396-1.72,0.945-2.411,1.649c-0.691,0.705-1.234,1.522-1.628,2.453c-0.395,0.931-0.592,1.918-0.592,2.961
		c0,0.817,0.098,1.564,0.296,2.241c1.043-0.423,2.143-0.874,3.299-1.354c1.156-0.479,2.326-0.951,3.511-1.417
		c1.184-0.465,2.361-0.937,3.532-1.417C188.816,528.145,189.923,527.693,190.967,527.27z"/>
	<path d="M196.973,538.521h-0.592v-31.722h0.592V538.521z"/>
	<path d="M204.332,538.521h-0.592v-31.722h0.592V538.521z"/>
	<path d="M209.619,530.569c0-1.128,0.211-2.199,0.634-3.215c0.423-1.015,1.008-1.896,1.755-2.644
		c0.747-0.747,1.614-1.339,2.601-1.776c0.987-0.437,2.058-0.655,3.214-0.655c1.127,0,2.2,0.219,3.214,0.655
		c1.015,0.438,1.896,1.029,2.644,1.776c0.747,0.748,1.339,1.629,1.776,2.644c0.437,1.016,0.656,2.087,0.656,3.215
		c0,1.156-0.219,2.228-0.656,3.214c-0.438,0.987-1.029,1.854-1.776,2.602s-1.628,1.332-2.644,1.755
		c-1.015,0.423-2.087,0.635-3.214,0.635c-1.156,0-2.228-0.212-3.214-0.635c-0.987-0.423-1.854-1.008-2.601-1.755
		c-0.748-0.747-1.333-1.614-1.755-2.602C209.831,532.797,209.619,531.726,209.619,530.569z M210.211,530.569
		c0,1.071,0.197,2.065,0.592,2.981c0.395,0.917,0.937,1.721,1.628,2.411c0.691,0.691,1.494,1.233,2.411,1.628
		c0.916,0.396,1.91,0.593,2.981,0.593c1.043,0,2.03-0.197,2.961-0.593c0.93-0.395,1.748-0.937,2.453-1.628
		c0.705-0.69,1.254-1.494,1.649-2.411c0.395-0.916,0.592-1.91,0.592-2.981c0-1.043-0.198-2.03-0.592-2.961
		c-0.395-0.931-0.945-1.748-1.649-2.453c-0.705-0.704-1.523-1.254-2.453-1.649c-0.931-0.395-1.918-0.592-2.961-0.592
		c-1.072,0-2.066,0.197-2.981,0.592c-0.917,0.396-1.72,0.945-2.411,1.649c-0.691,0.705-1.234,1.522-1.628,2.453
		C210.408,528.539,210.211,529.526,210.211,530.569z"/>
	<path d="M240.368,527.27c-0.338-0.761-0.684-1.528-1.036-2.305c-0.353-0.775-0.698-1.544-1.036-2.305h0.634
		c1.156,2.594,2.312,5.188,3.468,7.782c1.156,2.595,2.298,5.174,3.426,7.74c1.156-2.595,2.305-5.182,3.447-7.762
		c1.142-2.58,2.291-5.167,3.447-7.761h0.635c-1.269,2.819-2.524,5.625-3.765,8.416c-1.241,2.792-2.495,5.598-3.764,8.417
		c-0.846-1.945-1.699-3.877-2.559-5.794c-0.861-1.918-1.713-3.85-2.559-5.795c-0.79,1.945-1.572,3.877-2.347,5.795
		c-0.776,1.917-1.559,3.849-2.348,5.794c-1.269-2.819-2.524-5.625-3.764-8.417c-1.241-2.791-2.496-5.597-3.764-8.416h0.634
		c1.156,2.594,2.298,5.188,3.426,7.782c1.127,2.595,2.284,5.174,3.468,7.74c0.733-1.833,1.459-3.651,2.178-5.457
		C238.909,530.922,239.634,529.104,240.368,527.27z"/>
	<path d="M264.771,524.31l-0.423,0.423c-0.48-0.563-1.093-0.979-1.84-1.248c-0.748-0.268-1.403-0.401-1.967-0.401
		c-0.367,0-0.761,0.063-1.185,0.19c-0.423,0.127-0.818,0.316-1.184,0.57c-0.367,0.254-0.67,0.593-0.909,1.016
		c-0.24,0.423-0.36,0.931-0.36,1.522c0,0.79,0.212,1.41,0.635,1.861s0.944,0.824,1.565,1.12c0.62,0.296,1.304,0.558,2.051,0.783
		c0.747,0.226,1.431,0.501,2.051,0.824c0.62,0.324,1.142,0.74,1.565,1.248c0.423,0.507,0.634,1.198,0.634,2.072
		c0,0.592-0.105,1.163-0.317,1.713c-0.212,0.55-0.522,1.036-0.931,1.459c-0.409,0.423-0.917,0.762-1.522,1.016
		c-0.607,0.254-1.305,0.38-2.094,0.38c-0.761,0-1.607-0.147-2.538-0.443c-0.931-0.296-1.692-0.811-2.284-1.544
		c0.084-0.057,0.162-0.12,0.232-0.19s0.148-0.134,0.233-0.19c0.169,0.254,0.437,0.494,0.804,0.719
		c0.366,0.227,0.761,0.417,1.184,0.571c0.423,0.155,0.846,0.275,1.269,0.359c0.423,0.085,0.803,0.127,1.142,0.127
		s0.754-0.063,1.248-0.19c0.493-0.127,0.958-0.338,1.396-0.634c0.437-0.297,0.811-0.684,1.121-1.163
		c0.31-0.479,0.465-1.086,0.465-1.819c0-0.846-0.211-1.508-0.634-1.987s-0.945-0.867-1.565-1.163
		c-0.621-0.297-1.304-0.557-2.051-0.783c-0.748-0.225-1.431-0.492-2.051-0.804c-0.621-0.31-1.142-0.719-1.565-1.227
		c-0.423-0.507-0.634-1.197-0.634-2.072c0-0.677,0.12-1.262,0.359-1.755c0.239-0.493,0.564-0.902,0.973-1.227
		s0.867-0.563,1.375-0.719c0.508-0.155,1.015-0.233,1.523-0.233c0.62,0,1.332,0.135,2.136,0.402
		C263.481,523.161,264.179,523.633,264.771,524.31z"/>
	<path d="M271.834,515.724h0.592v7.274h5.372v0.592h-5.372v14.931h-0.592V523.59h-3.764v-0.592h3.764V515.724z"/>
	<path d="M279.702,530.569c0-1.128,0.211-2.199,0.634-3.215c0.423-1.015,1.008-1.896,1.755-2.644
		c0.747-0.747,1.614-1.339,2.601-1.776c0.987-0.437,2.058-0.655,3.214-0.655c1.127,0,2.2,0.219,3.214,0.655
		c1.015,0.438,1.896,1.029,2.644,1.776c0.747,0.748,1.339,1.629,1.776,2.644c0.437,1.016,0.656,2.087,0.656,3.215
		c0,1.156-0.219,2.228-0.656,3.214c-0.438,0.987-1.029,1.854-1.776,2.602s-1.628,1.332-2.644,1.755
		c-1.015,0.423-2.087,0.635-3.214,0.635c-1.156,0-2.228-0.212-3.214-0.635c-0.987-0.423-1.854-1.008-2.601-1.755
		c-0.748-0.747-1.333-1.614-1.755-2.602C279.913,532.797,279.702,531.726,279.702,530.569z M280.294,530.569
		c0,1.071,0.197,2.065,0.592,2.981c0.395,0.917,0.937,1.721,1.628,2.411c0.691,0.691,1.494,1.233,2.411,1.628
		c0.916,0.396,1.91,0.593,2.981,0.593c1.043,0,2.03-0.197,2.961-0.593c0.93-0.395,1.748-0.937,2.453-1.628
		c0.705-0.69,1.254-1.494,1.649-2.411c0.395-0.916,0.592-1.91,0.592-2.981c0-1.043-0.198-2.03-0.592-2.961
		c-0.395-0.931-0.945-1.748-1.649-2.453c-0.705-0.704-1.523-1.254-2.453-1.649c-0.931-0.395-1.918-0.592-2.961-0.592
		c-1.072,0-2.066,0.197-2.981,0.592c-0.917,0.396-1.72,0.945-2.411,1.649c-0.691,0.705-1.234,1.522-1.628,2.453
		C280.491,528.539,280.294,529.526,280.294,530.569z"/>
	<path d="M301.314,522.66h0.423l0.042,4.145c0.563-1.325,1.466-2.396,2.707-3.215c1.24-0.817,2.665-1.227,4.271-1.227
		c1.495,0,2.671,0.438,3.532,1.312c0.86,0.874,1.318,2.017,1.375,3.426v11.42h-0.592v-11.716c-0.057-1.015-0.43-1.896-1.121-2.644
		c-0.691-0.747-1.657-1.148-2.897-1.205c-0.959,0-1.868,0.155-2.728,0.465c-0.86,0.311-1.622,0.74-2.284,1.29
		c-0.663,0.55-1.184,1.213-1.565,1.988c-0.38,0.775-0.571,1.614-0.571,2.517v9.305h-0.592V522.66z"/>
	<path d="M332.485,536.575c-0.733,0.677-1.586,1.213-2.559,1.607s-2.009,0.592-3.109,0.592c-1.156,0-2.228-0.212-3.214-0.635
		c-0.987-0.423-1.854-1.008-2.601-1.755c-0.748-0.747-1.333-1.614-1.755-2.602c-0.423-0.986-0.634-2.058-0.634-3.214
		c0-1.128,0.211-2.199,0.634-3.215c0.423-1.015,1.008-1.896,1.755-2.644c0.747-0.747,1.614-1.339,2.601-1.776
		c0.987-0.437,2.058-0.655,3.214-0.655c1.748,0,3.221,0.501,4.42,1.501c1.198,1.002,2.107,2.263,2.728,3.786
		c-1.072,0.423-2.214,0.881-3.426,1.374c-1.213,0.494-2.439,0.994-3.68,1.502c-1.241,0.507-2.474,1.008-3.701,1.501
		c-1.227,0.494-2.376,0.967-3.447,1.417c0.564,1.438,1.48,2.602,2.749,3.489c1.269,0.889,2.721,1.333,4.356,1.333
		c1.015,0,1.967-0.176,2.855-0.529c0.888-0.353,1.671-0.853,2.348-1.501L332.485,536.575z M333.162,527.27
		c-0.592-1.269-1.417-2.312-2.474-3.129c-1.057-0.818-2.347-1.227-3.87-1.227c-1.072,0-2.066,0.197-2.981,0.592
		c-0.917,0.396-1.72,0.945-2.411,1.649c-0.691,0.705-1.234,1.522-1.628,2.453c-0.395,0.931-0.592,1.918-0.592,2.961
		c0,0.817,0.098,1.564,0.296,2.241c1.043-0.423,2.143-0.874,3.299-1.354c1.156-0.479,2.326-0.951,3.511-1.417
		c1.184-0.465,2.361-0.937,3.532-1.417C331.011,528.145,332.118,527.693,333.162,527.27z"/>
	<path d="M375.457,508.914v30.96c-4.033-5.047-7.931-10.03-11.695-14.951c-3.764-4.92-7.493-9.834-11.187-14.74
		c-0.141-0.197-0.275-0.381-0.401-0.55c-0.127-0.169-0.261-0.353-0.402-0.55c0.028,0.226,0.049,0.451,0.063,0.677
		c0.014,0.226,0.035,0.451,0.063,0.677v28.084h-0.592v-30.96c2.03,2.566,4.003,5.097,5.921,7.592
		c1.917,2.495,3.807,4.977,5.667,7.444c1.861,2.468,3.723,4.921,5.583,7.359c1.861,2.438,3.765,4.899,5.71,7.38
		c0.141,0.198,0.275,0.381,0.402,0.55c0.127,0.17,0.26,0.354,0.401,0.55c-0.028-0.225-0.05-0.45-0.063-0.677
		c-0.015-0.225-0.035-0.45-0.063-0.677v-28.168H375.457z"/>
	<path d="M381.336,530.569c0-1.128,0.212-2.199,0.635-3.215c0.423-1.015,1.008-1.889,1.755-2.622s1.614-1.318,2.602-1.756
		c0.986-0.437,2.058-0.655,3.214-0.655c1.748,0,3.306,0.486,4.674,1.459c1.367,0.974,2.361,2.221,2.981,3.743
		c0-0.817,0.015-1.628,0.043-2.432c0.027-0.804,0.069-1.614,0.127-2.432h0.423v15.86h-0.593v-2.284c0-0.45,0.007-0.895,0.021-1.332
		c0.014-0.437,0.021-0.881,0.021-1.332c-0.311,0.761-0.72,1.459-1.227,2.094c-0.508,0.634-1.094,1.184-1.756,1.649
		c-0.663,0.465-1.396,0.824-2.199,1.078s-1.643,0.381-2.517,0.381c-1.156,0-2.228-0.212-3.214-0.635
		c-0.987-0.423-1.854-1.008-2.602-1.755s-1.332-1.614-1.755-2.602C381.548,532.797,381.336,531.726,381.336,530.569z
		 M381.928,530.569c0,1.071,0.197,2.065,0.593,2.981c0.395,0.917,0.937,1.721,1.628,2.411c0.69,0.691,1.494,1.233,2.411,1.628
		c0.916,0.396,1.91,0.593,2.981,0.593c1.043,0,2.03-0.197,2.961-0.593c0.931-0.395,1.748-0.937,2.453-1.628
		c0.704-0.69,1.254-1.494,1.649-2.411c0.395-0.916,0.592-1.91,0.592-2.981c0-1.043-0.197-2.03-0.592-2.961
		c-0.396-0.931-0.945-1.748-1.649-2.453c-0.705-0.704-1.522-1.254-2.453-1.649c-0.931-0.395-1.918-0.592-2.961-0.592
		c-1.071,0-2.065,0.197-2.981,0.592c-0.917,0.396-1.721,0.945-2.411,1.649c-0.691,0.705-1.233,1.522-1.628,2.453
		C382.125,528.539,381.928,529.526,381.928,530.569z"/>
	<path d="M405.528,515.724h0.593v7.274h5.371v0.592h-5.371v14.931h-0.593V523.59h-3.764v-0.592h3.764V515.724z"/>
	<path d="M414.749,517.373c0-0.226,0.084-0.423,0.253-0.592c0.17-0.17,0.366-0.254,0.593-0.254c0.226,0,0.423,0.084,0.592,0.254
		c0.169,0.169,0.254,0.366,0.254,0.592s-0.085,0.423-0.254,0.592s-0.366,0.254-0.592,0.254c-0.227,0-0.423-0.085-0.593-0.254
		C414.833,517.796,414.749,517.599,414.749,517.373z M415.891,538.521h-0.592v-15.86h0.592V538.521z"/>
	<path d="M421.008,530.569c0-1.128,0.212-2.199,0.635-3.215c0.423-1.015,1.008-1.896,1.755-2.644
		c0.747-0.747,1.614-1.339,2.602-1.776c0.986-0.437,2.058-0.655,3.214-0.655c1.128,0,2.199,0.219,3.215,0.655
		c1.015,0.438,1.896,1.029,2.644,1.776c0.746,0.748,1.339,1.629,1.776,2.644c0.437,1.016,0.655,2.087,0.655,3.215
		c0,1.156-0.219,2.228-0.655,3.214c-0.438,0.987-1.03,1.854-1.776,2.602c-0.748,0.747-1.629,1.332-2.644,1.755
		c-1.016,0.423-2.087,0.635-3.215,0.635c-1.156,0-2.228-0.212-3.214-0.635c-0.987-0.423-1.854-1.008-2.602-1.755
		s-1.332-1.614-1.755-2.602C421.22,532.797,421.008,531.726,421.008,530.569z M421.6,530.569c0,1.071,0.197,2.065,0.593,2.981
		c0.395,0.917,0.937,1.721,1.628,2.411c0.69,0.691,1.494,1.233,2.411,1.628c0.916,0.396,1.91,0.593,2.981,0.593
		c1.043,0,2.03-0.197,2.961-0.593c0.931-0.395,1.748-0.937,2.453-1.628c0.704-0.69,1.254-1.494,1.649-2.411
		c0.395-0.916,0.592-1.91,0.592-2.981c0-1.043-0.197-2.03-0.592-2.961c-0.396-0.931-0.945-1.748-1.649-2.453
		c-0.705-0.704-1.522-1.254-2.453-1.649c-0.931-0.395-1.918-0.592-2.961-0.592c-1.071,0-2.065,0.197-2.981,0.592
		c-0.917,0.396-1.721,0.945-2.411,1.649c-0.691,0.705-1.233,1.522-1.628,2.453C421.797,528.539,421.6,529.526,421.6,530.569z"/>
	<path d="M442.621,522.66h0.423l0.042,4.145c0.563-1.325,1.466-2.396,2.707-3.215c1.24-0.817,2.664-1.227,4.271-1.227
		c1.494,0,2.672,0.438,3.532,1.312c0.859,0.874,1.317,2.017,1.374,3.426v11.42h-0.592v-11.716c-0.057-1.015-0.431-1.896-1.121-2.644
		c-0.691-0.747-1.656-1.148-2.897-1.205c-0.959,0-1.868,0.155-2.728,0.465c-0.86,0.311-1.622,0.74-2.284,1.29
		c-0.663,0.55-1.185,1.213-1.564,1.988c-0.381,0.775-0.571,1.614-0.571,2.517v9.305h-0.592V522.66z"/>
	<path d="M459.919,530.569c0-1.128,0.212-2.199,0.635-3.215c0.423-1.015,1.008-1.889,1.755-2.622s1.614-1.318,2.602-1.756
		c0.986-0.437,2.058-0.655,3.214-0.655c1.748,0,3.306,0.486,4.674,1.459c1.367,0.974,2.361,2.221,2.981,3.743
		c0-0.817,0.015-1.628,0.043-2.432c0.027-0.804,0.069-1.614,0.127-2.432h0.423v15.86h-0.593v-2.284c0-0.45,0.007-0.895,0.021-1.332
		c0.014-0.437,0.021-0.881,0.021-1.332c-0.311,0.761-0.72,1.459-1.227,2.094c-0.508,0.634-1.094,1.184-1.756,1.649
		c-0.663,0.465-1.396,0.824-2.199,1.078s-1.643,0.381-2.517,0.381c-1.156,0-2.228-0.212-3.214-0.635
		c-0.987-0.423-1.854-1.008-2.602-1.755s-1.332-1.614-1.755-2.602C460.131,532.797,459.919,531.726,459.919,530.569z
		 M460.511,530.569c0,1.071,0.197,2.065,0.593,2.981c0.395,0.917,0.937,1.721,1.628,2.411c0.69,0.691,1.494,1.233,2.411,1.628
		c0.916,0.396,1.91,0.593,2.981,0.593c1.043,0,2.03-0.197,2.961-0.593c0.931-0.395,1.748-0.937,2.453-1.628
		c0.704-0.69,1.254-1.494,1.649-2.411c0.395-0.916,0.592-1.91,0.592-2.981c0-1.043-0.197-2.03-0.592-2.961
		c-0.396-0.931-0.945-1.748-1.649-2.453c-0.705-0.704-1.522-1.254-2.453-1.649c-0.931-0.395-1.918-0.592-2.961-0.592
		c-1.071,0-2.065,0.197-2.981,0.592c-0.917,0.396-1.721,0.945-2.411,1.649c-0.691,0.705-1.233,1.522-1.628,2.453
		C460.708,528.539,460.511,529.526,460.511,530.569z"/>
	<path d="M483.562,538.521h-0.592v-31.722h0.592V538.521z"/>
	<path d="M503.06,538.521v-29.606h5.921c0.817,0,1.72,0.134,2.707,0.401c0.987,0.269,1.903,0.705,2.749,1.312
		c0.847,0.606,1.558,1.403,2.137,2.39c0.577,0.987,0.866,2.214,0.866,3.68c0,1.072-0.176,2.101-0.528,3.088s-0.896,1.86-1.628,2.622
		c-0.734,0.761-1.671,1.374-2.813,1.84c-1.142,0.465-2.502,0.697-4.081,0.697h-4.737v13.577H503.06z M503.651,524.352h4.864
		c1.635,0,2.988-0.261,4.061-0.782c1.071-0.521,1.924-1.17,2.559-1.945s1.078-1.614,1.332-2.517s0.381-1.734,0.381-2.496
		c0-1.071-0.211-2.044-0.635-2.918c-0.423-0.874-1.008-1.621-1.755-2.242c-0.747-0.619-1.622-1.1-2.622-1.438
		c-1.001-0.339-2.094-0.508-3.278-0.508h-4.906V524.352z"/>
	<path d="M517.271,530.569c0-1.128,0.212-2.199,0.635-3.215c0.423-1.015,1.008-1.889,1.755-2.622s1.614-1.318,2.602-1.756
		c0.986-0.437,2.058-0.655,3.214-0.655c1.748,0,3.306,0.486,4.674,1.459c1.367,0.974,2.361,2.221,2.981,3.743
		c0-0.817,0.015-1.628,0.043-2.432c0.027-0.804,0.069-1.614,0.127-2.432h0.423v15.86h-0.593v-2.284c0-0.45,0.007-0.895,0.021-1.332
		c0.014-0.437,0.021-0.881,0.021-1.332c-0.311,0.761-0.72,1.459-1.227,2.094c-0.508,0.634-1.094,1.184-1.756,1.649
		c-0.663,0.465-1.396,0.824-2.199,1.078s-1.643,0.381-2.517,0.381c-1.156,0-2.228-0.212-3.214-0.635
		c-0.987-0.423-1.854-1.008-2.602-1.755s-1.332-1.614-1.755-2.602C517.483,532.797,517.271,531.726,517.271,530.569z
		 M517.863,530.569c0,1.071,0.197,2.065,0.593,2.981c0.395,0.917,0.937,1.721,1.628,2.411c0.69,0.691,1.494,1.233,2.411,1.628
		c0.916,0.396,1.91,0.593,2.981,0.593c1.043,0,2.03-0.197,2.961-0.593c0.931-0.395,1.748-0.937,2.453-1.628
		c0.704-0.69,1.254-1.494,1.649-2.411c0.395-0.916,0.592-1.91,0.592-2.981c0-1.043-0.197-2.03-0.592-2.961
		c-0.396-0.931-0.945-1.748-1.649-2.453c-0.705-0.704-1.522-1.254-2.453-1.649c-0.931-0.395-1.918-0.592-2.961-0.592
		c-1.071,0-2.065,0.197-2.981,0.592c-0.917,0.396-1.721,0.945-2.411,1.649c-0.691,0.705-1.233,1.522-1.628,2.453
		C518.061,528.539,517.863,529.526,517.863,530.569z"/>
	<path d="M547.639,522.956c-0.93,0.028-1.812,0.205-2.643,0.528c-0.832,0.324-1.565,0.762-2.2,1.312
		c-0.634,0.55-1.135,1.205-1.501,1.967c-0.367,0.761-0.55,1.579-0.55,2.453v9.305h-0.592v-15.86h0.423l0.042,4.145
		c0.592-1.354,1.508-2.417,2.749-3.193c1.24-0.775,2.665-1.19,4.271-1.248V522.956z"/>
	<path d="M561.215,522.279c0.057,0.057,0.12,0.127,0.19,0.211c0.07,0.085,0.134,0.155,0.19,0.212
		c-1.072,1.015-2.101,1.995-3.088,2.939c-0.987,0.945-2.016,1.925-3.087,2.939c1.212,1.664,2.425,3.32,3.637,4.97
		s2.425,3.307,3.638,4.97h-0.762c-1.184-1.607-2.354-3.193-3.51-4.758c-1.157-1.565-2.326-3.151-3.511-4.759
		c-0.536,0.479-1.058,0.973-1.565,1.48c-0.507,0.508-1.029,1.001-1.564,1.48v6.556h-0.592v-31.722h0.592v24.277
		c1.607-1.522,3.179-2.988,4.716-4.398C558.035,525.269,559.607,523.802,561.215,522.279z"/>
</g>
<rect id="photo-left" x="35.214" y="146" fill="#D0D2D3" width="198" height="331"/>
<rect id="photo-center" x="261" y="146" fill="#D0D2D3" width="198" height="331"/>
<rect id="photo-right" x="486.214" y="146" fill="#D0D2D3" width="198" height="331"/>
</svg>
