<?xml version="1.0" encoding="utf-8"?>
<!-- Generator: Adobe Illustrator 14.0.0, SVG Export Plug-In . SVG Version: 6.00 Build 43363)  -->
<!DOCTYPE svg PUBLIC "-//W3C//DTD SVG 1.1//EN" "http://www.w3.org/Graphics/SVG/1.1/DTD/svg11.dtd">
<svg version="1.1" id="Layer_1" xmlns="http://www.w3.org/2000/svg" xmlns:xlink="http://www.w3.org/1999/xlink" x="0px" y="0px"
	 width="864px" height="1296px" viewBox="0 0 864 1296" enable-background="new 0 0 864 1296" xml:space="preserve">
<circle id="photo" fill="#D0D2D3" cx="432" cy="585.961" r="354.411"/>
<g id="fillfavorite">
	<path fill="#363830" d="M135.084,179.698l-12.888-27.667l2.578-1.203l11.915,25.49l11.915-25.49l2.578,1.203l-19.647,42.102
		l-2.578-1.26L135.084,179.698z"/>
	<path fill="#363830" d="M173.466,150.828c9.623,0,16.039,7.561,16.039,15.695c0,9.623-7.561,16.039-15.695,16.039
		c-9.623,0-16.039-7.561-16.039-15.695C157.771,157.244,165.332,150.828,173.466,150.828z M173.523,153.692
		c-6.702,0-12.888,5.27-12.888,13.117c0,6.702,5.27,12.888,13.117,12.888c6.702,0,12.888-5.27,12.888-13.117
		C186.64,159.878,181.371,153.692,173.523,153.692z"/>
	<path fill="#363830" d="M200.392,172.137v-20.335h2.864v20.278c0,3.781,2.921,7.618,7.848,7.618
		c7.905,0,13.175-6.186,13.175-12.888v-15.008h2.864v30.016h-2.864v-7.848c-0.802,3.666-7.447,8.592-13.232,8.592
		C204.344,182.562,200.392,177.292,200.392,172.137z"/>
	<path fill="#363830" d="M276.638,150.828c4.926,0,8.249,2.005,10.311,4.983v-4.01h2.864v30.016h-2.864v-4.354
		c-2.177,3.208-5.557,5.098-9.967,5.098c-9.623,0-16.039-7.561-16.039-15.695C260.943,157.244,268.504,150.828,276.638,150.828z
		 M276.695,153.692c-6.702,0-12.889,5.27-12.889,13.117c0,6.702,5.27,12.888,13.118,12.888c3.895,0,7.619-1.775,10.024-4.812
		v-16.382C284.657,155.64,281.049,153.692,276.695,153.692z"/>
	<path fill="#363830" d="M319.659,150.828c0,1.146,0,1.317,0,2.864c-7.905,0-13.232,6.186-13.232,12.888v15.237h-2.864v-30.016
		h2.864v7.619C307.229,155.754,313.874,150.828,319.659,150.828z"/>
	<path fill="#363830" d="M342.001,179.698c2.292,0,4.583-0.63,6.53-1.775l1.432,2.463c-2.406,1.432-5.155,2.177-7.962,2.177
		c-9.623,0-16.039-7.561-16.039-15.695c0-9.623,7.618-16.039,15.752-16.039c7.676,0,13.347,4.812,15.294,11.055l-28.182,4.926
		C328.827,173.512,334.097,179.698,342.001,179.698z M352.885,159.707c-2.234-3.551-6.187-6.014-11.17-6.014
		c-5.786,0-11.227,3.952-12.545,10.196L352.885,159.707z"/>
	<path fill="#363830" d="M423.461,150.828c6.759,0,10.712,5.27,10.712,10.425v20.564h-2.864v-20.507c0-3.78-2.921-7.618-7.848-7.618
		c-4.411,0-7.962,1.947-10.311,4.812v1.489c0.058,0.401,0.115,0.802,0.115,1.26v20.564h-2.864v-20.507
		c0-3.78-2.979-7.618-7.905-7.618c-4.354,0-7.962,1.947-10.253,4.812v23.313h-2.864v-30.016h2.864v4.01
		c2.062-2.979,5.384-4.983,10.311-4.983c4.64,0,8.02,2.521,9.624,5.785l0.974-1.375C415.27,152.203,418.592,150.828,423.461,150.828
		z"/>
	<path fill="#363830" d="M456.518,179.698l-12.888-27.667l2.577-1.203l11.915,25.49l11.914-25.49l2.578,1.203l-19.647,42.102
		l-2.578-1.26L456.518,179.698z"/>
	<path fill="#363830" d="M521.365,154.666h-13.518v27.151h-2.864v-27.151h-2.864v-2.864h2.864c0.114-9.509,7.618-15.81,15.695-15.81
		h4.124v2.864h-4.124c-6.588,0-12.717,5.155-12.831,12.945h13.518V154.666z"/>
	<path fill="#363830" d="M541.645,150.828c4.926,0,8.248,2.005,10.311,4.983v-4.01h2.864v30.016h-2.864v-4.354
		c-2.177,3.208-5.557,5.098-9.967,5.098c-9.624,0-16.039-7.561-16.039-15.695C525.949,157.244,533.511,150.828,541.645,150.828z
		 M541.701,153.692c-6.701,0-12.888,5.27-12.888,13.117c0,6.702,5.27,12.888,13.117,12.888c3.896,0,7.618-1.775,10.024-4.812
		v-16.382C549.664,155.64,546.055,153.692,541.701,153.692z"/>
	<path fill="#363830" d="M578.767,176.318l11.914-25.49l2.578,1.203l-14.492,31.046l-14.492-31.046l2.577-1.203L578.767,176.318z"/>
	<path fill="#363830" d="M615.486,150.828c9.623,0,16.039,7.561,16.039,15.695c0,9.623-7.562,16.039-15.695,16.039
		c-9.624,0-16.039-7.561-16.039-15.695C599.791,157.244,607.353,150.828,615.486,150.828z M615.543,153.692
		c-6.701,0-12.888,5.27-12.888,13.117c0,6.702,5.27,12.888,13.117,12.888c6.702,0,12.889-5.27,12.889-13.117
		C628.661,159.878,623.391,153.692,615.543,153.692z"/>
	<path fill="#363830" d="M658.508,150.828c0,1.146,0,1.317,0,2.864c-7.904,0-13.231,6.186-13.231,12.888v15.237h-2.864v-30.016
		h2.864v7.619C646.078,155.754,652.723,150.828,658.508,150.828z"/>
	<path fill="#363830" d="M670.424,141.376c1.489,0,2.75,1.26,2.75,2.75s-1.261,2.75-2.75,2.75s-2.749-1.26-2.749-2.75
		S668.935,141.376,670.424,141.376z M669.049,181.817v-30.016h2.864v30.016H669.049z"/>
	<path fill="#363830" d="M686.924,172.022v-17.356h-2.864v-2.864h2.864v-8.478h2.864v8.478h13.518v2.864h-13.518v17.299
		c0,3.781,2.979,7.619,7.847,7.619c1.375,0,2.75-0.401,3.953-1.088l1.432,2.463c-1.604,0.974-3.494,1.489-5.327,1.489
		C690.99,182.447,686.924,177.178,686.924,172.022z"/>
	<path fill="#363830" d="M726.794,179.698c2.291,0,4.582-0.63,6.53-1.775l1.432,2.463c-2.406,1.432-5.155,2.177-7.962,2.177
		c-9.624,0-16.039-7.561-16.039-15.695c0-9.623,7.618-16.039,15.752-16.039c7.676,0,13.347,4.812,15.295,11.055l-28.183,4.926
		C713.619,173.512,718.889,179.698,726.794,179.698z M737.677,159.707c-2.233-3.551-6.187-6.014-11.17-6.014
		c-5.785,0-11.227,3.952-12.544,10.196L737.677,159.707z"/>
</g>
<g id="fillhello">
	<path fill="#67A2C8" d="M383.423,965.226c-45.08,34.717-118.14,57.516-176.692,76.169c-7.254,19.69-13.99,59.588-17.617,82.905
		c12.436-19.172,26.426-34.717,43.007-56.997c3.109-13.473,25.39-34.198,21.245-9.845c-3.109,19.689-6.218,41.452-6.218,55.961
		c0,30.571,6.218,41.971,27.98,25.907c15.026-10.881,29.017-31.089,31.607-33.68c1.555-1.555,2.591,3.108,2.591,3.108
		c-1.554,4.146-43.007,63.216-70.469,49.226c-20.208-9.845-10.363-74.615-9.845-75.133c0-2.591-25.908,31.089-40.935,50.261
		c-1.554,22.281-18.653,31.09-18.653,25.908c-1.037-19.69,11.399-92.232,19.172-112.44c-11.918,3.109-16.581,7.772-17.1,12.954
		c-1.036,7.254-6.218,8.29-5.7,0c0.519-11.399,16.063-19.172,26.426-22.281c16.581-54.406,52.334-120.212,96.896-153.893
		c15.026-11.918,32.126-19.689,48.707-23.317c29.017-6.218,60.106,4.664,71.505,33.681
		C419.176,920.146,407.259,947.09,383.423,965.226z M335.753,875.584c-84.46,16.581-105.186,99.486-126.949,157.002
		c44.562-12.436,135.239-53.889,170.992-80.832c16.063-12.437,32.644-32.126,24.872-52.334
		C394.823,873.512,359.07,870.921,335.753,875.584z"/>
	<path fill="#67A2C8" d="M307.248,1155.907c-7.254-6.735-13.472-23.835-9.845-46.634c3.627-19.172,17.099-48.188,35.753-66.324
		c14.508-13.99,34.716-17.1,52.852-5.7c15.544,9.846,10.363,30.571-1.555,47.153h10.363c8.809,0-4.664,4.663-16.063,7.254
		c-3.109,3.627-6.736,7.254-10.363,9.845c-9.845,7.254-9.327,1.555-5.182-2.591l5.182-5.699
		c-20.726,1.554-26.944,0.518-44.562,3.627c-3.109,7.772-5.182,17.099-5.7,26.944c-1.554,26.944,16.063,33.68,29.535,31.607
		c27.462-4.663,54.406-27.98,64.251-38.344c3.109-3.109,7.254-1.036,1.555,5.699C395.335,1143.99,336.783,1182.852,307.248,1155.907
		z M351.292,1057.458c-6.736,6.218-15.545,15.544-22.281,28.498c19.172-0.518,29.535-1.036,44.562-1.036
		c3.627-7.254,6.736-14.509,7.772-18.653C388.599,1034.658,364.246,1044.504,351.292,1057.458z"/>
	<path fill="#67A2C8" d="M447.146,1065.23c-7.772,27.462-18.653,75.133-5.699,84.459c12.436,8.809,48.707-8.29,63.733-27.98
		c9.845-12.436,7.254,2.073,3.627,6.736c-10.882,13.99-51.298,37.308-69.951,32.644c-17.1-4.145-26.944-20.726-15.545-73.578
		c-7.254,1.555-8.291-4.146,4.145-17.1c13.472-55.961,36.79-134.202,81.87-172.028c18.135-15.026,41.452-12.436,40.934,9.327
		C549.223,965.744,486.525,1026.368,447.146,1065.23z M515.024,911.337c-21.244,24.872-55.442,105.187-66.324,142.493
		c26.944-25.39,92.75-101.559,93.787-143.011C543.005,888.02,526.942,896.829,515.024,911.337z"/>
	<path fill="#67A2C8" d="M533.152,1065.23c-7.772,27.462-18.653,75.133-5.699,84.459c12.436,8.809,48.707-8.29,63.733-27.98
		c9.845-12.436,7.254,2.073,3.627,6.736c-10.882,13.99-51.298,37.308-69.951,32.644c-17.1-4.145-26.944-20.726-15.545-73.578
		c-7.254,1.555-8.291-4.146,4.146-17.1c13.472-55.961,36.789-134.202,81.869-172.028c18.135-15.026,41.452-12.436,40.934,9.327
		C635.229,965.744,572.532,1026.368,533.152,1065.23z M601.031,911.337c-21.244,24.872-55.442,105.187-66.324,142.493
		c26.944-25.39,92.75-101.559,93.787-143.011C629.012,888.02,612.949,896.829,601.031,911.337z"/>
	<path fill="#67A2C8" d="M723.826,1070.411c-13.472,6.736-34.198,7.255-42.488,3.628c1.036,9.845-6.219,35.234-18.654,56.479
		c-38.344,67.361-89.123,26.944-66.842-38.344c7.254-22.28,23.835-58.552,47.152-60.624c9.845-11.399,38.344,5.699,40.416,25.39
		c11.918,13.99,29.535,6.218,44.562,6.218C730.563,1063.157,729.526,1067.303,723.826,1070.411z M648.693,1049.167
		c-12.436,3.109-27.98,32.645-35.234,59.588c-13.473,50.262,13.472,62.18,38.861,21.763c12.437-19.689,20.208-50.779,18.654-59.069
		C648.693,1067.82,648.693,1049.167,648.693,1049.167z"/>
</g>
</svg>
