<?xml version="1.0" encoding="utf-8"?>
<!-- Generator: Adobe Illustrator 14.0.0, SVG Export Plug-In . SVG Version: 6.00 Build 43363)  -->
<!DOCTYPE svg PUBLIC "-//W3C//DTD SVG 1.1//EN" "http://www.w3.org/Graphics/SVG/1.1/DTD/svg11.dtd">
<svg version="1.1" id="Layer_1" xmlns="http://www.w3.org/2000/svg" xmlns:xlink="http://www.w3.org/1999/xlink" x="0px" y="0px"
	 width="576px" height="720px" viewBox="0 0 576 720" enable-background="new 0 0 576 720" xml:space="preserve">
<rect id="photo" fill="#D0D2D3" width="576" height="720"/>
<g id="fill-you-are-my">
	<path fill="#808184" d="M127.315,588.633c4.059-0.883,5.647-2.294,6-4.234c0.53-2.294,2.471-2.647,2.117,0.176
		c-0.529,3.882-5.822,6.353-9.528,7.234c-6.529,18.175-19.939,39.878-35.643,50.642c-5.47,3.705-11.293,5.999-16.939,6.881
		c-10.058,1.589-20.292-2.471-23.644-12.704c-3-9.176,1.412-18.174,9.881-23.997c16.057-10.764,41.29-17.292,61.582-22.586
		c2.646-6.705,5.47-24.173,7.058-31.937c-4.588,8.292-9.176,15.351-15.352,22.585c-1.235,4.587-9.175,11.293-7.411,2.999
		c1.412-6.176,7.234-32.29-5.117-24.35c-2.117,1.412-2.646-0.354-0.353-2.117c3.705-2.823,7.764-4.412,10.939-2.646
		c5.646,3.176,2.294,21.174,2.118,21.351c0,0.882,10.94-14.116,15.704-20.822c1.059-7.587,7.234-6.176,7.234-4.41
		C135.961,557.4,130.315,581.928,127.315,588.633z M60.617,617.57c-5.646,3.705-11.646,10.234-9.352,17.292
		c3,8.823,14.999,10.41,23.115,9.352c28.938-4.058,37.407-31.937,45.877-51.347C104.906,596.396,73.321,608.924,60.617,617.57z"/>
	<path fill="#808184" d="M189.247,557.225c-4.588,2.294-11.646,2.47-14.469,1.235c0.353,3.353-2.118,11.999-6.353,19.232
		c-13.057,22.939-30.349,9.176-22.762-13.057c2.47-7.588,8.117-19.939,16.057-20.646c3.353-3.882,13.058,1.941,13.763,8.646
		c4.059,4.764,10.058,2.117,15.175,2.117C191.541,554.754,191.188,556.166,189.247,557.225z M163.661,549.99
		c-4.234,1.059-9.528,11.116-11.999,20.291c-4.587,17.116,4.588,21.174,13.234,7.411c4.235-6.705,6.881-17.292,6.352-20.115
		C163.661,556.342,163.661,549.99,163.661,549.99z"/>
	<path fill="#808184" d="M218.534,587.397c-7.234-2.471-7.587-20.292-7.411-20.468c0-0.53-11.999,22.231-19.938,21.174
		c-11.999-1.765-6.353-22.763,6.176-41.643c1.764-2.823,11.469-1.059,9.704,0.706c-6.175,6.176-13.233,20.291-15.88,27.702
		c-2.823,8.116-0.706,13.411,7.587,5.47c3.882-3.705,9.881-13.409,14.116-19.585c2.823-4.059,5.823-5.647,5.47,0.353
		c-0.176,7.234-1.059,28.938,11.646,21.879c4.764-2.646,8.646-7.41,9.352-8.116c0.529-0.353,1.059,0.706,1.059,0.706
		C240.061,576.634,228.415,590.574,218.534,587.397z"/>
	<path fill="#808184" d="M297.755,587.397c-7.234-2.471-6.528-17.821-6.528-17.998c0-0.529-10.94,19.762-18.88,18.704
		c-11.822-1.765-3.529-25.586,9.705-38.113c6.881-6.353,14.999-9.705,22.585-5.822c4.411,2.47,3.706,9.175-0.354,9.88
		c3.882-6.881-3.528-10.939-12.527-3.176c-7.058,6-14.646,16.586-17.821,24.174c-3.353,8.646-2.118,13.234,5.999,5.293
		c3.882-3.705,8.823-10.939,13.058-17.115c3-4.059,5.823-5.646,5.646,0.177c-0.353,4.765-0.53,9.881,0,13.41
		c1.411,7.234,3.882,9.881,10.587,6.175c4.764-2.646,8.646-7.41,9.352-8.116c0.529-0.353,1.235,0.706,1.235,0.706
		C319.282,576.634,307.637,590.574,297.755,587.397z"/>
	<path fill="#808184" d="M324.574,566.047c-4.588,7.059-7.764,16.763-8.822,20.292c-0.529,2.117-3.529,1.588-3.177-0.353
		c1.588-6.529,4.412-31.938,4.588-36.702c0.354-4.588,10.587-6.705,9.176-2.117c-0.883,2.646-4.411,17.116-5.646,19.763
		c5.294-9.176,16.057-21.527,20.997-21.351c7.588,0,7.588,13.409,4.765,7.939C342.22,545.049,332.162,554.401,324.574,566.047z"/>
	<path fill="#808184" d="M347.862,586.339c-2.471-2.294-4.587-8.116-3.352-15.88c1.234-6.529,5.822-16.411,12.174-22.586
		c4.94-4.765,11.823-5.823,17.999-1.941c5.293,3.353,3.529,10.41-0.53,16.058h3.529c2.999,0-1.588,1.587-5.47,2.47
		c-1.059,1.235-2.294,2.471-3.529,3.353c-3.353,2.47-3.177,0.529-1.764-0.882l1.764-1.941c-7.059,0.529-9.175,0.176-15.175,1.235
		c-1.059,2.646-1.765,5.823-1.941,9.175c-0.528,9.176,5.471,11.47,10.058,10.764c9.353-1.588,18.528-9.528,21.881-13.057
		c1.059-1.059,2.47-0.354,0.529,1.94C377.859,582.28,357.92,595.514,347.862,586.339z M362.86,552.813
		c-2.294,2.118-5.293,5.295-7.587,9.705c6.528-0.176,10.058-0.353,15.175-0.353c1.235-2.471,2.294-4.94,2.646-6.353
		C375.564,545.049,367.272,548.402,362.86,552.813z"/>
	<path fill="#808184" d="M469.079,587.221c-8.293-3.705-5.999-17.292-4.234-27.526c-2.823,3-10.764,11.47-15.527,17.998
		c-0.177,7.587-10.234,12.176-9.705,10.411c2.118-6.529,5.117-27.174,5.117-33.702c-4.588,6.176-19.939,25.232-21.703,30.35
		c-1.941,5.117-8.47,7.234-7.587,3.882c0.881-3.882,6.704-24.174,5.293-36.701c-0.53-5.294,11.116-8.999,8.999-3.529
		c-2.294,5.646-4.588,28.055-5.47,29.467c5.293-4.764,12.352-15.352,17.292-23.644c3.705-6,9.352-10.411,9.352,2.116
		c0,6.353-0.706,13.939-1.411,18.175c5.469-6.528,10.41-11.469,16.586-20.291c1.411-5.118,9.175-12.353,7.587-3.354
		c-1.235,7.059-2.646,14.999-3.353,20.468c-1.235,10.94,4.411,14.822,13.41,8.999c6.176-3.882,11.822-11.293,12.704-12.174
		c0.883-0.53,1.235,1.059,1.235,1.059C496.959,570.635,480.195,592.338,469.079,587.221z"/>
	<path fill="#808184" d="M515.307,588.633c4.059-0.883,5.646-2.294,6-4.234c0.528-2.294,2.47-2.647,2.116,0.176
		c-0.528,3.882-5.822,6.353-9.527,7.234c-6.529,18.175-19.939,39.878-35.644,50.642c-5.47,3.705-11.293,5.999-16.938,6.881
		c-10.058,1.589-20.292-2.471-23.645-12.704c-3-9.176,1.411-18.174,9.881-23.997c16.058-10.764,41.29-17.292,61.581-22.586
		c2.646-6.705,5.47-24.173,7.058-31.937c-4.587,8.292-9.175,15.351-15.351,22.585c-1.235,4.587-9.176,11.293-7.411,2.999
		c1.411-6.176,7.234-32.29-5.117-24.35c-2.117,1.412-2.646-0.354-0.353-2.117c3.705-2.823,7.764-4.412,10.94-2.646
		c5.646,3.176,2.294,21.174,2.116,21.351c0,0.882,10.94-14.116,15.705-20.822c1.059-7.587,7.234-6.176,7.234-4.41
		C523.953,557.4,518.307,581.928,515.307,588.633z M448.609,617.57c-5.647,3.705-11.646,10.234-9.353,17.292
		c3,8.823,14.998,10.41,23.115,9.352c28.938-4.058,37.406-31.937,45.877-51.347C492.897,596.396,461.313,608.924,448.609,617.57z"/>
</g>
<g id="fill-home">
	<path fill="#404041" d="M101.383,690.261c0.751,0,1.189,0.125,1.627,0.188c0.313,0.063,0.75,0.125,1.439,0.125
		c4.317,0,6.132-3.003,6.132-16.957v-44.179c0-14.268-1.815-16.958-6.132-16.958c-0.688,0-1.126,0.063-1.439,0.063
		c-0.438,0.063-0.876,0.188-1.627,0.188c-1.376,0-2.252-0.688-2.252-1.814c0-1.377,1.001-2.316,4.067-2.316
		c1.689,0,3.191,0.188,4.756,0.501c2.065,0.313,5.444,0.501,7.634,0.501c2.19,0,5.381-0.188,7.384-0.501
		c1.564-0.313,3.128-0.501,4.818-0.501c3.004,0,4.005,0.939,4.005,2.316c0,1.126-0.876,1.814-2.252,1.814
		c-0.688,0-1.189-0.126-1.627-0.188c-0.313,0-0.688-0.063-1.377-0.063c-4.38,0-6.132,3.004-6.132,16.958v14.205h44.24v-14.205
		c0-14.268-1.815-16.958-6.132-16.958c-0.688,0-1.126,0.063-1.439,0.063c-0.438,0.063-0.876,0.188-1.627,0.188
		c-1.376,0-2.252-0.688-2.252-1.814c0-1.377,1.001-2.316,4.067-2.316c1.689,0,3.191,0.188,4.756,0.501
		c2.065,0.313,5.443,0.501,7.634,0.501c2.19,0,5.382-0.188,7.384-0.501c1.564-0.313,3.128-0.501,4.818-0.501
		c3.003,0,4.005,0.939,4.005,2.316c0,1.126-0.876,1.814-2.253,1.814c-0.688,0-1.188-0.126-1.626-0.188
		c-0.313,0-0.688-0.063-1.377-0.063c-4.38,0-6.132,3.004-6.132,16.958v44.179c0,14.017,1.752,16.957,6.132,16.957
		c0.688,0,1.064-0.063,1.377-0.125c0.438-0.063,0.938-0.188,1.626-0.188c1.377,0,2.253,0.688,2.253,1.814
		c0,1.439-1.001,2.315-4.005,2.315c-1.689,0-3.254-0.188-4.818-0.438c-2.566-0.438-5.194-0.5-6.696-0.5
		c-3.066,0-4.943,0.063-7.259,0.375c-2.628,0.313-4.13,0.563-5.819,0.563c-3.066,0-4.067-0.876-4.067-2.315
		c0-1.126,0.876-1.814,2.252-1.814c0.751,0,1.189,0.125,1.627,0.188c0.313,0.063,0.75,0.125,1.439,0.125
		c4.317,0,6.132-3.003,6.132-16.957v-24.029h-44.24v24.029c0,14.017,1.751,16.957,6.132,16.957c0.688,0,1.064-0.063,1.377-0.125
		c0.438-0.063,0.938-0.188,1.627-0.188c1.376,0,2.252,0.688,2.252,1.814c0,1.439-1.001,2.315-4.005,2.315
		c-1.689,0-3.254-0.188-4.818-0.438c-2.565-0.438-5.194-0.5-6.696-0.5c-3.066,0-4.943,0.063-7.258,0.375
		c-2.628,0.313-4.13,0.563-5.82,0.563c-3.066,0-4.067-0.876-4.067-2.315C99.13,690.949,100.007,690.261,101.383,690.261z"/>
	<path fill="#404041" d="M240.236,608.037c25.593,0,42.801,18.835,42.801,44.178c0,23.841-18.021,42.802-43.865,42.802
		c-25.28,0-42.801-18.961-42.801-43.803C196.371,625.745,216.708,608.037,240.236,608.037z M243.677,689.822
		c16.145,0,28.347-13.203,28.347-34.291c0-24.654-14.768-42.301-34.542-42.301c-16.019,0-30.412,13.829-30.412,33.478
		C207.071,670.549,222.026,689.822,243.677,689.822z"/>
	<path fill="#404041" d="M295.988,689.947c4.067-0.063,8.636-0.751,9.324-9.136c0.563-6.883,2.503-45.992,2.503-58.945
		c0-6.07-2.315-8.01-5.757-8.511c-4.381-0.625-5.632-1.251-5.632-2.377c0-1.377,1.127-2.379,2.815-2.379
		c4.13,0,6.32,0.877,9.824,0.877c3.505,0,4.005-0.251,5.507-0.251c2.003,0,3.129,1.753,4.756,5.069l30.286,62.763
		c5.632-13.079,27.158-62.701,27.909-64.702c0.876-2.253,2.565-3.442,4.692-3.442c2.128,0,4.38,0.25,5.882,0.25
		c2.879,0,5.257-0.563,7.51-0.563c3.441,0,4.693,0.939,4.693,2.316c0,1.188-0.877,1.501-3.567,1.814
		c-3.816,0.5-7.885,1.688-7.572,7.133l3.192,60.698c0.438,8.448,5.068,9.323,9.136,9.386c1.627,0.063,2.69,0.813,2.69,2.253
		c0,1.377-1.689,2.19-3.942,2.19c-2.002,0-3.253-0.25-4.692-0.438c-1.502-0.25-3.442-0.5-6.384-0.5
		c-1.563,0-3.629,0.125-5.568,0.438c-2.19,0.313-5.632,0.501-7.76,0.501c-3.003,0-4.067-0.876-4.067-2.315
		c0-1.126,0.938-1.939,3.441-1.939c4.443,0,5.82-1.252,6.384-3.692c0.25-0.938,0.25-2.815,0.25-5.319v-5.882
		c0-4.693-1.878-42.551-2.44-53.688l-29.599,67.831c-1.188,2.628-2.127,3.692-2.94,3.692c-1.188,0-1.753-1.127-3.066-3.818
		l-30.286-62.387c-1.251,16.771-2.378,49.998-2.378,58.257c0,3.255,2.69,5.132,8.322,5.132c1.314,0,2.253,0.688,2.253,1.814
		c0,1.439-1.063,2.315-4.067,2.315c-2.127,0-4.317-0.188-6.508-0.501c-1.94-0.313-2.315-0.438-3.629-0.438
		c-3.192,0-4.005,0.25-5.507,0.5c-1.502,0.188-2.754,0.438-4.693,0.438c-2.315,0-3.942-0.813-3.942-2.19
		C293.36,690.761,294.361,690.01,295.988,689.947z M381.341,617.173l-0.063,0.063L381.341,617.173z"/>
	<path fill="#404041" d="M414.567,690.261c0.75,0,1.188,0.125,1.626,0.188c0.313,0.063,0.752,0.125,1.439,0.125
		c4.443,0,6.133-2.314,6.133-16.771v-44.365c0-13.954-1.314-16.958-6.133-16.958c-0.688,0-1.126,0.063-1.439,0.063
		c-0.438,0.063-0.876,0.188-1.626,0.188c-1.377,0-2.253-0.688-2.253-1.814c0-1.377,1.001-2.316,4.067-2.316
		c3.003,0,5.444,0.188,7.884,0.438c3.254,0.313,6.759,0.563,11.452,0.563c2.628,0,8.823-0.25,14.454-0.438
		c5.193-0.25,14.268-0.563,19.836-0.563c2.379,0,2.879,0.563,2.879,2.754c0,0.751-0.25,5.256-0.438,7.07
		c-0.501,4.256-0.939,5.132-2.19,5.132c-0.876,0-1.188-0.501-1.689-1.877c-0.938-2.629-2.002-3.943-4.943-4.943
		c-3.63-1.189-10.138-2.19-22.152-2.19h-5.568c-2.002,0-2.315,0.376-2.315,2.44v26.344c5.632,0.626,8.135,0.876,14.017,0.876
		c8.823,0,10.889-0.25,12.328-2.565c1.501-2.44,2.439-3.379,3.44-3.379c0.876,0,1.69,0.501,1.69,1.752
		c0,0.751-0.501,2.128-1.002,3.63c-0.75,2.189-1.188,4.067-1.188,5.256c0,0.751,0.063,1.564,0.125,2.378
		c0.063,0.751,0.125,1.502,0.125,2.378c0,3.441-0.813,4.506-2.127,4.506c-1.252,0-1.814-0.939-1.814-2.879
		c0-2.878-0.376-4.38-2.19-5.068c-1.314-0.438-5.382-0.939-10.764-0.939c-2.69,0-9.574,0.313-12.64,0.688v14.831
		c0,9.136,0.188,16.832,0.626,22.84c4.38,1.063,9.136,1.126,11.389,1.126c11.389,0,17.896-0.813,22.464-4.192
		c1.127-0.751,2.628-2.629,3.567-4.317c0.938-1.69,1.438-2.253,2.439-2.253c1.127,0,1.314,1.063,1.314,1.814
		c0,0.438-0.188,1.313-0.563,2.378c-0.313,1.063-0.875,2.628-1.563,5.193c-1.753,6.445-2.128,7.321-6.195,7.321
		c-6.758,0-13.517-0.188-23.528-0.751c-5.131-0.313-9.699-0.5-13.517-0.5c-3.879,0-6.82,0.188-8.885,0.5
		c-1.252,0.188-3.755,0.438-5.382,0.438c-2.44,0-3.441-0.876-3.441-2.315C412.314,690.949,413.19,690.261,414.567,690.261z"/>
</g>
</svg>
