<?xml version="1.0" encoding="utf-8"?>
<!-- Generator: Adobe Illustrator 14.0.0, SVG Export Plug-In . SVG Version: 6.00 Build 43363)  -->
<!DOCTYPE svg PUBLIC "-//W3C//DTD SVG 1.1//EN" "http://www.w3.org/Graphics/SVG/1.1/DTD/svg11.dtd">
<svg version="1.1" id="Layer_1" xmlns="http://www.w3.org/2000/svg" xmlns:xlink="http://www.w3.org/1999/xlink" x="0px" y="0px"
	 width="864px" height="1296px" viewBox="0 0 864 1296" enable-background="new 0 0 864 1296" xml:space="preserve">
<rect id="photo" fill="#D0D2D3" width="864" height="1296"/>
<g id="fill-you-are-my">
	<path fill="#808184" d="M229.547,1088.201c5.125-1.114,7.13-2.896,7.575-5.347c0.668-2.896,3.119-3.343,2.673,0.223
		c-0.668,4.901-7.352,8.021-12.031,9.135c-8.243,22.947-25.176,50.351-45.004,63.941c-6.906,4.679-14.259,7.575-21.388,8.688
		c-12.699,2.006-25.621-3.119-29.854-16.041c-3.788-11.585,1.782-22.947,12.476-30.3c20.274-13.59,52.134-21.834,77.755-28.518
		c3.342-8.466,6.906-30.522,8.912-40.325c-5.792,10.471-11.585,19.383-19.383,28.518c-1.56,5.792-11.585,14.259-9.357,3.787
		c1.782-7.798,9.134-40.771-6.461-30.745c-2.673,1.782-3.342-0.446-0.445-2.674c4.679-3.564,9.803-5.57,13.813-3.342
		c7.129,4.01,2.896,26.735,2.674,26.958c0,1.114,13.813-17.823,19.829-26.29c1.336-9.58,9.134-7.798,9.134-5.569
		C240.464,1048.767,233.334,1079.735,229.547,1088.201z M145.331,1124.739c-7.129,4.679-14.704,12.922-11.808,21.834
		c3.788,11.14,18.938,13.145,29.186,11.808c36.538-5.124,47.232-40.325,57.926-64.833
		C201.252,1098.004,161.372,1113.822,145.331,1124.739z"/>
	<path fill="#808184" d="M307.744,1048.544c-5.792,2.896-14.704,3.119-18.269,1.56c0.446,4.233-2.673,15.15-8.021,24.284
		c-16.487,28.964-38.32,11.586-28.74-16.486c3.119-9.58,10.249-25.176,20.274-26.067c4.233-4.901,16.487,2.451,17.378,10.917
		c5.125,6.016,12.699,2.674,19.16,2.674C310.641,1045.425,310.195,1047.207,307.744,1048.544z M275.439,1039.409
		c-5.347,1.337-12.031,14.036-15.15,25.621c-5.792,21.611,5.793,26.735,16.709,9.357c5.347-8.466,8.689-21.834,8.021-25.398
		C275.439,1047.43,275.439,1039.409,275.439,1039.409z"/>
	<path fill="#808184" d="M344.724,1086.642c-9.135-3.119-9.58-25.621-9.357-25.844c0-0.669-15.15,28.071-25.176,26.735
		c-15.15-2.229-8.021-28.741,7.798-52.58c2.228-3.564,14.481-1.336,12.253,0.892c-7.797,7.798-16.709,25.621-20.051,34.979
		c-3.564,10.248-0.891,16.933,9.58,6.906c4.901-4.679,12.477-16.932,17.824-24.729c3.564-5.124,7.352-7.13,6.906,0.445
		c-0.223,9.135-1.336,36.538,14.705,27.626c6.016-3.342,10.917-9.356,11.808-10.248c0.668-0.445,1.337,0.892,1.337,0.892
		C371.905,1073.051,357.2,1090.652,344.724,1086.642z"/>
	<path fill="#808184" d="M444.752,1086.642c-9.135-3.119-8.243-22.502-8.243-22.725c0-0.669-13.813,24.952-23.839,23.616
		c-14.927-2.229-4.456-32.306,12.253-48.124c8.689-8.021,18.938-12.254,28.518-7.352c5.569,3.119,4.679,11.585-0.446,12.476
		c4.901-8.688-4.455-13.813-15.818-4.01c-8.912,7.575-18.492,20.942-22.502,30.522c-4.233,10.917-2.673,16.71,7.575,6.684
		c4.901-4.679,11.14-13.813,16.486-21.61c3.788-5.125,7.353-7.13,7.13,0.223c-0.445,6.016-0.669,12.477,0,16.933
		c1.782,9.134,4.901,12.476,13.367,7.797c6.016-3.342,10.917-9.356,11.809-10.248c0.668-0.445,1.56,0.892,1.56,0.892
		C471.933,1073.051,457.229,1090.652,444.752,1086.642z"/>
	<path fill="#808184" d="M478.615,1059.684c-5.793,8.912-9.804,21.165-11.14,25.621c-0.669,2.674-4.456,2.005-4.011-0.445
		c2.005-8.243,5.57-40.326,5.793-46.341c0.445-5.793,13.367-8.467,11.585-2.674c-1.114,3.342-5.569,21.611-7.129,24.953
		c6.684-11.586,20.273-27.181,26.512-26.958c9.58,0,9.58,16.932,6.016,10.025C500.895,1033.171,488.195,1044.979,478.615,1059.684z"
		/>
	<path fill="#808184" d="M508.02,1085.305c-3.119-2.896-5.792-10.248-4.232-20.051c1.56-8.244,7.352-20.721,15.372-28.518
		c6.238-6.016,14.928-7.353,22.726-2.451c6.684,4.233,4.456,13.145-0.669,20.274h4.456c3.787,0-2.005,2.005-6.906,3.119
		c-1.337,1.56-2.896,3.119-4.456,4.232c-4.233,3.119-4.011,0.669-2.228-1.113l2.228-2.451c-8.912,0.669-11.585,0.223-19.16,1.56
		c-1.337,3.342-2.229,7.353-2.451,11.585c-0.668,11.586,6.907,14.482,12.699,13.591c11.809-2.005,23.394-12.031,27.627-16.486
		c1.337-1.337,3.119-0.446,0.668,2.45C545.895,1080.181,520.719,1096.89,508.02,1085.305z M526.957,1042.974
		c-2.896,2.674-6.684,6.685-9.58,12.254c8.243-0.223,12.699-0.445,19.16-0.445c1.56-3.119,2.896-6.238,3.342-8.021
		C542.998,1033.171,532.527,1037.404,526.957,1042.974z"/>
	<path fill="#808184" d="M661.073,1086.419c-10.471-4.679-7.574-21.834-5.347-34.756c-3.564,3.787-13.591,14.481-19.605,22.725
		c-0.223,9.58-12.922,15.373-12.254,13.146c2.674-8.244,6.461-34.311,6.461-42.554c-5.793,7.798-25.176,31.859-27.403,38.32
		c-2.451,6.461-10.694,9.135-9.58,4.901c1.113-4.901,8.466-30.522,6.684-46.341c-0.669-6.684,14.036-11.362,11.362-4.456
		c-2.896,7.129-5.793,35.424-6.906,37.206c6.684-6.015,15.596-19.383,21.834-29.854c4.678-7.575,11.808-13.146,11.808,2.673
		c0,8.021-0.892,17.601-1.782,22.948c6.906-8.243,13.145-14.481,20.942-25.621c1.782-6.462,11.585-15.596,9.58-4.233
		c-1.56,8.912-3.342,18.938-4.233,25.844c-1.56,13.813,5.57,18.715,16.933,11.362c7.798-4.901,14.928-14.259,16.041-15.372
		c1.114-0.669,1.56,1.337,1.56,1.337C696.275,1065.477,675.109,1092.88,661.073,1086.419z"/>
	<path fill="#808184" d="M719.442,1088.201c5.124-1.114,7.129-2.896,7.575-5.347c0.668-2.896,3.119-3.343,2.673,0.223
		c-0.668,4.901-7.352,8.021-12.03,9.135c-8.244,22.947-25.176,50.351-45.005,63.941c-6.906,4.679-14.259,7.575-21.388,8.688
		c-12.699,2.006-25.621-3.119-29.854-16.041c-3.788-11.585,1.782-22.947,12.477-30.3c20.274-13.59,52.134-21.834,77.755-28.518
		c3.342-8.466,6.906-30.522,8.911-40.325c-5.792,10.471-11.585,19.383-19.383,28.518c-1.56,5.792-11.585,14.259-9.357,3.787
		c1.782-7.798,9.135-40.771-6.461-30.745c-2.673,1.782-3.342-0.446-0.445-2.674c4.679-3.564,9.803-5.57,13.813-3.342
		c7.129,4.01,2.896,26.735,2.673,26.958c0,1.114,13.813-17.823,19.829-26.29c1.337-9.58,9.135-7.798,9.135-5.569
		C730.359,1048.767,723.229,1079.735,719.442,1088.201z M635.227,1124.739c-7.13,4.679-14.705,12.922-11.809,21.834
		c3.788,11.14,18.938,13.145,29.187,11.808c36.538-5.124,47.231-40.325,57.926-64.833
		C691.147,1098.004,651.268,1113.822,635.227,1124.739z"/>
</g>
<g id="fill-home">
	<path fill="#404041" d="M196.804,1216.521c0.948,0,1.501,0.158,2.055,0.236c0.395,0.079,0.948,0.158,1.817,0.158
		c5.452,0,7.743-3.792,7.743-21.411v-55.781c0-18.015-2.292-21.412-7.743-21.412c-0.869,0-1.422,0.079-1.817,0.079
		c-0.553,0.079-1.106,0.237-2.055,0.237c-1.738,0-2.844-0.869-2.844-2.291c0-1.738,1.264-2.924,5.136-2.924
		c2.133,0,4.03,0.237,6.005,0.632c2.607,0.396,6.874,0.633,9.639,0.633c2.765,0,6.795-0.237,9.323-0.633
		c1.975-0.395,3.95-0.632,6.083-0.632c3.792,0,5.057,1.186,5.057,2.924c0,1.422-1.106,2.291-2.844,2.291
		c-0.869,0-1.501-0.158-2.054-0.237c-0.395,0-0.869-0.079-1.738-0.079c-5.531,0-7.743,3.793-7.743,21.412v17.936h55.86v-17.936
		c0-18.015-2.292-21.412-7.743-21.412c-0.869,0-1.422,0.079-1.817,0.079c-0.553,0.079-1.106,0.237-2.055,0.237
		c-1.738,0-2.844-0.869-2.844-2.291c0-1.738,1.264-2.924,5.136-2.924c2.133,0,4.03,0.237,6.005,0.632
		c2.607,0.396,6.874,0.633,9.639,0.633c2.765,0,6.795-0.237,9.323-0.633c1.975-0.395,3.95-0.632,6.083-0.632
		c3.792,0,5.057,1.186,5.057,2.924c0,1.422-1.106,2.291-2.844,2.291c-0.869,0-1.501-0.158-2.054-0.237
		c-0.395,0-0.869-0.079-1.738-0.079c-5.531,0-7.743,3.793-7.743,21.412v55.781c0,17.698,2.212,21.411,7.743,21.411
		c0.869,0,1.343-0.079,1.738-0.158c0.553-0.078,1.185-0.236,2.054-0.236c1.738,0,2.844,0.869,2.844,2.291
		c0,1.817-1.264,2.924-5.057,2.924c-2.133,0-4.108-0.237-6.083-0.554c-3.239-0.553-6.558-0.632-8.454-0.632
		c-3.872,0-6.242,0.079-9.165,0.474c-3.318,0.396-5.215,0.712-7.348,0.712c-3.872,0-5.136-1.106-5.136-2.924
		c0-1.422,1.106-2.291,2.844-2.291c0.948,0,1.501,0.158,2.055,0.236c0.395,0.079,0.948,0.158,1.817,0.158
		c5.452,0,7.743-3.792,7.743-21.411v-30.34h-55.86v30.34c0,17.698,2.212,21.411,7.743,21.411c0.869,0,1.343-0.079,1.738-0.158
		c0.553-0.078,1.185-0.236,2.054-0.236c1.738,0,2.844,0.869,2.844,2.291c0,1.817-1.264,2.924-5.057,2.924
		c-2.133,0-4.108-0.237-6.083-0.554c-3.239-0.553-6.558-0.632-8.454-0.632c-3.872,0-6.242,0.079-9.165,0.474
		c-3.318,0.396-5.215,0.712-7.348,0.712c-3.872,0-5.136-1.106-5.136-2.924C193.959,1217.391,195.066,1216.521,196.804,1216.521z"/>
	<path fill="#404041" d="M372.125,1112.702c32.315,0,54.043,23.782,54.043,55.781c0,30.103-22.755,54.043-55.386,54.043
		c-31.92,0-54.043-23.94-54.043-55.308C316.739,1135.062,342.417,1112.702,372.125,1112.702z M376.471,1215.968
		c20.385,0,35.792-16.671,35.792-43.297c0-31.13-18.646-53.411-43.614-53.411c-20.227,0-38.399,17.461-38.399,42.271
		C330.25,1191.633,349.133,1215.968,376.471,1215.968z"/>
	<path fill="#404041" d="M442.521,1216.126c5.136-0.079,10.903-0.948,11.772-11.535c0.711-8.691,3.16-58.072,3.16-74.428
		c0-7.664-2.923-10.113-7.269-10.745c-5.531-0.79-7.111-1.58-7.111-3.002c0-1.738,1.423-3.003,3.556-3.003
		c5.215,0,7.98,1.106,12.404,1.106c4.425,0,5.057-0.316,6.953-0.316c2.528,0,3.95,2.213,6.005,6.4l38.241,79.247
		c7.11-16.514,34.29-79.169,35.238-81.696c1.106-2.845,3.239-4.346,5.926-4.346s5.53,0.315,7.427,0.315
		c3.635,0,6.637-0.711,9.481-0.711c4.346,0,5.926,1.186,5.926,2.924c0,1.501-1.106,1.896-4.504,2.291
		c-4.819,0.632-9.955,2.133-9.561,9.007l4.03,76.64c0.553,10.667,6.399,11.772,11.535,11.852c2.054,0.079,3.397,1.027,3.397,2.845
		c0,1.738-2.134,2.766-4.978,2.766c-2.528,0-4.108-0.316-5.926-0.554c-1.896-0.315-4.346-0.632-8.06-0.632
		c-1.975,0-4.582,0.158-7.031,0.553c-2.766,0.396-7.111,0.633-9.798,0.633c-3.792,0-5.136-1.106-5.136-2.924
		c0-1.422,1.186-2.449,4.346-2.449c5.61,0,7.349-1.58,8.06-4.662c0.315-1.185,0.315-3.555,0.315-6.716v-7.427
		c0-5.926-2.37-53.727-3.081-67.79l-37.372,85.646c-1.501,3.318-2.686,4.662-3.713,4.662c-1.501,0-2.213-1.423-3.872-4.82
		l-38.24-78.772c-1.58,21.175-3.003,63.129-3.003,73.558c0,4.109,3.397,6.479,10.509,6.479c1.659,0,2.844,0.869,2.844,2.291
		c0,1.817-1.343,2.924-5.135,2.924c-2.687,0-5.452-0.237-8.218-0.633c-2.449-0.395-2.923-0.553-4.582-0.553
		c-4.03,0-5.057,0.316-6.953,0.632c-1.896,0.237-3.477,0.554-5.926,0.554c-2.924,0-4.978-1.027-4.978-2.766
		C439.203,1217.153,440.467,1216.205,442.521,1216.126z M550.291,1124.237l-0.079,0.079L550.291,1124.237z"/>
	<path fill="#404041" d="M592.244,1216.521c0.947,0,1.501,0.158,2.054,0.236c0.396,0.079,0.948,0.158,1.817,0.158
		c5.609,0,7.743-2.923,7.743-21.175v-56.018c0-17.619-1.659-21.412-7.743-21.412c-0.869,0-1.422,0.079-1.817,0.079
		c-0.553,0.079-1.106,0.237-2.054,0.237c-1.738,0-2.845-0.869-2.845-2.291c0-1.738,1.264-2.924,5.136-2.924
		c3.792,0,6.874,0.237,9.955,0.553c4.108,0.396,8.533,0.712,14.459,0.712c3.318,0,11.141-0.316,18.251-0.554
		c6.558-0.315,18.015-0.711,25.046-0.711c3.003,0,3.635,0.711,3.635,3.477c0,0.948-0.315,6.637-0.553,8.928
		c-0.632,5.373-1.186,6.479-2.766,6.479c-1.106,0-1.501-0.633-2.133-2.37c-1.186-3.319-2.528-4.979-6.242-6.242
		c-4.583-1.501-12.8-2.766-27.97-2.766h-7.031c-2.528,0-2.924,0.475-2.924,3.082v33.263c7.111,0.79,10.271,1.106,17.698,1.106
		c11.141,0,13.748-0.316,15.565-3.239c1.896-3.082,3.081-4.267,4.345-4.267c1.106,0,2.134,0.632,2.134,2.212
		c0,0.948-0.632,2.687-1.265,4.583c-0.947,2.765-1.501,5.136-1.501,6.637c0,0.948,0.079,1.975,0.158,3.002
		c0.079,0.948,0.158,1.896,0.158,3.003c0,4.345-1.027,5.688-2.687,5.688c-1.58,0-2.291-1.186-2.291-3.635
		c0-3.634-0.475-5.53-2.766-6.399c-1.659-0.554-6.795-1.186-13.59-1.186c-3.397,0-12.089,0.396-15.96,0.869v18.726
		c0,11.535,0.237,21.254,0.79,28.839c5.531,1.343,11.535,1.422,14.38,1.422c14.38,0,22.597-1.027,28.364-5.294
		c1.423-0.948,3.318-3.318,4.504-5.451c1.186-2.134,1.817-2.845,3.081-2.845c1.423,0,1.659,1.344,1.659,2.291
		c0,0.554-0.236,1.659-0.711,3.003c-0.395,1.343-1.105,3.318-1.975,6.558c-2.213,8.138-2.687,9.244-7.822,9.244
		c-8.533,0-17.066-0.237-29.708-0.948c-6.479-0.395-12.246-0.632-17.066-0.632c-4.898,0-8.611,0.237-11.219,0.632
		c-1.58,0.237-4.741,0.554-6.795,0.554c-3.082,0-4.346-1.106-4.346-2.924C589.399,1217.391,590.506,1216.521,592.244,1216.521z"/>
</g>
</svg>
