<?xml version="1.0" encoding="utf-8"?>
<!-- Generator: Adobe Illustrator 14.0.0, SVG Export Plug-In . SVG Version: 6.00 Build 43363)  -->
<!DOCTYPE svg PUBLIC "-//W3C//DTD SVG 1.1//EN" "http://www.w3.org/Graphics/SVG/1.1/DTD/svg11.dtd">
<svg version="1.1" id="Layer_1" xmlns="http://www.w3.org/2000/svg" xmlns:xlink="http://www.w3.org/1999/xlink" x="0px" y="0px"
	 width="1296px" height="864px" viewBox="0 0 1296 864" enable-background="new 0 0 1296 864" xml:space="preserve">
<path id="photo" fill="#CECECE" d="M58.979,110.794h386.373V615.18H58.979V110.794z M455.454,110.794h386.375V615.18H455.454
	V110.794z M850.623,110.794h386.373V615.18H850.623V110.794z"/>
<g id="fill-line-bottom">
	<g>
		<g>
			<path fill="#BDAA8F" d="M1252.971,789.574c0-3.898,3.1-6.998,7-6.998l0,0c3.898,0,6.998,3.1,6.998,6.998l0,0
				c0,3.899-3.1,7.001-6.998,7.001l0,0C1256.07,796.575,1252.971,793.374,1252.971,789.574z M1216.971,789.574
				c0-3.898,3.104-6.998,7-6.998l0,0c3.9,0,7,3.1,7,6.998l0,0c0,3.899-3.1,7.001-7,7.001l0,0
				C1220.072,796.575,1216.971,793.374,1216.971,789.574z M1180.971,789.574c0-3.898,3.104-6.998,7.002-6.998l0,0
				c3.898,0,7,3.1,7,6.998l0,0c0,3.899-3.102,7.001-7,7.001l0,0C1184.072,796.575,1180.971,793.374,1180.971,789.574z
				 M1144.973,789.574c0-3.898,3.102-6.998,7.002-6.998l0,0c3.898,0,6.998,3.1,6.998,6.998l0,0c0,3.899-3.1,7.001-6.998,7.001l0,0
				C1148.074,796.575,1144.973,793.374,1144.973,789.574z M1108.973,789.574c0-3.898,3.102-6.998,7.002-6.998l0,0
				c3.898,0,7,3.1,7,6.998l0,0c0,3.899-3.102,7.001-7,7.001l0,0C1112.074,796.575,1108.973,793.374,1108.973,789.574z
				 M1072.975,789.574c0-3.898,3.104-6.998,7.002-6.998l0,0c3.898,0,6.998,3.1,6.998,6.998l0,0c0,3.899-3.1,7.001-6.998,7.001l0,0
				C1076.076,796.575,1072.975,793.374,1072.975,789.574z M1036.977,789.574c0-3.898,3.102-6.998,6.998-6.998l0,0
				c3.9,0,7.002,3.1,7.002,6.998l0,0c0,3.899-3.102,7.001-7.002,7.001l0,0C1040.078,796.575,1036.977,793.374,1036.977,789.574z
				 M1000.977,789.574c0-3.898,3.102-6.998,7-6.998l0,0c3.898,0,7,3.1,7,6.998l0,0c0,3.899-3.102,7.001-7,7.001l0,0
				C1004.078,796.575,1000.977,793.374,1000.977,789.574z M964.979,789.574c0-3.898,3.102-6.998,7-6.998l0,0c3.898,0,7,3.1,7,6.998
				l0,0c0,3.899-3.102,7.001-7,7.001l0,0C968.08,796.575,964.979,793.374,964.979,789.574z M928.979,789.574
				c0-3.898,3.102-6.998,7-6.998l0,0c3.9,0,7,3.1,7,6.998l0,0c0,3.899-3.1,7.001-7,7.001l0,0
				C932.08,796.575,928.979,793.374,928.979,789.574z M892.979,789.574c0-3.898,3.104-6.998,7.002-6.998l0,0c3.898,0,7,3.1,7,6.998
				l0,0c0,3.899-3.102,7.001-7,7.001l0,0C896.082,796.575,892.979,793.374,892.979,789.574z M856.98,789.574
				c0-3.898,3.102-6.998,7-6.998l0,0c3.898,0,7.002,3.1,7.002,6.998l0,0c0,3.899-3.104,7.001-7.002,7.001l0,0
				C860.082,796.575,856.98,793.374,856.98,789.574z M820.98,789.574c0-3.898,3.102-6.998,7.002-6.998l0,0c3.898,0,7,3.1,7,6.998
				l0,0c0,3.899-3.102,7.001-7,7.001l0,0C824.082,796.575,820.98,793.374,820.98,789.574z M784.982,789.574
				c0-3.898,3.102-6.998,7.002-6.998l0,0c3.896,0,6.998,3.1,6.998,6.998l0,0c0,3.899-3.102,7.001-6.998,7.001l0,0
				C788.084,796.575,784.982,793.374,784.982,789.574z M748.984,789.574c0-3.898,3.102-6.998,7-6.998l0,0c3.898,0,7,3.1,7,6.998l0,0
				c0,3.899-3.102,7.001-7,7.001l0,0C752.086,796.575,748.984,793.374,748.984,789.574z M712.984,789.574
				c0-3.898,3.102-6.998,7-6.998l0,0c3.898,0,7,3.1,7,6.998l0,0c0,3.899-3.102,7.001-7,7.001l0,0
				C716.086,796.575,712.984,793.374,712.984,789.574z M676.986,789.574c0-3.898,3.102-6.998,7-6.998l0,0c3.898,0,7,3.1,7,6.998l0,0
				c0,3.899-3.102,7.001-7,7.001l0,0C680.088,796.575,676.986,793.374,676.986,789.574z M640.987,789.574
				c0-3.898,3.101-6.998,7-6.998l0,0c3.9,0,7.001,3.1,7.001,6.998l0,0c0,3.899-3.102,7.001-7.001,7.001l0,0
				C644.087,796.575,640.987,793.374,640.987,789.574z M604.988,789.574c0-3.898,3.101-6.998,7.001-6.998l0,0c3.897,0,7,3.1,7,6.998
				l0,0c0,3.899-3.103,7.001-7,7.001l0,0C608.088,796.575,604.988,793.374,604.988,789.574z M568.99,789.574
				c0-3.898,3.101-6.998,7-6.998l0,0c3.899,0,7.001,3.1,7.001,6.998l0,0c0,3.899-3.102,7.001-7.001,7.001l0,0
				C572.089,796.575,568.99,793.374,568.99,789.574z M532.99,789.574c0-3.898,3.101-6.998,7-6.998l0,0
				c3.899,0,7.001,3.1,7.001,6.998l0,0c0,3.899-3.102,7.001-7.001,7.001l0,0C536.09,796.575,532.99,793.374,532.99,789.574z
				 M496.991,789.574c0-3.898,3.102-6.998,7.001-6.998l0,0c3.898,0,7,3.1,7,6.998l0,0c0,3.899-3.102,7.001-7,7.001l0,0
				C500.093,796.575,496.991,793.374,496.991,789.574z M460.992,789.574c0-3.898,3.101-6.998,7-6.998l0,0
				c3.9,0,7.001,3.1,7.001,6.998l0,0c0,3.899-3.101,7.001-7.001,7.001l0,0C464.093,796.575,460.992,793.374,460.992,789.574z
				 M424.994,789.574c0-3.898,3.1-6.998,6.999-6.998l0,0c3.901,0,7,3.1,7,6.998l0,0c0,3.899-3.1,7.001-7,7.001l0,0
				C428.094,796.575,424.994,793.374,424.994,789.574z M388.996,789.574c0-3.898,3.099-6.998,7-6.998l0,0
				c3.899,0,6.999,3.1,6.999,6.998l0,0c0,3.899-3.1,7.001-6.999,7.001l0,0C392.094,796.575,388.996,793.374,388.996,789.574z
				 M352.996,789.574c0-3.898,3.1-6.998,7-6.998l0,0c3.899,0,7,3.1,7,6.998l0,0c0,3.899-3.1,7.001-7,7.001l0,0
				C356.096,796.575,352.996,793.374,352.996,789.574z M316.997,789.574c0-3.898,3.1-6.998,7-6.998l0,0c3.9,0,7,3.1,7,6.998l0,0
				c0,3.899-3.099,7.001-7,7.001l0,0C320.097,796.575,316.997,793.374,316.997,789.574z M280.998,789.574
				c0-3.898,3.1-6.998,6.999-6.998l0,0c3.901,0,7,3.1,7,6.998l0,0c0,3.899-3.099,7.001-7,7.001l0,0
				C284.098,796.575,280.998,793.374,280.998,789.574z M244.999,789.574c0-3.898,3.099-6.998,7-6.998l0,0c3.899,0,7,3.1,7,6.998l0,0
				c0,3.899-3.101,7.001-7,7.001l0,0C248.098,796.575,244.999,793.374,244.999,789.574z M209,789.574c0-3.898,3.099-6.998,7-6.998
				l0,0c3.899,0,7,3.1,7,6.998l0,0c0,3.899-3.1,7.001-7,7.001l0,0C212.1,796.575,209,793.374,209,789.574z M173,789.574
				c0-3.898,3.1-6.998,7-6.998l0,0c3.9,0,7,3.1,7,6.998l0,0c0,3.899-3.1,7.001-7,7.001l0,0C176.101,796.575,173,793.374,173,789.574
				z M137.001,789.574c0-3.898,3.099-6.998,7-6.998l0,0c3.9,0,6.999,3.1,6.999,6.998l0,0c0,3.899-3.099,7.001-6.999,7.001l0,0
				C140.102,796.575,137.001,793.374,137.001,789.574z M101.002,789.574c0-3.898,3.1-6.998,7-6.998l0,0c3.9,0,7,3.1,7,6.998l0,0
				c0,3.899-3.1,7.001-7,7.001l0,0C104.102,796.575,101.002,793.374,101.002,789.574z M65.003,789.574c0-3.898,3.099-6.998,7-6.998
				l0,0c3.899,0,7,3.1,7,6.998l0,0c0,3.899-3.1,7.001-7,7.001l0,0C68.103,796.575,65.003,793.374,65.003,789.574z M29.004,789.574
				c0-3.898,3.099-6.998,7-6.998l0,0c3.899,0,7,3.1,7,6.998l0,0c0,3.899-3.1,7.001-7,7.001l0,0
				C32.104,796.575,29.004,793.374,29.004,789.574z"/>
		</g>
		<path fill="#BDAA8F" d="M6.906,788.178c-0.1-0.502-0.2-0.9-0.399-1.303c-0.201-0.398-0.4-0.799-0.601-1.199
			c-0.2-0.399-0.499-0.699-0.899-1.1c-1.3-1.299-3.1-2-4.9-2v13.999c1.8,0,3.6-0.799,4.9-2.102c0.299-0.299,0.6-0.697,0.899-1.101
			c0.3-0.398,0.5-0.799,0.601-1.199c0.199-0.398,0.299-0.898,0.399-1.299c0.099-0.4,0.099-0.9,0.099-1.4
			C7.004,789.075,6.906,788.677,6.906,788.178z"/>
		<path fill="#BDAA8F" d="M1295.969,782.576c-0.5,0-0.898,0-1.398,0.101c-0.4,0.101-0.898,0.197-1.299,0.398
			c-0.402,0.201-0.803,0.4-1.201,0.602c-0.4,0.298-0.699,0.499-1.1,0.899c-0.303,0.301-0.6,0.699-0.9,1.1
			c-0.199,0.4-0.5,0.801-0.6,1.199c-0.199,0.401-0.303,0.9-0.398,1.303c-0.104,0.398-0.104,0.897-0.104,1.396
			c0,0.502,0,0.9,0.104,1.401c0.098,0.499,0.199,0.898,0.398,1.3c0.199,0.399,0.398,0.801,0.6,1.198
			c0.201,0.401,0.5,0.701,0.9,1.103c0.299,0.299,0.699,0.6,1.1,0.898c0.398,0.301,0.799,0.5,1.201,0.7
			c0.398,0.199,0.896,0.3,1.299,0.399c0.5,0.1,0.898,0.1,1.398,0.1V782.576z"/>
	</g>
</g>
<g id="fill-line-top">
	<g>
		<g>
			<path fill="#BDAA8F" d="M1252.971,69.795c0-3.899,3.1-7,7-7l0,0c3.898,0,6.998,3.1,6.998,7l0,0c0,3.9-3.1,7-6.998,7l0,0
				C1256.07,76.795,1252.971,73.594,1252.971,69.795z M1216.971,69.795c0-3.899,3.104-7,7-7l0,0c3.9,0,7,3.1,7,7l0,0
				c0,3.9-3.1,7-7,7l0,0C1220.072,76.795,1216.971,73.594,1216.971,69.795z M1180.971,69.795c0-3.899,3.104-7,7.002-7l0,0
				c3.898,0,7,3.1,7,7l0,0c0,3.9-3.102,7-7,7l0,0C1184.072,76.795,1180.971,73.594,1180.971,69.795z M1144.973,69.795
				c0-3.899,3.102-7,7.002-7l0,0c3.898,0,6.998,3.1,6.998,7l0,0c0,3.9-3.1,7-6.998,7l0,0
				C1148.074,76.795,1144.973,73.594,1144.973,69.795z M1108.973,69.795c0-3.899,3.102-7,7.002-7l0,0c3.898,0,7,3.1,7,7l0,0
				c0,3.9-3.102,7-7,7l0,0C1112.074,76.795,1108.973,73.594,1108.973,69.795z M1072.975,69.795c0-3.899,3.104-7,7.002-7l0,0
				c3.898,0,6.998,3.1,6.998,7l0,0c0,3.9-3.1,7-6.998,7l0,0C1076.076,76.795,1072.975,73.594,1072.975,69.795z M1036.977,69.795
				c0-3.899,3.102-7,6.998-7l0,0c3.9,0,7.002,3.1,7.002,7l0,0c0,3.9-3.102,7-7.002,7l0,0
				C1040.078,76.795,1036.977,73.594,1036.977,69.795z M1000.977,69.795c0-3.899,3.102-7,7-7l0,0c3.898,0,7,3.1,7,7l0,0
				c0,3.9-3.102,7-7,7l0,0C1004.078,76.795,1000.977,73.594,1000.977,69.795z M964.979,69.795c0-3.899,3.102-7,7-7l0,0
				c3.898,0,7,3.1,7,7l0,0c0,3.9-3.102,7-7,7l0,0C968.08,76.795,964.979,73.594,964.979,69.795z M928.979,69.795
				c0-3.899,3.102-7,7-7l0,0c3.9,0,7,3.1,7,7l0,0c0,3.9-3.1,7-7,7l0,0C932.08,76.795,928.979,73.594,928.979,69.795z
				 M892.979,69.795c0-3.899,3.104-7,7.002-7l0,0c3.898,0,7,3.1,7,7l0,0c0,3.9-3.102,7-7,7l0,0
				C896.082,76.795,892.979,73.594,892.979,69.795z M856.98,69.795c0-3.899,3.102-7,7-7l0,0c3.898,0,7.002,3.1,7.002,7l0,0
				c0,3.9-3.104,7-7.002,7l0,0C860.082,76.795,856.98,73.594,856.98,69.795z M820.98,69.795c0-3.899,3.102-7,7.002-7l0,0
				c3.898,0,7,3.1,7,7l0,0c0,3.9-3.102,7-7,7l0,0C824.082,76.795,820.98,73.594,820.98,69.795z M784.982,69.795
				c0-3.899,3.102-7,7.002-7l0,0c3.896,0,6.998,3.1,6.998,7l0,0c0,3.9-3.102,7-6.998,7l0,0
				C788.084,76.795,784.982,73.594,784.982,69.795z M748.984,69.795c0-3.899,3.102-7,7-7l0,0c3.898,0,7,3.1,7,7l0,0
				c0,3.9-3.102,7-7,7l0,0C752.086,76.795,748.984,73.594,748.984,69.795z M712.984,69.795c0-3.899,3.102-7,7-7l0,0
				c3.898,0,7,3.1,7,7l0,0c0,3.9-3.102,7-7,7l0,0C716.086,76.795,712.984,73.594,712.984,69.795z M676.986,69.795
				c0-3.899,3.102-7,7-7l0,0c3.898,0,7,3.1,7,7l0,0c0,3.9-3.102,7-7,7l0,0C680.088,76.795,676.986,73.594,676.986,69.795z
				 M640.987,69.795c0-3.899,3.101-7,7-7l0,0c3.9,0,7.001,3.1,7.001,7l0,0c0,3.9-3.102,7-7.001,7l0,0
				C644.087,76.795,640.987,73.594,640.987,69.795z M604.988,69.795c0-3.899,3.101-7,7.001-7l0,0c3.897,0,7,3.1,7,7l0,0
				c0,3.9-3.103,7-7,7l0,0C608.088,76.795,604.988,73.594,604.988,69.795z M568.99,69.795c0-3.899,3.101-7,7-7l0,0
				c3.899,0,7.001,3.1,7.001,7l0,0c0,3.9-3.102,7-7.001,7l0,0C572.089,76.795,568.99,73.594,568.99,69.795z M532.99,69.795
				c0-3.899,3.101-7,7-7l0,0c3.899,0,7.001,3.1,7.001,7l0,0c0,3.9-3.102,7-7.001,7l0,0C536.09,76.795,532.99,73.594,532.99,69.795z
				 M496.991,69.795c0-3.899,3.102-7,7.001-7l0,0c3.898,0,7,3.1,7,7l0,0c0,3.9-3.102,7-7,7l0,0
				C500.093,76.795,496.991,73.594,496.991,69.795z M460.992,69.795c0-3.899,3.101-7,7-7l0,0c3.9,0,7.001,3.1,7.001,7l0,0
				c0,3.9-3.101,7-7.001,7l0,0C464.093,76.795,460.992,73.594,460.992,69.795z M424.994,69.795c0-3.899,3.1-7,6.999-7l0,0
				c3.901,0,7,3.1,7,7l0,0c0,3.9-3.1,7-7,7l0,0C428.094,76.795,424.994,73.594,424.994,69.795z M388.996,69.795c0-3.899,3.099-7,7-7
				l0,0c3.899,0,6.999,3.1,6.999,7l0,0c0,3.9-3.1,7-6.999,7l0,0C392.094,76.795,388.996,73.594,388.996,69.795z M352.996,69.795
				c0-3.899,3.1-7,7-7l0,0c3.899,0,7,3.1,7,7l0,0c0,3.9-3.1,7-7,7l0,0C356.096,76.795,352.996,73.594,352.996,69.795z
				 M316.997,69.795c0-3.899,3.1-7,7-7l0,0c3.9,0,7,3.1,7,7l0,0c0,3.9-3.099,7-7,7l0,0
				C320.097,76.795,316.997,73.594,316.997,69.795z M280.998,69.795c0-3.899,3.1-7,6.999-7l0,0c3.901,0,7,3.1,7,7l0,0
				c0,3.9-3.099,7-7,7l0,0C284.098,76.795,280.998,73.594,280.998,69.795z M244.999,69.795c0-3.899,3.099-7,7-7l0,0
				c3.899,0,7,3.1,7,7l0,0c0,3.9-3.101,7-7,7l0,0C248.098,76.795,244.999,73.594,244.999,69.795z M209,69.795c0-3.899,3.099-7,7-7
				l0,0c3.899,0,7,3.1,7,7l0,0c0,3.9-3.1,7-7,7l0,0C212.1,76.795,209,73.594,209,69.795z M173,69.795c0-3.899,3.1-7,7-7l0,0
				c3.9,0,7,3.1,7,7l0,0c0,3.9-3.1,7-7,7l0,0C176.101,76.795,173,73.594,173,69.795z M137.001,69.795c0-3.899,3.099-7,7-7l0,0
				c3.9,0,6.999,3.1,6.999,7l0,0c0,3.9-3.099,7-6.999,7l0,0C140.102,76.795,137.001,73.594,137.001,69.795z M101.002,69.795
				c0-3.899,3.1-7,7-7l0,0c3.9,0,7,3.1,7,7l0,0c0,3.9-3.1,7-7,7l0,0C104.102,76.795,101.002,73.594,101.002,69.795z M65.003,69.795
				c0-3.899,3.099-7,7-7l0,0c3.899,0,7,3.1,7,7l0,0c0,3.9-3.1,7-7,7l0,0C68.103,76.795,65.003,73.594,65.003,69.795z M29.004,69.795
				c0-3.899,3.099-7,7-7l0,0c3.899,0,7,3.1,7,7l0,0c0,3.9-3.1,7-7,7l0,0C32.104,76.795,29.004,73.594,29.004,69.795z"/>
		</g>
		<path fill="#BDAA8F" d="M6.906,68.396c-0.1-0.501-0.2-0.901-0.399-1.301c-0.201-0.398-0.4-0.8-0.601-1.2
			c-0.2-0.399-0.499-0.701-0.899-1.1c-1.3-1.299-3.1-2-4.9-2v14c1.8,0,3.6-0.799,4.9-2.101c0.299-0.298,0.6-0.698,0.899-1.1
			c0.3-0.399,0.5-0.799,0.601-1.199c0.199-0.4,0.299-0.9,0.399-1.3c0.099-0.399,0.099-0.901,0.099-1.4
			C7.004,69.295,6.906,68.896,6.906,68.396z"/>
		<path fill="#BDAA8F" d="M1295.969,62.795c-0.5,0-0.898,0-1.398,0.1c-0.4,0.1-0.898,0.199-1.299,0.399
			c-0.402,0.2-0.803,0.4-1.201,0.601c-0.4,0.299-0.699,0.5-1.1,0.899c-0.303,0.301-0.6,0.701-0.9,1.1c-0.199,0.399-0.5,0.8-0.6,1.2
			c-0.199,0.399-0.303,0.899-0.398,1.301c-0.104,0.399-0.104,0.899-0.104,1.399c0,0.501,0,0.901,0.104,1.4
			c0.098,0.5,0.199,0.899,0.398,1.299c0.199,0.401,0.398,0.801,0.6,1.201s0.5,0.701,0.9,1.101c0.299,0.298,0.699,0.599,1.1,0.899
			c0.398,0.301,0.799,0.5,1.201,0.7c0.398,0.199,0.896,0.3,1.299,0.4c0.5,0.099,0.898,0.099,1.398,0.099V62.795z"/>
	</g>
</g>
<g id="fill">
	<g>
		<path fill="#BBDB70" d="M198,815.476c-11.2,16.699-29.199,37.098-49.799,33.398c-2.1-0.601-4.6-1.201-6.1-2.101
			c-19.099-9.399-9.999-27.698,6.1-46.498c15.2-17.6,46.8-38.601,66.599-51.698c13.999-28.6,31.599-67.799,36.199-81.798
			c-16.399,18.8-46.499,69.897-74.198,69.897c-27.099,0-24.3-27.399-15.5-44.397c6.7-13.4,14.9-23.401,24.6-31.9
			c13.399-12.8,24.6,1.501,20.699,4.601c-7,3.999-17.299,13.998-26.399,25.8c-4.899,6.398-16.7,30.999-8.5,36.799
			c5.5,4.299,16.099,0,24.898-8.5c22.8-21.599,39.2-45.897,58.999-69.898c2.7-6.998,21.599,1.201,20.099,4.603
			c-7.599,16.697-25.499,57.396-36.799,81.496c7.601-3.999,36.199-26.1,54.399-48.598c3.6-4.601,6.1,0.3,2.4,5.2
			c-12.2,16.396-46.199,47.696-62.898,56.797C219.6,775.376,207.398,800.676,198,815.476z M155.101,805.176
			c-23.099,23.1-15.199,48.897,7.601,30.7c23.1-18.501,33.4-49.8,46.199-75.7C193.101,772.076,170.9,789.075,155.101,805.176z"/>
		<path fill="#BBDB70" d="M342.996,709.776c-1.799-6.398,2.4-11.196,7.6-9.698c8.201-16.398,5.801-22.8,4.3-26.398
			c-3.3-8.502,10-11.601,12.5-3.301c4.299,12.501-6.4,31.299-13.1,40.7c0.3,5.798,3.6,8.199,7.6,8.199
			c9.701,0,19.799-11.199,25.799-17.602c3.6-4.301,7.6-8.8,10.599-13.099c1.5-2.102,5.2-0.301,3.601,2.399
			c-1.8,3.6-5.8,8.499-10.3,13.999c-6.7,8.199-18.8,21.301-30.7,21.301c-5.2,0-10.299-3-12.5-7.602
			c-4,4.302-7.899,8.199-11.899,11.898c-13.699,11.502-30.099,12.5-40.099,6.102c-9.999-6.102-13.699-20.398-8.2-39.198
			c3-11.502,13.1-27.7,26.7-39.799c11.199-10.001,24.898-14.899,33.999-11.601c5.5,1.799,10,7,8.8,14.601
			c-0.6,4.899-5.2,4.6-5.2,2.101c0.601-3.304,0-8.201-5.799-8.201c-13.4,0-42.599,31-47.399,58.7
			c-2.1,11.899,1.501,22.197,12.799,22.197c9.401,0,22.499-10.001,31.6-23.697C343.596,710.979,342.996,710.679,342.996,709.776z"/>
		<path fill="#BBDB70" d="M497.691,732.576c-9.999,7.302-32.2,14.601-38.299-3.6c-2.699-8.2,0.901-28.6,5.201-39.199
			c-4.6,3.001-23.4,47.101-48.299,47.101c-6.1,0-17.299-4.001-21.299-10.301c-7-11.2-0.3-33.999,10.6-50.798
			c4.299-6.7,11.9-17.899,14.599-18.799c5.2-1.5,12.2-1.5,16.4,0c3.6,1.5,1.5,4.599-0.6,6.099c-6.7,6.1-22.199,22.198-29.8,42.601
			c-9.699,25.797,4,32.798,25.2,15.799c11.201-9.101,24.299-26.7,35.598-43.2c5.501-7.898,15.801-27.397,19.8-33.397
			c4.001,0,18.8,2.699,15.8,8.2c-3.6,6.099-14.899,24.899-18.8,32.799c-4.6,8.8-8.2,19.101-9.699,30.1
			c-1.799,13.1,4.299,20.101,14.299,14.899c9.7-5.501,32.5-24.6,44.999-42.2c1.5-2.099,5.499-0.3,3.999,2.401
			C531.389,701.579,512.892,721.578,497.691,732.576z"/>
		<path fill="#BBDB70" d="M738.984,584.48c-7.602,7-14,17.3-9.102,24.899c1.203,1.8-1.5,4.3-4.598,0.9
			c-2.4-2.7-2.701-17.302,2.1-26.7l0.898-1.499c-7.6-8.199-23.998-17-37.998-13.7c-32.199,7.6-14.6,60.198-1.199,77.198
			c5.799,7.6,4.6,9.397-1.801,10.3c-18.498,2.099-37.998,9.7-48.298,15.2c-47.1,23.398-31.9,75.097,25.197,69.298
			c36.502-3.601,71.998-21.6,84.5-62.899c3.6-11.601,2.699-25.499,0.6-29.799c-11.9,7.001-25.199,13.7-36.199,20.399
			c-10.6,6.398-39.498,33.698-25.799,44.398c3.301,3.001,4.299,6.099-1.5,4.301c-8.502-2.7-10.602-22.801-4.301-35.602
			c4.602-8.199,13.1-13.998,24.602-20.698c31.598-18.8,78.697-33.397,71.396-50.798c-0.9-2.4,1.5-2.4,3,0
			c5.799,13.698-8.199,25.199-27.4,36.198c5.201,5.499,13.1,19.1,11.201,31.3c-8.799,47.099-63.799,66.297-103.297,69.297
			c-78.398,6.102-84.199-68.396-29.5-89.097c20.699-7.6,40.701-5.502,51.699-7c-18.799-15.8-44.099-51.398-27.396-75.099
			c8.199-11.6,38.596-17.301,51.697-13.7c7.299,1.801,18.799,8.2,24.299,15.2c3.6-4.301,7.602-8.199,11.898-8.5
			c4.898-1.199,10.898,2.399,6.102,7C748.084,577.582,743.285,580.28,738.984,584.48z"/>
		<path fill="#BBDB70" d="M875.18,700.678c-2.998,3.3-2.998-3.598-0.299-7.6c12.5-16.399,14.9-20.398,20.102-30.398
			c0.896-5.198,2.1-15.801,15.799-12.199c4.898,1.199,4.6,3.998,2.1,8.801c-7.6,16.697-17.299,43.798-21,53.497
			c12.799-15.8,39.199-44.398,55.898-57.398c19.801-15.199,33.697-10,21,15.2c-3,5.799-8.799,19.099-11.5,23.999
			c10.6-9.7,28.299-24.3,41.898-29.499c3.299-1.2,24.6-8.499,16.398,4c-10.6,16.101-17.898,37.1-19.1,46.799
			c-1.799,13.1,4.301,20.1,14.002,14.899c9.996-5.5,32.797-24.6,45.299-42.198c1.498-2.102,5.498-0.301,3.998,2.4
			c-5.799,10.6-24.301,30.696-39.498,41.597c-10.002,7.302-32.5,14.601-38.6-3.599c-2.398-8.201,0.898-26.4,5.201-37.099
			c2.098-5.501,5.496-13.701,8.498-18.2c-18.5,7.299-36.799,28.599-45.9,37.999c-3.598,8.8-19.797,11.6-15.197,0
			c6.1-14.599,15.5-32.8,18.199-37.999c5.5-9.699,2.699-16.101-19.5,2.999c-17.299,15.8-42.896,55.897-48.6,59.298
			c-2.998,1.5-19.098,8.802-16.098,3c1.799-3.998,11.498-32.198,19.098-54.099C883.381,690.878,878.781,696.979,875.18,700.678z"/>
		<path fill="#BBDB70" d="M1080.676,703.078c-4.6,0.3-6.699-4-2.102-4.3c9.699-0.9,26.699-10.601,38-19.802
			c5.199-3.998,14.301-13.1,13.699-19.797c-0.301-8.501-11.199-4.001-15.5-1.801c-17.898,8.2-44.098,33.398-50.799,55.598
			c-7.6,25.5,15.801,25.801,35.6,17.9c22.5-9.1,41.898-25.5,52.898-42.2c1.199-1.499,2.697-1.499,3.299-0.897
			c1.5,0.599,1.5,2.098,0.301,3.599c-12.199,20.1-31.301,36.801-52.598,45.599c-31,12.5-69.898,0-53.197-38.299
			c9.1-20.697,56.197-60.498,78.996-52.896c12.5,4.299,10.6,19.8,4.9,28.298C1123.172,690.278,1094.275,701.878,1080.676,703.078z"
			/>
	</g>
</g>
</svg>
