<?xml version="1.0" encoding="utf-8"?>
<!-- Generator: Adobe Illustrator 14.0.0, SVG Export Plug-In . SVG Version: 6.00 Build 43363)  -->
<!DOCTYPE svg PUBLIC "-//W3C//DTD SVG 1.1//EN" "http://www.w3.org/Graphics/SVG/1.1/DTD/svg11.dtd">
<svg version="1.1" id="Layer_1" xmlns="http://www.w3.org/2000/svg" xmlns:xlink="http://www.w3.org/1999/xlink" x="0px" y="0px"
	 width="576px" height="720px" viewBox="0 0 576 720" enable-background="new 0 0 576 720" xml:space="preserve">
<circle id="photo" fill="#D0D2D3" cx="288" cy="329.754" r="232.579"/>
<g id="fillfavorite">
	<path fill="#363830" d="M106.478,74.714L98.598,57.8l1.576-0.736l7.284,15.584l7.284-15.584l1.576,0.736L104.306,83.54
		l-1.576-0.771L106.478,74.714z"/>
	<path fill="#363830" d="M129.942,57.064c5.883,0,9.806,4.623,9.806,9.596c0,5.883-4.623,9.805-9.596,9.805
		c-5.883,0-9.805-4.623-9.805-9.595C120.347,60.987,124.97,57.064,129.942,57.064z M129.978,58.815c-4.098,0-7.879,3.222-7.879,8.02
		c0,4.098,3.222,7.879,8.02,7.879c4.097,0,7.879-3.222,7.879-8.02C137.997,62.598,134.775,58.815,129.978,58.815z"/>
	<path fill="#363830" d="M146.404,70.092V57.66h1.751v12.397c0,2.312,1.786,4.658,4.798,4.658c4.833,0,8.054-3.782,8.054-7.879
		V57.66h1.751V76.01h-1.751v-4.798c-0.49,2.241-4.553,5.253-8.089,5.253C148.82,76.465,146.404,73.244,146.404,70.092z"/>
	<path fill="#363830" d="M193.018,57.064c3.012,0,5.043,1.226,6.304,3.047V57.66h1.751V76.01h-1.751v-2.662
		c-1.331,1.961-3.397,3.117-6.093,3.117c-5.883,0-9.806-4.623-9.806-9.595C183.422,60.987,188.045,57.064,193.018,57.064z
		 M193.053,58.815c-4.097,0-7.879,3.222-7.879,8.02c0,4.098,3.222,7.879,8.02,7.879c2.381,0,4.658-1.085,6.128-2.941V61.757
		C197.92,60.006,195.714,58.815,193.053,58.815z"/>
	<path fill="#363830" d="M219.319,57.064c0,0.7,0,0.806,0,1.751c-4.833,0-8.089,3.782-8.089,7.879v9.315h-1.751V57.66h1.751v4.658
		C211.72,60.076,215.783,57.064,219.319,57.064z"/>
	<path fill="#363830" d="M232.979,74.714c1.401,0,2.802-0.385,3.992-1.085l0.875,1.506c-1.471,0.875-3.151,1.331-4.868,1.331
		c-5.883,0-9.805-4.623-9.805-9.595c0-5.883,4.657-9.806,9.63-9.806c4.692,0,8.16,2.942,9.35,6.759l-17.229,3.012
		C224.924,70.933,228.146,74.714,232.979,74.714z M239.632,62.493c-1.366-2.171-3.782-3.677-6.829-3.677
		c-3.537,0-6.864,2.417-7.669,6.233L239.632,62.493z"/>
	<path fill="#363830" d="M282.78,57.064c4.132,0,6.548,3.222,6.548,6.374V76.01h-1.751V63.473c0-2.311-1.786-4.658-4.797-4.658
		c-2.697,0-4.868,1.191-6.304,2.942v0.911c0.035,0.245,0.07,0.49,0.07,0.77V76.01h-1.751V63.473c0-2.311-1.821-4.658-4.833-4.658
		c-2.662,0-4.868,1.191-6.269,2.942V76.01h-1.75V57.66h1.75v2.452c1.261-1.821,3.292-3.047,6.304-3.047
		c2.836,0,4.903,1.541,5.883,3.537l0.595-0.84C277.772,57.905,279.803,57.064,282.78,57.064z"/>
	<path fill="#363830" d="M302.989,74.714L295.11,57.8l1.575-0.736l7.284,15.584l7.284-15.584l1.576,0.736L300.818,83.54
		l-1.576-0.771L302.989,74.714z"/>
	<path fill="#363830" d="M342.635,59.411h-8.265V76.01h-1.751V59.411h-1.751V57.66h1.751c0.07-5.813,4.657-9.665,9.596-9.665h2.521
		v1.751h-2.521c-4.027,0-7.774,3.152-7.845,7.914h8.265V59.411z"/>
	<path fill="#363830" d="M355.032,57.064c3.012,0,5.043,1.226,6.304,3.047V57.66h1.751V76.01h-1.751v-2.662
		c-1.331,1.961-3.397,3.117-6.094,3.117c-5.884,0-9.806-4.623-9.806-9.595C345.437,60.987,350.06,57.064,355.032,57.064z
		 M355.067,58.815c-4.098,0-7.88,3.222-7.88,8.02c0,4.098,3.222,7.879,8.02,7.879c2.382,0,4.657-1.085,6.129-2.941V61.757
		C359.936,60.006,357.729,58.815,355.067,58.815z"/>
	<path fill="#363830" d="M377.728,72.648l7.283-15.584l1.576,0.736l-8.859,18.98l-8.86-18.98l1.576-0.736L377.728,72.648z"/>
	<path fill="#363830" d="M400.176,57.064c5.884,0,9.806,4.623,9.806,9.596c0,5.883-4.622,9.805-9.595,9.805
		c-5.884,0-9.806-4.623-9.806-9.595C390.581,60.987,395.203,57.064,400.176,57.064z M400.211,58.815
		c-4.097,0-7.879,3.222-7.879,8.02c0,4.098,3.222,7.879,8.02,7.879c4.097,0,7.879-3.222,7.879-8.02
		C408.23,62.598,405.009,58.815,400.211,58.815z"/>
	<path fill="#363830" d="M426.478,57.064c0,0.7,0,0.806,0,1.751c-4.832,0-8.089,3.782-8.089,7.879v9.315h-1.751V57.66h1.751v4.658
		C418.879,60.076,422.941,57.064,426.478,57.064z"/>
	<path fill="#363830" d="M433.763,51.286c0.91,0,1.682,0.771,1.682,1.681c0,0.91-0.771,1.681-1.682,1.681s-1.681-0.771-1.681-1.681
		C432.082,52.057,432.853,51.286,433.763,51.286z M432.922,76.01V57.66h1.751V76.01H432.922z"/>
	<path fill="#363830" d="M443.851,70.022V59.411H442.1V57.66h1.751v-5.183h1.751v5.183h8.264v1.751h-8.264v10.576
		c0,2.312,1.82,4.658,4.797,4.658c0.841,0,1.682-0.245,2.417-0.666l0.875,1.506c-0.98,0.595-2.136,0.911-3.257,0.911
		C446.336,76.396,443.851,73.174,443.851,70.022z"/>
	<path fill="#363830" d="M468.226,74.714c1.4,0,2.801-0.385,3.992-1.085l0.875,1.506c-1.471,0.875-3.151,1.331-4.867,1.331
		c-5.884,0-9.806-4.623-9.806-9.595c0-5.883,4.657-9.806,9.63-9.806c4.692,0,8.159,2.942,9.351,6.759l-17.229,3.012
		C460.171,70.933,463.393,74.714,468.226,74.714z M474.879,62.493c-1.366-2.171-3.782-3.677-6.829-3.677
		c-3.537,0-6.863,2.417-7.669,6.233L474.879,62.493z"/>
</g>
<g id="fillhello">
	<path fill="#67A2C8" d="M258.302,554.955c-27.56,21.224-72.226,35.162-108.022,46.566c-4.435,12.038-8.553,36.43-10.771,50.685
		c7.603-11.721,16.156-21.225,26.293-34.846c1.9-8.236,15.522-20.907,12.988-6.019c-1.9,12.037-3.801,25.342-3.801,34.212
		c0,18.69,3.801,25.659,17.106,15.839c9.187-6.652,17.739-19.006,19.323-20.59c0.951-0.951,1.584,1.9,1.584,1.9
		c-0.95,2.534-26.292,38.647-43.082,30.094c-12.354-6.019-6.336-45.616-6.019-45.933c0-1.584-15.839,19.006-25.026,30.728
		c-0.95,13.621-11.404,19.007-11.404,15.839c-0.634-12.038,6.969-56.387,11.721-68.741c-7.287,1.9-10.137,4.751-10.454,7.919
		c-0.634,4.436-3.801,5.068-3.485,0c0.317-6.969,9.82-11.721,16.156-13.621c10.137-33.263,31.995-73.493,59.238-94.084
		c9.187-7.286,19.641-12.037,29.778-14.256c17.739-3.801,36.746,2.852,43.715,20.592
		C280.16,527.395,272.874,543.867,258.302,554.955z M229.158,500.151c-51.635,10.137-64.306,60.822-77.611,95.984
		c27.243-7.603,82.68-32.945,104.538-49.417c9.82-7.604,19.957-19.641,15.206-31.995
		C265.271,498.885,243.414,497.301,229.158,500.151z"/>
	<path fill="#67A2C8" d="M211.731,671.529c-4.435-4.117-8.236-14.571-6.019-28.51c2.217-11.721,10.454-29.46,21.858-40.548
		c8.87-8.553,21.224-10.454,32.312-3.484c9.503,6.019,6.335,18.689-0.95,28.827h6.335c5.385,0-2.851,2.851-9.82,4.435
		c-1.9,2.218-4.118,4.435-6.335,6.019c-6.019,4.436-5.702,0.951-3.168-1.584l3.168-3.483c-12.671,0.949-16.473,0.316-27.243,2.217
		c-1.901,4.752-3.168,10.453-3.484,16.473c-0.95,16.473,9.82,20.591,18.057,19.323c16.789-2.851,33.262-17.105,39.281-23.441
		c1.9-1.901,4.435-0.634,0.95,3.484C265.584,664.244,229.788,688.002,211.731,671.529z M238.658,611.342
		c-4.118,3.802-9.504,9.503-13.622,17.423c11.721-0.316,18.057-0.634,27.243-0.634c2.217-4.435,4.118-8.87,4.751-11.403
		C261.466,597.403,246.578,603.422,238.658,611.342z"/>
	<path fill="#67A2C8" d="M297.26,616.094c-4.752,16.789-11.404,45.933-3.484,51.635c7.603,5.385,29.777-5.068,38.964-17.106
		c6.019-7.603,4.435,1.268,2.217,4.118c-6.652,8.554-31.361,22.809-42.765,19.957c-10.454-2.533-16.473-12.671-9.504-44.982
		c-4.435,0.95-5.068-2.534,2.534-10.454c8.236-34.212,22.491-82.046,50.052-105.171c11.087-9.187,25.342-7.603,25.025,5.702
		C359.665,555.271,321.335,592.335,297.26,616.094z M338.758,522.009c-12.988,15.206-33.896,64.308-40.548,87.115
		c16.473-15.522,56.703-62.089,57.338-87.432C355.864,507.754,346.044,513.14,338.758,522.009z"/>
	<path fill="#67A2C8" d="M349.841,616.094c-4.752,16.789-11.404,45.933-3.484,51.635c7.603,5.385,29.777-5.068,38.964-17.106
		c6.019-7.603,4.435,1.268,2.218,4.118c-6.653,8.554-31.362,22.809-42.766,19.957c-10.454-2.533-16.473-12.671-9.504-44.982
		c-4.435,0.95-5.068-2.534,2.534-10.454c8.236-34.212,22.492-82.046,50.052-105.171c11.087-9.187,25.343-7.603,25.025,5.702
		C412.246,555.271,373.916,592.335,349.841,616.094z M391.339,522.009c-12.987,15.206-33.896,64.308-40.548,87.115
		c16.473-15.522,56.703-62.089,57.338-87.432C408.445,507.754,398.625,513.14,391.339,522.009z"/>
	<path fill="#67A2C8" d="M466.411,619.261c-8.236,4.118-20.907,4.436-25.976,2.218c0.633,6.019-3.802,21.541-11.404,34.529
		c-23.442,41.182-54.486,16.473-40.865-23.442c4.436-13.621,14.572-35.796,28.827-37.063c6.019-6.97,23.442,3.484,24.709,15.521
		c7.286,8.554,18.057,3.802,27.243,3.802C470.529,614.826,469.896,617.36,466.411,619.261z M420.478,606.273
		c-7.603,1.9-17.106,19.957-21.541,36.43c-8.236,30.728,8.236,38.014,23.759,13.305c7.603-12.037,12.354-31.045,11.404-36.113
		C420.478,617.677,420.478,606.273,420.478,606.273z"/>
</g>
</svg>
