<?xml version="1.0" encoding="utf-8"?>
<!-- Generator: Adobe Illustrator 14.0.0, SVG Export Plug-In . SVG Version: 6.00 Build 43363)  -->
<!DOCTYPE svg PUBLIC "-//W3C//DTD SVG 1.1//EN" "http://www.w3.org/Graphics/SVG/1.1/DTD/svg11.dtd">
<svg version="1.1" id="Layer_1" xmlns="http://www.w3.org/2000/svg" xmlns:xlink="http://www.w3.org/1999/xlink" x="0px" y="0px"
	 width="648px" height="810px" viewBox="-36 -45 648 810" enable-background="new -36 -45 648 810" xml:space="preserve">
<rect id="photo" x="-36" y="-45" fill="#E8E8E8" width="648" height="674.417"/>
<g id="fill-loved">
	<path fill="#C31B25" d="M333.049,708.723h6.26v-56.682h-6.006v-3.384h9.391v60.065h6.598v3.384h-16.242V708.723z"/>
	<path fill="#C31B25" d="M353.267,696.202c0-2.256,0.437-4.399,1.312-6.43c0.873-2.03,2.059-3.793,3.553-5.288
		c1.494-1.493,3.243-2.678,5.246-3.553c2.001-0.874,4.158-1.312,6.471-1.312s4.484,0.438,6.515,1.312
		c2.03,0.875,3.808,2.06,5.33,3.553c1.522,1.495,2.72,3.258,3.595,5.288s1.313,4.174,1.313,6.43c0,2.313-0.438,4.47-1.313,6.472
		s-2.072,3.736-3.595,5.203s-3.3,2.637-5.33,3.511c-2.03,0.873-4.202,1.311-6.515,1.311s-4.47-0.438-6.471-1.311
		c-2.003-0.874-3.752-2.044-5.246-3.511s-2.68-3.201-3.553-5.203C353.703,700.672,353.267,698.515,353.267,696.202z M356.65,696.202
		c0,1.815,0.339,3.52,1.018,5.108c0.68,1.591,1.613,2.981,2.802,4.173c1.188,1.192,2.575,2.129,4.159,2.81
		c1.583,0.682,3.281,1.021,5.092,1.021c1.812,0,3.521-0.34,5.135-1.021c1.613-0.681,3.013-1.617,4.201-2.81
		c1.188-1.191,2.121-2.582,2.801-4.173c0.68-1.589,1.02-3.293,1.02-5.108c0-1.816-0.34-3.52-1.02-5.108s-1.613-2.98-2.801-4.173
		c-1.188-1.192-2.588-2.143-4.201-2.853c-1.613-0.709-3.323-1.064-5.135-1.064c-1.811,0-3.509,0.355-5.092,1.064
		c-1.584,0.71-2.971,1.66-4.159,2.853s-2.122,2.584-2.802,4.173C356.989,692.683,356.65,694.386,356.65,696.202z"/>
	<path fill="#C31B25" d="M390.49,680.382h15.65v3.384H400.6c2.086,3.948,4.146,7.925,6.176,11.929
		c2.031,4.005,3.947,7.981,5.754,11.929c1.691-3.723,3.566-7.614,5.625-11.675c2.059-4.062,4.131-8.122,6.219-12.183h-4.865v-3.384
		h14.805v3.384h-6.218c-2.595,5.133-5.189,10.194-7.783,15.186c-2.595,4.991-5.189,10.025-7.782,15.101
		c-2.652-5.075-5.26-10.109-7.826-15.101s-5.147-10.053-7.74-15.186h-6.473V680.382z"/>
	<path fill="#C31B25" d="M469.168,691.549c-4.4,1.749-8.771,3.483-13.113,5.203c-4.344,1.721-8.714,3.455-13.113,5.202
		c0.959,2.168,2.481,3.937,4.568,5.307c2.086,1.369,4.455,2.054,7.106,2.054c1.747,0,3.384-0.317,4.907-0.953
		c1.522-0.634,2.847-1.529,3.976-2.685c0.394,0.452,0.762,0.889,1.101,1.312c0.338,0.423,0.704,0.86,1.1,1.312
		c-1.468,1.354-3.131,2.425-4.992,3.215c-1.861,0.789-3.891,1.184-6.091,1.184c-2.313,0-4.471-0.438-6.472-1.311
		c-2.003-0.874-3.752-2.044-5.245-3.511c-1.495-1.467-2.68-3.201-3.554-5.203c-0.875-2.002-1.311-4.159-1.311-6.472
		c0-2.256,0.436-4.399,1.311-6.43c0.874-2.03,2.059-3.778,3.554-5.245c1.493-1.467,3.242-2.636,5.245-3.512
		c2.001-0.873,4.158-1.311,6.472-1.311c1.692,0,3.3,0.296,4.822,0.888c1.522,0.593,2.919,1.411,4.188,2.454
		c1.269,1.044,2.382,2.284,3.342,3.722C467.926,688.207,468.66,689.801,469.168,691.549z M454.616,683.089
		c-2.087,0-3.991,0.435-5.71,1.305c-1.722,0.87-3.173,2.019-4.357,3.448c-1.185,1.431-2.018,3.086-2.496,4.966
		c-0.479,1.879-0.521,3.8-0.127,5.763c3.778-1.522,7.558-3.031,11.337-4.525c3.778-1.494,7.585-3.004,11.421-4.526
		c-0.959-1.894-2.341-3.438-4.146-4.635C458.732,683.688,456.759,683.089,454.616,683.089z"/>
	<path fill="#C31B25" d="M503.176,708.723c0-0.677,0.014-1.339,0.043-1.988c0.027-0.647,0.042-1.282,0.042-1.903
		c-0.394,0.96-0.997,1.918-1.81,2.876c-0.813,0.96-1.793,1.806-2.943,2.538c-1.15,0.733-2.47,1.326-3.955,1.776
		c-1.486,0.451-3.07,0.677-4.752,0.677c-2.301,0-4.459-0.438-6.478-1.311c-2.021-0.874-3.772-2.044-5.259-3.511
		c-1.485-1.467-2.663-3.201-3.533-5.203c-0.869-2.002-1.303-4.159-1.303-6.472c0-2.256,0.434-4.385,1.303-6.388
		c0.87-2.001,2.048-3.75,3.533-5.245c1.486-1.494,3.238-2.678,5.258-3.554c2.018-0.873,4.177-1.311,6.477-1.311
		c1.626,0,3.154,0.226,4.584,0.677c1.431,0.452,2.734,1.058,3.912,1.818c1.178,0.762,2.188,1.622,3.028,2.581
		s1.459,1.945,1.853,2.961c-0.057-1.185-0.113-2.369-0.168-3.554c-0.058-1.185-0.114-2.369-0.17-3.553v-28.595h-5.922v-3.384h9.645
		v60.065h6.26v3.384h-9.645V708.723z M476.611,696.244c0,1.811,0.34,3.51,1.016,5.093c0.678,1.584,1.594,2.971,2.75,4.159
		c1.155,1.188,2.537,2.121,4.145,2.801s3.342,1.018,5.203,1.018s3.582-0.338,5.161-1.018c1.578-0.68,2.961-1.612,4.146-2.801
		c1.184-1.188,2.115-2.575,2.791-4.159c0.678-1.583,1.016-3.282,1.016-5.093c0-1.812-0.338-3.521-1.016-5.134
		c-0.676-1.613-1.607-3.013-2.791-4.201c-1.185-1.188-2.567-2.122-4.146-2.801c-1.579-0.68-3.3-1.02-5.161-1.02
		s-3.596,0.34-5.203,1.02c-1.607,0.679-2.989,1.612-4.145,2.801c-1.156,1.188-2.072,2.588-2.75,4.201
		C476.951,692.723,476.611,694.433,476.611,696.244z"/>
</g>
<g id="fill_x5F_you_are">
	<path fill="#404040" d="M56.329,729.872h7.191c1.466-2.933,2.932-5.879,4.399-8.841c1.466-2.961,2.932-5.879,4.399-8.756
		c-2.426-4.793-4.822-9.545-7.191-14.255c-2.369-4.708-4.738-9.461-7.106-14.255h-6.514v-3.384h15.651v3.384h-5.33
		c2.086,4.229,4.188,8.418,6.303,12.563c2.115,4.145,4.131,8.333,6.049,12.563c1.804-4.061,3.778-8.206,5.922-12.437
		c2.143-4.229,4.286-8.46,6.43-12.689h-4.907v-3.384h14.805v3.384h-6.176c-3.892,7.728-7.728,15.412-11.505,23.054
		c-3.779,7.642-7.614,15.325-11.506,23.053h5.415v3.384H56.329V729.872z"/>
	<path fill="#404040" d="M100.32,696.202c0-2.256,0.437-4.399,1.312-6.43c0.874-2.03,2.058-3.793,3.553-5.288
		c1.494-1.493,3.243-2.678,5.245-3.553c2.001-0.874,4.159-1.312,6.472-1.312c2.312,0,4.484,0.438,6.514,1.312
		c2.031,0.875,3.807,2.06,5.33,3.553c1.522,1.495,2.72,3.258,3.595,5.288c0.874,2.03,1.312,4.174,1.312,6.43
		c0,2.313-0.438,4.47-1.312,6.472c-0.875,2.002-2.073,3.736-3.595,5.203c-1.523,1.467-3.299,2.637-5.33,3.511
		c-2.03,0.873-4.202,1.311-6.514,1.311c-2.313,0-4.47-0.438-6.472-1.311c-2.002-0.874-3.751-2.044-5.245-3.511
		c-1.495-1.467-2.68-3.201-3.553-5.203C100.756,700.672,100.32,698.515,100.32,696.202z M103.704,696.202
		c0,1.815,0.338,3.52,1.018,5.108c0.68,1.591,1.613,2.981,2.801,4.173c1.188,1.192,2.575,2.129,4.159,2.81
		c1.583,0.682,3.282,1.021,5.093,1.021c1.811,0,3.521-0.34,5.134-1.021c1.613-0.681,3.013-1.617,4.201-2.81
		c1.188-1.191,2.122-2.582,2.801-4.173c0.68-1.589,1.019-3.293,1.019-5.108c0-1.816-0.339-3.52-1.019-5.108
		c-0.679-1.589-1.613-2.98-2.801-4.173c-1.188-1.192-2.588-2.143-4.201-2.853c-1.613-0.709-3.323-1.064-5.134-1.064
		c-1.811,0-3.509,0.355-5.093,1.064c-1.584,0.71-2.97,1.66-4.159,2.853s-2.122,2.584-2.801,4.173
		C104.042,692.683,103.704,694.386,103.704,696.202z"/>
	<path fill="#404040" d="M137.459,680.382h9.645v22.061c0.114,1.811,0.785,3.395,2.013,4.752c1.227,1.357,3.04,2.093,5.438,2.205
		c1.77,0,3.454-0.296,5.054-0.891c1.599-0.594,2.998-1.4,4.197-2.42c1.199-1.018,2.156-2.234,2.87-3.649
		c0.714-1.414,1.071-2.972,1.071-4.669v-14.005h-6.26v-3.384h9.645v28.679h6.006v3.046h-8.97L168,707.707V703.9
		c-1.137,2.707-2.968,4.864-5.495,6.472s-5.354,2.411-8.477,2.411s-5.594-0.874-7.412-2.622c-1.818-1.748-2.783-4.032-2.896-6.854
		v-19.542h-6.26V680.382z"/>
	<path fill="#404040" d="M204.206,696.202c0-2.256,0.434-4.385,1.303-6.388c0.87-2.001,2.048-3.75,3.534-5.245
		c1.486-1.494,3.238-2.678,5.258-3.554c2.019-0.873,4.177-1.311,6.477-1.311c1.626,0,3.168,0.24,4.626,0.719
		c1.458,0.479,2.776,1.1,3.954,1.861c1.178,0.762,2.173,1.637,2.988,2.622c0.813,0.988,1.416,1.961,1.808,2.919
		c0-1.239,0.043-2.48,0.134-3.723c0.088-1.239,0.163-2.48,0.222-3.722h3.029v28.341h6.26v3.384h-9.645v-3.384
		c0-0.677,0.013-1.339,0.042-1.988c0.028-0.647,0.042-1.282,0.042-1.903c-0.394,0.96-0.997,1.918-1.81,2.876
		c-0.813,0.96-1.793,1.806-2.944,2.538c-1.15,0.733-2.469,1.326-3.955,1.776c-1.485,0.451-3.07,0.677-4.752,0.677
		c-2.3,0-4.458-0.438-6.477-1.311c-2.02-0.874-3.772-2.044-5.258-3.511s-2.664-3.201-3.534-5.203
		C204.64,700.672,204.206,698.515,204.206,696.202z M207.59,696.244c0,1.811,0.339,3.51,1.016,5.093
		c0.677,1.584,1.593,2.971,2.75,4.159c1.155,1.188,2.538,2.121,4.145,2.801s3.342,1.018,5.203,1.018s3.581-0.338,5.161-1.018
		c1.578-0.68,2.961-1.612,4.145-2.801c1.185-1.188,2.115-2.575,2.792-4.159c0.677-1.583,1.015-3.282,1.015-5.093
		c0-1.812-0.338-3.521-1.015-5.134c-0.677-1.613-1.607-3.013-2.792-4.201c-1.184-1.188-2.567-2.122-4.145-2.801
		c-1.58-0.68-3.299-1.02-5.161-1.02s-3.596,0.34-5.203,1.02c-1.607,0.679-2.99,1.612-4.145,2.801
		c-1.157,1.188-2.073,2.588-2.75,4.201C207.929,692.723,207.59,694.433,207.59,696.244z"/>
	<path fill="#404040" d="M247.605,708.723h6.599v-24.957h-6.091v-3.384h8.885l0.085,2.961c0.055,0.96,0.111,1.833,0.167,2.622
		c0.055,0.791,0.084,1.665,0.084,2.623c1.305-2.763,3.22-4.92,5.746-6.472c2.525-1.551,5.093-2.354,7.705-2.411l-0.255,3.384
		c-1.816,0.057-3.506,0.382-5.067,0.977s-2.924,1.401-4.087,2.419c-1.164,1.019-2.086,2.235-2.767,3.65
		c-0.682,1.414-1.021,2.942-1.021,4.582v14.006h6.26v3.384h-16.243V708.723z"/>
	<path fill="#404040" d="M305.725,691.549c-4.399,1.749-8.771,3.483-13.113,5.203c-4.343,1.721-8.713,3.455-13.113,5.202
		c0.958,2.168,2.481,3.937,4.568,5.307c2.086,1.369,4.455,2.054,7.107,2.054c1.747,0,3.383-0.317,4.906-0.953
		c1.523-0.634,2.848-1.529,3.977-2.685c0.394,0.452,0.762,0.889,1.1,1.312s0.705,0.86,1.1,1.312
		c-1.467,1.354-3.131,2.425-4.991,3.215c-1.861,0.789-3.892,1.184-6.091,1.184c-2.314,0-4.471-0.438-6.472-1.311
		c-2.003-0.874-3.751-2.044-5.245-3.511c-1.495-1.467-2.68-3.201-3.553-5.203c-0.875-2.002-1.312-4.159-1.312-6.472
		c0-2.256,0.436-4.399,1.312-6.43c0.874-2.03,2.058-3.778,3.553-5.245c1.494-1.467,3.242-2.636,5.245-3.512
		c2.001-0.873,4.158-1.311,6.472-1.311c1.691,0,3.299,0.296,4.822,0.888c1.522,0.593,2.918,1.411,4.188,2.454
		c1.269,1.044,2.382,2.284,3.342,3.722C304.483,688.207,305.217,689.801,305.725,691.549z M291.174,683.089
		c-2.088,0-3.991,0.435-5.711,1.305c-1.721,0.87-3.172,2.019-4.357,3.448c-1.185,1.431-2.017,3.086-2.496,4.966
		c-0.48,1.879-0.522,3.8-0.127,5.763c3.778-1.522,7.557-3.031,11.337-4.525c3.777-1.494,7.584-3.004,11.42-4.526
		c-0.959-1.894-2.34-3.438-4.145-4.635C295.289,683.688,293.316,683.089,291.174,683.089z"/>
	<path fill="#404040" d="M518.15,709.314c0-0.789,0.281-1.451,0.846-1.988c0.563-0.535,1.212-0.804,1.945-0.804
		c0.677,0,1.297,0.269,1.861,0.804c0.563,0.537,0.846,1.199,0.846,1.988c0,0.791-0.283,1.453-0.846,1.988
		c-0.564,0.537-1.185,0.804-1.861,0.804c-0.733,0-1.383-0.267-1.945-0.804C518.432,710.768,518.15,710.105,518.15,709.314z"/>
</g>
<line id="stroke" fill="none" stroke="#404040" stroke-width="0.5" x1="-36" y1="633.675" x2="612" y2="633.675"/>
</svg>
