<?xml version="1.0" encoding="utf-8"?>
<!-- Generator: Adobe Illustrator 14.0.0, SVG Export Plug-In . SVG Version: 6.00 Build 43363)  -->
<!DOCTYPE svg PUBLIC "-//W3C//DTD SVG 1.1//EN" "http://www.w3.org/Graphics/SVG/1.1/DTD/svg11.dtd">
<svg version="1.1" id="Layer_1" xmlns="http://www.w3.org/2000/svg" xmlns:xlink="http://www.w3.org/1999/xlink" x="0px" y="0px"
	 width="1728px" height="1152px" viewBox="0 0 1728 1152" enable-background="new 0 0 1728 1152" xml:space="preserve">
<path id="photo-10" fill="#E0E0E0" d="M54.515,437.169c-18.482,0-36.677,1.224-54.516,3.581v711.251h334.577
	c81.313-75.307,132.217-182.984,132.217-302.554C466.793,621.754,282.212,437.169,54.515,437.169z"/>
<path id="photo-1" fill="#E0E0E0" d="M0,469.104c25.299,5.935,51.669,9.084,78.777,9.084c189.808,0,343.675-153.869,343.675-343.678
	c0-47.736-9.741-93.195-27.33-134.51H0V469.104z"/>
<path fill="none" stroke="#FFFFFF" stroke-width="2" d="M382.138-0.002c18.256,41.113,28.401,86.628,28.401,134.512
	c0,183.229-148.534,331.767-331.762,331.767c-27.144,0-53.526-3.261-78.777-9.41"/>
<path id="photo-8" fill="#E0E0E0" d="M1727.999,1152.001v-143.152c-74.029-135.833-218.087-228.004-383.675-228.004
	c-218.899,0-400.172,161.071-431.778,371.156H1727.999z"/>
<path fill="none" stroke="#FFFFFF" stroke-width="2" d="M927.857,1152.001c31.47-201.692,205.945-356.019,416.467-356.019
	c170.437,0,317.247,101.149,383.675,246.694"/>
<path id="photo-9" fill="#E0E0E0" d="M656.549,630.216c-200.465,0-362.973,162.511-362.973,362.976
	c0,56.953,13.123,110.841,36.5,158.811h652.945c23.377-47.97,36.5-101.855,36.5-158.811
	C1019.521,792.727,857.014,630.216,656.549,630.216z"/>
<path fill="none" stroke="#FFFFFF" stroke-width="2" d="M344.13,1152c-24.281-47.673-37.971-101.643-37.971-158.81
	c0-193.517,156.875-350.391,350.39-350.391c193.516,0,350.391,156.874,350.391,350.391c0,57.167-13.689,111.137-37.971,158.81"/>
<path id="photo-3" fill="#E0E0E0" d="M576.107,103.514c0,157.029,127.295,284.327,284.323,284.327
	c157.029,0,284.325-127.298,284.325-284.327c0-36.523-6.895-71.435-19.439-103.514h-529.77
	C583.001,32.08,576.107,66.991,576.107,103.514z"/>
<path fill="none" stroke="#FFFFFF" stroke-width="2" d="M1115.855,2.855c12.291,31.167,19.045,65.125,19.045,100.659
	c0,151.584-122.886,274.47-274.471,274.47c-151.583,0-274.467-122.885-274.467-274.47c0-36.623,7.173-71.571,20.19-103.515"/>
<path id="photo-5" fill="#E0E0E0" d="M1450.004,185.966c0,149.239,120.981,270.222,270.219,270.222c2.603,0,5.192-0.045,7.776-0.118
	V0h-203.816C1478.213,48.446,1450.004,113.91,1450.004,185.966z"/>
<path fill="none" stroke="#FFFFFF" stroke-width="2" d="M1728,446.707c-2.583,0.076-5.176,0.114-7.777,0.114
	c-144.063,0-260.852-116.79-260.852-260.854c0-72.807,29.828-138.646,77.93-185.965"/>
<path id="photo-7" fill="#E0E0E0" d="M1727.999,593.387c-118.981,24.495-208.446,129.831-208.446,256.063
	s89.465,231.563,208.446,256.059V593.387z"/>
<path fill="none" stroke="#FFFFFF" stroke-width="2" d="M1728,1096.251c-113.939-24.347-199.385-125.598-199.385-246.803
	c0-121.208,85.443-222.456,199.385-246.802"/>
<path id="photo-6" fill="#E0E0E0" d="M1727.999,369.929c-13.948-3.473-28.537-5.328-43.562-5.328
	c-99.244,0-179.7,80.457-179.7,179.702c0,99.247,80.456,179.702,179.7,179.702c15.023,0,29.612-1.854,43.562-5.328V369.929z"/>
<path fill="none" stroke="#FFFFFF" stroke-width="2" d="M1728.001,712.263c-13.92,3.601-28.518,5.516-43.563,5.516
	c-95.803,0-173.471-77.669-173.471-173.476c0-95.805,77.668-173.47,173.471-173.47c15.047,0,29.646,1.916,43.565,5.516"/>
<path id="photo-2" fill="#E0E0E0" d="M296.359,0c14.961,84.143,88.479,148.033,176.918,148.033
	c88.44,0,161.958-63.89,176.919-148.033H296.359z"/>
<path fill="none" stroke="#FFFFFF" stroke-width="2" d="M643.866,0c-14.883,80.684-85.599,141.807-170.589,141.807
	C388.29,141.806,317.574,80.684,302.69,0"/>
<g id="fill_x5F_text">
	<path fill="#58595B" d="M986.208,516.366c-1.666,4.643-3.195,8.907-4.583,12.796c-1.389,3.888-2.579,7.221-3.57,10
		c-0.992,2.777-1.647,4.642-1.965,5.594c-0.396,1.11-0.893,1.983-1.486,2.619c-0.597,0.635-1.33,0.952-2.203,0.952
		c-1.111,0-2.023-0.338-2.737-1.012c-0.714-0.676-1.071-1.488-1.071-2.44c0-0.636,0.337-1.984,1.012-4.047
		c0.675-2.065,1.527-4.405,2.561-7.023c0.952-2.541,1.904-4.96,2.855-7.261c0.952-2.303,1.668-4.047,2.144-5.238l-20.236-57.613
		l7.263-2.263l16.783,50.234l15.713-48.329c0.316-0.952,0.793-1.726,1.43-2.321c0.634-0.595,1.388-0.893,2.262-0.893
		c1.11,0,2.023,0.357,2.737,1.071c0.715,0.714,1.071,1.547,1.071,2.5c0,0.317-0.356,1.606-1.071,3.869
		c-0.714,2.262-1.666,5.159-2.856,8.689c-1.189,3.532-2.58,7.541-4.166,12.023c-1.589,4.483-3.215,9.146-4.881,13.986
		C989.541,507.021,987.875,511.723,986.208,516.366z"/>
	<path fill="#58595B" d="M1023.705,520.651c-3.333-1.785-6.15-4.166-8.451-7.143c-2.303-2.976-4.048-6.387-5.238-10.237
		c-1.189-3.848-1.784-7.797-1.784-11.844c0-3.967,0.612-7.836,1.845-11.605c1.229-3.77,2.995-7.103,5.298-10
		c2.301-2.896,5.098-5.237,8.392-7.023c3.293-1.786,7.043-2.678,11.249-2.678s7.955,0.893,11.249,2.678
		c3.292,1.786,6.09,4.147,8.394,7.083c2.301,2.938,4.064,6.291,5.297,10.06c1.229,3.77,1.846,7.639,1.846,11.605
		c0,3.969-0.596,7.856-1.786,11.666c-1.189,3.811-2.937,7.202-5.236,10.178c-2.304,2.977-5.102,5.377-8.394,7.202
		c-3.294,1.824-7.044,2.738-11.249,2.738C1030.848,523.33,1027.038,522.438,1023.705,520.651z M1026.265,468.87
		c-2.342,1.627-4.245,3.689-5.714,6.189c-1.47,2.5-2.541,5.22-3.214,8.154c-0.675,2.938-1.012,5.714-1.012,8.333
		s0.315,5.416,0.952,8.393c0.634,2.976,1.685,5.714,3.153,8.214s3.372,4.583,5.714,6.249c2.341,1.667,5.218,2.5,8.631,2.5
		c3.57,0,6.565-0.813,8.986-2.44c2.42-1.625,4.386-3.69,5.894-6.19c1.507-2.5,2.578-5.236,3.214-8.213
		c0.635-2.976,0.953-5.852,0.953-8.63c0-2.696-0.339-5.535-1.014-8.511s-1.745-5.673-3.214-8.094
		c-1.469-2.42-3.413-4.423-5.833-6.013c-2.421-1.586-5.377-2.381-8.867-2.381C1031.48,466.429,1028.604,467.244,1026.265,468.87z"/>
	<path fill="#58595B" d="M1078.403,517.199c-4.089-3.93-6.132-9.741-6.132-17.439v-37.259l7.5-0.119v37.14
		c0,5.238,1.31,9.425,3.929,12.56c2.619,3.136,6.744,4.702,12.38,4.702c5.634,0,9.779-1.547,12.438-4.644
		c2.658-3.095,3.987-7.3,3.987-12.617V463.93c0-1.109,0.357-2.023,1.072-2.737c0.714-0.715,1.586-1.071,2.618-1.071
		c1.109,0,2.003,0.377,2.679,1.131c0.673,0.755,1.012,1.688,1.012,2.797v35.711c0,7.699-2.044,13.512-6.131,17.439
		c-4.088,3.928-9.979,5.892-17.677,5.892S1082.489,521.127,1078.403,517.199z"/>
	<path fill="#58595B" d="M1244.637,521.96c-0.714-0.753-1.07-1.646-1.07-2.678v-37.854c0-2.063-0.377-4.026-1.132-5.893
		c-0.755-1.863-1.806-3.491-3.153-4.88c-1.352-1.389-2.938-2.479-4.763-3.273c-1.825-0.792-3.809-1.189-5.95-1.189
		c-2.065,0-4.029,0.397-5.894,1.189c-1.866,0.794-3.493,1.886-4.881,3.273c-1.39,1.389-2.481,3.017-3.272,4.88
		c-0.795,1.866-1.19,3.83-1.19,5.893v40.592h-7.262v-40.592c0-2.143-0.397-4.125-1.189-5.952c-0.795-1.823-1.887-3.432-3.273-4.82
		c-1.39-1.389-3.018-2.479-4.88-3.273c-1.866-0.792-3.869-1.189-6.013-1.189c-2.063,0-4.027,0.397-5.893,1.189
		c-1.865,0.794-3.474,1.886-4.82,3.273c-1.351,1.389-2.422,2.997-3.215,4.82c-0.794,1.827-1.189,3.771-1.189,5.833v40.711h-7.499
		v-58.09c0-1.029,0.376-1.923,1.131-2.678c0.753-0.753,1.646-1.131,2.679-1.131c0.952,0,1.646,0.16,2.083,0.476
		c0.436,0.318,0.732,0.755,0.893,1.31c0.238,0.477,0.357,1.15,0.357,2.023c0,0.238,0.02,0.438,0.061,0.596
		c0.038,0.159,0.06,0.397,0.06,0.714c0,0.317,0,0.833,0,1.547c0,0.636,0,1.588,0,2.856c1.428-2.063,2.856-3.729,4.285-5
		c1.429-1.269,2.855-2.24,4.285-2.917c1.429-0.673,2.856-1.131,4.285-1.368c1.429-0.238,2.856-0.357,4.284-0.357
		c3.571,0,6.943,0.993,10.119,2.976c3.174,1.984,5.752,5.237,7.737,9.762c2.459-4.523,5.356-7.737,8.689-9.643
		c3.333-1.903,6.903-2.856,10.713-2.856c6.429,0,11.564,1.865,15.416,5.595c3.848,3.731,5.772,8.809,5.772,15.237v38.211
		c0,1.031-0.356,1.925-1.07,2.678c-0.716,0.753-1.59,1.131-2.619,1.131C1246.224,523.091,1245.352,522.714,1244.637,521.96z"/>
	<path fill="#58595B" d="M1306.895,509.878c-3.018,5-6.093,8.452-9.227,10.356c-3.136,1.904-6.448,2.856-9.938,2.856
		c-4.285,0-8.057-0.893-11.31-2.678c-3.255-1.786-5.993-4.167-8.214-7.144c-2.223-2.976-3.909-6.348-5.059-10.117
		c-1.151-3.769-1.728-7.679-1.728-11.726c0-3.887,0.596-7.717,1.785-11.486c1.19-3.77,2.917-7.122,5.179-10.06
		c2.263-2.935,5.019-5.297,8.273-7.083c3.253-1.786,6.942-2.678,11.069-2.678c3.334,0,6.565,0.794,9.701,2.38
		c3.135,1.588,6.328,4.405,9.583,8.452v-6.666c0.158-1.03,0.315-1.786,0.477-2.262c0.157-0.555,0.477-1.013,0.952-1.369
		c0.477-0.357,1.31-0.536,2.5-0.536c0.871,0,1.667,0.377,2.381,1.131c0.714,0.755,1.07,1.607,1.07,2.559v58.687h-7.498v-12.617
		H1306.895z M1279.872,468.572c-2.461,1.588-4.464,3.591-6.012,6.011c-1.548,2.422-2.66,5.119-3.333,8.095
		c-0.676,2.977-1.013,5.854-1.013,8.63c0,2.779,0.298,5.676,0.894,8.69c0.596,3.017,1.626,5.794,3.095,8.333
		c1.468,2.541,3.411,4.624,5.833,6.25c2.42,1.627,5.416,2.44,8.987,2.44c3.888,0,7.083-0.834,9.583-2.5
		c2.5-1.668,4.423-3.769,5.772-6.31c1.349-2.539,2.28-5.375,2.797-8.511c0.517-3.134,0.773-6.17,0.773-9.106
		c0-2.776-0.278-5.613-0.833-8.511c-0.557-2.896-1.528-5.515-2.916-7.855c-1.391-2.341-3.255-4.266-5.595-5.773
		c-2.343-1.507-5.339-2.262-8.987-2.262C1285.348,466.191,1282.331,466.985,1279.872,468.572z"/>
	<path fill="#58595B" d="M1332.247,489.642v32.378l-7.381-0.118v-86.303c0-1.029,0.376-1.923,1.131-2.678
		c0.753-0.753,1.646-1.131,2.679-1.131c1.03,0,1.904,0.377,2.618,1.131c0.715,0.755,1.071,1.688,1.071,2.797v48.688l27.498-22.736
		c1.189-1.03,2.301-1.547,3.333-1.547c0.872,0,1.626,0.338,2.262,1.012c0.635,0.675,0.952,1.449,0.952,2.321
		c0,1.112-0.595,2.143-1.785,3.095l-26.069,20.355l31.546,31.188l-5.715,4.404L1332.247,489.642z"/>
	<path fill="#58595B" d="M1379.267,494.284c0,3.095,0.495,6.011,1.488,8.75c0.991,2.738,2.381,5.119,4.166,7.142
		c1.786,2.023,3.908,3.612,6.369,4.762c2.459,1.151,5.157,1.727,8.095,1.727c2.063,0,4.106-0.217,6.13-0.654
		c2.023-0.436,4.027-0.932,6.013-1.487l1.666,5.595c-2.46,0.953-4.781,1.708-6.965,2.262c-2.184,0.555-4.582,0.833-7.2,0.833
		c-4.523,0-8.532-0.854-12.023-2.56c-3.492-1.706-6.448-4.006-8.868-6.904c-2.421-2.896-4.267-6.268-5.535-10.118
		c-1.271-3.849-1.903-7.916-1.903-12.202c0-4.047,0.653-7.955,1.964-11.725c1.31-3.769,3.154-7.083,5.535-9.939
		s5.257-5.157,8.631-6.903c3.372-1.745,7.16-2.619,11.368-2.619c3.887,0,7.438,0.833,10.652,2.5s5.952,3.889,8.214,6.666
		c2.263,2.778,4.006,5.952,5.237,9.522c1.229,3.571,1.846,7.262,1.846,11.071c0,1.826-0.339,2.996-1.013,3.511
		c-0.675,0.518-2.005,0.774-3.987,0.774h-39.879V494.284z M1389.742,468.037c-2.224,1.309-4.088,3.035-5.596,5.178
		c-1.509,2.144-2.679,4.604-3.512,7.38c-0.833,2.779-1.449,5.596-1.845,8.452h38.568c-0.08-2.777-0.597-5.535-1.548-8.272
		c-0.952-2.738-2.263-5.197-3.93-7.381c-1.666-2.182-3.688-3.946-6.069-5.297c-2.382-1.349-5-2.023-7.856-2.023
		C1394.701,466.072,1391.963,466.727,1389.742,468.037z"/>
	<path fill="#58595B" d="M1019.836,664.806c-0.714-0.753-1.071-1.646-1.071-2.679v-37.854c0-2.063-0.377-4.027-1.131-5.894
		c-0.755-1.863-1.806-3.491-3.153-4.881c-1.352-1.387-2.938-2.479-4.763-3.273c-1.825-0.792-3.809-1.189-5.95-1.189
		c-2.065,0-4.029,0.397-5.894,1.189c-1.866,0.796-3.493,1.888-4.881,3.273c-1.39,1.39-2.481,3.018-3.273,4.881
		c-0.794,1.865-1.189,3.83-1.189,5.894v40.592h-7.263v-40.592c0-2.144-0.396-4.125-1.188-5.952
		c-0.795-1.824-1.888-3.433-3.274-4.821c-1.389-1.387-3.017-2.479-4.88-3.273c-1.866-0.792-3.869-1.189-6.012-1.189
		c-2.064,0-4.028,0.397-5.894,1.189c-1.864,0.795-3.473,1.888-4.819,3.273c-1.352,1.39-2.422,2.997-3.216,4.821
		c-0.793,1.827-1.189,3.771-1.189,5.833v40.711h-7.499v-58.091c0-1.03,0.376-1.924,1.131-2.679c0.753-0.754,1.646-1.131,2.679-1.131
		c0.952,0,1.646,0.16,2.084,0.477c0.436,0.317,0.731,0.756,0.893,1.31c0.238,0.478,0.357,1.151,0.357,2.023
		c0,0.237,0.019,0.438,0.06,0.596c0.039,0.16,0.06,0.397,0.06,0.714c0,0.318,0,0.834,0,1.548c0,0.636,0,1.588,0,2.856
		c1.428-2.063,2.856-3.729,4.285-4.999c1.43-1.27,2.856-2.241,4.285-2.917c1.429-0.673,2.857-1.131,4.285-1.368
		c1.429-0.238,2.856-0.357,4.285-0.357c3.57,0,6.942,0.993,10.119,2.977c3.172,1.984,5.752,5.237,7.736,9.762
		c2.459-4.522,5.356-7.738,8.689-9.643c3.333-1.905,6.903-2.856,10.713-2.856c6.429,0,11.564,1.865,15.416,5.595
		c3.848,3.73,5.772,8.81,5.772,15.236v38.211c0,1.032-0.356,1.926-1.07,2.679c-0.716,0.754-1.589,1.132-2.619,1.132
		C1021.423,665.938,1020.551,665.559,1019.836,664.806z"/>
	<path fill="#58595B" d="M1045.191,637.13c0,3.095,0.494,6.011,1.487,8.749c0.991,2.737,2.382,5.118,4.166,7.143
		c1.786,2.023,3.908,3.611,6.369,4.762c2.459,1.15,5.157,1.727,8.095,1.727c2.063,0,4.106-0.218,6.131-0.654
		c2.022-0.436,4.026-0.933,6.012-1.487l1.666,5.595c-2.46,0.952-4.781,1.707-6.964,2.262c-2.185,0.555-4.582,0.833-7.201,0.833
		c-4.523,0-8.532-0.854-12.023-2.56c-3.491-1.705-6.447-4.006-8.868-6.904c-2.421-2.896-4.267-6.268-5.534-10.117
		c-1.271-3.849-1.904-7.916-1.904-12.201c0-4.047,0.654-7.955,1.964-11.727c1.311-3.768,3.154-7.082,5.535-9.938
		s5.257-5.157,8.631-6.904c3.372-1.744,7.16-2.618,11.368-2.618c3.887,0,7.438,0.833,10.653,2.5
		c3.214,1.666,5.951,3.889,8.214,6.666c2.262,2.778,4.006,5.951,5.236,9.522c1.229,3.57,1.847,7.262,1.847,11.069
		c0,1.827-0.34,2.997-1.013,3.513c-0.676,0.518-2.006,0.773-3.987,0.773h-39.879V637.13z M1055.667,610.882
		c-2.223,1.311-4.088,3.035-5.595,5.178c-1.51,2.144-2.68,4.604-3.512,7.382c-0.834,2.777-1.449,5.595-1.846,8.45h38.568
		c-0.08-2.775-0.596-5.534-1.548-8.271c-0.952-2.738-2.263-5.197-3.929-7.381c-1.666-2.183-3.689-3.946-6.07-5.297
		c-2.381-1.35-5-2.023-7.856-2.023C1060.626,608.918,1057.888,609.572,1055.667,610.882z"/>
	<path fill="#58595B" d="M1145.717,665.223c-2.022-0.396-4.008-0.951-5.952-1.667c-1.944-0.714-3.79-1.605-5.534-2.678
		c-1.746-1.072-3.215-2.321-4.404-3.75l4.762-5.119c0.634,0.398,1.209,0.795,1.726,1.19c0.517,0.397,1.052,0.795,1.607,1.189
		c1.349,1.032,2.696,1.905,4.047,2.619c1.429,0.794,2.956,1.41,4.583,1.846c1.626,0.438,3.512,0.654,5.654,0.654
		c1.429,0,2.936-0.218,4.522-0.654c1.587-0.436,3.056-1.091,4.404-1.965c1.349-0.872,2.479-2.003,3.394-3.393
		c0.911-1.388,1.368-2.994,1.368-4.821c0-2.063-0.575-3.768-1.726-5.118c-1.151-1.349-2.561-2.539-4.227-3.57
		c-0.875-0.478-1.768-0.952-2.679-1.43c-0.913-0.476-1.926-0.91-3.036-1.31c-1.031-0.396-2.063-0.792-3.095-1.189
		c-1.032-0.396-2.104-0.793-3.214-1.189c-2.143-0.873-4.207-1.786-6.189-2.738c-1.984-0.952-3.711-2.042-5.179-3.272
		c-1.47-1.229-2.64-2.639-3.512-4.227c-0.874-1.587-1.31-3.452-1.31-5.595c0-2.539,0.596-4.801,1.785-6.785
		c1.19-1.982,2.737-3.67,4.644-5.06c1.903-1.389,4.064-2.44,6.487-3.154c2.42-0.714,4.859-1.071,7.319-1.071
		c1.27,0,3.036,0.221,5.298,0.654c2.262,0.438,4.482,1.071,6.666,1.905c2.183,0.833,4.086,1.865,5.714,3.095
		c1.625,1.231,2.44,2.678,2.44,4.345c0,0.874-0.318,1.509-0.953,1.904c-0.636,0.398-1.389,0.596-2.262,0.596
		c-0.477,0-1.23-0.276-2.262-0.834c-0.637-0.236-1.271-0.535-1.904-0.893c-0.637-0.356-1.311-0.732-2.023-1.131
		c-1.429-0.792-3.076-1.547-4.939-2.263c-1.865-0.714-3.909-1.07-6.13-1.07c-1.352,0-2.738,0.179-4.167,0.536
		c-1.429,0.355-2.737,0.934-3.929,1.726c-1.189,0.794-2.163,1.807-2.917,3.036c-0.755,1.229-1.131,2.719-1.131,4.464
		c0,1.746,0.614,3.175,1.846,4.285c1.229,1.112,2.639,2.104,4.227,2.976c2.381,1.271,5.197,2.481,8.452,3.631
		c3.253,1.151,6.327,2.541,9.225,4.166c2.896,1.628,5.357,3.571,7.381,5.833c2.024,2.263,3.035,5.179,3.035,8.749
		c0,2.779-0.654,5.238-1.964,7.381c-1.31,2.144-3.035,3.929-5.178,5.356c-2.145,1.429-4.523,2.521-7.144,3.273
		c-2.618,0.754-5.237,1.131-7.855,1.131C1149.663,665.817,1147.74,665.618,1145.717,665.223z"/>
	<path fill="#58595B" d="M1260.528,664.806c-0.714-0.753-1.071-1.646-1.071-2.679v-37.854c0-2.063-0.377-4.027-1.131-5.894
		c-0.755-1.863-1.807-3.491-3.154-4.881c-1.351-1.387-2.938-2.479-4.762-3.273c-1.826-0.792-3.81-1.189-5.951-1.189
		c-2.065,0-4.029,0.397-5.893,1.189c-1.866,0.796-3.493,1.888-4.882,3.273c-1.39,1.39-2.48,3.018-3.272,4.881
		c-0.794,1.865-1.19,3.83-1.19,5.894v40.592h-7.262v-40.592c0-2.144-0.396-4.125-1.188-5.952c-0.795-1.824-1.888-3.433-3.274-4.821
		c-1.389-1.387-3.017-2.479-4.88-3.273c-1.866-0.792-3.869-1.189-6.012-1.189c-2.064,0-4.028,0.397-5.894,1.189
		c-1.864,0.795-3.473,1.888-4.819,3.273c-1.352,1.39-2.422,2.997-3.215,4.821c-0.795,1.827-1.19,3.771-1.19,5.833v40.711h-7.499
		v-58.091c0-1.03,0.376-1.924,1.131-2.679c0.753-0.754,1.646-1.131,2.679-1.131c0.952,0,1.646,0.16,2.083,0.477
		c0.437,0.317,0.732,0.756,0.894,1.31c0.237,0.478,0.356,1.151,0.356,2.023c0,0.237,0.02,0.438,0.061,0.596
		c0.039,0.16,0.06,0.397,0.06,0.714c0,0.318,0,0.834,0,1.548c0,0.636,0,1.588,0,2.856c1.429-2.063,2.856-3.729,4.285-4.999
		s2.856-2.241,4.285-2.917c1.429-0.673,2.857-1.131,4.285-1.368c1.429-0.238,2.857-0.357,4.285-0.357
		c3.571,0,6.942,0.993,10.119,2.977c3.173,1.984,5.752,5.237,7.737,9.762c2.459-4.522,5.355-7.738,8.688-9.643
		c3.333-1.905,6.904-2.856,10.713-2.856c6.429,0,11.565,1.865,15.416,5.595c3.849,3.73,5.773,8.81,5.773,15.236v38.211
		c0,1.032-0.357,1.926-1.071,2.679c-0.715,0.754-1.589,1.132-2.619,1.132C1262.115,665.938,1261.243,665.559,1260.528,664.806z"/>
	<path fill="#58595B" d="M1277.313,606.656c0-1.11,0.377-2.004,1.132-2.68c0.753-0.674,1.686-1.012,2.798-1.012
		c0.872,0,1.666,0.377,2.38,1.131c0.715,0.755,1.071,1.606,1.071,2.561v58.328h-7.381V606.656z M1278.742,589.634
		c-0.558-0.555-0.834-1.229-0.834-2.023c0-0.872,0.276-1.586,0.834-2.144c0.554-0.554,1.269-0.833,2.143-0.833
		c0.872,0,1.586,0.279,2.143,0.833c0.555,0.558,0.834,1.231,0.834,2.024c0,0.874-0.279,1.588-0.834,2.143
		c-0.557,0.557-1.271,0.833-2.143,0.833C1280.011,590.467,1279.296,590.189,1278.742,589.634z"/>
	<path fill="#58595B" d="M1295.169,578.563c0-1.109,0.337-2.041,1.012-2.797c0.674-0.753,1.566-1.131,2.679-1.131
		c1.11,0,2.004,0.378,2.679,1.131c0.674,0.756,1.013,1.688,1.013,2.797v86.423l-7.381,0.118L1295.169,578.563L1295.169,578.563z"/>
	<path fill="#58595B" d="M1321.596,637.13c0,3.095,0.495,6.011,1.488,8.749c0.991,2.737,2.381,5.118,4.166,7.143
		c1.786,2.023,3.908,3.611,6.369,4.762c2.459,1.15,5.157,1.727,8.095,1.727c2.063,0,4.106-0.218,6.13-0.654
		c2.023-0.436,4.027-0.933,6.012-1.487l1.666,5.595c-2.459,0.952-4.78,1.707-6.964,2.262s-4.582,0.833-7.2,0.833
		c-4.523,0-8.532-0.854-12.023-2.56c-3.492-1.705-6.448-4.006-8.868-6.904c-2.421-2.896-4.267-6.268-5.535-10.117
		c-1.271-3.849-1.903-7.916-1.903-12.201c0-4.047,0.653-7.955,1.964-11.727c1.31-3.768,3.153-7.082,5.534-9.938
		c2.382-2.856,5.258-5.157,8.632-6.904c3.372-1.744,7.159-2.618,11.368-2.618c3.887,0,7.438,0.833,10.652,2.5
		c3.214,1.666,5.952,3.889,8.214,6.666c2.263,2.778,4.006,5.951,5.237,9.522c1.229,3.57,1.846,7.262,1.846,11.069
		c0,1.827-0.339,2.997-1.012,3.513c-0.676,0.518-2.006,0.773-3.988,0.773h-39.879V637.13z M1332.071,610.882
		c-2.224,1.311-4.088,3.035-5.595,5.178c-1.51,2.144-2.68,4.604-3.513,7.382s-1.448,5.595-1.845,8.45h38.568
		c-0.08-2.775-0.597-5.534-1.549-8.271c-0.951-2.738-2.262-5.197-3.929-7.381c-1.666-2.183-3.688-3.946-6.069-5.297
		c-2.381-1.35-5-2.023-7.856-2.023C1337.03,608.918,1334.292,609.572,1332.071,610.882z"/>
	<path fill="#58595B" d="M1410.693,624.69c-0.993-0.992-1.488-2.162-1.488-3.513c0-1.349,0.495-2.5,1.488-3.452
		c0.99-0.952,2.16-1.429,3.512-1.429c1.349,0,2.539,0.477,3.571,1.429c1.029,0.952,1.547,2.104,1.547,3.452
		c0,1.351-0.518,2.521-1.547,3.513c-1.032,0.992-2.224,1.486-3.571,1.486C1412.854,626.178,1411.686,625.684,1410.693,624.69z
		 M1410.693,664.984c-0.993-0.952-1.488-2.103-1.488-3.452s0.477-2.52,1.429-3.513c0.952-0.99,2.103-1.487,3.452-1.487
		c1.429,0,2.638,0.477,3.631,1.429c0.991,0.952,1.488,2.143,1.488,3.571c0,1.351-0.497,2.5-1.488,3.452
		c-0.993,0.951-2.163,1.429-3.512,1.429C1412.854,666.413,1411.686,665.938,1410.693,664.984z"/>
	<path fill="#58595B" d="M1430.155,670.104c-0.638-0.557-0.952-1.271-0.952-2.144c0-0.714,0.078-1.487,0.237-2.321
		c0.157-0.833,0.356-1.685,0.596-2.559c0.238-0.873,0.515-1.745,0.833-2.619c0.316-0.872,0.555-1.706,0.715-2.5
		c1.348-5.872,2.419-11.784,3.214-17.736c0.792-5.951,1.19-11.942,1.19-17.975c0-2.459-0.18-5.833-0.536-10.118
		c-0.357-4.286-0.854-8.729-1.488-13.332c-0.636-4.602-1.409-9.065-2.321-13.393c-0.913-4.324-1.925-7.797-3.035-10.415l5.952-1.19
		c2.302,7.698,4.186,15.437,5.654,23.212c1.468,7.778,2.202,15.754,2.202,23.928c0,1.189-0.061,3.255-0.179,6.188
		c-0.119,2.938-0.339,6.25-0.654,9.94c-0.318,3.688-0.735,7.54-1.25,11.546c-0.519,4.009-1.151,7.66-1.905,10.952
		c-0.755,3.294-1.627,6.011-2.618,8.152c-0.993,2.145-2.124,3.216-3.393,3.216C1431.543,670.938,1430.789,670.657,1430.155,670.104z
		"/>
</g>
<circle id="photo-center" fill="#E0E0E0" cx="497.024" cy="420.015" r="350.277"/>
<circle fill="none" stroke="#FFFFFF" stroke-width="12" cx="497.025" cy="420.015" r="350.277"/>
<path id="photo-4" fill="#E0E0E0" d="M1101.26,81.879c0,121.722,98.676,220.397,220.396,220.397
	c121.723,0,220.396-98.675,220.396-220.397c0-28.936-5.586-56.563-15.723-81.878h-409.347
	C1106.846,25.315,1101.26,52.943,1101.26,81.879z"/>
<path fill="none" stroke="#FFFFFF" stroke-width="2" d="M1518.085-0.002c10.519,25.204,16.327,52.864,16.327,81.881
	c0,117.501-95.255,212.757-212.757,212.757c-117.501,0-212.755-95.255-212.755-212.757c0-29.016,5.809-56.676,16.326-81.879"/>
</svg>
