<?xml version="1.0" encoding="utf-8"?>
<!-- Generator: Adobe Illustrator 14.0.0, SVG Export Plug-In . SVG Version: 6.00 Build 43363)  -->
<!DOCTYPE svg PUBLIC "-//W3C//DTD SVG 1.1//EN" "http://www.w3.org/Graphics/SVG/1.1/DTD/svg11.dtd">
<svg version="1.1" id="Layer_1" xmlns="http://www.w3.org/2000/svg" xmlns:xlink="http://www.w3.org/1999/xlink" x="0px" y="0px"
	 width="720px" height="576px" viewBox="0 0 720 576" enable-background="new 0 0 720 576" xml:space="preserve">
<path id="photo-zion" fill="#D6D6D6" d="M101.679,196.649h93.656v40.454H21.263l100.03-161.813h-85.81V34.836h166.472
	L101.679,196.649z M266.683,237.103H220.59V34.836h46.093V237.103z M389.024,31.159c56.144,0,101.746,45.601,101.746,104.688
	c0,59.086-43.642,104.933-101.746,104.933c-59.822,0-101.992-45.846-101.992-104.933C287.033,76.76,333.37,31.159,389.024,31.159z
	 M389.024,196.159c36.775,0,51.976-30.156,51.976-60.312c0-30.156-16.182-60.313-51.976-60.313
	c-35.55,0-52.222,30.156-52.222,60.313C336.802,166.002,351.268,196.159,389.024,196.159z M557.215,237.103h-46.091V34.836h46.091
	l80.417,125.527h0.49V34.836h46.092v202.267h-46.092l-80.417-125.528h-0.49V237.103z"/>
<g id="filltext">
	<path d="M213.68,508.914h20.09l-21.909,29.015h23.305v0.592h-24.362c3.609-5.075,7.239-9.988,10.891-14.74
		c3.651-4.751,7.281-9.509,10.891-14.274h-18.313c-0.875,0-1.516-0.112-1.924-0.338c-0.409-0.226-0.613-0.747-0.613-1.565v-0.169
		h0.676v0.508c0,0.254,0.091,0.479,0.275,0.677C212.869,508.815,213.2,508.914,213.68,508.914z"/>
	<path d="M238.253,517.373c0-0.226,0.084-0.423,0.254-0.592c0.169-0.17,0.366-0.254,0.592-0.254c0.225,0,0.423,0.084,0.592,0.254
		c0.169,0.169,0.254,0.366,0.254,0.592s-0.084,0.423-0.254,0.592c-0.169,0.169-0.367,0.254-0.592,0.254
		c-0.226,0-0.423-0.085-0.592-0.254C238.338,517.796,238.253,517.599,238.253,517.373z M239.396,538.521h-0.592v-15.86h0.592
		V538.521z"/>
	<path d="M244.513,530.569c0-1.128,0.211-2.199,0.634-3.215c0.423-1.015,1.008-1.896,1.755-2.644
		c0.747-0.747,1.614-1.339,2.601-1.776c0.987-0.437,2.058-0.655,3.214-0.655c1.127,0,2.2,0.219,3.214,0.655
		c1.015,0.438,1.896,1.029,2.644,1.776c0.747,0.748,1.339,1.629,1.776,2.644c0.437,1.016,0.656,2.087,0.656,3.215
		c0,1.156-0.219,2.228-0.656,3.214c-0.438,0.987-1.029,1.854-1.776,2.602s-1.628,1.332-2.644,1.755
		c-1.015,0.423-2.087,0.635-3.214,0.635c-1.156,0-2.228-0.212-3.214-0.635c-0.987-0.423-1.854-1.008-2.601-1.755
		c-0.748-0.747-1.333-1.614-1.755-2.602C244.724,532.797,244.513,531.726,244.513,530.569z M245.105,530.569
		c0,1.071,0.197,2.065,0.592,2.981c0.395,0.917,0.937,1.721,1.628,2.411c0.691,0.691,1.494,1.233,2.411,1.628
		c0.916,0.396,1.91,0.593,2.981,0.593c1.043,0,2.03-0.197,2.961-0.593c0.93-0.395,1.748-0.937,2.453-1.628
		c0.705-0.69,1.254-1.494,1.649-2.411c0.395-0.916,0.592-1.91,0.592-2.981c0-1.043-0.198-2.03-0.592-2.961
		c-0.395-0.931-0.945-1.748-1.649-2.453c-0.705-0.704-1.523-1.254-2.453-1.649c-0.931-0.395-1.918-0.592-2.961-0.592
		c-1.072,0-2.066,0.197-2.981,0.592c-0.917,0.396-1.72,0.945-2.411,1.649c-0.691,0.705-1.234,1.522-1.628,2.453
		C245.302,528.539,245.105,529.526,245.105,530.569z"/>
	<path d="M266.125,522.66h0.423l0.042,4.145c0.563-1.325,1.466-2.396,2.707-3.215c1.24-0.817,2.665-1.227,4.271-1.227
		c1.495,0,2.671,0.438,3.532,1.312c0.86,0.874,1.318,2.017,1.375,3.426v11.42h-0.592v-11.716c-0.057-1.015-0.43-1.896-1.121-2.644
		c-0.691-0.747-1.657-1.148-2.897-1.205c-0.959,0-1.868,0.155-2.728,0.465c-0.86,0.311-1.622,0.74-2.284,1.29
		c-0.663,0.55-1.184,1.213-1.565,1.988c-0.38,0.775-0.571,1.614-0.571,2.517v9.305h-0.592V522.66z"/>
	<path d="M321.785,508.914v30.96c-4.033-5.047-7.93-10.03-11.694-14.951c-3.765-4.92-7.494-9.834-11.188-14.74
		c-0.141-0.197-0.275-0.381-0.401-0.55c-0.127-0.169-0.261-0.353-0.402-0.55c0.028,0.226,0.049,0.451,0.063,0.677
		c0.014,0.226,0.035,0.451,0.063,0.677v28.084h-0.592v-30.96c2.03,2.566,4.003,5.097,5.921,7.592
		c1.917,2.495,3.807,4.977,5.667,7.444s3.722,4.921,5.583,7.359c1.861,2.438,3.764,4.899,5.71,7.38
		c0.141,0.198,0.275,0.381,0.401,0.55c0.127,0.17,0.261,0.354,0.402,0.55c-0.028-0.225-0.049-0.45-0.063-0.677
		c-0.014-0.225-0.036-0.45-0.063-0.677v-28.168H321.785z"/>
	<path d="M327.664,530.569c0-1.128,0.211-2.199,0.634-3.215c0.423-1.015,1.008-1.889,1.755-2.622
		c0.747-0.733,1.614-1.318,2.601-1.756c0.987-0.437,2.058-0.655,3.214-0.655c1.748,0,3.306,0.486,4.674,1.459
		c1.367,0.974,2.361,2.221,2.982,3.743c0-0.817,0.014-1.628,0.042-2.432c0.028-0.804,0.07-1.614,0.127-2.432h0.423v15.86h-0.592
		v-2.284c0-0.45,0.006-0.895,0.021-1.332c0.014-0.437,0.021-0.881,0.021-1.332c-0.311,0.761-0.719,1.459-1.227,2.094
		c-0.507,0.634-1.093,1.184-1.755,1.649c-0.663,0.465-1.396,0.824-2.2,1.078s-1.643,0.381-2.517,0.381
		c-1.156,0-2.228-0.212-3.214-0.635c-0.987-0.423-1.854-1.008-2.601-1.755c-0.748-0.747-1.333-1.614-1.755-2.602
		C327.875,532.797,327.664,531.726,327.664,530.569z M328.256,530.569c0,1.071,0.197,2.065,0.592,2.981
		c0.395,0.917,0.937,1.721,1.628,2.411c0.691,0.691,1.494,1.233,2.411,1.628c0.916,0.396,1.91,0.593,2.981,0.593
		c1.043,0,2.03-0.197,2.961-0.593c0.93-0.395,1.748-0.937,2.453-1.628c0.705-0.69,1.254-1.494,1.649-2.411
		c0.395-0.916,0.592-1.91,0.592-2.981c0-1.043-0.198-2.03-0.592-2.961c-0.395-0.931-0.945-1.748-1.649-2.453
		c-0.705-0.704-1.523-1.254-2.453-1.649c-0.931-0.395-1.918-0.592-2.961-0.592c-1.072,0-2.066,0.197-2.981,0.592
		c-0.917,0.396-1.72,0.945-2.411,1.649c-0.691,0.705-1.234,1.522-1.628,2.453C328.453,528.539,328.256,529.526,328.256,530.569z"/>
	<path d="M351.856,515.724h0.592v7.274h5.372v0.592h-5.372v14.931h-0.592V523.59h-3.764v-0.592h3.764V515.724z"/>
	<path d="M361.076,517.373c0-0.226,0.085-0.423,0.254-0.592c0.169-0.17,0.366-0.254,0.592-0.254s0.423,0.084,0.593,0.254
		c0.169,0.169,0.253,0.366,0.253,0.592s-0.084,0.423-0.253,0.592c-0.17,0.169-0.367,0.254-0.593,0.254s-0.423-0.085-0.592-0.254
		S361.076,517.599,361.076,517.373z M362.218,538.521h-0.592v-15.86h0.592V538.521z"/>
	<path d="M367.335,530.569c0-1.128,0.212-2.199,0.635-3.215c0.423-1.015,1.008-1.896,1.755-2.644
		c0.747-0.747,1.614-1.339,2.602-1.776c0.986-0.437,2.058-0.655,3.214-0.655c1.128,0,2.199,0.219,3.215,0.655
		c1.015,0.438,1.896,1.029,2.644,1.776c0.746,0.748,1.339,1.629,1.776,2.644c0.437,1.016,0.655,2.087,0.655,3.215
		c0,1.156-0.219,2.228-0.655,3.214c-0.438,0.987-1.03,1.854-1.776,2.602c-0.748,0.747-1.629,1.332-2.644,1.755
		c-1.016,0.423-2.087,0.635-3.215,0.635c-1.156,0-2.228-0.212-3.214-0.635c-0.987-0.423-1.854-1.008-2.602-1.755
		s-1.332-1.614-1.755-2.602C367.547,532.797,367.335,531.726,367.335,530.569z M367.927,530.569c0,1.071,0.197,2.065,0.593,2.981
		c0.395,0.917,0.937,1.721,1.628,2.411c0.69,0.691,1.494,1.233,2.411,1.628c0.916,0.396,1.91,0.593,2.981,0.593
		c1.043,0,2.03-0.197,2.961-0.593c0.931-0.395,1.748-0.937,2.453-1.628c0.704-0.69,1.254-1.494,1.649-2.411
		c0.395-0.916,0.592-1.91,0.592-2.981c0-1.043-0.197-2.03-0.592-2.961c-0.396-0.931-0.945-1.748-1.649-2.453
		c-0.705-0.704-1.522-1.254-2.453-1.649c-0.931-0.395-1.918-0.592-2.961-0.592c-1.071,0-2.065,0.197-2.981,0.592
		c-0.917,0.396-1.721,0.945-2.411,1.649c-0.691,0.705-1.233,1.522-1.628,2.453C368.124,528.539,367.927,529.526,367.927,530.569z"/>
	<path d="M388.948,522.66h0.423l0.042,4.145c0.563-1.325,1.466-2.396,2.707-3.215c1.24-0.817,2.664-1.227,4.271-1.227
		c1.494,0,2.672,0.438,3.532,1.312c0.859,0.874,1.317,2.017,1.374,3.426v11.42h-0.592v-11.716c-0.057-1.015-0.431-1.896-1.121-2.644
		c-0.691-0.747-1.656-1.148-2.897-1.205c-0.959,0-1.868,0.155-2.728,0.465c-0.86,0.311-1.622,0.74-2.284,1.29
		c-0.663,0.55-1.185,1.213-1.564,1.988c-0.381,0.775-0.571,1.614-0.571,2.517v9.305h-0.592V522.66z"/>
	<path d="M406.246,530.569c0-1.128,0.212-2.199,0.635-3.215c0.423-1.015,1.008-1.889,1.755-2.622s1.614-1.318,2.602-1.756
		c0.986-0.437,2.058-0.655,3.214-0.655c1.748,0,3.306,0.486,4.674,1.459c1.367,0.974,2.361,2.221,2.981,3.743
		c0-0.817,0.015-1.628,0.043-2.432c0.027-0.804,0.069-1.614,0.127-2.432h0.423v15.86h-0.593v-2.284c0-0.45,0.007-0.895,0.021-1.332
		c0.014-0.437,0.021-0.881,0.021-1.332c-0.311,0.761-0.72,1.459-1.227,2.094c-0.508,0.634-1.094,1.184-1.756,1.649
		c-0.663,0.465-1.396,0.824-2.199,1.078s-1.643,0.381-2.517,0.381c-1.156,0-2.228-0.212-3.214-0.635
		c-0.987-0.423-1.854-1.008-2.602-1.755s-1.332-1.614-1.755-2.602C406.458,532.797,406.246,531.726,406.246,530.569z
		 M406.838,530.569c0,1.071,0.197,2.065,0.593,2.981c0.395,0.917,0.937,1.721,1.628,2.411c0.69,0.691,1.494,1.233,2.411,1.628
		c0.916,0.396,1.91,0.593,2.981,0.593c1.043,0,2.03-0.197,2.961-0.593c0.931-0.395,1.748-0.937,2.453-1.628
		c0.704-0.69,1.254-1.494,1.649-2.411c0.395-0.916,0.592-1.91,0.592-2.981c0-1.043-0.197-2.03-0.592-2.961
		c-0.396-0.931-0.945-1.748-1.649-2.453c-0.705-0.704-1.522-1.254-2.453-1.649c-0.931-0.395-1.918-0.592-2.961-0.592
		c-1.071,0-2.065,0.197-2.981,0.592c-0.917,0.396-1.721,0.945-2.411,1.649c-0.691,0.705-1.233,1.522-1.628,2.453
		C407.035,528.539,406.838,529.526,406.838,530.569z"/>
	<path d="M429.889,538.521h-0.592v-31.722h0.592V538.521z"/>
	<path d="M449.387,538.521v-29.606h5.921c0.817,0,1.72,0.134,2.707,0.401c0.987,0.269,1.903,0.705,2.749,1.312
		c0.847,0.606,1.558,1.403,2.137,2.39c0.577,0.987,0.866,2.214,0.866,3.68c0,1.072-0.176,2.101-0.528,3.088s-0.896,1.86-1.628,2.622
		c-0.734,0.761-1.671,1.374-2.813,1.84c-1.142,0.465-2.502,0.697-4.081,0.697h-4.737v13.577H449.387z M449.979,524.352h4.864
		c1.635,0,2.988-0.261,4.061-0.782c1.071-0.521,1.924-1.17,2.559-1.945s1.078-1.614,1.332-2.517s0.381-1.734,0.381-2.496
		c0-1.071-0.211-2.044-0.635-2.918c-0.423-0.874-1.008-1.621-1.755-2.242c-0.747-0.619-1.622-1.1-2.622-1.438
		c-1.001-0.339-2.094-0.508-3.278-0.508h-4.906V524.352z"/>
	<path d="M463.599,530.569c0-1.128,0.212-2.199,0.635-3.215c0.423-1.015,1.008-1.889,1.755-2.622s1.614-1.318,2.602-1.756
		c0.986-0.437,2.058-0.655,3.214-0.655c1.748,0,3.306,0.486,4.674,1.459c1.367,0.974,2.361,2.221,2.981,3.743
		c0-0.817,0.015-1.628,0.043-2.432c0.027-0.804,0.069-1.614,0.127-2.432h0.423v15.86h-0.593v-2.284c0-0.45,0.007-0.895,0.021-1.332
		c0.014-0.437,0.021-0.881,0.021-1.332c-0.311,0.761-0.72,1.459-1.227,2.094c-0.508,0.634-1.094,1.184-1.756,1.649
		c-0.663,0.465-1.396,0.824-2.199,1.078s-1.643,0.381-2.517,0.381c-1.156,0-2.228-0.212-3.214-0.635
		c-0.987-0.423-1.854-1.008-2.602-1.755s-1.332-1.614-1.755-2.602C463.811,532.797,463.599,531.726,463.599,530.569z
		 M464.19,530.569c0,1.071,0.197,2.065,0.593,2.981c0.395,0.917,0.937,1.721,1.628,2.411c0.69,0.691,1.494,1.233,2.411,1.628
		c0.916,0.396,1.91,0.593,2.981,0.593c1.043,0,2.03-0.197,2.961-0.593c0.931-0.395,1.748-0.937,2.453-1.628
		c0.704-0.69,1.254-1.494,1.649-2.411c0.395-0.916,0.592-1.91,0.592-2.981c0-1.043-0.197-2.03-0.592-2.961
		c-0.396-0.931-0.945-1.748-1.649-2.453c-0.705-0.704-1.522-1.254-2.453-1.649c-0.931-0.395-1.918-0.592-2.961-0.592
		c-1.071,0-2.065,0.197-2.981,0.592c-0.917,0.396-1.721,0.945-2.411,1.649c-0.691,0.705-1.233,1.522-1.628,2.453
		C464.388,528.539,464.19,529.526,464.19,530.569z"/>
	<path d="M493.966,522.956c-0.93,0.028-1.812,0.205-2.643,0.528c-0.832,0.324-1.565,0.762-2.2,1.312
		c-0.634,0.55-1.135,1.205-1.501,1.967c-0.367,0.761-0.55,1.579-0.55,2.453v9.305h-0.592v-15.86h0.423l0.042,4.145
		c0.592-1.354,1.508-2.417,2.749-3.193c1.24-0.775,2.665-1.19,4.271-1.248V522.956z"/>
	<path d="M507.542,522.279c0.057,0.057,0.12,0.127,0.19,0.211c0.07,0.085,0.134,0.155,0.19,0.212
		c-1.072,1.015-2.101,1.995-3.088,2.939c-0.987,0.945-2.016,1.925-3.087,2.939c1.212,1.664,2.425,3.32,3.637,4.97
		s2.425,3.307,3.638,4.97h-0.762c-1.184-1.607-2.354-3.193-3.51-4.758c-1.157-1.565-2.326-3.151-3.511-4.759
		c-0.536,0.479-1.058,0.973-1.565,1.48c-0.507,0.508-1.029,1.001-1.564,1.48v6.556h-0.592v-31.722h0.592v24.277
		c1.607-1.522,3.179-2.988,4.716-4.398C504.362,525.269,505.935,523.802,507.542,522.279z"/>
</g>
<rect id="photo-center" x="261.214" y="279" fill="#D6D6D6" width="198" height="198"/>
<rect id="photo-left" x="35.214" y="279" fill="#D6D6D6" width="198" height="198"/>
<rect id="photo-right" x="486.214" y="279" fill="#D6D6D6" width="198" height="198"/>
</svg>
